<svg id="Layer_1" data-name="Layer 1" xmlns="http://www.w3.org/2000/svg" viewBox="0 0 512 512"><defs><style>.cls-1{fill:#fbd9db;}.cls-2{fill:#fff;}.cls-3{fill:#f1949b;}</style></defs><rect class="cls-1" width="512" height="512"/><path class="cls-2" d="M49.76,129.86l-.5,2.28-1.84-1.35a4.23,4.23,0,0,0-.11,3.74c.82,2.19,4.17,3.39,4.17,3.39s1.73-3.11.91-5.3A4.14,4.14,0,0,0,49.76,129.86Z"/><path class="cls-2" d="M42.46,138.31l2,1.18-1.85,1.33a4.22,4.22,0,0,0,3.53,1.26c2.33-.11,4.5-2.92,4.5-2.92s-2.42-2.61-4.75-2.5A4.16,4.16,0,0,0,42.46,138.31Z"/><path class="cls-2" d="M48.25,147.86,50,146.3l.69,2.18a4.24,4.24,0,0,0,2.29-3c.62-2.25-1.39-5.19-1.39-5.19s-3.22,1.5-3.84,3.75A4.17,4.17,0,0,0,48.25,147.86Z"/><path class="cls-2" d="M59.12,145.31l-.94-2.15,2.28,0a4.19,4.19,0,0,0-2.11-3.09c-2-1.29-5.36-.29-5.36-.29s.42,3.53,2.37,4.82A4.21,4.21,0,0,0,59.12,145.31Z"/><path class="cls-2" d="M60.05,134.18l-2.33.23.72-2.17a4.23,4.23,0,0,0-3.59,1.06c-1.82,1.46-1.93,5-1.93,5s3.49.69,5.31-.77A4.16,4.16,0,0,0,60.05,134.18Z"/><path class="cls-2" d="M368.05,84.74,366,88.19,363.73,85c-1.41,1.12-2.31,3.3-2.2,6,.15,4,5,7.78,5,7.78s4.5-4.13,4.35-8.13C370.73,87.85,369.61,85.72,368.05,84.74Z"/><path class="cls-2" d="M351.58,94.56l2.65,3-3.75,1.16c.64,1.68,2.42,3.21,5.07,4,3.86,1.09,8.93-2.32,8.93-2.32s-2.54-5.56-6.39-6.65C355.37,93,353,93.38,351.58,94.56Z"/><path class="cls-2" d="M355.83,113.26l3.69-1.58,0,3.92c1.8-.09,3.8-1.31,5.33-3.6,2.23-3.33.56-9.21.56-9.21s-6.07.7-8.3,4C355.49,109.17,355.14,111.55,355.83,113.26Z"/><path class="cls-2" d="M374.92,115l-.36-4,3.71,1.27c.48-1.74-.07-4-1.77-6.19-2.48-3.15-8.58-3.37-8.58-3.37s-1.22,6,1.26,9.13C370.93,114.06,373.09,115.12,374.92,115Z"/><path class="cls-2" d="M382.48,97.37l-3.92-.89,2.35-3.14c-1.51-1-3.85-1.18-6.43-.23-3.76,1.39-5.87,7.12-5.87,7.12s5.32,3,9.09,1.63C380.35,100.88,382,99.16,382.48,97.37Z"/><path class="cls-2" d="M162.63,30.7l-.7,1.35L161,30.89a2.75,2.75,0,0,0-.69,2.32c.14,1.51,2,2.82,2,2.82s1.61-1.65,1.46-3.16A2.68,2.68,0,0,0,162.63,30.7Z"/><path class="cls-2" d="M156.65,34.76l1.07,1.08-1.39.52a2.78,2.78,0,0,0,2,1.38c1.47.32,3.3-1.07,3.3-1.07s-1.07-2-2.55-2.36A2.71,2.71,0,0,0,156.65,34.76Z"/><path class="cls-2" d="M158.66,41.7,160,41l.07,1.47A2.71,2.71,0,0,0,162,41c.77-1.3,0-3.47,0-3.47s-2.27.4-3,1.7A2.71,2.71,0,0,0,158.66,41.7Z"/><path class="cls-2" d="M165.88,41.93l-.22-1.5,1.42.39a2.71,2.71,0,0,0-.8-2.28c-1-1.13-3.3-1.08-3.3-1.08s-.33,2.28.67,3.41A2.74,2.74,0,0,0,165.88,41.93Z"/><path class="cls-2" d="M168.33,35.13l-1.49-.25.81-1.23a2.74,2.74,0,0,0-2.42.06c-1.38.6-2,2.81-2,2.81s2.07,1,3.45.41A2.7,2.7,0,0,0,168.33,35.13Z"/><path class="cls-2" d="M392,262.54l-.14,1L391,263a1.84,1.84,0,0,0,.08,1.64c.42.92,1.92,1.34,1.92,1.34a3.38,3.38,0,0,0,.23-2.34A1.83,1.83,0,0,0,392,262.54Z"/><path class="cls-2" d="M389.06,266.46l.92.45-.77.64a1.85,1.85,0,0,0,1.58.43c1-.12,1.87-1.41,1.87-1.41a3.4,3.4,0,0,0-2.15-.94A1.81,1.81,0,0,0,389.06,266.46Z"/><path class="cls-2" d="M391.89,270.43l.71-.73.37.93a1.83,1.83,0,0,0,.9-1.37,3.41,3.41,0,0,0-.76-2.22s-1.36.76-1.56,1.76A1.8,1.8,0,0,0,391.89,270.43Z"/><path class="cls-2" d="M396.54,269l-.47-.91,1-.07a1.82,1.82,0,0,0-1-1.27,3.37,3.37,0,0,0-2.34,0s.3,1.53,1.19,2A1.8,1.8,0,0,0,396.54,269Z"/><path class="cls-2" d="M396.6,264.1l-1,.17.24-1a1.85,1.85,0,0,0-1.53.58,3.39,3.39,0,0,0-.68,2.25,3.42,3.42,0,0,0,2.29-.51A1.84,1.84,0,0,0,396.6,264.1Z"/><path class="cls-2" d="M476.05,10.17l-1.63,1.63-.81-2.1a4.18,4.18,0,0,0-2.07,3.06c-.47,2.25,1.68,5,1.68,5s3.08-1.67,3.56-3.92A4.1,4.1,0,0,0,476.05,10.17Z"/><path class="cls-2" d="M465.51,13.33l1.05,2.05-2.24.13a4.2,4.2,0,0,0,2.26,2.91c2,1.15,5.3,0,5.3,0s-.64-3.45-2.63-4.6A4.1,4.1,0,0,0,465.51,13.33Z"/><path class="cls-2" d="M465.26,24.33l2.28-.37L467,26.14a4.2,4.2,0,0,0,3.48-1.26c1.7-1.54,1.59-5,1.59-5s-3.47-.47-5.18,1.08A4.1,4.1,0,0,0,465.26,24.33Z"/><path class="cls-2" d="M475.65,28l.36-2.28,1.89,1.22a4.18,4.18,0,0,0-.13-3.69c-.93-2.1-4.3-3.08-4.3-3.08s-1.52,3.16-.58,5.26A4.14,4.14,0,0,0,475.65,28Z"/><path class="cls-2" d="M482.32,19.21l-2.06-1L482,16.75a4.21,4.21,0,0,0-3.55-1c-2.29.25-4.26,3.15-4.26,3.15S476.74,21.29,479,21A4.1,4.1,0,0,0,482.32,19.21Z"/><path class="cls-3" d="M9.88,25.73l-.47,2L7.79,26.54a3.76,3.76,0,0,0-.13,3.34c.71,1.95,3.68,3.05,3.68,3.05s1.58-2.75.86-4.71A3.7,3.7,0,0,0,9.88,25.73Z"/><path class="cls-3" d="M3.3,33.2l1.79,1.07L3.42,35.44A3.79,3.79,0,0,0,6.56,36.6c2.08-.08,4-2.57,4-2.57s-2.13-2.34-4.21-2.27A3.7,3.7,0,0,0,3.3,33.2Z"/><path class="cls-3" d="M8.37,41.77,9.94,40.4l.6,1.94a3.73,3.73,0,0,0,2.06-2.62c.58-2-1.18-4.64-1.18-4.64S8.53,36.39,8,38.39A3.69,3.69,0,0,0,8.37,41.77Z"/><path class="cls-3" d="M18.08,39.6l-.81-1.93,2,0a3.76,3.76,0,0,0-1.86-2.78c-1.72-1.16-4.77-.3-4.77-.3s.34,3.15,2.07,4.31A3.72,3.72,0,0,0,18.08,39.6Z"/><path class="cls-3" d="M19,29.69l-2.08.18.66-1.93a3.76,3.76,0,0,0-3.21.91c-1.64,1.28-1.77,4.45-1.77,4.45s3.11.64,4.75-.64A3.71,3.71,0,0,0,19,29.69Z"/><path class="cls-2" d="M25.26,352.79l-2.59,1.74-.52-3a5.64,5.64,0,0,0-3.56,3.5c-1.22,2.86.89,7.11.89,7.11s4.53-1.4,5.76-4.26A5.52,5.52,0,0,0,25.26,352.79Z"/><path class="cls-2" d="M10.44,354.19l.85,3-3-.43a5.65,5.65,0,0,0,2.23,4.47c2.34,2,7,1.35,7,1.35s.08-4.75-2.26-6.8A5.56,5.56,0,0,0,10.44,354.19Z"/><path class="cls-2" d="M7.19,368.72l3.12.12L9,371.57a5.63,5.63,0,0,0,4.94-.75c2.67-1.59,3.45-6.27,3.45-6.27s-4.48-1.53-7.16.06A5.55,5.55,0,0,0,7.19,368.72Z"/><path class="cls-2" d="M20,376.3l1.08-2.93,2.19,2.12a5.63,5.63,0,0,0,.81-4.93c-.69-3-4.89-5.22-4.89-5.22s-2.85,3.79-2.16,6.82A5.55,5.55,0,0,0,20,376.3Z"/><path class="cls-2" d="M31.17,366.46l-2.45-1.94,2.69-1.42A5.65,5.65,0,0,0,27,360.8c-3.1-.28-6.48,3-6.48,3s2.72,3.89,5.82,4.17A5.54,5.54,0,0,0,31.17,366.46Z"/><path class="cls-2" d="M468.48,362.09l-1.3.76-.17-1.46A2.74,2.74,0,0,0,465.2,363c-.67,1.35.23,3.45.23,3.45s2.23-.54,2.9-1.89A2.67,2.67,0,0,0,468.48,362.09Z"/><path class="cls-2" d="M461.29,362.35l.33,1.47-1.44-.29a2.7,2.7,0,0,0,.95,2.21c1.07,1.06,3.36.85,3.36.85s.16-2.28-.91-3.34A2.69,2.69,0,0,0,461.29,362.35Z"/><path class="cls-2" d="M459.32,369.26l1.5.15-.72,1.28a2.73,2.73,0,0,0,2.4-.22c1.33-.7,1.84-2.93,1.84-2.93s-2.12-.87-3.45-.17A2.68,2.68,0,0,0,459.32,369.26Z"/><path class="cls-2" d="M465.29,373.28l.6-1.39,1,1.09a2.73,2.73,0,0,0,.54-2.35c-.25-1.49-2.22-2.66-2.22-2.66s-1.48,1.75-1.23,3.23A2.66,2.66,0,0,0,465.29,373.28Z"/><path class="cls-2" d="M471,368.84l-1.13-1,1.34-.61a2.73,2.73,0,0,0-2.07-1.23c-1.49-.22-3.22,1.29-3.22,1.29s1.21,1.94,2.7,2.17A2.68,2.68,0,0,0,471,368.84Z"/><path class="cls-3" d="M189.45,288.56l-.7,1.35-.92-1.16a2.75,2.75,0,0,0-.69,2.32c.15,1.5,2,2.82,2,2.82s1.6-1.66,1.45-3.16A2.67,2.67,0,0,0,189.45,288.56Z"/><path class="cls-3" d="M183.48,292.62l1.06,1.08-1.38.52a2.7,2.7,0,0,0,2,1.37c1.47.33,3.31-1.06,3.31-1.06s-1.08-2-2.55-2.36A2.67,2.67,0,0,0,183.48,292.62Z"/><path class="cls-3" d="M185.49,299.55l1.35-.67.07,1.47a2.74,2.74,0,0,0,1.93-1.47c.76-1.3,0-3.47,0-3.47s-2.27.39-3,1.69A2.68,2.68,0,0,0,185.49,299.55Z"/><path class="cls-3" d="M192.71,299.79l-.23-1.5,1.42.39a2.71,2.71,0,0,0-.8-2.29c-1-1.12-3.3-1.07-3.3-1.07s-.33,2.27.68,3.4A2.7,2.7,0,0,0,192.71,299.79Z"/><path class="cls-3" d="M195.16,293l-1.5-.25.82-1.23a2.73,2.73,0,0,0-2.43.06c-1.38.6-2,2.8-2,2.8s2.06,1,3.45.41A2.69,2.69,0,0,0,195.16,293Z"/><path class="cls-3" d="M421,138.51l-.7,1.34-.92-1.15a2.74,2.74,0,0,0-.69,2.32c.15,1.5,2,2.81,2,2.81s1.6-1.65,1.45-3.15A2.67,2.67,0,0,0,421,138.51Z"/><path class="cls-3" d="M415.06,142.56l1.06,1.08-1.38.52a2.74,2.74,0,0,0,2,1.38c1.47.32,3.31-1.07,3.31-1.07s-1.08-2-2.55-2.36A2.69,2.69,0,0,0,415.06,142.56Z"/><path class="cls-3" d="M417.07,149.5l1.35-.68.07,1.48a2.73,2.73,0,0,0,1.92-1.47c.77-1.3,0-3.48,0-3.48s-2.27.4-3,1.7A2.67,2.67,0,0,0,417.07,149.5Z"/><path class="cls-3" d="M424.29,149.73l-.23-1.5,1.42.39a2.68,2.68,0,0,0-.8-2.28c-1-1.13-3.3-1.08-3.3-1.08s-.33,2.28.67,3.41A2.72,2.72,0,0,0,424.29,149.73Z"/><path class="cls-3" d="M426.74,142.94l-1.5-.25.82-1.24a2.8,2.8,0,0,0-2.43.06c-1.38.6-2,2.81-2,2.81s2.06,1,3.45.41A2.71,2.71,0,0,0,426.74,142.94Z"/><path class="cls-2" d="M275.93,407.41,272.21,409l.1-3.92c-1.8.06-3.82,1.27-5.37,3.54-2.27,3.31-.66,9.2-.66,9.2s6.08-.63,8.35-3.93C276.23,411.5,276.59,409.12,275.93,407.41Z"/><path class="cls-2" d="M256.85,405.47l.32,4-3.7-1.3c-.49,1.73,0,4,1.71,6.2,2.44,3.17,8.55,3.46,8.55,3.46s1.28-6-1.17-9.15C260.84,406.45,258.68,405.36,256.85,405.47Z"/><path class="cls-2" d="M249.11,423,253,424l-2.38,3.11c1.5,1,3.84,1.22,6.43.3,3.77-1.35,5.93-7.06,5.93-7.06s-5.28-3.07-9.06-1.72C251.28,419.53,249.58,421.24,249.11,423Z"/><path class="cls-2" d="M263.41,435.8l2.09-3.44,2.23,3.23c1.42-1.11,2.34-3.27,2.27-6-.12-4-4.88-7.83-4.88-7.83s-4.55,4.08-4.44,8.09C260.76,432.66,261.86,434.8,263.41,435.8Z"/><path class="cls-2" d="M280,426.15l-2.62-3.06,3.76-1.12c-.62-1.69-2.39-3.23-5-4-3.85-1.13-9,2.22-9,2.22s2.48,5.59,6.32,6.72C276.18,427.7,278.56,427.31,280,426.15Z"/><path class="cls-2" d="M350.78,450.18l-.7,1.34-.92-1.16a2.75,2.75,0,0,0-.7,2.33c.15,1.5,2,2.81,2,2.81s1.6-1.65,1.46-3.15A2.72,2.72,0,0,0,350.78,450.18Z"/><path class="cls-2" d="M344.8,454.23l1.06,1.08-1.38.52a2.76,2.76,0,0,0,2,1.38c1.48.32,3.31-1.07,3.31-1.07s-1.08-2-2.55-2.36A2.71,2.71,0,0,0,344.8,454.23Z"/><path class="cls-2" d="M346.81,461.17l1.36-.68.06,1.48a2.75,2.75,0,0,0,1.93-1.47c.76-1.31,0-3.48,0-3.48s-2.27.4-3,1.7A2.7,2.7,0,0,0,346.81,461.17Z"/><path class="cls-2" d="M354,461.4l-.22-1.5,1.42.39a2.75,2.75,0,0,0-.8-2.28c-1-1.13-3.31-1.08-3.31-1.08s-.32,2.28.68,3.41A2.7,2.7,0,0,0,354,461.4Z"/><path class="cls-2" d="M356.48,454.61l-1.49-.25.81-1.24a2.74,2.74,0,0,0-2.42.06c-1.39.6-2.05,2.81-2.05,2.81s2.07,1,3.45.41A2.69,2.69,0,0,0,356.48,454.61Z"/><path class="cls-2" d="M102.46,460.8l-.29,2-1.69-1.06a3.69,3.69,0,0,0,.15,3.27c.85,1.85,3.85,2.68,3.85,2.68s1.31-2.82.45-4.67A3.61,3.61,0,0,0,102.46,460.8Z"/><path class="cls-2" d="M96.64,468.63l1.84.9-1.54,1.28a3.69,3.69,0,0,0,3.16.87c2-.24,3.74-2.83,3.74-2.83s-2.28-2.12-4.3-1.88A3.63,3.63,0,0,0,96.64,468.63Z"/><path class="cls-2" d="M102.29,476.58l1.43-1.46.74,1.85a3.68,3.68,0,0,0,1.8-2.73c.4-2-1.53-4.44-1.53-4.44s-2.72,1.51-3.12,3.51A3.65,3.65,0,0,0,102.29,476.58Z"/><path class="cls-2" d="M111.6,473.66l-.95-1.81,2-.13a3.7,3.7,0,0,0-2-2.56c-1.78-1-4.69.1-4.69.1s.6,3.05,2.38,4A3.61,3.61,0,0,0,111.6,473.66Z"/><path class="cls-2" d="M111.71,463.91l-2,.35.49-1.94a3.71,3.71,0,0,0-3.07,1.15c-1.49,1.39-1.36,4.49-1.36,4.49s3.09.38,4.59-1A3.68,3.68,0,0,0,111.71,463.91Z"/><path class="cls-2" d="M261.41,136.84l-1.63,1.64-.81-2.1a4.18,4.18,0,0,0-2.07,3.05c-.47,2.25,1.68,5,1.68,5s3.08-1.66,3.56-3.91A4.12,4.12,0,0,0,261.41,136.84Z"/><path class="cls-2" d="M250.87,140l1,2.06-2.24.12a4.16,4.16,0,0,0,2.26,2.91c2,1.15,5.3,0,5.3,0s-.64-3.45-2.63-4.59A4.1,4.1,0,0,0,250.87,140Z"/><path class="cls-2" d="M250.62,151l2.28-.36-.58,2.17a4.16,4.16,0,0,0,3.48-1.25c1.7-1.54,1.59-5.05,1.59-5.05s-3.47-.46-5.18,1.08A4.13,4.13,0,0,0,250.62,151Z"/><path class="cls-2" d="M261,154.64l.36-2.28,1.89,1.22a4.18,4.18,0,0,0-.13-3.69c-.93-2.09-4.3-3.07-4.3-3.07s-1.52,3.16-.58,5.26A4.12,4.12,0,0,0,261,154.64Z"/><path class="cls-2" d="M267.68,145.89l-2.06-1,1.75-1.42a4.17,4.17,0,0,0-3.55-1c-2.29.24-4.26,3.14-4.26,3.14s2.54,2.42,4.83,2.18A4.1,4.1,0,0,0,267.68,145.89Z"/><path class="cls-2" d="M128.05,201.8l-.53,2.29-1.83-1.38a4.26,4.26,0,0,0-.15,3.76c.8,2.2,4.15,3.43,4.15,3.43s1.77-3.1,1-5.29A4.19,4.19,0,0,0,128.05,201.8Z"/><path class="cls-2" d="M120.64,210.2l2,1.21-1.87,1.32A4.23,4.23,0,0,0,124.3,214c2.34-.08,4.55-2.88,4.55-2.88s-2.4-2.64-4.74-2.56A4.18,4.18,0,0,0,120.64,210.2Z"/><path class="cls-2" d="M126.34,219.84l1.77-1.54.67,2.19a4.27,4.27,0,0,0,2.33-3c.64-2.25-1.34-5.22-1.34-5.22s-3.25,1.47-3.89,3.72A4.17,4.17,0,0,0,126.34,219.84Z"/><path class="cls-2" d="M137.27,217.4l-.92-2.17,2.29,0a4.23,4.23,0,0,0-2.09-3.12c-1.94-1.31-5.37-.34-5.37-.34s.39,3.54,2.33,4.85A4.18,4.18,0,0,0,137.27,217.4Z"/><path class="cls-2" d="M138.32,206.25l-2.34.2.75-2.16a4.26,4.26,0,0,0-3.62,1c-1.84,1.44-2,5-2,5s3.49.72,5.33-.72A4.15,4.15,0,0,0,138.32,206.25Z"/></svg>