<svg id="Layer_1" data-name="Layer 1" xmlns="http://www.w3.org/2000/svg" xmlns:xlink="http://www.w3.org/1999/xlink" viewBox="0 0 128 128"><defs><style>.cls-1{fill:none;}.cls-2{clip-path:url(#clip-path);}.cls-3{fill:#fcbf60;}.cls-4{fill:#f68c2e;}.cls-5{fill:#faa931;}.cls-6{fill:#c75e28;}.cls-7{fill:#ffe745;}.cls-8{fill:#fff;}.cls-9{fill:#76564b;}.cls-10{fill:#492d27;}.cls-11{fill:#f7abad;}.cls-12{fill:#e06460;}.cls-13{fill:#f6bbaf;}.cls-14{fill:#fceaec;}</style><clipPath id="clip-path"><rect class="cls-1" width="128" height="77.67"/></clipPath></defs><g class="cls-2"><path class="cls-3" d="M121.41,24C112.11,9.12,92.87-.14,75.05,4.76,71.78,2.26,60.22-.58,55,2.68,51.42,4.76,49,10,49,10c-3.9,2.52-8.75,8.17-9.23,13.56,0,0-6.89,4.4-5.87,12.38,0,0-17.4-12.43-21.5-14.28S7.2,22.49,8.75,28c-3.56,4.32-2.51,18.57,2.32,22.08,0,0-5.89,4.82-5.18,12-.36,0-7.73,10.12-3.78,11.49,7.46,4.88,20.73,5.55,31.57.33,0,0-1.54,10.23,10,8.09a15.53,15.53,0,0,0,13,1.58,10.39,10.39,0,0,0,13-3.13c12.08-.84,59.19-14.35,54.16-43.3,2.32-.4,4.23-5.1,1.37-7.11C127.78,27.42,124.62,23,121.41,24Z"/><path class="cls-4" d="M55.13,76.61Z"/><path class="cls-4" d="M55.13,76.61h0Z"/><path class="cls-4" d="M110.06,60.89c-2.81,1.11-5.51,2.53-8.51,3.14a.42.42,0,0,0-.41.45c-.31,2.07-2.35,3.41-3.89,4.36-1.37.89-3.22,1.4-4.69.48a.42.42,0,0,0-.55-.39c-.24-.14-.47.21-.29.42a5.72,5.72,0,0,1-2.09,3.25c-1.8.44-4,.83-5.42-.79a.22.22,0,0,0-.39.19c-1.24.43-.5,2-3.52,2.85-1.15-.07-2.39.18-3.46-.46-.14-.08-.36-.25-.52-.12-.07-.22-.27-.47-.52-.31-.32.31.12.84,0,1.25C75.68,77.14,73.47,77.5,72,78c-.58-.56-1.67,0-2.34-.65-.47-.28-2.86-2.49-1.93-.63-3.14,2.24-9.45,2.54-11.56-1.14a.26.26,0,0,0-.48.17c-2.81.73-5.83,1.47-8.72.63-.6-.5-1.53-.5-2.17-1-.57-.09-1.8-2.4-1.72-1.16a6.54,6.54,0,0,1-4-1.27c-.29-.18-.77-.68-1.13-.41-2.12-1.67-3.62,1.32-2.45,1.4,7.14,3.35,15.41,3.93,23.15,4.57,2.48,1.1,5.1.4,7.68.39,3.17,0,6.42.1,9.32-1.38,3.72-1.08,7.39-2.81,11.22-3.73a4.58,4.58,0,0,0,3-.71,2.62,2.62,0,0,0,.78-.44c1.75-.41,3.55-1.62,5.32-2.24C97.46,69.91,113.32,62.23,110.06,60.89Z"/><path class="cls-5" d="M71.41,20c-.78-.41-1.33,1-1.81-.12-3.2-3-1.11,6.4.61,6.92.26.37,1.19.56,1.23-.1C72,25.29,72.88,20.81,71.41,20Z"/><path class="cls-5" d="M67.28,23.29a2.19,2.19,0,0,0-.39-.42.42.42,0,0,0,0-.51c.69-5.89-.89-1.72-2.48-2A1.72,1.72,0,0,1,63,18.69c-.5-1-.86.46-.53,1-.85.45.29,1.49.61,2A1.63,1.63,0,0,0,64.15,23C64.65,24,67.59,25.19,67.28,23.29Zm-1.55-.15h0Z"/><path class="cls-5" d="M71.16,31.5c-.22-.81-1-.48-1.33.07-2.91,2.37-5.23-3.82-4.77-1.11-.72.41,0,1.43.31,1.9.54,1.59,2.15,2.23,3.4,3.15C71.82,37.24,71.16,33.29,71.16,31.5Z"/><path class="cls-5" d="M64.38,25.34c-1.54-1.09-1.83,2.16-3.56,1.84a4.26,4.26,0,0,1-4-2.27c-.33-.43-.65.14-.38.46-.61,2.85,5.67,6.27,7.87,4.74C64.81,28.71,65.33,26.63,64.38,25.34Zm-.6.69s0-.05,0,0Z"/><path class="cls-5" d="M55,23.36a.34.34,0,0,0-.34.18c-2.85.92-2.23,6.51-4.45,6-4.31.13-.13,5.24,2.24,4.37.81-1.79.6-4.16,2.1-5.78C55.88,26.94,57.77,24,55,23.36Z"/><path class="cls-5" d="M61.21,31.28c-3.4-1-3.85,1.22-4.16,3.9-.6.23-1.46-.17-1.91.48-1.21,1.93,3.17,3.76,4.62,3.48,1-1,.3-2.73,1-3.93C61,33.93,63,32.21,61.21,31.28Z"/><path class="cls-5" d="M69.34,37.68a1.56,1.56,0,0,0-1.42-1.22.38.38,0,0,0-.68,0,.26.26,0,0,0-.27.29c-1,.72-.21,3.5-1.36,3.4-.81-.33-1.58-1-2.53-.76-4,2,3.42,6.55,5.37,4.49C69.09,41.91,68.94,39.69,69.34,37.68Z"/><path class="cls-5" d="M73.85,44.79c-.47-.5-1.11-5.13-1.87-3.2-.71.16-.85.94-.93,1.57C66.3,43.9,74.92,49.65,73.85,44.79Z"/><path class="cls-5" d="M74.46,50.19a2.4,2.4,0,0,0-1.78-2.3c-.94-.91-2.4-.31-3,.68-.24.1-.53.2-.6.49.23,1.63,2.87,1.24,4,1.9C73.8,51.54,74.79,51.21,74.46,50.19Z"/><path class="cls-5" d="M64.84,44.79a.34.34,0,0,0-.11-.39c-1-.75-1.83.46-2.41,1.13-1,.75-2.1-.22-3.14-.18a1.25,1.25,0,0,0-1.26,1.24c.53,2.7,4.38,1.11,6.22,2C66.37,49.16,66.17,45.7,64.84,44.79Z"/><path class="cls-5" d="M57.93,41.43c0-2.25-3.86-3.94-4.59-1.28a21.42,21.42,0,0,1-.17,2.68c-.65-.21-1.56-.81-2,.11-.41,2.28,3.5,3.89,5.38,3.9.84-.83,1.38-3.93,1.15-5.14A.25.25,0,0,0,57.93,41.43Z"/><path class="cls-5" d="M50.29,35.31c-2-4.4-5.83-2.06-4.68,2.35-3.65-3.41-3.8,5.27,3,5.35,1.73-.11.86-2.79.8-3.8C49.12,37.79,50.31,36.64,50.29,35.31Z"/><path class="cls-5" d="M42.22,37.68a2.05,2.05,0,0,0-3.54.41c-.46.72-.2,1.67-.67,2.37-2.78,1.52-1.78,3.94.24,5.67,2.2,1.39,1.47-1.75,1.8-3,.19-1.85,2-3.22,1.94-5.06A.29.29,0,0,0,42.22,37.68Z"/><path class="cls-5" d="M47.44,47.32c.6-1.2.85-2.81-.4-3.69.07-.5-.89-.7-1.29-.86-2.65-.42-3,2.94-2.12,4.72-2.59,1.48,1.65,3.41,3,3.08C47.64,49.84,46.79,48.31,47.44,47.32Z"/><path class="cls-5" d="M54,46.11c-1.74-1.06-4.25.53-4.59,2.47a4.59,4.59,0,0,1-.63,1.83c-.26.75-.11,2.38,1,2.17,1.2-1.47,1.32-3.74,3.56-4.5C54.17,47.87,54.86,46.67,54,46.11Z"/><path class="cls-5" d="M46.73,58.94c-.1-1.31-1-2.45-.94-3.79.69-1.6-.19-2.95-1.11-4.23.65-.86-3.31-2.38-3.48,1.24-.4,1.44,1,2.75.35,4.05a1.75,1.75,0,0,0-.3,1.17C41.37,59,46.91,61.56,46.73,58.94Z"/><path class="cls-5" d="M38.74,48.46c-.88-1.49-2.85-1.4-3.07.49-.32,1.56-.48,2.17-2.08,2.61-1.32,1.57,3,4.82,4.3,3.46.2-1.14-.21-2.38.15-3.54C38,50.48,39.33,49.28,38.74,48.46Z"/><path class="cls-5" d="M54.7,60c-1.49-3.11-7.84-5.76-5,.09C47.25,62,57.73,64.59,54.7,60Z"/><path class="cls-5" d="M37,56.13c-3.7-1.49-2.72,1.2-3.89,3.38-.3,1.37,1.92,3.41,3.15,3.18C36.75,62.39,38.67,54.35,37,56.13Z"/><path class="cls-5" d="M44.16,70c-.08-.4-.48-.84-.92-.66a2.37,2.37,0,0,0-3.58.37C33.22,69.9,43.91,81,44.16,70Z"/><path class="cls-5" d="M45.6,62c-2.47-3.9-5.26-1.75-4.45,2.18-1.37.79-.83,2.66.41,3.31,2.85,1.63,5.25,2.31,4.41-2C45.54,64.64,46.89,61.43,45.6,62Z"/><path class="cls-5" d="M56.46,69c-.79-1.48-.17-3.6-1.72-4.58-.19-.88-1.69-.8-2.36-.46-1.65.77-1.45,2.72-1.74,4.18-.51.42-1.56.19-1.69,1.12C48.5,72.85,57,72.76,56.46,69Z"/><path class="cls-5" d="M55,74.66c-1-3.23-4.18-3.79-6.46-1.44-1.36.43-2.63.88-1.68,2.56,1.27,2.11,7.82,2.13,7.89-.88C54.85,74.91,55,74.82,55,74.66Z"/><path class="cls-5" d="M67.32,76.72c-.23-4.09-2.8-3.92-5.73-2.22-.64.17-1.39.08-1.61.87C59,79,67.69,80.26,67.32,76.72Z"/><path class="cls-5" d="M64.61,70.74c-.48-1.11-2.64-2-3.75-2.08-2.79-1.93-4,.82-2,2.84C60.26,72.64,64.59,73.34,64.61,70.74Z"/><path class="cls-5" d="M75.79,74.51a3.93,3.93,0,0,0-.9-1.68,1.68,1.68,0,0,0-2.61-1.75,7.4,7.4,0,0,1-3,1c-1,.82.23,1.79.93,2.29.53.53.8,1.23,1.29,1.8C72.92,78,76.35,77,75.79,74.51Z"/><path class="cls-5" d="M84,69.13c-1.16-1.23-3.25.05-4.62,0-.95.13-1.51-.84-2.4-.79a4.15,4.15,0,0,0-2.36,2c-1.14,0-.09,1.78.63,1.86,1.79.58,3.52-1,5.32-.5C82.84,73.13,85.49,71.66,84,69.13Z"/><path class="cls-5" d="M83.22,63.75c-.89-1.88-1.56-.75-2.08.6-.6,1.67-2.63,2.39-3.1,4.13a1.63,1.63,0,0,0,2.75.4c.81-1.6,2.52-2.74,2.33-4.75A.25.25,0,0,0,83.22,63.75Z"/><path class="cls-5" d="M88.4,62.52c-1.88-1.79-6.27-4.17-5.55.47.22,1.16.28,2.78,1.45,3.42,1.77.89,2.14-2,3.65-1.84C89.08,64.58,89.17,63.09,88.4,62.52Z"/><path class="cls-5" d="M85.46,67.12c-.24-.13-.64-.27-.82,0-.59.86-1.85,3.34-.08,3.57,1.27.22,2.65.83,3.82-.06.59-.36,1.28-1.49.48-2"/><path class="cls-5" d="M99.19,65.15c-1.47-1.87-4.06-.65-6-1.22a.37.37,0,0,0-.44.48C91,67.78,92,69.08,95.65,68.18c.68,0,1.27.24,1.89-.15C98.29,67.34,99.89,66.3,99.19,65.15Z"/><path class="cls-4" d="M76.67,52.13c0-1.18-1.21-1.81-1.41-2.91A2.36,2.36,0,0,0,74.33,47C71.25,41.92,72,35.55,71.5,29.85a9.86,9.86,0,0,0,.4-4c0-.42.41-1.08,0-1.38.39-4.28,3-8.53,2.26-12.78-.16-.4-.85-.14-.71.27.18,5.21-2.88,10.28-2.86,15.62a27.55,27.55,0,0,1-2.63-3,.53.53,0,0,0-.21-.26A1.39,1.39,0,0,0,67.83,23c-.82-1.78.63-3.88.19-5.52.08-.57,2.07-2.63.57-2.29-1.64,1.45-4.48,8.57-1.34,9.33-.33,2,1.88,3.72,3.26,4.93a36.05,36.05,0,0,0,.09,6.81c-1.54-.53-3.52-.52-4.29-2.28-1.69-.39,1.56,3.55,2.21,3.71.15.11.15.05.1.23-.68,1.45-1.43,3.24-.9,4.85,1,1.73,2.17-4.94,3-5.67a.42.42,0,0,0,.18.3c.48,3.31.88,6.85,2.5,9.82A9.16,9.16,0,0,1,69,44.78c-.45-.72-.8.09-.48.58.54,2,2.65,2.47,4,3.64.65.69,1.63,3.34,2,1,.28.78,1.08,1.35,1.17,2.21C75.79,52.75,76.71,52.73,76.67,52.13Z"/><path class="cls-4" d="M101.89,65c-7.94-.46-11.35-.3-18.31-4.43a.36.36,0,1,0-.6.41c1.87,2.57,5.15,3.59,8.07,4.35.57,1.2-.4,2.45,0,3.69A10.42,10.42,0,0,1,86.64,68c-2.09.46,3.5,2.13,4.14,1.81,0,.47.25,1.08-.13,1.45-.3.77.92.63,1,0a3.19,3.19,0,0,0,0-1.68c.58-.09.27-.75.2-1.12-.09-1,.57-2.1.17-3.13.39,0,.87.15,1.22,0C94.28,65.07,104.06,67.27,101.89,65Z"/><path class="cls-4" d="M62,22.34a4.28,4.28,0,0,0,1.69,2.33c-.1,1,1.38.86.82,2.41-.51.61-1.29,6,.29,3.92a9,9,0,0,1,1.4-5.3.51.51,0,0,0-.07-1c-7.17-2.38-2.3-7.86-3.95-10.83a.32.32,0,0,0-.54.34c.42,2.61-1.22,5.45.35,8A.18.18,0,0,0,62,22.34Z"/><path class="cls-4" d="M66.45,43.91a20.14,20.14,0,0,0-2.94-.52c-.61-.17-2.22-3.18-2.34-1.61.69,1.84,2.47,2.69,3.83,3.88a.39.39,0,0,0,0,.26c-1,.72-.26,4.12.89,2.7C66,46.75,70.3,44.26,66.45,43.91Z"/><path class="cls-4" d="M56.88,38.26a11.41,11.41,0,0,1-4-3.44.43.43,0,0,0-.74.44,10,10,0,0,0,5.19,5l.1,0c-1.7,3.59-.37,8.64.93,1.23C60.76,39.88,58.58,39,56.88,38.26Z"/><path class="cls-4" d="M60.2,38.74A11.57,11.57,0,0,1,62.73,32c1-.3,1-1.4-.12-.9-2.16-.85-4.38-1.59-5.92-3.5-2.6-.39,2.58,4.94,4.79,4.59C59.69,34,57.38,37,59.9,39.27,60.26,39.51,60.47,39,60.2,38.74Z"/><path class="cls-4" d="M55.88,26.4c.25.2.62-.17.4-.41A2.29,2.29,0,0,1,56,24.11c.1-1.39,1.31-2.61.83-4-.08-.56-1.31-1.85-1.51-.76C57.61,21.38,53.52,24.1,55.88,26.4Z"/><path class="cls-4" d="M47.12,29.77a6.52,6.52,0,0,0,1.48,3.46,4.62,4.62,0,0,1-.06,4.22c-.54.7-.07,4.55,1,2.94a15.25,15.25,0,0,1,1.35-5.26c.5.3,1.25-.46.63-.83a5.92,5.92,0,0,1-3.23-3.16c-.44-.38-.59-6.14-1.44-4.05C47.28,27.91,47,28.89,47.12,29.77Z"/><path class="cls-4" d="M57.26,47a4.74,4.74,0,0,1-4.14-1.58c-1.81-.24,1.35,2.16,1.94,2.2.48.56,1.52.14,2.2.21S57.8,47,57.26,47Z"/><path class="cls-4" d="M45.32,43.3a6.13,6.13,0,0,0,2.12,1.06,5.62,5.62,0,0,0-.25,1.9c.59.83.69-.45.92-.82,1.15-2,2-3.26-1-2.15a7,7,0,0,1-3.38-2.88C42.43,40.16,44.8,43.11,45.32,43.3Z"/><path class="cls-4" d="M43.56,51c1.88.79.58,3,1.76,4,1.6.67,1.48-2.27,1.62-3.24-.22-1-2.12-1.75-3-1.35C42.46,48.59,42.18,49.73,43.56,51Z"/><path class="cls-4" d="M39.83,43.51c.7-1.31.5-3.07,1.67-4.2.51.68,1.31-.56.54-.77-1.46-1.71.52-4.88-1.78-6-.4-.17-.6.44-.22.62,1.35,1.09.07,3.25.7,4.72a8.94,8.94,0,0,1-1.33,2.7C39.1,41.26,38.46,44,39.83,43.51Z"/><path class="cls-4" d="M37,46.41c.37.65.12,1.4.22,2.1.21,1.59,1.8,1.23,2-.17,1.13-1.54-.53-2.08-1.7-2.72C35.64,42.52,35.52,44.26,37,46.41Z"/><path class="cls-4" d="M38.38,56.16c.74-.63-2.09-1.62-2.37-1.25-.29-.45-1.07-.18-.71.33.36.35.78.66,1.11,1-.25.89-.67,2.31.57,2.73,1.09,0,.94-1.8,1.14-2.61A2,2,0,0,1,38.38,56.16Zm-1.21,2h0Zm0,0Z"/><path class="cls-4" d="M46,60.42a9.21,9.21,0,0,1-1.18-.28c-1-1.3-1.85-.66-.58.57.38.86,0,2,.7,2.72,1.09.86,1.79-.63,2-1.54C47.42,61,47,60.35,46,60.42Z"/><path class="cls-4" d="M44.8,68.61c-.83.23-1.92-.33-2.62.1-1.34-.47-2.26-1.58-3.4-2.39-1.77.2,3.21,3.83,4.16,3.44H43c-.51.65-.72,3.87.62,2.52C43.58,71.38,46,68.7,44.8,68.61Z"/><path class="cls-4" d="M56.13,71.13a10.52,10.52,0,0,0-3.39.65c-3.94-1.54-2.06.42.33.89,1.59.29.72,1.2,1.2,2.12-.84,2,1.29,2.86,1.26.41C56,74.83,56.91,71.19,56.13,71.13ZM55,72Z"/><path class="cls-4" d="M56.27,62.93a1.14,1.14,0,0,0-.41-.07c-2-2.35-4.61-4.73-5.64-7.94.84-.25-1.24-2.86-1.66-2.09-3-3.95-.69,1.83,1.18,2.1a14.41,14.41,0,0,0,5.06,8c-1,.19-2.16-.33-3,0-6.1-4.52-2.29.13.71,1.35,1,.65,2.69,0,2.2,1.68,0,.66.89,1.49,1.24.63C56.14,65.5,57.42,63.73,56.27,62.93Z"/><path class="cls-4" d="M67.46,75.6a.36.36,0,0,0-.35,0A3.14,3.14,0,0,1,66.25,74c.43-.72.76-1.89.08-2.48s-2-1.24-2.65-.63c-4-3.13-2.37-.47.06,1-1.36.38.4,1.07.77,1.51s.5,1,1,1c.22.83.69,1.89,1.59,2.15A.5.5,0,0,0,67.46,75.6Z"/><path class="cls-4" d="M84,69.46c.12-.82-1.17-.94-1.37-.22A4.8,4.8,0,0,1,80.29,69c-1.51.51,1.71,1.36,2.26,1.12a1.59,1.59,0,0,0,.24.51c.27.66-.84,3.71.59,2.82C83.91,72.19,83.48,70.74,84,69.46Z"/><path class="cls-4" d="M80.63,64.7a2.58,2.58,0,0,0,.72-1.13c.87-.6,1.73-3-.19-1.93-.42-.47-1.85-.19-1.71.52l-.07.05c-2.77-.78-2.72-3.76-2.6-6.09,0-.22-.37-.29-.44-.07-1.07,2.71,0,7,3.4,7.08a3.66,3.66,0,0,0,.68.42,1.79,1.79,0,0,1-.42.54C79.59,64.47,80.21,65.07,80.63,64.7Z"/><path class="cls-4" d="M79.15,56.86c.24.79,3.76,4.77,3.53,2.37C81.4,59,77,52.09,79.15,56.86Z"/><path class="cls-4" d="M76.69,7c-1.17-.69-3.1-1.08-4.2-.1C57.54,12.31,46.12,24.73,36,36.54c-3.67.33-1,6.94-.71,3.87a10.63,10.63,0,0,1,3.21-5.77c.58,0,.79-.87,1.39-1,.52-.35,1.25,0,1.67-.43a.32.32,0,0,0,.52-.2c.44-2.53,2.64-6,5.54-5.54a.43.43,0,0,0,.53-.67c1.31-3.11,4.38-8.87,8.46-6.52.46.37,1.09-.31.65-.67,1.29-1,3.62-5.09,5.16-4.54a.25.25,0,0,0,0,.35c.33.7,1.06-.14.77-.63,1.45-2.23,6.71-4.14,5.74.3a.38.38,0,0,0,.62.29,6.32,6.32,0,0,1,4-3.28c.56-.2.83.35,1.3.44a.47.47,0,0,0,.41-.63C76.23,10.56,78.5,8.51,76.69,7Z"/><path class="cls-5" d="M39.26,27.17c-2.85,0-4.73,8.1-2,6.24.33-2,.75-4.17,2.47-5.53C40,27.59,39.63,27.1,39.26,27.17Z"/><path class="cls-4" d="M104,29.86c-1.67,3.29-6.23,3-9.07,1.49a.27.27,0,0,0-.34.2C92,30.36,96.06,34,98.12,33.63c2.43,0,5.72-.92,6.6-3.45A.41.41,0,0,0,104,29.86Z"/><path class="cls-5" d="M47.42,21.21c-1.05.42-1.88,1.34-3,1.53.12-.83.82-1.47,1-2.22a.42.42,0,0,0-.13-.49c.48-.15,1.16-.92.28-1-2.49.32-4.93,5.26-1.33,5.67,1.4.75,3.22-1.51,3.56-2.77A.4.4,0,0,0,47.42,21.21Z"/><path class="cls-5" d="M54.91,16c-.29-1-1.41-.91-2.22-1.05-.7-.67-1.49.13-1.85.83-1.26.71.51,2.27,1.39,2.46C53.26,18.28,55.14,17.15,54.91,16Zm-.83.31h0Zm0,.08a.41.41,0,0,0,0-.09s0,.05,0,0A.22.22,0,0,1,54,16.36Z"/><path class="cls-5" d="M69.89,5.68C65.78,1.66,58.35,4,54.58,7.52c-1.15,1.1-2.64,2.11-3.2,3.67-.59,1,.57,2.15,1.36,1.05C54.93,8.87,59.08,5.47,63.3,6a.91.91,0,0,0,.33,1.48c.6.3.42,1.17,1.09,1.41C65.83,9.09,71.46,7.39,69.89,5.68Zm-5.07-.24-.08-.06h.09A.09.09,0,0,0,64.82,5.44Z"/><path class="cls-5" d="M38.46,75.26l-.12,0A.74.74,0,0,0,37,75.2a.41.41,0,0,0-.77,0c-.6.79.48,4.35,1.44,2.85a.44.44,0,0,0,.25-.11c-.1.54.68.78.76.19C38.54,77.32,39.3,75.73,38.46,75.26Z"/><path class="cls-5" d="M44.19,78.38c-.08-.62,0-2.17-1-1.68A.79.79,0,0,0,42,76.56c-1.18-.73-2.34,3-.64,2.62.82.12.54-1.08.84-1.53a1.28,1.28,0,0,1,.32-.44c0,.68-.11,2.75,1,2C44,80.11,44.94,78.77,44.19,78.38Zm-1.72-1.32v0S42.45,77.06,42.47,77.06Z"/><path class="cls-5" d="M49.72,78.93a.41.41,0,0,0-.69,0,.4.4,0,0,0-.66-.3.41.41,0,0,0-.63-.06c-1.22-.48-1.39,2.52,0,2a.64.64,0,0,0,.67.14.39.39,0,0,0,.47.06C49.88,81.58,50.11,79.51,49.72,78.93Z"/><path class="cls-5" d="M55.44,79.5a.39.39,0,0,0-.52-.27.4.4,0,0,0-.28-.16.47.47,0,0,0-.63-.29.46.46,0,0,0-.73.1c-1.34.38-.88,4.09.63,3a.74.74,0,0,0,.66-.4.42.42,0,0,0,.57-.42C56,81.19,55.55,80,55.44,79.5Z"/><path class="cls-5" d="M61.2,79.56a.43.43,0,0,0-.48-.42.41.41,0,0,0-.58.15.44.44,0,0,0-.66.16c-1.44-.51-.89,3.47.45,2a.92.92,0,0,0,.85-.13C61.57,81.21,61.19,80.09,61.2,79.56Z"/><path class="cls-5" d="M65.13,80.67c0-.75-1.17-.64-1.58-.31-.44.89.72.79,1.28.7h0A.39.39,0,0,0,65.13,80.67Z"/><path class="cls-5" d="M15.88,27.26c-.82-.57-4.92-3.57-3.47-.61-.5.52.1,1.4,0,2,.57.45.81-1.12.62-1.5a1.16,1.16,0,0,0,.34-.85C13.85,26.42,16.11,28.27,15.88,27.26Zm-3.26-1.2h0S12.6,26.05,12.62,26.06ZM13,27.27s-.06,0,0,0Z"/><path class="cls-5" d="M34.17,44.56c-.28-5.4-18.43-17.44-12.15-12.1,2.25,2.71,8.76,7.28,7.84,11a1.34,1.34,0,0,0-1.11,1.37c-.16,1.23,1.54,2,1.14,3.2-1.88.41-4-.45-5.91-.61-3.13-.74-6.87-.75-9.36-3A11.39,11.39,0,0,1,13.37,32c.32-.78.29-1.63-.59-2-4.5-.36-4.08,8.25-3.4,11.24-.88,1.9,2.79,7,4.59,8.18a17.13,17.13,0,0,0,10.82,2.34c.66.33,6.38,1.87,4,0a2.6,2.6,0,0,1,2-1.34c.68-.28.7-1.27,1.65-.91,1-.19.67-2,1.27-2.76A3.91,3.91,0,0,0,34.17,44.56Z"/><path class="cls-5" d="M35.62,67.36c-.21-.86,1.82-3.56,1-3.83C35.08,63,32,59.27,31.94,58.25c-.21-2.24.88-.77-.56-2.4-1.27-1.42-2.36-1.65-4.33-1.38a4.61,4.61,0,0,0-2.71-.21c-.85.48-1.2,1.58-2.26,1.8-.36.13-.13.6.18.58a12.87,12.87,0,0,1,5.9,1.12c2.63,1.3-.76,2.23-1.55,3.29.16,1.13,3.1.79,4.08.79.5-.07.54.64.13.83-5.74,3.82-13.12,3-19.62,2.17a1.89,1.89,0,0,0-.6-2.17c-.94-3.53,1.89-7.45,4.28-9.89.21-2.7-5.57,4.56-5.24,5.69.31,9.19-3.35,5.65-4,11.91.07,2.68,2.08,1.69,1.6-.54a15.19,15.19,0,0,1,2.9-3.29c.4.69,2.69,1.12,2,2-1.68,1.16-2.89,1.37-.3,2.63,1.27.81-1.46.39-1.89.31s-1.53.11-1.3.92c1.57,2.36,5.24,2.32,7.81,2.65a45.73,45.73,0,0,0,13.26-1.56C33.17,72.79,37.69,72.13,35.62,67.36Z"/><path class="cls-6" d="M98.94,31.63c-7.28,0-7.28-11.1,0-11.14S106.22,31.6,98.94,31.63Zm0-10.29c-6.18,0-6.18,9.42,0,9.45S105.12,21.37,98.94,21.34Z"/><path class="cls-5" d="M68.51,51.28c-5.93-3.06-20.5-4.89-13.92,6,2,3.48,7.16,2.92,4.63-1.24a.73.73,0,0,1,0-.79c.78-1.42-.48-1.38-.33-2.15C60,51.83,69.57,53.34,68.51,51.28Z"/><path class="cls-5" d="M74.38,59.25c-.84-1.28-2.76,0-3.87.31C67.85,60.8,60.78,61.68,59,62.09c.06,1.5,1.68.87,1.65,3.5.2,2.65,5.5,2.85,7.2,1.72,1.23-.68,1.11-2.26,2-3.16.4-.92-1.57-.39-2.1-.55C69.37,61.35,73.76,62.12,74.38,59.25Z"/><path class="cls-4" d="M37.27,72a8.33,8.33,0,0,1-.51-8.16.39.39,0,0,0-.14-.53A8.29,8.29,0,0,1,32,59.38a10.1,10.1,0,0,1,.84-7.05c-.28-2.47-.39-5.15.74-7.5C34,43.69,35.39,43,35,41.69c-.16-.48.09-1.69-.64-1.59l0-.07c.52.22,1-.52.38-.74a10.08,10.08,0,0,1-3.09-1.71c-2.12-.18,2.52,2.67,1.77,5-2.24,3.21-1.66,7.08-2,10.69a2.43,2.43,0,0,1-2.65,1,.38.38,0,0,0-.23.73,3.31,3.31,0,0,1,2.43,2.27,4.23,4.23,0,0,0,.55,2.51,6.23,6.23,0,0,0,2,2.94c.8,2.85-4.87,1.34-3,2.76,2.37,0,5,1.09,3.86,3.89-.22.26-.62.26-.85.48a.41.41,0,0,0-.31.68c.54.71-.21,1.52-.77,1.89-.78,1.19,1.26.62,1.93.2.24.36.26.84.56,1.16s1.19.19,1.11-.43C36.55,73.25,37.46,72.61,37.27,72Zm-3.47.08v0h0Zm1.47.7,0-.08.08,0Z"/><path class="cls-5" d="M78.91,62.62c-3.06,2.46-7.27,3.34-9,7.09a.32.32,0,0,0-.31.49c.37.61,1.11.39,1.63.14C72.54,70,83.54,63,78.91,62.62Z"/><path class="cls-5" d="M82.69,59.29c-.06-1.61-5.08-2.19-3.29,0-1.31.56-.09,1.65.85,1.55C81.11,61,83.56,60.46,82.69,59.29Zm-3.17.59s0,0,0,0Z"/><path class="cls-5" d="M118.77,45.91c-.75-1.79-2.61-.07-3,1.13-1.21.94-3.17,2.65-4.67,2.43-.24-2.22-2.69-2.81-4.59-2.48-1.77.56-2.94,2.26-4.84,2.57-2.7.6-6.35-.65-7.81,2.51-1.15-.35-4-.4-2.76,1.49.42.9.87,1.74,1.3,2.63C78.49,51.83,72.71,28.36,77,15.71c.39.54.63,5.56,1.42,4,.14-2.55-.75-8.7,3.14-8.33,3.81.75,4-.61,6.9-.89,1.5.51,2.62-.59,3.94-1,1.71-1.14,11.85,3.86,11,1.75C96.54,6.86,86.7,5.49,78.85,7.49,73.06,9.2,72.77,25,73,30.22c1.07,14.88,8,23.24,18,33C102.54,66.7,120.64,60.05,118.77,45.91Z"/><path class="cls-5" d="M102.68,23.82c-.67-.5-1.77-1.24-1.61.94C100,25.75,99,29,96.42,27.23c-.17,0-.32.1-.19.56C97.8,32.35,105.4,28.18,102.68,23.82Z"/><path class="cls-5" d="M123.24,27.73c-2.63.48-5.67,1-6.75,3.81-.3.6-.87,1.74.12,2,1.06-.4,1.85-1.67,3-2.08,1.7-1,4.43-.68,5.48-2.6C125.54,27.72,124,27.59,123.24,27.73Z"/><path class="cls-5" d="M124.53,34.8c-3.59-2.62-7.44,2.34-11.22,2-2.32-.83-1.92,1.25.24,1.37C115.27,38.5,124.69,36.87,124.53,34.8Z"/><path class="cls-6" d="M93.59,21.51c-3,2.89-2.45,9.07,1.65,10.67a.32.32,0,0,0,.29-.57c-4.3-3.05-3.18-6.41-1.94-10.1Z"/><path class="cls-6" d="M95.29,20.35a6.75,6.75,0,0,1,8.52,1.28c2.85-.05-4.5-3.82-6.33-2.59C97,19.11,94.77,20,95.29,20.35Z"/><path class="cls-6" d="M105.59,25.91a7,7,0,0,1-1.41,4.24c.12,1.19,1.52-1.63,1.53-2,.19-.38.59-2.9-.12-2.22Z"/><path class="cls-6" d="M114.12,29c.55-1,7.43-3.75,5.74-4.33-3.93.61-9.25,6.52-10,9.21a.15.15,0,0,0,.27.15A20.31,20.31,0,0,1,114.12,29Z"/><path class="cls-6" d="M124.14,30c-.75-.42-7.74,2-5.62,2.61.73-.89,6.45-2,5.62-2.61Z"/><path class="cls-6" d="M122.89,37.84c1.39-1.44-4.37.45-5.07.16a30.17,30.17,0,0,1-4.56-.11C111.86,38.66,118.44,39.05,122.89,37.84Z"/><path class="cls-6" d="M102.74,63.8C92.8,65.12,83.26,59.85,78,51.45,69.42,39.87,72.35,25.06,75.31,12a.38.38,0,0,0-.73-.22,76.23,76.23,0,0,0-3,15.26c-1.4,13.42,3.19,29.42,15.87,36A24.87,24.87,0,0,0,96,65.17C96.78,65.32,105,65.17,102.74,63.8Z"/><path class="cls-6" d="M83.1,60c-2,4.75-6,8.3-10.51,10.67-2.19,1.46-4.19.71-5.71-.63-2.61-.34-6.62-1.37-7.73-5.31-2.86-3.31-10.62-9.82-6.85-15,6.91-3.86,18,1.27,25,3.55.22.07-.16-.78-.41-.94-6.43-3.09-20-7-26.55-3.71-3.8,5.69,3.78,13.33,7.73,16.36.52,4,5.89,7.86,8.7,5.9,3.29,6.12,12.22-2.89,14.67-6.27C81.94,63.91,84.93,59.67,83.1,60Z"/><path class="cls-6" d="M71.31,6.86c-14.65,5.37-26.42,17.2-35.6,29.48a.33.33,0,0,0,.53.38A158.71,158.71,0,0,1,47.68,24a76.85,76.85,0,0,1,19-14.32c.58-.56,6.34-2.2,4.62-2.8Z"/><path class="cls-6" d="M73.19,6.36C70.56,2.6,64.62,2.48,60.48,2.89A13.86,13.86,0,0,0,49,12.57c-4.24,2.53-8.21,6.76-8.48,11.93a11.8,11.8,0,0,0-5.37,12.1.34.34,0,0,0,.67,0c-.31-4.66,1.31-8.92,5.22-11.64.68-5.35,4.31-9.3,8.8-12a14,14,0,0,1,6.39-7.47c4.35-2.27,12.06-3.27,15,1.64C71.45,7.33,73.38,6.67,73.19,6.36Z"/><path class="cls-6" d="M14.27,24.73c7,4.38,14.14,8.66,19.91,14.64.23.22.6-.16.39-.39-4.47-4.77-10-8.43-15.5-11.85-.67-.22-5.24-3.64-4.8-2.4Z"/><path class="cls-6" d="M11.05,47c0,.15.25.16.19,0s-.25-.16-.19,0Z"/><path class="cls-6" d="M11.26,47.41c.05.09.1.26.23.19s-.29-.58-.23-.19Z"/><path class="cls-6" d="M34.16,72.41C27.43,75.49,16.53,77,9.9,74.15c-2.71-1-6.45-2.08-4.85-5.6A9.1,9.1,0,0,1,8,64.31c.73-6.83-.4-7.69,5.25-12.49C16,50.77,6.65,41.63,9,34.39c1.77-4.8,3.8-3.73,1.84-9.07-1.23-2-.63-2.08,1.38-1.56,1.2-.59-1.93-1.29-2.39-1.06-1.7.64.74,4.3.43,5.85C4.77,35,9.42,44.07,12.77,50.72A13.31,13.31,0,0,0,6.82,63.6c-2.1,2.94-3.89,5.68-3.2,9.14.44.89,5.18,2.89,9.32,3.45a36.71,36.71,0,0,0,21.37-3.38A.21.21,0,0,0,34.16,72.41Z"/><path class="cls-6" d="M71.1,7.54c.64-.43,3.8-.42,3.38-1.31C74.06,5.72,69.7,7,71.1,7.54Z"/><path class="cls-6" d="M77.91,5.91c3.19-.48,6.41-.65,9.62-.92a.15.15,0,0,0,0-.3C86.43,4.65,77,4.91,77.91,5.91Z"/><path class="cls-6" d="M121.63,42.49a27,27,0,0,1-8.84,17.63c-.16.16.09.44.28.3a25.91,25.91,0,0,0,9.19-17.87.32.32,0,0,0-.63-.06Z"/><path class="cls-6" d="M111.21,61.14c-.58.88-8.5,5.41-7,5.5.79-.39,8.56-5.25,7-5.5Z"/><path class="cls-6" d="M99.75,68.58c-8.13,3.94-16.93,6.1-25.38,9.2C73.3,79.61,83.76,75.1,84.89,75c5.13-1.74,10.4-3.29,15.1-6,.24-.14,0-.54-.24-.42Z"/><path class="cls-6" d="M77,54.68c-1.33,2.85-.67,7.82,3.35,7.52,1.06-.17,3-.72,3-2-.23-.71-1-.12-1.26.13A3,3,0,0,1,78,60.24c-1.75-1.14.27-6.6-1-5.56Z"/><path class="cls-6" d="M66.05,55.9a34,34,0,0,0,9-.35c.18,0,.18-.32,0-.3C73.89,55.73,65.08,54.94,66.05,55.9Z"/><path class="cls-6" d="M61.17,62.56a35.89,35.89,0,0,0,13.47-4.34c.71-1.54-5.91,2.23-6.83,2.17C67.06,61,60,61.88,61.17,62.56Z"/><path class="cls-6" d="M69.47,68.31c.9-.36,8.61-6.43,6.58-6.58a71.32,71.32,0,0,1-6.77,6.35c-.14.12,0,.32.19.23Z"/><path class="cls-6" d="M71.16,63.58c.62-.33,4.16-1.74,3.49-2.32C74.25,61.58,70,63.34,71.16,63.58Z"/><path class="cls-6" d="M60.61,8.56c.91-.18,3.89,2.1,3.87,1.33S60.09,7.51,60.61,8.56Z"/><path class="cls-6" d="M51.62,13.38c1.44.76,3.17,1.28,4.17,2.63.12.16.45.08.4-.15C56.33,15,51.16,12.1,51.62,13.38Z"/><path class="cls-6" d="M47.21,18.94c.75-.06,4.34,2.64,3.79,1C50.64,19.49,46.76,17.73,47.21,18.94Z"/><path class="cls-6" d="M42.11,25.62c.66.41,1.31.81,2,1.26.56.71,1.14-.29.31-.68-.4-.17-2.66-1.75-2.26-.58Z"/><path class="cls-6" d="M38.25,31.24l0,0a7.48,7.48,0,0,1,.72.49c.27.53,1.2.27.72-.28l.13.35C40.14,31.11,37.36,30.06,38.25,31.24Z"/><path class="cls-6" d="M39.83,75.71c-.28.62-.94,1.5-.57,2.15a.37.37,0,0,0,.6-.21c0-.16-.1.17-.11.18.28-.49.27-1.13.58-1.62.31-.26-.11-1-.5-.5Z"/><path class="cls-6" d="M45.61,77.23c-.38.47-.67,2.36.36,1.61.05-.37.51-2.45-.36-1.61Z"/><path class="cls-6" d="M50.84,78.15c0,.58-.64,1.58,0,1.93.78-.07.48-1.33.69-1.89a.35.35,0,0,0-.69,0Z"/><path class="cls-6" d="M57.38,78.85a4.48,4.48,0,0,0-.07,1.5c1,1.16,1-3.07.07-1.5Z"/><path class="cls-6" d="M62.43,79.22c-.12.47-.52,1.94.4,1.57.33-.25.42-2.46-.4-1.57Z"/><path class="cls-6" d="M14.7,30.92c4.49,3.37,9.52,6.18,13.18,10.53.41.34,1.78,2.93,2,1.51-3.41-5.15-10.24-10-15.16-12Z"/><path class="cls-6" d="M17.28,40.38c4,2.59,8.41,4.79,12,8,3.41.23-12.95-9.58-12-8Z"/><path class="cls-6" d="M16.76,52.24c4,1.08,8.13,2,12.2,3.06.28.06.42-.42.13-.51C25.27,53.94,20.11,52,16.76,52.24Z"/><path class="cls-6" d="M15.33,59.09c1.69.49,12.83,1.43,12.65-.26a67.81,67.81,0,0,1-12.58-.17A.22.22,0,0,0,15.33,59.09Z"/><path class="cls-6" d="M11.83,64.14c1.28,1.25,21.09-.09,18.42-1.85C24.58,64.31,16.79,63.93,11.83,64.14Z"/><path class="cls-6" d="M15.17,71.57c2.22.61,18.32,0,17.94-2a72,72,0,0,1-17.92,1.7C15,71.23,15,71.55,15.17,71.57Z"/><path class="cls-6" d="M67.73,24.09c-5,.08-5.68-4.71-4.45-8.57-1.15-2.23-1.75,5.4-1.17,6.09.08,3.07,7.75,4.4,5.62,2.48Z"/><path class="cls-6" d="M67.45,24c-5.34,4.67-3.46,12.49,4,12.65.48-.07.37-.88-.11-.84-6.57-.36-7.83-7-3.3-11.1.4-.34-.18-1.05-.59-.71Z"/><path class="cls-6" d="M71,35.87c-4.16,4.9-3.42,10.87,3.55,12.05A.47.47,0,0,0,74.8,47C63.34,44.53,73.9,35.27,71,35.87Z"/><path class="cls-6" d="M74.28,47.22c-.63.59-1.09,5.64.44,3.85.16-1.14-.18-2.37.38-3.44.28-.52-.55-.88-.82-.41Z"/><path class="cls-6" d="M57.66,19c-4.34,6.21-.55,12.33,6.8,12.34a.43.43,0,0,0,.1-.78c-7-1.05-9.75-4.49-6.3-11.17a.36.36,0,0,0-.6-.39Z"/><path class="cls-6" d="M64,30.56c-2.18,2.56-5.13,6.34-3.41,9.81a8.73,8.73,0,0,0,8.35,4.47.44.44,0,0,0,0-.84c-8.92-.68-9.83-6.81-4.34-12.95.27-.35-.29-.8-.59-.49Z"/><path class="cls-6" d="M68.62,44c-1.24.09-4.87,6.68-2.26,4.93a8.38,8.38,0,0,1,2.73-4.3c.34-.29-.09-.88-.47-.63Z"/><path class="cls-6" d="M60.87,39.72c-7.44-3.19-10-6-4.15-12.93.18-.39-.25-.9-.65-.61C49.61,32.71,52.43,38,60.55,40.42c.41.17.71-.49.32-.7Z"/><path class="cls-6" d="M59.71,39.14c-4.59,4.9-1.83,11.36-1.27,8.28-2.26-2.74,3.74-9.23,1.27-8.28Z"/><path class="cls-6" d="M52.82,33.13c-6.71,5.36-3.68,14,4.81,14.19a.46.46,0,0,0,0-.91c-7.85-.5-10-7.55-4.26-12.73a.38.38,0,0,0-.52-.55Z"/><path class="cls-6" d="M52.51,33.93c-3.38-.36-4.11-4-4.28-6.83-2.39-1.93.13,9.56,4.28,6.83Z"/><path class="cls-6" d="M49.86,42.56c-5.27.8-8.37-4.45-7.62-9.16-2.09-2.42-.6,6.88.82,7.48,1.13,2.64,8.77,3.41,6.8,1.68Z"/><path class="cls-6" d="M49.39,42.55c-2.94,3.63-4.35,9.58,1,11.71.58.3,1-.59.45-.9-7.82-3.27,1.3-11.47-1.45-10.81Z"/><path class="cls-6" d="M46.79,50.48c-3.52,7.55,1.68,14,9.66,12.61.39-.15.4-.79-.1-.79-7.49.7-11.82-4.44-8.92-11.59.11-.42-.5-.65-.64-.23Z"/><path class="cls-6" d="M46.91,50.42c-7-1.58-8-5.29-4.39-11.18a.48.48,0,0,0-.77-.55c-2.35,3-4,9,.5,11,.61.42,6,2.67,4.66.75Z"/><path class="cls-6" d="M39.7,46.65c-5.23,6.58.13,15.22,8.27,14.06.54-.14.34-.88-.16-.91-7.36.82-12-6.72-7.41-12.73.31-.43-.39-.82-.7-.42Z"/><path class="cls-6" d="M56.48,62.78C55.07,66,55,70.55,58.74,72.08c2.66,1.17,6.89,1.39,8.66-1.32.14-.35-.31-.62-.6-.47-2.92,2.75-9.34,2-10.25-2.33-.66-.8,1.43-6.51-.07-5.18Z"/><path class="cls-6" d="M47.39,60.13c-5.43,6.22.89,14.49,8.39,11.36.64-.08,2.22-1.08,1-1.53a.41.41,0,0,0-.12.81l-.3-.4c-6.59,3.1-13.46-2.89-8.43-9.77.26-.31-.26-.75-.55-.47Z"/><path class="cls-6" d="M38.19,55.41c-3.89,6.53-.95,14.4,7.38,13.68.53,0,.54-.86,0-.84-8.16.37-9.79-6.2-6.76-12.61a.33.33,0,0,0-.62-.23Z"/><path class="cls-6" d="M46.05,68.11c-2.57.93-4.25,8.2-2.3,6.27-.35-3.8,4.07-6.42,2.3-6.27Z"/><path class="cls-6" d="M56.67,70.58c-1,.89-2.54,5.46-.42,5.4a.45.45,0,0,0,.11-.56,3.62,3.62,0,0,1,0-2.21c-.11-.66,1.91-3.24.33-2.63Z"/><path class="cls-6" d="M67,70.57c-1.32,2.07-.79,5.69,1.68,6.6.27.07.38-.29.26-.47-3.63-3.13-.15-7-1.94-6.13Z"/><path class="cls-6" d="M71.9,27.76c-5-2.34-4.14-8.61-1.83-12.64-.89-2.4-3.66,6.6-2.71,7.78,0,3.25,5.37,6.91,4.54,4.86Z"/><path class="cls-6" d="M82.5,62c-1,7.59,11.49,8.28,9,6.33-4.06.28-8.34-1.84-8.39-6.35,0-.33-.59-.32-.59,0Z"/><path class="cls-6" d="M84.61,67.08c-1.54,1.55-4.62,2.48-6.49,1-.43-.41-1,.24-.63.67a4.23,4.23,0,0,0,4,.91,5.19,5.19,0,0,0,3.67-2.25c.24-.36-.27-.68-.54-.37Z"/><path class="cls-6" d="M84.41,67.24c-.58,1.57-2,4.5-.38,5.72.26,0,.56-.19.44-.47l0,.05c-1.08-1,1.53-6.4-.1-5.3Z"/><path class="cls-6" d="M73.9,70.12c-.63,3.21,4.42,6.75,4.18,4.5-3.81-.6-3.28-6-4.18-4.5Z"/><path class="cls-6" d="M92.69,63.58c-.71.51-2,7.6-.41,6.21a20.29,20.29,0,0,1,.12-3c-.13-.62,1.54-3.73.29-3.19Z"/><path class="cls-7" d="M96.61,20.75c2-.94,4.07-.11,5.82.88,1.35-.69-2.16-1.84-2.76-1.87C99.14,19.44,95.59,20.14,96.61,20.75Z"/><path class="cls-7" d="M92.86,25.76c-1.5,6.18,8.38,9.55,11.18,3.93.08-.21-.17-.45-.37-.29-3.36,4.28-10.75,2-10.38-3.62,0-.27-.36-.23-.43,0Z"/><path class="cls-7" d="M96.8,29.77c3.34,2.39,8.25-1.66,6.27-4.69A4.39,4.39,0,0,1,97,29.43a.19.19,0,0,0-.17.34Z"/><path class="cls-7" d="M97.43,22.59c.56-.3,1.21-.05,1.77-.21C99.8,21.31,96,22.17,97.43,22.59Z"/><path class="cls-7" d="M123.89,25.53a2.76,2.76,0,0,1,.75.86c.07.49.67.69.46,0,0-.35-1.33-1.64-1.21-.89Z"/><path class="cls-7" d="M124.77,28l-.18.12a3.74,3.74,0,0,1-.36.14l-.22,0c-.21-.15-.85.25-.31.58s2.08-.88,1.07-.88Z"/><path class="cls-7" d="M125.3,33.62c-.58,3.09-4.71,2.42-7,3.17-1,1.21,4.66-.15,5.27-.32,1.23.1,3.17-3.77,1.77-2.85Z"/><path class="cls-7" d="M119.72,23.84C115,17,107.35,9,99.79,7a47.46,47.46,0,0,1,15.35,11.58c.37,2.81-1.44,2.29,1.38,3.6a3.33,3.33,0,0,0,1.77,1.59C118.05,24.69,120,24.65,119.72,23.84Z"/><path class="cls-7" d="M121.31,39.55h0a.38.38,0,0,0-.59-.23.57.57,0,0,0-.51,0,.36.36,0,0,0-.21,0c-.43-.09-1.27,2.56.08,2.22a.66.66,0,0,0,.28.63.78.78,0,0,0,0,.52c-.63,6.56-3.25,12.91-8.56,17-.29.36-2.44,1.74-1.74,1.87C117.59,56.86,121.39,48.19,121.31,39.55Z"/><path class="cls-7" d="M91,71.88a51.56,51.56,0,0,0,12-5.24c.45-.35,4-2.17,3.11-2.44-4.88,2.83-9.85,5.62-15.26,7.33C90.6,71.6,90.73,71.94,91,71.88Z"/><path class="cls-7" d="M95.43,62.29C75.49,55,69.86,33.27,75.29,15.5c.08-.28-.35-.34-.43-.07-2.24,5.9-3.12,17.49-1.66,24.75,3.17,11.93,9.72,19.5,17.42,21.39a5.1,5.1,0,0,0,2.52.33C93.55,62,95.92,63.27,95.43,62.29Z"/><path class="cls-7" d="M63.23,49.72c-2.59-.29-5.43-1.06-8-.65-4.4,1.7-2.58,6.88-.06,9.44,1.35.7-.16-1.68-.43-2.06C52.8,54.3,53,50.6,56.14,49.8c.89-.46,8,1.33,7.09-.08Z"/><path class="cls-7" d="M70.74,54.42c1.51.23,3,0,4.52.25.12,0,.12-.18,0-.19C74.58,54.47,70.27,53.4,70.74,54.42Z"/><path class="cls-7" d="M63.68,60.18c.63.62,9.53-1.91,8.1-2.46C70.94,58.19,62.36,59.46,63.68,60.18Z"/><path class="cls-7" d="M75.66,61.16c-.44,1.26-7.47,5.31-5.79,5.42.81,0,7.68-5.43,5.79-5.42Z"/><path class="cls-7" d="M63.63,68c1.13,1.46,3.29.74,4.28,2.18,4.88,2.56,10.09-2.91,12.55-6.73.16-.25-.17-.55-.37-.3-2.52,3.19-7.59,8.67-11.94,6.13-.44-.67-1.17-.62-1.88-.6-.57.24-2.92-1.45-2.64-.68Z"/><path class="cls-7" d="M59.76,5c3-1,6.62-1,9.15,1.07.22.14.51-.09.35-.32-.9-1.3-2.84-1.85-4.33-2C64.22,3.54,58.66,4.18,59.76,5Z"/><path class="cls-7" d="M57.51,5.41c-1.12-.39-7.33,5-5.39,4.93,1.58-1.79,3.1-3.87,5.51-4.58.23-.07.11-.4-.12-.35Z"/><path class="cls-7" d="M49.38,14.39C46.25,15.85,43,18.52,42,21.93c-.07.34.48.45.6.14a14.78,14.78,0,0,1,6.92-7.23.24.24,0,0,0-.17-.45Z"/><path class="cls-7" d="M40.32,26c-.48.11-2.42,2.14-1.3,2.07.13-.44,2.51-2.34,1.3-2.07Z"/><path class="cls-7" d="M43,24.88l0,0c.38-.06,1.74,1.27,1.74.32C44.73,24.6,42.06,23.91,43,24.88Z"/><path class="cls-7" d="M48,18.48c.67-.1,3.14,2.1,3,.94C50.77,18.94,47.52,17.54,48,18.48Z"/><path class="cls-7" d="M52.89,13.22a10.53,10.53,0,0,1,3.19,2C58.1,14.88,51.71,11.49,52.89,13.22Z"/><path class="cls-7" d="M61.53,8.06c1.16.16,2.21,1.33,3.27,1.34C65.31,8.77,60.52,6.93,61.53,8.06Z"/><path class="cls-7" d="M13.14,25.57c5.75,3.34,11.47,7.1,16,12C29.8,38,32.93,43,33,41.4,28.54,34,20.87,29.07,13.32,25.18c-.25-.13-.42.25-.18.39Z"/><path class="cls-7" d="M11.63,25.44c-.16,1,.58,2,.62,2.95a3.52,3.52,0,0,0-.79,1.69C11.9,31.61,13.38,28.55,13,28c-.21-.35-1-3.36-1.38-2.53Z"/><path class="cls-7" d="M10.35,32.29C7,39.7,12.7,45,14.61,51.36c0,.29.48.25.46,0C13.4,45.16,7.72,39.26,10.81,32.5a.25.25,0,0,0-.46-.21Z"/><path class="cls-7" d="M13.74,51.93c-3.54,2.67-6.1,7.18-4.88,11.69.09.32.64.36.63,0a12.21,12.21,0,0,1,4.7-11.15.34.34,0,0,0-.45-.51Z"/><path class="cls-7" d="M6.5,68.19c-.91,1.55-.85,3.86,1,4.73.34.19,2,1,1.79.2-2.36-.62-3.69-2.47-2.57-4.85.05-.1-.13-.17-.18-.08Z"/><path class="cls-7" d="M10.45,73.73c6.34,2.81,13.8,1.72,20.19-.4a.27.27,0,0,0-.15-.52c-6.49,1.64-13.36,2.81-19.85.47A.24.24,0,0,0,10.45,73.73Z"/><path class="cls-7" d="M16.25,70.88c1.34.72,16,.08,14.54-1.53-4.79.65-9.62,1.53-14.47,1.1A.22.22,0,0,0,16.25,70.88Z"/><path class="cls-7" d="M14.46,63.71c4.17.49,8.57-.26,12.67-1.09,1-1.29-5.42.34-6.18.19C20.26,63.21,13.2,63.15,14.46,63.71Z"/><path class="cls-7" d="M16.73,58.48c1.11.06,11.42.89,10.1-.68-3.36,0-6.73.34-10.1.21C16.47,58,16.46,58.45,16.73,58.48Z"/><path class="cls-7" d="M16.34,51.21a89,89,0,0,1,13.09,2.21C30.77,52.26,15.26,49.87,16.34,51.21Z"/><path class="cls-7" d="M20.36,40.22c3.37,1.79,6.81,3.72,9.25,6.72,1.29.27-.87-2.26-1.28-2.5C27.77,43.72,19.81,38.41,20.36,40.22Z"/><path class="cls-7" d="M18.81,32.73c3,2.55,6.49,4.49,9.16,7.4,2.63.27-9.45-8.57-9.16-7.4Z"/><path class="cls-7" d="M36.83,78.48c.2,1.13,6.08,2.64,5.14,1.19-1.66-.25-3.53-.24-4.83-1.48-.18-.17-.47.1-.31.29Z"/><path class="cls-7" d="M46.9,81.26a15.38,15.38,0,0,0,4.3,1.55c.62.19,5.47,0,4.11-.92a12.94,12.94,0,0,1-8.22-1C46.83,80.77,46.65,81.14,46.9,81.26Z"/><path class="cls-7" d="M58.42,82.59c1.43,1.31,8.34-.51,6-1.3C62.17,83.1,57.46,81.7,58.42,82.59Z"/><path class="cls-7" d="M63.19,79.66c-.2.46-.37,1.91.47,1.22.4-.5.36-2.18-.47-1.22Z"/><path class="cls-7" d="M51.65,78.7c-.19.48-1.19,3.1.05,2.47.17-.43,1.16-3.42-.05-2.47Z"/><path class="cls-7" d="M46.32,78c-.07.64-.49,1.54,0,2.09.81.53.85-3.15,0-2.09Z"/><path class="cls-7" d="M42.29,77.21c-.09.49-.61,1.47,0,1.73.55-.19.28-1.06.55-1.51a.31.31,0,0,0-.57-.22Z"/><path class="cls-7" d="M69.35,25.68c.33.8,1.9,1.08,1.26,0-1.43-1.3-1.46-3.44-1.5-5.31C67.69,19.2,68.41,25.21,69.35,25.68Z"/><path class="cls-7" d="M63.27,21.9a.47.47,0,0,0,.31.29c.28.26.63.72,1,.67,0,0,.24-.12.26-.19h0a.56.56,0,0,0-.25-.77,1.05,1.05,0,0,0-.74-1C63.35,17,62.28,19.94,63.27,21.9Zm.11-.45Z"/><path class="cls-7" d="M67.79,34.44c.42.46,1.78.53,1.26-.35-.11-.63-.88-.94-1.34-1.33h0a.43.43,0,0,0-.58,0,3.88,3.88,0,0,1-1-2.74c-1.49-1.84-1,3.62,1.47,4.31A.49.49,0,0,0,67.79,34.44Z"/><path class="cls-7" d="M60.14,28.92a.44.44,0,0,0,.28,0c.49.38,1.19-.22.69-.69a2,2,0,0,0-2.21-.95,3.52,3.52,0,0,1-1.27-2.47C56.26,23.8,57.75,28.83,60.14,28.92Z"/><path class="cls-7" d="M56.83,36.83c.13-.25-.07-.46-.28-.57a.36.36,0,0,0-.18-.57.58.58,0,0,0-.59-.19.33.33,0,0,0-.17,0,3.16,3.16,0,0,1-.4-.42c-.22-.12-.35-1.09-.86-1a.41.41,0,0,0-.29.48,3,3,0,0,0,1.71,2C56.05,36.84,56.57,37.32,56.83,36.83Z"/><path class="cls-7" d="M65.43,41.66c-.49-.25-1.94-1.41-2.35-1-.4-.19-1.29-2.25-1.49-1.17,0,.94,3.91,5,3.75,2.79C65.45,42.07,65.57,41.89,65.43,41.66Z"/><path class="cls-7" d="M70.57,44.31c-.36-.3-.29-1-.68-1.17-.58.25,0,1.37.34,1.66S70.85,44.56,70.57,44.31Z"/><path class="cls-7" d="M67.66,47c-.48-.14-.74.91-.43,1.16S68.08,47.22,67.66,47Z"/><path class="cls-7" d="M59.08,45.29c0-.4.3-.92-.06-1.22.26-.36,0-1-.44-.58A4.42,4.42,0,0,0,58,45C57.74,46.65,59.2,47.51,59.08,45.29Z"/><path class="cls-7" d="M53.25,43.48l-.81-.68a.66.66,0,0,0-.89-.58,5.62,5.62,0,0,1-.83-1.85c-1-.68-.24,2,.15,2.34C51.38,44.84,56,46,53.25,43.48Z"/><path class="cls-7" d="M50.48,32.74c.84-.16.11-.89-.18-1.2C49.53,30.73,50,29,49,28.49,47.89,28.82,49.33,32.84,50.48,32.74Z"/><path class="cls-7" d="M46.82,40.68c-1.1-1.23-2.74-2.13-3.42-3.68a.34.34,0,0,0-.42-.17c-.67.89.64,2.3,1.07,3.17S47.5,42.62,46.82,40.68Z"/><path class="cls-7" d="M43.34,47.2a6.82,6.82,0,0,1-1.83-1.84c-1.41-1.22-.31,1.6.27,2.11C42.4,48.86,45.29,48.78,43.34,47.2Z"/><path class="cls-7" d="M36.65,43.6l.06.08h0c1.3.55.22-1.2.22-1.75-.18-.46.19-1.28-.4-1.45C35.43,40.83,36.17,42.87,36.65,43.6Z"/><path class="cls-7" d="M35.47,51.81c-.47-.41-1.56-3.46-2-1.82C33.34,53.11,36.93,54.59,35.47,51.81Z"/><path class="cls-7" d="M40.61,55a8.79,8.79,0,0,0-1.1-1.26c-1.67-1.17.42,3.79,1.57,3.29C42.15,56.67,41,55.47,40.61,55Z"/><path class="cls-7" d="M34.54,59.74c-.52-.6-.94-2.19-1.82-2.05C32,58.25,34.67,61.62,34.54,59.74Z"/><path class="cls-7" d="M40.06,64.74a4.05,4.05,0,0,1-1.61-3.1c-.25-.93-1.11-.12-.89.56C37.05,65.77,42.85,67.81,40.06,64.74Z"/><path class="cls-7" d="M37.88,69.74a4.83,4.83,0,0,1-.42-1.36c-.4-1.06-1.1.07-.77.75-.21.92.83,1.82,1.47,2.39h0a.41.41,0,0,0,.62,0C39.09,70.81,38,70.4,37.88,69.74Z"/><path class="cls-7" d="M49,75.65a8.31,8.31,0,0,1-3.28-1.42c-.11-.21-.42-.08-.41.13-.24.88,2.74,2.48,3.41,1.92C49.18,76.45,49.53,75.82,49,75.65Z"/><path class="cls-7" d="M62.83,76.74c-1-.28-2.13,0-3.13-.49a.37.37,0,0,0-.42.11,3.44,3.44,0,0,1-1.86-1.87.27.27,0,0,0-.51.13c.41,2.33,3.34,3.38,5.41,3.24C62.88,77.9,63.56,77,62.83,76.74Z"/><path class="cls-7" d="M51.31,69.37a8.36,8.36,0,0,0-3.1-1.61,4.58,4.58,0,0,1-.92-1.68c-1.22-.76-.08,2,.41,2.31.52.84,3.93,3.12,4.24,1.52A.78.78,0,0,0,51.31,69.37Z"/><path class="cls-7" d="M48.05,59.26c.36.63,2.79,2.2,2.34.59C49.6,59.3,49,58,48,57.93,46.84,55.12,47,58.44,48.05,59.26Z"/><path class="cls-7" d="M48.23,51.16a.37.37,0,0,0,.66-.34c-.38-.5-.15-1.18-.48-1.63,0-.15.09-.31,0-.46h0C47.18,47.75,47.76,50.7,48.23,51.16Z"/><path class="cls-7" d="M59.11,70.86c2.1,0-1.73-2.57-1.79-3.46-.52-.65-1,.42-.47.77A4,4,0,0,0,59.11,70.86Zm-.19-.33s0,0,0,0Z"/><path class="cls-7" d="M73.21,76.13c-1.25.74-2.95-.41-4.09-1-.93-.26-.56.83,0,1.06a3.13,3.13,0,0,0,3.46,1.07,1.44,1.44,0,0,0,1.27-.61C74.13,76.25,73.53,75.78,73.21,76.13Z"/><path class="cls-7" d="M80.3,73.36c-1.36.13-2.54-.73-3.76-.94-2.08-.58.91,2.66,3.77,1.83h0A.45.45,0,0,0,80.3,73.36Z"/><path class="cls-7" d="M81.62,67.28a5.64,5.64,0,0,1-.87.39c-.24,0-.61,0-.6.37C80.37,69.05,83.27,67.42,81.62,67.28Z"/><path class="cls-7" d="M87.27,67.36c1.7-.42-.68-1.3-1.19-1.69s-.86-.84-1.39-1.08C82.91,65,86.45,67.38,87.27,67.36Z"/><path class="cls-7" d="M77.83,59.86c.34.4.83.93,1.39.85a.43.43,0,0,0,0-.83c-1.12-.32-.82-1.7-1.45-1.73C77,58.37,77.54,59.45,77.83,59.86Zm.42-.88h0Z"/><path class="cls-7" d="M87.86,72.05c-1.11.18-1.91-.75-2.48-1.55-.29-.48-1.07,0-.75.46h0c.34,1.12,1.38,2.31,2.67,2C88.06,73.26,88.89,72.31,87.86,72.05Z"/><path class="cls-7" d="M94.52,68.78a2.69,2.69,0,0,1-1.06-.58s0-.08,0,0h0a.37.37,0,0,0-.46-.47c-1.26-.45-.32,1.19.08,1.56C93.63,70,95.78,69.72,94.52,68.78Z"/><path class="cls-6" d="M44.19,76.5a2,2,0,0,1-.19-.17,2.42,2.42,0,0,1-.23-.3c-.2-.2-.14-1.31-.66-.82s1.24,2.45,1.08,1.29Z"/><path class="cls-6" d="M58.72,78.18a12.83,12.83,0,0,1-2-.85c-1.12.25,1.29,1.54,1.76,1.59s.7-.58.22-.74Z"/><path class="cls-6" d="M72,78.17c-.76,0-1.49-.41-2.25-.37-1.34,1,4,1.62,2.25.37Z"/><path class="cls-6" d="M38.74,54.91c-6.39-.11-7-8.18-3.17-11.91a.33.33,0,0,0-.24-.58c-1.25-1.17-3,3.15-3.14,4.23-.27,1.26-.83,5.94.84,5.94,1.11,1.82,3.48,3.41,5.66,2.95C39,55.46,39.09,55,38.74,54.91Z"/><path class="cls-6" d="M36.83,62.89c-4.31-1.22-6-6.69-3.6-10.35a.31.31,0,0,0-.48-.38c-1.13.28-1.38,2.35-1.67,3.41-1,3.71,1.88,7,5,8.55a.45.45,0,0,0,.64-.37A.44.44,0,0,0,36.83,62.89Z"/><path class="cls-6" d="M38.68,72.3c-5.46-2.68,0-9.83-2.06-8.77a.28.28,0,0,0-.47,0c-1.67,2.46-1.88,6.39.45,8.52-2.54,1.13,1.65,1.62,2.06.92C38.88,72.82,39,72.43,38.68,72.3Z"/><path class="cls-6" d="M72.07,78.44c-9.75,1-30-.33-37.68-5.78-1.06-.41.38,4.73.91,5.22,1.34,3,5.68,4.18,8.45,2.57a13.72,13.72,0,0,0,13,2.5c4.19,1.89,10.32,1,12.41-3.59C69.65,79.28,73.3,79.15,72.07,78.44Zm-5.75,2.77c-2.32,2.53-7.18,2.08-9.73,1.11C51.48,83.9,47.65,82,44,80c-3.76.8-8.94-.31-8.78-5.08,10.47,2.72,21.36,4.74,32.33,4.57A5.89,5.89,0,0,1,66.32,81.21Z"/><path class="cls-6" d="M39.89,46.36c-2.51-.71-3.9-3.18-4.5-5.54-.4-7.33-2.43,1.23,1.16,4.3C36.74,45.81,41.15,48.08,39.89,46.36Z"/></g><path class="cls-8" d="M98.9,96.66c1-.43,2,1.12,2.61,1.65,4.11,4.72,6.73-3,8.82-.24.35,1.92,7.41,1.87,9.22,2.11,1.42,0,2.9-.4,3.1-3.36,0-1,.34-2-.51-3.07-.46-.43-1.21-.75-1.1-1.51l.45-6.34c.72-2,2.91-.72,2.85-4.44.75-5.58-7.34-3-10.35-3.34-3.41-.25-2.6,3.18-5,1.69a3.57,3.57,0,0,0-2.37-.8c-2.07-.31-4.45.19-5.42,1.58-2.18,1.76-2-2.67-5.5-2.15-.45,0-1.29-.11-1.68-.07a3.11,3.11,0,0,0-3.41,3.75l.32,10.07a1.24,1.24,0,0,1-2.4.43l-4.31-12c-.7-1.92-1.56-3-3.91-3-4.32-.09-4.8,1.15-7,2.41-2.8-1.74-6.24-4-8.21,0-.53,1.12-1.86,3.55-3.16,1.75-1.2-2.45-3-5.19-6.27-3.67-1.07.19-3.1,1.59-4,.61C49.8,77,44.15,78.35,42,78.12c-4-.55-4.3,5.51-1.92,6.62a1.19,1.19,0,0,1,.72,1.14l-.23,5.71a1.2,1.2,0,0,1-.81,1.08c-.86.22-1.17,1.3-2.15,1.09-1.15.7-5-12.75-5.4-13.18-.69-1.92-1.55-3-3.91-3-6.85.07-4.77,2-7.62,3.42-2-.53-.86-2.41-4.41-2.47L5.38,77.86c-2-.09-3.83,0-3.94,3.57C.77,89.78,5.65,84.72,6.5,88l-.25,9c-.37,2.76,1.86,4.06,4.43,3.4,2.72-.33,3.65-1.4,3.55-4.09l-.34-9C13.84,86.14,15.22,86,16.14,86c1.43-.09,3.94-1.42,3.7,1l-2.5,8.92c-.76,1.83.26,4.13,2.67,3.84,3.15.06,5.39-.73,5.54-3.44.14-1.34,3.47-1.48,3.71-.12.36,2.35,1.51,4.15,4.67,3.7,1.12-.12,2.38.12,3.5-.88A1.26,1.26,0,0,1,39,98.9c1.11,1,6.11.93,7.58,1.23,2,.14,3.73.16,4-3.31.56-3.54-1.1-2.52-1.61-4.58l.46-6.34c0-.94,1.08-1.05,1.68-1.45a1.26,1.26,0,0,1,1.71.24l4.38,5.58c1,2.72-1.34,11,3.58,10.3,8.13.5,4.86-5.09,5.85-10.16.83-.71,2.81-5.66,4.43-4.72a1.2,1.2,0,0,1,.69,1.41l-2.48,8.84c-1.1,2.92,1.2,4.3,4,3.77,3.29-.22,3.79-1.15,4.22-3.37.21-1.36,3.43-1.47,3.72-.12.42,3,2,4.16,5.53,3.65a3.46,3.46,0,0,0,2.85-1.08,1.25,1.25,0,0,1,1-.51c1.44.32,1.57,1.68,3.59,1.88,1.73.16,3,.86,3.82-2.52A1.24,1.24,0,0,1,98.9,96.66Zm5.38-8.37c1.09-.73,5.11-8.5,6.56-5.1.16,1.42,1.93,1.35,2,2.67l-.24,5.73c0,1.19-1.64,1.09-2,2.09a1.26,1.26,0,0,1-2,.2C107.87,92.71,103,89.84,104.28,88.29Z"/><path class="cls-9" d="M60.84,103c-6.48.45-5.83-7.07-5.79-11.56l-3.19-4.06-.32,4.39c1.9,1.61,1.7,3.9,1.56,5.24-.18,4.12-3,6-6.74,5.53-1.78-.28-6.4-.34-7.94-1.19-3.86,2.08-10.23,1.14-11-2.6-.79,3.52-9.22,4.88-11.74,1.72-1.79,2.62-8,3.59-10.42,1.07C2.53,98.84,4.29,92.5,4,89.23c-4.34-.06-5.49-4.54-5-7.77,0-4.19,2.67-6.3,6.56-5.94,2.94.51,12.94-.22,15.09,2.11,1.81-2.1,4.89-2.34,7.67-2.43,7.18-.3,7.51,10.32,9.87,14.76l.14-3.4c-3.94-3-2.42-11.22,3.59-10.78,3.21.21,7.68-1.24,10.84.73C57,74.53,61.24,75,63,78.72c1.3-3.39,6.61-4.51,10.23-1.66,3.63-3,12.58-2.51,13.34,2.78l1.66,4.66C87.53,80,89.09,75.77,94,76c2.27.11,4.66-.14,6.54,1.93,2.58-1.75,5.88-1.8,9.08-.6,1.81-2.25,8.23-1.54,10.9-1.84a6.09,6.09,0,0,1,4.81,1.5c2.64,2.92,1.73,8.44-1.43,9.85l-.35,4.93c3.66,3.67,1.12,11.34-4,10.83-2.91-.38-8.47,0-10.56-2.23-2.27,2.37-7.09,2.48-9.11-.23-1.49,3.49-6.7,3-9.24,1.08-3.82,2.28-10.43,1.32-11.22-2.47-.77,3.45-8.89,4.8-11.55,1.94C66.66,102.61,63.31,103.06,60.84,103Zm-9-18.75c.87-.42,4.83,5.64,5.37,6,1,2.72-1.35,11,3.58,10.3,8.15.49,4.85-5.1,5.85-10.16l2.9-4.28c5.78-3.34-2.39,11.29,0,12.74,1,1.18,2.47.89,3.77.84,3.29-.22,3.79-1.15,4.22-3.37.17-1.14,1.63-1,2.48-1s1.26.66,1.36,1.38c.27,2.68,2.44,3.67,5.41,3.18a3.46,3.46,0,0,0,2.85-1.08,1.23,1.23,0,0,1,1-.52c1.46.56,2.66,2.26,4.86,2,3.5.54,1.5-7,6-2,3.55,3.66,4.9-.12,7.92-.9,1.67.6.49,1.83,3.87,2.19.52,0,5.81.61,6.25.57,1.42,0,2.9-.4,3.1-3.36,0-1,.35-2-.51-3.06-.46-.44-1.21-.75-1.1-1.51l.45-6.34a1.22,1.22,0,0,1,.87-1.07c1.76,0,2.85-4.61,1.2-6.2h0c-1.54-1.57-7.59-.33-9.57-.51-3.12.06-2.28,1.48-3.93,2.07a1.22,1.22,0,0,1-1.09-.38c-2.24-1.57-6.37-1.1-7.79.78a1.25,1.25,0,0,1-2.09-.39c-.72-2-3.31-1.74-5.09-1.83a3.11,3.11,0,0,0-3.41,3.75l.32,10.07a1.24,1.24,0,0,1-2.4.43L84.19,80.63c-.56-4.43-8.6-3.3-9.94-1.15a1.26,1.26,0,0,1-2,0,6.21,6.21,0,0,0-4.12-1.76c-3.75-.3-4.06,8.85-7.24,2.28-2.82-5.29-6.5.12-9.32-1.33-1.74-1.65-7.45-.3-9.58-.52-4-.55-4.29,5.5-1.92,6.62a1.19,1.19,0,0,1,.72,1.14l-.23,5.71c0,1-1.3,1.06-1.79,1.74A1.26,1.26,0,0,1,36.63,93l-4.44-12.4c-.66-2.25-2.25-3.32-4.76-3-5.89.15-4.18,2.27-6.77,3.38-2-.53-.86-2.41-4.41-2.47L5.37,77.92c-2-.09-3.84,0-3.94,3.57.08,1.47-.38,3.43.8,4.59,1.48,1.63,3.93-.32,4.26,2l-.25,9c-.38,2.76,1.87,4,4.43,3.4,2.72-.33,3.65-1.4,3.55-4.09l-.34-9c-.06-1.22,1.33-1.32,2.24-1.32,1.35.1,2.25-1,3.33-.24,1.63,1.84-3.86,10.9-1.91,13.08,1.06,1.18,2.47.89,3.77.84,5.44-.09,2.72-3.39,5.39-4.35,1.18-.12,2.55-.17,2.67,1.33.3,2.16,1.7,3.62,4.55,3.23,1.12-.13,2.37.11,3.5-.88A1.25,1.25,0,0,1,39,99c1.15,1,6.08.92,7.58,1.22,2,.15,3.73.16,4-3.31,0-1,.37-2-.51-3.06-.46-.44-1.2-.75-1.1-1.51L49.49,86C49.61,84.9,51.06,84.54,51.89,84.28Zm57.54,10.08c-.72,0-1-.57-1.52-1-.53-.94-5-3.57-3.64-5,.89-.69,4.23-6.37,5.59-6,1.24.24,1,2.09,2.21,2.39a1.21,1.21,0,0,1,.71,1.14l-.24,5.73c0,1.19-1.64,1.09-2,2.09A1.24,1.24,0,0,1,109.43,94.36Zm1.88-2.76ZM106.89,89l2.46,2.37a4.41,4.41,0,0,1,.75-.53l.18-4.28a4.66,4.66,0,0,1-.84-.76Z"/><path class="cls-10" d="M60.84,100.87c-5.1.67-2.89-7.4-3.77-10.4L52.68,84.9c-.69-.87-2.77.17-3,1.07l-.45,6.34c-.08.7.65.92,1,1.34,1,1.19.59,2.21.57,3.24-.34,3.71-2.24,3.67-4.3,3.53-1.54-.32-6.51-.23-7.7-1.27a1,1,0,0,0-1.29.11c-1.21,1.08-2.5.83-3.66,1-3,.41-4.53-1.23-4.8-3.41-.06-1.4-1.43-1.22-2.43-1.15-2.38,1.1.2,4.15-5.38,4.35-2.85.56-5.42-1-4.23-4.08L19.6,87c.1-2.41-3.08-.27-4.56-.61a1,1,0,0,0-.92,1l.35,9c.1,2.81-.92,4-3.77,4.34-1.3.19-3,.28-3.86-.67-1.81-1.66-.29-9.83-.6-12-.46-2-2.69-.11-4.18-1.81C.8,85,1.24,83,1.18,81.48c.05-3.39,1.91-3.82,3.53-3.82.83,0,10.77.63,11.55.64,3.83-.25,3.36,4,5.32,1.89.61-2.07,3.34-2.81,6.7-2.83,2.49,0,3.43,1.22,4.14,3.19L36.87,93a1,1,0,0,0,1.7.29c.41-.69,1.7-.65,1.73-1.6l.24-5.71c-.45-1.64-2.19-.9-2.15-3.93-.14-2.64.78-4,3.58-4.06,2.32.25,7.81-1.16,9.73.56.83.9,2.86-.51,3.83-.64,6-2.61,5.62,6.3,8.28,3.78,1.24-2.59,3.16-5.33,6.5-3.63,1.06-.1,2.59,2.72,3.74,1.33.69-1.33,3.47-2,6.23-2,2.49,0,3.43,1.22,4.14,3.19l4.31,12a1,1,0,0,0,1.92-.35l-.32-10.07c-.49-3.45,2.6-4.4,5.35-3.93,1.49,0,3.11.42,3.63,1.93a1,1,0,0,0,.75.63,1,1,0,0,0,.93-.32c1-1.44,3.48-2,5.61-1.66a3.77,3.77,0,0,1,2.54.88c2.12,1.22,1.3-2,4.83-1.77,2,.21,8.09-1.13,9.76.59s.57,6.65-1.31,6.59a1,1,0,0,0-.69.85l-.45,6.34c-.12.7.67.92,1,1.34.93,1.19.61,2.21.57,3.24-.39,5.9-6.26,2.81-9.61,3-4.43-.42-2.56-4.08-6.08-.91-4.83,3.51-5.4-1.79-8.22-2a1,1,0,0,0-.67.78c-.54,4.75-5.61,2.51-7.66.84a1,1,0,0,0-.81.41c-.88,1.23-2.54,1.15-3.9,1.24-6.72.66-2.67-5.38-7.22-4.56-2.34,1.06.15,4.18-5.38,4.35-3,.56-5.37-1-4.24-4.08l2.48-8.83a1,1,0,0,0-1.78-.78L66.9,90.6C66.11,95.87,69,101.34,60.84,100.87ZM51.89,84c1.15-.34,4.86,5.56,5.57,6.14.54.37.29,6.3.38,6.92.08,3.94,2.57,3.28,4.92,3.18,5.61.24,2.61-6.83,3.73-10l2.89-4.28a1.49,1.49,0,0,1,2.67,1.17l-2.48,8.84c-.9,2.11.59,3.94,3,3.52,6.38.08,3-3.49,6.15-4.4,1-.08,2.54-.19,2.8,1,.42,3,2,3.94,5.27,3.47,1.82.28,2.44-1.3,3.88-1.6,1.61.47,2.57,2.26,4.86,2,2.89.52,1.55-5.37,4.84-3.27,1.71,2,4.13,4,6.55,1.74.88-.47,1.5-1.56,2.57-1.37a1.49,1.49,0,0,1,1.08.8c0,1.6,6.69,1.7,8.09,1.91,2.2.44,3.88-.61,3.82-3.81.1-.59,0-2.07-1-2.51-1.39-.52-.16-6.61-.26-7.68a1.44,1.44,0,0,1,1-1.28c2.54-.32,2.66-7.31-1.22-6.51-1.87.33-9.15-.49-9.84,1.54-1.14,2.11-3.2-.73-4.64-.38-5.15-1.19-5.78,4.77-8.15.31-1.12-1.18-5.57-1.41-6.85-.21-2.32,1,2.15,18.78-3.3,13.35L84,80.71c-.52-4.27-8.26-3.06-9.49-1.09a1.53,1.53,0,0,1-2.42,0c-6.82-5.09-6.22,2.62-9.09,3-3.66-1-1-7.1-9.51-3.55-1.71.9-3-1.46-4.81-.9L42,78.42c-2.5,0-3.24,1.21-3.11,3.57.93,5.59,2.83-1.24,1.91,9.67.05,1.12-1.27,1.22-1.84,1.88a1.51,1.51,0,0,1-2.55-.43L32,80.71c-.66-4.51-9.29-3.1-9.92-.33a1.51,1.51,0,0,1-2.74,0c-.27-.65-.85-1.42-3.07-1.56L5.35,78.16c-.23,0-.44,0-.64,0-1.55,0-3,.4-3,3.35.1,1.4-.39,3.33.73,4.42,1.48,1.51,4.12-.36,4.32,2.16l-.25,9c-.35,2.64,1.74,3.76,4.16,3.15C13.23,99.94,14.07,99,14,96.4l-.34-9A1.44,1.44,0,0,1,15,85.93c1.76.17,5.36-1.88,5.07,1.21l-2.5,8.92c-1,2.8,1.06,3.94,3.73,3.47,5.75.07,2-4.82,6.7-4.4,3.09.48.36,5.33,5.91,4.61,1.07-.12,2.31.11,3.33-.81,1.41-1.23,2.35.56,4.08.49.76,0,5.62.64,6.22.57,1.38,0,2.67-.38,2.86-3.13,0-.93.35-1.88-.45-2.89-.55-.46-1.27-.87-1.16-1.69l.45-6.34C49.35,84.74,50.93,84.3,51.89,84ZM109.43,94.6c-.8,0-1.16-.58-1.69-1.1-.66-1.08-5.19-3.65-3.67-5.3,1.06-.8,4.18-6.51,5.83-6,1.35.16,1.11,2.06,2.28,2.41a1.43,1.43,0,0,1,.85,1.36c-.35,1.12.53,6.69-1.21,7C110.77,93.22,110.63,94.68,109.43,94.6Zm.21-12c-.88-.18-4.56,5.39-5.18,5.88-1.15,1.15,3.23,3.9,3.62,4.67.49.43.74,1,1.45,1,1-.17,1.09-1.44,2.12-1.62a1,1,0,0,0,.64-.86l.24-5.73c-.13-1.21-1.8-1.18-1.94-2.6A1,1,0,0,0,109.64,82.61Zm1.67,9.23v-.48h0Zm-2-.16L106.56,89l2.87-3.6a4.84,4.84,0,0,0,1.1,1L110.35,91A5.15,5.15,0,0,0,109.34,91.68ZM107.22,89,109.37,91c.15-.12.32-.23.49-.34l.17-4a4.63,4.63,0,0,1-.58-.5Z"/><path class="cls-11" d="M13.05,96.44c.21,2.33-.88,2.82-3.06,3s-2.63-.23-2.58-2.29l.32-11.59c-4.1.31-5.59.84-5.13-4,0-2.09.54-2.59,2.69-2.45l10.9.62c2,.13,2.52.63,2.44,2.66s-.54,2.48-2.58,2.61l-3.43.24Z"/><path class="cls-11" d="M36.54,96.23c1.07,2.4-.67,2.58-2.69,2.61-3.69.58-3.08-2.33-4-4.67l-5.18.18c-.56,2.38,0,4.33-3.49,4.28-2,.22-3.61.06-2.76-2.35l4.11-14.64c.56-2.06,1.18-2.61,4.94-2.87,2.2-.16,2.84.23,3.57,2.24ZM29,90.72l-2-6.16-1.53,6.16Z"/><path class="cls-11" d="M49.47,96.78c-.13,2-.67,2.48-2.73,2.27l-5.32-.52c-1.93-.19-2.39-.71-2.23-2.59s.5-2.44,2.45-2.27L42,84c-1.85.05-2.25-.6-2.23-2.3s.38-2.3,2.23-2.37l6.63-.26c2-.08,2.55.39,2.5,2.42S50.6,84,48.45,84l-.72,10.12C49.67,94.06,49.65,95.23,49.47,96.78Z"/><path class="cls-11" d="M65.37,96.54c.29,2.73-1.66,2.87-3.9,2.92s-2.68-.28-2.71-2.37l-.08-6.84-5.85-7.44c-1.26-1.59-1-2.24.91-2.89,2.25-.71,4.9-2.26,6.12.68L63,86l3.11-5.38c1-1.78,1.72-2,3.73-1.28s2.12,1.36,1,3l-5.5,8.14Z"/><path class="cls-11" d="M88.53,96.23c1.08,2.4-.66,2.58-2.68,2.61-3.69.58-3.09-2.33-3.95-4.67l-5.18.18c-.56,2.38,0,4.33-3.49,4.28-2,.22-3.61.06-2.76-2.35l4.1-14.64c.57-2.06,1.18-2.61,4.94-2.87,2.2-.16,2.85.23,3.57,2.24ZM81,90.72l-2-6.16-1.53,6.16Z"/><path class="cls-11" d="M107.08,94.14c1.85,1.57,1,2.59-.72,3.73s-2.5,1.2-4-.31l-4.91-4.93-.51,4.8c.1,3.21-5.24,1.74-4.7-.94l-.46-14.36c0-2.08.46-2.63,2.61-2.55s4.22,0,3.7,2.71l-.51,5.14,3.92-5.3c1.3-2,2.74-2.16,5-1.93,2,.11,2.23.71,1.05,2.2L102,89.29Z"/><path class="cls-11" d="M121.47,96.78c-.14,2-.67,2.48-2.74,2.27l-5.32-.52c-1.93-.19-2.38-.71-2.22-2.59s.49-2.44,2.44-2.27L114,84c-1.85.05-2.24-.6-2.23-2.3s.38-2.3,2.23-2.37l6.63-.26c2-.08,2.55.39,2.5,2.42S122.6,84,120.45,84l-.73,10.12C121.67,94.06,121.65,95.23,121.47,96.78Z"/><path class="cls-12" d="M7.34,84.9c-1.12,0-2.42.36-3.52.12-.56-.17-.45.51-.13.59a21.2,21.2,0,0,0,4-.08C7.76,85.18,7.77,84.88,7.34,84.9Z"/><path class="cls-12" d="M18.1,80.81c0,1.09.22,2.81-1.05,3.28-.69.42-5.49-.52-5,1.38,0,2.18.31,7.07.34,9.74.46,3.05-.92,3.92-3.84,3.94-.71.7,3.11.11,3.42-.11h0a1.62,1.62,0,0,0,1-1h0c.41-.71-.33-11.83-.28-12.87,2.24-.4,6.37.63,6-2.85C18.66,81.75,18.68,80.32,18.1,80.81Z"/><path class="cls-12" d="M27.08,84.86s0,0,0-.06Z"/><path class="cls-12" d="M25.45,90.72,27,84.56C26.55,83.81,24.57,91,25.45,90.72Z"/><path class="cls-12" d="M29.61,93.82c-8.8-.15-3.19.35-6.59,3.92-.55.47-4.58.18-4,.84,4.46.29,5.16,0,5.67-4.23l5.18-.18A.3.3,0,0,0,29.61,93.82Z"/><path class="cls-12" d="M36.66,98.18a1.4,1.4,0,0,0,.12-1.13h0c-.29-1-5.69-16.25-6.16-17.1-1.2-.41.95,3.53,1,4.21,1.19,4.54,3.87,9.25,4.09,13.81a18.84,18.84,0,0,1-3.53.45c-.72.89,3.55.3,4,.14h0A1.12,1.12,0,0,0,36.66,98.18Z"/><path class="cls-12" d="M49.53,96.07c-.18-2.61-.64,1.49-.93,2-1,1.06-6.08-.23-8.16-.18-1,.35.49.71,1,.69l5.32.52C49.17,99.45,49.46,98.16,49.53,96.07Z"/><path class="cls-12" d="M51.17,81.48c0-2.75-.84-.81-.66.61s-1.91.84-2.58,1.5c.18-.23-1.73,11.21,0,10.54l-.19,0L48.45,84C50.6,84,51.11,83.49,51.17,81.48Z"/><path class="cls-12" d="M41.6,83.41c-.39,0-1.06-.24-1.27.2A2.6,2.6,0,0,0,42,84,.44.44,0,0,0,41.6,83.41Z"/><path class="cls-12" d="M70.72,81.7c-2.2,2.76-4.86,5.78-6,9.08.06,2,.19,4.79.07,6.54.3,2.33-6.58,1.09-4.54,2.13,2.27,0,5.6.35,5.13-2.91l0-6.11,5.5-8.14C71.05,82.05,71.33,81.36,70.72,81.7Z"/><path class="cls-12" d="M59.86,80.6c-2-2.65.64,2,1,2.5.65.65,1.1,3.09,2,2.85Z"/><path class="cls-12" d="M88.53,96.23,83.08,81a5.8,5.8,0,0,0-.28-.69c-.06-.13-.47-.19-.33.32C84.07,86,86.36,91.15,88,96.49c1,2.09-1.73,1.75-3.15,1.79-2.67.51,1.17.71,1.87.51C88.8,98.71,89.23,98.13,88.53,96.23Z"/><path class="cls-12" d="M81.59,93.71c-.74-.11-4,.08-4.85.12-1,.32-.49,1.78-.9,2.55-.28,1-.31,1.16-.94,1.46-.8.37-3.44.19-3.55.61.16.52,1.4.12,1.88.18,3.47.05,2.93-1.9,3.49-4.28l5.18-.18S81.85,93.74,81.59,93.71Z"/><path class="cls-12" d="M77.44,90.72,79,84.58c-.93-.23-1.44,4.6-1.73,5C77.15,89.86,77,90.71,77.44,90.72Z"/><path class="cls-12" d="M98.06,82.29c.19-.57-.14-2.38-.46-1,.18,1.42-1,5.77,0,6.11Z"/><path class="cls-12" d="M107.08,94.14l-5-4.85c-.14-.06,7.39-8.58,5.52-7.59-1.4,2.08-6.58,7-5.85,8,.3.46,5.18,5,5.43,5.4.85,1.44-1.42,2.11-2.25,2.85-.65,1.34,1.56,0,2-.43C108.53,96.31,108.58,95.58,107.08,94.14Z"/><path class="cls-12" d="M97,93c0,.19-.64,4.93-.69,5.08-.08,1.14-1.87.52-2.76.42-.44.38.56.55.87.62,1.75.36,2.26,0,2.45-1.67l.51-4.8A.55.55,0,0,0,97,93Z"/><path class="cls-12" d="M121.08,95.57c-.31,1.89.21,3.35-2.31,2.93-.86,0-9.43-1-5.36,0l5.32.52c2.43.4,2.73-.89,2.79-3C121.66,95.72,121.36,94.86,121.08,95.57Z"/><path class="cls-12" d="M113,83.43c-1.15.26.44.66,1.08.56C114.18,83.4,113.64,83.57,113,83.43Z"/><path class="cls-12" d="M123.16,81.48c0-2.38-.83-1.1-.6.37.18,2-1.72,1-2.62,1.85.09.24-1.59,10.73-.22,10.41L120.45,84C122.6,84,123.11,83.49,123.16,81.48Z"/><path class="cls-13" d="M4.34,76.35c-3.45-.94-5.83,5.7-4,4.82.29-4.78,5.06-3.92,4-4.82Z"/><path class="cls-13" d="M21.3,79.2c0-.1.09-.19.14-.29.08-.49,1.23-.84,1.09-1.52-.86-1-2.85,2.78-1.23,1.81Z"/><path class="cls-13" d="M4.82,94.92c-.49.78.11,7.35,1.31,5.6-1.2-.91-.36-6.94-1.31-5.6Z"/><path class="cls-13" d="M16.18,99.53c.21.67,3.27,2.38,2.72,1a4.5,4.5,0,0,1-2.21-1.36c-.25-.32-.78.06-.51.39Z"/><path class="cls-13" d="M29.11,77c2.57,0,2.86,3,3.79,2.75C34,78,28,75.24,29.11,77Z"/><path class="cls-13" d="M39.87,76.92c-1-.06-3.78,4-2,3.35a5.55,5.55,0,0,1,2.25-2.86c.29-.17,0-.63-.28-.49Z"/><path class="cls-13" d="M29.6,100.32c1,1.56,4.45.52,1.38.17-.36,0-1.56-1.21-1.38-.17Z"/><path class="cls-13" d="M38.83,100.48c1.43.87,3-.09.55-.33C39.06,99.9,38.37,100.07,38.83,100.48Z"/><path class="cls-13" d="M50,101.13c1.42-1,2.64-2.85,2.22-4.61-.09-.28-.5-.19-.55.06a5.19,5.19,0,0,1-2,4.14.25.25,0,0,0,.3.41Z"/><path class="cls-13" d="M53.66,77.72c2-.74,4.4-1.24,6.19.15.28.22.72-.19.45-.45C59.23,75.29,51.94,76.87,53.66,77.72Z"/><path class="cls-13" d="M64.81,78.18c2.08-2.55,5.08-.34,4.67-1.54-1.26-2.2-7.06,1.72-4.67,1.54Z"/><path class="cls-13" d="M75.37,77.86c.74-.64,2.16-.32,2.7-1C77.94,75.87,73.75,77.54,75.37,77.86Z"/><path class="cls-13" d="M56.58,100.05c.4,1.82,4.73,2.32,1.75.85-.47,0-1.65-2.08-1.75-.85Z"/><path class="cls-13" d="M67.9,99.55a3,3,0,0,0,1.59,1.2c.53,0,.39-.61,0-.72a5.31,5.31,0,0,1-.64-.45c-.24-.49-1.23-.92-.94,0Z"/><path class="cls-13" d="M80.55,99.56c-.06-.11.07.1,0,.06.11.67,2.65,2.32,1.79.83-.08-.08-.53-.39-.7-.55s-1.3-1.62-1.13-.34Z"/><path class="cls-13" d="M92.93,76.89c-3.13-.19-5.23,5.1-3.3,3.73-.08-2.58,4.72-3.25,3.3-3.73Z"/><path class="cls-13" d="M101.67,79.18a2.94,2.94,0,0,1,1.42-.88c.54,0,1.24-.61.39-.76-.69-.25-3.35,1.79-1.81,1.64Z"/><path class="cls-13" d="M110.84,78.58a3.6,3.6,0,0,1,.4-.28c.44-.45,1.58-.23,1.81-.89-.4-1.13-4,1.2-2.21,1.17Z"/><path class="cls-13" d="M122.71,77.56a2.92,2.92,0,0,1,1.13.65c.59.32.5,1.43,1.16,1.47C126.32,78.89,121.89,75.65,122.71,77.56Z"/><path class="cls-13" d="M90.62,100.23c1.07,1.81,5.29,1.42,1.61.19a3.86,3.86,0,0,1-.82-.51c-.29-.53-1.18-.28-.79.32Z"/><path class="cls-13" d="M99.66,98.93c.28.52,2.86,2.3,2.46.85-.55-.16-2.77-2.4-2.46-.85Z"/><path class="cls-13" d="M109.32,99.42c.57.52,2.5,2.12,2.9,1-.31-.42-.93-.47-1.36-.73s-1.81-1.47-1.54-.23Z"/><path class="cls-13" d="M124,96.36c-.33,2-1.29,4.39-3.64,4.57a.28.28,0,0,0,0,.55,3.27,3.27,0,0,0,3-1.49c.49-.39,1.82-4.47.64-3.63Z"/><path class="cls-14" d="M7.27,79.93c-5.95-2.2-4,5.61-3.18,3.28.23-.28,0-1.82.27-2.25a1.31,1.31,0,0,1,.17-.28C4.75,80,8,81,7.27,79.93Z"/><path class="cls-14" d="M10.37,98.18a2,2,0,0,0,1.47-1.1c.15-.64-.79-.73-.9-.13l.05-.1a1.07,1.07,0,0,1-.15.22l.07-.08a1.63,1.63,0,0,1-.31.27l.09-.06a1.22,1.22,0,0,1-.36.18l.1,0C9.79,97.33,9.67,98.24,10.37,98.18Z"/><path class="cls-14" d="M16.74,82.81a.14.14,0,0,1,0,.06l0-.08a1.28,1.28,0,0,0-.1.17l0-.08-.05.09.05-.08c-.33.47.41.78.66.34.44-.44-.38-1-.62-.42Z"/><path class="cls-14" d="M26.45,79.65A2.92,2.92,0,0,0,23.1,82c-.09.64-1,1.68-.18,2.13,1.2.1,1.07-2.24,1.66-2.82a2.14,2.14,0,0,1,.93-.67c.49-.13,2-.44.94-1Z"/><path class="cls-14" d="M22.59,95.91a1.05,1.05,0,0,1-.17.29l.08-.1a1.31,1.31,0,0,1-.24.23l.11-.08a.53.53,0,0,0,0,1c.84.42,1.94-2.31.26-1.34Z"/><path class="cls-14" d="M34.41,96.58s0,0,0,.06v-.12a.57.57,0,0,1,0,.13l0-.12a.65.65,0,0,1,0,.13l0-.11a.75.75,0,0,1-.07.12l.08-.1a.49.49,0,0,0,.35.91c1.15-.19.09-2.49-.38-.9Z"/><path class="cls-14" d="M25.7,91.72c.31-.1,1.31,0,1-.58C26.34,90.93,24.85,91.4,25.7,91.72Z"/><path class="cls-14" d="M42.38,79.8c-2.66-.56-2,3.78-.78,1.61l0,.14a2.06,2.06,0,0,0,0-.35v.15a1.23,1.23,0,0,1,.08-.33l-.05.13a1.19,1.19,0,0,1,.13-.25l-.08.11a.77.77,0,0,1,.18-.18l-.11.08a1.38,1.38,0,0,1,.24-.14l-.13.06.22-.1-.13,0a1,1,0,0,1,.3-.08l-.14,0c.59.1.89-.74.28-.92Z"/><path class="cls-14" d="M46.65,97.63c2.23.69,2.22-2.56.82-1l.05-.12a1.74,1.74,0,0,1-.11.18l.08-.1-.09.11.08-.1a.85.85,0,0,1-.17.16l.1-.07a1,1,0,0,1-.25.15l.12,0-.13,0,.11,0a1.05,1.05,0,0,1-.24.06l.13,0a1,1,0,0,1-.25,0l.12,0C46.44,96.55,46,97.41,46.65,97.63Z"/><path class="cls-14" d="M49.2,81.62a.54.54,0,0,0-.16.14l.06-.08-.07.07.09-.07-.1,0,.12,0a.65.65,0,0,0-.32.16l.1-.08a.2.2,0,0,1-.09.06l.12,0c-.79.25-.17,1.29.48.85.51-.21.43-1.26-.23-1Z"/><path class="cls-14" d="M40.62,95c.49.26,1.63-.08,1-.7l.08.06c-.17-.2-.42-.15-.64-.1h.11a1.94,1.94,0,0,1-.34,0l.11,0C40.42,94,40.08,94.82,40.62,95Z"/><path class="cls-14" d="M55.14,80.12c-5.74,1.16,2.3,6.41-.93,1.8,0,0-.1-.31-.08-.19s0-.14,0-.08,0-.1,0,0c0-.3,2.56-1.19,1-1.57Z"/><path class="cls-14" d="M69.26,79.67c-2.54-2.13-4.47,4.8-1.18.68l0,0s.15-.05.06,0c.51,0,1.86.26,1.16-.67Z"/><path class="cls-14" d="M59.38,94.29a11,11,0,0,0-.05,2.43c-.06,1.36,1.22,1.31.9-.07-.12-.62.35-3.94-.85-2.36Z"/><path class="cls-14" d="M78.08,79.53c-3.71-.55-4,9.61-1.49,2-.07-1,2.65-1.62,1.49-2Z"/><path class="cls-14" d="M71.72,97.19c.1-.82,1.12-2,.55-2.72-.61-.21-1.65,3.69-.55,2.72Z"/><path class="cls-14" d="M82.89,95.66c0,.88,1.24,2.67,1.11,1-.1-.25-.23-.58-.3-.79,0-.57-.81-.85-.81-.16Z"/><path class="cls-14" d="M77.53,91.82c.57.15,1.69-.36.8-.85C77.69,90.7,76.47,91.44,77.53,91.82Z"/><path class="cls-14" d="M94.25,80.05c-3.21-.74-1.49,6.48-.86,1.69,0-.34.06-.64.24-.76-.08.07,0,0,.06,0,.21-.09,1.45-.49.56-.89Z"/><path class="cls-14" d="M93.59,97.43c-.11-.63.39-1.86-.35-2.12-.7,0-.34,3.27.35,2.12Z"/><path class="cls-14" d="M105.68,80.8c-1.12-.93-5.24,2.11-3.32,2.21,1-.57,1.87-1.63,3.16-1.57a.33.33,0,0,0,.16-.64Z"/><path class="cls-14" d="M113.22,81.38a.29.29,0,0,0,0-.09l0,.08a1.17,1.17,0,0,1,.09-.24l0,.09.08-.15,0,.09a.8.8,0,0,1,.15-.21l-.08.08.15-.17-.07.09a1.45,1.45,0,0,1,.18-.17l-.09.07a.7.7,0,0,1,.24-.13l-.11,0a1.28,1.28,0,0,1,.28-.07h-.12c1.19-.08.4-1.34-.46-.78-1,.06-1.09,2.51-.15,1.46Z"/><path class="cls-14" d="M112.52,95c.64.48,1.72-.35.72-.71l.34.19C113.22,93.84,111.53,94.4,112.52,95Z"/><path class="cls-14" d="M118.74,98c1.38.25,1.87-2.1.5-1l.08-.08-.17.19.07-.08a1.8,1.8,0,0,1-.2.19l.08-.06a1.15,1.15,0,0,1-.25.12l.1,0C118.43,97.18,118.13,97.88,118.74,98Z"/><path class="cls-8" d="M108.75,124.28c2.49.2,4.41-1.34,3.24-3.79l-4.42-12.7a3.43,3.43,0,0,0-4.12-2.67c-3.83.19-4.71,1.34-5.32,4.12a1.48,1.48,0,0,1-2.8.15c-1-3.79-9.36-5.22-13.46-3.28-1.24.88-2.43-1-3.64-.74-3.38-.22-2.57,1.84-4.66,2.32-.82,0-1.24-.65-1.6-1.27-1.39-1.38-5.16-1.66-6.14-.26-1.17,1.54-4.84-1.24-7.25,1-2,1.3-2.39-1.7-4.83-1.32-2.5-.4-4.76.53-4.4,3.35-.13,1.23.87,4.84-1.1,5.09-3.66,0-2-9.69-7-9.18-3.23,0-5.34.78-5.79,3.3-.52,1.4-1,7.26-3.72,4.88-2.5-2-2.31-1.63-1.64-4.85.81-6.09-14.81-4.19-14,2.8-.33,2.34,1.86,3,2.32,4.8-.45,1.73-3.17,2.88-2.65,4.91,2.67,5.32,11.31,3.78,15.53,1.67,1.47.4.75,1.53,3.22,1.56.18,0,.85,0,1.08-.06,2.74-.19,3.16-1,3.5-2.33a1.49,1.49,0,0,1,2.86,0c.24,1.65,1.6,2.84,3.87,2.52a4.75,4.75,0,0,0,2.85-.68c1.82-1.32,5.28,3.31,7-.41,1.46-2.74,3.35,1.29,5.13,1,2.86.23,4.5-5.24,6.53-2.67a6.56,6.56,0,0,0,11.17.69,1.48,1.48,0,0,1,1.48-.59c1.69.53,1.25,3.31,3.55,3a8.1,8.1,0,0,0,1.54-.21c2.06-.08,2.85-2.66,4.54-1a2.22,2.22,0,0,0,1.83.94,5.57,5.57,0,0,0,2.49-.89c1.34-.66,2,.88,3.51.68.32,0,.74,0,1.07-.06,2.74-.19,3.17-1,3.51-2.33a1.49,1.49,0,0,1,2.86,0C105.12,123.41,106.49,124.6,108.75,124.28Z"/><path class="cls-9" d="M73.16,128A9.38,9.38,0,0,1,66,124.72c-2,2.12-6.11,3.53-8.66,1.27-1.85,2.13-5.47,1.84-7.75.53-3.12,1.29-7.42,1-9.14-1.18-1.81,2-7.61,2.49-9.67.6-6.55,4.44-23.81-.48-16-10-8.43-12.34,15.35-19.64,18.11-9.33,2.11-6.13,12.53-5.72,14.13-.88,2.09-3.93,7.81-3.55,10.78-1.66a9.85,9.85,0,0,1,6.42-.55c2-1.71,6.38-1.78,9.31.27,3-1.88,4.73-1.83,7.61-.69,4.48-1.91,13.28-.25,15.15,2.46,1.77-3.09,5-3.35,7.85-3.47a6.24,6.24,0,0,1,6.21,4.69l4.42,12.7c3.06,7.31-7.48,10.1-11.41,5.82-1.73,1.79-6.35,2.36-8.81,1.15-1.66,1-4.52,1.23-6.19-.16-2.87,1.56-6.92,2-9-.63A9.12,9.12,0,0,1,73.16,128Zm-7.07-7.14a1.49,1.49,0,0,1,1.25.69,6.56,6.56,0,0,0,11.17.69,1.49,1.49,0,0,1,2.64.51c1,3.72,5.43,1,7.36.13,2,.75,2.38,2.41,4.89.88,1.9-1.29,2.69,1,5.12.34,4.34,0,2.36-2.89,4.94-3.43,2.67.52.7,4.2,5.29,3.61,1.12-.08,2.48,0,3.22-1.08,1.45-1.74-4.18-13.47-4.4-15.41a3.43,3.43,0,0,0-4.12-2.67c-3.83.19-4.71,1.34-5.32,4.12-3,4.24-1.76-4.45-11.56-3.93-2.49-.54-5,1.66-6.51.66a3.09,3.09,0,0,0-2.47-.57c-2.7-.42-3.38,4.63-5.62,1-1.16-1.2-2.64-1-4-1.16-2.29-.14-2,2-3.91,1.35-4.8-1.7-6,2.47-7.75.12-.61-.9-2.66-.94-3.94-1-5.77-.14-.81,7.35-4.12,8.49-2.2.63-2.83-5.4-3.59-6.48-.84-4.39-9-3-9.2.6-.37,1-.86,5.21-2.27,5.35-1.15.24-4.37-2.37-3.46-3.54,1.59-3.73-1.23-5.7-4.78-5.28-6.11-.22-12.3,4-6.51,11.1-.45,1.73-3.17,2.88-2.65,4.91,2.1,4.56,10.78,4.52,14.41,1.91,2.24-1.11,1.56,1.43,4.34,1.32,2.47.09,4.48-.74,4.58-2.39a1.49,1.49,0,0,1,2.86,0c.17,2,2.28,2.91,4.55,2.48,1.18.34,2.89-1.74,4.1-.62s4.38,1.71,5-.43a1.48,1.48,0,0,1,1.08-.92c1.62-.21,2.43,2.21,4.05,2a5.85,5.85,0,0,0,4-2.6A1.48,1.48,0,0,1,66.09,120.86Z"/><path class="cls-10" d="M73.16,125.34c-3.7.25-4.5-2.57-7.07-4.18v-.3l0,.3a1.19,1.19,0,0,0-1,.6,6.08,6.08,0,0,1-4.24,2.76c-1.64.28-2.44-2-4-2-1.29.58-1.36,2.6-3.22,2.34a5.52,5.52,0,0,1-3.17-1.05c-1.1-.9-2.87,1.08-3.89.68-.37,0-1.06.08-1.41.07-2.49,0-3-1.31-3.43-2.76a1.19,1.19,0,0,0-2.29,0c0,1.67-2.31,2.74-4.87,2.6s-1.94-1.1-3.28-1.56c-2.3.69-4.28,2.26-7.33,2-6.54-.45-11.62-2.75-5.78-8.88-.65-1.71-2.64-2.48-2.33-4.8.46-7,7.44-6.7,11.33-6.48,5.91.78,1.5,5.51,3.33,7.14,1.08.63,2.66,2.8,3.52.73l1.17-4.3c.22-3.91,8.9-5.25,9.77-.61.64.91,1.47,6.8,3.26,6.28,2.39-.94-.44-5.76,1.67-7.64,1.16-1.12,2.55-.82,3.89-.8,2.11-.12,2.37,1,3.73,1.65,1.39-.2,2.12-1.45,3.89-1.23a7.86,7.86,0,0,1,2.8.38A1.19,1.19,0,0,0,65.6,106c.77-1.42,5.81-1.5,6.9.73,1.8,2.33,2.3-2,5.07-1.6a3.33,3.33,0,0,1,2.69.64,1.19,1.19,0,0,0,1.45.11c1.3-.83,3.18-.8,4.86-.85,4.74,0,8,1.52,9,4.27a1.15,1.15,0,0,0,1.16.75c.91,0,1.17-1,1.32-1.72.23-3.91,8.88-5.25,9.77-.61l4.42,12.7c1.33,3.13-1.27,4.44-4.24,4.2-2.48,0-3-1.31-3.43-2.76a1.18,1.18,0,0,0-2.28,0c-.36,1.36-.85,2.34-3.78,2.55a4.43,4.43,0,0,1-3.16-.54c-.57-.5-1.3-.17-1.85.17-2.39,1.44-3.1.17-5-.86a1.18,1.18,0,0,0-.91.4c-.65.84-2.8,1.34-4,1.36a2.55,2.55,0,0,1-2.68-2.11C79.54,119.72,76.89,126.14,73.16,125.34Zm-7.07-4.78a1.77,1.77,0,0,1,1.5.83,6.26,6.26,0,0,0,10.68.67,1.79,1.79,0,0,1,3.16.62c.45,2.63,4.48,1.62,5.72.49a1.79,1.79,0,0,1,2.7.08c1,1.43,2.76.67,4,0,1.4-.77,2.1.8,3.64.65,2.15.09,4.35-.66,4.29-2.17a1.79,1.79,0,0,1,3.43,0C105.54,123,106,124,108,124c2.36.13,5-.56,3.69-3.41l-4.43-12.71c-.55-1.59-1.25-2.51-3.13-2.51-3.13.05-5.06.71-5.51,3.09-.05,2-2.67,3.11-3.6,1-.85-3.22-7-4.43-11.15-3.74-1.59,0-2.67,1.65-4,.43a2.41,2.41,0,0,0-1.63-.53c-3.15-.29-2.49,2-4.65,2.32-2.27-.33-1.21-2.39-4.8-2.37-3.59-.44-2,2.37-6.18,1-.32,0-.89-.08-1.22-.06a3.79,3.79,0,0,0-2.61.82c-2.43,1.57-2.21-1.75-6.07-1.28-4-.61-3,4.33-2.94,6.67a1.78,1.78,0,0,1-3.45.64c-1.24-2.49-1.57-8.92-5.75-8-7.19-.11-3.58,6.46-7.31,8.62-1.37.36-2-1.11-3.06-1.64-1.66-1-.42-2.44-.38-4,.82-5.66-14.26-3.76-13.39,2.81.07,4.28,4.94,3.35.28,7.63-2.61,4,4.11,5.43,7.23,5.46,3.46.76,6.55-3.48,8.59-1.26l-.2.23.23-.18c.09.51,2,1,3.05.71,2.6-.18,2.92-.92,3.24-2.12a1.79,1.79,0,0,1,3.43,0c.36,1.35.78,2.32,2.86,2.32,1.14-.12,2.23.16,3.38-.64,1.71-1.35,3.14,1.23,5.09.94,1.77.21,1.59-2.07,3.1-2.33,1.69-.37,2.53,2.15,4.11,2a5.65,5.65,0,0,0,3.72-2.45A1.82,1.82,0,0,1,66.09,120.56Z"/><path class="cls-11" d="M18,121.87c-1.27-.76-1.29-1.55-.43-2.68,1-1.35,1.37-1.46,3-.78,1.89.92,5.67,1.06,5.77-1.29,0-2.74-9-.63-9-5.9-1-5.39,12.35-7.1,11.56-2.83,0,1.27-.24,1.66-1.06,1.66s-5.39-1-5.3,1c0,2.22,9.32-.94,9.32,6.38C31.84,123.92,22.34,124.62,18,121.87Z"/><path class="cls-11" d="M48,120.89c.86,2-.52,2.15-2.18,2.18-3,.49-2.51-2-3.2-3.9l-4.21.15c-.45,2,0,3.63-2.83,3.58-1.65.18-2.92,0-2.24-2l3.33-12.22c.46-1.72,1-2.18,4-2.4,1.78-.13,2.31.2,2.9,1.88Zm-6.15-4.6-1.61-5.14L39,116.3Z"/><path class="cls-11" d="M63,119.15c1.5,1.31.86,2.16-.59,3.11s-2,1-3.26-.26l-4-4.11-.41,4c.08,2.68-4.26,1.45-3.81-.78l-.37-12c-.05-1.74.37-2.2,2.11-2.13s3.42,0,3,2.26l-.42,4.29c1.93-2.19,3.56-7,7.25-6,1.59.09,1.81.59.85,1.83L58.9,115.1Z"/><path class="cls-11" d="M75.93,108.7c-.16-1.57.15-2,1.76-2.09,2.87-.53,2,3,2.22,4.88,0,6-1.59,12.34-6.75,12.34-4.77,0-7-5.81-7-12.58.1-2.33-.32-5.7,3.18-4.64,2.93-.09,1.64,2.67,1.78,4.53C71.5,123.5,77.65,116.79,75.93,108.7Z"/><path class="cls-11" d="M94.19,119.56c1.47,1.67.19,2.4-1.37,3.14-2.88,2.06-3.5-3.53-4.55-5.07a12.32,12.32,0,0,1-1.78.76c.18,2.3,1.22,4.76-2.09,4.94-1.68.33-2.16-.13-2.2-1.85l-.33-12.39c0-1.7.44-2.22,2.11-2.42,7-1.58,15.14,3.77,7.47,9.28Zm-8.66-9,.48,4C92,113.72,90.6,108.63,85.53,110.61Z"/><path class="cls-11" d="M110.85,120.89c.87,2-.52,2.15-2.18,2.18-3,.49-2.5-2-3.2-3.9l-4.2.15c-.45,2,0,3.63-2.83,3.58-1.66.18-2.92,0-2.24-2l3.33-12.22c.46-1.72,1-2.18,4-2.4,1.78-.13,2.3.2,2.89,1.88Zm-6.14-4.59-1.61-5.14-1.24,5.14Z"/><path class="cls-12" d="M110.1,122.11Z"/><path class="cls-12" d="M103.12,111.21l.1.34A.38.38,0,0,0,103.12,111.21Z"/><path class="cls-12" d="M88,117.32c-.34.32-1.81.28-2,1,.2,2.67,1.17,4.46-2.66,4.67-.8.59,1.06.41,1.41.25,2.89-.14,1.75-3,1.66-4.85a12.32,12.32,0,0,0,1.78-.76S88.21,117.25,88,117.32Z"/><path class="cls-12" d="M85.53,110.61c1.18-.33,3.81-1,4.38.65-.33-1.89-3.93-1.71-4.79-.6.21.65,0,4.25.89,3.92Z"/><path class="cls-12" d="M94.19,119.56,91.45,116c2.38-1.6,3.64-3.73,2.75-6.13-.16-.37-.47-.42-.37-.08.69,3.38-.32,4-2.36,5.66-.38.22-.6.45-.44.75,1.08,2.42,5.93,4.75.79,6.45-1,1.08,1.43,0,1.74-.29C95.09,121.52,95.22,120.94,94.19,119.56Z"/><path class="cls-12" d="M71.33,123.51c7.76,2.48,9.27-9.17,8.39-15.61-.07-.38-.49-.41-.46-.06.48,5.59.37,17.06-7.91,15.27C70.65,122.9,71,123.37,71.33,123.51Z"/><path class="cls-12" d="M74.09,117.78c-3.18,1.09-3.15-6.46-2.82-9.74C69.94,106.17,69.6,120.21,74.09,117.78Z"/><path class="cls-12" d="M63,119.15,58.9,115.1l4.46-5.75c.34-.29.7-1.26-.06-.65-.71,1.15-4.79,5.16-4.92,6.5,1.47,1.72,4.36,4.4,4.66,4.75,1.08,1.19-1.15,1.87-1.74,2.43-.55.35-.12.6.23.44A9.9,9.9,0,0,0,62.8,122C64.17,121,64.21,120.35,63,119.15Z"/><path class="cls-12" d="M54.7,117.82c-.63,2.07.46,6.39-2.85,4.65-.33-.13-.31.36-.18.44,4,2.15,3-2.75,3.48-5C55.15,117.89,54.78,117.37,54.7,117.82Z"/><path class="cls-12" d="M55.26,113.55l.43-4.42c0-.56-.5-.51-.55.2C55.31,110.06,54.15,113.44,55.26,113.55Z"/><path class="cls-12" d="M42.39,118.77c-1.32.22-3.88-.56-4.49.52-.29,2.84-.78,3.3-3.84,3.18-.56,0-.26.41-.07.44a7.23,7.23,0,0,0,1.54,0c2.83,0,2.38-1.62,2.83-3.58l4.21-.15S42.5,118.77,42.39,118.77Z"/><path class="cls-12" d="M43.53,108.2c-2.24-3.81,4.73,14.59,4.1,13.53.43,1.58-4.57.31-3,1.34,1.57,0,4.47.32,3.28-2.18Z"/><path class="cls-12" d="M39,116.3l1.24-5.14c-1.15-.18-1.43,4.45-1.64,4.62A.45.45,0,0,0,39,116.3Z"/><path class="cls-12" d="M105.3,118.77c-1.32.22-3.88-.56-4.49.52-.3,2.84-.78,3.3-3.85,3.18-.55,0-.26.41-.07.44a7.32,7.32,0,0,0,1.55,0c2.82,0,2.38-1.62,2.83-3.58l4.2-.15S105.41,118.77,105.3,118.77Z"/><path class="cls-12" d="M106.43,108.2c-2.24-3.81,4.74,14.59,4.11,13.53.42,1.58-4.57.31-3,1.34,1.57,0,4.47.32,3.27-2.18Z"/><path class="cls-12" d="M101.86,116.3l1.24-5.14c-1.16-.18-1.43,4.45-1.64,4.62A.45.45,0,0,0,101.86,116.3Z"/><path class="cls-12" d="M31.85,117.43c.19-.66-.64-3.55-.78-1.91a5.65,5.65,0,0,1,0,3.73c-.85,3.64-10.45,4.62-12.66,2.19-.41-.3-.9.11-.38.43C22.34,124.62,31.84,123.92,31.85,117.43Z"/><path class="cls-12" d="M22.53,111.05c1-3.47,7.4,1.67,6.32-3.52-.61-.73-.34,1.46-.55,1.79-.13.48-1.71.1-2,.07a9.23,9.23,0,0,0-3.16.08c-1.22.41-2.09,2.07.17,2.34C22.66,111.65,22.53,111.31,22.53,111.05Z"/><path class="cls-12" d="M19,114.15c2.15,1.28,6.47,1.1,7.21,2.47-.41-1.42-2.57-1.52-3.91-1.86C21.69,114.89,18.79,113.43,19,114.15Z"/><path class="cls-13" d="M20.71,103.29c-5.57,0-7.82,9.93-5.5,8-.39-6.32,7.41-7.37,5.5-8Z"/><path class="cls-13" d="M13.89,121.69c0,.84,3,3.75,2.8,2a7.61,7.61,0,0,1-1.54-1.24c-.31-.34-1.12-1.88-1.26-.71Z"/><path class="cls-13" d="M29.74,104.92a2.67,2.67,0,0,1,.69.7,6.89,6.89,0,0,1,.48,1.17c.94.83.78-1.06.32-1.48-.21-.73-2.11-1.84-1.49-.39Z"/><path class="cls-13" d="M36.2,104c-1.3,0-4.58,6.39-2.82,5.84.73-1.9,1.4-4,3.18-5.21.34-.23,0-.84-.36-.63Z"/><path class="cls-13" d="M43.66,104.66a3.38,3.38,0,0,1,.44.4L44,105c.15.16.27.33.42.48l-.07-.07.1.1-.06-.06c.26.35.79.13.62-.31s-1.81-1.64-1.39-.47Z"/><path class="cls-13" d="M31.28,125.42c.49.75,3.69,1.27,2.37,0a4.37,4.37,0,0,0-.7-.15h0a3.36,3.36,0,0,1-.82-.3c-.32-.43-1.52-.47-.9.43Z"/><path class="cls-13" d="M41.21,124.47c.4.57,2.86,1.7,2.11.38a6.52,6.52,0,0,1-1.64-1,.39.39,0,0,0-.47.61Z"/><path class="cls-13" d="M49.88,125.51c1,1,3.43.16,1.22-.36a3.54,3.54,0,0,1-.76-.3c-.19-.26-1,.25-.46.66Z"/><path class="cls-13" d="M57.59,125c.45.94,3.36,1.28,1.92,0a2.73,2.73,0,0,0-.42-.09l.12,0a1.94,1.94,0,0,1-1-.5c-.08-.33-1.09-.08-.66.52Z"/><path class="cls-13" d="M51,104.18c-3-.14-4.42,6.2-2.8,5.11,0-4.39,4.39-4.53,2.8-5.11Z"/><path class="cls-13" d="M59.87,105.57s.22-.13.12-.08a2.62,2.62,0,0,1,.53-.2s.7-.1.61-.42c-.28-1-2.74.74-1.26.7Z"/><path class="cls-13" d="M65.27,105.24c1.21-1.08,2.88-.76,4.35-.83,1.14-1.1-2.06-.92-2.69-.73-.58-.06-3.21,1.49-1.66,1.56Z"/><path class="cls-13" d="M75.38,104.78a4.15,4.15,0,0,1,3-.78.37.37,0,0,0,.32-.33c-.16-1.77-5.66.88-3.34,1.11Z"/><path class="cls-13" d="M82.18,104.86c.75-.86,6.61,0,5.39-1.21C86.82,103.13,80.11,103.75,82.18,104.86Z"/><path class="cls-13" d="M97.59,106.2c.51-1.5,5.42-1.65,4-2.46-1.08-.81-5.89,2.45-4,2.46Z"/><path class="cls-13" d="M66.39,123.53c.28.56,2.56,3.08,2.53,1.45a11,11,0,0,0-1.07-1c-.35-.47-1.67-2-1.46-.48Z"/><path class="cls-13" d="M79.52,124.14c.85,2.48,6,2.43,2.09.88a3.62,3.62,0,0,1-.85-.6c-.24-.37-1.27-1.52-1.24-.28Z"/><path class="cls-13" d="M89.24,125.32c.55.84,3.71,1.14,2.29-.1-.37-.08-.71-.08-1-.15s-2-1-1.33.25Z"/><path class="cls-13" d="M95.86,125.64c.9.42,3.28,1.11,3.59-.17-.81-.67-2.3.17-3.29-.61A.42.42,0,0,0,95.86,125.64Z"/><path class="cls-13" d="M113,118.65c.87,2.48.63,6-2.47,6.64-.26.07-.19.44,0,.5,5.35.83,3.52-9.68,2.43-7.14Z"/><path class="cls-14" d="M21.41,107.06c-2.07-.14-4.14,4.38-2.19,3.17a5.18,5.18,0,0,1,1.5-1.9c.31-.16,2-1,.69-1.27Z"/><path class="cls-14" d="M18.66,119.87a1.52,1.52,0,0,1,.48-.25l-.11,0a1.53,1.53,0,0,1,.36-.07h-.12a1.22,1.22,0,0,1,.33,0l-.12,0c.6.33,1.1-.59.45-.86-.83-.55-2.89,1.22-1.27,1.13Z"/><path class="cls-14" d="M28,113.92c.67.1,1,.6,1.52,1.09.88.19.07-1.06-.34-1.22C28.81,113.34,27.11,113.13,28,113.92Z"/><path class="cls-14" d="M39.26,107c-2.72-.37-2.33,5.48-.68,1.37-.08.15.14-.22.19-.28-.15.18.2-.23,0,0a1.17,1.17,0,0,1,.56-.34.36.36,0,0,0-.1-.72Z"/><path class="cls-14" d="M34.55,121.64c.12-.81,1.15-1.91.58-2.63-1-.53-1.86,3.71-.58,2.63Z"/><path class="cls-14" d="M39.23,117.36c.37,0,1.17-.22.77-.71S38.14,117.14,39.23,117.36Z"/><path class="cls-14" d="M46.59,121.67c.4-.88-1.06-2.65-1-1l0-.1c.19.4.48,2,1,1.09Z"/><path class="cls-14" d="M52.87,107.55c-3-1.09-1.3,5.92-.7,1.36-.05.27,0-.2.07-.25s.1-.21,0,0a1,1,0,0,1,.11-.17s-.09.08,0,0,.08-.1.31-.14c.28.14.77-.57.22-.78Z"/><path class="cls-14" d="M52.07,121.21c.2-.45-.17-1.83-.62-.93l0-.07c-.12.3,0,.65,0,1v-.09a.32.32,0,1,0,.62.12Z"/><path class="cls-14" d="M59.45,109.6l.67-.56.13-.06c.26-.09,1.45-.06,1.47-.69-.25-.62-1.25-.23-1.75-.13s-1.66,1.69-.52,1.44Z"/><path class="cls-14" d="M61.08,120.32c.28.46,1.3,1,1.24.1-.16-.62-1.64-1.13-1.24-.1Z"/><path class="cls-14" d="M68.6,107.45c-2.95-.76-1.65,4.12-1.55,5.81,1.64,1.87.39-4.33.9-5.14l0,.07-.22.12c.47,0,1.82-.34.9-.86Z"/><path class="cls-14" d="M77.57,107.47c-2.74-.21.16,6.45-.19.66h0c-.38.35-.09.16.06.12.51.08.86-.76.13-.79Z"/><path class="cls-14" d="M69.27,120.92c1,2.36,4.38.68,1.67.4a1.82,1.82,0,0,1-.44-.17c.09,0-.25-.16-.31-.23l-.15-.13c-.18-.46-.91-.45-.77.13Z"/><path class="cls-14" d="M84.42,107.67c-3-.73-1.76,4.44-1.72,6.17,1.23,1.29.58-2.61.76-3.24-.25-3,1.53-2,1-2.93Z"/><path class="cls-14" d="M82.94,120.74c0,.41-.16,1.2.43,1.24.8-.16.13-2.33-.43-1.24Z"/><path class="cls-14" d="M90.28,120.84a4.18,4.18,0,0,1,.21.53l0-.11c-.07.77,1,1.17,1,.23,0-.69-1.17-2-1.19-.65Z"/><path class="cls-14" d="M87.93,115.31c.49-.09,2.44-1,1.46-1.4C89.05,114.14,86.65,115.08,87.93,115.31Z"/><path class="cls-14" d="M91.93,109.18s.07.08,0,0a2.26,2.26,0,0,1,.22.29,2.6,2.6,0,0,1,.21.55l0-.09c0,.55.74.63.71,0,.15-.64-1.44-2-1.13-.79Z"/><path class="cls-14" d="M102.4,107.36a3,3,0,0,0-.9.11c-2.57.9-1.8,6.3-.06,1.14,0,.09,0,0,0,0s.22-.18.36-.34,1.38-.52.59-.89Z"/><path class="cls-14" d="M97.41,121.48c.31-.51,1.43-3.08,0-2.2-.09.41-1,2.83,0,2.2Z"/><path class="cls-14" d="M102.15,117.39c.51.16,1.35-.33.64-.75S101.29,117.06,102.15,117.39Z"/><path class="cls-14" d="M108.53,122c1.23.56,1.32-1.41.63-2l.09.08c-.32-.46-.93-.23-.78.33v-.11a.74.74,0,0,0,0,.33l0-.11a4.7,4.7,0,0,1,.17.83v-.13a.91.91,0,0,1,0,.17l0-.12,0,.09,0-.11,0,.05.08-.09-.06,0,.1-.06,0,0,.11,0h0l.12,0A.46.46,0,0,0,108.53,122Z"/></svg>