<svg id="Layer_1" data-name="Layer 1" xmlns="http://www.w3.org/2000/svg" viewBox="0 0 64 64"><defs><style>.cls-1{fill:#fff;}.cls-2{fill:#e06460;}.cls-3{fill:#fcbf60;}.cls-4{fill:#c75e28;}.cls-5{fill:#ffe745;}</style></defs><path class="cls-1" d="M64,43.49a2.52,2.52,0,0,0-2.91-2.88c-1.35.16-4.63-.25-5.46,1a3.66,3.66,0,0,0-1.94-.46,3.6,3.6,0,0,0-2.73.8c-.94-1.26-2.2-1-3.25-1.1-3.5,0-2.63,3.5-2.63,5.73l-1.37-3.92a2.87,2.87,0,0,0-2.91-2.24c-1.36,0-2.85.25-3.57,1.05a4.27,4.27,0,0,0-2.56-1c-1.74.09-2.16,1.28-2.61,2-1.16-2.33-2.57-2.44-5.2-1.37a2.85,2.85,0,0,0-2.06-.54l-3.35.13a2.45,2.45,0,0,0-2.64,2.83A2.59,2.59,0,0,0,19.86,46l-.1,2.49-.23.13-2.05-5.9a2.87,2.87,0,0,0-2.91-2.24c-1.58,0-3.18.31-3.85,1.39a2.92,2.92,0,0,0-2.16-.9l-5.48-.32A2.57,2.57,0,0,0,0,43.44c-.17,2,.29,3.78,2.54,3.8l-.12,4.28a3,3,0,0,0,.68,2.18c1.18,1.26,4.48.67,5.07-.84.64,1.31,2.64,1.22,3.92.92l.08.07A3.34,3.34,0,0,0,11,59.08c-3.66,4,4,5.91,6.6,4a3.29,3.29,0,0,0,4.18-.37,2.37,2.37,0,0,0,2.38,1,3.19,3.19,0,0,0,1.57-.36c.94.63,2.65.77,3.32-.3a2.31,2.31,0,0,0,3.08,0,3.21,3.21,0,0,0,.74-.61,3.83,3.83,0,0,0,5.81.4c.71,1.38,2.81,1.11,3.89.36a2.29,2.29,0,0,0,2.67.11c1.07.61,3.23.31,3.84-.64a2.36,2.36,0,0,0,2.39,1,2.49,2.49,0,0,0,2.16-.91,2.17,2.17,0,0,0,.12-2.06l-1.92-5.52L52.93,54a4,4,0,0,0,2.35-1.08,2.84,2.84,0,0,0,2,.94c.43,0,2.88.32,3.25.3,1.72.06,2.58-1.25,2.58-3a2.53,2.53,0,0,0-.82-2.22l.2-2.82A2.57,2.57,0,0,0,64,43.49Z"/><path class="cls-2" d="M6.88,51.24c.11,1.21-.43,1.46-1.54,1.54S4,52.66,4,51.59l.16-6c-2.23.12-2.74.51-2.58-2.08,0-1.09.27-1.34,1.35-1.28l5.5.33c1,.07,1.27.32,1.23,1.38s-.27,1.28-1.3,1.35l-1.73.12Z"/><path class="cls-2" d="M18.72,51.13c.52,1.28-.29,1.32-1.35,1.35-1.37.08-1.42-.19-1.69-1.26l-.3-1.16-2.61.09c-.3,1.26,0,2.22-1.76,2.22-1,.11-1.8.05-1.39-1.22l2.07-7.59c.28-1.07.59-1.35,2.49-1.49,1.11-.08,1.43.13,1.8,1.17Zm-3.81-2.86-1-3.19-.78,3.19Z"/><path class="cls-2" d="M25.24,51.41c-.06,1.06-.33,1.29-1.38,1.18l-2.68-.27c-1-.07-1.23-.48-1.1-1.46s.29-1.11,1.21-1.06l.21-5c-.94,0-1.14-.31-1.13-1.19s.19-1.19,1.13-1.23l3.34-.14c1,0,1.28.21,1.26,1.26s-.29,1.3-1.37,1.3L24.36,50C25.36,50,25.33,50.6,25.24,51.41Z"/><path class="cls-2" d="M33.25,51.29c.12,1.45-.77,1.47-2,1.52s-1.35-.15-1.36-1.24l0-3.54-2.95-3.86c-.64-.82-.53-1.16.46-1.5,1.2-.37,2.38-1.19,3.08.35L32,45.8,33.61,43c.51-.92.86-1.06,1.88-.66s1.07.7.51,1.55l-2.77,4.22Z"/><path class="cls-2" d="M44.93,51.13c.52,1.28-.29,1.32-1.35,1.35-1.37.08-1.42-.19-1.69-1.26l-.3-1.16L39,50.15c-.3,1.26,0,2.22-1.76,2.22-1,.11-1.8.05-1.39-1.22l2.07-7.59c.28-1.07.59-1.35,2.49-1.49,1.11-.08,1.43.13,1.8,1.17Zm-3.81-2.86-1-3.19-.78,3.19Z"/><path class="cls-2" d="M54.28,50.05c.93.81.53,1.34-.36,1.93s-1.26.62-2-.16l-2.48-2.56-.26,2.49c-.09.88-.35,1.06-1.23.87s-1.11-.45-1.13-1.36l-.23-7.44c-.13-1.47.79-1.37,1.94-1.3s1.33.3,1.24,1.38l-.26,2.67,2-2.75a2.21,2.21,0,0,1,2.53-1c1,0,1.13.36.53,1.14l-2.77,3.57Z"/><path class="cls-2" d="M61.54,51.41c-.07,1.06-.34,1.29-1.39,1.18l-2.67-.27c-1-.07-1.23-.48-1.11-1.46s.29-1.11,1.21-1.06l.21-5c-.94,0-1.14-.31-1.13-1.19s.19-1.19,1.13-1.23l3.34-.14c1,0,1.28.21,1.26,1.26s-.29,1.3-1.37,1.3L60.66,50C61.65,50,61.62,50.6,61.54,51.41Z"/><path class="cls-2" d="M18,59.12c-.28-1.83-2.75-1.64-3.66-1.85-.19-.07-.34-.15-.33-.34.13-.84,1.54-.49,2.13-.45.65.19.69-.54.6-1.1s-1.12-.55-1.68-.58c-1.61,0-3.31.45-3.31,2.21a1.48,1.48,0,0,0,1.12,1.45c.79.35,1.83.28,2.55.71a.47.47,0,0,1,.23.4c0,1-1.68,1-2.5.56s-.91-.21-1.32.39c-1,1.27,1.85,1.79,2.78,1.78C16.56,62.35,18.41,61.14,18,59.12Z"/><path class="cls-2" d="M25,61.21,23.1,55.7c-.23-.6-.48-.91-1.26-.82-1.33.1-1.55.3-1.75,1l-1.44,5.31c-.32.93.37.9,1,.85,1.22,0,1-.69,1.22-1.55l1.83-.07c.22.59.18,1.71.91,1.69S25.5,62.34,25,61.21Zm-2.66-2H21.11L21.64,57Z"/><path class="cls-2" d="M29.76,58.69c0-.06,2.15-2.74,2.1-2.71.31-.55-.26-.56-.8-.6a1.4,1.4,0,0,0-1.5.72L28.19,58l.18-1.86v-.07c.15-.93-.57-.89-1.31-.91s-.94.16-.92.92l.17,5.2c0,.67.24.82.79,1s.79,0,.86-.61l.18-1.73,1.73,1.78c.55.6.91.52,1.42.11s.89-.79.25-1.35Z"/><path class="cls-2" d="M38.87,56.31c0-.24,0-.42,0-.59,0-.56-.26-.8-.9-.71s-.83.23-.77.9c.16,1.18.13,3.78-.79,3.94-1.25.47-1.38-2.33-1.24-3.82.07-.63,0-1-.83-1s-1.29-.09-1.31.8C32,64.15,39.45,65.13,38.87,56.31Z"/><path class="cls-2" d="M45.09,60.63,43.9,59.06c1-.7,1.58-1.63,1.19-2.67-.47-1.33-2.88-1.57-4.43-1.36-.73.09-.94.31-.92,1l.14,5.39c0,.92.51.92,1.14.75s.93-.32.83-1.07l-.11-1a5.48,5.48,0,0,0,.78-.33l.76,1.77c.24.54.43.72.85.59a3.92,3.92,0,0,0,.69-.33C45.48,61.49,45.53,61.23,45.09,60.63Zm-3.56-2.16-.21-1.72c.51-.14,1.45-.4,1.85.14C43.57,57.74,42.64,58.28,41.53,58.47Z"/><path class="cls-2" d="M52.32,61.21,50.4,55.7a1,1,0,0,0-1.26-.82c-1.32.1-1.54.3-1.74,1L46,61.23c-.32.93.37.9,1,.85,1.21,0,1-.69,1.22-1.55L50,60.46c.21.55.2,1.72.92,1.69S52.81,62.34,52.32,61.21ZM49,57s.65,2.12.69,2.2H48.41L49,57Z"/><path class="cls-3" d="M60.79,11.38C55.48,3.57,47.29-.47,37.62,1.77,36,.49,30.26-.87,27.6.73a9.39,9.39,0,0,0-3,3.66,17,17,0,0,0-3.19,3.06A10.78,10.78,0,0,0,20,11.17a6.72,6.72,0,0,0-2.94,6.18S8.39,11.14,6.34,10.22s-2.62.41-1.85,3.15c-1.78,2.45-1.32,9,1.16,11a7.52,7.52,0,0,0-2.59,6c-.22.13-3.83,4.91-1.88,5.74,3.72,2.44,10.36,2.78,15.77.16,0,0-.77,5.12,5,4a7.75,7.75,0,0,0,6.49.79,5.21,5.21,0,0,0,6.49-1.56,59.26,59.26,0,0,0,11.66-3.07C51.37,35.2,63.87,27.87,62,18a2.11,2.11,0,0,0,.69-3.56A1.87,1.87,0,0,0,60.79,11.38Z"/><path class="cls-4" d="M49.57,15.2a2.79,2.79,0,0,1,0-5.57A2.79,2.79,0,0,1,49.57,15.2Zm0-5.14a2.36,2.36,0,0,0,0,4.72A2.36,2.36,0,0,0,49.57,10.06Z"/><path class="cls-4" d="M46.89,10.14c-1.49,1.44-1.23,4.53.83,5.33a.16.16,0,0,0,.14-.28,3.49,3.49,0,0,1-.87-5c0-.06,0-.14-.1-.09Z"/><path class="cls-4" d="M47.74,9.56A3.37,3.37,0,0,1,52,10.2a.18.18,0,0,0,.26-.24,3.52,3.52,0,0,0-4.57-.49A.05.05,0,1,0,47.74,9.56Z"/><path class="cls-4" d="M52.89,12.34a3.47,3.47,0,0,1-.71,2.12.1.1,0,0,0,.15.12,2.87,2.87,0,0,0,.72-2.27.08.08,0,0,0-.16,0Z"/><path class="cls-4" d="M57.15,13.91c.89-.81,2.06-1.2,3-1.91a.15.15,0,0,0-.12-.26,3.88,3.88,0,0,0-1.73.81A9,9,0,0,0,55,16.34c0,.1.08.16.13.08A10.2,10.2,0,0,1,57.15,13.91Z"/><path class="cls-4" d="M62.16,14.36a5.53,5.53,0,0,0-3,1c-.15.11,0,.35.17.27a13,13,0,0,1,2.83-1.11.1.1,0,0,0,0-.2Z"/><path class="cls-4" d="M61.53,18.3a.16.16,0,0,0-.06-.32,13.34,13.34,0,0,1-4.75.34C55.9,18.68,59.39,18.91,61.53,18.3Z"/><path class="cls-4" d="M51.46,31.27a13.66,13.66,0,0,1-7.58-1.44c-1.77-.9-3.59-3.12-4.77-4.73-4.3-5.79-2.83-13.19-1.35-19.71,0-.23-.29-.35-.37-.11C34.62,13.92,34.88,26,43.85,30.87a12.46,12.46,0,0,0,7.62.86C51.75,31.69,51.76,31.25,51.46,31.27Z"/><path class="cls-4" d="M41.65,29.36a9.87,9.87,0,0,1-3.17,4c-1.08.73-2.21,1.72-3.57,1.76-.5,0-1.27-.72-1.37-.74a4.73,4.73,0,0,1-3.6-1.91,1.5,1.5,0,0,1-.26-.74c-1.17-1.23-3.4-3.43-3.86-5.4-1-5.65,10.44-1.28,13-.35.12,0-.07-.39-.2-.47A18.15,18.15,0,0,0,34.38,24a26.31,26.31,0,0,0-7.06-.91,3.52,3.52,0,0,0-2,.6c-.55.47-.49,1.59-.47,2.29a5.52,5.52,0,0,0,1,2.35,15.37,15.37,0,0,0,3.32,3.54c.41,2.1,2.74,3.86,4.36,2.94,1.6,3.46,7.59-2.63,8.26-4.71A1.26,1.26,0,0,0,42,29.5C42,29.36,41.77,29.23,41.65,29.36Z"/><path class="cls-4" d="M35.76,2.82C28.44,5.5,22.56,11.41,18,17.55a.17.17,0,0,0,.27.19c3.78-4.6,7.9-9.07,13-12.25a32.8,32.8,0,0,1,4.65-2.37c.16-.07.08-.35-.1-.3Z"/><path class="cls-4" d="M36.7,2.57C35.38.69,32.41.63,30.34.83a6.92,6.92,0,0,0-5.71,4.84c-2.12,1.27-4.11,3.38-4.24,6a5.88,5.88,0,0,0-2.69,6,.17.17,0,0,0,.34,0,9,9,0,0,1,.49-3.38,7.81,7.81,0,0,1,2.11-2.43A8.5,8.5,0,0,1,22,8.44a13.09,13.09,0,0,1,3-2.61,7,7,0,0,1,3.2-3.74C30.38,1,34.3.47,35.72,2.91,35.83,3.05,36.79,2.73,36.7,2.57Z"/><path class="cls-4" d="M7.25,11.75c3.49,2.19,7.07,4.33,10,7.32.11.11.3-.08.2-.2-2.87-3-6.5-5.2-10.06-7.3-.11-.06-.19.11-.09.18Z"/><path class="cls-4" d="M5.64,22.86s0,.07.07.06-.09-.22-.07-.06Z"/><path class="cls-4" d="M5.75,23.08c0,.07.09.16.14.07s-.16-.24-.14-.07Z"/><path class="cls-4" d="M17.19,35.58c-2.76.94-4.12,1.62-7.66,1.68a16.74,16.74,0,0,1-4.46-.81c-.52-.17-2.35-.92-2.51-1.36a2.45,2.45,0,0,1,.08-1.44,4.56,4.56,0,0,1,1.47-2.12.25.25,0,0,0,.17-.26,7.19,7.19,0,0,1,.36-3.62,10,10,0,0,1,2.1-2.36s.35-.27.35-.39S7,24.7,7,24.63s-.82-1.82-.93-2a12,12,0,0,1-1.57-4.11,8.67,8.67,0,0,1,.12-2,6.24,6.24,0,0,1,1.11-2c.49-.63,0-2-.19-2.56-.61-1-.35-1,.69-.77.66-.25-1-.67-1.19-.53s-.22.07-.29.26c-.06.89.53,1.74.5,2.66,0,.39-.44.59-.48.66-2,3.28.27,7.34,1.76,10.42a6.64,6.64,0,0,0-3,6.43A7.8,7.8,0,0,0,2.1,33.73a3.67,3.67,0,0,0-.17,2c2.72,2.31,9.93,2.46,13.55.74a18.26,18.26,0,0,0,1.78-.7A.11.11,0,0,0,17.19,35.58Z"/><path class="cls-4" d="M35.65,3.16a17.06,17.06,0,0,0,1.71-.48.13.13,0,0,0,0-.18C37.17,2.24,34.9,2.91,35.65,3.16Z"/><path class="cls-4" d="M39.06,2.34c1.59-.24,3.2-.32,4.8-.46a.08.08,0,0,0,0-.15,27.83,27.83,0,0,0-4.82.4C38.9,2.15,38.92,2.36,39.06,2.34Z"/><path class="cls-4" d="M60.9,20.62a13.46,13.46,0,0,1-4.41,8.81c-.09.08,0,.23.13.16a13,13,0,0,0,4.6-8.94.16.16,0,0,0-.32,0Z"/><path class="cls-4" d="M55.7,30c-1.16.91-2.37,1.74-3.6,2.55-.1.07,0,.25.11.19a21.73,21.73,0,0,0,3.62-2.56c.1-.1,0-.27-.13-.18Z"/><path class="cls-4" d="M50,33.66c-4.06,2-8.46,3.05-12.68,4.6-.15.07-.08.32.08.28,4.28-1.39,8.74-2.53,12.72-4.67.12-.07,0-.27-.12-.21Z"/><path class="cls-4" d="M38.6,26.72c-.67,1.42-.33,3.91,1.68,3.75A2.26,2.26,0,0,0,41.44,30c.16-.12.41-.29.33-.52s-.47-.06-.63.06a1.48,1.48,0,0,1-2.07-.05c-.66-.79-.34-1.81-.22-2.71a.13.13,0,0,0-.25-.07Z"/><path class="cls-4" d="M33.13,27.32a16.41,16.41,0,0,0,4.48-.17c.09,0,.09-.16,0-.15a44.27,44.27,0,0,1-4.46.11A.11.11,0,0,0,33.13,27.32Z"/><path class="cls-4" d="M30.69,30.66a17.82,17.82,0,0,0,6.73-2.18c.14-.08,0-.29-.14-.23a29.65,29.65,0,0,1-6.61,2.19A.11.11,0,0,0,30.69,30.66Z"/><path class="cls-4" d="M34.84,33.53c.4-.1,4.43-3.41,3.29-3.29a35,35,0,0,1-3.39,3.17c-.07.06,0,.16.1.12Z"/><path class="cls-4" d="M35.68,31.16a7.49,7.49,0,0,0,1.83-1c.05-.05,0-.15-.09-.12-.62.29-1.2.67-1.83,1C35.5,31,35.58,31.21,35.68,31.16Z"/><path class="cls-4" d="M30.41,3.67a6.56,6.56,0,0,1,1.85.78c.07,0,.11-.06.08-.12a3,3,0,0,0-1.89-.83C30.34,3.49,30.3,3.65,30.41,3.67Z"/><path class="cls-4" d="M25.92,6.08A5.62,5.62,0,0,1,28,7.39c.06.08.23,0,.2-.07C27.82,6.51,26.79,6.2,26,5.89,25.88,5.85,25.79,6,25.92,6.08Z"/><path class="cls-4" d="M23.71,8.86a7.62,7.62,0,0,1,1.71.8.18.18,0,0,0,.19-.28C25.51,9.15,23.35,8.25,23.71,8.86Z"/><path class="cls-4" d="M21.17,12.2c.32.2.65.4,1,.62s.57-.12.15-.33c-.17-.09-1.38-.88-1.12-.29Z"/><path class="cls-4" d="M19.23,15h0a2.53,2.53,0,0,1,.36.25c.21.3.59.11.37-.14l.06.17c0-.32-.46-.44-.7-.57A.15.15,0,0,0,19.23,15Z"/><path class="cls-4" d="M20,37.23c-.16.21-.65,1.42,0,1,0,0,0,0,0-.06s-.05.08-.05.09c.13-.25.13-.57.29-.82s-.05-.46-.26-.24Z"/><path class="cls-4" d="M22.91,38c-.1.24-.38.8,0,.89s.2-.31.21-.48.17-.4,0-.5a.16.16,0,0,0-.2.09Z"/><path class="cls-4" d="M25.53,38.44c0,.26-.36,1.21.17.91a3.8,3.8,0,0,0,.17-.88.17.17,0,0,0-.34,0Z"/><path class="cls-4" d="M28.8,38.8c0,.26-.18.61,0,.83.4.1.27-.56.31-.81a.17.17,0,1,0-.34,0Z"/><path class="cls-4" d="M31.32,39c-.06.24-.26,1,.2.79.16-.15.07-.5.11-.72a.16.16,0,0,0-.31-.07Z"/><path class="cls-4" d="M7.47,14.84C10,16.74,12.9,18.37,14.78,21a.16.16,0,0,0,.26-.17c-1.77-2.78-4.77-4.44-7.5-6.14-.08-.05-.14.07-.07.12Z"/><path class="cls-4" d="M8.76,19.57a47.27,47.27,0,0,1,6,4c1.14-.06-2.26-2-2.59-2.25C11.08,20.63,10,20,8.84,19.4c-.11-.06-.19.11-.08.17Z"/><path class="cls-4" d="M8.5,25.5c2,.54,4.06,1,6.09,1.52.15,0,.21-.2.07-.25a51.28,51.28,0,0,0-6.13-1.39A.06.06,0,0,0,8.5,25.5Z"/><path class="cls-4" d="M7.78,28.92a17,17,0,0,0,6.35.09.12.12,0,0,0,0-.22,33.79,33.79,0,0,1-6.28-.08A.11.11,0,0,0,7.78,28.92Z"/><path class="cls-4" d="M6,31.45a21,21,0,0,0,9.34-.64c.2-.07.06-.35-.13-.29a23.32,23.32,0,0,1-9.17.76A.09.09,0,0,0,6,31.45Z"/><path class="cls-4" d="M7.7,35.16a22.32,22.32,0,0,0,9-.8.11.11,0,0,0,0-.22,36.47,36.47,0,0,1-9,.85C7.62,35,7.6,35.15,7.7,35.16Z"/><path class="cls-4" d="M34,11.43c-2.61-.07-2.79-2.23-2.22-4.28A.18.18,0,0,0,31.4,7C30.55,9.31,31,12,34,11.86c.27,0,.28-.43,0-.43Z"/><path class="cls-4" d="M33.83,11.38a4.47,4.47,0,0,0-1.49,4,3.81,3.81,0,0,0,3.49,2.29c.24,0,.18-.44-.06-.42a3.28,3.28,0,0,1-3-2.07,4.17,4.17,0,0,1,1.34-3.48c.2-.16-.09-.52-.29-.35Z"/><path class="cls-4" d="M35.62,17.32a4.88,4.88,0,0,0-1.22,3.91c.35,1.28,1.84,1.79,3,2.11a.24.24,0,0,0,.11-.46c-3.34-.7-3.27-2.85-1.58-5.32.13-.17-.15-.41-.3-.24Z"/><path class="cls-4" d="M37.24,23c-.38.55-.21,1.24-.28,1.83-.06.3.45.39.5.09a5,5,0,0,1,.19-1.72c.14-.25-.27-.43-.41-.2Z"/><path class="cls-4" d="M28.94,8.86a4.42,4.42,0,0,0-.73,3.81c.45,1.69,2.59,2.27,4.12,2.36a.21.21,0,0,0,.05-.39,17.46,17.46,0,0,1-2.5-.75c-1.85-.82-1.53-3.39-.65-4.83a.18.18,0,0,0-.29-.2Z"/><path class="cls-4" d="M32.1,14.66c-1.09,1.28-2.56,3.17-1.71,4.9a4.35,4.35,0,0,0,4.18,2.24.22.22,0,0,0,0-.42c-2.28.09-5.07-2-3.5-4.4a10.9,10.9,0,0,1,1.33-2.07c.14-.18-.14-.4-.29-.25Z"/><path class="cls-4" d="M34.41,21.38a3.92,3.92,0,0,0-1.58,2.36c-.08.29.38.4.46.1a4.17,4.17,0,0,1,1.36-2.15c.17-.14,0-.44-.24-.31Z"/><path class="cls-4" d="M30.54,19.24c-1.21-.8-3.07-1.07-3.59-2.59s.72-2.75,1.52-3.87c.09-.2-.13-.45-.33-.31-1.08,1.07-2.06,2.65-1.71,4.23.47,1.75,2.51,2.21,3.95,2.89a.19.19,0,0,0,.16-.35Z"/><path class="cls-4" d="M30,19c-.94,1.15-1.82,3-1,4.41.16.26.57,0,.41-.27-.68-1.31.29-2.77,1-3.89A.21.21,0,0,0,30,19Z"/><path class="cls-4" d="M26.52,16c-3.36,2.8-1.91,6.88,2.4,7.09a.23.23,0,0,0,0-.45c-4-.34-5-3.68-2.13-6.37a.19.19,0,0,0-.26-.27Z"/><path class="cls-4" d="M26.36,16.35c-1.71-.2-2-2-2.14-3.42,0-.22-.33-.17-.4,0A4.07,4.07,0,0,0,25,16.28c.39.2,1,.38,1.38.07Z"/><path class="cls-4" d="M25,20.66c-2.68.37-4.16-2.19-3.81-4.58,0-.25-.4-.3-.44,0-.57,2.57,1.42,5.71,4.29,5,.2-.05.18-.4,0-.38Z"/><path class="cls-4" d="M24.8,20.66c-1.46,2-2.28,4.56.5,5.85a.25.25,0,0,0,.23-.45C23,25,24,22.65,25.1,20.86c.12-.2-.17-.4-.3-.2Z"/><path class="cls-4" d="M23.5,24.62c-.57,1.61-1,3.51.28,4.9a5,5,0,0,0,4.55,1.4c.2-.08.2-.39,0-.39a5.2,5.2,0,0,1-4.15-1.32c-1.2-1.24-.7-3-.31-4.48a.17.17,0,0,0-.32-.11Z"/><path class="cls-4" d="M23.56,24.59c-3.63-1-4-2.42-2.19-5.59a.24.24,0,0,0-.38-.27,5.15,5.15,0,0,0-1.06,4.08c.5,1.41,2.2,1.87,3.52,2.17a.2.2,0,0,0,.11-.39Z"/><path class="cls-4" d="M20,22.71c-2.58,3.42,0,7.5,4.13,7,.27-.07.17-.44-.07-.45-3.82.27-5.95-3.17-3.71-6.36.16-.22-.19-.42-.35-.21Z"/><path class="cls-4" d="M28.35,30.77c-.71,1.58-.75,3.88,1.12,4.64,1.34.59,3.45.7,4.33-.66.07-.17-.15-.31-.3-.23-1.44,1.37-4.66,1-5.12-1.17a6.31,6.31,0,0,1,.29-2.47.17.17,0,0,0-.32-.11Z"/><path class="cls-4" d="M23.8,29.44c-2.68,3.2.37,7.19,4.2,5.68.25-.1.8-.24.7-.62a.22.22,0,0,0-.22-.15.21.21,0,0,0,0,.41l-.15-.2c-3.4,1.49-6.68-1.35-4.21-4.88.13-.16-.13-.38-.28-.24Z"/><path class="cls-4" d="M19.21,27.08c-1.9,3.43-.61,7.07,3.68,6.84.27,0,.28-.43,0-.42-4.2.07-4.85-3-3.37-6.31.07-.2-.22-.29-.31-.11Z"/><path class="cls-4" d="M23.13,33.43a3.46,3.46,0,0,0-1.52,3.17.19.19,0,0,0,.38,0,3.64,3.64,0,0,1,1.33-2.85c.15-.11,0-.38-.19-.28Z"/><path class="cls-4" d="M28.44,34.66c-.54.7-1,1.88-.49,2.68a.21.21,0,0,0,.33-.26,1.87,1.87,0,0,1,0-1.1,3.56,3.56,0,0,1,.47-1.12c.13-.2-.15-.37-.3-.2Z"/><path class="cls-4" d="M33.58,34.66c-.66,1-.39,2.84.84,3.3.14,0,.19-.15.13-.24a2.43,2.43,0,0,1-.67-2.86c.1-.2-.17-.4-.3-.2Z"/><path class="cls-4" d="M36.05,13.26C33.53,12.1,34,9,35.14,7c.08-.18-.19-.3-.3-.15-1.59,2-1.66,5.82,1.11,6.74a.15.15,0,0,0,.1-.28Z"/><path class="cls-4" d="M41.35,30.37c-.22,2.47,2.29,3.82,4.49,3.59a.22.22,0,0,0,0-.43c-2.09.1-4.1-.84-4.18-3.17,0-.16-.3-.16-.3,0Z"/><path class="cls-4" d="M42.4,32.91c-.77.78-2.31,1.25-3.24.52-.21-.2-.51.12-.31.34,1,1,3.07.48,3.82-.67.13-.18-.13-.34-.27-.19Z"/><path class="cls-4" d="M42.3,33a4.59,4.59,0,0,0-.5,2.46.46.46,0,0,0,.32.39c.12,0,.28-.09.21-.23l0,0a4.07,4.07,0,0,1,.27-2.49c.07-.19-.22-.34-.32-.15Z"/><path class="cls-4" d="M37.05,34.43a2.67,2.67,0,0,0,1.16,2.33c.23.16.73.39,1,.14a.17.17,0,0,0,0-.22,2.42,2.42,0,0,1-1.79-2.26c0-.17-.29-.16-.3,0Z"/><path class="cls-4" d="M46.44,31.16a5.09,5.09,0,0,0-.5,3.16c.06.15.27.08.3,0a7.36,7.36,0,0,1,.45-3c0-.14-.16-.29-.25-.14Z"/><path class="cls-5" d="M48.4,9.76a3.17,3.17,0,0,1,2.91.44c.71-.29-1.09-.94-1.38-.94a2.22,2.22,0,0,0-1.61.33C48.23,9.65,48.3,9.8,48.4,9.76Z"/><path class="cls-5" d="M50.35,14.12a3,3,0,0,1-1.77,0,.1.1,0,0,0-.09.17h0a2.15,2.15,0,0,0,3.25-2.36.06.06,0,0,0-.11,0,3.62,3.62,0,0,1-.2,1.09"/><path class="cls-5" d="M48.81,10.68c.28-.15.61,0,.89-.11.2-.41-.79-.22-1-.11A.12.12,0,0,0,48.81,10.68Z"/><path class="cls-5" d="M62,12.15a1.49,1.49,0,0,1,.37.43c.11.4.38.22.17-.09,0-.15-.67-.7-.54-.34Z"/><path class="cls-5" d="M62.47,13.38l-.09.06h0l-.11.05h0l-.11,0s-.23,0-.25.13c.08.39.63.09.77-.12s0-.22-.14-.16Z"/><path class="cls-5" d="M61.45,17.36c-.28.14-2.93.32-2.2.66,1.35-.14,3.48-.06,3.72-1.79,0-.15-.21-.19-.23,0h0"/><path class="cls-5" d="M60,11.31a25,25,0,0,0-7.27-7.22A13.07,13.07,0,0,0,50,2.76c-.07,0-.12.09,0,.12a23.78,23.78,0,0,1,7.67,5.79,3,3,0,0,1-.11,1.2.26.26,0,0,0,.21.33,1.28,1.28,0,0,1,.59.27,1.65,1.65,0,0,0,.89.79c0,.16,0,.38.25.34S60.07,11.6,60,11.31Z"/><path class="cls-5" d="M60.74,19.16h0a.2.2,0,0,0-.3-.12.3.3,0,0,0-.26,0,.12.12,0,0,0-.1,0c.13,0-.08,0-.1,0-.2.23-.45,1.23.14,1.07a.34.34,0,0,0,.14.32.36.36,0,0,0,0,.25A11.94,11.94,0,0,1,56,29.22c-.33.26-.63.55-1,.83-.06.05,0,.15.08.1A12.66,12.66,0,0,0,60.74,19.16Z"/><path class="cls-5" d="M45.58,35.31a24.75,24.75,0,0,0,7.66-3.72c.06-.06,0-.16-.1-.12a38.55,38.55,0,0,1-7.63,3.67C45.4,35.17,45.46,35.34,45.58,35.31Z"/><path class="cls-5" d="M47.81,30.52C42.15,29,37.58,21.91,37,17.41a27.37,27.37,0,0,1,.79-10.27c-.29-.77-1.13,3.24-1.24,4.73a29,29,0,0,0,.19,7.6C38,25,42,29.6,45.41,30.16a2.37,2.37,0,0,0,1.26.16q.51.21,1,.39C47.85,30.76,47.94,30.57,47.81,30.52Z"/><path class="cls-5" d="M31.72,24.24C30.84,24,29.89,24,29,23.9a2.2,2.2,0,0,0-1.27,0c-2.24.92-1.28,3.36,0,4.71A.15.15,0,0,0,28,28.5a6,6,0,0,0-.49-.9c-1-1.15-.92-2.86.7-3.32.35-.22,4.16.64,3.54,0Z"/><path class="cls-5" d="M35.47,26.59c.75.11,1.52,0,2.26.12.06,0,.06-.09,0-.09a9.36,9.36,0,0,0-2.24-.22C35.38,26.41,35.37,26.58,35.47,26.59Z"/><path class="cls-5" d="M31.94,29.47c1.44.19,2.76-.63,4.1-1,.12,0,.08-.24,0-.21-1.35.32-2.68.7-4.05,1A.13.13,0,0,0,31.94,29.47Z"/><path class="cls-5" d="M37.93,30a18,18,0,0,1-3,2.48.15.15,0,0,0,.14.23c.32.06,4-2.86,2.89-2.71Z"/><path class="cls-5" d="M31.92,33.37a2.79,2.79,0,0,0,1.73.68c.16.05.27.29.41.4,2.26,1.34,5.17-1.53,6.27-3.36.08-.13-.09-.28-.18-.15a8.78,8.78,0,0,1-3.54,3c-.75.31-1.76.7-2.43,0-.22-.33-.58-.31-.94-.3A2.88,2.88,0,0,1,32,33.24c-.08-.05-.15.06-.09.13Z"/><path class="cls-5" d="M30,1.91a4.72,4.72,0,0,1,4.57.53c.11.07.25,0,.17-.16a3,3,0,0,0-2.16-1,5.1,5.1,0,0,0-2.67.45C29.8,1.79,29.89,2,30,1.91Z"/><path class="cls-5" d="M28.86,2.09A5.24,5.24,0,0,0,26,4.4a.13.13,0,0,0,.2.16,6.5,6.5,0,0,1,2.75-2.29c.12,0,0-.2-.06-.18Z"/><path class="cls-5" d="M24.8,6.58a6.63,6.63,0,0,0-3.67,3.77c0,.17.23.23.29.07a7.4,7.4,0,0,1,3.46-3.61c.14-.07.06-.28-.08-.23Z"/><path class="cls-5" d="M20.27,12.4a1.66,1.66,0,0,0-.82.95.1.1,0,0,0,.17.09,3.36,3.36,0,0,1,.79-.85c.12-.09,0-.28-.14-.19Z"/><path class="cls-5" d="M21.62,11.83h0c.27.05.46.26.74.34.53-.2-.5-.62-.73-.6A.13.13,0,0,0,21.62,11.83Z"/><path class="cls-5" d="M24.11,8.63a6.92,6.92,0,0,1,1.37.66c.12,0,.17-.11.12-.2S23.75,8.15,24.11,8.63Z"/><path class="cls-5" d="M26.55,6a5.19,5.19,0,0,1,1.6,1,.14.14,0,0,0,.18-.19,2.74,2.74,0,0,0-1.77-1C26.42,5.77,26.42,6,26.55,6Z"/><path class="cls-5" d="M30.87,3.42a7.06,7.06,0,0,1,1.5.7.12.12,0,0,0,.13,0C32.81,3.8,30.3,2.83,30.87,3.42Z"/><path class="cls-5" d="M6.69,12.17a30.44,30.44,0,0,1,9.7,8c.1.12.32,0,.24-.14-2.25-3.7-6.08-6.16-9.85-8.1-.13-.07-.21.12-.09.19Z"/><path class="cls-5" d="M5.93,12.1c-.08.51.29,1,.31,1.48a1.76,1.76,0,0,0-.39.84c0,.21.3.29.39.11.13-.39.54-.72.38-1.16s-.35-.85-.51-1.28c0-.12-.17-.1-.18,0Z"/><path class="cls-5" d="M5.29,15.53c-1,2.37-.18,5,1.07,7.13a5.29,5.29,0,0,1,1.06,2.4c0,.14.24.12.23,0-.23-1.64-1.46-2.91-2-4.46a6.49,6.49,0,0,1-.16-4.95.13.13,0,0,0-.24-.1Z"/><path class="cls-5" d="M7,25.34c-1.77,1.34-3.05,3.59-2.44,5.85,0,.16.32.17.32,0A6.07,6.07,0,0,1,7.21,25.6.17.17,0,0,0,7,25.34Z"/><path class="cls-5" d="M3.37,33.47a1.65,1.65,0,0,0,1.34,2.62.09.09,0,0,0,0-.16c-1.26-.4-1.82-1.1-1.29-2.42,0,0-.06-.09-.09,0Z"/><path class="cls-5" d="M5.34,36.24c3.17,1.4,6.9.86,10.09-.2.14-.06.08-.29-.07-.26-3.25.82-6.68,1.4-9.92.23A.13.13,0,0,0,5.34,36.24Z"/><path class="cls-5" d="M8.24,34.81a18.56,18.56,0,0,0,7.34-.5c.15-.05.07-.27-.07-.26a33.12,33.12,0,0,1-7.23.55C8.14,34.59,8.1,34.79,8.24,34.81Z"/><path class="cls-5" d="M7.35,31.23a20.48,20.48,0,0,0,6.33-.55c.16-.05.07-.28-.08-.27A52.24,52.24,0,0,1,7.39,31,.1.1,0,0,0,7.35,31.23Z"/><path class="cls-5" d="M8.48,28.62c.47.05,5.91.39,5-.35-1.68,0-3.36.17-5,.11C8.35,28.38,8.35,28.6,8.48,28.62Z"/><path class="cls-5" d="M8.29,25a44.89,44.89,0,0,1,6.54,1.11c.1,0,.11-.15,0-.19a13.78,13.78,0,0,0-3.2-.81,21,21,0,0,0-3.36-.3C8.19,24.78,8.18,25,8.29,25Z"/><path class="cls-5" d="M10.3,19.49a14.53,14.53,0,0,1,4.62,3.36.12.12,0,0,0,.2-.11,4.91,4.91,0,0,0-2-2C12.86,20.52,9.85,18.67,10.3,19.49Z"/><path class="cls-5" d="M9.52,15.75a47.78,47.78,0,0,1,4.58,3.7c.07.08.23,0,.18-.1-1.09-1.67-3.11-2.53-4.67-3.72-.07,0-.15.07-.09.12Z"/><path class="cls-5" d="M18.52,38.61a2.94,2.94,0,0,0,2.57.84.12.12,0,0,0,0-.24,4.1,4.1,0,0,1-2.41-.75c-.09-.08-.24,0-.16.15Z"/><path class="cls-5" d="M23.56,40a5.39,5.39,0,0,0,4.25.6.14.14,0,0,0,0-.28,6.48,6.48,0,0,1-4.11-.52A.11.11,0,0,0,23.56,40Z"/><path class="cls-5" d="M29.32,40.66a3.31,3.31,0,0,0,3.19-.37.17.17,0,0,0-.18-.28,4,4,0,0,1-2.95.44C29.26,40.42,29.2,40.61,29.32,40.66Z"/><path class="cls-5" d="M31.7,39.2c0,.21-.18.46,0,.65.33.22.39-.37.42-.59s-.33-.27-.38-.06Z"/><path class="cls-5" d="M25.93,38.72c-.1.21-.58,1.6,0,1.24a3.94,3.94,0,0,0,.26-1.27.17.17,0,0,0-.29,0Z"/><path class="cls-5" d="M23.27,38.35c0,.33-.24.78,0,1,.43.13.24-.73.3-1s-.23-.22-.28-.07Z"/><path class="cls-5" d="M21.26,38c-.05.25-.31.74,0,.87.28-.1.15-.53.28-.76a.15.15,0,0,0-.28-.11Z"/><path class="cls-5" d="M34.78,12.23a.84.84,0,0,0,.45.36c.28,0,.32-.23.18-.38a3.5,3.5,0,0,1-.75-2.65c0-.18-.27-.15-.3,0A3.35,3.35,0,0,0,34.78,12.23Z"/><path class="cls-5" d="M31.74,10.34a.26.26,0,0,0,.15.14c.06.11.18.15.27.22a.23.23,0,0,0,.25.12s.12-.06.14-.1h0a.28.28,0,0,0-.12-.39.54.54,0,0,0-.37-.48A4.84,4.84,0,0,1,31.89,9C31.38,8.37,31.53,10.06,31.74,10.34Zm.05-.23Z"/><path class="cls-5" d="M34,16.6c.25.23.88.29.63-.17-.06-.32-.44-.47-.67-.67h0a.22.22,0,0,0-.29,0,2,2,0,0,1-.49-1.37c0-.21-.32-.28-.37-.07a2.06,2.06,0,0,0,1.11,2.22A.2.2,0,0,0,34,16.6Z"/><path class="cls-5" d="M30.18,13.85a.28.28,0,0,0,.13,0c.26.18.6-.1.35-.35-.05-.37-.55-.36-.82-.53a.24.24,0,0,0-.28.06,1.76,1.76,0,0,1-.64-1.23c0-.13-.22-.14-.23,0A2,2,0,0,0,30.18,13.85Z"/><path class="cls-5" d="M28.52,17.8c.06-.13,0-.23-.14-.29a.18.18,0,0,0-.09-.28.28.28,0,0,0-.29-.1h-.09a1.34,1.34,0,0,1-.2-.21c-.11-.07-.17-.54-.43-.48a.2.2,0,0,0-.14.24,1.5,1.5,0,0,0,.85,1C28.13,17.8,28.39,18,28.52,17.8Z"/><path class="cls-5" d="M32.82,20.21c-.3-.23-.68-.36-1-.57a.13.13,0,0,0-.18.05,4,4,0,0,1-.53-.7c-.07-.12-.26,0-.21.12a3.2,3.2,0,0,0,1.6,1.7.21.21,0,0,0,.27-.31C32.83,20.41,32.89,20.32,32.82,20.21Z"/><path class="cls-5" d="M35.39,21.54c-.17-.16-.2-.59-.34-.59s0,.71.17.83S35.53,21.66,35.39,21.54Z"/><path class="cls-5" d="M33.93,22.89c-.22-.09-.37.48-.21.58S34.15,23,33.93,22.89Z"/><path class="cls-5" d="M29.65,22c0-.19.14-.45,0-.61.12-.2,0-.48-.22-.29a2.21,2.21,0,0,0-.3.77c-.12.4.29,1.2.52.62A2.74,2.74,0,0,1,29.65,22Z"/><path class="cls-5" d="M26.73,21.12l-.4-.34a.34.34,0,0,0-.45-.29,2.82,2.82,0,0,1-.41-.92c-.48-.41-.13,1,.07,1.17a1.9,1.9,0,0,0,1.35,1.11C27.47,21.82,27,21.26,26.73,21.12Z"/><path class="cls-5" d="M25.35,15.75c.55-.14-.21-.55-.26-1-.21-.3-.1-1.1-.47-1.16a.23.23,0,0,0-.22.22C24.5,14.47,24.61,15.6,25.35,15.75Z"/><path class="cls-5" d="M23.52,19.72c-.55-.62-1.37-1.07-1.71-1.84a.17.17,0,0,0-.32.12c.23.9.8,2,1.81,2.16A.26.26,0,0,0,23.52,19.72Z"/><path class="cls-5" d="M21.78,23a3.19,3.19,0,0,1-.91-.92.21.21,0,0,0-.26-.14.16.16,0,0,0-.11.21,3.69,3.69,0,0,0,.5,1C21.4,23.84,22.75,23.77,21.78,23Z"/><path class="cls-5" d="M18.44,21.18l0,0h0a.2.2,0,0,0,.32-.24,2.12,2.12,0,0,1-.24-1.16.2.2,0,0,0-.17-.2C17.84,19.7,18.2,20.89,18.44,21.18Z"/><path class="cls-5" d="M17.84,25.28a8.58,8.58,0,0,1-.63-1.05.2.2,0,0,0-.37.14c0,.6.27,1.42.89,1.65C18.18,26,18.05,25.51,17.84,25.28Z"/><path class="cls-5" d="M20.42,26.86a4.78,4.78,0,0,0-.55-.63.17.17,0,0,0-.33.05c.15.57.4,1.53,1.11,1.59C21.18,27.71,20.6,27.11,20.42,26.86Z"/><path class="cls-5" d="M17.38,29.25a7.58,7.58,0,0,0-.67-1,.17.17,0,0,0-.24,0,.19.19,0,0,0-.06.23C16.45,28.75,17.43,30.16,17.38,29.25Z"/><path class="cls-5" d="M20.14,31.75a2.05,2.05,0,0,1-.8-1.55.21.21,0,0,0-.2-.21c-.27,0-.26.29-.25.49a1.85,1.85,0,0,0,.54,1.45C19.85,32.72,21.19,32.68,20.14,31.75Z"/><path class="cls-5" d="M19.05,34.24a2.17,2.17,0,0,1-.21-.67.21.21,0,0,0-.41,0,1.25,1.25,0,0,0,0,.38c-.11.46.41.91.73,1.19h0a.2.2,0,0,0,.31,0C19.67,34.81,19.12,34.56,19.05,34.24Z"/><path class="cls-5" d="M24.59,37.19a4.23,4.23,0,0,1-1.63-.7.11.11,0,0,0-.21.06c-.12.18.11.3.24.4a2.41,2.41,0,0,0,1.27.64.15.15,0,0,0,.19-.08C24.7,37.6,24.87,37.28,24.59,37.19Z"/><path class="cls-5" d="M31.52,37.74A9,9,0,0,1,30,37.5a.16.16,0,0,0-.21,0,1.73,1.73,0,0,1-.94-.94c0-.14-.27-.07-.25.07.21,1.17,1.67,1.69,2.7,1.62C31.55,38.32,31.88,37.89,31.52,37.74Z"/><path class="cls-5" d="M25.76,34.06a4.06,4.06,0,0,0-1.54-.8,2.35,2.35,0,0,1-.47-.85c-.51-.42-.2.81.24,1.2.19.37,2.08,1.52,2.09.72A.39.39,0,0,0,25.76,34.06Z"/><path class="cls-5" d="M24.13,29c.17.29,1.45,1.12,1.17.29-.37-.25-.74-.94-1.17-1a2.06,2.06,0,0,1-.21-.48c0-.14-.26-.07-.24.07A1.8,1.8,0,0,0,24.13,29Z"/><path class="cls-5" d="M24.23,25c.1.21.43,0,.32-.17s-.07-.59-.23-.82c0-.07,0-.15,0-.22h0a.15.15,0,0,0-.23-.09C23.73,24,24.05,24.59,24.23,25Z"/><path class="cls-5" d="M29.66,34.8a.21.21,0,0,0,.32-.18c-.13-.47-1-.89-1.21-1.55-.28-.31-.52.19-.24.39A2,2,0,0,0,29.66,34.8Zm-.1-.16Z"/><path class="cls-5" d="M36.71,37.44c-.6.37-1.5-.21-2.05-.51a.19.19,0,0,0-.24.3,1.37,1.37,0,0,0,.25.23A1.58,1.58,0,0,0,36.4,38a.71.71,0,0,0,.63-.31A.2.2,0,0,0,36.71,37.44Z"/><path class="cls-5" d="M40.25,36.05c-.77.05-1.28-.38-1.88-.47a.18.18,0,1,0-.3.21,2.22,2.22,0,0,0,2.19.71h0C40.54,36.5,40.53,36.05,40.25,36.05Z"/><path class="cls-5" d="M40.91,33a1.67,1.67,0,0,1-.61.23.14.14,0,0,0-.13.15c.08.3.54.09.75,0S41.26,32.93,40.91,33Z"/><path class="cls-5" d="M43.73,33.05a.23.23,0,0,0,.27-.14c.08-.42-.63-.43-.86-.7s-.43-.42-.69-.54C41.52,31.79,43.34,33.09,43.73,33.05Z"/><path class="cls-5" d="M39,29.31c.14.27.93.74.82.12-.13-.16-.38-.18-.5-.37a.78.78,0,0,1-.13-.24,1,1,0,0,1-.06-.23.18.18,0,0,0-.35,0A1,1,0,0,0,39,29.31Zm.21-.45Z"/><path class="cls-5" d="M44,35.4c-.56.09-1-.38-1.24-.78-.15-.24-.54,0-.38.23h0c.17.56.69,1.16,1.33,1,.19,0,.53,0,.52-.23A.22.22,0,0,0,44,35.4Z"/><path class="cls-5" d="M47.36,33.76a1.2,1.2,0,0,1-.53-.29s0,0,0,0h0a.18.18,0,0,0-.23-.23.2.2,0,0,0-.33.13,1.85,1.85,0,0,0,.37.65,1,1,0,0,0,.68.21A.24.24,0,0,0,47.36,33.76Z"/><path class="cls-4" d="M22.2,37.62l-.09-.08a1.74,1.74,0,0,1-.11-.15c-.12-.14,0-.38-.22-.48-.38.11,0,.82.31.88a.1.1,0,0,0,.11-.17Z"/><path class="cls-4" d="M29.47,38.46a6.8,6.8,0,0,1-1-.42.09.09,0,0,0-.14.09c.14.42.66.54,1,.7a.2.2,0,0,0,.25-.13.21.21,0,0,0-.13-.24Z"/><path class="cls-4" d="M36.12,38.46c-.38,0-.75-.21-1.12-.19-.49.39.85.57,1.11.55a.18.18,0,0,0,0-.36Z"/><path class="cls-4" d="M19.48,26.83c-3.35-.23-3.43-3.91-1.59-5.95a.16.16,0,0,0-.11-.29.18.18,0,0,0-.28-.12,3.54,3.54,0,0,0-1.29,2.23,5.22,5.22,0,0,0,.1,2.88.21.21,0,0,0,.32.09,3,3,0,0,0,2.83,1.48C19.6,27.11,19.65,26.88,19.48,26.83Z"/><path class="cls-4" d="M18.53,30.82a3.46,3.46,0,0,1-1.8-5.17.15.15,0,0,0-.24-.19.13.13,0,0,0-.19,0,4,4,0,0,0-.65,1.66c-.5,1.86.94,3.52,2.52,4.28a.23.23,0,0,0,.32-.19A.22.22,0,0,0,18.53,30.82Z"/><path class="cls-4" d="M19.45,35.52c-1.62-.77-1.47-2.88-.73-4.23a.17.17,0,0,0-.3-.15.14.14,0,0,0-.23,0,3.4,3.4,0,0,0,.22,4.26.49.49,0,0,1-.26.15.19.19,0,0,0,0,.38c.37,0,1,.26,1.25-.07C19.55,35.78,19.59,35.59,19.45,35.52Z"/><path class="cls-4" d="M36.13,38.59c-4.76.53-9.66-.19-14.35-1.06a21.87,21.87,0,0,1-2.85-.89c-.51-.24-1.21-.27-1.42-.87a.14.14,0,0,0-.2-.07c-.53-.35.2,2.47.45,2.61A3.17,3.17,0,0,0,22,39.6a6.89,6.89,0,0,0,6.51,1.25c2.1.94,5.16.47,6.21-1.8C35,39,36.78,38.91,36.13,38.59ZM33.26,40a4,4,0,0,1-3.07,1c-.55,0-1.69-.43-1.79-.41a9.67,9.67,0,0,1-3,.24c-1.17-.13-2.78-1.33-3.26-1.43-2,.33-4.34,0-4.39-2.53.4-.09.8.14,1.2.16,4.77,1.68,9.94,2,15,2.12A2.88,2.88,0,0,1,33.26,40Z"/><path class="cls-4" d="M20.06,22.56a3.58,3.58,0,0,1-2.25-2.77c-.14-.37.13-1.28-.25-1.4a.2.2,0,0,0-.23.15,4.33,4.33,0,0,0,1.06,3.4,2.84,2.84,0,0,0,1.64.93C20.23,22.89,20.25,22.59,20.06,22.56Z"/></svg>