<svg id="Layer_1" data-name="Layer 1" xmlns="http://www.w3.org/2000/svg" viewBox="0 0 48 48"><defs><style>.cls-1{fill:#fcbf60;}.cls-2{fill:#c75e28;}.cls-3{fill:#ffe745;}.cls-4{fill:#fff;}.cls-5{fill:#e06460;}</style></defs><path class="cls-1" d="M46,11.77C42,5.8,35.69,2.71,28.3,4.42c-1.27-1-5.63-2-7.66-.79a7.11,7.11,0,0,0-2.28,2.79,13.19,13.19,0,0,0-2.43,2.35,8.34,8.34,0,0,0-1.09,2.84,5.14,5.14,0,0,0-2.24,4.72S6,11.58,4.38,10.88s-2,.32-1.41,2.41c-1.36,1.88-1,6.87.89,8.43a5.76,5.76,0,0,0-2,4.6C1.71,26.42-1,30.07.44,30.7c2.85,1.87,7.92,2.13,12.06.13,0,0-.59,3.91,3.81,3.09a5.9,5.9,0,0,0,5,.6,4,4,0,0,0,5-1.19A45.12,45.12,0,0,0,35.14,31c3.67-1,13.22-6.62,11.78-14.2a1.61,1.61,0,0,0,.52-2.72A1.42,1.42,0,0,0,46,11.77Z"/><path class="cls-2" d="M37.43,14.69a2.13,2.13,0,0,1,0-4.26A2.13,2.13,0,0,1,37.43,14.69Zm0-3.93a1.81,1.81,0,0,0,0,3.61A1.81,1.81,0,0,0,37.43,10.76Z"/><path class="cls-2" d="M35.38,10.82c-1.13,1.1-.93,3.47.63,4.08a.13.13,0,0,0,.12-.22,2.66,2.66,0,0,1-.67-3.79.06.06,0,0,0-.08-.07Z"/><path class="cls-2" d="M36,10.38a2.56,2.56,0,0,1,3.25.49c.13.13.33,0,.21-.18a2.7,2.7,0,0,0-3.5-.38A0,0,0,0,0,36,10.38Z"/><path class="cls-2" d="M40,12.5a2.62,2.62,0,0,1-.53,1.62.07.07,0,1,0,.11.1,2.22,2.22,0,0,0,.55-1.74.07.07,0,0,0-.13,0Z"/><path class="cls-2" d="M43.23,13.7c.67-.62,1.57-.91,2.28-1.46a.12.12,0,0,0-.09-.2,2.94,2.94,0,0,0-1.32.63,6.81,6.81,0,0,0-2.5,2.89.06.06,0,0,0,.11.06A7.63,7.63,0,0,1,43.23,13.7Z"/><path class="cls-2" d="M47.05,14.05a4.29,4.29,0,0,0-2.28.79.13.13,0,0,0,.13.21,9.88,9.88,0,0,1,2.17-.85c.06,0,.07-.15,0-.15Z"/><path class="cls-2" d="M46.57,17.06c.15,0,.11-.28,0-.24a10.38,10.38,0,0,1-3.64.26C42.27,17.35,44.94,17.53,46.57,17.06Z"/><path class="cls-2" d="M38.88,27a10.52,10.52,0,0,1-5.8-1.11,12.52,12.52,0,0,1-3.64-3.61c-3.29-4.43-2.17-10.09-1-15.07a.15.15,0,0,0-.28-.09C26,13.71,26.2,23,33.06,26.67a9.47,9.47,0,0,0,5.82.65C39.1,27.29,39.1,27,38.88,27Z"/><path class="cls-2" d="M31.38,25.51a7.54,7.54,0,0,1-2.43,3,5.59,5.59,0,0,1-2.73,1.35c-.37,0-1-.55-1-.57a3.62,3.62,0,0,1-2.76-1.46,1.14,1.14,0,0,1-.19-.56c-.9-.94-2.6-2.62-3-4.13-.78-4.32,8-1,9.91-.27.08,0-.06-.3-.16-.35a14,14,0,0,0-3.2-1.19,20.51,20.51,0,0,0-5.4-.69,2.63,2.63,0,0,0-1.54.46c-.42.36-.38,1.21-.36,1.75a4.16,4.16,0,0,0,.77,1.8,11.83,11.83,0,0,0,2.54,2.7c.32,1.61,2.1,3,3.33,2.25,1.23,2.64,5.8-2,6.32-3.6a1.13,1.13,0,0,0,.13-.43C31.6,25.51,31.47,25.41,31.38,25.51Z"/><path class="cls-2" d="M26.87,5.23c-5.59,2.05-10.09,6.57-13.6,11.26a.13.13,0,0,0,.21.14A42.45,42.45,0,0,1,23.4,7.26,24.64,24.64,0,0,1,27,5.46c.12-.06.06-.27-.08-.23Z"/><path class="cls-2" d="M27.59,5c-1-1.43-3.27-1.48-4.86-1.32a5.3,5.3,0,0,0-4.37,3.7A6.07,6.07,0,0,0,15.12,12a4.5,4.5,0,0,0-2,4.62c0,.14.25.12.26,0A7.11,7.11,0,0,1,13.7,14a6,6,0,0,1,1.62-1.85,6.56,6.56,0,0,1,1-2.61,10.33,10.33,0,0,1,2.33-2,5.32,5.32,0,0,1,2.44-2.86c1.64-.86,4.64-1.24,5.73.63C26.92,5.4,27.66,5.15,27.59,5Z"/><path class="cls-2" d="M5.08,12.05a39.16,39.16,0,0,1,7.61,5.59c.08.09.23-.06.15-.15a34.09,34.09,0,0,0-7.69-5.57c-.09-.05-.15.08-.07.13Z"/><path class="cls-2" d="M3.85,20.55s0,.05,0,0-.07-.17,0,0Z"/><path class="cls-2" d="M3.94,20.71c0,.05.07.13.1.05s-.12-.17-.1-.05Z"/><path class="cls-2" d="M12.68,30.27a15.42,15.42,0,0,1-5.86,1.28,12.48,12.48,0,0,1-3.41-.62c-.4-.13-1.79-.7-1.91-1a1.88,1.88,0,0,1,.06-1.1,3.52,3.52,0,0,1,1.12-1.62.19.19,0,0,0,.13-.2,5.5,5.5,0,0,1,.28-2.76,7.4,7.4,0,0,1,1.6-1.81s.27-.2.27-.29-.08-.16-.09-.21-.63-1.39-.71-1.51A9.18,9.18,0,0,1,3,17.25a7,7,0,0,1,.1-1.51,4.79,4.79,0,0,1,.84-1.51c.38-.48,0-1.52-.13-2-.48-.8-.28-.78.52-.6.5-.18-.76-.51-.91-.4s-.17.05-.22.2c0,.68.4,1.33.38,2,0,.3-.34.45-.37.5-1.52,2.51.21,5.62,1.35,8A5.07,5.07,0,0,0,2.24,26.9a6,6,0,0,0-1.1,2A2.73,2.73,0,0,0,1,30.39c2.08,1.77,7.59,1.88,10.36.56a13.2,13.2,0,0,0,1.36-.53A.08.08,0,0,0,12.68,30.27Z"/><path class="cls-2" d="M26.79,5.49c.42-.17.92-.17,1.31-.37a.09.09,0,0,0,0-.13C28,4.78,26.22,5.29,26.79,5.49Z"/><path class="cls-2" d="M29.39,4.86c1.22-.18,2.45-.24,3.68-.35a.06.06,0,1,0,0-.11,20.69,20.69,0,0,0-3.68.3C29.28,4.72,29.29,4.88,29.39,4.86Z"/><path class="cls-2" d="M46.09,18.84a10.31,10.31,0,0,1-3.37,6.73c-.07.06,0,.17.1.12a9.88,9.88,0,0,0,3.51-6.83.12.12,0,1,0-.24,0Z"/><path class="cls-2" d="M42.11,26c-.88.7-1.81,1.33-2.75,1.95-.07.05,0,.2.09.15a16.64,16.64,0,0,0,2.76-2c.08-.07,0-.21-.1-.14Z"/><path class="cls-2" d="M37.74,28.8c-3.11,1.51-6.47,2.33-9.7,3.52a.11.11,0,0,0,.07.21c3.27-1.06,6.67-1.93,9.72-3.57.09-.05,0-.2-.09-.16Z"/><path class="cls-2" d="M29.05,23.49c-.51,1.09-.26,3,1.28,2.87a1.73,1.73,0,0,0,.89-.35c.12-.09.31-.22.25-.4s-.36,0-.48.05a1.13,1.13,0,0,1-1.58,0c-.51-.6-.26-1.38-.18-2.07a.1.1,0,0,0-.18-.06Z"/><path class="cls-2" d="M24.86,24a12.72,12.72,0,0,0,3.43-.14c.07,0,.06-.12,0-.11-1.14.1-2.27.09-3.41.08C24.77,23.79,24.77,24,24.86,24Z"/><path class="cls-2" d="M23,26.5a13.56,13.56,0,0,0,5.14-1.66c.11-.06,0-.22-.11-.18A22.36,22.36,0,0,1,23,26.34.08.08,0,0,0,23,26.5Z"/><path class="cls-2" d="M26.17,28.7c.3-.07,3.39-2.6,2.51-2.51a28.09,28.09,0,0,1-2.58,2.42c-.06.05,0,.12.07.09Z"/><path class="cls-2" d="M26.82,26.89a5.48,5.48,0,0,0,1.39-.79s0-.12-.06-.09c-.48.22-.93.51-1.4.75C26.67,26.8,26.74,26.92,26.82,26.89Z"/><path class="cls-2" d="M22.79,5.88a5,5,0,0,1,1.41.6.06.06,0,0,0,.06-.1,2.24,2.24,0,0,0-1.45-.63A.07.07,0,0,0,22.79,5.88Z"/><path class="cls-2" d="M19.35,7.72a4.3,4.3,0,0,1,1.59,1c0,.06.18,0,.16-.05-.3-.62-1.08-.86-1.68-1.1A.08.08,0,0,0,19.35,7.72Z"/><path class="cls-2" d="M17.66,9.84a5.82,5.82,0,0,1,1.31.62.14.14,0,0,0,.14-.22C19,10.06,17.39,9.37,17.66,9.84Z"/><path class="cls-2" d="M15.72,12.39c.25.16.5.31.74.48s.44-.09.12-.25c-.13-.07-1.06-.67-.86-.23Z"/><path class="cls-2" d="M14.24,14.54h0a3.16,3.16,0,0,1,.27.18c.16.23.45.09.28-.1l0,.13c0-.25-.35-.34-.53-.44A.12.12,0,0,0,14.24,14.54Z"/><path class="cls-2" d="M14.85,31.53c-.13.16-.51,1.09,0,.79l0,0c0-.07,0,.06,0,.07.1-.19.1-.43.22-.62s0-.36-.19-.19Z"/><path class="cls-2" d="M17.06,32.11c-.09.18-.3.61,0,.68s.15-.23.16-.37.13-.31,0-.38a.11.11,0,0,0-.14.07Z"/><path class="cls-2" d="M19.05,32.46c0,.2-.27.92.14.69a3.14,3.14,0,0,0,.13-.68.14.14,0,0,0-.27,0Z"/><path class="cls-2" d="M21.55,32.73c0,.2-.13.47,0,.63s.2-.43.24-.62a.14.14,0,0,0-.27,0Z"/><path class="cls-2" d="M23.48,32.87c-.05.18-.2.74.15.6.13-.12.06-.38.09-.55a.12.12,0,0,0-.24-.05Z"/><path class="cls-2" d="M5.25,14.42c2,1.44,4.15,2.69,5.59,4.72.09.1.26,0,.2-.12-1.35-2.13-3.65-3.4-5.74-4.7-.06,0-.11.06,0,.1Z"/><path class="cls-2" d="M6.23,18a36.49,36.49,0,0,1,4.59,3c.87-.05-1.73-1.55-2-1.72-.84-.51-1.69-1-2.55-1.45a.07.07,0,0,0-.07.13Z"/><path class="cls-2" d="M6,22.56c1.55.41,3.11.78,4.66,1.17.11,0,.16-.16.06-.2a41.83,41.83,0,0,0-4.69-1.06C6,22.46,6,22.55,6,22.56Z"/><path class="cls-2" d="M5.49,25.18a13,13,0,0,0,4.85.07c.08,0,.07-.17,0-.17A25.66,25.66,0,0,1,5.52,25,.09.09,0,0,0,5.49,25.18Z"/><path class="cls-2" d="M4.15,27.11a16,16,0,0,0,7.14-.49c.15-.05,0-.27-.1-.22a17.87,17.87,0,0,1-7,.58A.07.07,0,0,0,4.15,27.11Z"/><path class="cls-2" d="M5.43,30a17.05,17.05,0,0,0,6.89-.62.09.09,0,0,0,0-.17,27.62,27.62,0,0,1-6.84.66C5.36,29.81,5.35,29.94,5.43,30Z"/><path class="cls-2" d="M25.5,11.81c-2-.06-2.13-1.71-1.69-3.27a.14.14,0,0,0-.27-.09c-.65,1.74-.29,3.81,2,3.68a.16.16,0,0,0,0-.32Z"/><path class="cls-2" d="M25.4,11.77a3.4,3.4,0,0,0-1.14,3.08,2.9,2.9,0,0,0,2.67,1.75c.18,0,.14-.33-.05-.32A2.51,2.51,0,0,1,24.6,14.7a3.15,3.15,0,0,1,1-2.66c.16-.13-.07-.4-.22-.27Z"/><path class="cls-2" d="M26.77,16.31a3.77,3.77,0,0,0-.94,3c.27,1,1.41,1.37,2.29,1.61a.18.18,0,0,0,.09-.35C25.65,20,25.7,18.38,27,16.5c.1-.14-.12-.32-.23-.19Z"/><path class="cls-2" d="M28,20.64c-.29.42-.17.95-.22,1.4a.19.19,0,0,0,.38.07c.07-.43-.06-.9.15-1.31.11-.2-.21-.34-.31-.16Z"/><path class="cls-2" d="M21.66,9.84a3.41,3.41,0,0,0-.56,2.92c.34,1.29,2,1.73,3.16,1.8.13,0,.15-.24,0-.3a13.06,13.06,0,0,1-1.91-.57c-1.41-.63-1.17-2.59-.49-3.7a.14.14,0,0,0-.23-.15Z"/><path class="cls-2" d="M24.07,14.28c-.83,1-1.95,2.42-1.3,3.75A3.33,3.33,0,0,0,26,19.73a.17.17,0,0,0,0-.32c-1.75.07-3.88-1.53-2.68-3.36a8.71,8.71,0,0,1,1-1.58c.11-.14-.11-.31-.23-.19Z"/><path class="cls-2" d="M25.85,19.41a3,3,0,0,0-1.22,1.8.18.18,0,0,0,.35.09,3.21,3.21,0,0,1,1-1.65c.13-.11,0-.33-.17-.24Z"/><path class="cls-2" d="M22.89,17.78c-.93-.62-2.36-.82-2.75-2s.55-2.11,1.16-3c.07-.15-.1-.35-.25-.23a3.71,3.71,0,0,0-1.31,3.23c.36,1.33,1.92,1.69,3,2.21a.15.15,0,0,0,.13-.27Z"/><path class="cls-2" d="M22.44,17.55c-.72.89-1.39,2.28-.8,3.37.13.21.44,0,.32-.2-.52-1,.22-2.12.73-3a.16.16,0,0,0-.25-.2Z"/><path class="cls-2" d="M19.81,15.26c-2.57,2.15-1.46,5.26,1.83,5.42a.17.17,0,0,0,0-.34c-3-.26-3.82-2.81-1.62-4.87a.15.15,0,0,0-.2-.21Z"/><path class="cls-2" d="M19.69,15.57c-1.31-.15-1.56-1.52-1.63-2.61,0-.17-.26-.14-.31,0a3.08,3.08,0,0,0,.88,2.56c.3.16.8.3,1.06.06Z"/><path class="cls-2" d="M18.68,18.86c-2.05.29-3.18-1.67-2.91-3.5a.17.17,0,0,0-.34,0c-.43,2,1.09,4.37,3.28,3.83.15,0,.14-.3,0-.29Z"/><path class="cls-2" d="M18.5,18.86c-1.12,1.54-1.75,3.49.38,4.47.22.12.39-.22.17-.34-1.94-.83-1.19-2.6-.32-4a.14.14,0,0,0-.23-.15Z"/><path class="cls-2" d="M17.5,21.89c-.43,1.23-.76,2.68.22,3.75a3.84,3.84,0,0,0,3.47,1.07c.15-.06.16-.31,0-.31a3.94,3.94,0,0,1-3.18-1c-.91-.95-.53-2.31-.23-3.43a.13.13,0,0,0-.25-.08Z"/><path class="cls-2" d="M17.55,21.86c-2.78-.73-3.05-1.85-1.67-4.27a.18.18,0,0,0-.3-.2,4,4,0,0,0-.81,3.12c.38,1.07,1.69,1.43,2.7,1.66a.16.16,0,0,0,.08-.31Z"/><path class="cls-2" d="M14.8,20.43c-2,2.61,0,5.74,3.16,5.37.2-.06.12-.34-.06-.35-2.92.21-4.55-2.42-2.83-4.86.11-.17-.15-.32-.27-.16Z"/><path class="cls-2" d="M21.21,26.59c-.54,1.21-.57,3,.86,3.55,1,.45,2.63.53,3.31-.51.05-.13-.12-.23-.23-.18-1.11,1.05-3.57.79-3.92-.88a5.11,5.11,0,0,1,.22-1.9.13.13,0,0,0-.24-.08Z"/><path class="cls-2" d="M17.73,25.58c-2.05,2.44.29,5.49,3.21,4.34.19-.08.62-.19.54-.47a.16.16,0,0,0-.17-.12.16.16,0,0,0,0,.31l-.11-.15c-2.6,1.14-5.11-1-3.23-3.73.11-.13-.1-.29-.21-.18Z"/><path class="cls-2" d="M14.22,23.77c-1.45,2.62-.46,5.4,2.82,5.23.2,0,.21-.33,0-.33-3.21.06-3.71-2.25-2.58-4.81a.13.13,0,0,0-.24-.09Z"/><path class="cls-2" d="M17.22,28.62a2.68,2.68,0,0,0-1.17,2.43c0,.17.29.13.3,0a2.79,2.79,0,0,1,1-2.18.13.13,0,0,0-.14-.22Z"/><path class="cls-2" d="M21.28,29.57a1.9,1.9,0,0,0-.38,2.05.17.17,0,0,0,.22,0,.17.17,0,0,0,0-.22,1.41,1.41,0,0,1,0-.84,2.66,2.66,0,0,1,.36-.85c.1-.15-.12-.28-.23-.15Z"/><path class="cls-2" d="M25.21,29.56a1.77,1.77,0,0,0,.64,2.52c.11,0,.15-.11.1-.18a1.84,1.84,0,0,1-.51-2.18c.08-.16-.14-.31-.23-.16Z"/><path class="cls-2" d="M27.1,13.21c-1.93-.89-1.58-3.29-.7-4.83.06-.14-.14-.22-.23-.11C25,9.77,24.9,12.72,27,13.42a.11.11,0,0,0,.08-.21Z"/><path class="cls-2" d="M31.15,26.28C31,28.17,32.9,29.21,34.58,29a.17.17,0,0,0,0-.33c-1.6.08-3.13-.64-3.2-2.42,0-.13-.22-.13-.22,0Z"/><path class="cls-2" d="M32,28.23a2,2,0,0,1-2.48.4c-.16-.16-.39.09-.24.25a2.08,2.08,0,0,0,2.93-.51c.09-.14-.1-.26-.21-.14Z"/><path class="cls-2" d="M31.88,28.29a3.47,3.47,0,0,0-.39,1.89c0,.12.11.27.24.29s.22-.07.17-.17v0a3.09,3.09,0,0,1,.21-1.91c.05-.14-.17-.26-.24-.12Z"/><path class="cls-2" d="M27.86,29.39a2,2,0,0,0,.89,1.78c.17.12.56.3.74.11a.13.13,0,0,0,0-.17,1.85,1.85,0,0,1-1.37-1.73c0-.13-.22-.12-.23,0Z"/><path class="cls-2" d="M35,26.89a3.81,3.81,0,0,0-.38,2.41c0,.12.2.07.22,0A5.82,5.82,0,0,1,35.23,27c0-.11-.12-.22-.19-.11Z"/><path class="cls-3" d="M36.54,10.53a2.4,2.4,0,0,1,2.22.34c.54-.23-.84-.72-1.06-.72a1.72,1.72,0,0,0-1.23.25C36.41,10.45,36.46,10.56,36.54,10.53Z"/><path class="cls-3" d="M38,13.86a2.3,2.3,0,0,1-1.35,0,.07.07,0,0,0-.06.13h0a1.64,1.64,0,0,0,2.48-1.8,0,0,0,0,0-.09,0,2.34,2.34,0,0,1-.15.83"/><path class="cls-3" d="M36.85,11.24c.21-.12.46,0,.68-.09.15-.31-.6-.17-.75-.08A.09.09,0,0,0,36.85,11.24Z"/><path class="cls-3" d="M47,12.36a1,1,0,0,1,.28.32c.09.31.3.18.14-.06s-.52-.54-.42-.26Z"/><path class="cls-3" d="M47.29,13.3l-.07,0h0s-.1,0-.09,0H47s-.18,0-.19.1c.06.3.48.07.59-.09a.08.08,0,0,0-.11-.12Z"/><path class="cls-3" d="M46.51,16.34c-.21.11-2.24.25-1.68.51,1-.11,2.66-.05,2.84-1.37a.09.09,0,0,0-.18,0h0"/><path class="cls-3" d="M45.37,11.71a19.49,19.49,0,0,0-5.56-5.52,10.31,10.31,0,0,0-2-1c-.06,0-.09.07,0,.1A18,18,0,0,1,43.61,9.7a2.2,2.2,0,0,1-.08.92.19.19,0,0,0,.16.24,1,1,0,0,1,.45.21c.13.22.4.56.68.61,0,.12,0,.28.19.26S45.45,11.94,45.37,11.71Z"/><path class="cls-3" d="M46,17.71h0a.15.15,0,0,0-.23-.08.23.23,0,0,0-.2,0,.11.11,0,0,0-.08,0c.1,0-.06,0-.07,0-.15.18-.34.94.1.82a.28.28,0,0,0,.11.24.28.28,0,0,0,0,.2,9.13,9.13,0,0,1-3.27,6.5c-.26.2-.49.43-.73.64,0,0,0,.11.06.08A9.68,9.68,0,0,0,46,17.71Z"/><path class="cls-3" d="M34.38,30.06a18.79,18.79,0,0,0,5.85-2.84c.05,0,0-.12-.07-.09a30.06,30.06,0,0,1-5.83,2.8A.07.07,0,1,0,34.38,30.06Z"/><path class="cls-3" d="M36.08,26.4c-4.32-1.2-7.82-6.58-8.29-10a21,21,0,0,1,.6-7.85c-.21-.59-.86,2.48-.95,3.61A22.24,22.24,0,0,0,27.6,18c1,4.24,4,7.75,6.65,8.17a1.87,1.87,0,0,0,1,.13c.27.11.53.21.8.3C36.11,26.58,36.18,26.44,36.08,26.4Z"/><path class="cls-3" d="M23.79,21.6c-.68-.16-1.4-.15-2.09-.26a1.77,1.77,0,0,0-1,0c-1.71.71-1,2.57,0,3.61a.12.12,0,0,0,.21-.1,4.64,4.64,0,0,0-.38-.69c-.74-.88-.7-2.19.54-2.54.27-.17,3.18.49,2.71,0Z"/><path class="cls-3" d="M26.66,23.39c.57.09,1.15,0,1.72.1a0,0,0,1,0,0-.07,7.07,7.07,0,0,0-1.72-.17C26.59,23.26,26.58,23.39,26.66,23.39Z"/><path class="cls-3" d="M24,25.59c1.09.15,2.11-.48,3.13-.77.09,0,.06-.19,0-.17-1,.25-2.05.55-3.09.75A.1.1,0,0,0,24,25.59Z"/><path class="cls-3" d="M28.53,26a13.58,13.58,0,0,1-2.31,1.9c-.06.06,0,.2.1.17.25.05,3-2.19,2.21-2.07Z"/><path class="cls-3" d="M23.94,28.57a2.07,2.07,0,0,0,1.32.53c.13,0,.21.22.31.31,1.73,1,3.95-1.18,4.8-2.58.06-.09-.07-.2-.14-.11A6.75,6.75,0,0,1,27.52,29c-.57.23-1.34.53-1.86,0-.16-.25-.44-.23-.71-.23a2.23,2.23,0,0,1-.94-.35.06.06,0,0,0-.07.09Z"/><path class="cls-3" d="M22.46,4.53a3.61,3.61,0,0,1,3.5.41c.08,0,.19,0,.13-.12a2.31,2.31,0,0,0-1.66-.76,3.78,3.78,0,0,0-2,.34C22.32,4.44,22.38,4.56,22.46,4.53Z"/><path class="cls-3" d="M21.6,4.67a4,4,0,0,0-2.21,1.77.09.09,0,0,0,.15.11,5,5,0,0,1,2.11-1.74c.08,0,0-.16,0-.14Z"/><path class="cls-3" d="M18.49,8.1A5.11,5.11,0,0,0,15.69,11c0,.13.18.18.23.06a5.64,5.64,0,0,1,2.64-2.77.09.09,0,0,0-.07-.17Z"/><path class="cls-3" d="M15,12.55a1.18,1.18,0,0,0-.62.73.07.07,0,0,0,.13.06,2.47,2.47,0,0,1,.6-.65.09.09,0,0,0-.11-.14Z"/><path class="cls-3" d="M16.06,12.11h0c.21,0,.35.2.56.25.41-.15-.38-.47-.55-.46A.1.1,0,0,0,16.06,12.11Z"/><path class="cls-3" d="M18,9.66a6.78,6.78,0,0,1,1.05.51c.08,0,.12-.09.09-.15S17.7,9.3,18,9.66Z"/><path class="cls-3" d="M19.84,7.66a4,4,0,0,1,1.22.74.11.11,0,0,0,.14-.14,2.15,2.15,0,0,0-1.36-.79C19.74,7.48,19.73,7.65,19.84,7.66Z"/><path class="cls-3" d="M23.13,5.68a6.37,6.37,0,0,1,1.15.54s.08,0,.1,0C24.62,6,22.7,5.24,23.13,5.68Z"/><path class="cls-3" d="M4.65,12.37a23.38,23.38,0,0,1,7.42,6.16c.07.09.24,0,.18-.11-1.72-2.83-4.65-4.71-7.53-6.2a.08.08,0,0,0-.07.15Z"/><path class="cls-3" d="M4.08,12.32c-.07.39.22.76.23,1.13a1.39,1.39,0,0,0-.3.65c0,.16.23.22.3.08.1-.3.41-.56.29-.89s-.27-.65-.39-1a.07.07,0,1,0-.13,0Z"/><path class="cls-3" d="M3.58,14.94c-.79,1.81-.14,3.84.82,5.45a4.06,4.06,0,0,1,.81,1.84c0,.11.19.09.18,0C5.21,21,4.27,20,3.89,18.8A5.05,5.05,0,0,1,3.76,15a.1.1,0,0,0-.18-.08Z"/><path class="cls-3" d="M4.88,22.44A4.37,4.37,0,0,0,3,26.91c0,.12.24.14.24,0a4.65,4.65,0,0,1,1.79-4.26c.12-.12,0-.31-.17-.2Z"/><path class="cls-3" d="M2.12,28.66a1.25,1.25,0,0,0,1,2,.06.06,0,0,0,0-.11c-1-.31-1.39-.85-1-1.86,0,0,0-.06-.07,0Z"/><path class="cls-3" d="M3.62,30.77c2.43,1.07,5.28.66,7.72-.15a.11.11,0,0,0-.06-.2c-2.48.63-5.1,1.07-7.58.18C3.59,30.56,3.51,30.72,3.62,30.77Z"/><path class="cls-3" d="M5.84,29.68a14,14,0,0,0,5.61-.39c.12,0,.05-.2-.06-.19a25.54,25.54,0,0,1-5.52.42A.08.08,0,1,0,5.84,29.68Z"/><path class="cls-3" d="M5.16,26.94A15.74,15.74,0,0,0,10,26.53c.13,0,.06-.22-.06-.21a40,40,0,0,1-4.74.47A.08.08,0,0,0,5.16,26.94Z"/><path class="cls-3" d="M6,24.94c.36,0,4.52.3,3.86-.26-1.28,0-2.57.13-3.86.08C5.92,24.76,5.92,24.93,6,24.94Z"/><path class="cls-3" d="M5.88,22.17a33.89,33.89,0,0,1,5,.84c.08,0,.08-.11,0-.14a10.13,10.13,0,0,0-2.45-.62A14.71,14.71,0,0,0,5.88,22C5.8,22,5.79,22.16,5.88,22.17Z"/><path class="cls-3" d="M7.41,18a10.85,10.85,0,0,1,3.53,2.57.09.09,0,0,0,.16-.09,3.69,3.69,0,0,0-1.54-1.54C9.37,18.76,7.07,17.34,7.41,18Z"/><path class="cls-3" d="M6.82,15.11a35.34,35.34,0,0,1,3.49,2.83c.06.06.19,0,.14-.07-.83-1.29-2.37-2-3.57-2.85,0,0-.11.05-.06.09Z"/><path class="cls-3" d="M13.7,32.58a2.22,2.22,0,0,0,2,.64c.11,0,.11-.15,0-.18a3.16,3.16,0,0,1-1.84-.57c-.07-.06-.18,0-.12.11Z"/><path class="cls-3" d="M17.55,33.65a4.06,4.06,0,0,0,3.24.45.11.11,0,0,0,0-.21,5,5,0,0,1-3.14-.39A.08.08,0,0,0,17.55,33.65Z"/><path class="cls-3" d="M22,34.15a2.53,2.53,0,0,0,2.44-.28.13.13,0,0,0-.14-.21A3.1,3.1,0,0,1,22,34C21.9,34,21.86,34.12,22,34.15Z"/><path class="cls-3" d="M23.77,33c0,.16-.13.35,0,.5.25.17.3-.28.32-.45s-.25-.21-.29,0Z"/><path class="cls-3" d="M19.36,32.67c-.07.16-.44,1.22,0,.94a2.85,2.85,0,0,0,.2-1,.13.13,0,0,0-.22,0Z"/><path class="cls-3" d="M17.32,32.39c0,.25-.18.59,0,.8.33.09.18-.56.23-.75a.11.11,0,0,0-.22,0Z"/><path class="cls-3" d="M15.79,32.1c0,.19-.24.56,0,.66.22-.07.11-.41.22-.58a.12.12,0,0,0-.22-.08Z"/><path class="cls-3" d="M26.12,12.42c.09.11.2.25.35.27s.24-.17.14-.28a2.68,2.68,0,0,1-.58-2c0-.14-.21-.11-.23,0A2.62,2.62,0,0,0,26.12,12.42Z"/><path class="cls-3" d="M23.8,11a.16.16,0,0,0,.12.11.65.65,0,0,0,.2.17.18.18,0,0,0,.2.09s.09-.05.1-.08h0a.22.22,0,0,0-.1-.3A.41.41,0,0,0,24,10.6a3.55,3.55,0,0,1-.12-.65C23.53,9.47,23.64,10.76,23.8,11Zm0-.17Z"/><path class="cls-3" d="M25.53,15.76c.19.18.67.22.48-.13s-.34-.36-.51-.51h0a.17.17,0,0,0-.22,0,1.48,1.48,0,0,1-.38-1,.14.14,0,0,0-.28-.05,1.57,1.57,0,0,0,.85,1.7Z"/><path class="cls-3" d="M22.61,13.65a.12.12,0,0,0,.1,0c.2.14.45-.08.26-.27,0-.28-.42-.27-.62-.4a.2.2,0,0,0-.22,0,1.29,1.29,0,0,1-.48-.94c0-.1-.18-.11-.18,0A1.52,1.52,0,0,0,22.61,13.65Z"/><path class="cls-3" d="M21.34,16.67c.05-.09,0-.17-.11-.21a.13.13,0,0,0-.07-.22.19.19,0,0,0-.22-.07h-.07L20.72,16c-.08-.06-.13-.42-.33-.37a.16.16,0,0,0-.11.18,1.15,1.15,0,0,0,.66.78C21,16.68,21.24,16.86,21.34,16.67Z"/><path class="cls-3" d="M24.63,18.52c-.23-.17-.52-.28-.77-.44a.1.1,0,0,0-.13,0,2.6,2.6,0,0,1-.41-.53c-.05-.09-.2,0-.16.09A2.44,2.44,0,0,0,24.39,19a.16.16,0,0,0,.2-.24C24.63,18.67,24.68,18.61,24.63,18.52Z"/><path class="cls-3" d="M26.59,19.53c-.13-.12-.15-.44-.26-.44s0,.54.13.63S26.7,19.63,26.59,19.53Z"/><path class="cls-3" d="M25.48,20.57c-.17-.07-.29.37-.17.44S25.64,20.62,25.48,20.57Z"/><path class="cls-3" d="M22.2,19.91c0-.16.11-.35,0-.47.09-.15,0-.37-.17-.22a2,2,0,0,0-.23.58c-.09.31.22.92.4.48A2.23,2.23,0,0,1,22.2,19.91Z"/><path class="cls-3" d="M20,19.21,19.66,19a.25.25,0,0,0-.34-.23A2,2,0,0,1,19,18c-.37-.32-.1.79,0,.89a1.43,1.43,0,0,0,1,.85C20.54,19.75,20.17,19.32,20,19.21Z"/><path class="cls-3" d="M18.91,15.11c.43-.11-.15-.42-.2-.73s-.07-.85-.35-.89a.18.18,0,0,0-.17.17C18.27,14.13,18.35,15,18.91,15.11Z"/><path class="cls-3" d="M17.52,18.15c-.42-.48-1.05-.82-1.31-1.41a.14.14,0,0,0-.25.09c.18.69.62,1.52,1.39,1.65A.19.19,0,0,0,17.52,18.15Z"/><path class="cls-3" d="M16.19,20.64a2.63,2.63,0,0,1-.7-.71.14.14,0,0,0-.19-.1.13.13,0,0,0-.09.16,2.65,2.65,0,0,0,.38.75C15.9,21.3,16.93,21.24,16.19,20.64Z"/><path class="cls-3" d="M13.63,19.26l0,0h0a.15.15,0,0,0,.24-.18,1.8,1.8,0,0,1-.18-.89.15.15,0,0,0-.13-.15C13.18,18.13,13.45,19,13.63,19.26Z"/><path class="cls-3" d="M13.18,22.4a8.3,8.3,0,0,1-.49-.81.15.15,0,0,0-.28.11c0,.46.21,1.09.68,1.26C13.44,23,13.34,22.57,13.18,22.4Z"/><path class="cls-3" d="M15.15,23.6a3.9,3.9,0,0,0-.42-.48c0-.14-.25-.09-.26,0,.12.44.31,1.17.85,1.22C15.73,24.25,15.28,23.8,15.15,23.6Z"/><path class="cls-3" d="M12.83,25.43a6.5,6.5,0,0,0-.52-.77.14.14,0,0,0-.18,0,.15.15,0,0,0-.05.18C12.11,25.05,12.86,26.12,12.83,25.43Z"/><path class="cls-3" d="M14.93,27.34a1.57,1.57,0,0,1-.61-1.19.15.15,0,0,0-.15-.15c-.21,0-.2.22-.19.37a1.42,1.42,0,0,0,.41,1.11C14.71,28.08,15.74,28.05,14.93,27.34Z"/><path class="cls-3" d="M14.1,29.24a1.67,1.67,0,0,1-.16-.51.16.16,0,1,0-.31,0,.88.88,0,0,0,0,.28c-.08.35.31.7.56.92h0a.16.16,0,0,0,.24,0C14.57,29.68,14.16,29.49,14.1,29.24Z"/><path class="cls-3" d="M18.34,31.5A3,3,0,0,1,17.09,31a.09.09,0,0,0-.16.05c-.09.14.09.23.18.31a1.86,1.86,0,0,0,1,.48.12.12,0,0,0,.15-.06C18.42,31.81,18.55,31.57,18.34,31.5Z"/><path class="cls-3" d="M23.63,31.92a6.86,6.86,0,0,1-1.19-.19.14.14,0,0,0-.16,0,1.27,1.27,0,0,1-.71-.71.1.1,0,0,0-.2.05c.16.89,1.28,1.29,2.07,1.24C23.65,32.36,23.91,32,23.63,31.92Z"/><path class="cls-3" d="M19.23,29.1a3.24,3.24,0,0,0-1.18-.61,1.67,1.67,0,0,1-.35-.64c-.39-.33-.16.61.17.91.15.28,1.6,1.16,1.6.55A.3.3,0,0,0,19.23,29.1Z"/><path class="cls-3" d="M18,25.24c.12.23,1.1.86.89.23-.28-.2-.57-.72-.9-.74a1.61,1.61,0,0,1-.15-.36.1.1,0,0,0-.19.05A1.32,1.32,0,0,0,18,25.24Z"/><path class="cls-3" d="M18.06,22.15c.08.16.33,0,.25-.13s-.06-.45-.18-.62,0-.12,0-.18h0a.1.1,0,0,0-.17-.06C17.68,21.41,17.93,21.87,18.06,22.15Z"/><path class="cls-3" d="M22.21,29.67a.16.16,0,0,0,.24-.14c-.09-.35-.73-.67-.92-1.18-.21-.24-.4.14-.18.3A1.52,1.52,0,0,0,22.21,29.67Zm-.07-.12Z"/><path class="cls-3" d="M27.6,31.69c-.46.28-1.14-.16-1.57-.39a.15.15,0,0,0-.18.23,1.62,1.62,0,0,0,.19.18,1.2,1.2,0,0,0,1.32.4.54.54,0,0,0,.49-.23C28,31.73,27.72,31.55,27.6,31.69Z"/><path class="cls-3" d="M30.31,30.63c-.59,0-1-.29-1.44-.36a.14.14,0,1,0-.23.16,1.71,1.71,0,0,0,1.67.54h0C30.53,31,30.52,30.62,30.31,30.63Z"/><path class="cls-3" d="M30.81,28.3a1.12,1.12,0,0,1-.47.18c-.05,0-.09.06-.09.11.06.23.41.08.57,0S31.08,28.24,30.81,28.3Z"/><path class="cls-3" d="M33,28.33a.16.16,0,0,0,.2-.11c.07-.31-.48-.33-.66-.53s-.33-.32-.53-.41C31.28,27.37,32.67,28.37,33,28.33Z"/><path class="cls-3" d="M29.36,25.47c.11.21.71.57.63.1-.1-.13-.29-.14-.38-.29a.77.77,0,0,1-.1-.18,1.21,1.21,0,0,1-.05-.18.13.13,0,0,0-.26,0A.78.78,0,0,0,29.36,25.47Zm.16-.34Z"/><path class="cls-3" d="M33.19,30.13c-.42.07-.72-.29-.94-.59s-.41,0-.29.17h0c.13.43.52.88,1,.76.15,0,.41,0,.4-.17A.17.17,0,0,0,33.19,30.13Z"/><path class="cls-3" d="M35.74,28.88a1.09,1.09,0,0,1-.41-.22s0,0,0,0h0a.14.14,0,0,0-.18-.18.15.15,0,0,0-.25.1,1.35,1.35,0,0,0,.28.49.78.78,0,0,0,.53.17A.18.18,0,0,0,35.74,28.88Z"/><path class="cls-2" d="M16.51,31.83l-.07-.07a.73.73,0,0,1-.09-.11c-.09-.1,0-.29-.16-.36-.3.08,0,.62.23.67s.16-.08.09-.13Z"/><path class="cls-2" d="M22.06,32.47a5.57,5.57,0,0,1-.76-.32.06.06,0,0,0-.1.07c.1.32.5.41.78.53a.14.14,0,0,0,.18-.09.15.15,0,0,0-.1-.19Z"/><path class="cls-2" d="M27.15,32.47c-.29,0-.57-.16-.86-.14-.37.29.65.43.85.41a.14.14,0,1,0,0-.27Z"/><path class="cls-2" d="M14.43,23.58c-2.56-.18-2.62-3-1.21-4.55a.13.13,0,0,0-.09-.22.13.13,0,0,0-.21-.09,2.7,2.7,0,0,0-1,1.71A3.89,3.89,0,0,0,12,22.62a.16.16,0,0,0,.24.08,2.23,2.23,0,0,0,2.16,1.12C14.52,23.79,14.56,23.62,14.43,23.58Z"/><path class="cls-2" d="M13.7,26.63a2.64,2.64,0,0,1-1.37-3.95.12.12,0,0,0-.19-.15.09.09,0,0,0-.14,0,3.11,3.11,0,0,0-.5,1.27c-.38,1.42.72,2.69,1.93,3.27a.18.18,0,0,0,.25-.14A.17.17,0,0,0,13.7,26.63Z"/><path class="cls-2" d="M14.41,30.22c-1.24-.58-1.13-2.2-.56-3.23.06-.13-.16-.24-.23-.12a.11.11,0,0,0-.18,0,2.6,2.6,0,0,0,.17,3.26.41.41,0,0,1-.19.12c-.17,0-.13.26,0,.29s.77.19,1-.06C14.48,30.42,14.52,30.27,14.41,30.22Z"/><path class="cls-2" d="M27.16,32.57a37.84,37.84,0,0,1-11-.81A18.34,18.34,0,0,1,14,31.08c-.39-.19-.92-.21-1.08-.67a.11.11,0,0,0-.16-.05c-.41-.27.15,1.89.35,2a2.42,2.42,0,0,0,3.23,1,5.24,5.24,0,0,0,5,.95c1.6.72,3.94.37,4.74-1.37C26.26,32.9,27.66,32.81,27.16,32.57ZM25,33.63a3.11,3.11,0,0,1-2.34.74c-.42,0-1.3-.33-1.37-.32a7.25,7.25,0,0,1-2.32.19,13.31,13.31,0,0,1-2.49-1.1c-1.54.26-3.32,0-3.36-1.93.31-.07.61.1.92.12A37.16,37.16,0,0,0,25.44,33,2.06,2.06,0,0,1,25,33.63Z"/><path class="cls-2" d="M14.87,20.31a2.74,2.74,0,0,1-1.72-2.11c-.11-.28.1-1-.18-1.08-.08,0-.17,0-.18.12a3.28,3.28,0,0,0,.81,2.6,2.17,2.17,0,0,0,1.25.71C15,20.57,15,20.34,14.87,20.31Z"/><path class="cls-4" d="M48,32.62a1.9,1.9,0,0,0-2.19-2.17c-1,.13-3.47-.18-4.09.77a2.81,2.81,0,0,0-1.46-.34,2.66,2.66,0,0,0-2,.6c-.71-.94-1.65-.77-2.44-.83-2.63,0-2,2.63-2,4.3l-1-2.94a2.16,2.16,0,0,0-2.19-1.68,3.86,3.86,0,0,0-2.67.79A3.23,3.23,0,0,0,26,30.39c-1.31.07-1.62,1-2,1.5-.87-1.74-1.93-1.83-3.9-1a2.17,2.17,0,0,0-1.55-.41l-2.51.11a1.83,1.83,0,0,0-2,2.12,1.94,1.94,0,0,0,.81,1.79l-.08,1.86-.17.1L13.11,32a2.15,2.15,0,0,0-2.18-1.68c-1.19,0-2.39.23-2.89,1a2.2,2.2,0,0,0-1.62-.67l-4.11-.24A1.91,1.91,0,0,0,0,32.58c-.14,1.49.21,2.83,1.9,2.85l-.09,3.21a2.18,2.18,0,0,0,.51,1.63c.88.95,3.36.5,3.8-.63.48,1,2,.92,2.94.69l.06.06a2.51,2.51,0,0,0-.89,3.92c-2.75,3,3,4.43,5,3A2.46,2.46,0,0,0,16.34,47a1.78,1.78,0,0,0,1.78.75,2.45,2.45,0,0,0,1.19-.27,1.86,1.86,0,0,0,2.49-.22,1.73,1.73,0,0,0,2.31,0,2.59,2.59,0,0,0,.55-.45,2.88,2.88,0,0,0,4.36.3c.53,1,2.11.83,2.91.27a1.73,1.73,0,0,0,2,.08A2.59,2.59,0,0,0,36.82,47a1.78,1.78,0,0,0,1.79.75,1.87,1.87,0,0,0,1.62-.68,1.66,1.66,0,0,0,.09-1.55l-1.44-4.14.82-.89a2.91,2.91,0,0,0,1.76-.8,2.09,2.09,0,0,0,1.53.7c.32,0,2.16.24,2.43.23,1.3,0,1.94-.94,1.95-2.29a1.93,1.93,0,0,0-.62-1.66l.15-2.12A1.92,1.92,0,0,0,48,32.62Z"/><path class="cls-5" d="M5.16,38.43c.08.9-.32,1.09-1.16,1.15s-1-.09-1-.89l.12-4.51c-1.67.1-2.06.39-1.94-1.56,0-.81.21-1,1-.95l4.12.24c.77.05,1,.24.92,1s-.2,1-1,1L5,34.05Z"/><path class="cls-5" d="M14,38.35c.39,1-.22,1-1,1-1,.06-1.07-.14-1.27-.94l-.22-.88-2,.08c-.23.94,0,1.66-1.32,1.66-.79.08-1.35,0-1-.91l1.55-5.7c.22-.8.45-1,1.87-1.11.83-.06,1.08.09,1.35.87ZM11.18,36.2l-.75-2.39L9.85,36.2Z"/><path class="cls-5" d="M18.93,38.56c-.05.79-.25,1-1,.88l-2-.2c-.78-.05-.92-.36-.83-1.1s.22-.83.91-.79l.15-3.76c-.7,0-.85-.24-.84-.9s.14-.89.84-.92l2.51-.1c.77,0,1,.15.94.94s-.21,1-1,1l-.28,3.93C19,37.51,19,38,18.93,38.56Z"/><path class="cls-5" d="M24.94,38.47c.08,1.09-.58,1.1-1.47,1.13s-1-.11-1-.92l0-2.66L20.2,33.13c-.48-.62-.39-.87.35-1.13.9-.28,1.79-.89,2.31.27L24,34.35l1.17-2.09c.39-.69.65-.8,1.42-.5s.8.53.38,1.17l-2.08,3.16Z"/><path class="cls-5" d="M33.7,38.35c.39,1-.22,1-1,1-1,.06-1.06-.14-1.26-.94l-.23-.88-2,.08c-.22.94,0,1.66-1.32,1.66-.78.08-1.34,0-1-.91l1.55-5.7c.22-.8.45-1,1.87-1.11.83-.06,1.08.09,1.35.87ZM30.84,36.2l-.75-2.39-.58,2.39Z"/><path class="cls-5" d="M40.71,37.53c.7.61.4,1-.27,1.46s-.95.46-1.52-.13L37.06,37l-.19,1.86c-.08.66-.27.79-.93.65s-.83-.33-.85-1l-.17-5.58c-.1-1.11.59-1,1.46-1s1,.22.92,1l-.19,2,1.48-2.06a1.66,1.66,0,0,1,1.9-.76c.74,0,.84.28.39.86L38.8,35.65Z"/><path class="cls-5" d="M46.15,38.56c0,.79-.25,1-1,.88l-2-.2c-.78-.05-.93-.36-.84-1.1s.23-.83.92-.79l.15-3.76c-.7,0-.85-.24-.84-.9s.14-.89.84-.92l2.51-.1c.77,0,1,.15.94.94s-.21,1-1,1l-.28,3.93C46.24,37.51,46.22,38,46.15,38.56Z"/><path class="cls-5" d="M13.48,44.34C13.26,43,11.42,43.11,10.73,43c-.14-.05-.25-.11-.24-.25.09-.63,1.15-.37,1.59-.34s.52-.4.46-.82-.85-.41-1.27-.44c-1.21,0-2.48.34-2.48,1.65a1.12,1.12,0,0,0,.84,1.1,19.32,19.32,0,0,1,1.92.53.35.35,0,0,1,.17.3c0,.76-1.26.72-1.88.42s-.68-.16-1,.29c-.76,1,1.39,1.34,2.09,1.33C12.42,46.76,13.81,45.86,13.48,44.34Z"/><path class="cls-5" d="M18.76,45.9l-1.44-4.13c-.16-.45-.35-.68-.94-.61-1,.07-1.16.22-1.31.78l-1.08,4c-.24.7.27.68.73.64.92,0,.77-.51.92-1.16L17,45.34c.16.45.13,1.29.68,1.27S19.13,46.76,18.76,45.9Zm-2-1.49h-.93l.4-1.67Z"/><path class="cls-5" d="M22.32,44c0-.05,1.61-2.06,1.58-2,.23-.41-.2-.42-.6-.44a1,1,0,0,0-1.13.54l-1,1.44.14-1.4v0c.11-.7-.43-.67-1-.69s-.7.13-.68.7L19.73,46c0,.5.18.62.6.71s.59,0,.64-.45l.13-1.3,1.3,1.34c.42.45.68.39,1.07.08s.67-.59.18-1Z"/><path class="cls-5" d="M29.15,42.23c0-.18,0-.31,0-.44,0-.42-.19-.6-.67-.53s-.62.17-.58.68c.13.88.1,2.83-.59,3-.93.35-1-1.75-.93-2.87.05-.47,0-.72-.62-.76s-1-.07-1,.6C24,48.11,29.59,48.85,29.15,42.23Z"/><path class="cls-5" d="M33.81,45.48l-.88-1.18a1.68,1.68,0,0,0,.88-2c-.35-1-2.15-1.17-3.32-1-.54.07-.7.24-.68.79l.1,4c0,.69.38.69.86.57s.69-.24.62-.8l-.09-.78a3.58,3.58,0,0,0,.59-.25l.57,1.33c.18.4.32.54.64.44a2.66,2.66,0,0,0,.51-.25C34.11,46.11,34.15,45.92,33.81,45.48Zm-2.66-1.63L31,42.56c.39-.1,1.09-.3,1.39.11C32.67,43.3,32,43.71,31.15,43.85Z"/><path class="cls-5" d="M39.24,45.9,37.8,41.77c-.16-.47-.34-.68-.95-.61-1,.07-1.15.22-1.3.78l-1.08,4c-.24.7.28.68.73.64.92,0,.77-.52.92-1.16l1.37-.06c.15.42.14,1.3.68,1.27S39.61,46.76,39.24,45.9Zm-2.52-3.15s.49,1.6.52,1.66h-.93l.4-1.67Z"/></svg>