<svg id="Layer_1" data-name="Layer 1" xmlns="http://www.w3.org/2000/svg" viewBox="0 0 320 60.96"><defs><style>.cls-1{fill:#fceaec;}.cls-2{fill:#f7abad;}</style></defs><path class="cls-1" d="M36.16,0,31.77,6.74,27.5.17c-2.89,2.14-4.85,6.4-4.85,11.9C22.65,20.08,32,28,32,28s9.31-7.9,9.31-15.91C41.27,6.42,39.19,2.07,36.16,0Z"/><path class="cls-1" d="M2.51,18.35,7.57,24.6,0,26.63C1.14,30,4.59,33.22,9.82,34.92c7.61,2.48,18-3.94,18-3.94S23.19,19.69,15.57,17.21C10.19,15.46,5.42,16.1,2.51,18.35Z"/><path class="cls-1" d="M9.56,56l7.51-2.88L16.66,61c3.6,0,7.7-2.33,10.93-6.77,4.7-6.48,1.81-18.35,1.81-18.35s-12.17.92-16.88,7.4C9.2,47.82,8.33,52.55,9.56,56Z"/><path class="cls-1" d="M47.56,61l-.41-8,7.31,2.8c1.09-3.43.17-8-3.06-12.48-4.71-6.48-16.89-7.4-16.89-7.4s-2.89,11.87,1.82,18.35C39.66,58.76,43.89,61.05,47.56,61Z"/><path class="cls-2" d="M64,26.33l-7.76-2.09,4.92-6.09c-2.92-2.09-7.59-2.64-12.81-.94C40.73,19.69,36.09,31,36.09,31s10.39,6.42,18,3.94C59.48,33.18,63,29.85,64,26.33Z"/><path class="cls-1" d="M219.84,0l4.39,6.74L228.5.17c2.89,2.14,4.85,6.4,4.85,11.9,0,8-9.31,15.91-9.31,15.91s-9.31-7.9-9.31-15.91C214.73,6.42,216.81,2.07,219.84,0Z"/><path class="cls-1" d="M253.49,18.35l-5.06,6.25,7.57,2c-1.14,3.41-4.59,6.59-9.82,8.29-7.61,2.48-18-3.94-18-3.94s4.63-11.29,12.25-13.77C245.81,15.46,250.58,16.1,253.49,18.35Z"/><path class="cls-1" d="M246.44,56l-7.51-2.88.41,7.83c-3.6,0-7.7-2.33-10.93-6.77-4.7-6.48-1.81-18.35-1.81-18.35s12.17.92,16.88,7.4C246.8,47.82,247.67,52.55,246.44,56Z"/><path class="cls-1" d="M208.44,61l.41-8-7.31,2.8c-1.09-3.43-.17-8,3.06-12.48,4.71-6.48,16.89-7.4,16.89-7.4s2.89,11.87-1.82,18.35C216.34,58.76,212.11,61.05,208.44,61Z"/><path class="cls-2" d="M192,26.33l7.76-2.09-4.92-6.09c2.92-2.09,7.59-2.64,12.81-.94C215.27,19.69,219.91,31,219.91,31s-10.39,6.42-18,3.94C196.52,33.18,193,29.85,192,26.33Z"/><path class="cls-2" d="M283.84,0l4.39,6.74L292.5.17c2.89,2.14,4.85,6.4,4.85,11.9,0,8-9.31,15.91-9.31,15.91s-9.31-7.9-9.31-15.91C278.73,6.42,280.81,2.07,283.84,0Z"/><path class="cls-1" d="M317.49,18.35l-5.06,6.25,7.57,2c-1.14,3.41-4.59,6.59-9.82,8.29-7.61,2.48-18-3.94-18-3.94s4.63-11.29,12.25-13.77C309.81,15.46,314.58,16.1,317.49,18.35Z"/><path class="cls-1" d="M310.44,56l-7.51-2.88.41,7.83c-3.6,0-7.7-2.33-10.93-6.77-4.7-6.48-1.81-18.35-1.81-18.35s12.17.92,16.88,7.4C310.8,47.82,311.67,52.55,310.44,56Z"/><path class="cls-1" d="M272.44,61l.41-8-7.31,2.8c-1.09-3.43-.17-8,3.06-12.48,4.71-6.48,16.89-7.4,16.89-7.4s2.89,11.87-1.82,18.35C280.34,58.76,276.11,61.05,272.44,61Z"/><path class="cls-1" d="M256,26.33l7.76-2.09-4.92-6.09c2.92-2.09,7.59-2.64,12.81-.94C279.27,19.69,283.91,31,283.91,31s-10.39,6.42-18,3.94C260.52,33.18,257,29.85,256,26.33Z"/><path class="cls-1" d="M100.16,0,95.77,6.74,91.5.17c-2.89,2.14-4.85,6.4-4.85,11.9C86.65,20.08,96,28,96,28s9.31-7.9,9.31-15.91C105.27,6.42,103.19,2.07,100.16,0Z"/><path class="cls-1" d="M66.51,18.35l5.06,6.25-7.57,2c1.14,3.41,4.59,6.59,9.82,8.29,7.61,2.48,18-3.94,18-3.94S87.19,19.69,79.57,17.21C74.19,15.46,69.42,16.1,66.51,18.35Z"/><path class="cls-1" d="M73.56,56l7.51-2.88L80.66,61c3.6,0,7.7-2.33,10.93-6.77,4.7-6.48,1.81-18.35,1.81-18.35s-12.17.92-16.88,7.4C73.2,47.82,72.33,52.55,73.56,56Z"/><path class="cls-2" d="M111.56,61l-.41-8,7.31,2.8c1.09-3.43.17-8-3.06-12.48-4.71-6.48-16.89-7.4-16.89-7.4s-2.89,11.87,1.82,18.35C103.66,58.76,107.89,61.05,111.56,61Z"/><path class="cls-1" d="M128,26.33l-7.76-2.09,4.92-6.09c-2.92-2.09-7.59-2.64-12.81-.94C104.73,19.69,100.09,31,100.09,31s10.39,6.42,18,3.94C123.48,33.18,127,29.85,128,26.33Z"/><path class="cls-1" d="M155.84,0l4.39,6.74L164.5.17c2.89,2.14,4.85,6.4,4.85,11.9,0,8-9.31,15.91-9.31,15.91s-9.31-7.9-9.31-15.91C150.73,6.42,152.81,2.07,155.84,0Z"/><path class="cls-1" d="M189.49,18.35l-5.06,6.25,7.57,2c-1.14,3.41-4.59,6.59-9.82,8.29-7.61,2.48-18-3.94-18-3.94s4.63-11.29,12.25-13.77C181.81,15.46,186.58,16.1,189.49,18.35Z"/><path class="cls-1" d="M182.44,56l-7.51-2.88.41,7.83c-3.6,0-7.7-2.33-10.93-6.77-4.7-6.48-1.81-18.35-1.81-18.35s12.17.92,16.88,7.4C182.8,47.82,183.67,52.55,182.44,56Z"/><path class="cls-2" d="M144.44,61l.41-8-7.31,2.8c-1.09-3.43-.17-8,3.06-12.48,4.71-6.48,16.89-7.4,16.89-7.4s2.89,11.87-1.82,18.35C152.34,58.76,148.11,61.05,144.44,61Z"/><path class="cls-1" d="M128,26.33l7.76-2.09-4.92-6.09c2.92-2.09,7.59-2.64,12.81-.94C151.27,19.69,155.91,31,155.91,31s-10.39,6.42-18,3.94C132.52,33.18,129,29.85,128,26.33Z"/></svg>