<svg id="Layer_1" data-name="Layer 1" xmlns="http://www.w3.org/2000/svg" viewBox="0 0 64 60.96"><path d="M36.16,0,31.77,6.74,27.5.17c-2.89,2.14-4.85,6.4-4.85,11.9C22.65,20.08,32,28,32,28s9.31-7.9,9.31-15.91C41.27,6.42,39.19,2.07,36.16,0Z"/><path d="M2.51,18.35,7.57,24.6,0,26.63C1.14,30,4.59,33.22,9.82,34.92c7.61,2.48,18-3.94,18-3.94S23.19,19.69,15.57,17.21C10.19,15.46,5.42,16.1,2.51,18.35Z"/><path d="M9.56,56l7.51-2.88L16.66,61c3.6,0,7.7-2.33,10.93-6.77,4.7-6.48,1.81-18.35,1.81-18.35s-12.17.92-16.88,7.4C9.2,47.82,8.33,52.55,9.56,56Z"/><path d="M47.56,61l-.41-8,7.31,2.8c1.09-3.43.17-8-3.06-12.48-4.71-6.48-16.89-7.4-16.89-7.4s-2.89,11.87,1.82,18.35C39.66,58.76,43.89,61.05,47.56,61Z"/><path d="M64,26.33l-7.76-2.09,4.92-6.09c-2.92-2.09-7.59-2.64-12.81-.94C40.73,19.69,36.09,31,36.09,31s10.39,6.42,18,3.94C59.48,33.18,63,29.85,64,26.33Z"/></svg>