<svg id="Layer_1" data-name="Layer 1" xmlns="http://www.w3.org/2000/svg" viewBox="0 0 16 18.78"><defs><style>.cls-1{fill:#f1949b;}.cls-2{fill:#e06460;}.cls-3{fill:#f6acb5;}.cls-4{fill:#fceaec;}</style></defs><path class="cls-1" d="M10.33,18.31,10,12.62l5.19,2c.78-2.44.13-5.71-2.16-8.86C9.74,1.15,1.1.49,1.1.49S-1,8.9,2.37,13.51C4.72,16.75,7.73,18.38,10.33,18.31Z"/><path class="cls-2" d="M10.81,18.76h-.47c-2.9.08-6-1.79-8.34-5C-1.42,9.05.57.73.65.38L.75,0l.38,0C1.5.06,10,.77,13.44,5.49c2.25,3.1,3.09,6.57,2.23,9.26l-.15.47-5-1.92ZM1.46,1C1.12,2.67,0,9.41,2.74,13.24c2,2.78,4.64,4.48,7.11,4.61l-.3-5.92L14.92,14c.54-2.34-.27-5.29-2.22-8C9.93,2.2,3.17,1.18,1.46,1Z"/><path class="cls-3" d="M4.46,13.6C2.58,11.65,1,5,2.15,2.81c.77-1.4,7.72.72,5.33,2.12C3.54,7.24,7.87,17.13,4.46,13.6Z"/><path class="cls-4" d="M4.13,3s4.6.34,6,2.15S.12,2.68,4.13,3Z"/><path class="cls-2" d="M2.54,10.78A7.88,7.88,0,0,0,4.3,14c1.28,1.52,4.24,3.34,3.81,2.76a28.32,28.32,0,0,0-2.74-3.11C3,11.05,2,8.08,2.54,10.78Z"/></svg>