<svg id="Layer_1" data-name="Layer 1" xmlns="http://www.w3.org/2000/svg" viewBox="0 0 97.08 59.45"><defs><style>.cls-1{fill:#847147;}.cls-2{fill:#544a3a;}.cls-3{fill:#c2a971;}.cls-4{fill:#ffe86b;}</style></defs><path class="cls-1" d="M7.72,48.13A25.66,25.66,0,0,1,0,29.72C0,21.33,3.91,13.78,11,8.48,18.44,2.93,29,0,41.61,0h0C53.44,0,67,3.82,78.86,10.47c8.81,4.95,18.22,12.6,18.22,19.25,0,6-9.8,13.86-18.19,18.72-12.08,7-25.67,11-37.28,11C29,59.45,18.44,56.52,11,51A29.3,29.3,0,0,1,7.72,48.13ZM41.61,4.91C30.09,4.91,20.53,7.5,14,12.41c-5.92,4.42-9,10.41-9,17.31S8,42.62,14,47c6.57,4.91,16.13,7.5,27.65,7.5,10.77,0,23.46-3.77,34.82-10.35C87.17,38,92.17,31.88,92.17,29.72c0-4-7.9-10.58-15.71-15C65.33,8.49,52.63,4.91,41.61,4.91Z"/><path class="cls-2" d="M14,12.41c6.57-4.91,16.13-7.5,27.65-7.5,11,0,23.72,3.58,34.85,9.84,7.81,4.39,15.71,10.94,15.71,15a2.14,2.14,0,0,1-.1.57,1.7,1.7,0,0,0,1.16-2.52A40.36,40.36,0,0,0,77.46,12.49a76.81,76.81,0,0,0-19.6-7.16A89,89,0,0,0,37.88,3c-3.43,0-6.93-.13-10.23.8C16.6,7,12.49,10.65,10.47,13.12A22.43,22.43,0,0,0,5.73,21.8,1.66,1.66,0,0,0,6,23.15,21.88,21.88,0,0,1,14,12.41Z"/><path class="cls-2" d="M11,51c7.42,5.55,18,8.48,30.59,8.48,11.61,0,25.2-4,37.28-11,6.48-3.75,13.78-9.27,16.78-14.36a1.6,1.6,0,0,0-1.78.38,86.66,86.66,0,0,1-10.31,9.12A56.35,56.35,0,0,1,73,49.43c-7.47,3.17-12.94,5.85-20.94,7S32.92,57.75,25,55.38c-3.84-1.14-5.19-1.21-8.74-3a47.28,47.28,0,0,1-5.67-3.9,19.93,19.93,0,0,1-1.78-1.78c-.58-.63-1.26-1.45-1.6-1.92a32.9,32.9,0,0,1-4.85-8.94A34.67,34.67,0,0,1,.59,24.88a2.06,2.06,0,0,0,0-.44A25.77,25.77,0,0,0,7.72,48.13,29.3,29.3,0,0,0,11,51Z"/><path class="cls-3" d="M23.06,3.92C17,6.85,10.8,10.23,6.55,15.59A22.8,22.8,0,0,0,1.8,32.06c.31,2.93,1.11,6.25,3.12,8.5.54.6,1.38-.14,1.08-.8a25.82,25.82,0,0,1-2.46-7.29,22,22,0,0,1,.39-7.75c1.38-6,5.44-10.69,10.32-14.21a94.88,94.88,0,0,1,9.29-5.59c.62-.34.17-1.32-.48-1Z"/><path class="cls-4" d="M9.55,10.88A23.17,23.17,0,0,0,1.29,28a.5.5,0,0,0,1,.1,28.46,28.46,0,0,1,2.54-9.18,33.09,33.09,0,0,1,5.24-7.51c.28-.31-.18-.8-.52-.54Z"/><path class="cls-4" d="M8.36,44.49a11.9,11.9,0,0,0,3.9,4c.37.23.71-.38.39-.64a18.16,18.16,0,0,1-3.72-3.81.35.35,0,0,0-.57.4Z"/><path class="cls-3" d="M15.58,50.37a40.07,40.07,0,0,0,13.2,4.81,61.7,61.7,0,0,0,12.94,1c2.53,0,5.05-.2,7.57-.43.69-.06.49-1.1-.19-1a91.26,91.26,0,0,1-16.53-.11,50.57,50.57,0,0,1-8.18-1.7A78.34,78.34,0,0,1,16,49.55c-.48-.21-.91.53-.45.82Z"/></svg>