<svg id="Layer_1" data-name="Layer 1" xmlns="http://www.w3.org/2000/svg" viewBox="0 0 124.99 75.97"><defs><style>.cls-1{fill:#847147;}.cls-2{fill:#c2a971;}.cls-3{fill:#544a3a;}.cls-4{fill:#ffe86b;}</style></defs><path class="cls-1" d="M118.53,49.18a86.06,86.06,0,0,1-16.84,12.51C86.06,70.75,68.5,76,53.5,76,37.26,76,23.63,72.22,14.08,65.1,5,58.34,0,48.72,0,38S5,17.7,14,10.92C23.58,3.79,37.2,0,53.45,0h0C68.73,0,86.3,4.91,101.63,13.51,112.92,19.85,125,29.59,125,37.93,125,41.38,122.39,45.32,118.53,49.18ZM13.22,18.1A27.48,27.48,0,0,0,4.91,38c0,9.24,4.19,17.25,12.1,23.15,8.7,6.48,21.31,9.9,36.49,9.89,14.15,0,30.82-5,45.73-13.62,14.39-8.35,20.86-16.43,20.86-19.5,0-4.2-7.17-12.47-20.86-20.15C84.61,9.59,67.92,4.9,53.45,4.91,38.27,4.92,25.66,8.36,17,14.85A34.17,34.17,0,0,0,13.22,18.1Z"/><path class="cls-2" d="M3.67,30.86c.22-2.43,1.69-4.7,2.89-6.77a54.75,54.75,0,0,1,4.73-7A29.06,29.06,0,0,1,23.51,8.38a35.28,35.28,0,0,1,8.58-2.15c.8-.1.58-1.3-.15-1.34a19.76,19.76,0,0,0-7.52,1.32,36.45,36.45,0,0,0-6.88,3.2c-5.11,3.06-8.8,7.72-11.79,12.79-1.55,2.62-3.36,5.46-3.34,8.61a.63.63,0,0,0,1.26.05Z"/><path class="cls-3" d="M4.91,38A27.48,27.48,0,0,1,13.22,18.1,34.17,34.17,0,0,1,17,14.85c8.68-6.49,21.29-9.93,36.47-9.94,14.31,0,30.78,4.59,45.29,12.62a1.42,1.42,0,0,0-.5-1C90.63,10.53,81.36,7,71.92,4.91a98.12,98.12,0,0,0-28.5-1.85C34,3.84,24.31,6.2,16.51,11.81,9,17.23,3.29,25.27,2.43,34.67a28.12,28.12,0,0,0,2.7,14.5C7.3,53.74,11,58.41,15.82,60.24,8.69,54.44,4.91,46.79,4.91,38Z"/><path class="cls-3" d="M118.53,49.18c3.86-3.86,6.47-7.8,6.46-11.25,0-3.72-2.41-7.72-6.07-11.57a36.65,36.65,0,0,1,3.72,7.5c.53,1.37.22,2.65.15,4.07a10.09,10.09,0,0,1-1,4.11,29.72,29.72,0,0,1-6.39,7.83,64.53,64.53,0,0,1-8.8,7C93.92,65.26,79.11,69.39,64.36,72.31q-9.95,2-20,3.24,4.42.42,9.16.42c15,0,32.56-5.22,48.19-14.28A86.06,86.06,0,0,0,118.53,49.18Z"/><path class="cls-2" d="M6.74,54.68c3.44,3.86,7,7.92,11.28,10.87a44.52,44.52,0,0,0,9.3,4.61,60.76,60.76,0,0,0,18,3.64,64.28,64.28,0,0,0,17.06-1.24.53.53,0,0,0-.18-1,76.6,76.6,0,0,1-26.63-.6,52.19,52.19,0,0,1-15.32-5.76c-4.91-2.85-8.57-7.46-12.62-11.35a.64.64,0,0,0-.93.87Z"/><path class="cls-4" d="M1.13,37.93A37.89,37.89,0,0,0,16,65.06a30.86,30.86,0,0,0,8.22,4.39c.73.25,1.24-.94.53-1.25A36.68,36.68,0,0,1,9.15,55.91a41.64,41.64,0,0,1-4.64-8.36,46.88,46.88,0,0,1-2.69-9.67c-.07-.44-.73-.4-.69,0Z"/><path class="cls-4" d="M9.26,17.89c.12-.14.24-.28.37-.41l.08-.09.06-.06,0,0,.18-.2a4.14,4.14,0,0,0,.44-.5,1.1,1.1,0,0,0,.25-.56.33.33,0,0,0-.35-.39,1.4,1.4,0,0,0-.76.42,3.31,3.31,0,0,0-.4.44c-.21.25-.42.51-.62.77a.48.48,0,0,0,.77.56Z"/></svg>