<svg id="Layer_1" data-name="Layer 1" xmlns="http://www.w3.org/2000/svg" viewBox="0 0 95.43 59.05"><defs><style>.cls-1{fill:#847147;}.cls-2{fill:#544a3a;}.cls-3{fill:#ffe86b;}.cls-4{fill:#c2a971;}</style></defs><path class="cls-1" d="M40.91,0c11.63,0,25,3.79,36.61,10.4,8.66,4.91,17.91,12.51,17.91,19.13,0,10-29.43,29.52-54.52,29.52-12.38,0-22.78-2.91-30.07-8.42a26,26,0,0,1,0-42.21C18.13,2.91,28.53,0,40.91,0Zm0,54.14c25,0,49.66-19.26,49.66-24.61,0-3-5.3-9.11-15.43-14.85C64.21,8.47,51.73,4.91,40.91,4.91c-11.32,0-20.71,2.57-27.17,7.44C7.93,16.73,4.86,22.67,4.86,29.53S7.93,42.32,13.74,46.7C20.2,51.57,29.59,54.14,40.91,54.14Z"/><path class="cls-2" d="M90.57,29.53c0,5.35-24.65,24.61-49.66,24.61-11.32,0-20.71-2.57-27.17-7.44a22.81,22.81,0,0,1-6.5-7.44,12.92,12.92,0,0,0,2.28,5,23.32,23.32,0,0,0,7.65,5.92c5.79,3,12.32,4.52,18.75,5.44a42.38,42.38,0,0,0,11,.35,51.93,51.93,0,0,0,10.29-2.46,121,121,0,0,0,19.41-8c6.23-3.4,11.94-8,15.56-14.27a1.76,1.76,0,0,0-1.77-2.6A3.72,3.72,0,0,1,90.57,29.53Z"/><path class="cls-2" d="M4.59,44.19C3.32,40.62,1.35,36.68,1,32.91a22.63,22.63,0,0,1,1-9.9C3.8,17.21,9.19,12.08,14.37,9.16,20.72,5.58,28.05,4.23,35.2,3.47,43,2.64,51,2.38,58.67,3.92,66,5.4,81.3,14,81.58,12.88c-1.34-.88-2.71-1.72-4.06-2.48C65.88,3.79,52.54,0,40.91,0,28.53,0,18.13,2.91,10.84,8.42A26.06,26.06,0,0,0,0,29.53,25.41,25.41,0,0,0,4.59,44.19Z"/><path class="cls-3" d="M42.94,57.57c-3.58,0-7.14-.42-10.71-.63a.38.38,0,0,0-.12.76A52.91,52.91,0,0,0,43,58.25c.45,0,.38-.68-.06-.68Z"/><path class="cls-3" d="M11.64,48.86a23.16,23.16,0,0,1-1.84-1.6,17.49,17.49,0,0,1-1.57-1.65A38,38,0,0,1,5.7,41.85c-.29-.45-.87,0-.74.44a11.29,11.29,0,0,0,2.48,4.17,17.75,17.75,0,0,0,1.69,1.67,11.84,11.84,0,0,0,2.11,1.39c.37.22.75-.4.4-.66Z"/><path class="cls-4" d="M55.33,54.35a19.76,19.76,0,0,1-5,.89c-1.78.14-3.55.27-5.33.36a81.35,81.35,0,0,1-10.59-.06,43.4,43.4,0,0,1-17.85-5.28,28.2,28.2,0,0,1-4.09-2.63A46.63,46.63,0,0,1,8.6,43.88a.42.42,0,0,0-.67.51,26.43,26.43,0,0,0,6.3,6.23,29.69,29.69,0,0,0,8.06,4.22c6.83,2.41,14.13,2.89,21.31,2.58,2.1-.09,4.21-.26,6.3-.49a20.74,20.74,0,0,0,5.78-1.25c.79-.33.49-1.63-.35-1.33Z"/><path class="cls-4" d="M21.77,6.05c-4.15.51-8.08,3.21-11.3,5.74C6.39,15,2.87,19.06,1.82,24.31c-.12.61.89.81,1.07.22a21.67,21.67,0,0,1,3.23-6.62,28.63,28.63,0,0,1,5.46-5.37A32.24,32.24,0,0,1,21.94,6.76c.4-.12.24-.76-.17-.71Z"/></svg>