<svg id="Layer_1" data-name="Layer 1" xmlns="http://www.w3.org/2000/svg" viewBox="0 0 256 251.24"><defs><style>.cls-1{fill:#231f20;}</style></defs><path class="cls-1" d="M256,128c0-10-4.66-19-13.11-25.27-7.36-5.5-17.33-8.84-29.12-9.83l.23-.27.54-.63q1.07-1.26,2-2.52l.31-.42q.83-1.08,1.59-2.16l.5-.72c.49-.72,1-1.43,1.42-2.15.1-.15.2-.29.29-.44.54-.86,1-1.73,1.53-2.59l.3-.56c.38-.7.74-1.4,1.09-2.09l.33-.68a45.41,45.41,0,0,0,4.08-13c1.52-10.44-1.54-20.08-8.59-27.14s-16.7-10.11-27.14-8.59c-9.6,1.39-19.56,6.52-29.06,14.93,0-.72-.09-1.44-.16-2.14v-.07c-.11-1.19-.25-2.35-.41-3.5,0-.26-.07-.51-.11-.76-.16-1.13-.34-2.24-.56-3.33v0c-.22-1.12-.47-2.22-.74-3.3l-.15-.59A58.39,58.39,0,0,0,159.15,24l-.19-.46a44.42,44.42,0,0,0-5.68-10.39C147,4.66,138,0,128,0s-19,4.66-25.28,13.12c-5.64,7.55-9,17.84-9.9,30-9.25-8-18.92-12.89-28.24-14.24-10.42-1.51-20,1.54-27.09,8.58S27.4,54.16,28.91,64.58C30.24,73.75,35,83.25,42.76,92.36l.4.47-1.07.08h-.15c-11.66,1-21.53,4.36-28.83,9.81C4.66,109.05,0,118,0,128S4.66,147,13.11,153.27a44.34,44.34,0,0,0,9.46,5.32h0c.86.35,1.75.69,2.65,1l.71.25,1.22.4h0l1,.3.62.18c.95.27,1.92.52,2.9.75l.52.11,1,.23h.09c.46.1.93.19,1.4.27l.87.16c.68.12,1.37.22,2.06.32h.05l.54.08.51.07c1.06.13,2.14.25,3.22.34l.84.06c.6.05,1.2.1,1.81.13C37,172.17,32.32,181.47,31,190.43c-1.46,10.13,1.49,19.47,8.34,26.31a29.32,29.32,0,0,0,17.44,8.47l.2,0c.59.06,1.18.11,1.78.15l.53,0c.5,0,1,0,1.51,0h.63c.5,0,1,0,1.51-.07l.6,0c.7-.06,1.4-.13,2.11-.24a41.08,41.08,0,0,0,8.06-2,48.73,48.73,0,0,0,6.09-2.66c1.62-.83,3.24-1.78,4.86-2.81,1.08-.69,2.16-1.42,3.24-2.2,1.34-1,2.68-2,4-3.11.79-.66,1.58-1.34,2.36-2.05.9,11.54,4.12,21.3,9.47,28.46,6.06,8.11,14.67,12.58,24.24,12.58.59,0,1.19,0,1.78-.05a28.93,28.93,0,0,0,16.07-6,29.55,29.55,0,0,0,2.71-2.33,34.51,34.51,0,0,0,3.67-4.18c4.38-5.87,7.34-13.46,8.77-22.36q.49-3.13.73-6.48c9.46,8.61,19.42,13.87,29,15.26S209,223.94,215.67,218l.36-.34c.31-.29.62-.57.92-.87a29.72,29.72,0,0,0,2.38-2.67,29.27,29.27,0,0,0,6-14.38,31.49,31.49,0,0,0,.25-5.43,34.37,34.37,0,0,0-.34-3.75,46.51,46.51,0,0,0-5.78-16.13,70,70,0,0,0-7-10l-1-1.12a78.55,78.55,0,0,0,9.67-1.14h0a48.71,48.71,0,0,0,5.31-1.21,48.1,48.1,0,0,0,16.37-7.65,34.76,34.76,0,0,0,3.31-2.81.57.57,0,0,0,.11-.11c.34-.32.68-.65,1-1l.12-.12-.1.1A30.45,30.45,0,0,0,256,128Zm-48.51,90.3A27.45,27.45,0,0,1,195.83,221h0c-.73,0-1.47,0-2.21-.09s-1.5-.13-2.26-.24c-6.65-1-13.56-4-20.37-9-.62-.45-1.24-.92-1.86-1.4a81.35,81.35,0,0,1-7.17-6.37v-.53a74.49,74.49,0,0,0-2.56-18.59,97.33,97.33,0,0,0-6-16.5q-1.91-4.08-4.18-8c-.38-.66-.78-1.32-1.18-2a84.21,84.21,0,0,0-6.94-9.73c-.87-1-1.77-2-2.66-2.94a18.46,18.46,0,0,1,.38-2.1,7.15,7.15,0,0,1,1.6-3.3c.75-.74,2.57-1.35,5.33-1.61a56.34,56.34,0,0,0,4.46,4,2.37,2.37,0,0,0,.31.25l.06,0a88.85,88.85,0,0,0,11.56,7.69l.46.27.87.47.61.33a98.28,98.28,0,0,0,26.6,9.95,74,74,0,0,0,15,1.77c8.64,9.14,13.88,18.71,15.19,27.79,1.28,8.8-1.16,16.57-7,22.46a.08.08,0,0,0,0,0h0A25.3,25.3,0,0,1,207.49,218.3ZM34.43,50.82c.06-.19.13-.37.19-.55s.2-.56.31-.83l.24-.57c.11-.26.23-.52.35-.78s.19-.4.29-.59.24-.49.37-.73.23-.41.35-.61.26-.45.4-.67.27-.43.42-.64.26-.41.4-.61.34-.45.51-.68.26-.36.4-.53.42-.51.63-.76l.36-.42c.34-.38.7-.76,1.07-1.13a25.63,25.63,0,0,1,18.59-7.63,33.31,33.31,0,0,1,4.62.34c9.36,1.36,19.23,6.76,28.65,15.65,0,.24,0,.48,0,.73,0,23.73,14.05,50.63,26,61.55-.37,2.48-1.06,4.26-2,5.19-.72.72-2.41,1.31-4.93,1.6-4.25-4.82-10.75-9.45-17-13C80.7,97.37,64.81,92.82,50.83,92.6v0H49.09c-8.9-9.42-14.3-19.29-15.66-28.66-.07-.47-.12-.94-.16-1.4h0c-.05-.49-.09-1-.12-1.46,0,0,0-.11,0-.16,0-.45,0-.89,0-1.33v-.27q0-.62,0-1.23c0-.11,0-.23,0-.34,0-.39,0-.77.09-1.15,0-.13,0-.27,0-.4,0-.36.09-.72.14-1.08,0-.15.05-.29.07-.44.06-.34.12-.68.19-1,0-.16.07-.32.11-.48.07-.31.15-.63.23-1l.15-.51C34.24,51.41,34.33,51.11,34.43,50.82Zm30.06,101c2.26-1.46,4.64-2.84,7.1-4.12,1.64-.85,3.32-1.66,5-2.43a96,96,0,0,1,13.31-4.82c.78-.22,1.54-.42,2.29-.61l.69-.17,1.56-.36.73-.16,1.6-.32.51-.1,2-.33.44-.06,1.5-.2.62-.07,1.28-.12.56-.05H104A80.17,80.17,0,0,1,92.24,146c-11.8,6.83-24.78,11.17-36.5,12.3A77.76,77.76,0,0,1,64.49,151.77ZM111.57,128c0,1.13-1,3-3,5.32-6.09-.26-13.42,1-19.88,2.8-15.3,4.3-29.69,12.37-39.46,22.14l-.32.33c-13.68-.13-25.06-3.29-32.95-9.18a27.94,27.94,0,0,1-8.62-10.15c-.21-.43-.41-.87-.6-1.3h0q-.27-.64-.51-1.32v0c-.15-.43-.29-.86-.42-1.3,0,0,0-.09,0-.14-.12-.41-.22-.82-.32-1.24l-.06-.27c-.08-.38-.16-.76-.22-1.14,0-.16-.05-.32-.07-.47,0-.33-.1-.66-.14-1s0-.5-.06-.76,0-.49-.06-.73c0-.51-.05-1-.05-1.54a25.21,25.21,0,0,1,5.35-15.75,28.92,28.92,0,0,1,2.08-2.39,32.45,32.45,0,0,1,2.42-2.23c.43-.35.87-.7,1.33-1s1-.71,1.48-1l.53-.35,1-.63.7-.4.91-.51.8-.42.87-.43.9-.42L24,102l1-.41.76-.3,1.13-.42.63-.21,1.32-.43.28-.08a62.72,62.72,0,0,1,9.67-2.07h.13l2-.25h.17c.68-.07,1.37-.14,2.07-.19h.14c.72,0,1.44-.1,2.18-.13l1.9-.08.27.27c.61.62,1.25,1.23,1.91,1.83a79.14,79.14,0,0,0,13.66,10c1.7,1,3.46,2,5.26,2.86s3.64,1.78,5.53,2.59a106.5,106.5,0,0,0,14.75,5.11,95.92,95.92,0,0,0,9.67,2c1.65.25,3.31.46,4.93.6s3.2.22,4.72.22h1.11C110.73,124.87,111.57,126.63,111.57,128ZM90,115.64C76.22,112,63.47,105.48,54.26,97.55l.84.06c.48,0,.95.08,1.42.12l1.15.12,1.55.18,1.94.28,1.16.19,1.46.27,1,.2c.77.15,1.54.32,2.3.49l.77.19a94,94,0,0,1,16.74,5.83c2.06,1,3.76,1.82,4.75,2.33a78.19,78.19,0,0,1,15.44,10.42A78.74,78.74,0,0,1,90,115.64Zm26-14.43a88.6,88.6,0,0,1-6-9c-7.1-12.27-11.51-25.81-12.41-37.88l.31.35c.32.37.63.76,1,1.15s.48.57.72.87c.36.46.72.93,1.07,1.4.18.23.37.46.54.7.4.53.78,1.08,1.17,1.62l.4.57c.42.6.83,1.22,1.23,1.84.1.14.19.28.28.42.44.67.86,1.35,1.28,2l.18.29c.44.73.87,1.48,1.3,2.23l.1.17c.45.8.88,1.6,1.31,2.42l0,0A99.65,99.65,0,0,1,116,89.06l.15.49a71.49,71.49,0,0,1,2.65,14.79C117.71,103.21,116.83,102.22,116,101.21ZM114.11,134c.21-.31.41-.63.59-.93s.18-.32.27-.48.23-.4.32-.6a.75.75,0,0,0,.06-.13,9.15,9.15,0,0,0,1-3.87,11.69,11.69,0,0,0-1.75-5.72,10.56,10.56,0,0,0,5.15-2.5h0a3.8,3.8,0,0,0,.52-.62,12.19,12.19,0,0,0,2.28-4.68,10.63,10.63,0,0,0,5.42,1.9,12.24,12.24,0,0,0,6.27-2.07,11.82,11.82,0,0,0,2.87,5.48,8.43,8.43,0,0,0,2.76,1.74h0c.24.1.48.2.74.29s.54.18.83.26a11.86,11.86,0,0,0-1.86,5.92c0,2,1,4.25,2.74,6.68a10.26,10.26,0,0,0-5.07,2.44h0a11.29,11.29,0,0,0-2.7,5.09c-.22-.17-.45-.34-.68-.49s-.33-.23-.5-.33-.57-.37-.86-.53l-.23-.14-.4-.2-.47-.23-.1,0,0,0a8.45,8.45,0,0,0-3.39-.82,12,12,0,0,0-6.33,2.19,2,2,0,0,0,0-.24c-.11-.42-.23-.83-.37-1.21,0-.1-.07-.19-.1-.28a4.9,4.9,0,0,0-.18-.46h0l0,.1a8.32,8.32,0,0,0-1.71-2.72,11.43,11.43,0,0,0-5.22-2.74Zm34,50.64c-.85-1.63-1.66-3.31-2.43-5a95.22,95.22,0,0,1-4.8-13.26,70.8,70.8,0,0,1-2.53-13.55c0-.27,0-.51,0-.77a78.54,78.54,0,0,1,7.13,10.44c6.82,11.77,11.07,24.78,12,36.38A83.36,83.36,0,0,1,148.09,184.65ZM138.63,102c0-.34.08-.68.11-1A92.25,92.25,0,0,1,156.58,57.9l.6-.76.6-.73.51-.61C156.6,75.61,147,94,138.47,103.92c0-.6.09-1.18.15-1.75C138.62,102.12,138.63,102.06,138.63,102Zm19,11.22a94.69,94.69,0,0,1,28.25-13l.13,0c.7-.19,1.41-.36,2.12-.54l.77-.19c.76-.17,1.53-.34,2.3-.49l1-.2,1.46-.27,1.16-.19,1.94-.28,1.55-.18,1.15-.12c.47,0,.94-.09,1.42-.12l1.12-.07.41,0c-9.17,7.86-21.84,14.3-35.5,17.94a76.45,76.45,0,0,1-15.56,2.63c.33-.29.65-.58,1-.87Q154.86,115.17,157.63,113.22Zm8.51,27.91c13.13,3.49,25.33,9.65,34.21,17.18-11.73-1.12-24.75-5.46-36.59-12.31a83.44,83.44,0,0,1-10.69-7.28A77.88,77.88,0,0,1,166.14,141.13Zm43.49-43.66Q224.26,98.2,234,103l.2.1c.45.22.88.44,1.31.67l.59.33.95.54.88.56.63.4c.5.33,1,.68,1.46,1h0q1.37,1,2.58,2.13a25.72,25.72,0,0,1,8.19,14.6,26.71,26.71,0,0,1,.41,4.68h0c0,.52,0,1-.05,1.54,0,.25,0,.5-.06.75s0,.5-.06.74-.09.66-.14,1c0,.16,0,.31-.07.47-.06.38-.14.76-.22,1.14l-.06.27c-.1.42-.21.83-.32,1.24,0,.05,0,.1,0,.14-.13.44-.27.87-.42,1.3v0q-.24.68-.51,1.32h0c-.19.44-.39.87-.6,1.3h0A27.94,27.94,0,0,1,240,149.41c-7.86,5.88-19.2,9-32.83,9.18l-.1-.1a66.2,66.2,0,0,0-5.87-5.19c-.71-.55-1.43-1.1-2.17-1.63a85.37,85.37,0,0,0-9.54-6q-1.27-.69-2.58-1.35a102.45,102.45,0,0,0-19.64-7.46c-1.47-.39-3-.76-4.58-1.09a69.84,69.84,0,0,0-14.12-1.69l-.51,0c-2.46-2.69-3.64-4.84-3.64-6.09h0c.07-.4.12-.76.18-1.11a11.72,11.72,0,0,1,2.16-4,45.9,45.9,0,0,0,5.36,0h.19c8-.08,19.59-3.25,29.48-7.46l.17-.07.21-.09.51-.23a87.53,87.53,0,0,0,25.15-15.92q.75-.69,1.41-1.35l.29-.29ZM193,33.67c9-1.31,17,1.19,23,7.24s8.55,14,7.24,23c-1.36,9.36-6.77,19.23-15.7,28.65l-1.37,0c-14.22,0-30.55,4.6-44.81,12.61-6.12,3.44-12.49,8-16.74,12.68a7.77,7.77,0,0,1-4.1-1.48,3.71,3.71,0,0,1-.39-.48,4.62,4.62,0,0,1-.28-.43l-.12-.21c-.07-.13-.14-.26-.21-.41a11.14,11.14,0,0,1-.66-2l0-.07c0-.18-.07-.39-.1-.58-.07-.38-.12-.76-.17-1.14,4.69-4.27,8.89-10.48,12.24-16.44,7.92-14.09,12.49-30.2,12.59-44.31a71.86,71.86,0,0,1,15.1-11.53A42.88,42.88,0,0,1,193,33.67ZM100.73,185.6c.21-.87.45-1.74.69-2.61A95,95,0,0,1,110,162.47a77.8,77.8,0,0,1,5.2-8.08c.85-1.16,1.71-2.22,2.54-3.2l.1-.11a75.21,75.21,0,0,1-2.54,14.69c-3.42,12.86-9.4,24.82-16.71,33.68a71.43,71.43,0,0,1,1.06-8.64C99.92,189.09,100.29,187.35,100.73,185.6Zm8,52.2c-.48-.57-1-1.15-1.41-1.76-4-5.35-6.69-12.35-8-20.61a74.45,74.45,0,0,1-.84-9.23,71,71,0,0,0,7.82-9.69,98.86,98.86,0,0,0,13.27-29.6c.59-2.22,1.13-4.58,1.58-7a66.54,66.54,0,0,0,1.21-11.78h0c0-.52,0-1,0-1.52,2.27-1.85,4.25-2.79,5.69-2.79,1.2,0,3.27,1.11,5.84,3.45-.35,6.17.91,13.68,2.77,20.29,4.11,14.66,11.71,28.47,20.94,38.17-.33,12.53-3.37,23-8.84,30.3-5.28,7.07-12.44,10.81-20.71,10.81a24.61,24.61,0,0,1-17.82-7.45C109.66,238.89,109.17,238.36,108.68,237.8ZM158.53,48.34c-9.77,10-17.82,24.53-22.14,39.94-1.88,6.67-3.16,14.26-2.88,20.55-2.13,1.72-4,2.67-5.51,2.67a18.07,18.07,0,0,1-3.48-1.54c-.37-.25-.75-.54-1.15-.86.32-6.34-1-14-2.87-20.78-4.42-15.76-12.73-30.57-22.8-40.63l-.22-.22c.34-13,3.48-23.84,9.15-31.43C112.08,8.74,119.47,4.88,128,4.88c.68,0,1.36,0,2,.08l.51,0c.59,0,1.17.12,1.75.22l.23,0c.67.12,1.33.26,2,.43l.29.08c.61.16,1.2.34,1.79.54l.16.06a24.47,24.47,0,0,1,3.86,1.78l.06,0a25.67,25.67,0,0,1,3.62,2.5h0A30,30,0,0,1,149.37,16C155.17,23.79,158.31,34.94,158.53,48.34Zm-120.68,159h0c-.22-.42-.42-.86-.62-1.29l0-.11c-.18-.42-.35-.84-.51-1.27l0-.09a23,23,0,0,1-.85-2.83.64.64,0,0,1,0-.07c-.1-.43-.19-.86-.27-1.3l-.06-.36-.15-1.05c0-.15,0-.3,0-.45l-.09-1,0-.43c0-.48,0-1,0-1.46a30,30,0,0,1,.34-4.48c1-7.28,4.62-14.87,10.43-22.3,1.4-1.8,2.94-3.59,4.6-5.36.32,0,.64,0,.95,0s.77,0,1.15,0l.84,0,1.06-.06.88-.07,1-.1.94-.09.87-.11.83-.11.72-.1,1.26-.19,1.18-.2L63.4,162l.59-.12.93-.19.91-.2.8-.19,1.08-.25,1.67-.44.08,0,1-.27,1.28-.38,1-.29.49-.14.91-.3,1-.34.77-.25.43-.16.13,0,1-.35,1.16-.42.79-.31.24-.09,1.62-.63,1-.44.75-.31,0,0,.76-.33,1-.42.49-.22,1.12-.52,1.06-.5,1.36-.66.34-.17.78-.39,1-.51.45-.24h0l1-.52c.5-.26,1-.54,1.47-.81l.86-.48,1.65-1,.59-.35,1.11-.7.35-.22.69-.44.48-.32.22-.15.33-.22,1-.68.73-.52c.41-.29.82-.58,1.22-.88l.76-.57c.37-.28.74-.55,1.09-.83l.74-.59,1-.82.7-.6c.32-.27.62-.55.92-.82s.44-.39.64-.59.52-.49.77-.73l0,0,.06-.06.56-.56.44-.45.7.1.25,0,.86.18.35.1a7,7,0,0,1,3.11,1.54c.7.7,1.28,2.35,1.56,4.83a68,68,0,0,0-11.57,15.53C98.43,174,94,189.73,94,203.41c0,.32,0,.63,0,1-9.5,9.3-19.51,14.95-29,16.32-8.83,1.28-16.62-1.16-22.54-7.07A25.71,25.71,0,0,1,37.85,207.29Z"/></svg>