<svg id="Layer_1" data-name="Layer 1" xmlns="http://www.w3.org/2000/svg" viewBox="0 0 256 251.24"><defs><style>.cls-1{fill:#847147;}.cls-2{fill:#c2a971;}.cls-3{fill:#544a3a;}.cls-4{fill:#ffe86b;}</style></defs><path class="cls-1" d="M122.33,148.15a77.15,77.15,0,0,1-2.79,18.76c-4.2,15.79-12.12,30.34-21.71,39.93-10.38,10.38-21.5,16.69-32.16,18.23-10.13,1.47-19.47-1.49-26.31-8.33s-9.8-16.18-8.34-26.31c1.55-10.66,7.85-21.78,18.24-32.17h0c9.77-9.77,24.16-17.84,39.46-22.14,11.27-3.16,25.22-4.64,30.56.7C121.48,139,122.33,143.21,122.33,148.15Zm-87.25,47.4a24.87,24.87,0,0,0,7.41,18.06C48.4,219.52,56.2,222,65,220.68c9.71-1.4,20-7.28,29.67-17,9-9,16.54-22.88,20.55-37.93,3.88-14.54,2.85-23.85.89-25.81-2.68-2.69-12.55-3.4-26.22.44-14.59,4.09-28.27,11.75-37.52,21-9.71,9.7-15.58,20-17,29.67A30,30,0,0,0,35.08,195.55Z"/><path class="cls-2" d="M37.12,209.81c-1.44-1.72-1.95-4.18-2.52-6.31A48.79,48.79,0,0,1,33.2,196a26.33,26.33,0,0,1,2.24-13.27,31.32,31.32,0,0,1,4.14-6.86c.44-.57-.47-1.2-1-.75a18.16,18.16,0,0,0-4,5.64,33.19,33.19,0,0,0-2.38,6.56c-1.3,5.23-.64,10.59.69,15.74.68,2.63,1.34,5.53,3.32,7.51a.57.57,0,0,0,.83-.78Z"/><path class="cls-3" d="M119.54,166.91a77.15,77.15,0,0,0,2.79-18.76,23,23,0,0,0-1.37-8.71h0s1.35,5.5-.24,16c-1.34,8.75-6.43,25.4-11.91,34.2-12.08,19.36-34,40.11-60.09,33.42a31.5,31.5,0,0,0,17,2c10.66-1.54,21.78-7.85,32.16-18.23C107.42,197.25,115.34,182.7,119.54,166.91Z"/><path class="cls-2" d="M54.31,223.09c4.67.26,9.54.59,14.16-.25a40.66,40.66,0,0,0,8.89-3,54.51,54.51,0,0,0,13.87-9.19A58.62,58.62,0,0,0,101.37,199a.48.48,0,0,0-.79-.55,69.37,69.37,0,0,1-17.41,16.64,47.48,47.48,0,0,1-13.49,6.1c-5,1.32-10.25.71-15.33.8a.57.57,0,0,0,0,1.14Z"/><path class="cls-4" d="M40,216a34.26,34.26,0,0,0,26.83,7.86,28.2,28.2,0,0,0,8.07-2.44c.62-.29.19-1.39-.47-1.13a33,33,0,0,1-17.81,2.09A38.32,38.32,0,0,1,48.33,220a42.18,42.18,0,0,1-7.9-4.48c-.33-.22-.73.22-.41.49Z"/><path class="cls-4" d="M32.42,197.94c0-.16,0-.33,0-.49V197c0-.2,0-.4-.05-.6a1,1,0,0,0-.19-.52.31.31,0,0,0-.48,0,1.32,1.32,0,0,0-.22.75,3.26,3.26,0,0,0,0,.54c0,.29.06.59.09.89a.43.43,0,0,0,.5.35.45.45,0,0,0,.36-.49Z"/><path class="cls-1" d="M138,145.22a76.72,76.72,0,0,1,11.18,15.08c8.1,14,12.74,29.7,12.74,43.11,0,14.53-3.37,26.72-9.74,35.25-6.06,8.11-14.66,12.58-24.23,12.58s-18.18-4.47-24.24-12.58C97.38,230.13,94,217.94,94,203.41h0c0-13.68,4.42-29.38,12.12-43.09,5.67-10.1,14.39-20.88,21.86-20.88C131.06,139.44,134.59,141.77,138,145.22ZM110.17,239.4A24.61,24.61,0,0,0,128,246.85c8.27,0,15.43-3.74,20.71-10.81,5.81-7.77,8.87-19.06,8.87-32.63,0-12.66-4.43-27.58-12.15-40.91C138,149.62,130.73,143.82,128,143.82c-3.76,0-11.16,6.41-18,18.65-7.34,13.07-11.55,28-11.55,40.94,0,13.57,3.07,24.86,8.87,32.63A30.73,30.73,0,0,0,110.17,239.4Z"/><path class="cls-2" d="M121.58,248c-2.22-.2-4.3-1.56-6.18-2.66a48.68,48.68,0,0,1-6.21-4.25,26,26,0,0,1-7.71-10.85,30.84,30.84,0,0,1-1.91-7.69c-.09-.71-1.17-.51-1.2.14a18,18,0,0,0,1.18,6.72,32.91,32.91,0,0,0,2.92,6.25c2.75,4.57,7,7.86,11.5,10.53,2.31,1.36,4.8,2.93,7.57,2.93a.56.56,0,0,0,0-1.12Z"/><path class="cls-3" d="M152.22,238.66c6.37-8.53,9.74-20.72,9.74-35.25,0-13.41-4.64-29.13-12.74-43.11A76.72,76.72,0,0,0,138,145.22a26.2,26.2,0,0,0-5.72-4.5l-1-.48s20,15.26,27.47,47.74-8,58.47-30.83,63.26C137.56,251.24,146.16,246.77,152.22,238.66Z"/><path class="cls-2" d="M142.89,245.22c3.44-3.08,7.08-6.26,9.72-10.08a40.58,40.58,0,0,0,4.13-8.32A54.47,54.47,0,0,0,160,210.69a57.5,57.5,0,0,0-1.09-15.26.47.47,0,0,0-.93.16,68.56,68.56,0,0,1-.54,23.82,46.66,46.66,0,0,1-5.17,13.7c-2.55,4.39-6.68,7.67-10.17,11.28a.57.57,0,0,0,.78.83Z"/><path class="cls-4" d="M127.91,250.23A33.87,33.87,0,0,0,152.17,237a28.2,28.2,0,0,0,4-7.35c.22-.65-.85-1.11-1.13-.47a32.66,32.66,0,0,1-11,13.93,37.93,37.93,0,0,1-7.49,4.13,41.73,41.73,0,0,1-8.65,2.4c-.39.07-.36.66,0,.62Z"/><path class="cls-4" d="M110,242.94l-.36-.32-.09-.08,0,0,0,0-.18-.17a4.19,4.19,0,0,0-.45-.39,1,1,0,0,0-.49-.22.31.31,0,0,0-.36.31,1.32,1.32,0,0,0,.38.68,2.64,2.64,0,0,0,.39.36l.69.55a.43.43,0,0,0,.6-.09.45.45,0,0,0-.1-.6Z"/><path class="cls-1" d="M148.58,134.07a77.15,77.15,0,0,1,18.7,2.78c15.74,4.19,30.25,12.08,39.8,21.64,10.35,10.35,16.64,21.44,18.18,32.06,1.46,10.1-1.49,19.41-8.31,26.23s-16.13,9.76-26.22,8.3c-10.63-1.54-21.71-7.82-32.07-18.17h0c-9.74-9.75-17.78-24.08-22.06-39.34-3.16-11.23-4.63-25.14.69-30.45C139.48,134.92,143.66,134.07,148.58,134.07Zm47.25,87a24.81,24.81,0,0,0,18-7.39c5.89-5.89,8.33-13.66,7-22.46-1.4-9.68-7.25-19.9-16.92-29.57-9-9-22.81-16.5-37.82-20.49-14.49-3.86-23.76-2.85-25.72-.89-2.68,2.68-3.39,12.51.44,26.14,4.08,14.54,11.71,28.18,20.93,37.4,9.67,9.67,19.9,15.52,29.57,16.93A31.18,31.18,0,0,0,195.83,221Z"/><path class="cls-2" d="M210.05,219c-1.72,1.44-4.18,2-6.3,2.52a49.62,49.62,0,0,1-7.45,1.39,26.25,26.25,0,0,1-13.22-2.23,31.18,31.18,0,0,1-6.85-4.12c-.56-.45-1.19.46-.75.95a18.08,18.08,0,0,0,5.63,4,33.77,33.77,0,0,0,6.53,2.37c5.22,1.3,10.56.64,15.7-.69,2.61-.68,5.51-1.33,7.48-3.3a.57.57,0,0,0-.77-.84Z"/><path class="cls-2" d="M223.28,201.87c.26-4.65.59-9.51-.25-14.11a40.65,40.65,0,0,0-3-8.87,54.3,54.3,0,0,0-9.16-13.82A58.15,58.15,0,0,0,199.23,155a.48.48,0,0,0-.55.78,69.14,69.14,0,0,1,16.59,17.36,47.41,47.41,0,0,1,6.08,13.44c1.31,4.95.7,10.22.79,15.28a.57.57,0,0,0,1.14,0Z"/><path class="cls-3" d="M225.26,190.55c-1.54-10.62-7.83-21.71-18.18-32.06-9.55-9.56-24.06-17.45-39.8-21.64a77.15,77.15,0,0,0-18.7-2.78c-4.92,0-9.1.85-11.29,3.05,0,0,7.09-4.68,29.31,1.38,19.41,5.3,34.55,13.61,46.33,29,0,0,9.79,12.59,11.41,26,1,8.56-2.45,16-10,25.57a28.72,28.72,0,0,0,2.62-2.33C223.77,210,226.72,200.65,225.26,190.55Z"/><path class="cls-4" d="M216.18,216.12A34.19,34.19,0,0,0,224,189.37a28.31,28.31,0,0,0-2.43-8c-.3-.62-1.39-.19-1.13.47a33,33,0,0,1,2.09,17.75,38.3,38.3,0,0,1-2.39,8.28,42.49,42.49,0,0,1-4.46,7.88c-.23.33.21.72.48.41Z"/><path class="cls-4" d="M198.21,223.7l-.49,0h-.4a4.17,4.17,0,0,0-.61,0,1,1,0,0,0-.51.19.31.31,0,0,0,0,.48,1.3,1.3,0,0,0,.75.22,3.08,3.08,0,0,0,.53,0l.89-.1a.42.42,0,0,0,.35-.49.44.44,0,0,0-.49-.35Z"/><path class="cls-1" d="M206.19,163.42c15.12,0,27.81-3.51,36.7-10.15C251.34,147,256,138,256,128s-4.66-19-13.11-25.27c-8.89-6.64-21.58-10.15-36.7-10.15-14.22,0-30.55,4.6-44.81,12.61-10.52,5.91-21.76,15-21.76,22.81C139.62,140,175.56,163.42,206.19,163.42Zm0-66c14.07,0,25.77,3.17,33.82,9.19,7.31,5.46,11.18,12.86,11.18,21.41S247.32,144,240,149.41c-8,6-19.75,9.19-33.82,9.19-13.13,0-28.59-4.59-42.43-12.6-13.33-7.73-19.33-15.18-19.33-18C144.43,119.67,174.47,97.4,206.19,97.4Z"/><path class="cls-2" d="M222.55,95.63a29.23,29.23,0,0,1,9.51,2.29,50.81,50.81,0,0,1,9.29,5,28.51,28.51,0,0,1,6.88,6.31,29.53,29.53,0,0,1,4.52,9.28,21.55,21.55,0,0,1,1,9c-.09.59-1.11.55-1.07-.07a24.08,24.08,0,0,0-.95-7.4,29.63,29.63,0,0,0-3.94-8.84c-3.58-5.35-9.64-8.95-15.44-11.45a48.66,48.66,0,0,0-9.9-3.19.43.43,0,0,1,.12-.86Z"/><path class="cls-3" d="M110.17,239.4a30.73,30.73,0,0,1-2.9-3.36c-5.8-7.77-8.87-19.06-8.87-32.63,0-12.95,4.21-27.87,11.55-40.94,6.88-12.24,14.28-18.65,18-18.65,0,0-1.07-1.88-8.46,3.75S98.71,176.63,97.1,198.21,104,249.08,128,246.85A24.61,24.61,0,0,1,110.17,239.4Z"/><path class="cls-3" d="M188.27,98.14s-20.62,4.83-32,14.48c-10,8.54-10.88,9.39-11.57,13.55.62-1.73,2.45-4.71,7.64-9A86.86,86.86,0,0,1,187,99.93a79,79,0,0,1,16.18-2.46c.66-.53,1.3-1.06,1.92-1.6A56.73,56.73,0,0,0,188.27,98.14Z"/><path class="cls-3" d="M252.36,123.17c-.28-3.48-1.75-10.19-9.69-17.12a41.68,41.68,0,0,0-13.93-7.33,83.36,83.36,0,0,0-17.87-2.62c-.47.48-.83.9-1.32,1.36,13.1.65,23.24,3.74,30.46,9.13s11.18,12.86,11.18,21.41a25.42,25.42,0,0,1-2.56,11.26C251.66,135.81,252.73,127.88,252.36,123.17Z"/><path class="cls-3" d="M144.43,128c.11-.68.2-1.28.29-1.83A3.53,3.53,0,0,0,144.43,128Z"/><path class="cls-2" d="M247.54,145.71c-4.31,5.63-10.89,9.48-17.49,11.87A63.61,63.61,0,0,1,206.82,161a64.41,64.41,0,0,1-13.91-1.64.57.57,0,0,1,.24-1.12c4,.36,7.94.91,11.94,1.1a72,72,0,0,0,11.84-.36,53.53,53.53,0,0,0,19.66-6.13A57.07,57.07,0,0,0,247,145.21a.37.37,0,0,1,.53.5Z"/><path class="cls-4" d="M59.73,150.73c2.26-2.45,15-9.69,18.3-9.66.51,0,.47.76,0,.85-3.94.73-15.48,7.14-18,9.17a.25.25,0,0,1-.34-.36Z"/><path class="cls-4" d="M243.08,103.92a23.61,23.61,0,0,1,4.16,3.37,17.63,17.63,0,0,1,3.29,4.29.37.37,0,0,1-.62.39c-1.14-1.33-2.19-2.73-3.42-4a35.26,35.26,0,0,0-3.92-3.4c-.43-.33.06-1,.51-.67Z"/><path class="cls-4" d="M179.16,156.7a23.47,23.47,0,0,1-5.09-1.65,17.84,17.84,0,0,1-4.61-2.82c-.32-.28.08-.78.44-.59,1.54.83,3,1.77,4.62,2.49a35.09,35.09,0,0,0,4.88,1.77c.52.15.29.9-.24.8Z"/><path class="cls-4" d="M106.62,163a23.57,23.57,0,0,1,2.07-4.94,17.62,17.62,0,0,1,3.18-4.37c.31-.29.78.14.55.49-1,1.47-2,2.86-2.85,4.4a35.16,35.16,0,0,0-2.16,4.71.42.42,0,0,1-.79-.29Z"/><path class="cls-4" d="M254,135.69a25.57,25.57,0,0,1-4.2,9,23.29,23.29,0,0,1-7.18,6.9c-.44.24-.78-.44-.43-.74,1.24-1.07,2.54-2.05,3.71-3.2A31.54,31.54,0,0,0,249,144a35.84,35.84,0,0,0,4.5-8.47.25.25,0,0,1,.47.15Z"/><path class="cls-4" d="M239.7,102.19a1,1,0,0,0-.17-.18l.06,0a.66.66,0,0,0-.17-.12l-.08-.06-.09-.06-.05,0a.2.2,0,0,1,0-.09.25.25,0,0,1,0-.17l.07-.11a.27.27,0,0,1,.19-.06l.24,0,.14.07.07.05a1.34,1.34,0,0,1,.31.27.33.33,0,0,1,.07.23.3.3,0,0,1-.1.21.3.3,0,0,1-.23.07.32.32,0,0,1-.2-.1Z"/><path class="cls-3" d="M113.33,131.31c-1.58,2.87-4.19,5.06-6.66,7.14a96.29,96.29,0,0,1-16.93,11.42,95.08,95.08,0,0,1-66.17,8.66,1.67,1.67,0,0,0-1,.06c7.64,3.17,16.87,4.83,27.24,4.83,27.5,0,59.28-18.87,65.48-31.42C116,130.57,114.7,128.81,113.33,131.31Z"/><path class="cls-1" d="M49.81,163.42c-15.12,0-27.81-3.51-36.7-10.15C4.66,147,0,138,0,128s4.66-19,13.11-25.27C22,96.09,34.69,92.58,49.81,92.58c14.22,0,30.55,4.6,44.81,12.61,10.52,5.91,21.76,15,21.76,22.81C116.38,140,80.44,163.42,49.81,163.42Zm0-66C35.74,97.4,24,100.57,16,106.59,8.68,112.05,4.81,119.45,4.81,128S8.68,144,16,149.41c8,6,19.75,9.19,33.82,9.19,13.13,0,28.59-4.59,42.43-12.6,13.33-7.73,19.33-15.18,19.33-18C111.57,119.67,81.53,97.4,49.81,97.4Z"/><path class="cls-1" d="M209.25,97.76C219.94,87.07,226.43,75.62,228,64.64c1.52-10.44-1.54-20.08-8.59-27.14s-16.7-10.11-27.14-8.59c-11,1.59-22.44,8.08-33.12,18.77-10.06,10.06-18.36,24.85-22.78,40.6-3.26,11.61-4.78,26,.75,31.51C145.63,128.28,187.59,119.43,209.25,97.76ZM162.57,51.08c10-9.95,20.46-16,30.41-17.41,9-1.31,17,1.19,23,7.24s8.55,14,7.24,23c-1.44,10-7.46,20.46-17.41,30.41-9.29,9.29-23.47,17-38.92,21.09-14.89,4-24.4,2.94-26.39.94C134.64,110.5,140.13,73.51,162.57,51.08Z"/><path class="cls-3" d="M161.63,120.1A102.65,102.65,0,0,0,182.88,113c10.81-5.18,21.28-12.65,24.18-15.34,6.21-5.76,12.82-14.68,17.29-21.87a1.68,1.68,0,0,1,.74-.67c-3.15,7.65-8.51,15.34-15.84,22.67-5.32,5.32-15.18,12.39-27.07,17.5-10,4.29-21.72,7.54-29.86,7.62a63.5,63.5,0,0,1-9.28-.42,11.64,11.64,0,0,1-5.9-2.67S146.07,123.47,161.63,120.1Z"/><path class="cls-2" d="M172.88,38.26a29.29,29.29,0,0,1,8.35-5.09,50.42,50.42,0,0,1,10.06-3.08,28.46,28.46,0,0,1,9.34-.4,29.22,29.22,0,0,1,9.75,3.37,21.37,21.37,0,0,1,7,5.65c.36.48-.39,1.17-.81.71a23.79,23.79,0,0,0-5.89-4.56,29.49,29.49,0,0,0-9-3.46c-6.32-1.25-13.15.48-19,2.82A48.64,48.64,0,0,0,173.41,39a.44.44,0,0,1-.53-.7Z"/><path class="cls-3" d="M35.08,195.55a30,30,0,0,1,.34-4.48c1.4-9.71,7.27-20,17-29.67,9.25-9.25,22.93-16.91,37.52-21,10.66-3,19-3.22,23.44-1.9h0s-6-2.87-15-1.45-28.54,5.51-47.62,23.89c-14.08,13.57-21.86,32.78-12.88,46.35h0A25.3,25.3,0,0,1,35.08,195.55Z"/><path class="cls-2" d="M226,56c.94,7-1,14.41-4,20.76a63.24,63.24,0,0,1-14,18.86,64,64,0,0,1-11,8.69.58.58,0,0,1-.62-1c3.07-2.56,6.26-5,9.22-7.66a72.05,72.05,0,0,0,8.12-8.63,53.55,53.55,0,0,0,9.57-18.24,57.52,57.52,0,0,0,2-12.78.36.36,0,0,1,.72,0Z"/><path class="cls-4" d="M193.26,29.61a23.31,23.31,0,0,1,5.33-.55,17.57,17.57,0,0,1,5.35.7.37.37,0,0,1-.16.71c-1.75-.13-3.47-.38-5.23-.4a35.76,35.76,0,0,0-5.17.37.42.42,0,0,1-.12-.83Z"/><path class="cls-4" d="M223.44,44.36a25.44,25.44,0,0,1,3.37,9.31,23.34,23.34,0,0,1-.2,9.95c-.14.49-.86.25-.83-.21.12-1.64.35-3.26.36-4.9a30.26,30.26,0,0,0-.33-4.75A35.27,35.27,0,0,0,223,44.59a.25.25,0,0,1,.44-.23Z"/><path class="cls-4" d="M189.65,30.78a1,1,0,0,0-.25,0h.08l-.21,0h-.1l-.1,0H189a.16.16,0,0,1-.09,0,.28.28,0,0,1-.13-.11.51.51,0,0,1,0-.13.25.25,0,0,1,.08-.18l.21-.13a.34.34,0,0,1,.14-.05l.08,0a1.19,1.19,0,0,1,.42,0,.35.35,0,0,1,.21.1.31.31,0,0,1,.07.22.32.32,0,0,1-.1.21.3.3,0,0,1-.22.08Z"/><path class="cls-3" d="M138.34,93c-.78,3.74-1.12,7.58-.94,15.27.13,5.77,3.14,8.13,3.14,8.13a7.49,7.49,0,0,1-1.75-4,40.8,40.8,0,0,1,0-11.58,79.84,79.84,0,0,1,2.55-12.37A83.49,83.49,0,0,1,162.69,51c9.94-9.94,20.44-15.95,30.37-17.39,9-1.31,17,1.19,23,7.22a25.18,25.18,0,0,1,7.41,15.62c.55-3.86-.77-7.68-2.73-11a33.83,33.83,0,0,0-7.38-8.7c-7.53-6.23-18.43-6.75-27.54-3.42a76.65,76.65,0,0,0-17.37,9.85A84,84,0,0,0,145.15,73,91.18,91.18,0,0,0,138.34,93Z"/><path class="cls-1" d="M128,116.38c-12,0-35.43-35.94-35.43-66.57,0-15.11,3.51-27.8,10.15-36.69C109,4.66,118,0,128,0s19,4.66,25.28,13.12c6.64,8.89,10.15,21.58,10.15,36.69,0,14.22-4.59,30.55-12.6,44.8C144.92,105.14,135.82,116.38,128,116.38Zm0-111.5c-8.53,0-15.92,3.86-21.37,11.16-6,8-9.18,19.72-9.18,33.77C97.45,62.93,102,78.38,110,92.2c7.72,13.31,15.15,19.3,18,19.3,8.32,0,30.55-30,30.55-61.69,0-14.05-3.17-25.73-9.18-33.77C143.92,8.74,136.53,4.88,128,4.88Z"/><path class="cls-2" d="M95.06,44.83C96.3,39.46,96.91,34,98.41,28.66a40.23,40.23,0,0,1,7.24-14.74c6.94-8.47,18.3-12.94,29-9.74A27.47,27.47,0,0,1,143,8.42a37.68,37.68,0,0,1,6.91,6.44.49.49,0,0,0,.76-.62A30.07,30.07,0,0,0,137.21,3.43,27.28,27.28,0,0,0,120,2.6,30.71,30.71,0,0,0,106.13,11a38.13,38.13,0,0,0-8.37,14.49,72.9,72.9,0,0,0-3.58,19.23.44.44,0,0,0,.88.11Z"/><path class="cls-2" d="M155.87,23.24c1.27,4.63,2.68,9.18,3.6,13.9a85.86,85.86,0,0,1,1.58,14,.7.7,0,0,0,1.39,0,79.46,79.46,0,0,0-1.38-14.44A54,54,0,0,0,156.77,23c-.23-.45-1-.28-.9.26Z"/><path class="cls-3" d="M150.83,94.61c8-14.25,12.6-30.58,12.6-44.8,0-11.24-2-21.14-5.67-29.13.19.57.38,1.15.55,1.74.44,1.54.81,3.09,1.14,4.66.68,3.32,1.18,6.67,1.53,10,.32,3.09.54,6.2.56,9.32a104.3,104.3,0,0,1-.67,11.17c-1.53,15.42-8.43,34.33-17.63,46.79-3.58,4.84-4.2,4.95-8.74,8.92a18.3,18.3,0,0,1-6.5,3.06C136.85,115.78,145.1,104.81,150.83,94.61Z"/><path class="cls-3" d="M110,92.2c-8-13.82-12.59-29.27-12.59-42.39,0-14.05,3.17-25.73,9.18-33.77C112.08,8.74,119.47,4.88,128,4.88a25.17,25.17,0,0,1,16.28,5.8c-2.34-3.12-6-4.89-9.7-5.84a33.75,33.75,0,0,0-11.37-.93c-9.73.92-17.81,8.26-21.89,17.05A76.66,76.66,0,0,0,96,40.21c-.77,5.8-.47,28.79,9.46,47,1.82,3.35,10.23,16.32,15.79,21.63,4.18,4,6.75,2.63,6.75,2.63s-3.43-1-5-2.72C116.26,101.75,114.8,100.41,110,92.2Z"/><path class="cls-4" d="M95,32.45a65.35,65.35,0,0,0-1.46,11.67c-.09,1.82-.13,3.65-.1,5.47a35.79,35.79,0,0,0,.38,6,.27.27,0,0,0,.54,0c0-1.91-.2-3.82-.24-5.73s0-4,.12-6A108.28,108.28,0,0,1,95.7,32.57a.35.35,0,0,0-.68-.12Z"/><path class="cls-4" d="M117.23,2.53a28.07,28.07,0,0,0-15.52,14.12c-.32.64.75,1,1.06.37a29.14,29.14,0,0,1,14.79-13.7.43.43,0,0,0-.33-.79Z"/><path class="cls-4" d="M147.59,9.6a6,6,0,0,1,.68.54l-.1-.09c.17.16.33.33.48.5l.22.27c.07.08.16.16.24.24a.47.47,0,0,0,.61.11.46.46,0,0,0,.19-.59,2.68,2.68,0,0,0-.36-.58,5.39,5.39,0,0,0-.39-.43,6.22,6.22,0,0,0-1-.81.51.51,0,0,0-.72.12.52.52,0,0,0,.12.72Z"/><path class="cls-1" d="M108.12,122.92a79.31,79.31,0,0,1-19.32-2.87c-16.25-4.33-31.24-12.47-41.11-22.35C37,87,30.5,75.56,28.91,64.58c-1.51-10.42,1.54-20,8.58-27.09S54.16,27.4,64.58,28.91C75.56,30.5,87,37,97.7,47.69h0c10.07,10.06,18.38,24.87,22.8,40.63,3.25,11.61,4.78,26-.72,31.46C117.52,122.05,113.2,122.92,108.12,122.92ZM59.31,33.09a25.63,25.63,0,0,0-18.59,7.63c-6.08,6.09-8.6,14.11-7.29,23.21,1.45,10,7.5,20.55,17.49,30.54,9.32,9.32,23.56,17,39.06,21.17,15,4,24.55,2.93,26.57.91,2.76-2.76,3.5-12.92-.45-27-4.22-15-12.1-29.1-21.63-38.63-10-10-20.55-16-30.54-17.49A33.31,33.31,0,0,0,59.31,33.09Z"/><path class="cls-2" d="M44.62,35.19c1.78-1.49,4.32-2,6.51-2.59a49,49,0,0,1,7.7-1.44,27.1,27.1,0,0,1,13.66,2.3,32.52,32.52,0,0,1,7.06,4.26c.59.46,1.24-.48.78-1a18.69,18.69,0,0,0-5.82-4.07,34.19,34.19,0,0,0-6.74-2.46c-5.39-1.33-10.91-.66-16.22.72-2.7.7-5.69,1.37-7.73,3.41a.59.59,0,0,0,.8.86Z"/><path class="cls-3" d="M40.72,40.72a25.63,25.63,0,0,1,18.59-7.63,33.31,33.31,0,0,1,4.62.34c10,1.45,20.55,7.5,30.54,17.49,9.42,9.42,17.23,23.3,21.48,38.14a1.31,1.31,0,0,0,.3-1c-1-9-4.76-17.46-9.63-25a91.34,91.34,0,0,0-17.53-20c-6.73-5.72-14.64-10.53-23.47-12-8.51-1.4-17.56.14-24.32,5.76a26,26,0,0,0-7.78,11.32c-1.58,4.43-2.25,9.91-.25,14.32C32.39,54,35,46.49,40.72,40.72Z"/><path class="cls-2" d="M31,52.89c-.26,4.8-.61,9.82.27,14.58a41.25,41.25,0,0,0,3.08,9.15A56.57,56.57,0,0,0,43.76,90.9a60.53,60.53,0,0,0,12,10.44.5.5,0,0,0,.57-.81A71.26,71.26,0,0,1,39.23,82.6,48.86,48.86,0,0,1,33,68.72c-1.35-5.12-.73-10.56-.82-15.79a.59.59,0,0,0-1.18,0Z"/><path class="cls-4" d="M38.29,38.17a35.32,35.32,0,0,0-8.1,27.63,29,29,0,0,0,2.51,8.31c.31.64,1.44.19,1.17-.48a34,34,0,0,1-2.16-18.34,39.36,39.36,0,0,1,2.47-8.56,42.65,42.65,0,0,1,4.61-8.13c.23-.34-.22-.75-.5-.43Z"/><path class="cls-4" d="M56.85,30.34l.51,0h.42a4.3,4.3,0,0,0,.62,0,1.15,1.15,0,0,0,.53-.2.32.32,0,0,0,0-.49,1.32,1.32,0,0,0-.77-.23,3.51,3.51,0,0,0-.56,0l-.91.1a.46.46,0,0,0-.37.51.45.45,0,0,0,.51.36Z"/><path class="cls-2" d="M33.45,95.63a29.23,29.23,0,0,0-9.51,2.29,50.81,50.81,0,0,0-9.29,5,28.51,28.51,0,0,0-6.88,6.31,29.53,29.53,0,0,0-4.52,9.28,21.55,21.55,0,0,0-1,9c.09.59,1.11.55,1.07-.07a24.08,24.08,0,0,1,1-7.4,29.63,29.63,0,0,1,3.94-8.84c3.58-5.35,9.64-8.95,15.44-11.45a48.66,48.66,0,0,1,9.9-3.19.43.43,0,0,0-.12-.86Z"/><path class="cls-2" d="M8.46,145.71c4.31,5.63,10.89,9.48,17.49,11.87a60,60,0,0,0,17.14,3.35c2,.12,1.54-1.4-4-1.93a50.63,50.63,0,0,1-19.66-6.13A57.07,57.07,0,0,1,9,145.21a.37.37,0,0,0-.53.5Z"/><path class="cls-4" d="M12.92,103.92a23.61,23.61,0,0,0-4.16,3.37,17.63,17.63,0,0,0-3.29,4.29.37.37,0,0,0,.62.39c1.14-1.33,2.19-2.73,3.42-4a35.26,35.26,0,0,1,3.92-3.4c.43-.33-.06-1-.51-.67Z"/><path class="cls-4" d="M2,135.69a25.57,25.57,0,0,0,4.2,9,23.29,23.29,0,0,0,7.18,6.9c.44.24.78-.44.43-.74-1.24-1.07-2.54-2.05-3.71-3.2A31.54,31.54,0,0,1,7,144a35.84,35.84,0,0,1-4.5-8.47.25.25,0,0,0-.47.15Z"/><path class="cls-4" d="M16.3,102.19a1,1,0,0,1,.17-.18l-.06,0a.66.66,0,0,1,.17-.12l.08-.06.09-.06.05,0a.2.2,0,0,0,.05-.09.25.25,0,0,0,0-.17l-.07-.11a.27.27,0,0,0-.19-.06l-.24,0-.14.07-.07.05a1.34,1.34,0,0,0-.31.27.33.33,0,0,0-.07.23.3.3,0,0,0,.1.21.3.3,0,0,0,.23.07.32.32,0,0,0,.2-.1Z"/><path class="cls-3" d="M197,161c-11.69-1.21-24-5.73-35.38-11.73-3.61-1.91-13.38-8.21-11.08-6.44a114.86,114.86,0,0,0,12.08,8c14.26,8,29.37,12.41,43.59,12.41a84.26,84.26,0,0,0,14.59-1.22l.43.06s15.95-2.32,26-12.62c-1.37,1.34-8.12,7.41-20.58,10.24A101.56,101.56,0,0,1,197,161Z"/><path class="cls-3" d="M247.43,149.25l-.26.26Z"/><path class="cls-3" d="M207.49,218.3A27.45,27.45,0,0,1,195.83,221a31.18,31.18,0,0,1-4.47-.33c-9.67-1.41-19.9-7.26-29.57-16.93-9.22-9.22-16.85-22.86-20.93-37.4-3.83-13.63-3.12-23.46-.44-26.14.44-.44-4.58,1.07-3.28,12.84,2.48,22.68,11.22,40.17,24.79,52.95,8.93,8.42,19.19,14.09,28.16,15.57A25.24,25.24,0,0,0,207.49,218.3Z"/><path class="cls-3" d="M213.83,213.65a.08.08,0,0,0,0,0C218.36,209.73,219.72,207.76,213.83,213.65Z"/><path class="cls-3" d="M67.73,98.14a56.73,56.73,0,0,0-16.84-2.27l-6.84.23a73.81,73.81,0,0,0-16.79,2.62,41.68,41.68,0,0,0-13.93,7.33C5.39,113,3.92,119.69,3.64,123.17c-.37,4.71.7,12.64,3.73,16.09A25.29,25.29,0,0,1,4.81,128c0-8.55,3.87-16,11.18-21.41s17.37-8.5,29.53-9.08a70.29,70.29,0,0,1,7.29,0A79,79,0,0,1,69,99.93c8,1.25,21.32,8.38,21.32,8.38C84.77,102.36,67.73,98.14,67.73,98.14Z"/><path class="cls-3" d="M45.93,161.8a88.82,88.82,0,0,1-22.36-3.27l3.58,1.71a71.53,71.53,0,0,0,17.47,3Z"/><path class="cls-3" d="M114.06,134.07a16.8,16.8,0,0,0,1.22-2.06s-.71.74-1.94,1.9Z"/><path class="cls-3" d="M109,137.8h0a119.48,119.48,0,0,1-13.23,9.61A119.83,119.83,0,0,1,69,159.05a74.63,74.63,0,0,1-16.93,2.68l-1.65,1.68c23.22-.25,49.3-13.74,60.42-25.43Z"/><path class="cls-3" d="M114.61,122.28l-1.18.24C113.83,122.45,114.22,122.37,114.61,122.28Z"/><path class="cls-3" d="M107.93,121.32h0c-.78,0-1.56,0-2.33,0a58.55,58.55,0,0,1-10.4-1.19c-13.87-2.82-26.32-9.86-38-17.66q-7.83-5.26-15.3-11.06,2.64,3.19,5.75,6.31c9.87,9.88,24.86,18,41.11,22.35a79.31,79.31,0,0,0,19.32,2.87h1.1Z"/><path class="cls-3" d="M120.61,116.12a5.41,5.41,0,0,1-1.77,2.43,11.2,11.2,0,0,1-3.89,1.81c-.44.14-.88.26-1.33.37h0l1,1.55a10.69,10.69,0,0,0,5.15-2.5C121.8,117.8,121.39,114.36,120.61,116.12Z"/><path class="cls-1" d="M41.94,92.92s8.16-.36,8.88-.34l2.39,3.29s-8.2.16-10.08.29Z"/></svg>