<svg id="Layer_1" data-name="Layer 1" xmlns="http://www.w3.org/2000/svg" viewBox="0 0 77.32 47.78"><defs><style>.cls-1{fill:#847147;}.cls-2{fill:#c2a971;}.cls-3{fill:#544a3a;}.cls-4{fill:#ffe86b;}</style></defs><path class="cls-1" d="M6.22,9.07A23.49,23.49,0,0,1,8.87,6.79C14.79,2.36,23.21,0,33.22,0h0c9.38,0,20.14,3,29.52,8.3C66.16,10.24,77.32,17,77.32,23.9c0,8.3-23.36,23.88-44.1,23.88-10,0-18.43-2.34-24.35-6.76A21.06,21.06,0,0,1,0,23.9,20.67,20.67,0,0,1,6.22,9.07Zm63.4,18.86c1.91-1.91,2.79-3.38,2.79-4,0-1.75-3.27-6.36-12.07-11.3S41.78,4.93,33.22,4.93h0c-17.2,0-28.31,7.45-28.31,19s11.11,19,28.31,19c8.37,0,18.25-2.93,27.09-8.06A45.77,45.77,0,0,0,69.62,27.93Z"/><path class="cls-2" d="M37.09,44.91c-3.34-.48-6.71-.75-10.05-1.25-1.69-.24-3.38-.51-5.05-.85-1.38-.28-2.69-.82-4.08-1a4,4,0,0,1-1.52-.7L14.56,40c-1.28-.78-2.54-1.58-3.74-2.48a15.57,15.57,0,0,1-3.15-2.91,17.23,17.23,0,0,1-2.39-4.4A20.66,20.66,0,0,1,3.92,25a47,47,0,0,1-.12-5.44c0-.54-.78-.68-.85-.12a30.53,30.53,0,0,0-.37,5.23,24.87,24.87,0,0,0,.81,4.93A16,16,0,0,0,8.2,37.67a51.86,51.86,0,0,0,7.68,5.17A14.83,14.83,0,0,0,19.49,44a34.52,34.52,0,0,0,5.15,1,55.64,55.64,0,0,0,12.43.69.39.39,0,0,0,0-.76Z"/><path class="cls-3" d="M65.33,15.76c5.07,3.66,7.08,6.78,7.08,8.14,0,.65-.88,2.12-2.79,4a45.77,45.77,0,0,1-9.31,6.88c-8.84,5.13-18.72,8.06-27.09,8.06-8.86,0-16.1-2-21-5.47a1.52,1.52,0,0,0,.48,1.45c4.09,3.19,9,4.51,14.14,4.9,2.57.19,5.15.15,7.72.09s5.37-.12,8.05-.4a44.91,44.91,0,0,0,14.66-4.29,53.22,53.22,0,0,0,13.54-8.89,12.25,12.25,0,0,0,3-3.34,4.49,4.49,0,0,0-.33-4,20.53,20.53,0,0,0-5.67-7.14A1.81,1.81,0,0,0,65.33,15.76Z"/><path class="cls-3" d="M8.87,6.79A23.49,23.49,0,0,0,6.22,9.07,20.67,20.67,0,0,0,0,23.9,21.06,21.06,0,0,0,8.87,41a28.19,28.19,0,0,0,4,2.46C6,38.37,1.22,29.79,2.53,21.11A19.6,19.6,0,0,1,8,10.06c3.45-3.39,8.15-4.78,12.77-5.71,5.2-1.06,10.65-1.92,15.92-1,.93.17.13-.72.38-1.69C37.21,1.05,36.48.54,36,.11A14.13,14.13,0,0,0,33.22,0C23.21,0,14.79,2.36,8.87,6.79Z"/><path class="cls-4" d="M12.85,8.14a7.7,7.7,0,0,0-4,2.19,2.09,2.09,0,0,0-.6,1,.42.42,0,0,0,.22.52c.26.11.54-.12.74-.26a10.32,10.32,0,0,0,.82-.8,6.58,6.58,0,0,1,.87-.71A7.78,7.78,0,0,1,13.07,9a.45.45,0,0,0-.22-.85Z"/><path class="cls-4" d="M23.39,44.73A40.26,40.26,0,0,1,16,42.44a18.2,18.2,0,0,1-3.3-1.87,15.64,15.64,0,0,1-1.49-1.2c-.48-.44-.9-1-1.43-1.36s-1.14.29-.87.8a8.94,8.94,0,0,0,2.9,2.77,19.76,19.76,0,0,0,3.58,2,30.58,30.58,0,0,0,7.93,2,.41.41,0,0,0,.12-.81Z"/></svg>