<svg id="Layer_1" data-name="Layer 1" xmlns="http://www.w3.org/2000/svg" viewBox="0 0 117.07 71.28"><defs><style>.cls-1{fill:#847147;}.cls-2{fill:#c2a971;}.cls-3{fill:#544a3a;}.cls-4{fill:#ffe86b;}</style></defs><path class="cls-1" d="M117.07,35.64c0,12.09-36.15,35.64-67,35.64-15.21,0-28-3.53-36.91-10.2C4.69,54.72,0,45.69,0,35.64S4.69,16.56,13.2,10.21C22.14,3.53,34.9,0,50.11,0,64.42,0,80.84,4.62,95.18,12.67,105.77,18.62,117.07,27.78,117.07,35.64Zm-112.16,0c0,8.58,3.88,16,11.22,21.5,8.09,6,19.84,9.24,34,9.24,13.2,0,28.74-4.62,42.64-12.67,13.39-7.76,19.42-15.24,19.42-18.07,0-8.37-30.18-30.73-62.06-30.73-14.14,0-25.89,3.19-34,9.23C8.79,19.63,4.91,27.06,4.91,35.64Z"/><path class="cls-2" d="M45.1,68.78c-5.4-1.25-10.92-1.87-16.27-3.38A40.43,40.43,0,0,1,14,58.12c-8.52-7-13-18.41-9.79-29.21a27.48,27.48,0,0,1,4.33-8.42A38.26,38.26,0,0,1,15,13.62c.5-.41-.1-1.12-.62-.77A30.2,30.2,0,0,0,3.44,26.37a27.5,27.5,0,0,0-.87,17.24A30.74,30.74,0,0,0,11,57.55,38,38,0,0,0,25.37,66,72.47,72.47,0,0,0,45,69.66a.44.44,0,0,0,.11-.88Z"/><path class="cls-2" d="M23.38,7.6C28,6.33,32.62,4.92,37.37,4A88,88,0,0,1,51.47,2.4a.71.71,0,0,0,0-1.41A78.78,78.78,0,0,0,36.93,2.37,54.63,54.63,0,0,0,23.12,6.7c-.45.23-.28,1,.26.9Z"/><path class="cls-3" d="M95.18,12.67C80.84,4.62,64.42,0,50.11,0,38.8,0,28.84,2,20.8,5.71c.58-.2,1.16-.39,1.75-.56,1.55-.44,3.12-.82,4.69-1.14a98.48,98.48,0,0,1,10.1-1.54c3.11-.33,6.24-.55,9.37-.57A105.45,105.45,0,0,1,58,2.57a86.75,86.75,0,0,1,42.87,16.58A84.14,84.14,0,0,1,117,34.92C116.38,27.22,105.44,18.44,95.18,12.67Z"/><path class="cls-3" d="M92.75,53.71c-13.9,8-29.44,12.67-42.64,12.67-14.14,0-25.89-3.2-34-9.24C8.79,51.66,4.91,44.22,4.91,35.64a25.34,25.34,0,0,1,5.83-16.38c-3.13,2.36-4.91,6-5.87,9.76a33.92,33.92,0,0,0-.93,11.44c.92,9.79,8.3,17.92,17.15,22,5.28,2.46,10.27,4.45,16,5.21a128.85,128.85,0,0,0,17.66,1.2,58.36,58.36,0,0,0,17.36-2.72,89.29,89.29,0,0,0,15.71-6.9c8.4-4.57,16.77-10.22,21.6-18.57C106.47,44.24,101,48.92,92.75,53.71Z"/><path class="cls-3" d="M112.48,33.2a1.81,1.81,0,0,0-2.25-2.13,10.61,10.61,0,0,1,1.83,3.65C112.21,34.22,112.36,33.71,112.48,33.2Z"/><path class="cls-4" d="M32.64,68.82a67.19,67.19,0,0,0,11.74,1.47c1.84.09,3.67.13,5.51.1A36.15,36.15,0,0,0,56,70a.27.27,0,0,0,0-.53c-1.92,0-3.84.2-5.76.23s-4,0-6-.11a109.47,109.47,0,0,1-11.41-1.45.35.35,0,0,0-.12.68Z"/><path class="cls-4" d="M2.54,46.48A28.3,28.3,0,0,0,16.75,62.09c.64.32,1-.76.37-1.07A29.28,29.28,0,0,1,3.34,46.14a.43.43,0,0,0-.8.34Z"/><path class="cls-4" d="M9.66,15.94a5.2,5.2,0,0,1,.55-.69l-.1.1c.16-.17.33-.33.51-.49l.26-.21.25-.24a.48.48,0,0,0,.11-.62.48.48,0,0,0-.6-.19,2.68,2.68,0,0,0-.58.36c-.15.13-.3.26-.44.4a6.83,6.83,0,0,0-.81,1,.53.53,0,0,0,.12.73.55.55,0,0,0,.73-.12Z"/></svg>