<svg id="Layer_1" data-name="Layer 1" xmlns="http://www.w3.org/2000/svg" viewBox="0 0 107.28 65.49"><defs><style>.cls-1{fill:#847147;}.cls-2{fill:#544a3a;}.cls-3{fill:#c2a971;}.cls-4{fill:#ffe86b;}</style></defs><path class="cls-1" d="M101.31,21.92c3.57,3.57,6,7.33,6,10.82,0,11.11-33.11,32.75-61.33,32.75-13.93,0-25.62-3.24-33.82-9.36C4.31,50.29,0,42,0,32.74S4.31,15.2,12.13,9.36C20.33,3.24,32,0,46,0,59,0,74.07,4.23,87.19,11.6A66.75,66.75,0,0,1,101.31,21.92ZM11.9,49.47a29.24,29.24,0,0,0,3.17,2.73c7.34,5.48,18,8.38,30.88,8.38,28.42,0,56.42-21.78,56.42-27.84,0-3.47-6-10.38-17.58-16.87-12.41-7-26.56-11-38.84-11-12.86,0-23.54,2.9-30.88,8.38C8.42,18.26,4.91,25,4.91,32.74A23.11,23.11,0,0,0,11.9,49.47Z"/><path class="cls-2" d="M103.28,34.51c.81-1.76.62-3.81,0-3.08l-.93,1.06a2.11,2.11,0,0,1,0,.25c0,6.06-28,27.84-56.42,27.84-12.86,0-23.54-2.9-30.88-8.38a29.24,29.24,0,0,1-3.17-2.73A23.23,23.23,0,0,1,5.47,37.94a1.91,1.91,0,0,0-.6,1.82c.59,4,2.89,7.44,5.61,10.28a36,36,0,0,0,9,6.77c6.81,3.68,14.75,4.51,22.42,5.13a73.26,73.26,0,0,0,24.28-2.47c7.4-2,16.95-7.43,23.3-11.69C96.7,42.91,102.86,35.42,103.28,34.51Z"/><path class="cls-2" d="M12.8,11.27A27.8,27.8,0,0,1,23,5.4,84.51,84.51,0,0,1,35.54,2.51a107.14,107.14,0,0,1,23.13.24A41.5,41.5,0,0,1,68.85,5.17c3.25,1.21,6.39,2.66,9.58,4A75.1,75.1,0,0,1,89.91,15.1a69.85,69.85,0,0,1,10.16,8.06,1.72,1.72,0,0,0,2.41,0c-.38-.41-.76-.82-1.17-1.22A66.75,66.75,0,0,0,87.19,11.6C74.07,4.23,59,0,46,0,32,0,20.33,3.24,12.13,9.36a29.05,29.05,0,0,0-11.78,19C2.27,21.35,7.34,15.82,12.8,11.27Z"/><path class="cls-3" d="M28.77,60.43c-1.4-.69-3-1-4.42-1.61A41.54,41.54,0,0,1,20.2,57a34.79,34.79,0,0,1-7.64-5.19A29.91,29.91,0,0,1,6.87,44.9a36.5,36.5,0,0,1-2.82-6.2,19,19,0,0,1-.91-3.22,21.17,21.17,0,0,1-.08-4.57c0-.64-1-.89-1.14-.22-.56,2.4,0,5.21.46,7.58a24.06,24.06,0,0,0,2.3,6.3A32.58,32.58,0,0,0,18.09,57.76,38,38,0,0,0,23,60a19.94,19.94,0,0,0,5.38,1.49c.55,0,.9-.81.35-1.07Z"/><path class="cls-4" d="M38.74,63.36A68.75,68.75,0,0,1,30.81,62c-2.56-.6-5-1.47-7.58-2.14a.45.45,0,0,0-.33.83,34,34,0,0,0,7.92,2.38A49.83,49.83,0,0,0,38.7,64c.37,0,.41-.61,0-.65Z"/><path class="cls-4" d="M7.45,49.14a27,27,0,0,1-2.5-4C4.21,43.77,3.66,42.3,2.89,41c-.22-.39-.84-.09-.78.31A13.74,13.74,0,0,0,4,45.85a17,17,0,0,0,2.89,3.9c.35.35.92-.23.61-.61Z"/><path class="cls-4" d="M2.54,37.28v-.09a.79.79,0,0,0,0-.22l-.08-.12-.1-.09-.12-.06a.4.4,0,0,0-.19,0,.28.28,0,0,0-.13,0,.17.17,0,0,0-.12,0,.24.24,0,0,0-.11.09.42.42,0,0,0-.11.17l.08-.15h0a.09.09,0,0,0,0,.06.21.21,0,0,0,0,.06l0,.14v.18a.49.49,0,0,0,.05.27l.07.13a.78.78,0,0,0,.24.16.46.46,0,0,0,.2,0,.52.52,0,0,0,.21,0,.46.46,0,0,0,.17-.14.42.42,0,0,0,.11-.18.5.5,0,0,0,0-.27Z"/><path class="cls-3" d="M15.94,10.24a71,71,0,0,1,15.12-5A.4.4,0,0,0,31,4.49a40.75,40.75,0,0,0-15.4,4.89c-.53.28-.19,1.13.36.86Z"/></svg>