<svg id="Layer_1" data-name="Layer 1" xmlns="http://www.w3.org/2000/svg" viewBox="0 0 118.7 72.25"><defs><style>.cls-1{fill:#847147;}.cls-2{fill:#544a3a;}.cls-3{fill:#c2a971;}.cls-4{fill:#ffe86b;}</style></defs><path class="cls-1" d="M50.8,72.25c-15.42,0-28.36-3.58-37.43-10.35C4.75,55.46,0,46.3,0,36.12S4.75,16.79,13.37,10.35C22.44,3.58,35.38,0,50.8,0,65.31,0,82,4.69,96.51,12.85c10.73,6,22.19,15.31,22.19,23.27C118.7,48.37,82.05,72.25,50.8,72.25Zm0-67.34c-14.35,0-26.28,3.24-34.49,9.37C8.85,19.85,4.91,27.41,4.91,36.12S8.85,52.39,16.31,58c8.21,6.13,20.14,9.37,34.49,9.37,13.39,0,29.17-4.69,43.28-12.86,13.6-7.88,19.71-15.48,19.71-18.36C113.79,27.62,83.16,4.91,50.8,4.91Z"/><path class="cls-2" d="M118.7,36.12A13.11,13.11,0,0,0,116.09,29a1.75,1.75,0,0,0-.56,2.34c1.79,2.45,1.46,5.64.06,8.2-1.61,2.93-4.27,5.16-6.79,7.29A98.58,98.58,0,0,1,91.53,58.42,97.21,97.21,0,0,1,49.72,69.71,96.44,96.44,0,0,1,24,67.26a1.74,1.74,0,0,0-1,.06c7.79,3.24,17.2,4.93,27.78,4.93C82.05,72.25,118.7,48.37,118.7,36.12Z"/><path class="cls-2" d="M69.08,5.67A57.85,57.85,0,0,0,51.9,3.35c.64.55,1.29,1.1,2,1.63a80.58,80.58,0,0,1,16.5,2.51A1.73,1.73,0,0,0,69.08,5.67Z"/><path class="cls-2" d="M44.93,3.59A74.58,74.58,0,0,0,27.8,6.26a42.51,42.51,0,0,0-14.2,7.48C5.5,20.8,4,27.65,3.72,31.19c-.39,4.81.7,12.9,3.79,16.42a26,26,0,0,1-2.6-11.49c0-8.71,3.94-16.27,11.4-21.84S34,5.62,46.43,5C45.92,4.55,45.42,4.07,44.93,3.59Z"/><path class="cls-3" d="M34.12,3.1c-6.84.36-13.6,3.58-19.18,7.38a28.65,28.65,0,0,0-7.18,6.66,29.85,29.85,0,0,0-4.45,9.25,21.92,21.92,0,0,0-1,9.16c.08.6,1.13.56,1.09-.07a24.45,24.45,0,0,1,1-7.55,30.15,30.15,0,0,1,4-9c3.65-5.45,9.83-9.13,15.74-11.67A50,50,0,0,1,34.24,4a.44.44,0,0,0-.12-.88Z"/><path class="cls-3" d="M8.63,54.18C13,59.94,19.72,63.86,26.46,66.3a64.71,64.71,0,0,0,23.7,3.51,65.68,65.68,0,0,0,14.19-1.68A.59.59,0,0,0,64.1,67c-4.11.38-8.21.94-12.35,1.13a73.79,73.79,0,0,1-12.07-.4,54.7,54.7,0,0,1-20-6.3,58.48,58.48,0,0,1-10.5-7.73c-.31-.28-.8.17-.54.5Z"/><path class="cls-4" d="M13.18,11.56A23.82,23.82,0,0,0,8.94,15a18,18,0,0,0-3.36,4.37c-.2.39.36.72.64.4C7.38,18.42,8.44,17,9.7,15.71a35.56,35.56,0,0,1,4-3.47c.45-.34,0-1-.51-.68Z"/><path class="cls-4" d="M2.05,44a26.05,26.05,0,0,0,4.28,9.14,23.86,23.86,0,0,0,7.33,7c.45.25.79-.44.44-.75-1.27-1.09-2.6-2.1-3.79-3.27a31.68,31.68,0,0,1-3.19-3.66,36.61,36.61,0,0,1-4.59-8.65.25.25,0,0,0-.48.16Z"/><path class="cls-4" d="M16.63,9.8a1.46,1.46,0,0,1,.16-.19l-.05.06a1.09,1.09,0,0,1,.17-.13L17,9.48l.09-.06.06,0a.41.41,0,0,0,.05-.09.25.25,0,0,0,0-.17A.26.26,0,0,0,17.12,9a.23.23,0,0,0-.19-.07,1.11,1.11,0,0,0-.25.05l-.13.06-.08,0a1.64,1.64,0,0,0-.31.28.4.4,0,0,0-.08.23.33.33,0,0,0,.34.29.35.35,0,0,0,.21-.1Z"/></svg>