<svg id="Layer_1" data-name="Layer 1" xmlns="http://www.w3.org/2000/svg" viewBox="0 0 44.87 42.88"><defs><style>.cls-1{fill:#f1949b;}.cls-2{fill:#e06460;}.cls-3{fill:#f6acb5;}.cls-4{fill:#fceaec;}</style></defs><path class="cls-1" d="M25.31.62l-3,4.6L19.4.73c-2,1.45-3.33,4.37-3.33,8.13,0,5.47,6.34,10.88,6.34,10.88s6.38-5.39,6.39-10.86C28.8,5,27.38,2,25.31.62Z"/><path class="cls-2" d="M22.41,20.32l-.29-.24c-.26-.23-6.51-5.61-6.5-11.23,0-3.69,1.32-6.86,3.52-8.48l.38-.28,2.79,4.32L25.19,0l.37.26c2.31,1.58,3.68,4.8,3.68,8.62,0,5.61-6.27,11-6.54,11.2ZM19.29,1.38c-1.74,1.52-2.78,4.28-2.78,7.48,0,4.55,4.68,9.17,5.9,10.29,1.23-1.12,5.93-5.72,5.94-10.27,0-3.32-1.08-6.12-2.92-7.62L22.31,6Z"/><path class="cls-1" d="M2.29,13.12,5.74,17.4.57,18.78c.77,2.33,3.13,4.52,6.7,5.68,5.2,1.7,12.31-2.67,12.31-2.67s-3.15-7.73-8.36-9.43C7.55,11.16,4.28,11.59,2.29,13.12Z"/><path class="cls-1" d="M7.07,38.88l5.14-2-.29,5.35c2.46,0,5.26-1.58,7.47-4.62,3.23-4.42,1.27-12.54,1.27-12.54s-8.33.62-11.55,5C6.83,33.28,6.23,36.51,7.07,38.88Z"/><path class="cls-1" d="M33,42.29l-.27-5.48,5,1.92c.74-2.34.12-5.49-2.09-8.53-3.21-4.44-11.53-5.08-11.53-5.08s-2,8.11,1.22,12.54C27.64,40.79,30.53,42.36,33,42.29Z"/><path class="cls-1" d="M44.32,18.65,39,17.22l3.38-4.16c-2-1.44-5.19-1.82-8.76-.66-5.21,1.68-8.39,9.4-8.39,9.4s7.09,4.4,12.3,2.71C41.22,23.32,43.61,21.06,44.32,18.65Z"/><path class="cls-2" d="M15.9,24.05c-2.55,1-5.9,1.77-8.77.83-3.51-1.14-6.13-3.38-7-6L0,18.47l5-1.32-3.3-4.1L2,12.77c2.22-1.71,5.71-2,9.34-.83,5.34,1.75,8.5,9.36,8.63,9.68l.14.35-.31.2A25.81,25.81,0,0,1,15.9,24.05Zm-14.75-5c.92,2.13,3.21,4,6.26,5,4.32,1.42,10.16-1.62,11.61-2.43-.69-1.51-3.61-7.41-7.94-8.83-3.15-1-6.16-.86-8.15.43l3.59,4.44Z"/><path class="cls-2" d="M14.46,42.21a7.21,7.21,0,0,1-2.54.5h-.47l.28-5.14L6.81,39.45,6.66,39C5.72,36.39,6.5,33,8.75,29.89c3.31-4.54,11.53-5.19,11.87-5.22l.38,0,.09.36c.08.34,2,8.36-1.34,12.9A12.19,12.19,0,0,1,14.46,42.21Zm-2.07-.41C14.7,41.6,17.15,40,19,37.39c2.68-3.68,1.6-10.17,1.27-11.8-1.65.19-8.16,1.14-10.85,4.82-2,2.68-2.72,5.59-2.1,7.89l5.32-2Z"/><path class="cls-2" d="M33.51,42.72l-.45,0c-2.8.07-5.81-1.73-8-4.82C21.72,33.37,23.64,25.35,23.72,25l.09-.36.37,0c.35,0,8.57.71,11.86,5.26,2.17,3,3,6.33,2.15,8.93l-.15.44-4.8-1.85Zm-9-17.12c-.33,1.62-1.44,8.12,1.23,11.8,1.94,2.69,4.47,4.32,6.85,4.45l-.29-5.7,5.18,2c.51-2.26-.27-5.1-2.14-7.68C32.66,26.77,26.14,25.79,24.5,25.6Z"/><path class="cls-2" d="M38.43,24.67l-.75.26C32.33,26.66,25.3,22.36,25,22.17L24.68,22l.15-.35c.13-.32,3.36-7.94,8.66-9.65,3.52-1.14,6.94-.87,9.16.72L43,13l-3.25,4,5.09,1.37-.13.43C44,21.27,41.67,23.43,38.43,24.67ZM25.8,21.62c1.44.81,7.27,3.87,11.6,2.47,3.15-1,5.49-2.92,6.35-5.14l-5.51-1.48,3.5-4.31c-2-1.19-4.93-1.32-8-.34C29.42,14.2,26.49,20.11,25.8,21.62Z"/><path class="cls-3" d="M27.74,8.41c.16,2.61-2.79,8.5-5,9.36-1.43.55-5.21-5.35-2.58-4.88C24.45,13.65,27.44,3.69,27.74,8.41Z"/><path class="cls-3" d="M37.75,23.34c-2.44.93-8.95-.12-10.44-2-1-1.21,3.54-6.57,3.89-3.92C31.76,21.77,42.17,21.65,37.75,23.34Z"/><path class="cls-3" d="M27.39,37.75c-1.81-1.88-3.39-8.28-2.23-10.39.74-1.35,7.44.69,5.13,2C26.5,31.63,30.68,41.16,27.39,37.75Z"/><path class="cls-3" d="M18,37.31c1.71-2,3-8.44,1.69-10.49-.8-1.31-7.39,1.07-5,2.3C18.56,31.15,14.87,40.88,18,37.31Z"/><path class="cls-3" d="M6.87,23.35c2.41,1,8.94.12,10.49-1.74,1-1.18-3.38-6.66-3.79-4C12.89,21.94,2.49,21.55,6.87,23.35Z"/><path class="cls-4" d="M26.26,3.21s2.07,3.93,1.32,6S24.45-.21,26.26,3.21Z"/><path class="cls-4" d="M33.42,14s4.15-1.58,6.15-.58S29.8,15.36,33.42,14Z"/><path class="cls-4" d="M27.07,27.51s4.43.33,5.82,2.08S23.21,27.24,27.07,27.51Z"/><path class="cls-4" d="M18.53,27.45s-3.6,2.61-5.79,2.16S21.66,25.18,18.53,27.45Z"/><path class="cls-4" d="M16.44,20.12s-3.46-2.78-3.62-5S19.47,22.53,16.44,20.12Z"/><path class="cls-2" d="M17.7,10.58a12.25,12.25,0,0,0,1.17,3,13.07,13.07,0,0,0,2.72,3.83c.49.5.24-.55-1.63-3.91C18.29,10.52,17,7.91,17.7,10.58Z"/><path class="cls-2" d="M28.42,22.17a12.22,12.22,0,0,0,3.07,1.07,12.9,12.9,0,0,0,4.68.4c.69-.05-.27-.54-4.05-1.28C28.75,21.69,26,21,28.42,22.17Z"/><path class="cls-2" d="M25.54,35a7.64,7.64,0,0,0,1.69,3.13c1.23,1.46,4.09,3.22,3.67,2.66a24.81,24.81,0,0,0-2.64-3C26,35.3,25,32.44,25.54,35Z"/><path class="cls-2" d="M15.93,39.69a6.89,6.89,0,0,0,2.32-2.38A11.13,11.13,0,0,0,20,32.91c.17-.81-.34.21-2.32,3.5C15.86,39.36,13.51,41,15.93,39.69Z"/><path class="cls-2" d="M6.08,23.11a6.74,6.74,0,0,0,3.24.71A11.15,11.15,0,0,0,14,23c.78-.28-.36-.17-4.21-.13C6.33,22.87,3.68,21.74,6.08,23.11Z"/></svg>