<svg id="Layer_1" data-name="Layer 1" xmlns="http://www.w3.org/2000/svg" viewBox="0 0 128 85.49"><defs><style>.cls-1{fill:#231f20;}</style></defs><path class="cls-1" d="M106.53,29c1-1.1,2-5,.91-4.46.2,1.45-.62,2.77-1.16,4a.41.41,0,0,0-.54.17c-1.75,3.69-6.08,2.58-9.07,1.94-1.78-2-3.84-4.36-2.88-7.48-.21-.93,1.63-3,1-3.24-2.7,2.32-2.6,8.26.19,10.33a.52.52,0,0,0,0,.21,6.15,6.15,0,0,0,4.56,2.2c2.57,0,6-1,6.94-3.62Z"/><path class="cls-1" d="M100.45,30.57c7.6.11,7.6-11.81,0-11.71C92.86,18.76,92.86,30.68,100.45,30.57Zm0-10.82c6.44-.09,6.44,10,0,9.94C94,29.78,94,19.66,100.45,19.75Z"/><path class="cls-1" d="M104.38,22.36c-1-.76-1.85-1-1.69,1-1.23,1.24-2.36,4.44-4.88,2.6C97.48,31.5,107.72,27.4,104.38,22.36Z"/><path class="cls-1" d="M126,26.47c-2.76.5-6,1-7.09,4-.3.6-.93,1.81.13,2.13a21.3,21.3,0,0,1,7.91-3.85C128.87,27.74,127.9,26,126,26.47Z"/><path class="cls-1" d="M115.56,36c-2.37-.79-1.9,1-.26,1.38h-.07c1.76,1,7.44.53,10.39-.25,1-1.33-2.08-.11-2.7-.14a13.85,13.85,0,0,1-4,.3c3.44-.42,8.11-1.58,8.44-3.36C123.56,31.15,119.54,36.36,115.56,36Z"/><path class="cls-1" d="M106.1,20.07c0-1.77-3.27-2.43-4.79-2.86-1.39-.24-4.49.31-4.69,1.5C100.58,16.46,103,18.24,106.1,20.07Z"/><path class="cls-1" d="M112.23,33.13c.55-1.05,2.79-4.32,4.18-5.28.5-1,8.78-4.45,5.51-4.51C118.1,24.79,112.17,29.83,112.23,33.13Z"/><path class="cls-1" d="M73.78,18.67c2.51-9.63,1.76-13.85-.9-1a57.84,57.84,0,0,0-1.22,8.67c-5.53-2.91-3.07-9.18-1.72-13.51-2.53,1.93-3.42,6.22-2.4,9.65a.37.37,0,0,0-.19.09l-.08.07c-6-.43-4.58-5.35-4.56-9.44-2.4,2.74-1.67,9.75,3,10.23a2.23,2.23,0,0,0,.64.15,9.49,9.49,0,0,0-2.26,5.83c-.93-.68-2.78-.42-3.79-1-4.91-1.09-4.89-7.17-2.63-10.69a.37.37,0,0,0-.62-.41,8.93,8.93,0,0,0-1.53,7.86c-2.23,1.13-3.85,4.33-3.81,7.25a8.11,8.11,0,0,0-.62.55c-3.75-.75-3.13-5-4.35-7.41-1.77,1.77.9,8.24,3.89,7.88-2.11,2.35-3.13,5.78-2.14,8.56a.43.43,0,0,0-.14.13l0,0c-6.66.24-7.15-5.2-7.9-10.1a6.56,6.56,0,0,0,0,6.19c-1.78,1.13-2.9,5-2.47,7.74-2.4-.87-3.77-3.32-4.36-5.68-.31-4-.89-3.47-.95-1.64h0c-2.61-4.05-7.86-7-11.85-10-3-2-6.1-3.85-9.22-5.66-.24-.13-.39.25-.18.38A142.34,142.34,0,0,1,32.62,38.57c-1.26-.29-2.37-1.92-3.47-1.66.3,1.69,3,2.85,2.38,5.14-2.34,3.35-1.75,7.44-2.13,11.24a2.72,2.72,0,0,1-2.48,1.14c-.28-.13-.72-.16-.8.18a.41.41,0,0,0,0,.19,39.1,39.1,0,0,0-12-2.56c4.08.83,8.55,2.57,12.51,2.94l.14,0c2.5.59,1.89,3.22,2.79,4.92.47,2,4.25,4.42.24,5.14-.5.17-1.57-.28-1.67.42,1.95,1.39,5.83.22,4.44,4.52-.23.28-.65.28-.9.51-1,.19.32,1.27-.29,1.84-1.11,1-1.18,1.5-.73,1.59C23.29,76.92,14,78.1,6.85,75.27,4.3,74.36,0,73,1.75,69.39A9.46,9.46,0,0,1,5.1,64.73c-.66-5,1-10.12,5.26-12.93,2.08-.66-2.35-6.39-3.11-8.68-5.79-12.24,4.62-11.72.08-20.07-1.1-2,1.68-.33,2.2-.94,0-.6-.91-.61-1.44-.84-4-.95-.62,4.1-.91,6.06-5.74,6.9-.81,16.34,2.69,23.31A14,14,0,0,0,3.62,64.18C1.15,67.79-3.15,74,3.69,75.73c8.23,3.24,20.84,2.71,27.74-1.67a6.71,6.71,0,0,0,1.08-.43.29.29,0,0,0,0,.09c-1,.1.45,4.74,1,5.47,1.42,3.15,6.06,4.43,9,2.65a13.91,13.91,0,0,0,13.63,2.68c4.43,2,10.85,1,13.05-3.78.45-.09,3.11-.14,3.22-.64.19-.12.16-.32-.24-.6-.84.13-1.91-.77-2.59-.21-.06.24.13.44.43.59-3.66.16-7.61.19-11.62,0a1.36,1.36,0,0,0-.23-.38,15.43,15.43,0,0,1-2.09-.89c-.71.17,0,.76.75,1.19-2.14-.13-4.28-.34-6.4-.62a.17.17,0,0,0-.25,0,63,63,0,0,1-7.29-1.39v0a1.19,1.19,0,0,1-.19-.17,3.68,3.68,0,0,1-.24-.32c-.22-.21-.16-1.37-.7-.86-.22.27,0,.76.25,1.15a40.39,40.39,0,0,1-7.8-3,1.05,1.05,0,0,0,0-.19,1.49,1.49,0,0,0,.5-.15c.78.22,2,.19,2.33-.21.22-.16.32-.57,0-.71-4.26-2-2.18-6.73-1.76-8.56a7.11,7.11,0,0,0,8.58,4.94c-1.66,1.64-3.23,4.62-1.86,6.2.88-.85.31-2.88,1.23-4,0-.56,1.43-1.73,1.87-2.44a7.93,7.93,0,0,0,10.18,2.94c-.9,1.87-1.42,5.68.4,4.49-.91-1.34.71-4.23.83-5.2a7.26,7.26,0,0,0,9.76.86c-.67,2.27.22,5.8,2.56,5.72-.17-1.09-1.61-1.78-1.75-3-.37-.4-.11-1.54.09-2.49,1.38,1.9,4.1,1.3,7-.43.53,2.24,2.72,5.08,4.44,3.62a5.58,5.58,0,0,1-3.72-4.07,28.44,28.44,0,0,0,3.12-2.39c.79,1.9,4.6,1.34,6.5.15-.61,1.71-1.11,3.84.46,4.32a.34.34,0,0,0,.23-.46l0,0c-.84-.75.33-3.71.46-5a2,2,0,0,0,.13-.25c2,1.56,4.69,2.25,6.79,1.43A2.62,2.62,0,0,0,93.17,71c.75-.79,0-2.39.41-3.45a8.57,8.57,0,0,1,.63-2.26c5.34.8,12.13.91,10.23-.86C80.23,67.13,67.78,39.14,73.78,18.67ZM32,73.07s0,0,0,0h0Zm1.6.7,0,0,0-.09ZM35,63.37c-4.33-1.36-6.07-6.84-3.72-10.62a6.41,6.41,0,0,0,5.21,3A11,11,0,0,0,35,63.37Zm3.54-15.9a2.72,2.72,0,0,0,.65.87c.44.72,4.6,2.78,6.15,2.78-1.26,3.2-1.11,6.85.78,9.36C39,59.42,34.35,54.84,38.52,47.47ZM46,51.39a5.57,5.57,0,0,0,.58.85,16.94,16.94,0,0,0,2,1.78c.82,3.43,3.35,6.51,6,9C47.81,62.25,43.59,59.19,46,51.39Zm2.42-.82a9.66,9.66,0,0,0,0,2.08c-3.14-2.25-1.75-6.66.26-9.73a1.8,1.8,0,0,0,.22-.06,6.22,6.22,0,0,0,2.59,2.48A20.16,20.16,0,0,0,54.9,46.9C51.57,47,49,48,48.46,50.57ZM57.73,47c-1.35-1.76.92-5.45,1.77-7.38a2.21,2.21,0,0,0,.56.1,5.69,5.69,0,0,0,1.66,2.16c1.28,1.12,3.74,2.66,5.71,2.7-1.06,1.07-2.11,2.54-2.07,3.73A53.17,53.17,0,0,0,57.73,47Zm6.42-16.85A5.17,5.17,0,0,0,67,34.31a10.5,10.5,0,0,0,3.47,1.6c-1.53,2.16-2.55,5.29-1.73,7.68l-.13,0-.25.19c-4.42-1.22-10.08-3.47-6.8-9.45C61.54,33.62,63.59,31.32,64.15,30.14Zm3.13,16.13c.12-.48,1.31-1.39,1.73-2a4.47,4.47,0,0,0,2.1,2,15.72,15.72,0,0,0,3.12,1.4,8,8,0,0,0-.28,3,4.2,4.2,0,0,0-.84-.22c-1.45-.41-3.94-1.18-6.81-1.89C66.64,47.84,66.73,46.75,67.28,46.27ZM75,51c.11-.77,0-1.58.07-2.36A33,33,0,0,0,76.73,52,16.35,16.35,0,0,0,75,51Zm-.82-4.6a5.42,5.42,0,0,1-2.31-.88c-4.23-1.79-2.21-7.24-.11-10,0,0,0,0,0-.06A46.14,46.14,0,0,0,74.17,46.41Zm-6.3-23A6.28,6.28,0,0,0,71.61,27a54.66,54.66,0,0,0,.14,8.09.4.4,0,0,0-.63-.09l-.1.12C64.89,33.53,62.92,28.56,67.87,23.39ZM55.39,26.47c.12-.17.3-.36.44-.56a5.65,5.65,0,0,0,3.89,3.33c.89.16,2.19.84,3.28,1-1.94,2.29-3.71,5.39-3.3,8.19a.62.62,0,0,0-.49,0l-.06.06C53.46,36,50,32.5,55.39,26.47Zm-3.57,7a4.87,4.87,0,0,0,2.81,3.79c.49.19,2.42,1.35,3.94,2-1.26,1.81-2.65,5-2.17,7C49.42,44.36,46.29,39.69,51.82,33.48ZM40.74,38.67c1.4,2.6,4,4.64,6.94,4.42-1.34,2.13-2.62,4.84-2.07,7.19C36.79,47.77,38.63,45.09,40.74,38.67Zm-5.87,6.08c.15.48,2.08,1.64,3.1,1.9A9.61,9.61,0,0,0,36.42,55c-5.82-.7-6.38-8.2-2.94-12.1A4.4,4.4,0,0,0,34.87,44.75Zm-2.15-5.31v.08a.42.42,0,0,0-.17-.05l0-.07A.48.48,0,0,0,32.72,39.44Zm24,40.94c0,.56-.39,1.42.24,1.63.46-.05.59-1,.49-1.57,1.52.13,3,.24,4.55.3-.14.59-.43,1.87.46,1.51a2.16,2.16,0,0,0,.22-1.48q2.37.09,4.74.06a5.93,5.93,0,0,1-1.29,1.86c-2.72,2.65-7,2.27-10.22,1.17-4.5,1.59-9.55-.22-13.25-2.5-3.95.85-9.39-.32-9.23-5.33,1.55.4,3.11.79,4.68,1.15-.42.77-1,2.47.1,1.93,0,0,0,0,0,0a0,0,0,0,0,0,0l0,0c.1-.26,0-.17,0-.07a12,12,0,0,1,.56-1.59l0-.07q2.73.63,5.49,1.17c-.29.52-.81,2.06.24,1.82a2.87,2.87,0,0,0,.31-1.71q2.46.48,5,.87c0,.58-.77,2,.21,2,.33-.15.53-1.23.47-1.88Q53.65,80.08,56.75,80.38Zm-12.49-11c-4.77-1-9.57-2.06-8.43-8.82-.11-.58.85-2.67,1.21-4a7.59,7.59,0,0,0,4.45,3.82,15.09,15.09,0,0,0,4.13,1,7.16,7.16,0,0,0-.77,7.58A5.45,5.45,0,0,0,44.26,69.38Zm2.45-8.18a7.7,7.7,0,0,0,3.72,2c1.27.36,3.66,1.17,5,.49l.12.11a6.8,6.8,0,0,0,.36,7.05.44.44,0,0,0-.24.41C49,74.58,41.63,68.21,46.71,61.2Zm9.18,7.56c-.44-.58.19-2.77.43-4.23.41.35.82.7,1.22,1,.65,3.44,4.18,7.07,7.56,6.69C61.89,73.88,56.61,72.6,55.89,68.76ZM66.75,70.9c-3.08-.31-7.33-2-8.13-5.57a7.53,7.53,0,0,0-1.36-1.47c-18.76-19.55,4.53-17.47,18-11.53a12.16,12.16,0,0,0,2.09.69,29.23,29.23,0,0,0,6.44,7.43l0,.06a1.27,1.27,0,0,0-.31-.19c-2.34,2.34-6.24,1.1-5.89-2.43-.21-.63,1-3.73-.14-3.09-2.63,8.19,3,8.42,5.53,7.27a27.13,27.13,0,0,1-8.38,8.73c-.1-.09-.22,0-.41.23h0C71.51,72.47,68.85,72.82,66.75,70.9ZM78.65,69a28,28,0,0,0,4.52-5.19,6.49,6.49,0,0,0,2.19,4.06l-.15.14h0v0C83.51,69.52,80.54,70.36,78.65,69Zm14,.48c-4.08-1.12-8.3-.86-8.82-6.83a2.5,2.5,0,0,0,.31-1.89,29.11,29.11,0,0,0,4.3,2.79c.41.59,2.5,1.17,5,1.59A10.55,10.55,0,0,0,92.63,69.47Z"/><path class="cls-1" d="M34.31,32.14c.08-3.72,2.71-6.48,5.4-8.72a17.22,17.22,0,0,1,1.75-5.51c2.29-4.77,6.69-4.71,8.77-9.85,3.27-6.15,16.2-10.47,21-3.48l-.1.07a63.4,63.4,0,0,0-6.92,3.2c0-.94-4.44-2.58-4-1.53,1.46.09,2.71,1.33,4,1.57a73.41,73.41,0,0,0-8.88,5.6c-1-1.28-4.93-3.18-4.55-2.1a17.7,17.7,0,0,1,4.13,2.42q-2.69,2-5.19,4.2c-1.15-.87-4-1.72-3.58-.78,1,.12,2,1,2.93,1.36a85.29,85.29,0,0,0-6.2,6.12c-.91-.61-2.39-1.39-2.09-.46q.8.49,1.59,1c-1.47,1.62-2.85,3.28-4.16,5-.6-.61-2.17-1-1.49-.09l0,0a8.34,8.34,0,0,1,.76.52.5.5,0,0,0,.18.2Q35.72,33.42,34.07,36c6.36-6.38,12.34-14.37,19.79-20.09A68.16,68.16,0,0,1,71.62,5.17.25.25,0,0,0,71.75,5c1.15-.28,3.11-.25,3-1.16-.17-.17-.8-.14-1.5,0C66.09-3.58,50.56.32,48,10.53c-4.46,2.66-8.64,7.11-8.92,12.55C30.85,26.58,33.75,43.34,34.31,32.14Z"/><path class="cls-1" d="M88.6,2.4c-.95-.45-11.09.16-10.25,1.13C81.68,2.87,85.44,3.11,88.6,2.4Z"/><path class="cls-1" d="M113.35,61.6c-2.3,2.09-5.61,3.58-7.63,5.67C106.49,67.59,114.84,61.82,113.35,61.6Z"/><path class="cls-1" d="M74.46,79.47c5.29-.58,11-3.57,16.43-5,1.7-.78,11.33-3.69,10.41-5C92.88,73.84,82.7,75.48,74.46,79.47Z"/><path class="cls-1" d="M65.87,56.08c3.1.23,6.69.36,9.57-.54-3-.15-6.41.25-9.55.08A.23.23,0,0,0,65.87,56.08Z"/><path class="cls-1" d="M64.23,61.79c-.57.34-4.46.57-3.49,1.3,4.74-.74,10.71-1.92,14.23-4.93C71.55,58.81,68,61.23,64.23,61.79Z"/><path class="cls-1" d="M76.78,62.23c-1.43.29-2.42,2.54-3.78,3.4-.59.89-4.1,2.9-3.53,3.5C72,67.31,75.63,65,76.78,62.23Z"/><path class="cls-1" d="M71.25,64.16c1.25-.67,3.13-1.2,3.85-2.37C74.74,61.66,70.09,64,71.25,64.16Z"/><path class="cls-1" d="M11.9,29.82A83.92,83.92,0,0,1,27.71,42.89C25.3,37.24,16.77,32.05,11.9,29.82Z"/><path class="cls-1" d="M14.61,39.77c4.42,2.49,9,5.77,13,8.33-.54-2.26-4.09-3.21-5.84-4.69C20.57,42.92,14.76,38.68,14.61,39.77Z"/><path class="cls-1" d="M12.56,59.43c4.26.65,9.55,1.44,13.49-.06-3.05-.54-6.83.48-10.12-.1C15.26,59.41,12,58.45,12.56,59.43Z"/><path class="cls-1" d="M8.87,64.75c6.23,1,14.41.93,19.82-1.75A99.88,99.88,0,0,1,8.87,64.75Z"/><path class="cls-1" d="M12.38,72.56c6.19.41,13.58.65,19.11-2-4.22.07-8.92,1.79-13.41,1.59C17,72.51,12.17,71.7,12.38,72.56Z"/><path class="cls-1" d="M127.46,25.06c.11.65.8.57.43-.08,0-.37-1.3-1.55-1.21-.82A2.56,2.56,0,0,1,127.46,25.06Z"/><path class="cls-1" d="M117.48,16.85c.36,2.49-1.39,2.61,1.45,3.78a3.46,3.46,0,0,0,1.87,1.66c-.26,1,1.75.95,1.5.1-5.12-7.5-12.44-14.94-21-17.9A55.25,55.25,0,0,1,117.48,16.85Z"/><path class="cls-1" d="M123.32,38.66a.58.58,0,0,0-.53,0,.34.34,0,0,0-.22,0c-.45-.09-1.34,2.69.08,2.34a.71.71,0,0,0,.3.66.83.83,0,0,0,0,.54c-.66,6.9-3.41,13.58-9,17.91-.37.47-2.44,1.65-1.83,2C120.05,57.09,124.05,48,124,38.9h0A.4.4,0,0,0,123.32,38.66Z"/></svg>