<svg id="Layer_1" data-name="Layer 1" xmlns="http://www.w3.org/2000/svg" viewBox="0 0 237.75 230.87"><defs><style>.cls-1{fill:#847147;}.cls-2{fill:#c2a971;}.cls-3{fill:#544a3a;}.cls-4{fill:#ffe86b;}.cls-5{fill:#fcbf60;}.cls-6{fill:#f68c2e;}.cls-7{fill:#faa931;}.cls-8{fill:#c75e28;}.cls-9{fill:#ffe745;}.cls-10{fill:#fff;}.cls-11{fill:#76564b;}.cls-12{fill:#492d27;}.cls-13{fill:#f7abad;}.cls-14{fill:#e06460;}.cls-15{fill:#f6bbaf;}.cls-16{fill:#fceaec;}.cls-17{fill:#f1949b;}.cls-18{fill:#f6acb5;}</style></defs><path class="cls-1" d="M108.77,122.9a84.46,84.46,0,0,1-20.55-3.05C70.93,115.25,55,106.58,44.49,96.08c-11.37-11.37-18.28-23.55-20-35.23C22.91,49.76,26.15,39.53,33.64,32S51.37,21.3,62.46,22.91c11.67,1.69,23.86,8.6,35.23,20h0c10.71,10.71,19.54,26.46,24.25,43.22,3.46,12.34,5.08,27.62-.77,33.46C118.76,122,114.18,122.9,108.77,122.9ZM56.86,27.36a27.26,27.26,0,0,0-19.78,8.11c-6.47,6.47-9.15,15-7.75,24.68,1.54,10.63,8,21.87,18.6,32.49,9.91,9.92,25.05,18.12,41.54,22.52,15.92,4.24,26.12,3.12,28.27,1,2.94-2.94,3.72-13.75-.48-28.72-4.49-16-12.87-31-23-41.09C83.63,35.69,72.39,29.26,61.76,27.72A34.5,34.5,0,0,0,56.86,27.36Z"/><path class="cls-2" d="M41.23,29.59c1.86-1.54,4.48-2.1,6.76-2.71a54.64,54.64,0,0,1,8.2-1.56,28.94,28.94,0,0,1,14.68,2.44,35,35,0,0,1,7.51,4.52c.63.48,1.31-.51.83-1.05A19.61,19.61,0,0,0,73,26.88,36.8,36.8,0,0,0,66,24.31c-5.72-1.45-11.57-.77-17.21.68-2.92.75-6.18,1.47-8.38,3.69a.62.62,0,0,0,.85.91Z"/><path class="cls-3" d="M37.08,35.47a27.26,27.26,0,0,1,19.78-8.11,34.5,34.5,0,0,1,4.9.36c10.63,1.54,21.87,8,32.49,18.6,10,10,18.33,24.78,22.85,40.56a1.34,1.34,0,0,0,.32-1c-1.09-9.57-5.06-18.58-10.25-26.61A96.53,96.53,0,0,0,88.53,38c-7.16-6.08-15.57-11.2-25-12.74-9.05-1.48-18.68.15-25.86,6.13a27.82,27.82,0,0,0-8.28,12C27.74,48.15,27,54,29.15,58.67,28.22,49.61,30.94,41.61,37.08,35.47Z"/><path class="cls-1" d="M129.92,115.94c-12,0-35.3-35.8-35.3-66.32,0-15,3.49-27.69,10.11-36.55C111,4.64,120,0,129.92,0s18.89,4.64,25.18,13.07c6.62,8.86,10.11,21.5,10.11,36.55,0,14.17-4.57,30.44-12.55,44.64C146.77,104.74,137.71,115.94,129.92,115.94Zm0-111.08c-8.5,0-15.87,3.84-21.3,11.12-6,8-9.14,19.64-9.14,33.64,0,13.07,4.57,28.47,12.55,42.23,7.68,13.27,15.08,19.23,17.89,19.23,8.28,0,30.43-29.88,30.43-61.46,0-14-3.16-25.63-9.14-33.64C145.78,8.7,138.41,4.86,129.92,4.86Z"/><path class="cls-2" d="M97.09,44.66c1.24-5.35,1.86-10.81,3.35-16.11a40.08,40.08,0,0,1,7.22-14.68c6.92-8.44,18.23-12.88,28.92-9.7a27.41,27.41,0,0,1,8.34,4.29,38.64,38.64,0,0,1,6.81,6.34c.4.5,1.11-.1.76-.61a29.9,29.9,0,0,0-13.4-10.78A27.15,27.15,0,0,0,122,2.54a30.49,30.49,0,0,0-13.81,8.32,37.41,37.41,0,0,0-8.35,14.27,71.78,71.78,0,0,0-3.65,19.42.44.44,0,0,0,.87.11Z"/><path class="cls-2" d="M157.69,23.15c1.26,4.62,2.65,9.16,3.57,13.86a86.23,86.23,0,0,1,1.57,14,.7.7,0,0,0,1.4,0,78.22,78.22,0,0,0-1.37-14.4,53.34,53.34,0,0,0-4.29-13.68c-.22-.44-1-.27-.88.26Z"/><path class="cls-3" d="M152.66,94.26c8-14.2,12.55-30.47,12.55-44.64,0-11.2-1.94-21.06-5.65-29,.19.57.38,1.15.55,1.74.44,1.53.81,3.08,1.13,4.64a98.9,98.9,0,0,1,1.53,10c.32,3.08.54,6.18.56,9.28a106,106,0,0,1-.66,11.13,86,86,0,0,1-16.42,42.46,83.09,83.09,0,0,1-15.62,16.06C138.26,115.26,147,104.42,152.66,94.26Z"/><path class="cls-3" d="M112,91.85c-8-13.76-12.55-29.16-12.55-42.23,0-14,3.16-25.63,9.14-33.64,5.43-7.28,12.8-11.12,21.3-11.12a25.07,25.07,0,0,1,16.22,5.78c-2.34-3.11-6-4.87-9.67-5.82a33.51,33.51,0,0,0-11.33-.92c-9.69.91-17.74,8.22-21.81,17-2.42,5.23-4.4,10.17-5.15,15.86A126.38,126.38,0,0,0,97,54.24a58,58,0,0,0,2.69,17.2A89.28,89.28,0,0,0,106.51,87c4.53,8.32,10.12,16.6,18.4,21.39C121.4,105.44,116.77,100,112,91.85Z"/><path class="cls-3" d="M132.33,111.39a1.79,1.79,0,0,0,2.12-2.22,10.49,10.49,0,0,1-3.63,1.8C131.32,111.12,131.82,111.27,132.33,111.39Z"/><path class="cls-1" d="M150.42,123c-5,0-9.31-1-11.76-3.41-7.78-7.77.25-46.11,20-65.88,9.75-9.75,20.2-15.67,30.23-17.12,9.57-1.39,18.4,1.41,24.87,7.88s9.27,15.3,7.88,24.87c-1.45,10-7.37,20.48-17.12,30.23-9.17,9.17-22.66,16.74-37,20.76A66.41,66.41,0,0,1,150.42,123Zm43.32-81.91a27.94,27.94,0,0,0-4.13.31c-9,1.3-18.49,6.75-27.5,15.75-19.9,19.9-24.26,54.77-20,59,2.44,2.43,11.51,3,24.13-.5,13.57-3.81,26.28-10.93,34.88-19.52,9-9,14.45-18.51,15.75-27.5,1.18-8.13-1.07-15.3-6.5-20.74A22.9,22.9,0,0,0,193.74,41.06Z"/><path class="cls-3" d="M140.22,115.53c.67,1.8,2.24,3.09,2.16,2.16l-.09-1.4c-.06-.06-.14-.11-.2-.16-4.24-4.24.12-39.11,20-59,9-9,18.52-14.45,27.5-15.75a27.94,27.94,0,0,1,4.13-.31,23,23,0,0,1,12.58,3.57,1.91,1.91,0,0,0-.85-1.69c-3.19-2.36-7.24-3.19-11.14-3.28a36.11,36.11,0,0,0-11,1.54C176,43.39,169.83,48.38,164,53.31a72.38,72.38,0,0,0-15.27,18.74c-3.8,6.56-6.67,17.07-8.13,24.5C139,105,139.88,114.6,140.22,115.53Z"/><path class="cls-3" d="M219.86,68.44a27.34,27.34,0,0,1-3,11.22,84.14,84.14,0,0,1-6.78,10.83,105.19,105.19,0,0,1-16.37,16,41.25,41.25,0,0,1-8.82,5.44c-3.12,1.43-6.34,2.61-9.51,3.91a74.52,74.52,0,0,1-12.19,3.89,69.31,69.31,0,0,1-12.76,1.47,1.69,1.69,0,0,0-1.67,1.7c.55,0,1.1,0,1.67,0a66.41,66.41,0,0,0,17.12-2.67c14.34-4,27.83-11.59,37-20.76,9.75-9.75,15.67-20.2,17.12-30.23a28.8,28.8,0,0,0-5-21.56C220.18,54,220.5,61.43,219.86,68.44Z"/><path class="cls-1" d="M196.82,157.55c-11.63,0-25-3.76-36.63-10.3-8.66-4.87-17.91-12.4-17.91-18.94,0-9.92,29.44-29.24,54.54-29.24,12.38,0,22.79,2.88,30.09,8.33,7,5.22,10.84,12.65,10.84,20.91s-3.85,15.68-10.84,20.9C219.61,154.66,209.2,157.55,196.82,157.55Zm0-53.62c-25,0-49.68,19.07-49.68,24.38,0,3,5.3,9,15.43,14.7,11,6.15,23.43,9.68,34.25,9.68,11.33,0,20.72-2.55,27.18-7.37,5.82-4.35,8.89-10.23,8.89-17s-3.07-12.67-8.89-17C217.54,106.47,208.15,103.93,196.82,103.93Z"/><path class="cls-3" d="M147.14,128.31c0-5.31,24.66-24.38,49.68-24.38,11.33,0,20.72,2.54,27.18,7.37a22.48,22.48,0,0,1,6.5,7.37,12.73,12.73,0,0,0-2.27-5,23.15,23.15,0,0,0-7.66-5.85c-5.79-3-12.33-4.48-18.76-5.39a42.38,42.38,0,0,0-11-.35,52.13,52.13,0,0,0-10.3,2.43,122.09,122.09,0,0,0-19.42,8c-6.22,3.36-11.94,8-15.56,14.13a1.74,1.74,0,0,0,1.77,2.57A3.65,3.65,0,0,1,147.14,128.31Z"/><path class="cls-3" d="M233.16,113.78c1.27,3.53,3.24,7.44,3.63,11.18a22.2,22.2,0,0,1-1,9.8c-1.86,5.74-7.26,10.82-12.44,13.72-6.35,3.54-13.68,4.87-20.83,5.63-7.79.82-15.77,1.08-23.48-.45-7.38-1.46-22.64-10-22.93-8.87,1.34.88,2.71,1.7,4.06,2.46,11.65,6.54,25,10.3,36.63,10.3,12.38,0,22.79-2.89,30.09-8.34,7-5.22,10.84-12.64,10.84-20.9A25,25,0,0,0,233.16,113.78Z"/><path class="cls-1" d="M178.06,197.22a24,24,0,0,1-3.45-.25c-7.25-1.05-14.78-5.31-21.79-12.32h0c-6.57-6.57-12-16.22-14.87-26.48-1-3.74-4.1-16.32.71-21.12,5.81-5.82,33.08-.36,47.6,14.16,7,7,11.27,14.54,12.32,21.79a20.85,20.85,0,0,1-5.78,18.19A20.45,20.45,0,0,1,178.06,197.22Zm-31.19-57.6c-2.67,0-4.32.41-4.78.86-1.22,1.23-2.16,6.76.54,16.38s7.63,18.36,13.63,24.36h0c12,12,25,14.61,33.11,6.54s5.5-21.07-6.54-33.11c-5.87-5.87-14.84-10.72-24.62-13.33A45.35,45.35,0,0,0,146.87,139.62Z"/><path class="cls-2" d="M181.54,150.51c2,2.68,4.17,5.23,6.17,7.91,1,1.36,2,2.73,2.94,4.13.77,1.16,1.3,2.46,2.17,3.55a3.79,3.79,0,0,1,.58,1.54c.17.69.35,1.37.51,2.05.35,1.44.67,2.89.88,4.36a15.53,15.53,0,0,1,.17,4.25,17.21,17.21,0,0,1-1.41,4.75,20.45,20.45,0,0,1-2.76,4.66,45.7,45.7,0,0,1-3.72,3.9c-.38.37.07,1,.51.67a28.79,28.79,0,0,0,3.92-3.4,23.75,23.75,0,0,0,2.88-4,15.77,15.77,0,0,0,2.32-9.05,51,51,0,0,0-1.75-9,15,15,0,0,0-1.75-3.31,34.7,34.7,0,0,0-2.89-4.33,54.8,54.8,0,0,0-8.22-9.19c-.32-.28-.8.17-.55.52Z"/><path class="cls-3" d="M141.36,151.15c-1-6.11-.22-9.71.73-10.67.46-.45,2.11-.86,4.78-.86a45.35,45.35,0,0,1,11.34,1.7c9.78,2.61,18.75,7.46,24.62,13.33,6.2,6.2,9.89,12.66,10.9,18.57a1.48,1.48,0,0,0,.68-1.36c-.63-5.09-3.16-9.48-6.47-13.32-1.67-1.93-3.5-3.71-5.34-5.47s-3.85-3.69-5.91-5.36a44.29,44.29,0,0,0-13.28-7.26,52.83,52.83,0,0,0-15.7-3.26,11.86,11.86,0,0,0-4.41.27,4.45,4.45,0,0,0-2.55,3,20.49,20.49,0,0,0-1,9A1.79,1.79,0,0,0,141.36,151.15Z"/><path class="cls-3" d="M174.61,197a24,24,0,0,0,3.45.25,20.45,20.45,0,0,0,14.74-6A20.85,20.85,0,0,0,198.58,173a28.83,28.83,0,0,0-1.06-4.51c1.2,8.36-1.45,17.72-8.44,22.89a19.32,19.32,0,0,1-11.55,3.92c-4.79,0-9.05-2.36-12.95-4.94-4.37-2.9-8.79-6.11-11.82-10.47-.53-.77-.6.42-1.45.92-.56.33-.42,1.2-.35,1.86a13.58,13.58,0,0,0,1.86,2C159.83,191.66,167.36,195.92,174.61,197Z"/><path class="cls-2" d="M174.25,45.2c1.46-.5,2.81-1.35,4.22-2a44.34,44.34,0,0,1,4.2-1.61,34.81,34.81,0,0,1,9-1.72,29.71,29.71,0,0,1,8.81.84,36.32,36.32,0,0,1,6.31,2.37,18.69,18.69,0,0,1,2.9,1.62,20.67,20.67,0,0,1,3.26,3.15c.42.47,1.31-.08.95-.65-1.29-2.07-3.62-3.67-5.63-5a24.43,24.43,0,0,0-6-2.8,32.21,32.21,0,0,0-18.63.16,37.86,37.86,0,0,0-5,1.89,19.83,19.83,0,0,0-4.81,2.72c-.4.36-.06,1.2.51,1Z"/><path class="cls-1" d="M71.49,212.51A25.45,25.45,0,0,1,53.19,205c-5.88-5.88-8.42-13.91-7.16-22.6,1.32-9.08,6.67-18.54,15.49-27.36h0C69.8,146.79,82,140,94.94,136.32c9.62-2.7,21.57-3.93,26.23.73,4.23,4.22,2.84,16.56.37,25.83-3.56,13.37-10.26,25.69-18.39,33.82-8.82,8.82-18.28,14.17-27.36,15.49A30.05,30.05,0,0,1,71.49,212.51Zm-6.54-54c-8.06,8.07-13,16.58-14.11,24.62-1.05,7.24.95,13.62,5.79,18.46s11.22,6.84,18.46,5.79c8-1.16,16.55-6,24.62-14.11,7.54-7.55,13.79-19.08,17.14-31.64,3.16-11.87,2.4-19.63.89-21.15-2.83-2.82-12.95-1.88-21.49.52-12.18,3.41-23.58,9.8-31.3,17.51Z"/><path class="cls-3" d="M50.84,183.13c1.16-8,6-16.55,14.11-24.62,7.72-7.71,19.12-14.1,31.3-17.51,8.54-2.4,18.66-3.34,21.49-.52a2.26,2.26,0,0,1,.32.47,1.69,1.69,0,0,0-1-2.58,40.14,40.14,0,0,0-21.74.34,76.32,76.32,0,0,0-18.74,8.72A88,88,0,0,0,61,159.82c-2.39,2.4-4.94,4.76-6.6,7.72-5.55,9.93-5.84,15.38-5.53,18.53a22.08,22.08,0,0,0,2.76,9.39,1.6,1.6,0,0,0,1.09.8A21.75,21.75,0,0,1,50.84,183.13Z"/><path class="cls-3" d="M75.79,212.19c9.08-1.32,18.54-6.67,27.36-15.49,8.13-8.13,14.83-20.45,18.39-33.82,1.91-7.16,3.17-16.13,1.7-21.8a1.58,1.58,0,0,0-1,1.51,86,86,0,0,1-.84,13.61,55.53,55.53,0,0,1-3.32,11.51c-3,7.46-5,13.16-9.75,19.58S95.87,201.6,88.64,205.51c-3.48,1.88-4.48,2.79-8.24,4a47.33,47.33,0,0,1-6.7,1.23,20.69,20.69,0,0,1-2.49,0,23.79,23.79,0,0,1-2.47-.23,32.21,32.21,0,0,1-9.65-2.87,34.13,34.13,0,0,1-8.87-6.43,2.79,2.79,0,0,0-.34-.28A26.12,26.12,0,0,0,53.19,205a25.45,25.45,0,0,0,18.3,7.48A30.05,30.05,0,0,0,75.79,212.19Z"/><path class="cls-1" d="M50.31,164.08c-15.27,0-28.09-3.54-37.06-10.25C4.7,147.45,0,138.39,0,128.31s4.7-19.15,13.25-25.53c9-6.7,21.79-10.25,37.06-10.25,14.37,0,30.87,4.64,45.26,12.73,10.63,6,22,15.16,22,23C117.55,140.43,81.25,164.08,50.31,164.08Zm0-66.69c-14.21,0-26,3.21-34.16,9.29-7.38,5.51-11.29,13-11.29,21.63s3.91,16.11,11.29,21.63c8.14,6.07,20,9.28,34.16,9.28,13.26,0,28.88-4.64,42.86-12.74,13.46-7.8,19.52-15.32,19.52-18.17C112.69,119.89,82.36,97.39,50.31,97.39Z"/><path class="cls-3" d="M117.55,128.31a13,13,0,0,0-2.58-7.1,1.73,1.73,0,0,0-.55,2.32c1.77,2.42,1.44,5.59,0,8.12-1.6,2.9-4.23,5.11-6.72,7.21a97.17,97.17,0,0,1-17.11,11.53,95.91,95.91,0,0,1-66.83,8.75,1.7,1.7,0,0,0-1,.06c7.72,3.21,17,4.88,27.51,4.88C81.25,164.08,117.55,140.43,117.55,128.31Z"/><path class="cls-3" d="M68.41,98.14a57.28,57.28,0,0,0-17-2.29c.63.55,1.28,1.08,1.94,1.62A79.7,79.7,0,0,1,69.68,100,1.72,1.72,0,0,0,68.41,98.14Z"/><path class="cls-3" d="M44.5,96.09a74.27,74.27,0,0,0-17,2.64,42,42,0,0,0-14.06,7.41c-8,7-9.51,13.77-9.79,17.28-.38,4.77.7,12.77,3.76,16.26a25.67,25.67,0,0,1-2.58-11.37c0-8.64,3.91-16.12,11.29-21.63S33.69,98.1,46,97.5C45.48,97,45,96.56,44.5,96.09Z"/><path class="cls-3" d="M108.77,122.9c5.41,0,10-.93,12.4-3.34,2.61-2.6,3.73-7.09,3.87-12.35a37.33,37.33,0,0,1-2.66,7.86c-.59,1.33-1.7,2-2.75,3a10,10,0,0,1-3.59,2.15,29.28,29.28,0,0,1-10,1A63.43,63.43,0,0,1,95,119.91c-14.74-3-28-10.49-40.36-18.79q-8.35-5.58-16.28-11.75,2.79,3.39,6.11,6.71c10.5,10.5,26.44,19.17,43.73,23.77A84.46,84.46,0,0,0,108.77,122.9Z"/><path class="cls-2" d="M33.79,95.61c-6.77.35-13.47,3.54-19,7.3a28.45,28.45,0,0,0-7.11,6.6,30,30,0,0,0-4.41,9.16,21.79,21.79,0,0,0-1,9.06c.09.6,1.12.56,1.09-.06a24.2,24.2,0,0,1,1-7.47,29.5,29.5,0,0,1,4-8.93c3.62-5.4,9.73-9,15.59-11.56a48.76,48.76,0,0,1,10-3.23.44.44,0,0,0-.12-.87Z"/><path class="cls-2" d="M26.69,48.42c-.3,5.1-.66,10.44.27,15.5a44.27,44.27,0,0,0,3.29,9.75A60,60,0,0,0,40.31,88.86,64.26,64.26,0,0,0,53.12,100a.52.52,0,0,0,.6-.86A75.93,75.93,0,0,1,35.51,80a51.85,51.85,0,0,1-6.69-14.77C27.39,59.81,28.06,54,28,48.46a.63.63,0,0,0-1.26,0Z"/><path class="cls-2" d="M8.55,146.19c4.36,5.7,11,9.59,17.66,12a64.07,64.07,0,0,0,23.47,3.48,64.47,64.47,0,0,0,14-1.67.58.58,0,0,0-.25-1.13c-4.07.37-8.13.93-12.23,1.11a73.4,73.4,0,0,1-12-.39,54,54,0,0,1-19.82-6.24,57.75,57.75,0,0,1-10.4-7.66.37.37,0,0,0-.53.5Z"/><path class="cls-4" d="M34.49,32.76a37.57,37.57,0,0,0-8.62,29.39A30.6,30.6,0,0,0,28.55,71c.33.68,1.53.21,1.24-.51A36.37,36.37,0,0,1,27.51,51a42.2,42.2,0,0,1,2.61-9.09A46.49,46.49,0,0,1,35,33.21c.25-.36-.23-.8-.53-.45Z"/><path class="cls-4" d="M97.06,32.33A65.83,65.83,0,0,0,95.6,44c-.09,1.82-.12,3.64-.1,5.45a36.56,36.56,0,0,0,.39,6,.27.27,0,0,0,.53,0c0-1.9-.2-3.8-.24-5.7s0-4,.12-5.94a109.87,109.87,0,0,1,1.43-11.29.34.34,0,0,0-.67-.12Z"/><path class="cls-4" d="M119.19,2.52a28,28,0,0,0-15.46,14.06c-.32.64.74,1,1,.37A29,29,0,0,1,119.52,3.31a.43.43,0,0,0-.33-.79Z"/><path class="cls-4" d="M13.05,104a23.74,23.74,0,0,0-4.2,3.41,17.59,17.59,0,0,0-3.32,4.32.38.38,0,0,0,.63.4c1.15-1.34,2.2-2.76,3.44-4a37.12,37.12,0,0,1,4-3.44c.44-.33-.06-1-.51-.67Z"/><path class="cls-4" d="M2,136.07a26,26,0,0,0,4.24,9.06,23.75,23.75,0,0,0,7.26,7c.44.25.78-.44.43-.74-1.25-1.08-2.57-2.08-3.75-3.24a31.26,31.26,0,0,1-3.16-3.63,35.85,35.85,0,0,1-4.54-8.56.25.25,0,0,0-.48.15Z"/><path class="cls-4" d="M165.22,50.13a64.64,64.64,0,0,1,6.5-4.61c2.21-1.38,4.55-2.5,6.8-3.81a.44.44,0,0,0-.34-.81A33.59,33.59,0,0,0,171,44.78a50.61,50.61,0,0,0-6.16,4.86c-.27.25.14.72.43.49Z"/><path class="cls-4" d="M197.09,38.17a26.44,26.44,0,0,1,4.54,1c1.48.44,2.9,1.09,4.39,1.49.42.12.64-.52.32-.76a13.67,13.67,0,0,0-4.5-1.93,17.8,17.8,0,0,0-4.76-.71c-.49,0-.47.81,0,.86Z"/><path class="cls-2" d="M51.27,170.81c-2.19,6.29-4.17,13-3.39,19.74a22.58,22.58,0,0,0,8.21,14.85c2.26,1.84,5.16,3.6,8.14,3.77.79.05.86-1.06.19-1.32a25.11,25.11,0,0,1-6.82-3.38,21.74,21.74,0,0,1-5.16-5.7c-3.22-5.15-3.68-11.29-2.72-17.17a93.28,93.28,0,0,1,2.59-10.42c.19-.68-.81-1.05-1-.37Z"/><path class="cls-4" d="M208.83,43l.07.06a.72.72,0,0,0,.19.11l.13,0h.14l.13,0a.62.62,0,0,0,.23-.23.25.25,0,0,0,0-.12.23.23,0,0,0,0-.14.33.33,0,0,0,0-.19l.05.16h0v0h0a.19.19,0,0,0,0-.07.14.14,0,0,0,0-.06.5.5,0,0,0-.08-.12l0,0-.08-.1a.48.48,0,0,0-.22-.15l-.14,0a.55.55,0,0,0-.28.06.48.48,0,0,0-.16.12.42.42,0,0,0-.11.18.39.39,0,0,0,0,.21.46.46,0,0,0,.05.2.46.46,0,0,0,.18.21Z"/><path class="cls-4" d="M194.26,100.54c3.54,0,7.07.41,10.6.62a.38.38,0,0,0,.12-.76,52.54,52.54,0,0,0-10.78-.54c-.45,0-.37.67.06.68Z"/><path class="cls-4" d="M226.11,109.16c.64.47,1.23,1,1.83,1.58a16.2,16.2,0,0,1,1.57,1.64,37.55,37.55,0,0,1,2.54,3.72c.29.45.87,0,.74-.43a11.28,11.28,0,0,0-2.49-4.14,17.44,17.44,0,0,0-1.68-1.65,12.71,12.71,0,0,0-2.11-1.37c-.38-.22-.75.39-.4.65Z"/><path class="cls-4" d="M46.69,185.14a23,23,0,0,0,6.2,17.78c.44.46,1.18-.12.77-.63a28,28,0,0,1-4.64-8.2,33.06,33.06,0,0,1-1.59-8.93.37.37,0,0,0-.74,0Z"/><path class="cls-4" d="M69.39,209.52a11.79,11.79,0,0,0,5.57.1c.41-.1.23-.76-.18-.72a18.25,18.25,0,0,1-5.27-.07c-.44-.08-.55.58-.12.69Z"/><path class="cls-4" d="M172.77,193.23a7.64,7.64,0,0,0,4.36,1.3,2.1,2.1,0,0,0,1.13-.29.43.43,0,0,0,.22-.52c-.11-.26-.47-.3-.71-.34a10.65,10.65,0,0,0-1.13,0,8.32,8.32,0,0,1-1.11-.1,7.72,7.72,0,0,1-2.33-.78c-.43-.22-.85.48-.43.75Z"/><path class="cls-4" d="M191,160.23a39.28,39.28,0,0,1,3.61,6.81,18.85,18.85,0,0,1,1,3.62,16.87,16.87,0,0,1,.2,1.88c0,.66,0,1.31.05,2a.61.61,0,0,0,1.17.05,8.88,8.88,0,0,0-.09-4,19.22,19.22,0,0,0-1.14-3.88,30.1,30.1,0,0,0-4.15-7c-.32-.42-.93,0-.65.49Z"/><path class="cls-4" d="M54.24,24.43l.54,0h.44a4.77,4.77,0,0,0,.66-.05,1.13,1.13,0,0,0,.56-.21.33.33,0,0,0,0-.52,1.41,1.41,0,0,0-.82-.24,2.88,2.88,0,0,0-.59,0c-.32,0-.65.06-1,.1a.47.47,0,1,0,.15.93Z"/><path class="cls-4" d="M149.43,9.56a6.05,6.05,0,0,1,.68.55L150,10a5.55,5.55,0,0,1,.48.49l.22.27.23.24a.48.48,0,0,0,.62.11.46.46,0,0,0,.18-.59,3.08,3.08,0,0,0-.35-.58c-.13-.15-.26-.29-.4-.43a6.24,6.24,0,0,0-1-.81.52.52,0,0,0-.6.84Z"/><path class="cls-4" d="M16.47,102.23l.16-.18-.06,0,.18-.12.08-.06.09-.06,0,0a.2.2,0,0,0,.05-.09.25.25,0,0,0,0-.17.41.41,0,0,0-.07-.11.28.28,0,0,0-.19-.07l-.25.05-.13.07-.08,0a2.06,2.06,0,0,0-.31.28.33.33,0,0,0-.07.23.28.28,0,0,0,.1.21.3.3,0,0,0,.44,0Z"/><path class="cls-2" d="M218.38,71.36a70.57,70.57,0,0,1-7.11,14.06c-.26.42.27.89.61.49a40.45,40.45,0,0,0,7.36-14.2c.17-.57-.66-.92-.86-.35Z"/><path class="cls-2" d="M182.4,103.72a20,20,0,0,1,5-.88c1.77-.14,3.55-.27,5.33-.35a81.51,81.51,0,0,1,10.6.06,43.76,43.76,0,0,1,17.86,5.22,28.63,28.63,0,0,1,4.09,2.61,47.65,47.65,0,0,1,3.81,3.71.42.42,0,0,0,.67-.5,26.23,26.23,0,0,0-6.3-6.18,29.54,29.54,0,0,0-8.06-4.17c-6.83-2.39-14.14-2.87-21.32-2.56-2.1.09-4.21.26-6.3.49A21.6,21.6,0,0,0,182,102.4c-.79.33-.49,1.62.36,1.32Z"/><path class="cls-2" d="M216,151.56c4.16-.51,8.09-3.18,11.31-5.69,4.09-3.18,7.61-7.2,8.65-12.39.13-.61-.88-.81-1.06-.23a21.47,21.47,0,0,1-3.23,6.56,28.72,28.72,0,0,1-5.47,5.32,32.46,32.46,0,0,1-10.36,5.72c-.4.12-.24.75.16.71Z"/><path class="cls-2" d="M78.56,208.57a39.68,39.68,0,0,0,12.61-5.87,60.38,60.38,0,0,0,9.77-8.36c1.74-1.8,3.4-3.67,5-5.59.44-.53-.43-1.11-.87-.61a90.41,90.41,0,0,1-11.65,11.5,50.22,50.22,0,0,1-6.92,4.53,71.44,71.44,0,0,1-8.2,3.51c-.48.19-.26,1,.26.89Z"/><path class="cls-5" d="M225.47,86.28c-15.26-24.4-46.87-39.62-76.14-31.57C144,50.6,125,46,116.39,51.29c-5.86,3.42-9.77,12-9.77,12-6.54,4.31-14.25,13.22-15.15,22.29,0,0-11.32,7.22-9.65,20.32,0,0-28.57-20.42-35.31-23.45s-8.61,1.37-6.06,10.36c-5.85,7.1-4.13,30.5,3.81,36.26,0,0-9.68,7.92-8.51,19.75-.58.08-12.69,16.61-6.2,18.86,12.24,8,34.05,9.12,51.85.54,0,0-2.54,16.81,16.37,13.29,0,0,9.68,6.65,21.36,2.59,0,0,12.12,6.45,21.31-5.13,19.83-1.38,97.21-23.57,88.94-71.11,3.81-.66,7-8.39,2.25-11.68C235.93,91.94,230.74,84.72,225.47,86.28Z"/><path class="cls-6" d="M116.63,172.71Z"/><path class="cls-6" d="M116.63,172.71h0Z"/><path class="cls-6" d="M206.84,146.89c-4.62,1.84-9.06,4.15-14,5.16a.7.7,0,0,0-.67.75c-.3,2.4-2.56,4.4-4.21,6-.68.31-1.86.44-2.19,1.16-2.24,1.46-5.29,2.31-7.7.79a.68.68,0,0,0-.9-.64c-.39-.23-.77.35-.48.68a9.35,9.35,0,0,1-3.42,5.35c-3,.72-6.63,1.35-8.91-1.3a.36.36,0,0,0-.64.31c-2,.68-.79,3.27-5.79,4.69-1.89-.11-3.92.29-5.68-.76-.23-.13-.58-.42-.85-.2-.11-.35-.44-.77-.84-.51-.54.51.18,1.39-.09,2.06-.12,3.16-3.75,3.76-6.16,4.55-1-.9-2.74,0-3.84-1.05-.78-.46-4.7-4.1-3.18-1-5.15,3.67-15.51,4.17-19-1.87a.41.41,0,0,0-.78.27c-4.62,1.2-9.57,2.42-14.32,1-1-.82-2.51-.82-3.56-1.62a5.24,5.24,0,0,1-2.13-2.27.39.39,0,1,0-.7.36,10.65,10.65,0,0,1-6.59-2.07c-.47-.3-1.27-1.12-1.85-.69-3.53-2.75-5.92,2.22-4,2.3,11.72,5.51,25.3,6.46,38,7.52,4.07,1.8,8.38.65,12.62.64,5.21,0,10.54.15,15.3-2.28,6.12-1.76,12.14-4.61,18.43-6.11,1.61-.05,3.65-.05,4.9-1.18a4.63,4.63,0,0,0,1.28-.72c2.87-.68,5.83-2.66,8.73-3.68C186,161.81,212.37,148.93,206.84,146.89Z"/><path class="cls-7" d="M143.36,79.66c-1.28-.67-2.18,1.65-3-.21-5.26-4.88-1.82,10.53,1,11.37.44.61,2,.92,2-.15C144.35,88.53,145.75,80.94,143.36,79.66Z"/><path class="cls-7" d="M136.57,85.15a3.4,3.4,0,0,0-.63-.69.68.68,0,0,0,0-.84c.27-1,.92-5.52-.73-5.17-1.09.71-1.78,2.17-3.34,1.87a2.81,2.81,0,0,1-2.38-2.73c-.83-1.72-1.43.76-.88,1.57-1.4.75.48,2.46,1,3.29a2.67,2.67,0,0,0,1.81,2.22C132.25,86.31,137.09,88.26,136.57,85.15ZM134,84.89l0,0,0,0Z"/><path class="cls-7" d="M143,98.62c-.37-1.32-1.68-.78-2.19.12-2.55,2.18-6-.15-7.17-2.69-.64-.78-1.16.29-.66.87-1.18.67-.07,2.35.52,3.11.87,2.62,3.53,3.68,5.58,5.19C144,108.05,143,101.57,143,98.62Z"/><path class="cls-7" d="M131.82,88.51c-2.54-1.79-3,3.55-5.85,3a7,7,0,0,1-6.52-3.73c-.54-.72-1.06.22-.63.75-1.12,4.56,9.47,10.36,12.93,7.79C132.52,94.05,133.38,90.64,131.82,88.51Zm-1,1.13c-.06,0,0-.08,0,0Z"/><path class="cls-7" d="M116.44,85.27a.58.58,0,0,0-.56.28c-4.71,1.58-3.67,10.75-7.3,9.81-7.09.21-.22,8.6,3.67,7.17,1.34-2.94,1-6.83,3.45-9.49C117.86,91.14,121,86.28,116.44,85.27Z"/><path class="cls-7" d="M126.61,98.28c-5.59-1.71-6.32,2-6.84,6.39-1,.38-2.39-.27-3.13.79-2,3.17,5.21,6.17,7.58,5.71,1.57-1.56.5-4.48,1.61-6.45C126.26,102.62,129.59,99.8,126.61,98.28Z"/><path class="cls-7" d="M140,108.78a2.54,2.54,0,0,0-2.34-2,.62.62,0,0,0-1.11-.06.44.44,0,0,0-.44.48c-1.6,1.18-.35,5.74-2.24,5.59-1.32-.54-2.59-1.65-4.14-1.25-6.66,3.2,5.61,10.76,8.81,7.37C139.55,115.73,139.3,112.07,140,108.78Z"/><path class="cls-7" d="M147.37,120.45c-.72-.77-1.92-8.53-3.07-5.26-1.17.27-1.4,1.55-1.54,2.59C135,119,149.12,128.43,147.37,120.45Z"/><path class="cls-7" d="M148.38,129.32c-.2-1.71-1.1-3.44-2.94-3.77-1.55-1.5-3.93-.51-5,1.11-.4.16-.87.33-1,.8.37,2.68,4.71,2,6.65,3.12C147.29,131.54,148.9,131,148.38,129.32Z"/><path class="cls-7" d="M132.56,120.46a.55.55,0,0,0-.17-.65c-1.65-1.23-3,.75-4,1.86-1.59,1.24-3.44-.35-5.15-.29a2,2,0,0,0-2.07,2c.86,4.42,7.18,1.81,10.21,3.21C135.09,127.63,134.75,122,132.56,120.46Z"/><path class="cls-7" d="M121.23,114.94c0-3.7-6.35-6.47-7.55-2.11-.25,1.41.15,3-.27,4.4-1.07-.34-2.57-1.32-3.29.19-.81,3.61,5.88,6.47,8.83,6.41,1.34-1.19,2.3-6.62,1.89-8.45A.42.42,0,0,0,121.23,114.94Z"/><path class="cls-7" d="M108.67,104.89c-3.24-7.18-9.57-3.47-7.68,3.86-6-5.6-6.31,8.6,4.9,8.77,2.83-.17,1.4-4.57,1.31-6.23C106.75,109,108.7,107.07,108.67,104.89Z"/><path class="cls-7" d="M95.42,108.78c-1.49-2.32-4.65-1.53-5.81.67-.77,1.18-.33,2.75-1.1,3.89-4.56,2.5-2.92,6.48.39,9.31,3.62,2.28,2.41-2.87,3-4.84.31-3,3.31-5.28,3.17-8.31C95.36,109.44,95.64,109.12,95.42,108.78Z"/><path class="cls-7" d="M104,124.61c1-2,1.39-4.62-.67-6.07.12-.82-1.45-1.13-2.11-1.4-4.35-.69-4.9,4.82-3.49,7.75-4.25,2.44,2.72,5.59,5,5.06C104.32,128.76,102.92,126.23,104,124.61Z"/><path class="cls-7" d="M114.72,122.62c-2.87-1.74-7,.88-7.54,4.06a7.5,7.5,0,0,1-1,3c-.43,1.24-.19,3.91,1.64,3.58,2-2.44,2.11-6.11,5.85-7.4C115.05,125.51,116.18,123.55,114.72,122.62Z"/><path class="cls-7" d="M102.83,143.69c-.17-2.15-1.71-4-1.54-6.22,1.13-2.62-.32-4.85-1.83-7,1.11-1.32-5.4-4-5.71,2.05-.66,2.36,1.72,4.51.57,6.66a2.8,2.8,0,0,0-.49,1.92C94,143.71,103.12,148,102.83,143.69Z"/><path class="cls-7" d="M89.7,126.48c-1.43-2.45-4.68-2.3-5,.81-.52,2.57-.79,3.56-3.41,4.28-2.17,2.57,5,7.92,7.06,5.68.32-1.87-.34-3.9.24-5.81C88.49,129.8,90.67,127.83,89.7,126.48Z"/><path class="cls-7" d="M115.91,145.42c-2.45-5.11-12.87-9.46-8.21.15C103.68,148.72,120.9,153,115.91,145.42Z"/><path class="cls-7" d="M86.82,139.07c-6.08-2.43-4.47,2-6.39,5.56-.5,2.26,3.14,5.6,5.16,5.22C86.42,149.43,89.58,136.05,86.82,139.07Z"/><path class="cls-7" d="M98.6,161.88c-.13-.66-.79-1.39-1.5-1.09-1.85-1.44-4.56-1.52-5.88.61C80.68,161.51,98.07,180,98.6,161.88Z"/><path class="cls-7" d="M101,148.73c-4-6.42-8.64-2.89-7.31,3.56-2.24,1.3-1.35,4.37.68,5.44,4.67,2.68,8.62,3.79,7.24-3.33C100.88,153,103.08,147.75,101,148.73Z"/><path class="cls-7" d="M118.81,160.23c-1.3-2.43-.29-5.91-2.83-7.52-.32-1.45-2.77-1.32-3.88-.75-2.7,1.25-2.37,4.46-2.85,6.86-.84.68-2.56.31-2.77,1.84C105.74,166.54,119.69,166.4,118.81,160.23Z"/><path class="cls-7" d="M116.36,169.51c-1.61-5.3-6.86-6.22-10.61-2.36-2.23.7-4.31,1.44-2.76,4.2,2.08,3.46,12.85,3.49,13-1.45C116.17,169.93,116.43,169.78,116.36,169.51Z"/><path class="cls-7" d="M136.64,172.9c-.37-6.72-4.59-6.45-9.41-3.65-1,.28-2.29.13-2.63,1.43C122.88,176.57,137.34,178.67,136.64,172.9Z"/><path class="cls-7" d="M132.2,163.07c-.71-1.76-4.43-3.36-6.16-3.42-4.59-3.16-6.58,1.35-3.27,4.68C125.05,166.19,132.16,167.34,132.2,163.07Z"/><path class="cls-7" d="M150.55,169.27a6.63,6.63,0,0,0-1.47-2.77c-.3-6.12-4.5-2.15-7.75-1.5-3.4-.05-1.91,3,.09,4,.88.87,1.32,2,2.12,2.95C145.84,175,151.47,173.37,150.55,169.27Z"/><path class="cls-7" d="M164,160.42c-1.9-2-5.34.09-7.58,0-1.56.22-2.49-1.37-3.95-1.3a6.76,6.76,0,0,0-3.87,3.24c-1.87-.06-.15,2.92,1,3.06,2.94.95,5.78-1.73,8.73-.83,1.2.37,2.3,1.15,3.61,1C164.33,165.43,165.66,162.16,164,160.42Z"/><path class="cls-7" d="M162.75,151.59c-1.45-3.09-2.56-1.22-3.41,1-1,2.74-4.33,3.94-5.09,6.8.44,1.73,3.57,2.29,4.52.65,1.33-2.63,4.14-4.51,3.82-7.8A.41.41,0,0,0,162.75,151.59Z"/><path class="cls-7" d="M171.26,149.57c-3.08-2.93-10.3-6.85-9.11.77.36,1.92.46,4.57,2.37,5.63,2.92,1.46,3.52-3.23,6-3C172.38,153,172.52,150.51,171.26,149.57Z"/><path class="cls-7" d="M166.43,157.12c-.39-.21-1.05-.43-1.34,0-1,1.41-3.05,5.48-.14,5.87,2.09.35,4.35,1.35,6.27-.11,1-.59,2.11-2.44.79-3.22"/><path class="cls-7" d="M189,153.89c-2.42-3.07-6.67-1.07-9.87-2a.59.59,0,0,0-.71.79c-2.9,5.63-1.3,7.62,4.77,6.19,1.12,0,2.08.39,3.1-.25C187.5,157.49,190.13,155.79,189,153.89Z"/><path class="cls-6" d="M152,132.5c-.05-1.93-2-3-2.31-4.77a3.92,3.92,0,0,0-1.53-3.6c-5.07-8.39-3.91-18.85-4.66-28.21a16.15,16.15,0,0,0,.66-6.49c0-.7.68-1.77,0-2.27.65-7,4.87-14,3.72-21-.26-.65-1.4-.23-1.16.45C147,75.18,142,83.51,142,92.27c-1.71-1.4-2.88-3.34-4.32-4.93a.81.81,0,0,0-.34-.42c.94-1.87-.89-4.1-.09-6.19-.07-1.61,1.29-3.68.53-5.06.14-.93,3.41-4.32.94-3.77-2.7,2.39-7.36,14.08-2.21,15.34-.53,3.35,3.1,6.09,5.36,8.08a58.94,58.94,0,0,0,.15,11.19c-2.54-.86-5.78-.86-7-3.74-2.79-.64,2.56,5.83,3.62,6.1.25.17.25.08.17.37-1.12,2.37-2.35,5.32-1.49,8,1.64,2.92,3.6-8.13,4.9-9.31a.78.78,0,0,0,.29.5c.8,5.43,1.46,11.25,4.11,16.12a15,15,0,0,1-7.25-4.07c-.74-1.18-1.31.14-.79,1,.89,3.23,4.35,4.06,6.63,6,1.06,1.14,2.68,5.48,3.36,1.56.47,1.29,1.79,2.22,1.93,3.63C150.55,133.53,152.07,133.49,152,132.5Z"/><path class="cls-6" d="M193.42,153.58c-13.36-.81-18.31-.38-30.07-7.28a.6.6,0,1,0-1,.68c3.06,4.22,8.45,5.89,13.26,7.14.92,2-.66,4-.05,6-2.44-.17-5-.31-7.2-1.53a.46.46,0,0,0-.56.74c2,1.78,4.78,2.07,7.35,2.23.1.77.43,1.78-.21,2.38-.27,2,2.8.71,1.68-2.72,1-.15.45-1.24.34-1.84-.15-1.72.92-3.45.27-5.15.64,0,1.43.25,2-.08C180.92,153.77,197,157.37,193.42,153.58Z"/><path class="cls-6" d="M127.85,83.58a7,7,0,0,0,2.78,3.83c-.17,1.68,2.26,1.36,1.34,4-.83,1-2.11,9.83.48,6.44a14.64,14.64,0,0,1,2.31-8.71.84.84,0,0,0-.12-1.59c-11.82-3.9-3.75-13.12-6.49-17.79a.53.53,0,0,0-.88.56c.68,4.3-2,8.94.57,13.13A.33.33,0,0,0,127.85,83.58Z"/><path class="cls-6" d="M135.22,119c-1.6-.22-3.24-.87-4.83-.86-1-.27-3.66-5.22-3.85-2.64,1.13,3,4.06,4.42,6.3,6.37a.58.58,0,0,0,0,.43c-1.59,1.21-.39,6.77,1.47,4.44C134.5,123.62,141.61,119.63,135.22,119Z"/><path class="cls-6" d="M119.49,109.73a18.71,18.71,0,0,1-6.5-5.65.71.71,0,0,0-1.22.73c1.64,3.93,4.84,6.42,8.54,8.24l.15.08c-2.78,5.9-.6,14.19,1.54,2C125.87,112.39,122.28,110.91,119.49,109.73Z"/><path class="cls-6" d="M125,110.52c0-4.12,1.82-7.8,4.16-11.07,1.58-.52,1.57-2.28-.21-1.49-3.54-1.39-7.18-2.6-9.72-5.74-4.21-.69,4.06,8,7.88,7.53-3,3-6.74,8-2.61,11.64C125.05,111.79,125.4,110.91,125,110.52Z"/><path class="cls-6" d="M117.86,90.24a.47.47,0,0,0,.65-.67,3.77,3.77,0,0,1-.46-3.08c.16-2.28,2.15-4.29,1.36-6.61-.13-.93-2.15-3-2.47-1.25.36.81,1.37,1.26,1.32,2.29C117.89,83.83,115.07,87.67,117.86,90.24Z"/><path class="cls-6" d="M103.48,95.78a10.49,10.49,0,0,0,2.43,5.68c2.66,4-2.44,8.39.42,12.23.38.5,1.11,0,1.15-.47a24.67,24.67,0,0,1,2.22-8.63c.81.49,2-.76,1-1.36a9.73,9.73,0,0,1-5.29-5.18c-1.21-2.27-.25-5-1.54-7.18-.3-.47-1.07,0-.83.51C103.73,92.72,103.33,94.34,103.48,95.78Z"/><path class="cls-6" d="M120.12,124.08a7.75,7.75,0,0,1-6.8-2.59c-3-.4,2.21,3.55,3.18,3.61.8.92,2.51.23,3.62.35C121,125.42,121,124.05,120.12,124.08Z"/><path class="cls-6" d="M100.51,118a10,10,0,0,0,3.49,1.75c-.13,1.07-.65,2-.42,3.11,1,1.37,1.13-.72,1.52-1.34,1.88-3.21,3.32-5.36-1.71-3.53a11.56,11.56,0,0,1-5.56-4.73C95.76,112.85,99.66,117.69,100.51,118Z"/><path class="cls-6" d="M97.63,130.57c3.1,1.35.93,5,2.89,6.52,2.61,1.11,2.43-3.72,2.65-5.31-.26-1.61-3.59-2.93-4.87-2.23C95.81,126.69,95.35,128.57,97.63,130.57Z"/><path class="cls-6" d="M91.49,118.36c1.16-2.16.82-5,2.75-6.91.84,1.12,2.15-.91.89-1.26-2.4-2.81.84-8-2.92-9.91-.66-.26-1,.73-.37,1,2.22,1.8.12,5.34,1.15,7.75-.31,1.67-1.34,3-2.18,4.45C90.29,114.65,89.25,119.13,91.49,118.36Z"/><path class="cls-6" d="M86.91,123.12c.61,1.07.2,2.29.37,3.44.34,2.61,3,2,3.3-.27,1.85-2.64-.84-3.36-2.8-4.47C84.61,116.73,84.41,119.59,86.91,123.12Z"/><path class="cls-6" d="M89.11,139.12c1.23-1-3.42-2.64-3.89-2-.47-.74-1.76-.3-1.17.54.59.58,1.28,1.09,1.82,1.7-.41,1.47-1.1,3.8.94,4.49,1.79-.07,1.54-3,1.88-4.28C88.83,139.39,89,139.25,89.11,139.12Zm-2,3.28h0Zm0,0Z"/><path class="cls-6" d="M101.63,146.13a14.7,14.7,0,0,1-1.93-.47c-1.74-2.12-3-1.08-1,1,.63,1.4,0,3.3,1.15,4.46,1.8,1.4,3-1,3.28-2.53C104,147.08,103.3,146,101.63,146.13Z"/><path class="cls-6" d="M99.66,159.57c-1.37.39-3.16-.54-4.31.17-2.2-.77-3.7-2.59-5.59-3.93-2.89.33,5.28,6.3,6.85,5.65l.15,0c-.84,1.06-1.19,6.35,1,4.13C97.65,164.13,101.57,159.72,99.66,159.57Z"/><path class="cls-6" d="M118.26,163.71c-1.81.29-4,.2-5.57,1.07a11.6,11.6,0,0,1-3.18-1.13c-1.72.23.95,1.74,1.59,1.95,1.73.69,4.63.69,3.8,3.31a1.54,1.54,0,0,0,.31.81c-1.39,3.35,2.12,4.7,2.07.67C118,169.9,119.55,163.69,118.26,163.71Zm-1.86,1.43h0Z"/><path class="cls-6" d="M118.5,150.25a2,2,0,0,0-.68-.13c-3.36-3.85-7.58-7.75-9.26-13,1.38-.42-2-4.69-2.72-3.43-4.9-6.49-1.15,3,1.94,3.45a23.7,23.7,0,0,0,8.3,13.09c-1.59.32-3.54-.55-4.93,0-1.1,0-5.56-4.71-5.27-2.9,4.48,6.87,11.27,4.53,10.05,7.88-.06,1.07,1.46,2.44,2,1C118.28,154.47,120.38,151.56,118.5,150.25Z"/><path class="cls-6" d="M136.87,171.05a.55.55,0,0,0-.57,0,5.05,5.05,0,0,1-1.42-2.55c.72-1.19,1.25-3.1.14-4.07-1-.81-3.24-2-4.35-1-6.64-5.15-3.9-.78.09,1.58-2.23.63.66,1.75,1.27,2.49.49.58.82,1.57,1.7,1.63.37,1.36,1.15,3.11,2.62,3.54A.83.83,0,0,0,136.87,171.05Z"/><path class="cls-6" d="M164,161c.2-1.34-1.92-1.55-2.25-.36a7.83,7.83,0,0,1-3.81-.38c-2.47.84,2.81,2.23,3.72,1.84a2.65,2.65,0,0,0,.38.84c.46,1.08-1.36,6.09,1,4.63C163.89,165.45,163.19,163.08,164,161Z"/><path class="cls-6" d="M158.49,153.15a4.21,4.21,0,0,0,1.2-1.85c1.42-1,2.84-4.9-.31-3.18-.69-.76-3-.31-2.81.87a.35.35,0,0,0-.12.07c-4.55-1.28-4.47-6.18-4.26-10,0-.35-.62-.47-.73-.11-1.76,4.44,0,11.51,5.59,11.62a5.33,5.33,0,0,0,1.11.7,3.35,3.35,0,0,1-.69.87C156.79,152.77,157.81,153.76,158.49,153.15Z"/><path class="cls-6" d="M156.07,140.27c1.35,1.92,3,4.85,5.5,5.07,1.61-1-.93-1.69-1.5-2.38C158.57,141.62,152.91,133.38,156.07,140.27Z"/><path class="cls-6" d="M152,58.36c-1.92-1.13-5.09-1.78-6.89-.16-24.57,8.92-43.31,29.31-59.87,48.7-6.07.61-1.56,11.41-1.17,6.37a17.48,17.48,0,0,1,5.28-9.49c.94.08,1.3-1.43,2.28-1.6.85-.58,2.06-.05,2.73-.72a.53.53,0,0,0,.87-.32c.72-4.16,4.33-9.78,9.1-9.1a.71.71,0,0,0,.87-1.1c2.15-5.1,7.18-14.57,13.88-10.71.77.61,1.8-.5,1.07-1.09,2-1.53,6.07-8.45,8.48-7.47a.42.42,0,0,0,.08.58c.54,1.15,1.75-.22,1.27-1,2.37-3.66,11-6.8,9.43.49a.61.61,0,0,0,1,.47,10.31,10.31,0,0,1,6.5-5.37c.92-.34,1.35.56,2.14.72a.77.77,0,0,0,.66-1C151.27,64.24,155,60.88,152,58.36Z"/><path class="cls-7" d="M90.56,91.51c-4.72,0-7.74,13.32-3.37,10.25.55-3.36,1.24-6.85,4-9.08C91.85,92.2,91.17,91.4,90.56,91.51Z"/><path class="cls-6" d="M196.84,95.93c-2.75,5.41-10.24,4.9-14.9,2.46a.43.43,0,0,0-.56.31c-4.24-2,2.31,4,5.85,3.42,4,0,9.39-1.5,10.84-5.65A.68.68,0,0,0,196.84,95.93Z"/><path class="cls-7" d="M104,81.74c-1.73.69-3.09,2.18-5,2.5.19-1.37,1.34-2.41,1.64-3.64a.71.71,0,0,0-.22-.81c.79-.25,1.91-1.5.46-1.63-4.09.54-8.09,8.64-2.18,9.32C101,88.71,104,85,104.54,82.93A.66.66,0,0,0,104,81.74Z"/><path class="cls-7" d="M116.26,73.12c-.48-1.62-2.3-1.5-3.62-1.71-1.17-1.1-2.47.19-3.06,1.35-2.08,1.17.83,3.74,2.29,4S116.73,75,116.26,73.12Zm-1.36.52v0h0Zm-.08.12a1,1,0,0,0,.07-.15s0,.09,0,0A.31.31,0,0,1,114.82,73.76Z"/><path class="cls-7" d="M140.86,56.22c-6.75-6.6-19-2.75-25.13,3-1.91,1.81-4.35,3.48-5.27,6-1,1.71.94,3.53,2.23,1.71,3.6-5.53,10.43-11.11,17.36-10.31a1.5,1.5,0,0,0,.52,2.44c1,.48.69,1.92,1.8,2.32C134.19,61.83,143.43,59,140.86,56.22Zm-8.32-.39-.14-.1.15,0A.22.22,0,0,0,132.54,55.83Z"/><path class="cls-7" d="M89.24,170.49a.72.72,0,0,0-.19,0,1.21,1.21,0,0,0-2.17-.13.67.67,0,0,0-1.26.08c-1,1.29.78,7.15,2.36,4.69a.81.81,0,0,0,.41-.18c-.17.88,1.11,1.27,1.24.3C89.37,173.88,90.63,171.26,89.24,170.49Z"/><path class="cls-7" d="M98.65,175.61c-.12-1,.06-3.56-1.61-2.75a1.31,1.31,0,0,0-2.05-.23c-1.93-1.19-3.85,4.9-1,4.31,1.33.19.89-1.78,1.37-2.52a1.93,1.93,0,0,1,.53-.72c-.09,1.11-.19,4.51,1.68,3.21C98.3,178.46,99.89,176.25,98.65,175.61Zm-2.82-2.16v0S95.81,173.45,95.83,173.45Z"/><path class="cls-7" d="M107.74,176.53a.67.67,0,0,0-1.14,0,.66.66,0,0,0-1.08-.49.67.67,0,0,0-1-.1c-2-.79-2.28,4.14.08,3.3a1,1,0,0,0,1.09.23.66.66,0,0,0,.79.1C108,180.87,108.37,177.47,107.74,176.53Z"/><path class="cls-7" d="M117.13,177.45a9.68,9.68,0,0,1-1.31-.7.76.76,0,0,0-1-.47.75.75,0,0,0-1.2.16c-2.2.62-1.43,6.71,1,5a1.21,1.21,0,0,0,1.08-.66.69.69,0,0,0,.93-.69C118.05,180.24,117.31,178.23,117.13,177.45Z"/><path class="cls-7" d="M126.59,177.55a.71.71,0,0,0-.79-.69.7.7,0,0,0-1,.25.72.72,0,0,0-1.08.26c-2.37-.83-1.46,5.7.73,3.21a1.5,1.5,0,0,0,1.39-.22C127.21,180.26,126.58,178.42,126.59,177.55Z"/><path class="cls-7" d="M133.05,179.38c0-1.24-1.93-1-2.6-.51-.72,1.47,1.18,1.3,2.1,1.15h0A.65.65,0,0,0,133.05,179.38Z"/><path class="cls-7" d="M52.15,91.67c-1.34-.93-8.07-5.87-5.68-1-.83.85.16,2.3,0,3.35.94.73,1.34-1.85,1-2.48a1.85,1.85,0,0,0,.55-1.38C48.82,90.28,52.55,93.32,52.15,91.67Zm-5.35-2h0S46.77,89.68,46.8,89.69Zm.55,2c-.05,0-.09.07,0,0Z"/><path class="cls-7" d="M82.2,120.07c-.58-9-30.3-28.61-20-19.86,3.45,4.08,14.65,12.44,12.88,18.09a2.21,2.21,0,0,0-1.83,2.26c-.5,1.74,4.14,5.22.85,5.5-7.94-1.46-17.38-1.25-24.07-6.15a18.72,18.72,0,0,1-2-20.53c1.64-3.69-3.27-4.58-4.83-1.63-3,5-2.85,11.19-1.71,16.81C40,117.54,46.13,126.14,49,128a28.07,28.07,0,0,0,17.77,3.84c1.07.54,10.48,3.08,6.53,0a4.33,4.33,0,0,1,3.23-2.2c1.1-.45,1.14-2.08,2.7-1.5,1.65-.29,1.09-3.29,2.08-4.53A6.47,6.47,0,0,0,82.2,120.07Z"/><path class="cls-7" d="M84.58,157.53c-.34-1.41,3-5.85,1.65-6.3-2.53-.86-7.53-7-7.69-8.67-.35-3.68,1.44-1.26-.93-3.94-2.07-2.34-3.87-2.72-7.1-2.27a7.61,7.61,0,0,0-4.45-.34c-1.4.79-2,2.6-3.72,3-.58.21-.21,1,.3.95a21,21,0,0,1,9.69,1.84c4.33,2.14-1.25,3.66-2.55,5.4.26,1.86,5.09,1.3,6.7,1.3.83-.11.89,1,.22,1.36-9.42,6.27-21.55,5-32.22,3.56.86-5-4.13-2,.52-12.22a24.49,24.49,0,0,1,5.52-7.59c.47-.43-.07-1.33-.65-1-13.25,9-4.17,15.38-11.3,22.64-6.83,6.22-.45,15.09-.54,6.34a25.63,25.63,0,0,1,4.77-5.4c.66,1.13,4.42,1.83,3.21,3.33-2.77,1.91-4.76,2.25-.5,4.33,2.09,1.33-2.4.64-3.1.51-.93-.11-2.51.18-2.14,1.5,2.59,3.88,8.61,3.82,12.82,4.35,7.35.48,14.65-.9,21.78-2.56C80.55,166.44,88,165.36,84.58,157.53Z"/><path class="cls-8" d="M188.57,98.85c-12-.06-11.95-18.24,0-18.3S200.53,98.79,188.57,98.85Zm0-16.91c-10.14.06-10.14,15.47,0,15.52S198.72,82,188.57,81.94Z"/><path class="cls-7" d="M138.6,131.12c-9.79-5-33.63-8.13-22.87,9.92,2.68,4.93,11.07,5.57,8-1.53-.49-.52-.87-1.12-.48-1.82,1.28-2.32-.79-2.26-.55-3.53C124.45,132.07,140.55,134.43,138.6,131.12Z"/><path class="cls-7" d="M148.24,144.2c-1.39-2.1-4.53,0-6.37.5-4.36,2-16,3.5-18.89,4.16.1,2.47,2.75,1.44,2.7,5.75.25,4.31,9.12,4.69,11.83,2.83,2-1.12,1.83-3.71,3.27-5.19.67-1.51-2.58-.63-3.45-.9C140,147.68,147.31,148.86,148.24,144.2Z"/><path class="cls-6" d="M87.29,165.1a13.7,13.7,0,0,1-.84-13.38.66.66,0,0,0-.23-.88c-3.16-1.37-6.09-3.21-7.56-6.43A16.61,16.61,0,0,1,80,132.83c-.45-4-.64-8.45,1.22-12.31.6-1.87,3-3,2.3-5.16-.27-.78.14-2.77-1.06-2.61,0,0,0-.07,0-.11.86.35,1.57-.85.62-1.22A16.6,16.6,0,0,1,78,108.61c-3.5-.27,4.09,4.27,2.9,8.17-3.67,5.27-2.72,11.62-3.33,17.56-1.16,1.28-2.69,2.3-4.35,1.64a.63.63,0,0,0-.38,1.2,5.46,5.46,0,0,1,4,3.72c0,1.3,0,3.09.89,4.13A10.33,10.33,0,0,0,81,149.86c1.28,4.72-8,2.17-4.86,4.53,4,.18,8.17,1.57,6.34,6.38-.36.43-1,.44-1.4.8a.66.66,0,0,0-.5,1.11c.87,1.16-.35,2.49-1.27,3.1-1.28,2,2.08,1,3.16.33.41.59.44,1.38.92,1.91s2,.3,1.83-.72C86.11,167.19,87.6,166.15,87.29,165.1Zm-5.71.14s0,0,0,0h0S81.57,165.25,81.58,165.24ZM84,166.39s0-.09-.05-.13l.12.07Z"/><path class="cls-7" d="M155.68,149.74c-2.18,1-3.85,2.92-6,4.09a14.35,14.35,0,0,0-8.79,7.55.52.52,0,0,0-.5.8c.6,1,1.82.64,2.68.24C145.22,161.83,163.28,150.29,155.68,149.74Z"/><path class="cls-7" d="M161.88,144.26c-.09-2.64-8.33-3.59-5.4-.07-2.15.92-.15,2.7,1.4,2.54C159.28,147.07,163.32,146.19,161.88,144.26Zm-5.2,1c-.05,0,0,0,0,0Z"/><path class="cls-7" d="M221.13,122.3c-1.22-2.94-4.28-.11-4.86,1.84-1.93,1.51-5.31,4.41-7.68,4-.39-3.65-4.41-4.62-7.53-4.08-2.91.93-4.83,3.71-8,4.24-4.42,1-10.42-1.08-12.82,4.11-1.89-.57-6.64-.66-4.54,2.45.69,1.48,1.44,2.86,2.15,4.32C155,132,145.49,93.47,152.5,72.69a60.46,60.46,0,0,1,1.37,6.79c.09.62,1,.46.95-.15a33.43,33.43,0,0,1,1-11c.67-4.25,5.84-2.18,8.75-2.37,4.07-.53,4.34-2.4,9.11-1.64,2.95-1.44,5.91-2.81,9.24-1.45,1.66-.12,14.56,5.53,12.91,2.48-10.75-7.08-27.84-9.48-40.26-6.15-9.4,2.55-10,28.91-9.55,37.32,1.44,19.83,11.27,39.08,27.41,50.9.6,1.19.8,2.6,2.17,3.27C194.48,156.44,224.22,145.52,221.13,122.3Z"/><path class="cls-7" d="M194.71,86c-1.09-.82-2.9-2-2.63,1.54-1.8,1.63-3.49,7-7.64,4.06-.29,0-.53.16-.32.92C186.7,100,199.18,93.18,194.71,86Z"/><path class="cls-7" d="M228.48,92.43c-4.31.79-9.32,1.63-11.08,6.27-.51,1-1.44,2.85.2,3.32,1.73-.65,3-2.74,5-3.42,2.79-1.72,7.28-1.1,9-4.26C232.26,92.41,229.73,92.2,228.48,92.43Z"/><path class="cls-7" d="M230.6,104c-5.9-4.29-12.22,3.85-18.43,3.22-3.82-1.34-3.19,2,.4,2.26C215.39,110.13,230.86,107.45,230.6,104Z"/><path class="cls-8" d="M179.79,82.21c-4.9,4.75-4,14.9,2.7,17.53a.53.53,0,0,0,.49-.92c-7.11-5.11-5.22-10.48-3.19-16.61Z"/><path class="cls-8" d="M182.58,80.32a11.06,11.06,0,0,1,14,2.1c4.28.06-5.37-4.89-6.64-4.45C188.42,77.36,182,78.94,182.58,80.32Z"/><path class="cls-8" d="M199.49,89.44a11.43,11.43,0,0,1-2.32,7,.32.32,0,0,0,.48.41c1.31-.43,3.77-8.57,1.84-7.38Z"/><path class="cls-8" d="M213.5,94.59c.87-1.65,12.3-6.26,9.43-7.11-6.45,1-15.19,10.7-16.41,15.13a.26.26,0,0,0,.45.24S210.14,97.2,213.5,94.59Z"/><path class="cls-8" d="M230,96.1c-1.25-.7-12.73,3.34-9.25,4.29C221.88,99,231.44,97,230,96.1Z"/><path class="cls-8" d="M227.9,109c2.42-2.34-7.23.72-8.32.26a48.16,48.16,0,0,1-7.5-.18C209.79,110.38,220.61,111,227.9,109Z"/><path class="cls-8" d="M194.8,151.67c-16.31,2.17-32-6.49-40.58-20.28-14.14-19-9.32-43.35-4.46-64.78.16-.77-.95-1.16-1.19-.38a125.24,125.24,0,0,0-4.86,25.08c-2.29,22,5.25,48.31,26.07,59a40.9,40.9,0,0,0,13.88,3.59C185,154.17,198.58,153.93,194.8,151.67Z"/><path class="cls-8" d="M162.56,145.37c-3.31,7.8-9.82,13.63-17.25,17.52-3.61,2.4-6.9,1.18-9.39-1-4.28-.54-10.86-2.25-12.7-8.71C118.53,147.7,105.78,137,112,128.42c11-6.36,29.93,2.14,41.14,5.83.37.12-.25-1.28-.66-1.54-10.42-5.05-33-11.52-43.62-6.1-6.24,9.36,6.21,21.9,12.7,26.88,1,6.66,9.48,12.85,14.3,9.67,5.7,10.87,23-7.18,26.22-13.55C162.47,148.73,164.87,144.77,162.56,145.37Z"/><path class="cls-8" d="M143.2,58.17C119.14,67,99.81,86.41,84.72,106.58a.54.54,0,0,0,.89.61,263.63,263.63,0,0,1,18.77-20.91c9.28-9.2,19.53-17.57,31.22-23.51,1-.93,10.42-3.63,7.6-4.6Z"/><path class="cls-8" d="M146.28,57.33C142,51.17,132.21,51,125.4,51.64a22.75,22.75,0,0,0-18.79,15.89c-7,4.17-13.49,11.11-13.93,19.61-6.88,4-10,12.16-8.82,19.87.08.63,1.06.54,1.1-.07-.51-7.65,2.15-14.64,8.56-19.12C94.65,79,100.6,72.55,108,68.05a23,23,0,0,1,10.5-12.27c7.14-3.72,19.81-5.37,24.61,2.69C143.42,58.93,146.59,57.86,146.28,57.33Z"/><path class="cls-8" d="M49.51,87.51c11.48,7.19,23.24,14.23,32.71,24,.37.36,1-.26.63-.64-7.33-7.82-16.38-13.85-25.46-19.46-1.08-.36-8.6-6-7.88-3.94Z"/><path class="cls-8" d="M44.23,124c0,.25.41.27.32,0s-.42-.27-.32,0Z"/><path class="cls-8" d="M44.58,124.75c.06.21.3.53.45.21s-.53-.75-.45-.21Z"/><path class="cls-8" d="M82.18,165.82c-11.3,5.09-28.67,7.56-39.84,2.85-4.52-1.77-10.53-3.26-8-9.19a15.08,15.08,0,0,1,4.83-7c1.28-11.34-.83-12.37,8.63-20.5,4.47-1.71-10.81-16.65-7-28.64,2.9-7.93,6.24-6,3-14.89-2-3.29-1-3.42,2.26-2.56,2-1-3.18-2.12-3.93-1.74-2.79,1,1.22,7.07.71,9.6-8.94,10.67-1.3,25.49,4.2,36.41a21.86,21.86,0,0,0-9.76,21.16c-3.45,4.83-6.4,9.33-5.26,15,.72,1.46,8.5,4.75,15.3,5.66,12,2,24.2-.47,35.09-5.55A.35.35,0,0,0,82.18,165.82Z"/><path class="cls-8" d="M142.86,59.28c1-.71,6.23-.69,5.54-2.15C147.71,56.29,140.55,58.35,142.86,59.28Z"/><path class="cls-8" d="M154,56.6c5.24-.79,10.53-1.06,15.8-1.51a.25.25,0,0,0,0-.5C168.2,54.51,152.29,55,154,56.6Z"/><path class="cls-8" d="M225.84,116.68a44.4,44.4,0,0,1-14.51,28.95c-.28.26.14.73.44.5a42.46,42.46,0,0,0,15.09-29.36.51.51,0,0,0-1-.09Z"/><path class="cls-8" d="M208.73,147.31c-.95,1.43-14,8.89-11.48,9,1.28-.63,14.06-8.62,11.48-9Z"/><path class="cls-8" d="M189.91,159.52c-10.41,4.95-21.39,8.39-32.34,11.91-1.13.66-11.7,2.88-9.06,4.14,11.15-3.37,22.28-7,33.17-11.2,1-.55,10.7-4.11,8.23-4.85Z"/><path class="cls-8" d="M152.54,136.7c-2.19,4.68-1.1,12.85,5.5,12.34,1.74-.28,4.84-1.18,4.92-3.23-.39-1.17-1.56-.19-2.08.21-2,1.58-5,1.92-6.79-.19-2.87-1.92.46-10.87-1.55-9.13Z"/><path class="cls-8" d="M134.55,138.69a55,55,0,0,0,14.72-.57c.3-.05.3-.52,0-.49C147.54,138.4,132.78,137.16,134.55,138.69Z"/><path class="cls-8" d="M126.54,149.64c2.15.54,25.09-6.07,21.65-7.91a96,96,0,0,1-21.72,7.19A.36.36,0,0,0,126.54,149.64Z"/><path class="cls-8" d="M140.18,159.09c1.37-.47,14.28-10.78,10.8-10.81a116.57,116.57,0,0,1-11.12,10.42c-.23.19.08.53.32.39Z"/><path class="cls-8" d="M143,151.31c.92-.47,7-3,5.73-3.8C148,148,141.07,150.93,143,151.31Z"/><path class="cls-8" d="M125.63,61c1.45-.3,6.48,3.47,6.34,2.18C131.76,62,124.76,59.23,125.63,61Z"/><path class="cls-8" d="M110.86,68.87c2.36,1.25,5.2,2.1,6.84,4.32.21.27.75.14.66-.24C118.6,71.46,110.09,66.77,110.86,68.87Z"/><path class="cls-8" d="M103.61,78c1.2-.1,7.22,4.34,6.23,1.71C109.25,78.91,102.88,76,103.61,78Z"/><path class="cls-8" d="M95.24,89c1.08.67,2.16,1.34,3.2,2.06.91,1.18,1.87-.47.51-1.1-.65-.29-4.36-2.87-3.71-1Z"/><path class="cls-8" d="M88.9,98.2l.06,0a12.62,12.62,0,0,1,1.18.81c.45.87,2,.44,1.19-.47l.21.58C92,98,87.43,96.26,88.9,98.2Z"/><path class="cls-8" d="M91.49,171.24c-.58.75-2.14,4.5,0,3.4a.54.54,0,0,0,.09-.22c0-.27-.16.29-.17.3.45-.81.43-1.85.95-2.67.5-.43-.18-1.57-.83-.81Z"/><path class="cls-8" d="M101,173.73c-.35.79-1.26,2.65,0,3,.86,0,.65-1,.69-1.6.21-.67.35-2.4-.72-1.35Z"/><path class="cls-8" d="M109.57,175.24c0,1-1,2.59,0,3.18,1.28-.13.78-2.2,1.14-3.11a.58.58,0,0,0-1.15-.07Z"/><path class="cls-8" d="M120.32,176.4c0,.77-.78,3,.61,2.73.89-.51.68-4.83-.61-2.73Z"/><path class="cls-8" d="M128.6,177c-.18.77-.85,3.19.67,2.58.54-.42.69-4-.67-2.58Z"/><path class="cls-8" d="M50.23,97.67c8.45,6.23,17.86,11.6,24,20.32,3.79.12-8.22-10.59-9.61-11.41-4.45-3.53-9.4-6.31-14.2-9.31-.25-.16-.45.24-.22.4Z"/><path class="cls-8" d="M54.46,113.22c6.63,4.24,13.81,7.85,19.74,13.06,5.72.47-21.41-15.81-19.74-13.06Z"/><path class="cls-8" d="M53.61,132.7c6.65,1.76,13.36,3.32,20,5,.47.11.69-.69.22-.83C67.58,135.48,59.1,132.27,53.61,132.7Z"/><path class="cls-8" d="M51.26,143.93c2.59.84,21.33,2.32,20.78-.42a111.43,111.43,0,0,1-20.66-.27A.35.35,0,0,0,51.26,143.93Z"/><path class="cls-8" d="M45.5,152.24c2,2.07,34.84-.2,30.25-3-9.68,2.64-20.16,3.83-30.13,2.49A.28.28,0,0,0,45.5,152.24Z"/><path class="cls-8" d="M51,164.44c3.49,1,30.32,0,29.46-3.36-9.68,2-19.5,3.31-29.42,2.8A.28.28,0,0,0,51,164.44Z"/><path class="cls-8" d="M137.31,86.45c-8.18.14-9.33-7.73-7.3-14.06-1.9-3.67-2.88,8.86-1.93,10,.19,5.11,12.75,7.19,9.23,4.07Z"/><path class="cls-8" d="M136.86,86.29c-8.78,7.78-5.74,20.42,6.57,20.77.78-.11.6-1.43-.19-1.37-10.78-.59-12.86-11.49-5.41-18.23.66-.55-.3-1.72-1-1.17Z"/><path class="cls-8" d="M142.75,105.81c-6.81,8.23-5.73,17.69,5.83,19.79a.78.78,0,0,0,.35-1.51c-18.85-4.08-1.43-19.36-6.18-18.28Z"/><path class="cls-8" d="M148.08,124.45c-1.05.92-1.76,9.35.71,6.32.27-1.88-.29-3.89.64-5.65.45-.85-.91-1.44-1.35-.67Z"/><path class="cls-8" d="M120.78,78c-7.13,10.21-.91,20.26,11.17,20.27a.7.7,0,0,0,.16-1.27c-11.41-1.74-16-7.38-10.35-18.35a.59.59,0,0,0-1-.65Z"/><path class="cls-8" d="M131.17,97.09c-3.58,4.2-8.42,10.41-5.6,16.1a14.34,14.34,0,0,0,13.72,7.35.72.72,0,0,0,0-1.38C124.62,118,123.13,108,132.14,97.88c.45-.56-.47-1.31-1-.79Z"/><path class="cls-8" d="M138.78,119.15a13,13,0,0,0-5.22,7.75.78.78,0,0,0,1.51.35,13.66,13.66,0,0,1,4.48-7.06c.55-.48-.15-1.45-.77-1Z"/><path class="cls-8" d="M126.05,112.12c-12.32-5.39-16.39-9.58-6.81-21.23.29-.64-.42-1.48-1.08-1-10.6,11-6.1,19.25,7.37,23.39.67.27,1.15-.81.52-1.16Z"/><path class="cls-8" d="M124.14,111.17c-7.62,8.23-2.93,18.63-2.08,13.6-3.71-4.56,6.16-15.15,2.08-13.6Z"/><path class="cls-8" d="M112.83,101.3c-11,8.8-6,23,7.89,23.32a.75.75,0,0,0,0-1.5c-12.89-.82-16.46-12.41-7-20.91a.62.62,0,0,0-.85-.91Z"/><path class="cls-8" d="M112.32,102.62c-5.55-.6-6.75-6.57-7-11.22-3.9-3.22.15,15.69,7,11.22Z"/><path class="cls-8" d="M108,116.79c-8.65,1.32-13.74-7.31-12.51-15.05.07-.82-1.3-1-1.44-.17A16.41,16.41,0,0,0,96.81,114c2,4.45,14.41,5.54,11.15,2.76Z"/><path class="cls-8" d="M107.19,116.78c-4.81,6.18-7.27,15.49,1.65,19.22.94.5,1.66-.95.74-1.47-12.87-5.4,2.19-18.94-2.39-17.75Z"/><path class="cls-8" d="M102.92,129.8c-5.73,12.55,2.68,22.83,15.86,20.72.65-.26.66-1.3-.15-1.31-12.47,1-19.34-7.09-14.66-19a.56.56,0,0,0-1-.37Z"/><path class="cls-8" d="M103.12,129.7c-11.63-2.77-13.19-8.48-7.2-18.37a.79.79,0,0,0-1.27-.89c-7,9.76-4.36,18.83,8.1,20.56a.68.68,0,0,0,.37-1.3Z"/><path class="cls-8" d="M91.28,123.52c-8.58,10.79.22,25,13.58,23.08.89-.23.55-1.44-.25-1.49-12.29,1.15-19.64-10.77-12.18-20.9.51-.72-.63-1.36-1.15-.69Z"/><path class="cls-8" d="M118.84,150c-2.32,5.21-2.44,12.76,3.7,15.26,4.38,1.93,11.32,2.29,14.23-2.17.23-.58-.51-1-1-.77-4.79,4.52-15.33,3.36-16.83-3.82-1.08-1.32,2.35-10.7-.12-8.5Z"/><path class="cls-8" d="M103.91,145.66c-8.92,10.2,1.46,23.78,13.78,18.65,1-.13,3.64-1.77,1.66-2.53a.68.68,0,0,0-.19,1.34l-.5-.66c-10.82,5.1-22.11-4.75-13.85-16,.44-.51-.43-1.24-.9-.76Z"/><path class="cls-8" d="M88.8,137.9c-6.32,10.95-1.74,23.47,12.12,22.46.88-.05.9-1.41,0-1.38-13.4.61-16.07-10.18-11.09-20.71a.55.55,0,0,0-1-.37Z"/><path class="cls-8" d="M101.71,158.76c-4.3,1.61-6.94,13.47-3.77,10.3-.55-6.35,6.69-10.54,3.77-10.3Z"/><path class="cls-8" d="M119.16,162.82c-1.62,1.45-4.18,9-.7,8.85a.72.72,0,0,0,.18-.92,6,6,0,0,1,0-3.62c-.17-1,3.15-5.43.56-4.31Z"/><path class="cls-8" d="M136.05,162.8c-2.17,3.39-1.3,9.33,2.76,10.84.45.11.63-.48.43-.78-6-5.24-.22-11.56-3.19-10.06Z"/><path class="cls-8" d="M144.17,92.49c-8.29-3.84-6.8-14.15-3-20.76.27-.59-.61-1-1-.49a17.87,17.87,0,0,0-3.48,13.26c0,5.49,8.87,11.31,7.46,8Z"/><path class="cls-8" d="M161.58,148.7c-.74,8.13,7.53,12.57,14.74,11.79a.7.7,0,0,0,0-1.4c-6.65.48-13.68-3-13.76-10.42-.07-.54-1-.53-1,0Z"/><path class="cls-8" d="M165,157.06c-2.53,2.54-7.58,4.08-10.64,1.71-.72-.67-1.68.39-1,1.1,1.64,1.8,4.31,1.92,6.55,1.5a8.62,8.62,0,0,0,6-3.69c.39-.6-.45-1.13-.9-.62Z"/><path class="cls-8" d="M164.71,157.33c-1,2.58-3.31,7.38-.62,9.38.43.08.92-.31.72-.76l.07.08c-1.78-1.7,2.51-10.54-.17-8.7Z"/><path class="cls-8" d="M147.45,162.05c-1,5.39,7.3,11,6.87,7.4-6.26-1-5.4-9.85-6.87-7.4Z"/><path class="cls-8" d="M178.31,151.31c-1.17.83-3.3,12.48-.68,10.2a35.78,35.78,0,0,1,.2-5c-.22-1,2.52-6.12.48-5.24Z"/><path class="cls-9" d="M184.75,81c3.25-1.54,6.68-.17,9.55,1.44,2.22-1.12-3.54-3-4.53-3.07C188.9,78.82,183.06,80,184.75,81Z"/><path class="cls-9" d="M178.59,89.21c-2.46,10.14,13.76,15.67,18.36,6.45.14-.35-.28-.75-.61-.48-5.52,7-17.65,3.35-17-6,0-.44-.61-.37-.71,0Z"/><path class="cls-9" d="M185.05,95.79c5.21,3.55,12.75-1.57,10.66-7.75-1.23,5.32-3.41,9.12-10.38,7.19a.31.31,0,0,0-.28.56Z"/><path class="cls-9" d="M186.09,84c.92-.5,2-.08,2.91-.35C190,81.9,183.75,83.31,186.09,84Z"/><path class="cls-9" d="M229.56,88.82a4.34,4.34,0,0,1,1.21,1.41c.33,1.27,1.28.71.59-.3-.07-.49-2.11-2.26-1.8-1.11Z"/><path class="cls-9" d="M231,92.88l-.31.19a3.76,3.76,0,0,1-.58.23,1.13,1.13,0,0,1-.36.06c-.35-.24-1.39.42-.52,1s3.42-1.44,1.77-1.44Z"/><path class="cls-9" d="M231.86,102.11c-.94,5.08-7.73,4-11.55,5.2-1.68,2,7.64-.25,8.64-.52,2.1.1,5.17-6.21,2.91-4.68Z"/><path class="cls-9" d="M222.7,86.05C215.09,74.88,202.26,61.56,190,58.37c9.7,4.29,18.07,11.28,25.21,19,.6,4.67-2.37,3.73,2.26,5.91.54.93,1.7,2.36,2.92,2.6C220,87.45,223.13,87.36,222.7,86.05Z"/><path class="cls-9" d="M225.3,111.85h0a.63.63,0,0,0-1-.37,1,1,0,0,0-.85,0,.51.51,0,0,0-.33-.06c-.71-.14-2.09,4.21.12,3.65a1.1,1.1,0,0,0,.47,1,1.28,1.28,0,0,0,.06.84c-1,10.78-5.33,21.22-14.05,28-.47.58-4,2.87-2.86,3.07C219.19,140.28,225.44,126,225.3,111.85Z"/><path class="cls-9" d="M175.46,165c7-1.82,13.49-5.1,19.74-8.62.74-.56,6.59-3.56,5.12-4-8,4.66-16.18,9.23-25.06,12C174.87,164.48,175.08,165,175.46,165Z"/><path class="cls-9" d="M182.8,149.19c-32.87-12.18-41.93-47.43-33.06-76.84.11-.45-.58-.55-.71-.12-3.69,9.69-5.13,28.74-2.73,40.65,5.21,19.6,16,32,28.61,35.13a8.08,8.08,0,0,0,4.13.54C179.72,148.67,183.62,150.81,182.8,149.19Z"/><path class="cls-9" d="M129.93,128.56c-4.26-.48-8.93-1.75-13.14-1.07-7.23,2.79-4.24,11.29-.1,15.5,2.22,1.15-.27-2.77-.71-3.39-3.19-3.53-2.87-9.6,2.31-10.91,1.46-.77,13.16,2.18,11.64-.13Z"/><path class="cls-9" d="M142.27,136.27c2.46.38,5,.08,7.42.41.19,0,.2-.29,0-.32C148.7,136.34,141.28,134.63,142.27,136.27Z"/><path class="cls-9" d="M130.66,145.73c1,1.05,15.78-3.19,13.31-4C142.68,142.43,128.35,144.6,130.66,145.73Z"/><path class="cls-9" d="M150.33,147.35c-.72,2.05-12.3,8.76-9.5,8.9,1.23,0,12.74-9.1,9.5-8.9Z"/><path class="cls-9" d="M130.58,158.55c1.86,2.38,5.4,1.2,7,3.58,8,4.19,16.57-4.79,20.62-11.07.26-.41-.29-.9-.61-.49-4.14,5.24-12.47,14.24-19.62,10.07-.72-1.1-1.92-1-3.08-1-.95.39-4.8-2.39-4.34-1.11Z"/><path class="cls-9" d="M124.23,55.18c4.93-1.72,10.87-1.73,15,1.75.36.23.83-.14.56-.53-1.48-2.14-4.65-3-7.1-3.27C131.56,52.71,122.41,53.77,124.23,55.18Z"/><path class="cls-9" d="M120.53,55.78c-1.83-.67-12.09,8.27-8.85,8.09,2.6-2.93,5.1-6.34,9-7.52.38-.11.17-.66-.2-.57Z"/><path class="cls-9" d="M107.17,70.54C102,72.93,96.76,77.31,95.11,82.91c-.12.57.78.74,1,.23,2-5.23,6.53-9.24,11.37-11.88a.39.39,0,0,0-.29-.72Z"/><path class="cls-9" d="M92.3,89.64c-.79.18-4,3.52-2.14,3.41a11.64,11.64,0,0,1,2.59-2.79.38.38,0,0,0-.45-.62Z"/><path class="cls-9" d="M96.73,87.76l.08,0c.64-.09,2.86,2.09,2.86.53C99.55,87.3,95.16,86.17,96.73,87.76Z"/><path class="cls-9" d="M104.92,77.25c1.11-.17,5.16,3.45,4.89,1.53C109.58,78,104,75.69,104.92,77.25Z"/><path class="cls-9" d="M113,68.61c1.39-.3,6,4.82,5.84,2.59C118.68,70,111.52,66.15,113,68.61Z"/><path class="cls-9" d="M127.13,60.13c1.91.26,3.63,2.19,5.37,2.2C133.33,61.29,125.47,58.27,127.13,60.13Z"/><path class="cls-9" d="M47.66,88.89c12.07,6.85,23.58,15.21,31.88,26.47.32.39,1,0,.79-.47C73,102.73,60.36,94.64,48,88.25c-.41-.21-.69.41-.3.64Z"/><path class="cls-9" d="M45.18,88.67c-.27,1.68,1,3.23,1,4.86a5.88,5.88,0,0,0-1.31,2.77c.74,2.51,3.16-2.53,2.56-3.46-.35-.58-1.66-5.53-2.27-4.17Z"/><path class="cls-9" d="M43.07,99.93c-5.41,12.58,3.88,20.69,7,31.32,0,.48.79.41.74-.08-2.74-10.1-12-19.79-7-30.91a.42.42,0,0,0-.77-.33Z"/><path class="cls-9" d="M48.65,132.18c-5.82,4.39-10,11.79-8,19.2.15.53,1,.59,1,0A20,20,0,0,1,49.39,133a.56.56,0,0,0-.74-.84Z"/><path class="cls-9" d="M36.76,158.89c-1.49,2.55-1.4,6.34,1.57,7.76.57.32,3.33,1.57,3,.33-3.88-1-6.07-4-4.22-8,.07-.17-.21-.29-.3-.13Z"/><path class="cls-9" d="M43.24,168c10.41,4.61,22.67,2.82,33.16-.67a.45.45,0,0,0-.24-.85c-5.57,1.15-11.07,2.75-16.79,2.94a43.7,43.7,0,0,1-15.81-2.16A.4.4,0,0,0,43.24,168Z"/><path class="cls-9" d="M52.77,163.31c2.19,1.18,26.26.12,23.88-2.52-7.86,1.07-15.79,2.52-23.76,1.81A.36.36,0,0,0,52.77,163.31Z"/><path class="cls-9" d="M49.83,151.52c6.86.81,14.07-.41,20.8-1.78,1.65-2.12-8.9.55-10.15.32-3.45.37-7,1.17-10.53.8A.34.34,0,0,0,49.83,151.52Z"/><path class="cls-9" d="M53.55,142.94c5.51.4,11.16.76,16.63-.15,1.9-2.12-7.1-.38-8.29-.68C60.81,142.51,51.84,141.38,53.55,142.94Z"/><path class="cls-9" d="M52.93,131c7.29.41,14.39,2.16,21.49,3.62C76.62,132.73,51.14,128.8,52.93,131Z"/><path class="cls-9" d="M59.52,113c5.53,2.93,11.18,6.11,15.18,11,2.13.46-1.42-3.71-2.09-4.09C71.68,118.69,58.61,110,59.52,113Z"/><path class="cls-9" d="M57,100.65c4.91,4.19,10.65,7.38,15,12.16,4.42.52-15.62-14.17-15-12.16Z"/><path class="cls-9" d="M86.56,175.78c.33,1.87,10,4.35,8.45,2-2.73-.41-5.79-.39-7.93-2.44-.29-.27-.78.17-.52.48Z"/><path class="cls-9" d="M103.11,180.36a25.55,25.55,0,0,0,7,2.54c.9.35,9.2,0,6.75-1.51a21.25,21.25,0,0,1-13.5-1.68A.36.36,0,0,0,103.11,180.36Z"/><path class="cls-9" d="M122,182.53c2.5,2.19,13.69-.88,9.89-2.14C128,183.42,120.46,181,122,182.53Z"/><path class="cls-9" d="M129.85,177.72c-.32.75-.6,3.15.79,2,.64-.83.59-3.59-.79-2Z"/><path class="cls-9" d="M110.91,176.14A9.89,9.89,0,0,0,110,180c1.46,1.62,1.43-2.35,1.85-3.19.37-.69-.52-1.48-1-.67Z"/><path class="cls-9" d="M102.15,174.94c-.12,1.06-.8,2.54-.05,3.43,1.32.88,1.38-5.17.05-3.43Z"/><path class="cls-9" d="M95.54,173.69c-.28.64-1,3.54.4,2.62.23-.62,1.15-4-.4-2.62Z"/><path class="cls-9" d="M140,89.08c.58,1.3,3.11,1.79,2.07,0-2.36-2.12-2.4-5.64-2.47-8.72C137.28,78.28,138.43,88.38,140,89.08Z"/><path class="cls-9" d="M130,82.86a.88.88,0,0,0,.51.49c.46.41,1,1.18,1.71,1.09,0,.07.39-.2.43-.32h0a.94.94,0,0,0-.42-1.27,1.73,1.73,0,0,0-1.2-1.58C130.12,74.79,128.37,79.64,130,82.86Zm.18-.73Z"/><path class="cls-9" d="M137.42,103.46c.68.75,2.92.87,2.07-.58-.18-1-1.46-1.55-2.21-2.19h0a.71.71,0,0,0-.95-.08,6.43,6.43,0,0,1-1.6-4.51c-2.41-3-1.62,5.9,2.43,7.08A.83.83,0,0,0,137.42,103.46Z"/><path class="cls-9" d="M124.85,94.4a.75.75,0,0,0,.45,0c.81.63,2-.35,1.14-1.14-.06-1-2.89-2.17-3.63-1.54a5.76,5.76,0,0,1-2.07-4.06C118.5,86,120.88,94.2,124.85,94.4Z"/><path class="cls-9" d="M119.42,107.38c.2-.4-.12-.75-.46-.94a.6.6,0,0,0-.31-.94,1,1,0,0,0-1-.31,1.27,1.27,0,0,0-.28,0,4.31,4.31,0,0,1-.66-.69c-.35-.2-.58-1.78-1.41-1.57-1.45.91,1.15,3.9,2.34,4.1C118.13,107.4,119,108.18,119.42,107.38Z"/><path class="cls-9" d="M133.54,115.31c-.81-.4-3.19-2.32-3.87-1.7-.65-.32-2.11-3.7-2.43-1.92-.07,1.54,6.41,8.22,6.14,4.57C133.57,116,133.77,115.69,133.54,115.31Z"/><path class="cls-9" d="M142,119.67c-.58-.49-.48-1.64-1.12-1.92-1,.4-.07,2.24.56,2.73S142.44,120.07,142,119.67Z"/><path class="cls-9" d="M137.19,124.13c-.77-.23-1.21,1.5-.7,1.9C137.19,126.2,137.89,124.45,137.19,124.13Z"/><path class="cls-9" d="M123.11,121.27c0-.65.48-1.5-.1-2,.39-3.76-3,2.28-1.24,3.92C123.09,124.38,123.06,122.12,123.11,121.27Z"/><path class="cls-9" d="M113.54,118.3c-.44-.38-.89-.74-1.34-1.11a1.08,1.08,0,0,0-1.45-1,8.64,8.64,0,0,1-1.36-3c-1.63-1.12-.41,3.3.24,3.84C110.52,120.58,118.06,122.38,113.54,118.3Z"/><path class="cls-9" d="M109,100.67a.64.64,0,0,0,.58-1,9,9,0,0,1-2.23-5.32C104.51,91.08,106.59,101.25,109,100.67Z"/><path class="cls-9" d="M103,113.71c-1.82-2-4.5-3.51-5.62-6a.56.56,0,0,0-.69-.27c-1.11,1.46,1,3.77,1.76,5.2C98.93,114,104.1,116.89,103,113.71Z"/><path class="cls-9" d="M97.26,124.41a11,11,0,0,1-3-3,.65.65,0,0,0-.83-.45c-1.07,1,.75,2.9,1.28,3.93C95.72,127.14,100.46,127,97.26,124.41Z"/><path class="cls-9" d="M86.27,118.5a.71.71,0,0,1,.1.14l0,0c2.14.92.36-2,.37-2.86-.31-.76.31-2.1-.67-2.38C84.27,114,85.48,117.31,86.27,118.5Z"/><path class="cls-9" d="M84.33,132c-.77-.67-2.57-5.68-3.29-3C80.86,134.17,86.73,136.52,84.33,132Z"/><path class="cls-9" d="M92.78,137.16A14.36,14.36,0,0,0,91,135.09c-2.74-1.92.69,6.22,2.58,5.41C95.31,140,93.36,138,92.78,137.16Z"/><path class="cls-9" d="M82.8,145c-.85-1-1.53-3.6-3-3.38C78.65,142.56,83,148.1,82.8,145Z"/><path class="cls-9" d="M91.86,153.23a6.71,6.71,0,0,1-2.63-5.1.66.66,0,0,0-.64-.67c-2,.69-.4,5.4,1,6.38C90.85,156.41,95.32,156.21,91.86,153.23Z"/><path class="cls-9" d="M88.29,161.43a7.53,7.53,0,0,1-.68-2.22c-.66-1.75-1.81.11-1.27,1.22-.34,1.51,1.36,3,2.41,3.92h0a.68.68,0,0,0,1-.06C90.27,163.19,88.53,162.52,88.29,161.43Z"/><path class="cls-9" d="M106.51,171.13a13.44,13.44,0,0,1-5.38-2.33.37.37,0,0,0-.68.21c-.5,1.38,4.61,4.13,5.6,3.15C106.85,172.45,107.42,171.42,106.51,171.13Z"/><path class="cls-9" d="M129.27,172.93c-1.68-.46-3.51-.05-5.14-.81a.6.6,0,0,0-.69.17,5.52,5.52,0,0,1-3.06-3.07.44.44,0,0,0-.83.23c.67,3.83,5.48,5.55,8.88,5.32C129.36,174.83,130.46,173.41,129.27,172.93Z"/><path class="cls-9" d="M110.35,160.82a13.78,13.78,0,0,0-5.08-2.63,7.55,7.55,0,0,1-1.53-2.78c-2.07-1.2,0,3.45.77,3.93.92,1.3,6.38,5,6.88,2.37A1.35,1.35,0,0,0,110.35,160.82Z"/><path class="cls-9" d="M105,144.23c.59,1,4.58,3.6,3.83,1-1.29-.9-2.29-3-3.86-3.16C103,137.42,103.23,142.87,105,144.23Z"/><path class="cls-9" d="M105.3,130.92a.61.61,0,0,0,1.07-.57c-.62-.81-.24-1.93-.78-2.67,0-.25.14-.51,0-.75h0C103.57,125.32,104.52,130.16,105.3,130.92Z"/><path class="cls-9" d="M123.17,163.26c3.44.06-2.86-4.21-3-5.67-.85-1.07-1.71.69-.77,1.26A6.49,6.49,0,0,0,123.17,163.26Zm-.33-.54s0,0,0,0Z"/><path class="cls-9" d="M146.31,171.92c-2,1.22-4.84-.67-6.72-1.65-1.54-.41-.92,1.33,0,1.74,1.08,1.84,3.79,2.31,5.67,1.76a2.42,2.42,0,0,0,2.1-1C147.83,172.12,146.84,171.35,146.31,171.92Z"/><path class="cls-9" d="M158,167.38c-2.23.2-4.17-1.2-6.17-1.55-3.38-1,1.38,4.36,6.19,3h0A.73.73,0,0,0,158,167.38Z"/><path class="cls-9" d="M160.12,157.38a4.8,4.8,0,0,1-2,.74c-1.51,1.2,1.37,1.12,2,.61C161,158.55,161.25,157.09,160.12,157.38Z"/><path class="cls-9" d="M169.41,157.51c2.79-.68-1.12-2.13-2-2.76-.84-.47-1.41-1.39-2.27-1.78C162.25,153.62,168.06,157.55,169.41,157.51Z"/><path class="cls-9" d="M153.9,145.21c1.44,2.35,4.47,1.16,1.67-.26a3.11,3.11,0,0,1-1.24-2.11C152.85,141.15,153,144.54,153.9,145.21Zm.69-1.46Z"/><path class="cls-9" d="M170.37,165.23c-1.82.28-3.13-1.24-4.07-2.55-.48-.79-1.75,0-1.23.75h0c.55,1.84,2.26,3.79,4.37,3.26C170.7,167.21,172.07,165.65,170.37,165.23Z"/><path class="cls-9" d="M181.31,159.85a4.37,4.37,0,0,1-1.74-.95c0-.06,0-.13,0,0h0a.62.62,0,0,0-.77-.77c-2.06-.74-.51,2,.14,2.55C179.88,161.88,183.39,161.42,181.31,159.85Z"/><path class="cls-8" d="M98.65,172.53l-.31-.27a5.42,5.42,0,0,1-.37-.5c-.33-.33-.24-2.15-1.08-1.35-.85,1,2,4,1.76,2.12Z"/><path class="cls-8" d="M122.53,175.3c-.67,0-3.89-2.06-3.74-1.09,0,1.42,5.74,3.59,3.74,1.09Z"/><path class="cls-8" d="M144.4,175.28c-1.26.05-2.46-.68-3.7-.61-2.2,1.63,6.63,2.66,3.7.61Z"/><path class="cls-8" d="M89.71,137.08c-10.49-.19-11.44-13.44-5.22-19.57a.53.53,0,0,0-.38-.94c-1.92-2-5,5.26-5.16,6.94-.46,1.92-1.3,10,1.38,9.76,1.81,3,5.71,5.59,9.3,4.84C90.08,138,90.28,137.22,89.71,137.08Z"/><path class="cls-8" d="M86.57,150.19c-7.09-2-9.92-11-5.91-17a.5.5,0,0,0-.79-.62c-1.86.45-2.26,3.84-2.75,5.59-1.63,6.09,3.09,11.55,8.28,14a.74.74,0,0,0,1.06-.6A.73.73,0,0,0,86.57,150.19Z"/><path class="cls-8" d="M89.6,165.63c-9-4.45,0-16.16-3.37-14.4a.48.48,0,0,0-.78,0c-2.74,4.05-3.09,10.5.74,14-4.19,1.86,2.75,2.64,3.39,1.5C89.93,166.49,90.08,165.85,89.6,165.63Z"/><path class="cls-8" d="M144.44,175.72c-15.56,1.63-49.73-.66-61.88-9.49-1.74-.68.62,7.77,1.49,8.57,2.21,4.89,9.33,6.86,13.89,4.23a22.58,22.58,0,0,0,21.42,4.1c6.89,3.1,17,1.56,20.39-5.9C140.47,177.1,146.46,176.88,144.44,175.72ZM135,180.26c-3.81,4.17-11.79,3.42-16,1.83-8.68,2.58-14.45-.47-20.69-3.9-6.17,1.33-14.69-.5-14.42-8.33,17.19,4.46,35.09,7.78,53.1,7.49A9.32,9.32,0,0,1,135,180.26Z"/><path class="cls-8" d="M91.6,123c-4.13-1.16-6.41-5.23-7.39-9.1-.38-1,.47-6.25-1.57-4.11a17,17,0,0,0,.77,6.74C84.16,121.49,93.82,126.31,91.6,123Z"/><path class="cls-10" d="M193.75,190.83c1.47-.62,2.76,1.64,3.67,2.39,5.93,6.83,9.53-4.42,12.4-.35.48,2.76,10.42,2.7,13,3,2,0,4.09-.58,4.36-4.87.07-1.41.49-2.83-.72-4.42-.64-.64-1.69-1.1-1.54-2.2l.64-9.17c.95-2.88,4-.87,4-6.43a4.4,4.4,0,0,0-5.24-5.2L215,164c-4.82-.36-3.69,4.62-7.06,2.45-1.78-1.56-3.57-1.07-5.44-1.27-4.07-.4-4.39,2.66-7.15,3-2.55-1.48-1.39-3.76-6.09-3.69-4-.56-7.7.45-7.17,5.34l.45,14.56a1.74,1.74,0,0,1-3.37.63l-6.07-17.43c-1-2.78-2.19-4.39-5.5-4.39-3.77,0-7.56.91-8.47,2.72a1.73,1.73,0,0,1-1.41.76c-4.11-2.52-8.56-5.87-11.55,0-.8,1.59-2.52,5.15-4.45,2.53-1.67-3.5-4.11-7.53-8.82-5.31-1.49.28-4.36,2.3-5.69.89-2.48-2.4-10.44-.43-13.47-.76-3.52.15-4.8,1.53-4.71,5.08-.11,2.59,1,4.25,2,4.49a1.75,1.75,0,0,1,1,1.65l-.33,8.26a1.73,1.73,0,0,1-1.14,1.56c-1.21.33-1.65,1.88-3,1.59-1.61,1-7-18.49-7.58-19.08-1-2.78-2.19-4.39-5.5-4.39-10,.14-6.81,3.24-10.73,4.94-2.81-.73-1.09-3.44-6.2-3.57l-15.3-.91c-2.84-.13-5.39.07-5.54,5.17-.94,12.12,6.08,4.79,7.11,9.51l-.35,13.06c-.44,4,2.42,5.82,6.23,4.92,3.82-.48,5.14-2,5-5.92l-.49-13c-.06-1.74,1.85-1.9,3.17-1.9,2-.15,5.56-2,5.22,1.43L79,189.78c-1.05,2.57.29,6,3.75,5.56,4.56,0,7.49-1,7.78-5,.16-1.93,4.93-2.14,5.23-.18.51,3.37,2.08,6,6.57,5.36,1.57-.18,3.34.17,4.92-1.28a1.73,1.73,0,0,1,2.27-.19c1.54,1.42,8.58,1.34,10.66,1.76,2.83.21,5.24.23,5.67-4.78.77-5.28-1.63-3.65-2.26-6.63l.64-9.17c0-1.35,1.5-1.52,2.37-2.1a1.74,1.74,0,0,1,2.39.36l6.17,8.07c1.47,3.85-1.92,15.94,5,14.9,11.72.57,6.71-7.41,8.23-14.7,1.13-1,4-8.17,6.24-6.83,3.49,1.6-5.17,16.13-2.23,19.08,1.47,1.7,3.47,1.28,5.3,1.2,4.62-.32,5.33-1.66,5.94-4.87.24-2,4.87-2.12,5.22-.18.68,4.43,2.73,6,7.78,5.28,3.26.65,4.71-4,6.86-1.56,2.09,2.21,8.15,4.47,9-1.66A1.75,1.75,0,0,1,193.75,190.83Zm7.57-12.11,5.9-7.6a1.79,1.79,0,0,1,3.32.22c.23,2.06,2.73,1.95,2.75,3.87l-.34,8.28c0,1.73-2.3,1.58-2.85,3-1,1.68-2.78.69-3.66-.59S199.47,180.7,201.32,178.72Z"/><path class="cls-11" d="M140.21,200c-9.28.49-8.12-10.21-8.13-16.72l-4.5-5.88-.44,6.36c2.69,2.34,2.38,5.65,2.2,7.58-.34,5.21-3.12,8.09-7.83,8.09-3.27-.34-9.85-.46-12.82-1.81-5.76,3-14.12,1.81-15.49-3.76-1.1,5.07-13,7.06-16.51,2.49-2.51,3.77-11.21,5.2-14.67,1.54-3.82-4-1.34-13.14-1.77-17.85-6.2-.13-7.69-6.66-7.06-11.25,0-6.05,3.72-9.09,9.21-8.58,4.16.73,18.23-.31,21.23,3.05,2.56-3,6.87-3.38,10.8-3.52,5.68,0,7.67,3.59,8.77,6.72l5.1,14.64.2-4.92c-5.52-4.28-3.45-16.23,5-15.6,4.53.3,10.82-1.79,15.25,1.06,6.18-2.88,11.84-2.18,14.39,3.2,2-5,9.08-6.54,14.39-2.41,2.16-2,6.27-2.62,10-2.69,8.85.18,8.68,7.9,11.12,13.45-.83-6.4,1-12.52,8.16-12.25,3.21.16,6.56-.2,9.2,2.79,3.62-2.53,8.27-2.61,12.77-.86,2.54-3.25,11.55-2.23,15.34-2.67,1.73,0,4.09-.3,6.76,2.17,3.71,4.21,2.45,12.2-2,14.26l-.49,7.13c2.68,2.34,2.38,5.65,2.19,7.57-.33,5.22-3.11,8.1-7.82,8.1-4.1-.55-11.93-.08-14.86-3.23-3.37,3.45-9.77,3.63-12.81-.33-2.08,5-9.4,4.36-13,1.55-2.63,1.78-4.44,1.43-6.42,1.63-5,.71-8.72-2.29-9.37-5.19-1.06,5-12.48,6.95-16.24,2.8C148.41,199.44,143.72,200.09,140.21,200Zm-12.58-27.12c1.24-.6,6.8,8.17,7.56,8.75,1.47,3.85-1.93,15.94,5,14.9,11.74.56,6.71-7.42,8.24-14.7l4.07-6.2c8.07-5.08-3.29,16.4-.07,18.45,1.48,1.7,3.47,1.28,5.31,1.2,4.62-.32,5.33-1.66,5.94-4.87.22-1.64,2.27-1.44,3.47-1.48s1.79,1,1.92,2c.49,4,3.27,5.26,7.61,4.59,3,.28,3.34-1.71,5.43-2.3a1.74,1.74,0,0,1,1.43.74c.69,1.26,3.62,2.23,5.4,2.21,5.19.56,2-10.15,8.45-2.9,2.31,3,6,2.54,8.52.1.91-.61,1.44-1.63,2.62-1.4,2.34.86.68,2.65,5.44,3.17.65,0,8.23.89,8.79.83,2,0,4.08-.58,4.36-4.87.05-1.41.5-2.83-.72-4.42-.65-.65-1.69-1.1-1.54-2.2l.63-9.17a1.74,1.74,0,0,1,1.22-1.53c2.5.06,4-6.7,1.69-9h0c-2.15-2.28-10.66-.49-13.46-.75-4.39.08-3.2,2.14-5.53,3a1.73,1.73,0,0,1-1.53-.55c-2.85-2.26-9.24-1.53-11,1.13a1.75,1.75,0,0,1-2.95-.57c-.9-2.71-4.2-2.54-6.59-2.63a4.54,4.54,0,0,0-5.36,5.41l.45,14.56a1.75,1.75,0,0,1-3.38.63l-6.06-17.43c-1-2.78-2.19-4.39-5.5-4.39-3.79,0-7.56.91-8.47,2.72-1.8,2.39-4-1.78-5.68-1.81-4.73-2.35-6.92,1.52-8.71,5.11-3.65,4-4.2-6.62-9-5.9-2.22-.4-6.8,3.15-8.56,1.48a4.66,4.66,0,0,0-3.51-1.15H123l-9.33.38c-3.52.15-4.8,1.53-4.71,5.08-.13,2.59,1.06,4.25,2,4.49,2,.49.4,8.59.68,9.91,0,1.52-1.81,1.54-2.51,2.53a1.75,1.75,0,0,1-3-.52l-6.25-17.94c-.93-3.25-3.13-4.8-6.69-4.34-8.65.29-5.91,3.5-9.53,4.89-2.8-.72-1.1-3.45-6.2-3.57l-15.31-.91c-2.83-.13-5.39.07-5.53,5.17-1,12.1,6.09,4.79,7.11,9.51l-.35,13.06c-.46,4,2.43,5.83,6.22,4.92,3.83-.48,5.15-2,5-5.92l-.48-13a1.73,1.73,0,0,1,1.61-1.79c2.29.39,7.1-2.7,6.77,1.32L79,189.86c-1.07,2.56.32,6,3.76,5.56,4.54.05,7.49-1,7.78-5,.23-1.64,2.27-1.44,3.48-1.48,4,.76.07,7.53,8.32,6.66,1.57-.18,3.33.17,4.91-1.28,1.85-1.54,3.1,1,5.46.82,1,0,8,.94,8.78.83,2,0,4.09-.58,4.36-4.86,0-1.41.52-2.84-.71-4.43-.66-.64-1.69-1.1-1.55-2.2l.64-9.17C124.41,173.83,126.44,173.3,127.63,172.92Zm80.93,14.58c-1,0-1.44-.83-2.14-1.48-.8-1.35-7-5.24-5.12-7.22,1.24-1,5.93-9.2,7.86-8.61,1.76.34,1.43,3,3.12,3.46a1.73,1.73,0,0,1,1,1.64l-.33,8.28a1.73,1.73,0,0,1-1.14,1.56C210.31,185.45,210.15,187.52,208.56,187.5Zm2.64-4h0ZM205,179.71l3.46,3.43a7.29,7.29,0,0,1,1.06-.76l.25-6.19a6.16,6.16,0,0,1-1.18-1.1Z"/><path class="cls-12" d="M140.21,196.91c-6.65.92-4.65-9.82-5-14.21.48-.23-6.33-8.57-6.46-8.89-.89-1.28-4,.3-4.14,1.56l-.64,9.17c-.12,1,.91,1.32,1.46,1.94,1.34,1.71.84,3.19.8,4.68-.29,4.6-2.67,5.19-4.71,5.19-2.86-.41-9.78-.3-12.17-1.91a1.4,1.4,0,0,0-1.82.15c-1.7,1.56-3.5,1.2-5.14,1.38-4.71.66-6.44-2.18-6.93-5.61-.28-1.44-2.23-1-3.24-1-3.35,1.43.42,6-7.56,6.29-2,.08-4,.5-5.61-1.34-2.29-3.12,2.86-14.13,3.17-17.45.18-3.09-3-.94-4.86-1-1,.05-3,0-2.84,1.54l.48,13c.15,4.08-1.29,5.78-5.3,6.28-1.84.28-4.23.41-5.43-1-2.54-2.42-.41-14.23-.84-17.37-1-4-8,2.68-7.11-9.51.16-5.44,3-5.63,5.9-5.5l15.31.9c5.2.19,3.7,2.74,6.18,3.57,3.77-2.21.73-4.65,10.73-4.94,3.49,0,4.82,1.77,5.82,4.63.41.45,6.12,19.76,7.32,18.85,1.26.2,1.67-1.32,2.84-1.57a1.4,1.4,0,0,0,.92-1.25l.33-8.26c-.59-2.37-3.06-1.21-3-5.68-.2-3.81,1.1-5.79,5-5.88l9.33-.38c3.36-.56,3.93,1.85,5.92,1.59,4.63-1.82,9.32-3.59,11.65,1.65,2.09,4.38,3.21,4.18,5.25,0,2.8-5.77,7.75-3.09,11.85-.18,3.1-2.1,3.7-3.47,9.88-3.48,3.5,0,4.82,1.77,5.82,4.63L179.45,185a1.39,1.39,0,0,0,2.7-.5l-.45-14.56c-.61-5,3.44-6.34,7.53-5.69,2.09,0,4.39.62,5.1,2.78a1.37,1.37,0,0,0,1,.91,1.41,1.41,0,0,0,1.31-.45,6.74,6.74,0,0,1,5.76-2.51c2,.2,3.79-.32,5.71,1.37,2.92,1.81,1.76-2.83,6.78-2.56,2.82.31,11.4-1.63,13.73.85,2.53,2.48.82,9.62-1.84,9.55-1.75,0-1.21,9.43-1.61,10.4-.16,1,.94,1.32,1.46,1.94,1.31,1.71.86,3.19.8,4.68-.48,5.35-3.11,5.31-6,5.11-2.47-.32-11.78-.52-11.93-3.17a1.41,1.41,0,0,0-1-.76c-4.36,1.57-6.12,6.5-11.33,1.2-6.44-7.4-2,5.2-10,2.77a6,6,0,0,1-3.84-2.12c-1.68-2.08-3.14,2.26-6.56,1.71-10.23,1.17-5.71-5.42-9.53-6.59-6.13-.58-.46,6.15-9.4,6.36-1.95.08-4,.5-5.6-1.34-3.44-1.87,7.55-22.78.63-18.47l-4.07,6.2C147.53,189.58,151.92,197.52,140.21,196.91Zm-12.58-24.34c1.62-.51,6.85,8.07,7.83,8.89.83.49.37,9.14.53,10,.13,5.67,3.57,4.75,6.93,4.6,7.15.44,4.47-8.9,4.9-13.23-.23-.83,4-6.59,4.41-7.36a2.09,2.09,0,0,1,3.75,1.7L152.49,190c-1.19,3.09.65,5.66,4.18,5.1,9.14,0,4.25-5.13,8.65-6.36,1.37-.12,3.58-.28,3.94,1.5.66,4.37,2.61,5.67,7.42,5,1.48-.06,2.95-.27,3.74-1.42a2.09,2.09,0,0,1,3.42,0c.65,1.17,3.45,2.08,5.12,2.06,4.29.58,2-7.74,6.82-4.74,2.49,2.94,5.64,5.88,9.21,2.53,1.23-.69,2.1-2.27,3.62-2,2.58.82.71,2.66,5.42,3.16,4.1-.22,12.71,3.79,12.76-3.71.81-5.15-1.78-3.45-2.26-6.62l.64-9.17c.82-3.15,4.11-1,4-6.42a4.05,4.05,0,0,0-4.87-4.84l-9.33.38c-4.33.06-3,2.23-5.49,3a2.11,2.11,0,0,1-1.84-.67c-1.66-1.42-3.42-1-5.19-1.15-3.95-.46-4.29,2.84-7.2,2.95-3.7-2.27-.53-3.74-7.85-3.76a4.2,4.2,0,0,0-5,5.06l.45,14.56a2.09,2.09,0,0,1-4,.75l-6.07-17.42c-.72-6.16-11.59-4.46-13.36-1.59a2.1,2.1,0,0,1-3.4.05c-9.61-7.42-8.92,4.06-12.78,4.28-1.7.15-2.48-2.47-3.22-3.56-2-4.7-6.32-3.09-10.15-1.57-2.58,1.32-3.9-2.06-6.78-1.31l-9.33.38c-3.53.06-4.56,1.77-4.37,5.17,1.11,8,4-2,2.68,14,.07,1.62-1.78,1.76-2.59,2.73a2.1,2.1,0,0,1-3.59-.63l-6.25-17.93c-.9-6.51-13-4.51-14-.49a2.1,2.1,0,0,1-3.86-.06c-.36-.94-1.19-2-4.31-2.25l-15.3-.9-.9,0c-2.19,0-4.21.59-4.27,4.85.14,2-.54,4.82,1,6.4,2.09,2.17,5.83-.49,6.09,3.12l-.36,13.06c-.42,3.87,2.25,5.41,5.85,4.56,3.64-.45,4.82-1.86,4.69-5.56l-.49-13a2.08,2.08,0,0,1,1.94-2.16c2.5.23,7.56-2.68,7.13,1.76-.26,2.92-5.19,14.1-3.29,16.85,1.37,1.56,3.29,1.13,5,1.07,4.4-.31,5-1.51,5.62-4.6.26-2.31,5.48-2.52,5.9-.19.51,3.3,2,5.71,6.22,5.09,1.5-.17,3.24.16,4.68-1.17a2.09,2.09,0,0,1,2.73-.23c1.46,1.34,8.52,1.29,10.49,1.7,2.72.2,4.91.23,5.29-4.46.85-5.11-1.87-3.56-2.26-6.63l.63-9.17C124.05,173.59,126.25,173,127.63,172.57Zm80.93,15.28c-1.13,0-1.63-.85-2.38-1.59-1-1.58-7.3-5.3-5.15-7.67,1.38-1.13,6-9.46,8.19-8.74,1.9.24,1.57,3,3.2,3.48a2.09,2.09,0,0,1,1.2,2c-.45,1.6.69,9.68-1.7,10.16C210.45,185.85,210.25,188,208.56,187.85Zm.3-17.34c-1.25-.26-6.42,7.8-7.28,8.5-1.6,1.6,4.49,5.67,5.08,6.76.69.61,1,1.49,2,1.38,1.34-.25,1.53-2.08,3-2.34a1.39,1.39,0,0,0,.91-1.25l.33-8.29c-.18-1.74-2.53-1.7-2.73-3.75A1.38,1.38,0,0,0,208.86,170.51Zm2.35,13.34v-.69h0Zm-2.77-.23-3.92-3.88,4-5.2a6.71,6.71,0,0,0,1.54,1.47l-.26,6.58A6.55,6.55,0,0,0,208.44,183.62Zm-3-3.94,3,3c.22-.17.46-.34.7-.49l.24-5.82a7,7,0,0,1-.82-.72Z"/><path class="cls-13" d="M73,190.51c.3,3.37-1.2,4.07-4.3,4.3-3,.38-3.7-.34-3.63-3.32l.46-16.77c-3.08.06-7.91,1.56-7.25-3.28.06-3.08-.53-6.84,3.81-6.08l15.33.91c2.87.18,3.55.9,3.44,3.85s-.76,3.58-3.63,3.77l-4.83.34Z"/><path class="cls-13" d="M106,190.2c1.51,3.46-.9,3.73-3.77,3.78-5.2.85-4.35-3.43-5.55-6.76l-7.29.27c-.79,3.38,0,6.28-4.91,6.19-2.87.32-5.07.07-3.89-3.4L86.4,169.1c.79-3,1.66-3.78,6.95-4.16,3.09-.22,4,.34,5,3.25Zm-10.65-8-2.79-8.91-2.15,8.91Z"/><path class="cls-13" d="M124.23,191c-.19,2.94-.94,3.58-3.85,3.28l-7.48-.75c-2.88-.2-3.43-1.34-3.09-4.08.19-2.53.83-3.1,3.39-2.95l.57-14c-2.6.08-3.16-.88-3.13-3.33-.08-2.64.53-3.32,3.13-3.43l9.33-.38c2.87-.11,3.58.57,3.51,3.51s-.79,3.63-3.81,3.63l-1,14.65C124.52,187.07,124.48,188.79,124.23,191Z"/><path class="cls-13" d="M146.58,190.66c.41,3.94-2.27,4.15-5.47,4.23-3,.18-3.78-.42-3.82-3.44l-.11-9.89L129,170.8c-1.78-2.31-1.47-3.25,1.28-4.19,3.19-1,6.89-3.27,8.61,1l4.34,7.74,4.38-7.78c1.44-2.57,2.42-3,5.25-1.85,2.68,1,3,2,1.44,4.34l-7.74,11.78Z"/><path class="cls-13" d="M179.17,190.2c1.5,3.46-.9,3.73-3.78,3.78-5.2.85-4.35-3.43-5.55-6.76l-7.29.27c-.78,3.38,0,6.28-4.91,6.19-2.87.32-5.06.07-3.88-3.4l5.77-21.18c.8-3,1.66-3.78,6.95-4.16,3.1-.22,4,.34,5,3.25Zm-10.65-8-2.8-8.91-2.15,8.91Z"/><path class="cls-13" d="M205.26,187.18c2.59,2.27,1.48,3.75-1,5.4-2.46,1.85-3.51,1.74-5.67-.45L191.66,185l-.71,6.95c-.27,2.46-1,2.95-3.44,2.42s-3.1-1.25-3.17-3.78l-.64-20.77c-.08-3,.64-3.81,3.66-3.7s5.94,0,5.21,3.93l-.72,7.44,5.52-7.67c1.82-2.86,3.83-3.12,7.06-2.79,2.75.15,3.13,1,1.47,3.17l-7.74,10Z"/><path class="cls-13" d="M225.49,191c-.19,2.94-.94,3.58-3.85,3.28l-7.47-.75c-2.88-.2-3.44-1.34-3.1-4.08.19-2.53.83-3.1,3.4-2.95l.56-14c-2.6.08-3.16-.88-3.13-3.33-.07-2.64.53-3.32,3.13-3.43l9.33-.38c2.87-.11,3.59.57,3.51,3.51s-.79,3.63-3.81,3.63l-1,14.65C225.78,187.07,225.74,188.79,225.49,191Z"/><path class="cls-14" d="M65,173.82c-1.58-.06-3.41.52-4.95.17-.79-.25-.64.73-.19.86,1.12.35,4.38-.1,5.69-.13C65.56,174.23,65.58,173.78,65,173.82Z"/><path class="cls-14" d="M80.11,167.89c0,1.57.31,4.06-1.48,4.75-1,.55-7.86-.64-7.08,2-.51,3.5,1.92,16.18-.49,18.85a11.51,11.51,0,0,1-4.44,1c-1,1,4.39.16,4.81-.16h0a2.31,2.31,0,0,0,1.36-1.42h0c.58-1-.46-17.12-.39-18.62,3.22-.56,9,.9,8.46-4.11C80.9,169.33,80.87,167.11,80.11,167.89Z"/><path class="cls-14" d="M92.73,173.76l0-.08Z"/><path class="cls-14" d="M90.44,182.24l2.15-8.91c-.93-.39-1.37,3.82-1.72,4.35C90.78,179,89.35,181.34,90.44,182.24Z"/><path class="cls-14" d="M96.29,186.72c-8.44.31-6.7-1.44-8.23,4.65a1.52,1.52,0,0,1-1,1c-.73.66-6.54.29-5.58,1.22,6.57.38,7.16,0,8-6.13l7.29-.26A.44.44,0,0,0,96.29,186.72Z"/><path class="cls-14" d="M106.21,193a2.08,2.08,0,0,0,.17-1.64h0a8.61,8.61,0,0,0-.34-1.19l-7.66-22c-3.87-7.45,4.75,16.28,5,17.6.39,2.18,2.14,4.83,1.49,6.93a14.68,14.68,0,0,1-4,.55c-4.19.86,4,.91,4.66.31h0A1.59,1.59,0,0,0,106.21,193Z"/><path class="cls-14" d="M124.31,190c.18-.6-.18-2.09-.61-.61a11.44,11.44,0,0,1-.7,3.43c-1.37,1.53-8.54-.33-11.48-.26-.67-.06-.36.65-.22.69a8.17,8.17,0,0,0,1.6.3l7.48.75C123.81,194.88,124.22,193,124.31,190Z"/><path class="cls-14" d="M126.61,168.87c0-4.05-1.16-1.16-.92.88.14,2.32-2.65,1.18-3.63,2.17.25-.39-2.43,16.28,0,15.24h-.26l1-14.65C125.82,172.5,126.53,171.78,126.61,168.87Z"/><path class="cls-14" d="M113.16,171.66c-.56.07-1.51-.35-1.8.29a3.66,3.66,0,0,0,2.39.55A.64.64,0,0,0,113.16,171.66Z"/><path class="cls-14" d="M154.11,169.18c-2.8,3.06-4.87,6.7-7.14,10.17-.71,1.15-1.37,1.57-1.33,3,.09,2.86.28,6.92.1,9.46.35,3.41-9.3,1.55-6.39,3.08,3.26,0,7.88.48,7.23-4.21l-.07-8.84L154.25,170C154.57,169.7,155,168.69,154.11,169.18Z"/><path class="cls-14" d="M138.84,167.59c-.13-.46-1.2-1.8-1.09-.76.23.4,2.15,3.65,2.57,4.38.8.81,1.71,4.66,2.86,4.12Z"/><path class="cls-14" d="M179.17,190.2l-7.67-22c-.13-.37-.26-.71-.39-1s-.67-.27-.47.45c2.25,7.76,5.47,15.21,7.79,22.94,1.41,3.09-2.33,2.5-4.43,2.59-1.51,0-1.55.67-.83.78a19.43,19.43,0,0,0,3.47,0C179.54,193.79,180.15,193,179.17,190.2Z"/><path class="cls-14" d="M169.41,186.56c-1-.15-5.64.12-6.82.17-1.36.48-.69,2.58-1.27,3.69-.4,1.47-.44,1.68-1.33,2.11-1.12.55-4.83.28-5,.89.2.75,2,.18,2.63.26,4.9.08,4.13-2.8,4.91-6.19l7.29-.27S169.78,186.61,169.41,186.56Z"/><path class="cls-14" d="M163.57,182.24l2.15-8.88c-1.25-.49-2.08,6.75-2.44,7.15C163.16,181,162.87,182.22,163.57,182.24Z"/><path class="cls-14" d="M192.57,170c.27-.81-.23-3.49-.65-1.4.25,2-1.39,8.39-.07,8.84Z"/><path class="cls-14" d="M205.26,187.18l-7.1-7c-.25.1,10.57-12.81,7.76-11-1.91,2.88-9.37,10.25-8.22,11.58.41.67,7.27,7.26,7.63,7.81,1.2,2.07-2,3.06-3.17,4.12-.56.45,0,1.18.85.7.54-.28,1.33-.91,1.91-1.31C207.3,190.32,207.37,189.26,205.26,187.18Z"/><path class="cls-14" d="M191.14,185.51c-.06.26-.91,7.13-1,7.35-.11,1.63-2.61.75-3.88.61-.62.53.77.78,1.23.89,2.45.53,3.17,0,3.44-2.42l.71-6.95A.77.77,0,0,0,191.14,185.51Z"/><path class="cls-14" d="M225,189.25c-.45,2.68.33,4.85-3.25,4.24-1.11-.05-13.45-1.53-7.53,0l7.47.75c3.43.6,3.84-1.31,3.93-4.3C225.76,189.48,225.34,188.22,225,189.25Z"/><path class="cls-14" d="M213.51,171.69c-1.62.38.61,1,1.52.81C215.24,171.66,214.49,171.88,213.51,171.69Z"/><path class="cls-14" d="M227.87,168.87c0-3.48-1.15-1.61-.84.53.2,2.93-2.37,1.41-3.68,2.68.12.3-2.24,15.55-.31,15.07l1-14.65C227.08,172.5,227.8,171.78,227.87,168.87Z"/><path class="cls-15" d="M60.74,161.45c-5.17-1.26-8.07,8.44-5.62,7,.48-7,7.21-5.66,5.62-7Z"/><path class="cls-15" d="M84.6,165.57c.06-.15.13-.28.19-.42a6.45,6.45,0,0,1,.52-.72l0,0c0,.06,0,0,0,0,.32-.43,1.27-.78,1-1.43-1.22-1.4-4,4-1.73,2.62Z"/><path class="cls-15" d="M61.43,188.31c-.32,2.8-.68,6.1,1.15,8.47.28.32.88.06.68-.37-1.69-1.4-.53-10.16-1.83-8.1Z"/><path class="cls-15" d="M77.4,195c.23,1,4.73,3.45,3.83,1.4a6.2,6.2,0,0,1-3.11-2,.46.46,0,0,0-.72.57Z"/><path class="cls-15" d="M95.59,162.37c3.71.09,4.12,4.48,5.33,4C102.37,163.49,93.82,160,95.59,162.37Z"/><path class="cls-15" d="M110.72,162.26c-1.5,0-5.29,5.93-2.76,4.86a7.87,7.87,0,0,1,3.16-4.14c.4-.25,0-.92-.4-.72Z"/><path class="cls-15" d="M96.27,196.12c1.61,2.36,6.19.68,1.94.25-.5,0-2.19-1.75-1.94-.25Z"/><path class="cls-15" d="M109.26,196.36c2,1.26,4.16-.13.78-.49C109.58,195.52,108.61,195.77,109.26,196.36Z"/><path class="cls-15" d="M124.9,197.3c2-1.43,3.71-4.15,3.12-6.67-.13-.41-.7-.28-.78.09.37,4.07-4.37,6.86-2.34,6.58Z"/><path class="cls-15" d="M130.12,163.43c2.75-1.07,6.19-1.79,8.7.22.4.32,1-.28.64-.66C137.61,159.76,127.61,162.4,130.12,163.43Z"/><path class="cls-15" d="M145.8,164.1c3.16-3.8,7.13-.43,6.57-2.23-2-3.23-9.91,2.61-6.57,2.23Z"/><path class="cls-15" d="M160.65,163.63c1-.92,3.06-.48,3.8-1.46C164.37,160.73,158.25,163.23,160.65,163.63Z"/><path class="cls-15" d="M134.22,195.73c.77,2.81,6.62,3.26,2.47,1.24-.64,0-2.37-3-2.47-1.24Z"/><path class="cls-15" d="M150.14,195a4.3,4.3,0,0,0,2.25,1.74c.74,0,.54-.88,0-1.05.14.07-.11-.06-.18-.11a5.46,5.46,0,0,1-.72-.54c-.37-.7-1.71-1.36-1.33,0Z"/><path class="cls-15" d="M167.94,195c-.09-.15.09.15.05.09.19,1,3.85,3.38,2.53,1.19-.12-.1-.75-.55-1-.79s-.79-1.53-1.46-1.18a.47.47,0,0,0-.13.69Z"/><path class="cls-15" d="M185.35,162.23c-4.72-.12-7.2,7.44-4.64,5.39,0-3.91,6.69-4.66,4.64-5.39Z"/><path class="cls-15" d="M197.64,165.54a4.3,4.3,0,0,1,2-1.28c.79.05,1.77-.85.56-1.09-1-.36-4.72,2.59-2.56,2.37Z"/><path class="cls-15" d="M210.54,164.67a4.57,4.57,0,0,1,.57-.41,5.47,5.47,0,0,1,1.14-.51c.45-.19,1.38-.12,1.4-.77-.56-1.64-5.7,1.73-3.11,1.69Z"/><path class="cls-15" d="M227.24,163.2a3.9,3.9,0,0,1,1.58.94c.68.32,1.33,3.38,2,1.63a4.73,4.73,0,0,0-3.2-3.41A.45.45,0,0,0,227.24,163.2Z"/><path class="cls-15" d="M182.1,196c1.66,2.68,7.46,2,2.26.27a5.49,5.49,0,0,1-1.14-.75c-.42-.76-1.66-.38-1.12.48Z"/><path class="cls-15" d="M194.82,194.11c.39.76,4,3.33,3.46,1.24-.73-.24-4-3.49-3.46-1.24Z"/><path class="cls-15" d="M208.4,194.82c.8.75,3.54,3.06,4.09,1.39-1-.9-2.49-1.06-3.4-2.12-.44-.36-1.08.31-.69.73Z"/><path class="cls-15" d="M229.08,190.39c-.46,2.87-1.78,6.34-5.11,6.62a.41.41,0,0,0,0,.8c1.67.32,3.29-.87,4.22-2.17.67-.45,2.56-6.61.9-5.25Z"/><path class="cls-16" d="M64.86,166.63c-2.38-.83-5.85-.89-5.76,2.47-.35.92.47,4.48,1.3,2.27.31-.4,0-2.63.38-3.26a2,2,0,0,1,.23-.4c.24-.92,5,.36,3.85-1.08Z"/><path class="cls-16" d="M69.23,193c2.89-.51,2.18-3.77.8-1.78l.07-.14a2.11,2.11,0,0,1-.21.31l.1-.12a2.79,2.79,0,0,1-.44.4l.13-.09a2,2,0,0,1-.51.26l.14-.05C68.42,191.8,68.25,193.11,69.23,193Z"/><path class="cls-16" d="M78.19,170.8l0,.08.06-.12a1.88,1.88,0,0,0-.14.24l.06-.11-.08.13.07-.11c-.46.66.57,1.13.93.49.62-.63-.52-1.42-.87-.6Z"/><path class="cls-16" d="M91.85,166.22c-6.5-1.42-6.45,13.7-2.63,2.41a2.93,2.93,0,0,1,1.31-1c.7-.19,2.79-.64,1.32-1.45Z"/><path class="cls-16" d="M86.42,189.75a1.69,1.69,0,0,1-.24.41l.11-.14a2.57,2.57,0,0,1-.33.33l.14-.11c-.62.26-.78,1.21,0,1.43,1.24.59,2.68-3.34.37-1.92Z"/><path class="cls-16" d="M103,190.71a.28.28,0,0,1,0,.09v-.17a1.09,1.09,0,0,1,0,.18l0-.17a.7.7,0,0,1-.06.19l.07-.16a1,1,0,0,1-.1.17l.11-.14c-.62.43-.3,1.5.49,1.31,1.71-.42,0-3.53-.53-1.3Z"/><path class="cls-16" d="M90.79,183.68c.44-.14,1.86-.07,1.36-.84C91.68,182.53,89.59,183.23,90.79,183.68Z"/><path class="cls-16" d="M114.25,166.43c-3.94-.68-2.59,5.47-1.1,2.34l0,.2a4.19,4.19,0,0,0,0-.5l0,.21a2.4,2.4,0,0,1,.11-.48l-.07.19a1.55,1.55,0,0,1,.19-.36l-.12.16a1.6,1.6,0,0,1,.25-.27l-.15.13a1.15,1.15,0,0,1,.33-.21l-.17.08.3-.14-.18.08a1.55,1.55,0,0,1,.42-.12l-.19,0c.84.15,1.24-1.07.39-1.33Z"/><path class="cls-16" d="M120.25,192.24c1,.45,2.73-.34,2.59-1.57a.75.75,0,0,0-1.43.05l.07-.17a1.82,1.82,0,0,1-.15.27l.11-.15-.13.16.11-.14a1.67,1.67,0,0,1-.23.23l.14-.11a1.65,1.65,0,0,1-.36.22l.17-.07L121,191l.17-.06a1.89,1.89,0,0,1-.34.09l.18,0a1,1,0,0,1-.35,0l.17,0A.65.65,0,1,0,120.25,192.24Z"/><path class="cls-16" d="M123.85,169.07a.91.91,0,0,0-.24.2l.1-.11-.11.09.13-.09-.14.07.17-.07a1,1,0,0,0-.45.25l.15-.12-.13.08.16-.07c-1.1.35-.25,1.86.68,1.22.71-.3.62-1.81-.32-1.45Z"/><path class="cls-16" d="M111.78,188.43c.71.37,2.29-.14,1.39-1l.11.09c-.23-.28-.59-.21-.9-.15l.16,0a1.55,1.55,0,0,1-.48,0l.16,0A.59.59,0,1,0,111.78,188.43Z"/><path class="cls-16" d="M132.2,166.9c-3.62.49-3.78,3.52-1,5.3,2-.1-.1-2.12-.33-2.69,0,0-.14-.46-.11-.28,0,0,0-.2,0-.11s0-.15,0,.06c.07-.46,3.6-1.73,1.45-2.28Z"/><path class="cls-16" d="M152.06,166.25c-3.75-3.09-6.05,6.94-1.65,1,.08-.06,0,0-.06,0s.21-.06.08,0a2,2,0,0,1,1.13.08.59.59,0,0,0,.5-1.05Z"/><path class="cls-16" d="M138.16,187.41c0,1-.73,5.9,1.12,4.71.3-1.5-.17-3.12.1-4.66a.61.61,0,0,0-1.22-.05Z"/><path class="cls-16" d="M164.47,166c-5.31-.63-5.49,13.83-2.1,2.89,0-1.52,3.76-2.38,2.1-2.89Z"/><path class="cls-16" d="M155.52,191.6c.13-1.19,1.58-3,.78-3.94-.87-.3-2.33,5.33-.78,3.94Z"/><path class="cls-16" d="M171.23,189.38c.26.77.26,1.94,1.07,2.34s.61-.89.49-1c-.13-.37-.33-.84-.42-1.15,0-.81-1.14-1.23-1.14-.23Z"/><path class="cls-16" d="M163.69,183.83c.66.1,2.15-.2,1.38-1.09C164.26,182,162.06,183.22,163.69,183.83Z"/><path class="cls-16" d="M187.2,166.8c-4.52-1.05-2.07,9.38-1.21,2.44.09-.48.1-.92.35-1.09-.11.1.06,0,.09-.06.3-.14,2-.73.77-1.29Z"/><path class="cls-16" d="M186.28,191.94c-.15-.9.56-2.67-.49-3.06-1-.1-.46,4.8.49,3.06Z"/><path class="cls-16" d="M203.28,167.89c-1.75-1.36-7.35,3.19-4.66,3.19,1.34-.81,2.62-2.36,4.43-2.26a.49.49,0,0,0,.23-.93Z"/><path class="cls-16" d="M213.9,168.72s0-.09,0-.13l0,.12a3.42,3.42,0,0,1,.13-.34l-.06.13a2.4,2.4,0,0,0,.11-.23l-.06.13a1.21,1.21,0,0,1,.2-.3l-.1.12.21-.25-.11.13a2.16,2.16,0,0,1,.27-.25l-.14.1a1.63,1.63,0,0,1,.34-.19l-.16.07a1.82,1.82,0,0,1,.4-.11l-.17,0c1.67-.12.58-1.94-.65-1.13-1.4.12-1.52,3.65-.2,2.11Z"/><path class="cls-16" d="M212.9,188.47c1,.67,2.43-.48,1-1l.48.28C213.88,186.75,211.51,187.57,212.9,188.47Z"/><path class="cls-16" d="M221.66,192.76c2.06.31,2.55-3,.71-1.48l.1-.12-.23.28.1-.11a1.87,1.87,0,0,1-.3.26l.13-.08a1.49,1.49,0,0,1-.36.17l.14,0C221.21,191.58,220.81,192.59,221.66,192.76Z"/><path class="cls-10" d="M195.54,226.5c2.92.24,5.18-1.56,3.81-4.43l-5.19-14.91a4,4,0,0,0-4.84-3.14c-4.5.23-5.52,1.58-6.24,4.84a1.75,1.75,0,0,1-3.29.18c-1.18-4.45-11-6.13-15.79-3.86-1.46,1-2.85-1.18-4.27-.87-4-.24-3,2.18-5.47,2.73-1,0-1.45-.77-1.88-1.49-1.57-1.61-6.1-1.94-7.2-.31-1.37,1.81-5.67-1.45-8.51,1.16-2.37,1.53-2.8-2-5.67-1.54-2.93-.47-5.58.62-5.16,3.93-.16,1.45,1,5.68-1.29,6-4.23.08-2.37-11.38-8.22-10.77-3.78,0-6.26.91-6.79,3.87-.61,1.64-1.2,8.52-4.36,5.73-2.94-2.34-2.72-1.91-1.93-5.7,1-7.12-17.41-4.91-16.41,3.3-.38,2.73,2.19,3.5,2.73,5.63-.53,2-3.72,3.38-3.11,5.76,1.2,3.39,6,4.14,9.55,4.31,3.64.33,5.86-1.71,8.67-2.36,1.73.48.88,1.8,3.78,1.83.21,0,1-.05,1.26-.06,5.15,0,2.73-3.38,5.79-4,2.89.46,1.13,4.59,5.37,4.26,1.44-.14,2.71.21,4.2-.82,2.09-1.57,6.17,3.9,8.18-.48,1.72-3.22,3.94,1.51,6,1.21,3.41.23,5.29-6.15,7.67-3.14a7.7,7.7,0,0,0,13.11.81,1.73,1.73,0,0,1,1.74-.69c2,.63,1.46,3.89,4.16,3.51a8.63,8.63,0,0,0,1.8-.25c2.43-.09,3.34-3.12,5.33-1.17a2.6,2.6,0,0,0,2.15,1.1,6.59,6.59,0,0,0,2.93-1.05c1.57-.77,2.32,1.05,4.11.8.38,0,.87-.05,1.26-.06,3.22-.22,3.72-1.23,4.12-2.74a1.74,1.74,0,0,1,3.35,0C191.28,225.49,192.89,226.88,195.54,226.5Z"/><path class="cls-11" d="M153.78,230.87a11,11,0,0,1-8.37-3.84c-2.36,2.48-7.17,4.13-10.16,1.48-2.17,2.51-6.42,2.16-9.1.62-3.66,1.52-8.7,1.22-10.73-1.38-2.12,2.32-8.92,2.92-11.34.71-7.68,5.2-27.94-.57-18.78-11.69-9.9-14.58,18.1-23,21.25-11,2.48-7.19,14.7-6.72,16.58-1,2.45-4.62,9.16-4.17,12.65-1.95,2.24-1.18,4.89-1.12,7.53-.64,2.33-2,7.49-2.1,10.93.31,3.51-2.21,5.55-2.15,8.93-.81,5.26-2.24,15.58-.3,17.77,2.88,2.08-3.62,5.81-3.93,9.21-4.07a7.31,7.31,0,0,1,7.29,5.5l5.19,14.91c3.56,8.63-8.75,11.83-13.39,6.83-2,2.1-7.45,2.77-10.34,1.35-1.94,1.15-5.3,1.44-7.26-.19-3.36,1.83-8.13,2.38-10.6-.73A10.69,10.69,0,0,1,153.78,230.87Zm-8.3-8.38a1.76,1.76,0,0,1,1.47.81,7.7,7.7,0,0,0,13.11.81,1.75,1.75,0,0,1,3.09.6c1.2,4.37,6.38,1.19,8.64.15,2.35.88,2.71,2.85,5.73,1,2.29-1.53,3.07,1.14,6,.4,5.14,0,2.76-3.42,5.79-4,3.14.61.83,4.93,6.21,4.23,1.31-.09,2.91,0,3.78-1.26,1.7-2-4.9-15.8-5.16-18.08a4,4,0,0,0-4.84-3.14c-4.5.23-5.52,1.58-6.24,4.84a1.75,1.75,0,0,1-3.29.18c-1.21-3.09-4.86-4.79-10.27-4.79-3-.62-6,2-7.64.77a3.66,3.66,0,0,0-2.9-.67c-.8,0-2.67.39-3.14,1.67-.8,1.67-2.91,1.06-3.46-.47-1.36-1.41-3.1-1.16-4.69-1.36-2.68-.17-2.38,2.35-4.59,1.58-5.71-2-7,2.91-9.1.14-.71-1-3.11-1.1-4.62-1.11-6.78-.15-.95,8.67-4.83,10-2.52.72-3.36-6.32-4.21-7.6-1-5.16-10.6-3.54-10.8.7-1.17,3.67-1.14,9.2-6,4.4-2.87-2.64,4.15-8.54-6.31-8.47-3.12,0-10.37.72-10.37,7.4a4.83,4.83,0,0,0,2,4.2,1.75,1.75,0,0,1-.06,2.83c-6.46,5.16,1.86,8.9,7.2,8.67,4,.82,8.13-4,9.84-1.56.23.67,2.36,1.3,3.87,1,3.22-.22,3.72-1.23,4.12-2.74a1.74,1.74,0,0,1,3.35,0c.2,2.34,2.68,3.41,5.34,2.9,1.38.41,3.39-2,4.81-.71s5.13,2,5.92-.51a1.75,1.75,0,0,1,1.28-1.08c1.9-.25,2.85,2.59,4.74,2.29a6.91,6.91,0,0,0,4.68-3.05A1.75,1.75,0,0,1,145.48,222.49Z"/><path class="cls-12" d="M153.78,227.75c-4.7.17-5.19-3-8.3-4.91v-.35l0,.35a1.42,1.42,0,0,0-1.18.72c-1.42,1.83-2.8,2.95-5,3.23-1.92.32-2.86-2.33-4.68-2.3-1.51.67-1.59,3-3.78,2.75a6.42,6.42,0,0,1-3.71-1.24c-1.29-1.06-3.34,1.26-4.57.8-.44,0-1.25.1-1.66.08-2.91,0-3.57-1.53-4-3.24a1.4,1.4,0,0,0-2.69,0c.27,2.95-7.21,4.27-8.66,1.8-1.6-1.81-5.33,2.52-9.5,1.79-4.34.06-12.66-2.29-9-7.61.42-1,2.08-1.59,2.19-2.82-.75-2-3.09-2.91-2.72-5.62.53-8.21,8.73-7.87,13.29-7.61,7,.92,1.74,6.6,3.9,8.38,1.28.74,3.12,3.28,4.14.85l1.37-5c.25-4.59,10.44-6.17,11.47-.72.75,1.06,1.71,8,3.81,7.37,2.79-1-.49-6.78,2-9,1.36-1.31,3-1,4.57-.94,2.47-.13,2.77,1.23,4.37,2,1.63-.24,2.49-1.71,4.56-1.45.41,0,1.07.06,1.48.07.83-.15,2.7,1.13,3.47-.05.91-1.67,6.83-1.76,8.1.86,2.15,2.74,2.62-2.28,5.95-1.88,4.65-.16,1.5,2.21,7.34.08,5.22-.86,12.71.71,13.83,4.82a1.36,1.36,0,0,0,1.36.88c1.06,0,1.36-1.18,1.54-2,.27-4.59,10.42-6.17,11.47-.72l5.19,14.9c1.52,3.77-1.44,5.16-5,4.93-2.92,0-3.57-1.53-4-3.24a1.4,1.4,0,0,0-2.69,0c-.42,1.6-1,2.76-4.42,3-1.24.14-2.9.11-3.72-.63-.67-.58-1.52-.2-2.16.2-2.91,1.7-3.58.21-5.91-1-1.5.29-1.88,1.63-3.95,1.81a10.33,10.33,0,0,1-1.87.26,3,3,0,0,1-3.15-2.49C161.22,221.13,158.36,228.61,153.78,227.75Zm-8.3-5.6a2.06,2.06,0,0,1,1.76,1,7.36,7.36,0,0,0,12.54.79,2.1,2.1,0,0,1,3.71.71c1.26,4.23,6.1.61,8.31-.1,2.34.59,2.6,2.92,5.56,1.07,2.34-1.63,3.38,1.08,6.16.36,4.88.13,2.48-3.52,5.81-4,3.13.25,1.36,4.65,5.37,4.26,2.76.16,5.81-.65,4.33-4l-5.2-14.92c-.65-1.86-1.46-2.94-3.68-2.94-3.67.06-5.94.83-6.46,3.62-.06,2.35-3.13,3.65-4.22,1.21-1.16-2.94-4.69-4.57-9.95-4.57-3.06-.64-6,2.14-7.88.69a4.36,4.36,0,0,0-5.18.39c-.48.86-1.08,1.75-2.18,1.71-3.09-.56-.82-2.83-6.59-2.84-2.54-.12-2.43,2.49-4.73,1.55-5.46-1.9-6.74,2.9-9.09.21-.6-.77-1.35-1-2.88-1.09-6.07-1-4.71,3.77-4.68,7.78a2.08,2.08,0,0,1-4,.75c-1.38-2.59-1.77-9.77-5.93-9.41-3.62.06-6,.83-6.47,3.62-.5,1.36-1,6.32-2.92,6.53-1.61.42-2.31-1.31-3.6-1.92-3.38-2.87,4.12-8.53-6.14-8.43-3,0-10,.69-10,7.06a4.51,4.51,0,0,0,1.88,3.92A2.09,2.09,0,0,1,89,218.5c-6.15,4.93,2,8.22,7,8,4.09.86,7.83-4.1,10.07-1.48l-.23.27.28-.21c.1.6,2.32,1.13,3.57.83,3-.21,3.43-1.08,3.8-2.48a2.1,2.1,0,0,1,4,0c.43,1.6.92,2.72,3.35,2.72,1.35-.13,2.62.19,4-.74,2-1.59,3.67,1.44,6,1.1,2.08.25,1.87-2.43,3.65-2.73,2-.43,3,2.52,4.81,2.28a6.65,6.65,0,0,0,4.38-2.87A2.08,2.08,0,0,1,145.48,222.15Z"/><path class="cls-13" d="M89.06,223.68c-1.5-.89-1.53-1.82-.52-3.14,1.21-1.59,1.61-1.71,3.51-.92,2.21,1.08,6.65,1.24,6.77-1.51,0-3.22-10.56-.74-10.56-6.92,0-4.76,4.6-6,8.95-6,2.06.1,5-.27,4.62,2.65,0,1.49-.28,1.95-1.25,1.95-.82-.1-6.31-1.13-6.21,1.17,0,2.61,10.94-1.1,10.94,7.49C105.29,226.08,94.14,226.91,89.06,223.68Z"/><path class="cls-13" d="M124.19,222.53c1,2.34-.61,2.52-2.55,2.56-3.52.57-3-2.33-3.76-4.58l-4.93.18c-.53,2.29,0,4.25-3.32,4.19-1.95.22-3.43.05-2.64-2.3l3.91-14.33c.54-2,1.13-2.56,4.71-2.81,2.09-.16,2.7.23,3.39,2.19Zm-7.21-5.4-1.89-6-1.45,6Z"/><path class="cls-13" d="M141.85,220.49c1.75,1.53,1,2.53-.69,3.65s-2.38,1.18-3.84-.31L132.65,219l-.49,4.71c.1,3.14-5,1.7-4.47-.92l-.43-14.06c-.06-2,.43-2.58,2.47-2.5s4,0,3.53,2.66l-.49,5,3.74-5.19c1.23-1.93,2.59-2.11,4.77-1.89,1.87.1,2.13.69,1,2.15L137,215.73Z"/><path class="cls-13" d="M157,208.22c-.17-1.84.18-2.3,2.07-2.45,3.37-.62,2.36,3.58,2.61,5.72,0,7-1.87,14.49-7.92,14.49-5.6,0-8.23-6.82-8.23-14.77.12-2.73-.37-6.68,3.73-5.44,3.44-.1,1.93,3.14,2.1,5.31C151.85,225.56,159,217.86,157,208.22Z"/><path class="cls-13" d="M178.46,221c1.73,2,.22,2.81-1.61,3.68-3.38,2.42-4.11-4.14-5.34-6a12.81,12.81,0,0,1-2.09.89c.1,2.22,1.45,5.54-1.95,5.7-2,.49-3.15.26-3.09-2.07L164,208.68c-.05-2,.51-2.61,2.48-2.83,8.18-1.86,17.76,4.42,8.76,10.88Zm-10.17-10.5.56,4.65C175.91,214.11,174.24,208.14,168.29,210.47Z"/><path class="cls-13" d="M198,222.53c1,2.34-.61,2.52-2.56,2.56-3.51.57-2.94-2.33-3.75-4.58l-4.93.18c-.54,2.29,0,4.25-3.33,4.19-1.94.22-3.43.05-2.63-2.3l3.91-14.33c.54-2,1.13-2.56,4.7-2.81,2.1-.16,2.71.23,3.4,2.19Zm-7.21-5.39-1.89-6-1.45,6Z"/><path class="cls-14" d="M197.13,224Z"/><path class="cls-14" d="M188.93,211.17l.13.4A.49.49,0,0,0,188.93,211.17Z"/><path class="cls-14" d="M171.23,218.34c-.4.37-2.13.33-2.29,1.17.23,3.13,1.37,5.23-3.12,5.48-1,.7,1.26.48,1.65.3,3.4-.16,2.06-3.48,1.95-5.7a12.81,12.81,0,0,0,2.09-.89S171.43,218.25,171.23,218.34Z"/><path class="cls-14" d="M168.29,210.47c1.39-.39,4.48-1.18,5.15.76-.34-2.19-4.7-2-5.62-.71.25.77,0,5,1,4.6Z"/><path class="cls-14" d="M178.46,221l-3.22-4.24c2.8-1.88,4.27-4.37,3.23-7.2-.19-.42-.55-.48-.43-.09.81,4-.38,4.65-2.78,6.65-.44.26-.7.52-.51.88,1.27,2.88,7,5.53.92,7.57-1.17,1.26,1.68,0,2.05-.35C179.51,223.27,179.66,222.58,178.46,221Z"/><path class="cls-14" d="M151.63,225.61c9.1,2.9,10.87-10.76,9.84-18.33-.08-.45-.57-.47-.53-.07.56,6.57.43,20-9.29,17.92C150.84,224.89,151.2,225.44,151.63,225.61Z"/><path class="cls-14" d="M154.87,218.88c-3.73,1.28-3.69-7.58-3.31-11.43C150,205.16,149.54,221.71,154.87,218.88Z"/><path class="cls-14" d="M141.85,220.49,137,215.73l5.24-6.74c.4-.35.82-1.48-.07-.76-.83.89-4.55,5.64-5.48,6.68-.15.16-.54.64-.29.94,1.72,2,5.11,5.16,5.47,5.58,1.25,1.4-1.35,2.19-2,2.85-.65.41-.15.7.26.51a10.25,10.25,0,0,0,1.49-1C143.23,222.61,143.28,221.89,141.85,220.49Z"/><path class="cls-14" d="M132.12,218.93c-.8,2.46.62,7.51-3.35,5.45-.39-.15-.36.43-.21.52,4.76,2.49,3.47-3.18,4.09-5.9C132.65,219,132.21,218.39,132.12,218.93Z"/><path class="cls-14" d="M132.77,213.92l.5-5.19c0-.65-.58-.6-.64.24C132.82,209.77,131.49,213.87,132.77,213.92Z"/><path class="cls-14" d="M117.68,220c-1.56.26-4.56-.65-5.27.61-.35,3.33-.92,3.87-4.52,3.73-.65,0-.3.48-.08.52a8.58,8.58,0,0,0,1.82,0c3.31.06,2.79-1.89,3.32-4.19l4.93-.18S117.8,220,117.68,220Z"/><path class="cls-14" d="M119,207.63c-2.65-4.56,5.57,17.16,4.82,15.89.5,1.85-5.36.35-3.47,1.57,1.84,0,5.25.37,3.84-2.56Z"/><path class="cls-14" d="M113.64,217.14l1.45-6c-1.31-.29-1.7,5.28-1.92,5.43A.51.51,0,0,0,113.64,217.14Z"/><path class="cls-14" d="M191.49,220c-1.55.26-4.55-.65-5.27.61-.34,3.33-.92,3.87-4.51,3.73-.65,0-.31.48-.08.52a8.48,8.48,0,0,0,1.81,0c3.31.06,2.8-1.89,3.33-4.19l4.93-.18S191.62,220,191.49,220Z"/><path class="cls-14" d="M192.82,207.63c-2.65-4.56,5.57,17.16,4.82,15.89.5,1.85-5.36.35-3.47,1.57,1.84,0,5.24.37,3.84-2.56Z"/><path class="cls-14" d="M187.46,217.14l1.45-6c-1.31-.29-1.7,5.28-1.92,5.43A.51.51,0,0,0,187.46,217.14Z"/><path class="cls-14" d="M105.31,218.47c.22-.77-.76-4.16-.92-2.24a6.74,6.74,0,0,1,0,4.38c-1,4.26-12.27,5.41-14.87,2.56-.47-.35-1,.13-.43.51C94.14,226.91,105.29,226.08,105.31,218.47Z"/><path class="cls-14" d="M94.37,211c.75-3.79,8,1.28,7.46-3.12.16-.57-.3-2.05-.53-.63.2,2.24-.65,2.2-2.53,1.8a10.91,10.91,0,0,0-3.7.1c-1.44.48-2.45,2.43.2,2.74C94.51,211.68,94.37,211.29,94.37,211Z"/><path class="cls-14" d="M90.22,214.61c2.51,1.51,7.59,1.3,8.45,2.9-.48-1.66-3-1.78-4.58-2.17C93.38,215.49,90,213.78,90.22,214.61Z"/><path class="cls-15" d="M92.24,201.88c-6.61.08-9.15,11.68-6.46,9.44-.43-7.47,8.72-8.64,6.46-9.44Z"/><path class="cls-15" d="M84.22,223.47c0,.95,3.65,4.44,3.29,2.29a9,9,0,0,1-1.8-1.46c-.37-.4-1.32-2.21-1.49-.83Z"/><path class="cls-15" d="M102.83,203.79a2.92,2.92,0,0,1,.8.82,7.7,7.7,0,0,1,.57,1.37c1.1,1,.92-1.24.37-1.74-.24-.85-2.47-2.15-1.74-.45Z"/><path class="cls-15" d="M110.41,202.68c-1.52,0-5.39,7.58-3.31,6.85.85-2.24,1.64-4.71,3.73-6.12.39-.27,0-1-.42-.73Z"/><path class="cls-15" d="M119.17,203.49a4.41,4.41,0,0,1,.51.46l-.07-.07c.17.18.31.38.49.55l-.08-.07.11.11-.07-.07c.31.41.93.15.73-.37s-2.12-1.92-1.62-.54Z"/><path class="cls-15" d="M104.63,227.85c.58.88,4.34,1.48,2.78,0a5.68,5.68,0,0,0-.82-.17h.06a3.69,3.69,0,0,1-1-.35c-.37-.51-1.79-.56-1.06.51Z"/><path class="cls-15" d="M116.29,226.73c.43.63,3.44,2,2.48.45a7.74,7.74,0,0,1-1.94-1.16c-.45-.36-1,.35-.54.71Z"/><path class="cls-15" d="M126.46,228c1.27,1.18,4,.19,1.43-.42a4,4,0,0,1-.89-.35c-.22-.31-1.14.29-.54.77Z"/><path class="cls-15" d="M135.51,227.35c.52.6,2.38,1.76,2.7.52a.5.5,0,0,0-.44-.48,4.43,4.43,0,0,0-.5-.09l.14,0a2.29,2.29,0,0,1-1.13-.59c-.13-.39-1.25-.12-.77.61Z"/><path class="cls-15" d="M127.73,202.93c-3.65-.12-5.14,7.32-3.29,6,0-5.24,5.17-5.28,3.29-6Z"/><path class="cls-15" d="M138.18,204.55l.15-.09a3.8,3.8,0,0,1,.62-.24s.81-.11.71-.49c-.33-1.15-3.21.87-1.48.82Z"/><path class="cls-15" d="M144.52,204.16c1.42-1.27,3.38-.89,5.1-1,1.34-1.29-2.41-1.08-3.15-.85-.69-.07-3.77,1.75-1.95,1.82Z"/><path class="cls-15" d="M156.38,203.63a4.92,4.92,0,0,1,3.55-.92c1.38-1-1.47-1.27-2.14-.86-.78,0-3.24,1.85-1.41,1.78Z"/><path class="cls-15" d="M164.36,203.72c2-.84,4.18-.58,6.31-.74C172.68,201.1,161.24,202.48,164.36,203.72Z"/><path class="cls-15" d="M182.45,205.29c.66-1.79,6.39-1.94,4.67-2.88-1.31-1-6.91,2.9-4.67,2.88Z"/><path class="cls-15" d="M145.84,225.63c.33.65,3,3.61,3,1.7a15.21,15.21,0,0,0-1.25-1.15c-.42-.54-2-2.32-1.71-.55Z"/><path class="cls-15" d="M161.24,226.34c1.11,3,7,2.8,2.46,1a4.28,4.28,0,0,1-1-.71c-.3-.43-1.45-1.81-1.45-.33Z"/><path class="cls-15" d="M172.65,227.72c.64,1,4.35,1.34,2.69-.11-.43-.1-.84-.09-1.13-.18s-2.33-1.15-1.56.29Z"/><path class="cls-15" d="M180.41,228.1c1.06.5,3.86,1.3,4.21-.2-.94-.79-2.69.2-3.85-.72A.49.49,0,0,0,180.41,228.1Z"/><path class="cls-15" d="M200.48,219.9c1,2.91.75,7.09-2.89,7.79-.31.09-.23.52,0,.59,6.32.95,4.1-11.39,2.85-8.38Z"/><path class="cls-16" d="M93.05,206.3c-2.51-.11-4.81,5.16-2.57,3.72a6,6,0,0,1,1.77-2.23c.35-.18,2.38-1.11.8-1.49Z"/><path class="cls-16" d="M89.83,221.33a1.62,1.62,0,0,1,.56-.29l-.13,0a1.54,1.54,0,0,1,.42-.07h-.14l.39,0-.14,0c.7.39,1.29-.69.52-1-1-.65-3.38,1.42-1.48,1.32Z"/><path class="cls-16" d="M100.75,214.35a2.29,2.29,0,0,1,1.24.7c.11.16.85,1.11,1,.36C103.28,214.31,99.53,212.81,100.75,214.35Z"/><path class="cls-16" d="M114,206.23c-3.22-.4-2.7,6.42-.79,1.61-.09.17.16-.27.22-.33-.17.21.24-.28,0,0a1.36,1.36,0,0,1,.65-.39.43.43,0,0,0-.12-.85Z"/><path class="cls-16" d="M108.47,223.4c.14-.94,1.35-2.24.68-3.07-1.12-.63-2.18,4.34-.68,3.07Z"/><path class="cls-16" d="M114,218.38c.43,0,1.36-.25.9-.83C114.25,217,112.69,218.12,114,218.38Z"/><path class="cls-16" d="M122.6,223.45c.46-1.06-1.25-3.11-1.16-1.17l0-.12c.22.47.56,2.36,1.2,1.29Z"/><path class="cls-16" d="M130,206.87c-3.54-1.27-1.52,6.95-.82,1.6,0,.26,0-.09,0-.14s.18-.46.05-.2a1.32,1.32,0,0,1,.12-.2s-.09.09,0,0c.23-.17.1-.13.37-.17.33.16.91-.66.26-.92Z"/><path class="cls-16" d="M129,222.91c.23-.53-.21-2.16-.74-1.09l0-.09c-.15.36,0,.76,0,1.14v-.1a.38.38,0,0,0,.74.14Z"/><path class="cls-16" d="M137.7,209.28c.21-.19.67-.58.78-.66l.15-.07c.31,0,2.6-.43,1.39-1.15a2.63,2.63,0,0,0-2.91,1.41.39.39,0,0,0,.59.47Z"/><path class="cls-16" d="M139.6,221.86c.3.26.53.66,1,.73,1.82-.33-1.5-2.58-1-.73Z"/><path class="cls-16" d="M148.42,206.75c-3.42-1-1.93,4.94-1.81,6.83,1.92,2.19.46-5.09,1.06-6a.36.36,0,0,0,0,.09l-.26.14c.55-.05,2.13-.4,1-1Z"/><path class="cls-16" d="M159,206.78c-1.8-.16-1.25,1.87-1.24,3,1.27,1.56,1.16-1.47,1-2.26v0c-.5.45,0,.14.1.13.68.06.89-.92.13-.92Z"/><path class="cls-16" d="M149.22,222.56c1.21,2.8,5.12.78,1.95.48a2.45,2.45,0,0,1-.51-.2c.1.06-.3-.19-.37-.27a.9.9,0,0,1-.17-.16c-.21-.54-1.07-.53-.9.15Z"/><path class="cls-16" d="M167,207c-3.52-.85-2.06,5.22-2,7.24,1.44,1.52.69-3.06.9-3.79-.28-3.58,1.79-2.34,1.12-3.45Z"/><path class="cls-16" d="M165.26,222.35c0,.49-.2,1.41.5,1.46.93-.19.15-2.74-.5-1.46Z"/><path class="cls-16" d="M173.87,222.47a4.23,4.23,0,0,1,.25.62l0-.13c-.08.9,1.21,1.38,1.18.27,0-.81-1.36-2.37-1.39-.76Z"/><path class="cls-16" d="M171.11,216c.58-.11,2.87-1.15,1.71-1.64C172.44,214.58,169.57,215.76,171.11,216Z"/><path class="cls-16" d="M175.8,208.79l0,0a2.83,2.83,0,0,1,.25.34,3,3,0,0,1,.25.65l0-.1c.14.93,1.12.45.76-.32,0-.68-1.66-1.88-1.26-.59Z"/><path class="cls-16" d="M188.09,206.65a3.32,3.32,0,0,0-1.06.14c-3,1-2.11,7.39-.07,1.33-.07.13.06-.1.09-.12s-.05,0,0,0a2.22,2.22,0,0,0,.37-.32c.45-.13,1.52-.62.67-1Z"/><path class="cls-16" d="M182.24,223.22c.36-.6,1.68-3.61.06-2.59-.11.49-1.24,3.33-.06,2.59Z"/><path class="cls-16" d="M187.8,218.42c.47.11,1.44-.15.93-.75S186.67,218,187.8,218.42Z"/><path class="cls-16" d="M195.28,223.81c1.44.65,1.55-1.65.75-2.34l.1.09c-.38-.54-1.09-.26-.92.4v-.14a.79.79,0,0,0,.07.4l-.05-.14a5.52,5.52,0,0,1,.21,1v-.15a1.34,1.34,0,0,1,0,.2l0-.14a.42.42,0,0,1,0,.1l.07-.13,0,.06.09-.1a.18.18,0,0,1-.07,0l.12-.07-.06,0,.13,0-.06,0h.1l.14,0A.53.53,0,0,0,195.28,223.81Z"/><path class="cls-17" d="M220.37,206.69,218.62,208l-.44-2.06a3.91,3.91,0,0,0-2.36,2.51c-.76,2,.81,4.88.81,4.88s3.09-1.08,3.86-3.09A3.83,3.83,0,0,0,220.37,206.69Z"/><path class="cls-14" d="M216.55,213.51l-.07-.13c-.07-.12-1.61-3-.82-5a4.13,4.13,0,0,1,2.48-2.62l.17,0,.43,2,1.67-1.22.1.15a4,4,0,0,1,.14,3.67c-.79,2.06-3.83,3.15-4,3.2Zm1.5-7.39a3.91,3.91,0,0,0-2.06,2.36c-.64,1.66.43,4,.72,4.6.61-.24,3-1.27,3.62-2.94a3.81,3.81,0,0,0,0-3.2l-1.81,1.31Z"/><path class="cls-17" d="M210.18,208.05l.66,2.06-2.09-.22a3.91,3.91,0,0,0,1.67,3c1.67,1.35,4.89.74,4.89.74s-.08-3.28-1.75-4.63A3.85,3.85,0,0,0,210.18,208.05Z"/><path class="cls-17" d="M208.33,218.17h2.15l-.85,1.92a3.91,3.91,0,0,0,3.39-.65c1.8-1.17,2.21-4.42,2.21-4.42s-3.13-.94-4.94.23A3.82,3.82,0,0,0,208.33,218.17Z"/><path class="cls-17" d="M217.38,223.05,218,221l1.56,1.41A3.89,3.89,0,0,0,220,219c-.56-2.07-3.52-3.47-3.52-3.47s-1.87,2.7-1.31,4.77A3.8,3.8,0,0,0,217.38,223.05Z"/><path class="cls-17" d="M224.82,216l-1.75-1.27,1.82-1.05a3.89,3.89,0,0,0-3.12-1.47c-2.15-.11-4.39,2.27-4.39,2.27s2,2.61,4.13,2.72A3.84,3.84,0,0,0,224.82,216Z"/><path class="cls-14" d="M213.64,214a5.36,5.36,0,0,1-3.33-.92,4.07,4.07,0,0,1-1.73-3.16v-.18l2,.2-.64-2,.17-.05a4,4,0,0,1,3.54,1c1.71,1.38,1.81,4.62,1.81,4.76v.14l-.14,0A10.35,10.35,0,0,1,213.64,214Zm-4.71-3.88a3.88,3.88,0,0,0,1.59,2.69c1.39,1.13,4,.83,4.6.73,0-.65-.28-3.22-1.67-4.34a3.78,3.78,0,0,0-3-1l.69,2.13Z"/><path class="cls-14" d="M210.57,220.42a2.73,2.73,0,0,1-1-.17l-.17-.06.82-1.85h-2.07v-.18a4,4,0,0,1,2-3c1.85-1.21,5-.3,5.08-.26l.14.05V215c0,.14-.45,3.34-2.3,4.55A4.83,4.83,0,0,1,210.57,220.42Zm-.7-.44a3.84,3.84,0,0,0,3-.69c1.5-1,2-3.5,2.12-4.14-.63-.17-3.15-.73-4.65.25a3.83,3.83,0,0,0-1.88,2.59h2.24Z"/><path class="cls-14" d="M217.49,223.27l-.17-.05a4,4,0,0,1-2.28-2.9c-.57-2.12,1.25-4.8,1.33-4.91l.09-.12.13.06c.12.06,3,1.46,3.61,3.59a4.06,4.06,0,0,1-.46,3.57l-.11.15-1.51-1.35Zm-.91-7.53c-.35.54-1.67,2.77-1.2,4.5a3.77,3.77,0,0,0,1.89,2.58l.69-2.13,1.62,1.46a4,4,0,0,0,.29-3.12C219.4,217.3,217.15,216,216.58,215.74Z"/><path class="cls-14" d="M221.81,217.34h-.31c-2.2-.11-4.18-2.67-4.26-2.78l-.09-.12.1-.11c.1-.09,2.34-2.44,4.53-2.32a4.09,4.09,0,0,1,3.26,1.54l.1.15-1.75,1,1.67,1.21-.11.14A3.86,3.86,0,0,1,221.81,217.34Zm-4.2-2.88c.41.5,2.13,2.43,3.91,2.53a3.85,3.85,0,0,0,3-1l-1.81-1.32,1.89-1.09a4,4,0,0,0-2.88-1.24C220,212.24,218.07,214,217.61,214.46Z"/><path class="cls-18" d="M220.17,209.88c-.31,1-2.22,2.73-3.16,2.73-.61,0-1.16-2.69-.26-2.15C218.23,211.35,220.72,208.11,220.17,209.88Z"/><path class="cls-18" d="M221.75,216.76c-1,0-3.26-1.3-3.55-2.2-.18-.58,2.22-1.91,2-.89C219.78,215.35,223.61,216.75,221.75,216.76Z"/><path class="cls-18" d="M215.94,220.6c-.41-.95-.09-3.51.63-4.13.46-.39,2.63,1.3,1.6,1.47C216.47,218.23,216.67,222.3,215.94,220.6Z"/><path class="cls-18" d="M212.55,219.12c.9-.48,2.26-2.68,2.09-3.61-.12-.6-2.86-.64-2.17.14C213.62,216.94,210.91,220,212.55,219.12Z"/><path class="cls-18" d="M210.42,212.44c.75.71,3.27,1.3,4.09.83.53-.29-.3-2.91-.82-2C212.83,212.77,209.07,211.17,210.42,212.44Z"/><path class="cls-16" d="M220.35,207.77s.21,1.73-.36,2.4S220.16,206.26,220.35,207.77Z"/><path class="cls-16" d="M221.47,212.72s1.74,0,2.34.65S220,212.72,221.47,212.72Z"/><path class="cls-16" d="M217.25,216.8s1.58.73,1.84,1.57S215.87,216.15,217.25,216.8Z"/><path class="cls-16" d="M214.13,215.58s-1.69.45-2.43,0S215.59,215.18,214.13,215.58Z"/><path class="cls-16" d="M214.39,212.6s-.89-1.5-.63-2.34S215.16,213.91,214.39,212.6Z"/><path class="cls-14" d="M216.18,209.27a4.88,4.88,0,0,0,0,1.28,5.07,5.07,0,0,0,.46,1.79c.11.25.16-.17-.05-1.67C216.41,209.34,216.31,208.2,216.18,209.27Z"/><path class="cls-14" d="M218.49,215a4.88,4.88,0,0,0,1,.83,5.28,5.28,0,0,0,1.66.8c.26.08,0-.24-1.3-1S217.76,214.24,218.49,215Z"/><path class="cls-14" d="M215.64,219.34a2.9,2.9,0,0,0,.18,1.39c.25.71,1.05,1.75,1,1.48a9.71,9.71,0,0,0-.54-1.46C215.75,219.49,215.79,218.31,215.64,219.34Z"/><path class="cls-14" d="M211.46,219.7a2.58,2.58,0,0,0,1.19-.55,4.34,4.34,0,0,0,1.24-1.37c.18-.27-.15,0-1.34,1S210.39,219.85,211.46,219.7Z"/><path class="cls-14" d="M210.17,212.25a2.75,2.75,0,0,0,1.09.71,4.24,4.24,0,0,0,1.82.33c.33,0-.1-.11-1.52-.63S209.48,211.41,210.17,212.25Z"/></svg>