<svg id="Layer_1" data-name="Layer 1" xmlns="http://www.w3.org/2000/svg" viewBox="0 0 56.92 42.59"><defs><style>.cls-1{fill:#f68c2e;}.cls-2{fill:#fcbf60;}.cls-3{fill:#faa931;}.cls-4{fill:#c75e28;}.cls-5{fill:#ffe745;}</style></defs><path class="cls-1" d="M51.82,29A4.26,4.26,0,0,0,53,27.16c1.43-1,2.86-4.94-.32-3.21-.69-.76-3.06-.31-2.83.87l-.12.08c-4.58-1.29-4.51-6.23-4.29-10.08,0-.36-.62-.48-.73-.11-1.78,4.48,0,11.6,5.62,11.71a6,6,0,0,0,1.12.7,3.24,3.24,0,0,1-.69.89C50.1,28.64,51.14,29.63,51.82,29Z"/><path class="cls-2" d="M35.28,42.59c9.44-3.43,18.38-11.28,21.64-20.94,0-.45-.3,1.21-5.76-5.46-3.27-4-5-7.51-5.43-7.77C36.84,3.8,26.68,1.74,16.78.61-11.3-3.94,1.57,20.17,14.57,29.36c.87,6.61,9.76,13,14.41,9.75A5.8,5.8,0,0,0,35.28,42.59Z"/><path class="cls-1" d="M49.38,16c.4,1.33,6.22,7.89,5.85,3.93C53.09,19.64,45.85,8.22,49.38,16Z"/><path class="cls-3" d="M31.77,6.82c-9.74-5.13-34-8-23,10,3,5.55,11.94,5,7.67-2.07a1.22,1.22,0,0,1-.07-1.31c1.28-2.24-.72-2.25-.55-3.56C17.82,7.67,33.27,10.3,31.77,6.82Z"/><path class="cls-1" d="M52.19,29a4.33,4.33,0,0,0,1.2-1.86c1.43-1,2.86-4.94-.32-3.21-.69-.76-3.06-.31-2.82.87a.57.57,0,0,0-.13.08c-4.58-1.29-4.5-6.23-4.29-10.08,0-.36-.62-.48-.73-.11-1.77,4.48,0,11.6,5.63,11.71a5.4,5.4,0,0,0,1.12.7,3.67,3.67,0,0,1-.69.89C50.47,28.64,51.5,29.63,52.19,29Z"/><path class="cls-3" d="M41.49,20c-1.4-2.11-4.57,0-6.42.51C30.68,22.56,19,24,16,24.7c.15,2.46,2.83,1.62,2.73,5.8.55,4.48,8.89,4.67,11.92,2.84,2-1.12,1.84-3.74,3.3-5.22.66-1.53-2.6-.65-3.48-.92C33.19,23.48,40.47,24.76,41.49,20Z"/><path class="cls-3" d="M49,25.58c-4.93,4-12.06,5.54-14.85,11.74C30.55,44,58.47,25.43,49,25.58Z"/><path class="cls-3" d="M55.24,20.06c-.1-2.71-8.28-3.58-5.45-.07C45.44,23.2,57.54,23.62,55.24,20.06ZM50,21s0-.05,0,0Z"/><path class="cls-4" d="M55.92,21.18c-3,7.64-18.7,24.73-26.85,16.61-4.31-.55-10.94-2.27-12.79-8.78C-12.56.68,11.51-3.18,38.48,7.09c10.19,4.58,10.78,2.05.61-1.57C30.37,3-3.06-7.69.23,9.86c1,7.16,9.34,15.83,14.34,19.5.87,6.61,9.76,13,14.41,9.75C34.17,52.7,61.72,22.81,55.92,21.18Z"/><path class="cls-4" d="M45.83,12.44c-2.21,4.72-1.12,13,5.54,12.44,1.75-.28,4.87-1.19,5-3.26-1.11-2.1-5.13,4.43-8.93,0-2.88-1.77.44-10.81-1.56-9.2Z"/><path class="cls-4" d="M27.7,14.45c4.35.16,12,.92,14.81-1.07C40.4,14.23,26.54,12.8,27.7,14.45Z"/><path class="cls-4" d="M19.62,25.48c2.83.27,24.35-5.62,21.82-8a97,97,0,0,1-21.89,7.25C19.1,24.86,19.14,25.53,19.62,25.48Z"/><path class="cls-4" d="M33.37,35c1.51-.61,14.22-10.64,10.88-10.89A117.21,117.21,0,0,1,33,34.61c-.23.2.08.53.33.39Z"/><path class="cls-4" d="M36.16,27.17c1.14-.65,6.73-2.73,5.77-3.84C41.18,23.93,34.41,26.65,36.16,27.17Z"/><path class="cls-5" d="M23,4.24c-4.28-.48-9-1.77-13.25-1.08C2.51,6,5.53,14.53,9.69,18.78c2.19,1-.23-2.71-.71-3.41-3.21-3.57-2.89-9.68,2.32-11C12.91,3.57,24.35,6.6,23,4.24Z"/><path class="cls-5" d="M35.47,12c2.48.39,5,.09,7.48.42.2,0,.2-.29,0-.32C41.81,12.09,34.68,10.33,35.47,12Z"/><path class="cls-5" d="M23.78,21.55c1.25,1,15.46-3,13.41-4.08C35.57,18.35,22,20.19,23.78,21.55Z"/><path class="cls-5" d="M43.6,23.17c-.79,2.2-12.09,8.48-9.58,9,1.48-.22,12.53-8.78,9.58-9Z"/><path class="cls-5" d="M23.69,34.46c1.88,2.4,5.45,1.21,7.08,3.61,8.08,4.22,16.7-4.83,20.79-11.15.26-.42-.3-.91-.62-.5C46.63,31.8,38.58,40.68,31.17,36.57c-.73-1.11-1.93-1-3.1-1-1,.4-4.74-2.39-4.38-1.12Z"/><path class="cls-5" d="M47.2,21c1.19,2.22,4.68,1.35,1.57-.33a3.12,3.12,0,0,1-1-1.58c.07-.83-1-1.38-1.26-.38A3.44,3.44,0,0,0,47.2,21Zm.69-1.46Z"/></svg>