<svg id="Layer_1" data-name="Layer 1" xmlns="http://www.w3.org/2000/svg" xmlns:xlink="http://www.w3.org/1999/xlink" viewBox="0 0 240.12 185.35"><defs><style>.cls-1{fill:none;}.cls-2{clip-path:url(#clip-path);}.cls-3{fill:#fcbf60;}.cls-4{fill:#f68c2e;}.cls-5{fill:#faa931;}.cls-6{fill:#c75e28;}.cls-7{fill:#ffe745;}.cls-8{fill:#fff;}.cls-9{fill:#76564b;}.cls-10{fill:#492d27;}.cls-11{fill:#f7abad;}.cls-12{fill:#e06460;}.cls-13{fill:#f6bbaf;}.cls-14{fill:#fceaec;}</style><clipPath id="clip-path"><rect class="cls-1" width="240.12" height="145.71"/></clipPath></defs><g class="cls-2"><path class="cls-3" d="M227.76,45c-17.44-27.88-53.54-45.25-87-36.06C134.66,4.24,113-1.08,103.16,5,96.46,8.93,92,18.75,92,18.75c-7.31,4.73-16.4,15.34-17.3,25.46,0,0-12.92,8.25-11,23.21,0,0-32.63-23.32-40.33-26.79s-9.82,1.57-6.92,11.84c-6.68,8.11-4.71,34.84,4.35,41.42,0,0-11,9-9.71,22.55-.67.1-14.5,19-7.09,21.55,14,9.16,38.89,10.42,59.23.62,0,0-2.9,19.2,18.7,15.18,0,0,11,7.59,24.4,3,0,0,13.84,7.37,24.34-5.86,22.65-1.57,111-26.93,101.6-81.23,4.34-.75,7.94-9.58,2.57-13.34C239.71,51.45,233.78,43.2,227.76,45Z"/><path class="cls-4" d="M103.43,143.72Z"/><path class="cls-4" d="M103.43,143.72h0Z"/><path class="cls-4" d="M206.47,114.22c-5.27,2.1-10.34,4.75-16,5.9a.79.79,0,0,0-.77.85c-.58,3.87-4.4,6.39-7.31,8.17-2.56,1.67-6,2.64-8.79.9a.78.78,0,0,0-1-.73c-.45-.26-.89.4-.55.78a10.68,10.68,0,0,1-3.91,6.11c-3.38.82-7.57,1.54-10.18-1.49a.41.41,0,0,0-.72.35c-2.34.82-.94,3.76-6.62,5.36-2.15-.13-4.48.34-6.49-.86-.26-.15-.66-.48-1-.23-.14-.41-.51-.88-1-.59-.61.58.21,1.59-.1,2.36-.13,3.61-4.28,4.29-7,5.2-1.09-1-3.13,0-4.38-1.21-.9-.52-5.37-4.68-3.64-1.18-5.88,4.19-17.71,4.76-21.68-2.14a.48.48,0,0,0-.9.31c-5.27,1.38-10.93,2.77-16.36,1.18-1.12-.93-2.86-.94-4.06-1.86-1.08-.16-3.38-4.5-3.23-2.17a12.2,12.2,0,0,1-7.53-2.37c-.54-.34-1.45-1.28-2.12-.78-4-3.14-6.78,2.47-4.58,2.62C80,145,95.49,146.08,110,147.29c4.65,2.06,9.58.75,14.42.73,6,0,12,.17,17.47-2.6,7-2,13.86-5.27,21.06-7,1.83-.05,4.16-.06,5.59-1.35a5.13,5.13,0,0,0,1.46-.82c3.28-.78,6.66-3,10-4.2C182.83,131.15,212.59,116.75,206.47,114.22Z"/><path class="cls-5" d="M134,37.42c-1.46-.76-2.49,1.89-3.39-.23-6-5.58-2.08,12,1.14,13,.5.69,2.23,1,2.31-.18C135.09,47.44,136.72,39,134,37.42Z"/><path class="cls-5" d="M126.21,43.7a4.12,4.12,0,0,0-.72-.79.79.79,0,0,0,0-1c1.3-11.06-1.67-3.23-4.66-3.77a3.22,3.22,0,0,1-2.72-3.12c-1-2-1.63.87-1,1.8-1.6.85.55,2.8,1.14,3.76a3.07,3.07,0,0,0,2.06,2.53C121.27,45,126.8,47.25,126.21,43.7Zm-2.9-.3,0,0,0,0Z"/><path class="cls-5" d="M133.49,59.08c-.42-1.5-1.92-.88-2.5.14-5.45,4.45-9.81-7.16-8.94-2.08-1.35.76-.07,2.69.59,3.56,1,3,4,4.19,6.37,5.92C134.73,69.86,133.49,62.46,133.49,59.08Z"/><path class="cls-5" d="M120.78,47.54c-2.9-2-3.44,4.05-6.68,3.45a8,8,0,0,1-7.45-4.26c-.62-.82-1.21.26-.71.87-1.14,5.33,10.62,11.75,14.76,8.89C121.59,53.86,122.56,50,120.78,47.54Zm-1.13,1.29c-.07,0,0-.09,0,0Z"/><path class="cls-5" d="M103.22,43.83a.65.65,0,0,0-.64.33c-5.34,1.73-4.18,12.22-8.35,11.2-8.09.24-.25,9.83,4.2,8.19,1.53-3.36,1.12-7.8,3.94-10.83C104.84,50.54,108.38,45,103.22,43.83Z"/><path class="cls-5" d="M114.83,58.69C108.45,56.74,107.61,61,107,66c-1.12.43-2.73-.31-3.58.91-2.26,3.62,6,7,8.66,6.52,1.79-1.78.57-5.12,1.84-7.37C114.43,63.65,118.24,60.43,114.83,58.69Z"/><path class="cls-5" d="M130.08,70.68a2.9,2.9,0,0,0-2.67-2.28.71.71,0,0,0-1.27-.06.49.49,0,0,0-.5.55c-1.83,1.34-.4,6.56-2.56,6.38-1.51-.62-3-1.89-4.74-1.43-7.59,3.66,6.42,12.29,10.07,8.42C129.62,78.63,129.32,74.45,130.08,70.68Z"/><path class="cls-5" d="M138.55,84c-.88-.93-2.09-9.63-3.51-6-1.33.31-1.61,1.77-1.76,2.95C124.38,82.35,140.55,93.14,138.55,84Z"/><path class="cls-5" d="M139.69,94.15c-.22-2-1.25-3.93-3.35-4.31-1.77-1.71-4.49-.58-5.69,1.27-.45.18-1,.38-1.12.92.41,3.06,5.38,2.32,7.59,3.56C138.46,96.69,140.3,96.06,139.69,94.15Z"/><path class="cls-5" d="M121.63,84a.64.64,0,0,0-.19-.74c-1.89-1.4-3.44.86-4.53,2.13-1.82,1.41-3.93-.41-5.88-.34a2.35,2.35,0,0,0-2.37,2.33c1,5,8.2,2.07,11.67,3.66C124.51,92.22,124.13,85.74,121.63,84Z"/><path class="cls-5" d="M108.68,77.72c0-4.22-7.24-7.38-8.62-2.4-.28,1.61.17,3.49-.31,5-1.22-.4-2.93-1.52-3.75.21-.78,4.27,6.57,7.29,10.09,7.32,1.57-1.56,2.59-7.38,2.15-9.65A.48.48,0,0,0,108.68,77.72Z"/><path class="cls-5" d="M94.34,66.24C90.61,58,83.4,62.38,85.57,70.66c-6.86-6.4-7.14,9.87,5.59,10,3.23-.2,1.61-5.22,1.5-7.13C92.15,70.88,94.37,68.74,94.34,66.24Z"/><path class="cls-5" d="M79.2,70.69c-1.7-2.65-5.31-1.75-6.64.76-.87,1.35-.37,3.14-1.25,4.45-5.21,2.86-3.34,7.4.45,10.64,4.13,2.6,2.75-3.29,3.37-5.54.36-3.46,3.79-6,3.63-9.48C79.14,71.44,79.45,71.08,79.2,70.69Z"/><path class="cls-5" d="M89,88.77c1.11-2.25,1.59-5.28-.76-6.93.14-.94-1.66-1.3-2.41-1.6-5-.79-5.6,5.5-4,8.85C77,91.87,85,95.48,87.57,94.87,89.37,93.51,87.78,90.62,89,88.77Z"/><path class="cls-5" d="M101.25,86.5c-3.28-2-8,1-8.61,4.63a8.81,8.81,0,0,1-1.18,3.44C91,96,91.25,99,93.33,98.65c2.25-2.77,2.47-7,6.68-8.45C101.63,89.8,102.92,87.56,101.25,86.5Z"/><path class="cls-5" d="M87.67,110.57c-.2-2.46-2-4.6-1.77-7.11,1.3-3-.36-5.54-2.08-7.94,1.22-1.61-6.21-4.46-6.52,2.33-.76,2.69,2,5.15.65,7.61a3.17,3.17,0,0,0-.56,2.19C77.61,110.58,88,115.49,87.67,110.57Z"/><path class="cls-5" d="M72.67,90.91c-1.64-2.8-5.34-2.63-5.76.92-.59,2.93-.9,4.07-3.89,4.89-2.48,2.94,5.66,9,8.06,6.49.37-2.14-.39-4.45.28-6.63C71.29,94.7,73.78,92.45,72.67,90.91Z"/><path class="cls-5" d="M102.61,112.55c-2.8-5.84-14.7-10.82-9.38.16C88.64,116.32,108.31,121.17,102.61,112.55Z"/><path class="cls-5" d="M69.38,105.29c-6.95-2.78-5.1,2.25-7.3,6.35-.57,2.58,3.59,6.4,5.9,6C68.94,117,72.54,102,69.38,105.29Z"/><path class="cls-5" d="M82.84,131.35c-.15-.76-.9-1.59-1.72-1.25-2.11-1.64-5.21-1.74-6.71.7C62.32,131.14,82.37,151.9,82.84,131.35Z"/><path class="cls-5" d="M85.54,116.32c-4.63-7.33-9.87-3.3-8.35,4.07-2.56,1.49-1.54,5,.78,6.21,5.34,3.06,9.85,4.34,8.27-3.8C85.43,121.26,88,115.24,85.54,116.32Z"/><path class="cls-5" d="M105.92,129.46c-1.48-2.77-.33-6.74-3.23-8.59-.36-1.66-3.16-1.5-4.43-.86-3.09,1.44-2.72,5.09-3.26,7.84-1,.78-2.92.35-3.16,2.1C91,136.66,106.92,136.5,105.92,129.46Z"/><path class="cls-5" d="M103.13,140.06c-1.85-6.06-7.85-7.1-12.13-2.7-2.54.81-4.92,1.65-3.14,4.81,2.37,3.94,14.67,4,14.79-1.67C102.91,140.54,103.2,140.37,103.13,140.06Z"/><path class="cls-5" d="M126.28,143.93c-.42-7.67-5.24-7.36-10.74-4.17-1.2.32-2.61.15-3,1.63C110.61,148.11,127,150.56,126.28,143.93Z"/><path class="cls-5" d="M121.21,132.7c-.9-2.07-5-3.78-7-3.9-5.24-3.61-7.52,1.54-3.74,5.34C113.05,136.27,121.17,137.58,121.21,132.7Z"/><path class="cls-5" d="M142.17,139.78a7.44,7.44,0,0,0-1.67-3.16c.53-2.72-2.46-5.1-4.91-3.27-1.7,1.22-3.62,1.44-5.59,1.84-1.95,1.55.44,3.37,1.74,4.31,1,1,1.52,2.31,2.43,3.37C136.79,146.34,143.23,144.47,142.17,139.78Z"/><path class="cls-5" d="M157.57,129.68c-2.16-2.3-6.09.1-8.65,0-1.79.24-2.84-1.58-4.51-1.49a7.79,7.79,0,0,0-4.43,3.69c-2.13-.06-.16,3.34,1.19,3.5,3.36,1.09,6.6-2,10-.94C155.4,137.19,160.37,134.43,157.57,129.68Z"/><path class="cls-5" d="M156.12,119.59c-1.67-3.53-2.93-1.39-3.9,1.12-1.13,3.13-4.94,4.5-5.81,7.77.5,2,4.07,2.61,5.15.74,1.53-3,4.73-5.15,4.37-8.91A.47.47,0,0,0,156.12,119.59Z"/><path class="cls-5" d="M165.84,117.29c-3.53-3.35-11.77-7.83-10.41.88.41,2.18.52,5.21,2.71,6.42,3.33,1.67,4-3.68,6.86-3.46C167.11,121.15,167.27,118.36,165.84,117.29Z"/><path class="cls-5" d="M160.32,125.91c-.45-.24-1.2-.49-1.53,0-1.12,1.6-3.48,6.26-.16,6.7,2.39.4,5,1.54,7.16-.13,1.12-.67,2.4-2.78.9-3.67"/><path class="cls-5" d="M186.07,122.22c-2.75-3.51-7.61-1.22-11.27-2.29a.68.68,0,0,0-.81.91c-3.34,6.32-1.39,8.75,5.45,7.06,1.27.06,2.37.45,3.54-.28C184.39,126.33,187.39,124.38,186.07,122.22Z"/><path class="cls-4" d="M143.83,97.79c-.05-2.21-2.28-3.39-2.64-5.46a4.48,4.48,0,0,0-1.74-4.11C133.66,78.64,135,66.69,134.12,56c.59-2.28,1.19-5.13.76-7.42,0-.8.78-2,0-2.59.74-8,5.56-16,4.25-24-.3-.75-1.6-.26-1.33.51.34,9.78-5.42,19.29-5.38,29.3-1.95-1.6-3.29-3.82-4.94-5.63a.89.89,0,0,0-.38-.48,2.6,2.6,0,0,0,.14-2.5c-1.53-3.34,1.18-7.27.36-10.35.16-1.07,3.89-4.93,1.07-4.31-3.08,2.73-8.4,16.08-2.52,17.52-.61,3.83,3.54,7,6.12,9.24a67.39,67.39,0,0,0,.18,12.78c-2.9-1-6.6-1-8-4.28-3.18-.73,2.92,6.66,4.14,7,.28.19.28.09.19.43-1.27,2.71-2.68,6.07-1.7,9.08,1.94,3.26,4.08-9.25,5.6-10.62a.9.9,0,0,0,.33.56c.91,6.21,1.66,12.86,4.69,18.42A17.12,17.12,0,0,1,129.38,84c-.86-1.35-1.51.16-.91,1.08,1,3.69,5,4.64,7.57,6.83,1.22,1.3,3.07,6.26,3.84,1.79.53,1.47,2.05,2.53,2.21,4.14C142.18,99,143.91,98.91,143.83,97.79Z"/><path class="cls-4" d="M191.15,121.87c-14.91-.86-21.29-.57-34.35-8.33a.69.69,0,1,0-1.14.79c3.51,4.82,9.66,6.73,15.16,8.15,1.05,2.25-.76,4.6-.07,6.92-2.78-.21-5.73-.37-8.22-1.76-3.91.86,6.57,4,7.76,3.4.11.88.49,2-.24,2.71-.55,1.45,1.73,1.19,1.94.05a6.12,6.12,0,0,0,0-3.15c1.09-.17.51-1.42.38-2.11-.17-2,1.06-3.93.32-5.88.73,0,1.63.29,2.28-.08C176.87,122.08,195.22,126.19,191.15,121.87Z"/><path class="cls-4" d="M116.24,41.9a8.06,8.06,0,0,0,3.19,4.38c-.18,1.92,2.58,1.61,1.53,4.52C120,52,118.54,62,121.5,58.16a16.73,16.73,0,0,1,2.64-9.95,1,1,0,0,0-.14-1.82c-13.45-4.45-4.32-14.74-7.41-20.32a.61.61,0,0,0-1,.65c.78,4.9-2.3,10.21.65,15A1.28,1.28,0,0,0,116.24,41.9Z"/><path class="cls-4" d="M124.67,82.38c-1.83-.26-3.7-1-5.53-1-1.14-.3-4.17-6-4.39-3,1.29,3.45,4.64,5,7.19,7.27a.69.69,0,0,0,0,.49c-1.81,1.35-.48,7.73,1.67,5.08C123.87,87.71,131.89,83,124.67,82.38Z"/><path class="cls-4" d="M106.7,71.77a21.27,21.27,0,0,1-7.43-6.45.81.81,0,0,0-1.39.83c1.87,4.5,5.52,7.34,9.75,9.42l.17.08c-3.17,6.75-.68,16.21,1.76,2.32C114,74.81,109.89,73.12,106.7,71.77Z"/><path class="cls-4" d="M112.93,72.67c0-4.7,2.09-8.91,4.76-12.64,1.77-.56,1.78-2.63-.24-1.7-4-1.59-8.21-3-11.1-6.56-4.88-.72,4.85,9.27,9,8.61-3.37,3.43-7.69,9.08-3,13.29C113.05,74.12,113.45,73.12,112.93,72.67Z"/><path class="cls-4" d="M104.83,49.52c.48.38,1.15-.31.75-.77-.85-1-.69-2.34-.53-3.52.19-2.6,2.45-4.9,1.56-7.55-.15-1.07-2.46-3.49-2.82-1.43C108.07,40.1,100.41,45.21,104.83,49.52Z"/><path class="cls-4" d="M88.41,55.85a12,12,0,0,0,2.77,6.48c1.39,2.56,1,5.31-.12,7.92-1,1.32-.13,8.54,1.92,5.52a28,28,0,0,1,2.53-9.86c.93.55,2.35-.88,1.17-1.57a11.15,11.15,0,0,1-6.05-5.91c-.82-.73-1.1-11.53-2.69-7.62C88.69,52.35,88.23,54.19,88.41,55.85Z"/><path class="cls-4" d="M107.42,88.17a8.87,8.87,0,0,1-7.77-3c-3.39-.45,2.53,4.06,3.64,4.13.91,1,2.86.27,4.13.4C108.42,89.69,108.44,88.14,107.42,88.17Z"/><path class="cls-4" d="M85,81.22a11.28,11.28,0,0,0,4,2c-.16,1.22-.74,2.32-.48,3.56,1.1,1.55,1.29-.83,1.73-1.53,2.15-3.68,3.79-6.13-2-4A13.15,13.15,0,0,1,82,75.8C79.59,75.34,84.05,80.87,85,81.22Z"/><path class="cls-4" d="M81.72,95.57c3.52,1.5,1.09,5.68,3.31,7.46,3,1.26,2.77-4.25,3-6.07-.4-1.91-4-3.3-5.55-2.54C79.65,91.14,79.12,93.3,81.72,95.57Z"/><path class="cls-4" d="M74.72,81.63c1.32-2.47.93-5.77,3.14-7.89,1,1.28,2.45-1,1-1.44-2.73-3.21,1-9.15-3.34-11.32-.75-.3-1.13.83-.42,1.17,2.55,2.05.14,6.09,1.32,8.85-.35,1.91-1.54,3.41-2.5,5.08C73.35,77.4,72.15,82.51,74.72,81.63Z"/><path class="cls-4" d="M69.49,87.07c.69,1.22.23,2.61.42,3.93.39,3,3.37,2.31,3.77-.31,2.11-2.9-1-3.91-3.2-5.1C66.86,79.77,66.63,83,69.49,87.07Z"/><path class="cls-4" d="M72,105.35c1.41-1.18-3.91-3-4.44-2.34-.53-.84-2-.34-1.33.62.67.66,1.46,1.25,2.08,2-.47,1.67-1.26,4.34,1.07,5.12,2-.08,1.76-3.38,2.15-4.89A5.1,5.1,0,0,1,72,105.35Zm-2.26,3.74h0Zm0,0Z"/><path class="cls-4" d="M86.29,113.35a17.64,17.64,0,0,1-2.2-.53c-2-2.43-3.48-1.24-1.1,1.08.71,1.6,0,3.77,1.31,5.09,2,1.61,3.36-1.18,3.74-2.88C89,114.44,88.21,113.22,86.29,113.35Z"/><path class="cls-4" d="M84,128.7c-1.56.45-3.6-.61-4.92.19-2.51-.87-4.23-2.95-6.38-4.48-3.31.37,6,7.2,7.82,6.46h.17c-1,1.22-1.35,7.27,1.15,4.73C81.75,133.91,86.23,128.87,84,128.7Z"/><path class="cls-4" d="M105.3,133.43c-2.08.33-4.54.23-6.37,1.23-7.37-2.89-3.86.78.64,1.68,3,.54,1.34,2.23,2.24,4-1.58,3.82,2.42,5.37,2.36.77C105,140.39,106.77,133.54,105.3,133.43Zm-2.13,1.64h0Z"/><path class="cls-4" d="M105.56,118.06a1.88,1.88,0,0,0-.77-.14c-3.84-4.41-8.65-8.86-10.57-14.89,1.57-.48-2.34-5.36-3.12-3.92-5.59-7.41-1.3,3.42,2.22,3.94a27.09,27.09,0,0,0,9.48,15c-1.81.36-4-.63-5.63,0-11.44-8.47-4.3.26,1.35,2.54,1.9,1.21,5,.09,4.11,3.15-.07,1.23,1.67,2.8,2.34,1.18C105.32,122.88,107.72,119.55,105.56,118.06Z"/><path class="cls-4" d="M126.55,141.82a.63.63,0,0,0-.65,0,5.83,5.83,0,0,1-1.62-2.92c.82-1.35,1.43-3.53.16-4.64-1.15-.93-3.71-2.32-5-1.19-7.57-5.88-4.45-.88.11,1.8-2.55.73.76,2,1.45,2.85.57.67.93,1.8,1.94,1.87.43,1.55,1.31,3.55,3,4A1,1,0,0,0,126.55,141.82Z"/><path class="cls-4" d="M157.55,130.31c.22-1.54-2.21-1.78-2.57-.41a9.08,9.08,0,0,1-4.36-.44c-2.82,1,3.21,2.55,4.25,2.11a2.65,2.65,0,0,0,.44,1c.52,1.23-1.56,7,1.1,5.28C157.41,135.42,156.61,132.72,157.55,130.31Z"/><path class="cls-4" d="M151.25,121.37a4.77,4.77,0,0,0,1.37-2.11c1.62-1.13,3.24-5.59-.36-3.63-.79-.87-3.48-.36-3.21,1l-.14.08c-5.19-1.46-5.1-7.06-4.86-11.42,0-.41-.7-.54-.83-.13-2,5.08,0,13.15,6.38,13.28a6.14,6.14,0,0,0,1.27.79,3.6,3.6,0,0,1-.79,1C149.3,120.94,150.47,122.07,151.25,121.37Z"/><path class="cls-4" d="M148.48,106.66c.45,1.49,7.05,9,6.63,4.46C152.7,110.77,144.42,97.71,148.48,106.66Z"/><path class="cls-4" d="M143.87,13.1c-2.2-1.29-5.81-2-7.87-.19C107.94,23.1,86.53,46.39,67.61,68.54c-6.88.62-1.84,13-1.34,7.27,1-4,2.77-8.07,6-10.83,1.08.09,1.49-1.63,2.61-1.83,1-.66,2.35-.06,3.12-.82A.6.6,0,0,0,79,62c.83-4.76,5-11.18,10.39-10.4a.82.82,0,0,0,1-1.26c2.46-5.83,8.21-16.65,15.86-12.23.87.69,2-.57,1.22-1.25,2.42-1.81,6.79-9.56,9.68-8.53a.47.47,0,0,0,.09.66c.62,1.31,2-.25,1.45-1.18,2.72-4.18,12.59-7.77,10.78.56a.7.7,0,0,0,1.16.54c1.3-3,4.28-5.12,7.43-6.14,1-.38,1.54.65,2.44.83a.88.88,0,0,0,.76-1.19C143,19.82,147.26,16,143.87,13.1Z"/><path class="cls-5" d="M73.65,51c-5.34,0-8.88,15.2-3.85,11.7.63-3.83,1.42-7.82,4.63-10.37C75.12,51.76,74.34,50.83,73.65,51Z"/><path class="cls-4" d="M195.05,56c-3.13,6.18-11.7,5.6-17,2.81a.5.5,0,0,0-.64.36c-4.9-2.23,2.81,4.6,6.69,3.91,4.56,0,10.72-1.72,12.38-6.47A.78.78,0,0,0,195.05,56Z"/><path class="cls-5" d="M89,39.8c-2,.79-3.53,2.5-5.68,2.86.22-1.56,1.53-2.76,1.87-4.16a.8.8,0,0,0-.24-.93c.9-.28,2.18-1.71.52-1.86-4.67.62-9.25,9.87-2.49,10.64,2.62,1.41,6-2.83,6.68-5.18A.76.76,0,0,0,89,39.8Z"/><path class="cls-5" d="M103,30c-.55-1.86-2.65-1.69-4.16-2-1.32-1.25-2.81.24-3.47,1.55-2.38,1.34.94,4.27,2.61,4.62C99.92,34.3,103.44,32.17,103,30Zm-1.56.59v0h0Zm-.08.15c0-.06.06-.11.08-.17s0,.1,0,.05A.28.28,0,0,1,101.37,30.69Z"/><path class="cls-5" d="M131.11,10.65c-7.72-7.53-21.65-3.14-28.71,3.45-2.18,2.07-5,4-6,6.9C95.28,23,97.46,25,98.93,23c4.12-6.31,11.91-12.68,19.83-11.77a1.71,1.71,0,0,0,.6,2.78c1.14.55.79,2.2,2,2.65C123.49,17.06,134.05,13.86,131.11,10.65Zm-9.51-.45-.16-.11.17,0S121.6,10.17,121.6,10.2Z"/><path class="cls-5" d="M72.15,141.18a.78.78,0,0,0-.22,0,1.39,1.39,0,0,0-2.48-.14.76.76,0,0,0-1.44.09c-1.13,1.47.89,8.17,2.69,5.35a.84.84,0,0,0,.47-.2c-.19,1,1.28,1.46,1.42.34C72.29,145.05,73.73,142.06,72.15,141.18Z"/><path class="cls-5" d="M82.89,147c-.14-1.15.07-4.06-1.84-3.14a1.5,1.5,0,0,0-2.34-.27c-2.2-1.36-4.39,5.6-1.19,4.92,1.53.22,1-2,1.56-2.87a2.41,2.41,0,0,1,.61-.82c-.1,1.26-.21,5.14,1.92,3.66C82.5,150.29,84.31,147.76,82.89,147Zm-3.22-2.46v0S79.64,144.56,79.67,144.57Z"/><path class="cls-5" d="M93.28,148.08A.78.78,0,0,0,92,148a.74.74,0,0,0-1.23-.55.76.76,0,0,0-1.17-.12c-2.29-.9-2.61,4.73.09,3.76a1.17,1.17,0,0,0,1.24.27.76.76,0,0,0,.9.12C93.58,153,94,149.15,93.28,148.08Z"/><path class="cls-5" d="M104,149.13a.73.73,0,0,0-1-.49.68.68,0,0,0-.52-.31,2.44,2.44,0,0,0-2.56-.36c-2.5.72-1.63,7.67,1.2,5.7a1.39,1.39,0,0,0,1.24-.76.79.79,0,0,0,1.07-.79C105.06,152.31,104.21,150,104,149.13Z"/><path class="cls-5" d="M114.81,149.25a.8.8,0,0,0-.91-.79.78.78,0,0,0-1.08.28.81.81,0,0,0-1.23.3c-2.71-.95-1.67,6.51.83,3.67a1.7,1.7,0,0,0,1.59-.26C115.51,152.34,114.8,150.24,114.81,149.25Z"/><path class="cls-5" d="M122.19,151.33c0-1.41-2.21-1.2-3-.58-.82,1.68,1.35,1.48,2.4,1.32h0A.75.75,0,0,0,122.19,151.33Z"/><path class="cls-5" d="M29.78,51.14c-1.53-1.06-9.22-6.7-6.5-1.14-.93,1,.2,2.63.06,3.83,1.07.83,1.52-2.11,1.16-2.83a2.14,2.14,0,0,0,.63-1.58C26,49.56,30.23,53,29.78,51.14Zm-6.11-2.26v0S23.64,48.87,23.67,48.88Zm.62,2.28c-.05.05-.1.07,0,0Z"/><path class="cls-5" d="M64.11,83.59c-.54-10.13-34.59-32.71-22.8-22.69C45.54,66,57.74,74.55,56,81.56a2.52,2.52,0,0,0-2.08,2.58c-.31,2.31,2.88,3.83,2.12,6C52.54,90.92,48.6,89.3,45,89c-5.87-1.39-12.88-1.41-17.57-5.6A21.34,21.34,0,0,1,25.08,60c.6-1.47.55-3.05-1.1-3.76-8.45-.68-7.66,15.49-6.38,21.09-1.66,3.57,5.23,13.11,8.62,15.34C31.93,96.16,40,98,46.51,97c1.23.62,12,3.51,7.46.06a4.94,4.94,0,0,1,3.69-2.52c1.26-.52,1.31-2.37,3.08-1.71,1.89-.34,1.25-3.76,2.38-5.17A7.48,7.48,0,0,0,64.11,83.59Z"/><path class="cls-5" d="M66.82,126.37c-.39-1.61,3.42-6.68,1.89-7.2-2.9-1-8.61-8-8.79-9.9-.4-4.19,1.64-1.44-1.06-4.49-2.37-2.67-4.42-3.11-8.11-2.59-1.58-.49-3.57-1-5.08-.39-1.61.9-2.26,3-4.25,3.37-.67.24-.25,1.12.34,1.09a24.07,24.07,0,0,1,11.07,2.1c4.94,2.44-1.43,4.18-2.91,6.17.3,2.13,5.81,1.49,7.65,1.48.94-.12,1,1.2.25,1.55-10.77,7.17-24.62,5.67-36.8,4.08.78-1.55-.11-2.93-1.14-4.07-1.76-6.63,3.55-14,8-18.56.38-5.06-10.45,8.55-9.84,10.67.59,17.25-6.29,10.61-7.42,22.34.12,5,3.89,3.17,3-1a29.18,29.18,0,0,1,5.45-6.17c.75,1.29,5,2.1,3.66,3.81-3.16,2.18-5.44,2.57-.56,4.94,2.37,1.52-2.74.73-3.55.59-1.06-.12-2.87.2-2.44,1.71,2.95,4.43,9.83,4.37,14.64,5,8.4.55,16.74-1,24.88-2.93C62.22,136.55,70.71,135.32,66.82,126.37Z"/><path class="cls-6" d="M185.61,59.34c-13.66-.07-13.66-20.82,0-20.89S199.27,59.27,185.61,59.34Zm0-19.31c-11.59.06-11.59,17.67,0,17.73S197.2,40.09,185.61,40Z"/><path class="cls-5" d="M128.52,96.2C117.4,90.46,90.07,87,102.4,107.54c3.71,6.53,13.44,5.47,8.7-2.34a1.37,1.37,0,0,1-.08-1.49c1.47-2.65-.89-2.58-.62-4C112.52,97.23,130.51,100.07,128.52,96.2Z"/><path class="cls-5" d="M139.53,111.15c-1.58-2.39-5.17,0-7.26.57-5,2.33-18.25,4-21.59,4.75.12,2.82,3.15,1.65,3.09,6.57.38,5,10.33,5.34,13.51,3.23,2.31-1.28,2.09-4.24,3.74-5.92.76-1.73-3-.73-3.94-1C130.13,115.09,138.38,116.54,139.53,111.15Z"/><path class="cls-4" d="M69.91,135c-3.12-4.63-3.16-10.29-1-15.3a.74.74,0,0,0-.26-1c-3.6-1.56-6.95-3.66-8.63-7.34-1-4.32-.66-9.37,1.56-13.23-.51-4.62-.73-9.65,1.39-14.06.7-2.14,3.38-3.42,2.63-5.89-.31-.89.16-3.17-1.2-3a.61.61,0,0,1,0-.12c1,.4,1.79-1,.7-1.4a18.72,18.72,0,0,1-5.79-3.21c-4-.33,4.72,5,3.32,9.34-4.2,6-3.11,13.27-3.81,20-1.33,1.47-3.07,2.63-5,1.87a.72.72,0,0,0-.42,1.38A6.25,6.25,0,0,1,58,107.38c.05,1.48,0,3.53,1,4.71a11.69,11.69,0,0,0,3.68,5.52c1.5,5.35-9.14,2.51-5.55,5.18,4.43,0,9.39,2,7.24,7.28-.42.5-1.17.5-1.61.92a.76.76,0,0,0-.57,1.27c1,1.32-.39,2.84-1.45,3.54-1.46,2.24,2.38,1.17,3.62.37.46.68.5,1.58,1,2.19.71.78,2.24.34,2.08-.82C68.57,137.41,70.28,136.22,69.91,135Zm-6.51.15,0,0h-.05Zm2.77,1.31-.06-.15.14.09Z"/><path class="cls-5" d="M148,117.48c-5.74,4.62-13.64,6.25-16.83,13.3a.59.59,0,0,0-.57.91c.68,1.14,2.07.73,3.06.27C136.09,131.28,156.71,118.11,148,117.48Z"/><path class="cls-5" d="M155.12,111.22c-.1-3-9.52-4.11-6.17-.08-2.45,1-.17,3.09,1.6,2.89C152.15,114.43,156.76,113.42,155.12,111.22Zm-5.94,1.1c-.06,0,0,0,0,0Z"/><path class="cls-5" d="M222.8,86.13c-1.4-3.36-4.88-.13-5.56,2.11-2.28,1.76-5.94,5-8.77,4.56-.44-4.17-5-5.27-8.6-4.65-3.32,1-5.51,4.23-9.09,4.83-5.05,1.12-11.91-1.23-14.64,4.7-2.16-.65-7.58-.75-5.19,2.8.79,1.69,1.65,3.27,2.45,4.93-26.16-8.18-37-52.21-29-75.95.73,1,1.18,10.44,2.65,7.59.28-4.79-1.4-16.32,5.89-15.63,7.15,1.41,7.5-1.14,13-1.67,2.81,1,4.9-1.09,7.38-1.95,3.22-2.14,22.24,7.24,20.63,3.28-12.81-8.21-31.26-10.79-46-7-10.86,3.2-11.4,32.79-10.9,42.62,2,27.92,15,43.61,33.78,61.88C192.35,125.13,226.33,112.65,222.8,86.13Z"/><path class="cls-5" d="M192.62,44.69c-1.25-.93-3.31-2.32-3,1.77-2.05,1.85-4,8-8.72,4.63-.33.06-.61.18-.37,1C183.48,60.68,197.72,52.87,192.62,44.69Z"/><path class="cls-5" d="M231.19,52c-4.92.89-10.64,1.86-12.66,7.15-.57,1.12-1.64,3.27.23,3.8,2-.74,3.46-3.13,5.67-3.9,3.18-2,8.3-1.27,10.26-4.88C235.51,52,232.62,51.75,231.19,52Z"/><path class="cls-5" d="M233.62,65.28c-6.74-4.91-14,4.39-21.05,3.68-4.35-1.55-3.61,2.35.45,2.58C216.25,72.23,233.91,69.17,233.62,65.28Z"/><path class="cls-6" d="M175.58,40.34c-5.6,5.43-4.61,17,3.09,20a.6.6,0,0,0,.55-1c-8.08-5.73-6-12-3.64-19Z"/><path class="cls-6" d="M178.77,38.18a12.63,12.63,0,0,1,16,2.4c5.34-.1-8.43-7.18-11.87-4.87C182,35.85,177.78,37.55,178.77,38.18Z"/><path class="cls-6" d="M198.07,48.6a13,13,0,0,1-2.63,8c.22,2.24,2.85-3.05,2.87-3.8.35-.69,1.11-5.43-.24-4.16Z"/><path class="cls-6" d="M214.09,54.48c1-1.95,13.93-7,10.76-8.12-7.36,1.14-17.35,12.22-18.74,17.28a.29.29,0,0,0,.52.27S210.25,57.46,214.09,54.48Z"/><path class="cls-6" d="M232.89,56.2c-1.42-.79-14.53,3.82-10.55,4.91,1.38-1.69,12.1-3.81,10.55-4.91Z"/><path class="cls-6" d="M230.53,71c2.61-2.69-8.18.85-9.51.3a54.38,54.38,0,0,1-8.56-.21C209.85,72.52,222.2,73.25,230.53,71Z"/><path class="cls-6" d="M192.73,119.69c-18.64,2.47-36.54-7.42-46.37-23.18-16.14-21.72-10.64-49.51-5.08-74,.18-.88-1.09-1.32-1.36-.43a142.47,142.47,0,0,0-5.55,28.64c-2.62,25.18,6,55.19,29.77,67.44A47,47,0,0,0,180,122.26C181.56,122.54,197,122.26,192.73,119.69Z"/><path class="cls-6" d="M155.9,112.48c-3.78,8.92-11.22,15.57-19.71,20-4.13,2.74-7.88,1.35-10.73-1.18-4.88-.62-12.4-2.57-14.5-10C105.6,115.14,91,102.94,98.11,93.12c13-7.24,33.83,2.39,47,6.67.42.13-.29-1.47-.75-1.76-12.08-5.81-37.48-13.16-49.82-7-7.13,10.69,7.09,25,14.5,30.71,1,7.49,11,14.74,16.33,11,6.16,11.48,22.92-5.42,27.51-11.74C153.72,119.9,159.32,111.94,155.9,112.48Z"/><path class="cls-6" d="M133.78,12.88C106.3,23,84.22,45.13,67,68.18a.62.62,0,0,0,1,.7A301.71,301.71,0,0,1,89.44,45c10.6-10.5,22.31-20.06,35.66-26.85,1.09-1.06,11.9-4.14,8.68-5.25Z"/><path class="cls-6" d="M137.3,11.92c-4.94-7-16.08-7.27-23.85-6.5A26,26,0,0,0,92,23.58C84,28.33,76.58,36.26,76.07,46,68.22,50.56,64.61,59.86,66,68.67c.09.71,1.21.62,1.25-.08-.58-8.74,2.46-16.73,9.79-21.84,1.28-10,8.09-17.44,16.51-22.59a26.24,26.24,0,0,1,12-14C113.7,5.9,128.17,4,133.65,13.22,134,13.74,137.65,12.52,137.3,11.92Z"/><path class="cls-6" d="M26.77,46.39c13.1,8.22,26.54,16.25,37.35,27.47.42.41,1.13-.3.73-.74C56.47,64.18,46.13,57.3,35.77,50.89c-1.24-.41-9.83-6.82-9-4.5Z"/><path class="cls-6" d="M20.73,88.11c0,.28.47.31.36,0s-.47-.31-.36,0Z"/><path class="cls-6" d="M21.13,88.93c.09.17.17.49.42.37.41-.31-.53-1.09-.42-.37Z"/><path class="cls-6" d="M64.08,135.85c-12.62,5.77-33.07,8.62-45.51,3.25-5.08-1.92-12.09-3.89-9.1-10.49a17.19,17.19,0,0,1,5.51-8c1.39-12.8-.75-14.41,9.86-23.42,5.08-2-12.37-19.12-8-32.71,3.31-9,7.12-7,3.46-17-2.32-3.75-1.19-3.9,2.58-2.92,2.25-1.11-3.63-2.43-4.48-2-3.19,1.21,1.39,8.08.8,11C9,65.74,17.67,82.67,24,95.15A25,25,0,0,0,12.8,119.31c-3.94,5.52-7.31,10.67-6,17.15.83,1.67,9.71,5.43,17.48,6.47,13.67,2.26,27.64-.54,40.09-6.34A.4.4,0,0,0,64.08,135.85Z"/><path class="cls-6" d="M133.39,14.15c1.2-.82,7.12-.79,6.34-2.46C138.93,10.73,130.75,13.08,133.39,14.15Z"/><path class="cls-6" d="M146.16,11.08c6-.9,12-1.21,18.05-1.72a.29.29,0,0,0,0-.57C162.14,8.73,144.44,9.21,146.16,11.08Z"/><path class="cls-6" d="M228.18,79.71a50.69,50.69,0,0,1-16.58,33.07c-.31.3.17.84.51.57a48.55,48.55,0,0,0,17.24-33.53.59.59,0,0,0-1.17-.11Z"/><path class="cls-6" d="M208.63,114.7c-1.08,1.64-15.94,10.15-13.11,10.31,1.47-.73,16.06-9.85,13.11-10.31Z"/><path class="cls-6" d="M187.13,128.65c-15.25,7.4-31.77,11.44-47.61,17.27-2,3.42,17.62-5,19.74-5.18,9.61-3.27,19.49-6.18,28.32-11.3.44-.27,0-1-.45-.79Z"/><path class="cls-6" d="M144.45,102.58c-2.5,5.35-1.26,14.68,6.29,14.1,2-.32,5.52-1.35,5.61-3.69-.45-1.34-1.78-.22-2.38.24-2.3,1.8-5.7,2.19-7.74-.22-3.28-2.14.51-12.39-1.78-10.43Z"/><path class="cls-6" d="M123.91,104.86a63.59,63.59,0,0,0,16.81-.65c.34-.06.34-.6,0-.56C138.62,104.55,122.09,103.07,123.91,104.86Z"/><path class="cls-6" d="M114.75,117.36A66.73,66.73,0,0,0,140,109.21c1.35-2.88-11.07,4.19-12.79,4.08C125.81,114.36,112.55,116.08,114.75,117.36Z"/><path class="cls-6" d="M130.33,128.15c1.69-.67,16.14-12.07,12.34-12.34A133.73,133.73,0,0,1,130,127.71c-.26.22.1.6.37.44Z"/><path class="cls-6" d="M133.5,119.27c1.16-.62,7.81-3.25,6.54-4.34C139.29,115.52,131.36,118.83,133.5,119.27Z"/><path class="cls-6" d="M113.71,16.06c1.7-.34,7.3,3.94,7.25,2.5C120.71,17.26,112.72,14.09,113.71,16.06Z"/><path class="cls-6" d="M96.84,25.11c2.7,1.42,5.94,2.39,7.82,4.93.23.3.85.15.75-.28C105.68,28.06,96,22.71,96.84,25.11Z"/><path class="cls-6" d="M88.56,35.53c1.4-.12,8.15,4.95,7.12,1.95C95,36.57,87.73,33.25,88.56,35.53Z"/><path class="cls-6" d="M79,48.07c1.23.76,2.46,1.52,3.65,2.35,1,1.35,2.14-.55.59-1.26-.75-.34-5-3.28-4.24-1.09Z"/><path class="cls-6" d="M71.75,58.6l.07,0a12.14,12.14,0,0,1,1.35.92c.51,1,2.27.5,1.36-.53l.25.66C75.3,58.36,70.08,56.39,71.75,58.6Z"/><path class="cls-6" d="M74.71,142c-.52,1.16-1.75,2.81-1.06,4a.69.69,0,0,0,1.12-.4c0-.31-.18.33-.19.34.51-.92.49-2.12,1.08-3,.58-.49-.21-1.8-1-.93Z"/><path class="cls-6" d="M85.56,144.88c-.72.89-1.25,4.42.69,3,.09-.69,1-4.6-.69-3Z"/><path class="cls-6" d="M95.37,146.6c0,1.1-1.2,3,0,3.64,1.46-.15.89-2.51,1.3-3.56a.66.66,0,0,0-1.31-.08Z"/><path class="cls-6" d="M107.64,147.93a8.07,8.07,0,0,0-.13,2.81c1.9,2.18,1.92-5.77.13-2.81Z"/><path class="cls-6" d="M117.11,148.62c-.21.87-1,3.64.76,2.94.62-.48.79-4.61-.76-2.94Z"/><path class="cls-6" d="M27.59,58C36,64.32,45.44,69.61,52.3,77.75c.77.65,3.34,5.51,3.71,2.85-6.4-9.66-19.2-18.75-28.42-22.6Z"/><path class="cls-6" d="M32.41,75.76C40,80.6,48.19,84.73,55,90.68c6.41.44-24.29-18-22.55-14.92Z"/><path class="cls-6" d="M31.44,98c7.6,2,15.26,3.8,22.88,5.72.54.13.79-.78.26-1C47.4,101.18,37.72,97.53,31.44,98Z"/><path class="cls-6" d="M28.76,110.84c3.17.94,24.07,2.7,23.73-.48a127.36,127.36,0,0,1-23.59-.31A.4.4,0,0,0,28.76,110.84Z"/><path class="cls-6" d="M22.18,120.33c2.41,2.35,39.57-.16,34.56-3.47C46.11,120.65,31.49,119.93,22.18,120.33Z"/><path class="cls-6" d="M28.45,134.27c4.17,1.14,34.38.07,33.66-3.84-11.06,2.25-22.28,3.78-33.61,3.2A.33.33,0,0,0,28.45,134.27Z"/><path class="cls-6" d="M127.06,45.18c-9.35.16-10.66-8.83-8.34-16.06-2.17-4.19-3.3,10.12-2.2,11.41.14,5.76,14.54,8.26,10.54,4.65Z"/><path class="cls-6" d="M126.54,45c-10,8.76-6.49,23.43,7.51,23.73.88-.13.68-1.64-.22-1.57-12.32-.68-14.69-13.12-6.18-20.83.75-.63-.34-2-1.11-1.33Z"/><path class="cls-6" d="M133.27,67.3c-7.8,9.19-6.41,20.39,6.65,22.6a.88.88,0,0,0,.4-1.72c-21.49-4.64-1.69-22-7-20.88Z"/><path class="cls-6" d="M139.35,88.59c-1.19,1.11-2,10.57.82,7.22.31-2.15-.34-4.45.72-6.46.53-1-1-1.64-1.54-.76Z"/><path class="cls-6" d="M108.17,35.55c-8.14,11.66-1,23.14,12.76,23.14a.8.8,0,0,0,.19-1.45c-13-2-18.3-8.43-11.83-21a.67.67,0,0,0-1.12-.73Z"/><path class="cls-6" d="M120,57.33c-4.09,4.8-9.62,11.9-6.4,18.4,2.88,5.45,9.53,9.13,15.67,8.39a.83.83,0,0,0,0-1.58c-16.73-1.27-18.43-12.78-8.14-24.3.51-.64-.54-1.49-1.11-.91Z"/><path class="cls-6" d="M128.73,82.53c-2.33.19-9.14,12.54-4.23,9.26a15.62,15.62,0,0,1,5.11-8.07c.63-.54-.16-1.65-.88-1.19Z"/><path class="cls-6" d="M114.2,74.51c-14-6-18.72-11.21-7.79-24.25.33-.73-.47-1.7-1.23-1.15-12.11,12.26-6.83,22.2,8.42,26.72.76.31,1.31-.92.6-1.32Z"/><path class="cls-6" d="M112,73.42c-8.61,9.19-3.43,21.32-2.38,15.54-4.23-5.14,7-17.32,2.38-15.54Z"/><path class="cls-6" d="M99.09,62.14c-12.6,10.06-6.9,26.21,9,26.64a.86.86,0,0,0,0-1.71c-14.73-.94-18.81-14.17-8-23.88a.72.72,0,0,0-1-1Z"/><path class="cls-6" d="M98.51,63.65c-6.34-.68-7.71-7.5-8-12.82-4.49-3.62.24,18,8,12.82Z"/><path class="cls-6" d="M93.53,79.84c-9.88,1.51-15.7-8.35-14.29-17.19-3.92-4.54-1.12,12.92,1.55,14,2.12,5,16.44,6.41,12.74,3.15Z"/><path class="cls-6" d="M92.65,79.83c-5.52,6.79-8.16,18,1.89,22,1.07.57,1.89-1.1.84-1.69C80.7,94,97.81,78.58,92.65,79.83Z"/><path class="cls-6" d="M87.77,94.7c-6.6,14.17,3.17,26.18,18.12,23.66.74-.29.75-1.48-.17-1.48C91.66,118.19,83.54,108.54,89,95.12a.64.64,0,0,0-1.21-.42Z"/><path class="cls-6" d="M88,94.58c-13.12-3-15.1-9.93-8.23-21a.9.9,0,0,0-1.45-1c-4.4,5.7-7.42,16.94,1,20.59,1.13.79,11.25,5,8.73,1.4Z"/><path class="cls-6" d="M74.47,87.52c-9.8,12.33.26,28.54,15.52,26.37,1-.26.63-1.64-.29-1.7-13.82,1.53-22.51-12.61-13.91-23.88.58-.82-.73-1.55-1.32-.79Z"/><path class="cls-6" d="M106,117.78c-2.66,6-2.79,14.58,4.23,17.44,5,2.2,12.92,2.62,16.24-2.48.27-.66-.57-1.17-1.11-.88-5.48,5.17-17.52,3.83-19.23-4.37-1.23-1.51,2.69-12.21-.13-9.71Z"/><path class="cls-6" d="M88.9,112.81c-10.19,11.66,1.67,27.17,15.74,21.31,1.2-.15,4.16-2,1.89-2.89a.77.77,0,0,0-.21,1.53l-.57-.75c-12.36,5.82-25.25-5.43-15.82-18.32.5-.59-.49-1.42-1-.88Z"/><path class="cls-6" d="M71.65,104c-7.3,12.25-1.79,27,13.83,25.66,1-.06,1-1.61,0-1.58-15.3.7-18.35-11.63-12.67-23.66a.62.62,0,0,0-1.16-.42Z"/><path class="cls-6" d="M86.39,127.78c-4.83,1.74-8,15.38-4.31,11.76-.66-7.14,7.63-12.06,4.31-11.76Z"/><path class="cls-6" d="M106.32,132.41c-1.85,1.67-4.78,10.23-.8,10.12a.82.82,0,0,0,.2-1.05,6.88,6.88,0,0,1,0-4.14c-.2-1.25,3.6-6.09.64-4.93Z"/><path class="cls-6" d="M125.62,132.4c-2.49,3.87-1.49,10.66,3.15,12.37.51.13.72-.54.49-.88-6.82-5.87-.3-13.22-3.64-11.49Z"/><path class="cls-6" d="M134.89,52.08c-9.46-4.39-7.77-16.16-3.43-23.71-1.69-4.51-6.87,12.37-5.09,14.59-.08,6.09,10.08,13,8.52,9.12Z"/><path class="cls-6" d="M154.77,116.29c-1.81,14.23,21.55,15.53,16.84,11.87-7.61.54-15.63-3.45-15.73-11.91-.07-.61-1.11-.6-1.11,0Z"/><path class="cls-6" d="M158.72,125.84c-2.89,2.9-8.66,4.66-12.16,2-.82-.78-1.92.44-1.18,1.25,1.86,2,4.92,2.19,7.47,1.71a9.8,9.8,0,0,0,6.89-4.22c.45-.68-.5-1.29-1-.7Z"/><path class="cls-6" d="M158.35,126.15c-1.08,2.94-3.78,8.43-.71,10.71.49.1,1.06-.35.83-.86l.07.08c-2-1.9,2.88-12-.19-9.93Z"/><path class="cls-6" d="M138.63,131.54c-1.17,6,8.29,12.66,7.85,8.45-7.15-1.13-6.16-11.25-7.85-8.45Z"/><path class="cls-6" d="M173.88,119.27c-1.33,1-3.76,14.26-.77,11.65.13-1.87-.16-3.8.23-5.67-.25-1.16,2.88-7,.54-6Z"/><path class="cls-7" d="M181.25,38.92c3.71-1.75,7.63-.19,10.9,1.65,2.54-1.28-4-3.44-5.17-3.51C186,36.47,179.32,37.78,181.25,38.92Z"/><path class="cls-7" d="M174.21,48.33c-2.81,11.58,15.71,17.91,21,7.37.15-.4-.32-.85-.7-.55-6.3,8-20.16,3.83-19.46-6.79,0-.5-.69-.42-.81,0Z"/><path class="cls-7" d="M181.59,55.85c6.27,4.48,15.48-3.12,11.77-8.79a8.23,8.23,0,0,1-11.46,8.15.36.36,0,0,0-.31.64Z"/><path class="cls-7" d="M182.77,42.38c1.06-.57,2.28-.09,3.33-.4C187.23,40,180.1,41.59,182.77,42.38Z"/><path class="cls-7" d="M232.42,47.89a5.17,5.17,0,0,1,1.4,1.61c.14.92,1.25,1.29.86.07,0-.67-2.49-3.08-2.26-1.68Z"/><path class="cls-7" d="M234.07,52.53c-.11.08-.23.15-.35.22a5,5,0,0,1-.66.26,2,2,0,0,1-.42.07c-.39-.28-1.59.48-.59,1.09.84.67,3.9-1.64,2-1.64Z"/><path class="cls-7" d="M235.06,63.07c-1.08,5.8-8.84,4.53-13.2,5.94-1.91,2.28,8.73-.28,9.88-.59,2.3.18,5.94-7.08,3.32-5.35Z"/><path class="cls-7" d="M224.6,44.73c-8.81-12.88-23.22-27.87-37.39-31.62C198.29,18,207.84,26,216,34.84c.69,5.28-2.71,4.28,2.59,6.75.61,1.06,1.93,2.71,3.33,3C221.45,46.31,225.05,46.25,224.6,44.73Z"/><path class="cls-7" d="M227.57,74.19h0a.72.72,0,0,0-1.12-.43,1.08,1.08,0,0,0-1,0,.56.56,0,0,0-.39-.06c-.81-.17-2.38,4.8.14,4.16a1.28,1.28,0,0,0,.54,1.19,1.45,1.45,0,0,0,.07,1c-1.17,12.32-6.09,24.24-16.06,32-.54.67-4.57,3.27-3.26,3.51C220.59,106.67,227.72,90.4,227.57,74.19Z"/><path class="cls-7" d="M170.63,134.85c8-2.08,15.41-5.82,22.55-9.84.85-.65,7.52-4.07,5.85-4.58-9.16,5.32-18.48,10.54-28.63,13.75C170,134.32,170.2,135,170.63,134.85Z"/><path class="cls-7" d="M179,116.85c-37.4-13.68-48-54.44-37.77-87.77.13-.52-.66-.63-.81-.14-4.21,11.07-5.86,32.83-3.11,46.44C143.27,97.76,155.56,112,170,115.5c1.47.44,3.2,1,4.71.62C175.5,116.26,179.94,118.7,179,116.85Z"/><path class="cls-7" d="M118.62,93.28c-4.86-.54-10.19-2-15-1.22-8.26,3.18-4.84,12.89-.11,17.71,2.53,1.31-.31-3.16-.81-3.87-3.65-4-3.28-11,2.63-12.47,1.67-.88,15,2.49,13.3-.15Z"/><path class="cls-7" d="M132.72,102.09c2.81.44,5.67.09,8.47.47.23,0,.23-.33,0-.36C139.91,102.18,131.82,100.18,132.72,102.09Z"/><path class="cls-7" d="M119.46,112.9c1.19,1.17,17.88-3.59,15.2-4.62C133.09,109.17,117,111.54,119.46,112.9Z"/><path class="cls-7" d="M141.93,114.74c-.82,2.36-14,10-10.86,10.17,1.53-.09,14.4-10.2,10.86-10.17Z"/><path class="cls-7" d="M119.36,127.54c2.13,2.72,6.18,1.38,8,4.09,9.16,4.78,18.93-5.47,23.56-12.64.3-.47-.33-1-.7-.56-4.72,6-14.24,16.26-22.41,11.5-.82-1.26-2.19-1.16-3.51-1.12-1.09.45-5.48-2.73-5-1.27Z"/><path class="cls-7" d="M112.11,9.46c5.63-2,12.42-2,17.17,2,.41.26.95-.16.64-.61-1.69-2.43-5.32-3.46-8.11-3.73C120.48,6.64,110,7.85,112.11,9.46Z"/><path class="cls-7" d="M107.89,10.15c-2.11-.73-13.76,9.35-10.12,9.24,3-3.34,5.83-7.25,10.34-8.58.44-.14.2-.76-.22-.66Z"/><path class="cls-7" d="M92.63,27c-5.87,2.74-11.9,7.74-13.78,14.14-.14.65.89.85,1.12.26,2.32-6,7.45-10.55,13-13.57a.45.45,0,0,0-.33-.83Z"/><path class="cls-7" d="M75.64,48.83c-.9.21-4.54,4-2.44,3.89.24-.84,4.7-4.39,2.44-3.89Z"/><path class="cls-7" d="M80.7,46.68l.09,0c.73-.11,3.27,2.38,3.26.6C83.92,46.15,78.9,44.86,80.7,46.68Z"/><path class="cls-7" d="M90.06,34.67c1.27-.19,5.89,3.94,5.58,1.75C95.25,35.53,89.15,32.91,90.06,34.67Z"/><path class="cls-7" d="M99.22,24.81c2.32.56,4.08,2.38,6,3.66C109,27.91,97,21.55,99.22,24.81Z"/><path class="cls-7" d="M115.42,15.11c2.19.3,4.15,2.51,6.14,2.52C122.51,16.45,113.53,13,115.42,15.11Z"/><path class="cls-7" d="M24.65,48c10.78,6.27,21.51,13.32,30,22.56,1.25.66,7.12,10.14,7.31,7.14C53.54,63.78,39.15,54.54,25,47.24c-.46-.24-.78.47-.34.73Z"/><path class="cls-7" d="M21.82,47.72c-.31,1.92,1.09,3.69,1.16,5.55a6.71,6.71,0,0,0-1.49,3.16c.84,2.88,3.61-2.88,2.92-4-.4-.66-1.9-6.32-2.59-4.76Z"/><path class="cls-7" d="M19.41,60.58c-6.2,13.89,4.42,23.81,8,35.78,0,.54.91.46.85-.09-3.13-11.54-13.77-22.61-8-35.31a.48.48,0,0,0-.88-.38Z"/><path class="cls-7" d="M25.78,97.41c-6.65,5-11.45,13.47-9.16,21.94.17.6,1.2.68,1.19,0a22.9,22.9,0,0,1,8.81-20.92c.59-.57-.21-1.51-.84-1Z"/><path class="cls-7" d="M12.2,127.93c-1.7,2.91-1.6,7.24,1.79,8.86.65.36,3.81,1.79,3.37.37-4.43-1.15-6.93-4.62-4.82-9.08.08-.2-.24-.33-.34-.15Z"/><path class="cls-7" d="M19.6,138.32c11.89,5.27,25.89,3.22,37.87-.76a.51.51,0,0,0-.27-1c-12.18,3.08-25.06,5.27-37.23.89A.46.46,0,0,0,19.6,138.32Z"/><path class="cls-7" d="M30.48,133c2.52,1.35,30,.13,27.28-2.88-9,1.22-18,2.88-27.14,2.07A.41.41,0,0,0,30.48,133Z"/><path class="cls-7" d="M27.13,119.51c7.83.93,16.07-.47,23.76-2,1.88-2.42-10.16.64-11.59.37C38,118.58,24.76,118.47,27.13,119.51Z"/><path class="cls-7" d="M31.38,109.7c2.09.12,21.42,1.67,19-1.28-6.3,0-12.62.64-18.94.4C30.89,108.81,30.88,109.66,31.38,109.7Z"/><path class="cls-7" d="M30.66,96.08c8.33.46,16.45,2.46,24.55,4.13C57.72,98,28.63,93.56,30.66,96.08Z"/><path class="cls-7" d="M38.2,75.46c6.31,3.36,12.77,7,17.34,12.6,2.43.51-1.63-4.24-2.39-4.68C52.09,82,37.16,72.05,38.2,75.46Z"/><path class="cls-7" d="M35.29,61.4c5.6,4.79,12.16,8.43,17.17,13.89,4.95.5-17.72-16.09-17.17-13.89Z"/><path class="cls-7" d="M69.08,147.22c.38,2.13,11.42,5,9.65,2.24-3.12-.46-6.61-.44-9-2.79-.34-.3-.9.19-.6.55Z"/><path class="cls-7" d="M88,152.45a28.64,28.64,0,0,0,8.05,2.9c1.17.36,10.28.08,7.72-1.72a24.3,24.3,0,0,1-15.43-1.92A.41.41,0,0,0,88,152.45Z"/><path class="cls-7" d="M109.6,154.94c2.68,2.46,15.65-.95,11.3-2.45C116.62,155.9,107.8,153.27,109.6,154.94Z"/><path class="cls-7" d="M118.54,149.44c-.38.86-.69,3.59.89,2.29.75-.93.67-4.1-.89-2.29Z"/><path class="cls-7" d="M96.9,147.63c-.36.91-2.24,5.83.09,4.65.31-.82,2.17-6.43-.09-4.65Z"/><path class="cls-7" d="M86.89,146.26c-.13,1.21-.91,2.9-.06,3.93,1.51,1,1.58-5.92.06-3.93Z"/><path class="cls-7" d="M79.34,144.84c-.18.92-1.15,2.77,0,3.26,1-.37.54-2,1-2.85a.57.57,0,0,0-1.07-.41Z"/><path class="cls-7" d="M130.1,48.18c.63,1.49,3.57,2,2.37,0-2.69-2.43-2.75-6.44-2.83-10C127,36,128.34,47.3,130.1,48.18Z"/><path class="cls-7" d="M118.69,41.08a1,1,0,0,0,.58.56c.53.47,1.18,1.35,2,1.25,0,.07.46-.23.5-.36h0a1.05,1.05,0,0,0-.47-1.45,2,2,0,0,0-1.38-1.8C118.85,31.87,116.84,37.4,118.69,41.08Zm.2-.84Z"/><path class="cls-7" d="M127.18,64.62c.78.85,3.33,1,2.36-.67-.2-1.18-1.66-1.77-2.52-2.5h0a.8.8,0,0,0-1.08-.08,7.33,7.33,0,0,1-1.83-5.16c-2.79-3.44-1.8,6.79,2.77,8.09A.91.91,0,0,0,127.18,64.62Z"/><path class="cls-7" d="M112.82,54.26a.82.82,0,0,0,.52,0c.92.72,2.24-.41,1.29-1.3-.17-1.2-3.19-2.44-4.14-1.77a6.6,6.6,0,0,1-2.37-4.63C105.54,44.64,108.34,54.08,112.82,54.26Z"/><path class="cls-7" d="M106.62,69.09c.23-.46-.14-.86-.53-1.07a.67.67,0,0,0-.35-1.07,1.1,1.1,0,0,0-1.1-.36.85.85,0,0,0-.32,0,6.32,6.32,0,0,1-.76-.79c-.39-.23-.65-2-1.6-1.8a.75.75,0,0,0-.54.9c.53,1.51,1.57,3.37,3.21,3.79C105.14,69.11,106.12,70,106.62,69.09Z"/><path class="cls-7" d="M122.75,78.15c-.93-.46-3.65-2.65-4.42-2-.75-.36-2.41-4.22-2.78-2.19-.07,1.76,7.33,9.39,7,5.23C122.78,78.92,123,78.58,122.75,78.15Z"/><path class="cls-7" d="M132.39,83.13c-.67-.57-.55-1.87-1.28-2.19-1.09.46-.08,2.56.64,3.11S132.91,83.59,132.39,83.13Z"/><path class="cls-7" d="M126.92,88.22c-.89-.26-1.38,1.71-.8,2.17C126.92,90.59,127.71,88.58,126.92,88.22Z"/><path class="cls-7" d="M110.84,85c0-.74.55-1.72-.12-2.29.5-.67,0-1.86-.82-1.09a8.58,8.58,0,0,0-1.12,2.86C108.32,87.52,111.06,89.12,110.84,85Z"/><path class="cls-7" d="M99.9,81.56c-.5-.43-1-.85-1.53-1.27a1.23,1.23,0,0,0-1.66-1.09,10.16,10.16,0,0,1-1.55-3.47c-1.87-1.27-.46,3.78.27,4.39C96.39,84.11,105.08,86.27,99.9,81.56Z"/><path class="cls-7" d="M94.7,61.42c1.58-.3.21-1.67-.34-2.25-1.44-1.52-.66-4.8-2.39-5.72C89.85,54.07,92.54,61.6,94.7,61.42Z"/><path class="cls-7" d="M87.84,76.32c-2.08-2.32-5.14-4-6.42-6.9a.64.64,0,0,0-.79-.32c-1.26,1.67,1.2,4.31,2,5.94C83.21,76.65,89.12,80,87.84,76.32Z"/><path class="cls-7" d="M81.31,88.55a12.73,12.73,0,0,1-3.44-3.46c-2.64-2.29-.58,3,.51,4C79.55,91.66,85,91.52,81.31,88.55Z"/><path class="cls-7" d="M68.75,81.79a1.67,1.67,0,0,1,.12.16l0,0c2.44,1,.41-2.23.42-3.26-.35-.87.35-2.41-.76-2.72C66.47,76.6,67.85,80.43,68.75,81.79Z"/><path class="cls-7" d="M66.53,97.19c-.87-.77-2.92-6.49-3.76-3.42C62.55,99.64,69.27,102.41,66.53,97.19Z"/><path class="cls-7" d="M76.19,103.11a16.13,16.13,0,0,0-2.07-2.37c-3.13-2.19.79,7.11,2.94,6.18C79.08,106.31,76.85,104.05,76.19,103.11Z"/><path class="cls-7" d="M64.79,112.07c-1-1.13-1.75-4.1-3.42-3.85C60.05,109.28,65,115.6,64.79,112.07Z"/><path class="cls-7" d="M75.14,121.46a7.62,7.62,0,0,1-3-5.82c-.48-1.76-2.1-.22-1.69,1C69.51,123.38,80.38,127.22,75.14,121.46Z"/><path class="cls-7" d="M71.06,130.83a8.51,8.51,0,0,1-.78-2.54c-.75-2-2.06.13-1.45,1.4-.39,1.72,1.55,3.4,2.75,4.48h0a.77.77,0,0,0,1.16-.06C73.32,132.84,71.33,132.07,71.06,130.83Z"/><path class="cls-7" d="M91.87,141.91a15.46,15.46,0,0,1-6.15-2.66.42.42,0,0,0-.77.24c-.45,1.66,5.13,4.66,6.4,3.6C92.26,143.42,92.91,142.24,91.87,141.91Z"/><path class="cls-7" d="M117.87,144c-1.92-.52-4-.05-5.87-.92a.67.67,0,0,0-.79.2,6.38,6.38,0,0,1-3.5-3.51.49.49,0,0,0-.94.26c.76,4.38,6.25,6.34,10.14,6.07C118,146.13,119.23,144.52,117.87,144Z"/><path class="cls-7" d="M96.26,130.13a15.82,15.82,0,0,0-5.81-3A8.64,8.64,0,0,1,88.71,124c-2.28-1.41-.14,3.82.78,4.34,1,1.56,7.36,5.84,8,2.85A1.52,1.52,0,0,0,96.26,130.13Z"/><path class="cls-7" d="M90.14,111.18c.68,1.17,5.24,4.12,4.38,1.1-1.47-1-2.61-3.4-4.4-3.61C87.87,103.4,88.13,109.63,90.14,111.18Z"/><path class="cls-7" d="M90.48,96a.7.7,0,0,0,1.23-.65c-.71-.92-.27-2.21-.89-3,0-.29.16-.59,0-.86h0C88.51,89.59,89.6,95.11,90.48,96Z"/><path class="cls-7" d="M110.9,132.92c3.93.07-3.26-4.8-3.37-6.48-1-1.22-2,.79-.88,1.45A7.43,7.43,0,0,0,110.9,132.92Zm-.38-.61s0,0,0,0Z"/><path class="cls-7" d="M137.33,142.81c-2.33,1.4-5.53-.76-7.67-1.88-1.74-.49-1,1.55,0,2,1.23,2.11,4.33,2.64,6.48,2a2.74,2.74,0,0,0,2.4-1.15C139.07,143,137.93,142.16,137.33,142.81Z"/><path class="cls-7" d="M150.64,137.62c-2.54.24-4.77-1.36-7-1.76-3.9-1.09,1.7,5,7.08,3.43h0A.84.84,0,0,0,150.64,137.62Z"/><path class="cls-7" d="M153.11,126.21a8.86,8.86,0,0,1-1.63.74c-.45.1-1.15,0-1.12.68C150.77,129.53,156.22,126.47,153.11,126.21Z"/><path class="cls-7" d="M163.72,126.36c3.18-.79-1.27-2.43-2.23-3.16-1-.54-1.62-1.58-2.61-2C155.54,121.91,162.18,126.4,163.72,126.36Z"/><path class="cls-7" d="M146,112.3c.63.74,1.55,1.74,2.61,1.58a.81.81,0,0,0-.1-1.55c-2.1-.6-1.53-3.18-2.72-3.25C144.47,109.5,145.46,111.52,146,112.3Zm.79-1.66h0Z"/><path class="cls-7" d="M164.82,135.17c-2.09.33-3.57-1.42-4.65-2.91-.55-.9-2,0-1.41.86h0c.63,2.1,2.58,4.33,5,3.73C165.19,137.43,166.76,135.64,164.82,135.17Z"/><path class="cls-7" d="M177.32,129a5,5,0,0,1-2-1.07c0-.08,0-.16,0,0h0a.71.71,0,0,0-.88-.88c-2.36-.84-.59,2.23.16,2.92C175.64,131.35,179.68,130.79,177.32,129Z"/><path class="cls-6" d="M82.89,143.5c-.1-.07-.35-.31-.35-.3s-.42-.57-.42-.57c-.39-.38-.28-2.45-1.24-1.54-1,1.13,2.32,4.59,2,2.41Z"/><path class="cls-6" d="M110.17,146.67c-1.22-.6-2.62-.81-3.74-1.59-2.1.46,2.44,2.88,3.31,3a.73.73,0,0,0,.43-1.39Z"/><path class="cls-6" d="M135.15,146.65c-1.43.06-2.81-.78-4.22-.7-2.51,1.86,7.57,3,4.22.7Z"/><path class="cls-6" d="M72.68,103c-12-.21-13.07-15.35-6-22.35a.61.61,0,0,0-.44-1.08c-2.35-2.2-5.64,5.91-5.89,7.93-.5,2.37-1.56,11.15,1.58,11.15,2.07,3.41,6.52,6.39,10.62,5.53C73.11,104.05,73.33,103.18,72.68,103Z"/><path class="cls-6" d="M69.1,118c-8.1-2.3-11.34-12.57-6.76-19.42.37-.61-.45-1.24-.9-.71-2.12.51-2.58,4.39-3.14,6.39-1.86,7,3.53,13.2,9.46,16A.85.85,0,0,0,69,119.6.83.83,0,0,0,69.1,118Z"/><path class="cls-6" d="M72.56,135.63c-10.24-5-.08-18.43-3.85-16.45a.56.56,0,0,0-.9,0c-3.12,4.62-3.52,12,.85,16-4.77,2.1,3.09,3,3.87,1.72C72.94,136.61,73.1,135.87,72.56,135.63Z"/><path class="cls-6" d="M135.19,147.15c-18.28,1.79-56.22-.62-70.68-10.83-2-.78.72,8.87,1.71,9.78,2.52,5.59,10.65,7.84,15.86,4.83,6.4,5.39,16.14,7.64,24.47,4.69,7.87,3.54,19.36,1.78,23.29-6.75C130.66,148.73,137.51,148.48,135.19,147.15Zm-10.78,5.19c-4.35,4.76-13.46,3.91-18.24,2.09-9.59,3-16.78-.61-23.63-4.46-7,1.52-16.78-.56-16.47-9.51,19.64,5.09,40.07,8.89,60.65,8.56A10.55,10.55,0,0,1,124.41,152.34Z"/><path class="cls-6" d="M74.84,87c-4.72-1.32-7.33-6-8.45-10.39-.76-13.73-4.56,2.31,2.18,8.07C68.92,85.94,77.2,90.2,74.84,87Z"/></g><path class="cls-8" d="M164.5,144.86c1.33-.56,2.53,1.44,3.37,2.12,5.31,6.1,8.7-3.87,11.39-.3.46,2.47,9.58,2.4,11.91,2.72,1.84,0,3.76-.52,4-4.35.06-1.26.45-2.53-.66-4-.59-.57-1.56-1-1.42-2l.59-8.19c.92-2.54,3.75-.94,3.68-5.74,1-7.21-9.48-3.91-13.38-4.31-4.41-.33-3.36,4.1-6.48,2.18a4.61,4.61,0,0,0-3.07-1c-2.67-.4-5.74.24-7,2-2.82,2.27-2.59-3.45-7.11-2.79-.59.06-1.67-.13-2.18-.08a4,4,0,0,0-4.4,4.85l.41,13a1.61,1.61,0,0,1-3.1.55l-5.57-15.56c-.9-2.48-2-3.92-5.05-3.92-5.58-.12-6.2,1.48-9.08,3.11-3.62-2.25-8.07-5.18-10.61,0-.69,1.44-2.41,4.59-4.09,2.26-1.54-3.17-3.82-6.71-8.1-4.74-1.37.25-4,2.06-5.23.79-2.29-2.14-9.59-.37-12.37-.67-5.12-.71-5.56,7.11-2.48,8.55a1.56,1.56,0,0,1,.93,1.47l-.31,7.38a1.55,1.55,0,0,1-1,1.39c-1.11.29-1.51,1.68-2.78,1.42-1.48.9-6.39-16.49-7-17-.89-2.48-2-3.92-5-3.92-8.85.09-6.17,2.61-9.85,4.41-2.57-.68-1.1-3.11-5.7-3.19l-14.06-.81c-2.58-.12-4.95,0-5.08,4.62-.86,10.78,5.44,4.25,6.53,8.49l-.32,11.66c-.48,3.57,2.41,5.24,5.72,4.4,3.51-.43,4.72-1.82,4.59-5.29l-.44-11.61c-.06-1.57,1.72-1.71,2.9-1.71,1.86-.11,5.1-1.83,4.8,1.28l-3.23,11.52c-1,2.36.33,5.34,3.44,5,4.07.08,7-.94,7.15-4.44.19-1.74,4.49-1.91,4.8-.16.47,3,1.95,5.36,6,4.78,1.44-.15,3.07.16,4.52-1.13a1.62,1.62,0,0,1,2.09-.18C88.58,149,95,149,97,149.33c2.57.19,4.82.21,5.2-4.27.73-4.57-1.42-3.25-2.07-5.92l.58-8.19c0-1.21,1.4-1.36,2.18-1.88a1.64,1.64,0,0,1,2.2.32l5.67,7.21c1.34,3.5-1.74,14.26,4.62,13.3,10.51.65,6.28-6.57,7.56-13.12,1.07-.92,3.63-7.32,5.73-6.1a1.54,1.54,0,0,1,.88,1.82l-3.2,11.42c-1.41,3.77,1.56,5.56,5.15,4.87,4.24-.28,4.89-1.48,5.45-4.35.27-1.76,4.42-1.9,4.8-.16.55,3.93,2.65,5.38,7.15,4.72,1.38-.05,2.86-.26,3.68-1.4a1.63,1.63,0,0,1,1.31-.66c1.86.42,2,2.18,4.64,2.44,2.23.2,3.88,1.11,4.94-3.26A1.54,1.54,0,0,1,164.5,144.86ZM171.45,134c1.41-.95,6.6-11,8.47-6.59.21,1.83,2.5,1.74,2.52,3.45l-.31,7.4c0,1.54-2.11,1.41-2.61,2.71a1.63,1.63,0,0,1-2.63.24C176.09,139.75,169.76,136,171.45,134Z"/><path class="cls-9" d="M115.31,153.08c-8.36.58-7.52-9.13-7.47-14.94l-4.13-5.24-.4,5.67c2.45,2.08,2.19,5.05,2,6.77-.23,5.32-3.91,7.81-8.71,7.14-2.3-.35-8.27-.44-10.26-1.52-5,2.68-13.22,1.46-14.22-3.37-1,4.54-11.93,6.3-15.17,2.23-2.33,3.38-10.3,4.63-13.48,1.37-3.5-3.52-1.23-11.72-1.62-15.94-5.61-.08-7.1-5.87-6.49-10,0-5.42,3.45-8.13,8.46-7.67,3.81.65,16.73-.28,19.5,2.72,2.35-2.71,6.33-3,9.92-3.14,9.27-.38,9.7,13.34,12.74,19.07l.19-4.38c-5.1-3.88-3.13-14.51,4.64-13.94,4.15.27,9.93-1.6,14,.95,5.48-2.57,11-1.91,13.22,2.85,1.68-4.38,8.54-5.83,13.22-2.15,4.68-3.9,16.25-3.24,17.23,3.6l2.15,6c-.84-5.77,1.17-11.27,7.5-10.93,2.93.13,6-.19,8.45,2.48,3.34-2.26,7.59-2.32,11.73-.77,2.34-2.9,10.63-2,14.1-2.38,1.58,0,3.74-.27,6.2,1.94,3.42,3.78,2.24,10.91-1.84,12.74l-.46,6.36c4.74,4.74,1.46,14.65-5.17,14-3.75-.49-10.94-.07-13.65-2.89-2.92,3.06-9.15,3.2-11.77-.29-1.92,4.5-8.65,3.88-11.93,1.39-4.94,2.95-13.48,1.71-14.5-3.19-1,4.46-11.48,6.2-14.92,2.5C122.84,152.54,118.52,153.12,115.31,153.08Zm-11.55-24.23c1.12-.54,6.24,7.29,6.94,7.82,1.34,3.51-1.75,14.25,4.61,13.31,10.54.63,6.28-6.59,7.57-13.13l3.74-5.53c7.47-4.32-3.08,14.59-.06,16.47,1.36,1.52,3.19,1.14,4.87,1.08,4.25-.29,4.9-1.49,5.46-4.36.21-1.47,2.1-1.28,3.19-1.32s1.64.85,1.77,1.78c.35,3.46,3.15,4.74,7,4.1,1.38,0,2.87-.26,3.69-1.4a1.6,1.6,0,0,1,1.3-.66c1.89.72,3.43,2.92,6.28,2.64,4.53.69,1.94-9.08,7.75-2.6,4.59,4.75,6.33-.14,10.24-1.15,2.15.77.63,2.36,5,2.83.67,0,7.5.79,8.07.74,1.84,0,3.75-.52,4-4.35.05-1.26.45-2.53-.66-4-.6-.57-1.56-1-1.42-2l.59-8.19a1.54,1.54,0,0,1,1.11-1.37c2.29.06,3.68-6,1.56-8h0c-2-2-9.81-.44-12.37-.67-4,.07-2.94,1.91-5.08,2.68a1.62,1.62,0,0,1-1.41-.5c-2.89-2-8.23-1.42-10.06,1a1.63,1.63,0,0,1-2.71-.5c-.93-2.62-4.27-2.24-6.57-2.36a4,4,0,0,0-4.4,4.84l.41,13a1.61,1.61,0,0,1-3.1.56l-5.57-15.57c-.73-5.73-11.12-4.26-12.84-1.49a1.63,1.63,0,0,1-2.6,0,8,8,0,0,0-5.33-2.27c-4.84-.39-5.24,11.44-9.35,3-3.64-6.85-8.4.14-12.05-1.72-2.24-2.14-9.62-.39-12.37-.68-5.11-.71-5.55,7.11-2.48,8.55A1.54,1.54,0,0,1,89.4,131l-.3,7.38c0,1.36-1.68,1.38-2.32,2.26a1.62,1.62,0,0,1-2.74-.47l-5.74-16c-.85-2.9-2.91-4.29-6.15-3.88-7.61.19-5.4,2.94-8.75,4.37-2.57-.68-1.11-3.11-5.7-3.19l-14.06-.81c-2.58-.11-5,.06-5.08,4.62.1,1.9-.5,4.43,1,5.93,1.92,2.1,5.07-.42,5.5,2.56l-.33,11.67c-.48,3.56,2.43,5.24,5.73,4.39,3.51-.43,4.72-1.81,4.59-5.29l-.45-11.61c-.06-1.57,1.73-1.7,2.91-1.7,1.74.13,2.9-1.3,4.29-.31,2.12,2.38-5,14.08-2.46,16.9,1.36,1.52,3.2,1.14,4.88,1.08,7-.12,3.5-4.38,7-5.62,1.52-.15,3.3-.23,3.45,1.72.39,2.78,2.19,4.67,5.88,4.17,1.44-.16,3.06.15,4.52-1.14a1.62,1.62,0,0,1,2.08-.18c1.48,1.29,7.85,1.2,9.79,1.58,2.59.19,4.82.21,5.21-4.27,0-1.26.47-2.54-.66-4-.6-.57-1.55-1-1.42-2l.59-8.19C100.8,129.65,102.68,129.2,103.76,128.85Zm74.34,13c-.93,0-1.32-.74-2-1.33-.68-1.22-6.45-4.61-4.71-6.44,1.15-.89,5.47-8.23,7.22-7.69,1.62.3,1.31,2.69,2.86,3.09a1.55,1.55,0,0,1,.92,1.46l-.31,7.4c0,1.55-2.12,1.41-2.62,2.71A1.58,1.58,0,0,1,178.1,141.88Zm2.43-3.57Zm-5.71-3.38L178,138a5.45,5.45,0,0,1,1-.68l.23-5.54a5.55,5.55,0,0,1-1.08-1Z"/><path class="cls-10" d="M115.31,150.29c-6.58.87-3.73-9.56-4.87-13.43l-5.67-7.21c-.88-1.12-3.58.22-3.8,1.39l-.59,8.19c-.1.9.84,1.19,1.34,1.73,1.23,1.54.77,2.85.74,4.19-.44,4.79-2.89,4.74-5.56,4.56-2-.41-8.41-.3-10-1.64a1.32,1.32,0,0,0-1.67.14c-1.56,1.4-3.22,1.07-4.72,1.24-3.88.53-5.85-1.59-6.21-4.4-.06-1.81-1.84-1.59-3.13-1.49-3.08,1.42.25,5.36-7,5.61-3.69.74-7-1.28-5.47-5.26L62,132.39c.13-3.11-4-.34-5.89-.79A1.26,1.26,0,0,0,55,132.89l.45,11.61c.14,3.64-1.18,5.16-4.87,5.61-1.68.24-3.89.36-5-.86-2.33-2.15-.38-12.71-.77-15.52-.6-2.61-3.47-.13-5.41-2.33-1.62-1.6-1.06-4.15-1.12-6.16,0-4.38,2.46-4.94,4.55-4.94,1.07,0,13.91.82,14.93.83,4.94-.33,4.33,5.19,6.87,2.44.79-2.67,4.31-3.63,8.66-3.66,3.22,0,4.43,1.58,5.35,4.13l5.74,16a1.3,1.3,0,0,0,2.2.37c.53-.89,2.2-.83,2.24-2.07l.3-7.38c-.57-2.12-2.83-1.15-2.77-5.07-.18-3.41,1-5.17,4.63-5.25,3,.32,10.09-1.49,12.57.72,1.08,1.17,3.7-.65,4.94-.82,7.77-3.37,7.27,8.13,10.71,4.88,1.6-3.34,4.07-6.88,8.4-4.69,1.36-.13,3.34,3.52,4.83,1.73.89-1.72,4.48-2.56,8.05-2.57,3.21,0,4.43,1.58,5.35,4.13l5.57,15.56a1.28,1.28,0,0,0,2.48-.44l-.41-13c-.64-4.46,3.35-5.69,6.91-5.09,1.92,0,4,.54,4.69,2.49a1.26,1.26,0,0,0,1,.82,1.31,1.31,0,0,0,1.2-.41c1.29-1.87,4.5-2.57,7.26-2.15a4.89,4.89,0,0,1,3.28,1.14c2.74,1.58,1.68-2.58,6.23-2.29,2.58.28,10.47-1.46,12.62.76,2.32,2.23.73,8.6-1.69,8.52a1.26,1.26,0,0,0-.9,1.1l-.58,8.19c-.15.9.86,1.18,1.34,1.73,1.2,1.54.79,2.85.74,4.19-.51,7.63-8.1,3.63-12.43,3.89-5.72-.54-3.31-5.28-7.86-1.18-6.24,4.54-7-2.31-10.61-2.64a1.25,1.25,0,0,0-.87,1c-.69,6.14-7.25,3.24-9.89,1.08a1.3,1.3,0,0,0-1.05.53c-1.14,1.58-3.29,1.48-5,1.6-8.69.85-3.46-6.95-9.33-5.89-3,1.37.19,5.4-7,5.61-3.83.73-6.94-1.3-5.47-5.26l3.2-11.42a1.27,1.27,0,0,0-2.29-1L123.15,137C122.12,143.83,125.88,150.9,115.31,150.29Zm-11.55-21.75c1.48-.43,6.28,7.19,7.19,7.94.7.47.37,8.14.49,8.94.11,5.09,3.32,4.24,6.36,4.12,7.24.29,3.38-8.84,4.81-12.86l3.74-5.53c1.08-1.74,4.07-.5,3.45,1.51l-3.2,11.41c-1.17,2.74.76,5.1,3.84,4.55,8.24.11,3.93-4.5,7.94-5.68,1.24-.11,3.29-.25,3.61,1.34.55,3.87,2.56,5.1,6.82,4.48,2.35.37,3.15-1.67,5-2.06,2.08.6,3.32,2.92,6.28,2.64,3.74.67,2-7,6.26-4.23,2.21,2.62,5.33,5.22,8.47,2.25,1.12-.61,1.92-2,3.32-1.77a1.92,1.92,0,0,1,1.39,1c0,2.07,8.64,2.19,10.45,2.47,2.84.57,5-.79,4.93-4.92.13-.77,0-2.68-1.22-3.25-1.8-.67-.2-8.54-.34-9.92a1.86,1.86,0,0,1,1.33-1.65c3.29-.42,3.44-9.45-1.57-8.42-2.42.43-11.82-.63-12.72,2-1.47,2.73-4.13-.94-6-.49-6.66-1.53-7.47,6.17-10.54.41-1.44-1.53-7.2-1.83-8.85-.27-3,1.33,2.78,24.26-4.26,17.24l-5.58-15.57c-.68-5.52-10.67-4-12.27-1.41a2,2,0,0,1-3.12,0c-8.82-6.57-8,3.39-11.74,3.83-4.73-1.32-1.25-9.18-12.29-4.58-2.22,1.15-3.9-1.89-6.22-1.18l-8.57.34c-3.24.06-4.19,1.57-4,4.62,1.2,7.22,3.65-1.6,2.46,12.48.07,1.46-1.64,1.58-2.38,2.44a2,2,0,0,1-3.29-.56l-5.74-16c-.85-5.83-12-4-12.82-.43a2,2,0,0,1-3.54,0c-.34-.84-1.09-1.83-4-2l-14.06-.81-.83,0c-2,0-3.87.52-3.92,4.33.13,1.81-.5,4.31,1,5.71,1.91,1.95,5.32-.46,5.59,2.79l-.33,11.66c-.45,3.42,2.25,4.87,5.37,4.08,3.35-.41,4.44-1.66,4.31-5l-.44-11.61A1.87,1.87,0,0,1,56.09,131c2.27.23,6.93-2.43,6.55,1.57l-3.23,11.52c-1.29,3.63,1.36,5.1,4.81,4.49,7.44.09,2.54-6.23,8.66-5.68,4,.62.47,6.88,7.64,6,1.38-.16,3,.14,4.31-1.05,1.81-1.58,3,.73,5.27.64,1,0,7.26.82,8,.74,1.77,0,3.45-.49,3.68-4,0-1.2.46-2.43-.58-3.74-.7-.58-1.63-1.11-1.49-2.18l.58-8.19C100.47,129.45,102.51,128.88,103.76,128.54Zm74.34,13.65c-1,0-1.49-.75-2.19-1.42-.85-1.4-6.7-4.72-4.73-6.85,1.37-1,5.4-8.41,7.53-7.81,1.74.21,1.43,2.66,2.94,3.12a1.85,1.85,0,0,1,1.1,1.76c-.45,1.44.68,8.65-1.57,9.07C179.84,140.41,179.65,142.29,178.1,142.19Zm.27-15.49c-1.13-.23-5.88,7-6.69,7.6-1.49,1.48,4.17,5,4.68,6,.63.55,1,1.33,1.87,1.24,1.23-.23,1.4-1.86,2.74-2.1a1.24,1.24,0,0,0,.83-1.11l.31-7.4c-.17-1.56-2.33-1.52-2.51-3.35A1.29,1.29,0,0,0,178.37,126.7Zm2.16,11.92V138h0Zm-2.54-.21-3.6-3.46,3.72-4.64a5.91,5.91,0,0,0,1.42,1.31l-.24,5.87A6.35,6.35,0,0,0,178,138.41Zm-2.75-3.51,2.78,2.67a5.58,5.58,0,0,1,.64-.44l.22-5.2a5.83,5.83,0,0,1-.75-.65Z"/><path class="cls-11" d="M53.56,144.56c.28,3-1.12,3.65-4,3.85s-3.4-.31-3.33-3l.42-15c-5.31.4-7.23,1.09-6.63-5.2,0-2.69.69-3.33,3.47-3.17l14.08.81c2.64.17,3.26.81,3.16,3.44s-.7,3.21-3.33,3.38L53,130Z"/><path class="cls-11" d="M83.91,144.29c1.4,3.11-.86,3.33-3.47,3.38-4.76.75-4-3-5.09-6l-6.7.24c-.72,3.07,0,5.6-4.51,5.53-2.61.28-4.66.07-3.57-3l5.31-18.92c.73-2.66,1.52-3.37,6.38-3.71,2.84-.2,3.68.31,4.61,2.9Zm-9.78-7.11-2.56-8-2,8Z"/><path class="cls-11" d="M100.63,145c-.17,2.63-.87,3.21-3.54,2.94l-6.86-.68c-2.5-.23-3.09-.91-2.88-3.34S88,140.77,90.5,141L91,128.48c-2.39.07-2.9-.77-2.88-3-.06-2.36.49-3,2.88-3.07l8.57-.34c2.64-.1,3.3.51,3.23,3.14s-.73,3.24-3.51,3.24l-.93,13.08C100.89,141.5,100.86,143,100.63,145Z"/><path class="cls-11" d="M121.16,144.7c.39,3.53-2.13,3.71-5,3.77s-3.47-.37-3.51-3.06l-.1-8.84L105,127c-1.63-2.06-1.36-2.9,1.18-3.74,2.9-.91,6.33-2.92,7.9.87l4,6.92,4-6.95c1.31-2.29,2.22-2.63,4.82-1.65s2.74,1.75,1.32,3.88l-7.11,10.52Z"/><path class="cls-11" d="M151.1,144.29c1.39,3.11-.86,3.33-3.47,3.38-4.76.75-4-3-5.1-6l-6.69.24c-.73,3.07,0,5.6-4.51,5.53-2.61.28-4.67.07-3.57-3l5.3-18.92c.73-2.66,1.53-3.37,6.38-3.71,2.85-.2,3.68.31,4.62,2.9Zm-9.78-7.11-2.57-8-2,8Z"/><path class="cls-11" d="M175.07,141.6c2.38,2,1.34,3.35-.94,4.82-2.26,1.65-3.23,1.55-5.2-.41l-6.35-6.37-.66,6.2c.14,4.15-6.77,2.26-6.07-1.21l-.59-18.55c-.07-2.69.59-3.4,3.36-3.3s5.47,0,4.79,3.51l-.66,6.64,5.07-6.85c1.67-2.55,3.53-2.79,6.48-2.49,2.54.13,2.88.91,1.36,2.83l-7.12,8.9Z"/><path class="cls-11" d="M193.66,145c-.18,2.63-.87,3.21-3.54,2.94l-6.87-.68c-2.5-.23-3.09-.91-2.88-3.34s.64-3.15,3.16-2.93l.52-12.51c-2.39.07-2.9-.77-2.88-3-.07-2.36.49-3,2.88-3.07l8.57-.34c2.63-.1,3.29.51,3.22,3.14s-.73,3.24-3.5,3.24l-.94,13.08C193.92,141.5,193.89,143,193.66,145Z"/><path class="cls-12" d="M46.19,129.66c-1.45,0-3.13.46-4.55.15-.73-.22-.58.65-.17.77,1,.31,4-.09,5.23-.11C46.74,130,46.75,129.63,46.19,129.66Z"/><path class="cls-12" d="M60.1,124.37c0,1.41.27,3.63-1.36,4.24-.89.54-7.1-.67-6.51,1.78,0,2.82.41,9.14.44,12.58.6,3.95-1.18,5.08-5,5.1-.92.91,4,.14,4.42-.15h0a2.1,2.1,0,0,0,1.25-1.27h0c.53-.92-.43-15.29-.36-16.63,2.9-.51,8.23.82,7.77-3.68C60.81,125.59,60.84,123.74,60.1,124.37Z"/><path class="cls-12" d="M71.69,129.61s0-.05,0-.08Z"/><path class="cls-12" d="M69.59,137.18l2-8C71,128.25,68.46,137.54,69.59,137.18Z"/><path class="cls-12" d="M75,141.18c-11.36-.19-4.11.45-8.52,5.07-.7.61-5.9.23-5.12,1.09,5.76.37,6.67,0,7.33-5.48l6.7-.23A.4.4,0,0,0,75,141.18Z"/><path class="cls-12" d="M84.08,146.82a1.8,1.8,0,0,0,.15-1.47h0c-.38-1.33-7.36-21-8-22.09-1.54-.54,1.23,4.57,1.25,5.44,1.53,5.86,5,12,5.29,17.84-1.39.53-3.1.34-4.56.59-.93,1.15,4.58.38,5.14.18h0A1.55,1.55,0,0,0,84.08,146.82Z"/><path class="cls-12" d="M100.7,144.09c-.22-3.37-.82,1.92-1.2,2.52-1.27,1.37-7.85-.29-10.54-.23-1.25.44.64.92,1.27.88l6.86.68C100.24,148.46,100.62,146.79,100.7,144.09Z"/><path class="cls-12" d="M102.82,125.24c0-3.55-1.08-1-.84.78.17,2-2.48,1.09-3.34,1.94.23-.29-2.24,14.49,0,13.62l-.24,0,.93-13.08C102.09,128.48,102.75,127.84,102.82,125.24Z"/><path class="cls-12" d="M90.46,127.73c-.51.07-1.38-.31-1.65.26a3.4,3.4,0,0,0,2.19.49A.56.56,0,0,0,90.46,127.73Z"/><path class="cls-12" d="M128.08,125.52c-2.84,3.57-6.28,7.47-7.78,11.74.09,2.55.26,6.18.1,8.45.39,3-8.5,1.4-5.88,2.75,2.94,0,7.25.45,6.64-3.76l-.06-7.89,7.11-10.52C128.51,126,128.87,125.08,128.08,125.52Z"/><path class="cls-12" d="M114.05,124.09c-2.64-3.41.83,2.54,1.36,3.24.84.84,1.42,4,2.63,3.68Z"/><path class="cls-12" d="M151.1,144.29l-7-19.66q-.18-.5-.36-.9c-.08-.16-.61-.23-.43.42,2.06,6.92,5,13.58,7.15,20.48,1.35,2.7-2.24,2.26-4.07,2.31-3.44.66,1.52.92,2.42.66C151.45,147.5,152,146.76,151.1,144.29Z"/><path class="cls-12" d="M142.13,141c-.95-.14-5.17.11-6.26.16-1.24.41-.64,2.29-1.16,3.28-.37,1.32-.41,1.51-1.23,1.89-1,.49-4.44.25-4.58.79.2.68,1.81.16,2.43.24,4.48.06,3.78-2.46,4.51-5.53l6.69-.24S142.47,141.08,142.13,141Z"/><path class="cls-12" d="M136.77,137.18l2-7.93c-1.2-.3-1.86,5.93-2.23,6.38C136.39,136.06,136.13,137.17,136.77,137.18Z"/><path class="cls-12" d="M163.41,126.29c.25-.74-.18-3.08-.6-1.25.23,1.83-1.28,7.44-.06,7.89Z"/><path class="cls-12" d="M175.07,141.6l-6.53-6.28c-.18-.07,9.55-11.08,7.14-9.79-1.82,2.67-8.51,9-7.56,10.34.38.6,6.68,6.49,7,7,1.1,1.88-1.84,2.74-2.91,3.68-.83,1.74,2,0,2.53-.54C176.94,144.39,177,143.45,175.07,141.6Z"/><path class="cls-12" d="M162.09,140.1c-.05.24-.83,6.37-.89,6.56-.1,1.47-2.42.67-3.57.55-.57.48.72.7,1.13.79,2.26.48,2.92,0,3.16-2.16l.66-6.2A.7.7,0,0,0,162.09,140.1Z"/><path class="cls-12" d="M193.16,143.45c-.41,2.43.27,4.32-3,3.78-1.1-.06-12.18-1.36-6.92,0l6.87.68c3.14.52,3.52-1.15,3.61-3.85C193.9,143.64,193.51,142.52,193.16,143.45Z"/><path class="cls-12" d="M182.65,127.76c-1.49.34.57.85,1.4.72C184.24,127.72,183.54,127.93,182.65,127.76Z"/><path class="cls-12" d="M195.84,125.24c0-3.08-1.06-1.43-.77.47.23,2.55-2.23,1.31-3.39,2.4.12.3-2.05,13.86-.28,13.45l.94-13.08C195.11,128.48,195.77,127.84,195.84,125.24Z"/><path class="cls-13" d="M42.31,118.61c-4.46-1.21-7.53,7.37-5.17,6.23.38-6.18,6.54-5.07,5.17-6.23Z"/><path class="cls-13" d="M64.23,122.29c0-.13.11-.25.17-.37.11-.64,1.59-1.09,1.41-2-1.1-1.26-3.67,3.58-1.58,2.33Z"/><path class="cls-13" d="M42.94,142.6c-.65,1,.13,9.5,1.68,7.24-1.55-1.17-.46-9-1.68-7.24Z"/><path class="cls-13" d="M57.61,148.56c.27.87,4.22,3.08,3.52,1.25a5.69,5.69,0,0,1-2.86-1.76c-.32-.41-1,.08-.66.51Z"/><path class="cls-13" d="M74.32,119.44c3.32,0,3.7,3.85,4.89,3.54C80.69,120.76,72.85,117.17,74.32,119.44Z"/><path class="cls-13" d="M88.22,119.34c-1.29-.07-4.88,5.14-2.54,4.34A7.1,7.1,0,0,1,88.59,120c.37-.21,0-.81-.37-.63Z"/><path class="cls-13" d="M75,149.58c1.26,2,5.76.68,1.78.22-.45,0-2-1.56-1.78-.22Z"/><path class="cls-13" d="M86.88,149.79c1.84,1.13,3.82-.11.71-.43C87.18,149,86.28,149.26,86.88,149.79Z"/><path class="cls-13" d="M101.25,150.63c1.83-1.26,3.41-3.69,2.86-6-.12-.36-.64-.24-.71.08a6.7,6.7,0,0,1-2.55,5.35c-.34.25,0,.77.4.53Z"/><path class="cls-13" d="M106,120.38c2.53-.95,5.69-1.6,8,.19.37.29.93-.25.59-.58C113.24,117.24,103.81,119.28,106,120.38Z"/><path class="cls-13" d="M120.45,121c2.69-3.31,6.56-.45,6-2-1.63-2.85-9.13,2.21-6,2Z"/><path class="cls-13" d="M134.09,120.56c1-.82,2.8-.42,3.49-1.3C137.41,118,132,120.14,134.09,120.56Z"/><path class="cls-13" d="M109.81,149.23c.53,2.35,6.12,3,2.27,1.11-.61,0-2.14-2.69-2.27-1.11Z"/><path class="cls-13" d="M124.43,148.59a3.94,3.94,0,0,0,2.07,1.55c.68,0,.5-.79,0-.94a5,5,0,0,1-.83-.58c-.31-.63-1.59-1.18-1.23,0Z"/><path class="cls-13" d="M140.79,148.59c-.09-.13.08.14.05.08.15.87,3.43,3,2.31,1.07-.1-.09-.68-.49-.9-.71s-1.69-2.09-1.46-.44Z"/><path class="cls-13" d="M156.78,119.31c-4-.25-6.76,6.58-4.27,4.81-.1-3.33,6.11-4.19,4.27-4.81Z"/><path class="cls-13" d="M168.07,122.27a3.83,3.83,0,0,1,1.84-1.14c.7.06,1.6-.79.51-1-.9-.32-4.33,2.31-2.35,2.12Z"/><path class="cls-13" d="M179.92,121.49a6.15,6.15,0,0,1,.52-.37c.57-.57,2-.29,2.33-1.14-.51-1.46-5.22,1.54-2.85,1.51Z"/><path class="cls-13" d="M195.26,120.17a3.69,3.69,0,0,1,1.46.84c.76.42.64,1.85,1.49,1.9C199.93,121.89,194.2,117.7,195.26,120.17Z"/><path class="cls-13" d="M153.79,149.47c1.39,2.33,6.85,1.83,2.08.24a5.6,5.6,0,0,1-1.05-.66c-.38-.68-1.52-.36-1,.42Z"/><path class="cls-13" d="M165.48,147.78c.36.68,3.69,3,3.18,1.11-.71-.21-3.59-3.11-3.18-1.11Z"/><path class="cls-13" d="M178,148.42c.74.67,3.23,2.73,3.75,1.24-.4-.55-1.2-.61-1.76-.95s-2.34-1.9-2-.29Z"/><path class="cls-13" d="M197,144.46c-.42,2.6-1.67,5.68-4.7,5.91a.36.36,0,0,0,0,.72,4.23,4.23,0,0,0,3.88-1.94c.64-.5,2.36-5.77.83-4.69Z"/><path class="cls-14" d="M46.09,123.24c-7.68-2.85-5.22,7.24-4.09,4.23.28-.36,0-2.34.34-2.91a2.6,2.6,0,0,1,.21-.36c.3-.86,4.45.37,3.54-1Z"/><path class="cls-14" d="M50.11,146.82A2.6,2.6,0,0,0,52,145.39c.2-.82-1-.94-1.16-.16l.06-.13a1.26,1.26,0,0,1-.19.28l.09-.11a2,2,0,0,1-.4.36l.11-.08a1.8,1.8,0,0,1-.46.23l.13,0C49.36,145.72,49.2,146.89,50.11,146.82Z"/><path class="cls-14" d="M58.34,127l0,.07.06-.11c0,.08-.1.14-.14.22l.06-.1-.07.12.06-.1c-.42.6.53,1,.86.44.56-.57-.49-1.27-.8-.54Z"/><path class="cls-14" d="M70.89,122.88a3.76,3.76,0,0,0-4.33,3c-.13.83-1.24,2.18-.25,2.76,1.57.12,1.39-2.9,2.16-3.65a2.72,2.72,0,0,1,1.2-.86c.63-.17,2.57-.57,1.22-1.29Z"/><path class="cls-14" d="M65.9,143.89a2.06,2.06,0,0,1-.23.37l.1-.13a1.7,1.7,0,0,1-.3.3l.13-.1a.67.67,0,0,0,0,1.28c1.08.54,2.5-3,.34-1.72Z"/><path class="cls-14" d="M81.17,144.75a.17.17,0,0,0,0,.07l0-.15a.85.85,0,0,1,0,.16l0-.15a.84.84,0,0,1-.05.17l.06-.14a.46.46,0,0,1-.09.15l.1-.12a.64.64,0,0,0,.45,1.17c1.49-.25.12-3.21-.48-1.16Z"/><path class="cls-14" d="M69.91,138.46c.41-.12,1.7-.05,1.25-.74C70.74,137.44,68.81,138.06,69.91,138.46Z"/><path class="cls-14" d="M91.46,123.06c-3.44-.72-2.53,4.89-1,2.09l0,.18c0-.15,0-.3,0-.45v.19a1.28,1.28,0,0,1,.1-.43l-.07.17a1.41,1.41,0,0,1,.17-.32l-.1.15a1.34,1.34,0,0,1,.23-.25l-.14.12a1.17,1.17,0,0,1,.3-.19l-.16.07.28-.12-.16.07a1.27,1.27,0,0,1,.38-.11l-.17,0c.76.13,1.14-1,.35-1.19Z"/><path class="cls-14" d="M97,146.11c2.89.88,2.87-3.31,1.06-1.35l.06-.16a1,1,0,0,1-.14.24l.1-.13-.11.15.1-.14a1,1,0,0,1-.21.21l.13-.1a1.38,1.38,0,0,1-.33.2l.15-.06-.17.07.15-.07a1.09,1.09,0,0,1-.31.08h.16a1.16,1.16,0,0,1-.32,0l.16,0C96.72,144.71,96.16,145.82,97,146.11Z"/><path class="cls-14" d="M100.28,125.42a.87.87,0,0,0-.21.17l.08-.09a.39.39,0,0,1-.1.08l.12-.08-.12.06.15-.06a.91.91,0,0,0-.41.22l.13-.1-.12.07.15-.07c-1,.32-.21,1.67.62,1.1.66-.27.56-1.63-.29-1.3Z"/><path class="cls-14" d="M89.19,142.71c.64.33,2.11-.11,1.28-.91l.1.08c-.21-.25-.54-.19-.83-.14h.15a1.63,1.63,0,0,1-.44,0l.15,0C88.94,141.45,88.49,142.47,89.19,142.71Z"/><path class="cls-14" d="M108,123.48c-7.41,1.49,3,8.28-1.2,2.33,0,0-.13-.41-.1-.25,0,0,0-.18,0-.1s0-.13,0,.05c0-.39,3.31-1.53,1.33-2Z"/><path class="cls-14" d="M126.2,122.9c-3.29-2.75-5.78,6.2-1.52.88.08,0,0,0-.05,0s.19-.06.07,0c.66,0,2.41.35,1.5-.86Z"/><path class="cls-14" d="M113.43,141.79a15,15,0,0,0-.06,3.14c-.08,1.75,1.57,1.69,1.16-.09-.16-.81.46-5.1-1.1-3.05Z"/><path class="cls-14" d="M137.6,122.71c-4.8-.7-5.12,12.43-1.93,2.58-.1-1.26,3.42-2.1,1.93-2.58Z"/><path class="cls-14" d="M129.38,145.54c.12-1.06,1.44-2.66.71-3.52-.79-.27-2.14,4.77-.71,3.52Z"/><path class="cls-14" d="M143.8,143.56c0,1.14,1.62,3.44,1.44,1.23-.12-.33-.3-.75-.39-1,0-.73-1-1.09-1-.2Z"/><path class="cls-14" d="M136.88,138.6c.75.19,2.19-.47,1-1.11C137.09,137.15,135.51,138.11,136.88,138.6Z"/><path class="cls-14" d="M158.48,123.39c-4.14-1-1.91,8.37-1.11,2.18.08-.43.09-.82.32-1-.1.09.05,0,.08-.06.27-.12,1.87-.64.71-1.15Z"/><path class="cls-14" d="M157.63,145.84c-.13-.8.51-2.39-.45-2.73-.9,0-.44,4.22.45,2.73Z"/><path class="cls-14" d="M173.25,124.36c-1.44-1.21-6.76,2.73-4.28,2.85,1.24-.73,2.41-2.11,4.07-2a.43.43,0,0,0,.21-.83Z"/><path class="cls-14" d="M183,125.11a.5.5,0,0,1,0-.12l0,.11a1.66,1.66,0,0,1,.12-.31l-.06.12.11-.21-.06.12a1.27,1.27,0,0,1,.18-.27l-.09.11c.06-.08.13-.15.19-.22l-.09.11a2.39,2.39,0,0,1,.23-.22l-.12.09a1.87,1.87,0,0,1,.31-.17l-.14.06a1.18,1.18,0,0,1,.37-.09h-.17c1.55-.11.53-1.73-.59-1-1.27.08-1.41,3.24-.18,1.89Z"/><path class="cls-14" d="M182.09,142.75c.84.61,2.23-.46.93-.92l.45.25C183,141.21,180.81,141.93,182.09,142.75Z"/><path class="cls-14" d="M190.13,146.58c1.79.32,2.42-2.7.65-1.33l.1-.1c-.08.08-.14.17-.21.25l.09-.1a2,2,0,0,1-.27.23l.11-.07a1.91,1.91,0,0,1-.32.16l.12-.05C189.73,145.52,189.35,146.43,190.13,146.58Z"/><path class="cls-8" d="M177.23,180.54c3.21.26,5.69-1.73,4.19-4.89l-5.72-16.41a4.44,4.44,0,0,0-5.33-3.46c-5,.25-6.08,1.74-6.87,5.33a1.92,1.92,0,0,1-3.62.19c-1.3-4.89-12.09-6.74-17.39-4.24-1.61,1.14-3.13-1.31-4.71-1-4.36-.28-3.31,2.38-6,3-1.07.05-1.6-.84-2.07-1.64-1.79-1.78-6.66-2.14-7.93-.34-1.52,2-6.26-1.6-9.37,1.28-2.61,1.68-3.09-2.2-6.24-1.69-3.23-.53-6.15.68-5.69,4.32-.17,1.59,1.12,6.25-1.42,6.58-4.73,0-2.59-12.53-9-11.87-4.17.07-6.9,1-7.49,4.27-.67,1.8-1.32,9.38-4.8,6.3-3.23-2.57-3-2.1-2.12-6.27,1-7.86-19.14-5.41-18.07,3.63-.42,3,2.41,3.86,3,6.2-.58,2.23-4.09,3.72-3.42,6.34,3.45,6.88,14.61,4.88,20.06,2.16,1.91.52,1,2,4.16,2,.24,0,1.1-.06,1.4-.07,3.54-.25,4.09-1.35,4.53-3a1.92,1.92,0,0,1,3.69,0c.31,2.13,2.07,3.66,5,3.25,1.18-.13,2.38.1,3.69-.88,2.35-1.7,6.83,4.28,9-.53,1.89-3.54,4.33,1.67,6.63,1.33,3.69.3,5.82-6.77,8.43-3.45a8.48,8.48,0,0,0,14.44.89,1.92,1.92,0,0,1,1.91-.76c2.18.69,1.61,4.28,4.59,3.86a9.76,9.76,0,0,0,2-.27c2.68-.1,3.69-3.43,5.87-1.28a2.89,2.89,0,0,0,2.37,1.2,7.18,7.18,0,0,0,3.22-1.15c1.73-.85,2.56,1.15,4.53.88.42,0,1-.06,1.39-.07,3.54-.25,4.09-1.35,4.53-3a1.93,1.93,0,0,1,3.7,0C172.54,179.42,174.31,181,177.23,180.54Z"/><path class="cls-9" d="M131.24,185.35a12.13,12.13,0,0,1-9.22-4.24c-2.6,2.73-7.89,4.55-11.19,1.64-2.38,2.76-7.07,2.38-10,.68-4,1.67-9.59,1.34-11.82-1.52-2.33,2.56-9.82,3.21-12.49.78-8.45,5.73-30.76-.63-20.68-12.87-10.9-15.95,19.83-25.38,23.4-12,2.73-7.93,16.19-7.4,18.26-1.15,2.69-5.08,10.09-4.58,13.93-2.14,2.46-1.3,5.38-1.24,8.3-.71,2.56-2.21,8.24-2.31,12,.35,3.88-2.43,6.12-2.37,9.84-.9,5.79-2.46,17.16-.32,19.57,3.18,2.29-4,6.39-4.33,10.14-4.48,5.89,0,7.49,4.56,8,6.05L185,174.39c3.95,9.44-9.66,13-14.74,7.52-2.24,2.31-8.21,3.05-11.39,1.48-2.14,1.28-5.84,1.59-8-.21-3.71,2-8.95,2.63-11.67-.8A11.81,11.81,0,0,1,131.24,185.35Zm-9.14-9.23a1.92,1.92,0,0,1,1.61.89,8.48,8.48,0,0,0,14.44.89,1.93,1.93,0,0,1,3.41.66c1.31,4.82,7,1.31,9.51.17,2.54,1,3.08,3.12,6.31,1.14,2.47-1.67,3.48,1.26,6.63.44,5.61,0,3-3.74,6.37-4.44,3.46.67.92,5.43,6.85,4.67,1.44-.1,3.2,0,4.15-1.39,1.88-2.26-5.39-17.41-5.68-19.91a4.44,4.44,0,0,0-5.33-3.46c-5,.25-6.08,1.74-6.87,5.33-3.84,5.48-2.27-5.76-14.93-5.08-3.22-.7-6.45,2.14-8.42.85a4,4,0,0,0-3.19-.73c-3.49-.54-4.36,6-7.26,1.31-1.5-1.55-3.41-1.27-5.16-1.5-3-.18-2.62,2.59-5.06,1.75-6.2-2.19-7.76,3.18-10,.15-.78-1.16-3.43-1.21-5.08-1.22-7.46-.19-1.06,9.49-5.33,11-2.84.81-3.66-7-4.63-8.37-1.09-5.68-11.68-3.9-11.9.77-.47,1.28-1.11,6.73-2.93,6.91-1.48.31-5.64-3.06-4.47-4.57,2.06-4.82-1.59-7.37-6.18-6.83-7.9-.28-15.88,5.2-8.41,14.35-.58,2.23-4.09,3.72-3.42,6.34,2.71,5.89,13.93,5.84,18.62,2.47,2.89-1.43,2,1.85,5.6,1.7,3.2.12,5.79-.95,5.93-3.08a1.92,1.92,0,0,1,3.69,0c.22,2.57,3,3.75,5.88,3.19,1.52.45,3.74-2.24,5.3-.79s5.65,2.21,6.52-.56a1.9,1.9,0,0,1,1.4-1.19c2.09-.27,3.14,2.85,5.23,2.52s3.7-1.5,5.15-3.36A1.92,1.92,0,0,1,122.1,176.12Z"/><path class="cls-10" d="M131.24,181.91c-4.78.32-5.82-3.33-9.14-5.41v-.38l0,.38a1.55,1.55,0,0,0-1.3.79c-1.56,2-3.08,3.25-5.48,3.56-2.12.36-3.15-2.57-5.16-2.53-1.67.74-1.76,3.35-4.16,3a7,7,0,0,1-4.09-1.36c-1.42-1.16-3.72,1.4-5,.88-.48,0-1.37.11-1.83.09-3.21,0-3.92-1.69-4.43-3.56a1.53,1.53,0,0,0-3,0c0,2.17-3,3.56-6.3,3.37s-2.5-1.43-4.23-2c-3,.9-5.54,2.92-9.48,2.6-8.45-.59-15-3.55-7.47-11.48-.83-2.21-3.41-3.2-3-6.19.59-9,9.62-8.66,14.64-8.38,7.63,1,1.94,7.12,4.3,9.23,1.4.81,3.43,3.61,4.55.94l1.51-5.55c.28-5.06,11.5-6.79,12.63-.8.82,1.18,1.89,8.8,4.2,8.12,3.09-1.21-.56-7.44,2.16-9.87,1.5-1.45,3.3-1.06,5-1,2.72-.15,3,1.35,4.8,2.14,1.8-.26,2.75-1.88,5-1.59a10.07,10.07,0,0,1,3.62.49,1.54,1.54,0,0,0,1.84-.47c1-1.83,7.51-1.94,8.91,1,2.33,3,3-2.56,6.55-2.07a4.3,4.3,0,0,1,3.48.83,1.55,1.55,0,0,0,1.87.14c1.68-1.07,4.12-1,6.29-1.09,6.12,0,10.27,2,11.67,5.51a1.49,1.49,0,0,0,1.5,1c1.17,0,1.5-1.3,1.7-2.22.3-5.06,11.47-6.79,12.62-.8l5.72,16.41c1.71,4-1.65,5.74-5.48,5.43-3.21,0-3.93-1.69-4.43-3.56a1.54,1.54,0,0,0-3,0c-.47,1.77-1.09,3-4.87,3.3-1.36.15-3.19.12-4.1-.69-.73-.64-1.67-.23-2.38.21-3.09,1.86-4,.23-6.5-1.1a1.5,1.5,0,0,0-1.18.51c-.84,1.09-3.61,1.73-5.23,1.77a3.3,3.3,0,0,1-3.46-2.74C139.48,174.64,136.06,182.94,131.24,181.91Zm-9.14-6.17a2.29,2.29,0,0,1,1.94,1.07,8.09,8.09,0,0,0,13.8.87,2.31,2.31,0,0,1,4.09.79c.58,3.41,5.79,2.1,7.38.63a2.31,2.31,0,0,1,3.49.11c1.33,1.84,3.57.87,5.11-.05,1.82-1,2.72,1,4.71.84,2.78.11,5.62-.86,5.55-2.8a2.3,2.3,0,0,1,4.43,0c.47,1.75,1,3,3.7,3,3,.18,6.4-.71,4.76-4.39l-5.72-16.43c-.72-2.05-1.61-3.24-4.05-3.24-4,.07-6.54.91-7.12,4-.06,2.59-3.44,4-4.64,1.33-1.11-4.16-9.05-5.73-14.42-4.83-2.05.06-3.44,2.13-5.21.55a3.16,3.16,0,0,0-2.11-.68c-4.07-.38-3.22,2.58-6,3-2.93-.42-1.56-3.08-6.2-3.06-4.64-.58-2.63,3.06-8,1.29-.42,0-1.15-.1-1.58-.08a4.85,4.85,0,0,0-3.36,1.07c-3.14,2-2.87-2.27-7.86-1.67-5.11-.79-3.83,5.6-3.79,8.63.16,2.55-3.7,3.26-4.46.82-1.6-3.21-2-11.53-7.42-10.32-9.3-.15-4.63,8.35-9.45,11.14-1.77.46-2.54-1.44-4-2.12-2.14-1.28-.54-3.15-.49-5.15,1.07-7.31-18.43-4.86-17.3,3.64.09,5.52,6.38,4.32.37,9.85-3.38,5.2,5.3,7,9.33,7.06,4.48,1,8.47-4.5,11.1-1.63l-.26.3.31-.23c.11.65,2.55,1.24,3.93.91,3.36-.23,3.78-1.19,4.19-2.73a2.3,2.3,0,0,1,4.43,0c.47,1.75,1,3,3.69,3,1.48-.15,2.89.21,4.38-.81,2.2-1.75,4,1.58,6.57,1.21,2.28.27,2.06-2.68,4-3,2.18-.47,3.27,2.77,5.31,2.51a7.31,7.31,0,0,0,4.81-3.16A2.32,2.32,0,0,1,122.1,175.74Z"/><path class="cls-11" d="M60,177.43c-1.65-1-1.68-2-.56-3.46,1.32-1.75,1.77-1.89,3.85-1,2.44,1.19,7.33,1.37,7.46-1.66,0-3.54-11.62-.81-11.62-7.62-1.3-7,15.95-9.18,14.94-3.66-.06,1.63-.31,2.14-1.38,2.14-.9-.11-7-1.24-6.84,1.29,0,2.87,12-1.21,12,8.25C77.85,180.07,65.57,181,60,177.43Z"/><path class="cls-11" d="M98.66,176.16c1.12,2.58-.67,2.78-2.82,2.82-3.87.63-3.24-2.56-4.13-5l-5.43.2c-.59,2.52,0,4.68-3.66,4.61-2.14.24-3.78.06-2.9-2.53L84,160.43c.59-2.22,1.23-2.81,5.17-3.09,2.31-.17,3,.25,3.75,2.42Zm-7.94-5.94-2.08-6.64L87,170.23Z"/><path class="cls-11" d="M118.1,173.91c1.93,1.69,1.1,2.79-.76,4s-2.62,1.29-4.22-.34L108,172.28l-.54,5.18c.11,3.46-5.49,1.87-4.92-1L102,161c0-2.25.48-2.84,2.73-2.76s4.43,0,3.88,2.93l-.53,5.54c2.49-2.83,4.59-9.07,9.37-7.79,2,.11,2.33.76,1.1,2.36l-5.77,7.43Z"/><path class="cls-11" d="M134.81,160.41c-.2-2,.2-2.54,2.28-2.71,3.7-.67,2.59,4,2.87,6.31,0,7.71-2.05,16-8.72,16-6.16,0-9.06-7.51-9.06-16.26.12-3-.41-7.36,4.11-6,3.78-.11,2.12,3.46,2.3,5.86C129.1,179.53,137,170.87,134.81,160.41Z"/><path class="cls-11" d="M158.42,174.45c1.89,2.15.24,3.09-1.78,4.05-3.72,2.66-4.53-4.57-5.88-6.56a15,15,0,0,1-2.3,1c.24,3,1.57,6.16-2.71,6.38-2.16.43-2.78-.17-2.84-2.39l-.42-16c-.06-2.19.56-2.87,2.73-3.12,9-2,19.56,4.87,9.65,12Zm-11.2-11.57.62,5.12C155.61,166.89,153.77,160.32,147.22,162.88Z"/><path class="cls-11" d="M179.94,176.16c1.12,2.58-.67,2.78-2.81,2.82-3.88.63-3.24-2.56-4.14-5l-5.43.2c-.58,2.52,0,4.68-3.66,4.61-2.14.24-3.77.06-2.9-2.53l4.31-15.79c.59-2.22,1.24-2.81,5.18-3.09,2.3-.17,3,.25,3.74,2.42ZM172,170.23l-2.09-6.64-1.6,6.64Z"/><path class="cls-12" d="M179,177.74c0-.05,0-.07,0,0Z"/><path class="cls-12" d="M170,163.65l.13.44A.54.54,0,0,0,170,163.65Z"/><path class="cls-12" d="M150.45,171.55c-.43.41-2.34.36-2.51,1.29.25,3.45,1.5,5.76-3.45,6-1,.77,1.37.54,1.83.33,3.73-.18,2.26-3.83,2.14-6.27a15,15,0,0,0,2.3-1S150.68,171.45,150.45,171.55Z"/><path class="cls-12" d="M147.22,162.88c1.53-.43,4.93-1.3,5.66.84-.43-2.44-5.08-2.21-6.19-.78.28.84,0,5.49,1.15,5.06Z"/><path class="cls-12" d="M158.42,174.45l-3.55-4.67c3.08-2.07,4.7-4.82,3.55-7.93-.2-.47-.6-.53-.47-.1.89,4.37-.42,5.11-3.06,7.32-.48.28-.77.58-.56,1,1.39,3.13,7.66,6.13,1,8.34-1.29,1.38,1.85,0,2.25-.39C159.57,177,159.74,176.22,158.42,174.45Z"/><path class="cls-12" d="M128.87,179.55c10,3.2,12-11.85,10.84-20.18-.09-.49-.63-.52-.59-.07.61,7.22.48,22-10.22,19.72C128,178.75,128.39,179.37,128.87,179.55Z"/><path class="cls-12" d="M132.44,172.14c-4.11,1.41-4.07-8.35-3.64-12.58C127.08,157.13,126.63,175.29,132.44,172.14Z"/><path class="cls-12" d="M118.1,173.91l-5.29-5.23,5.77-7.43c.43-.38.9-1.63-.08-.84-.92,1.48-6.2,6.66-6.36,8.39,1.9,2.24,5.63,5.69,6,6.14,1.38,1.55-1.49,2.42-2.25,3.15-.71.45-.16.77.28.56a11.57,11.57,0,0,0,1.65-1.08C119.62,176.25,119.67,175.46,118.1,173.91Z"/><path class="cls-12" d="M107.39,172.2c-.83,2.67.59,8.25-3.69,6-.43-.17-.39.47-.23.57,5.15,2.78,3.87-3.56,4.5-6.49C108,172.28,107.49,171.61,107.39,172.2Z"/><path class="cls-12" d="M108.11,166.68l.55-5.71c0-.72-.65-.67-.71.26C108.17,162.17,106.67,166.53,108.11,166.68Z"/><path class="cls-12" d="M91.48,173.41c-1.71.3-5-.71-5.8.68-.38,3.67-1,4.27-5,4.11-.72,0-.34.53-.09.57a9.61,9.61,0,0,0,2,0c3.65.07,3.07-2.08,3.66-4.61l5.43-.2S91.63,173.42,91.48,173.41Z"/><path class="cls-12" d="M93,159.76c-2.9-4.92,6.12,18.86,5.3,17.49.55,2-5.9.39-3.82,1.73,2,0,5.77.41,4.23-2.82Z"/><path class="cls-12" d="M87,170.23l1.6-6.65c-1.49-.22-1.85,5.76-2.12,6A.59.59,0,0,0,87,170.23Z"/><path class="cls-12" d="M172.77,173.41c-1.72.3-5-.71-5.81.68-.38,3.67-1,4.27-5,4.11-.72,0-.33.53-.09.57a9.6,9.6,0,0,0,2,0c3.65.07,3.08-2.08,3.66-4.61l5.43-.2S172.91,173.42,172.77,173.41Z"/><path class="cls-12" d="M174.23,159.76c-2.89-4.92,6.12,18.86,5.31,17.49.55,2-5.91.39-3.83,1.73,2,0,5.78.41,4.23-2.82Z"/><path class="cls-12" d="M168.32,170.23l1.6-6.65c-1.49-.22-1.85,5.76-2.12,6A.59.59,0,0,0,168.32,170.23Z"/><path class="cls-12" d="M77.86,171.69c.25-.85-.83-4.58-1-2.47a7.33,7.33,0,0,1,0,4.82c-1.11,4.7-13.5,6-16.37,2.83-.52-.39-1.15.14-.48.56C65.57,181,77.85,180.07,77.86,171.69Z"/><path class="cls-12" d="M65.82,163.44c1.26-4.48,9.56,2.16,8.16-4.54-.78-1-.44,1.88-.7,2.31-.17.62-2.22.13-2.61.09a11.64,11.64,0,0,0-4.08.11c-1.58.53-2.7,2.67.22,3C66,164.22,65.82,163.78,65.82,163.44Z"/><path class="cls-12" d="M61.25,167.44c2.77,1.66,8.36,1.43,9.31,3.2-.53-1.84-3.32-2-5-2.4C64.73,168.41,61,166.52,61.25,167.44Z"/><path class="cls-13" d="M63.47,153.42c-7.21.05-10.1,12.83-7.11,10.4-.5-8.16,9.57-9.52,7.11-10.4Z"/><path class="cls-13" d="M54.65,177.2c0,1.08,3.88,4.83,3.61,2.52a10.47,10.47,0,0,1-2-1.61c-.4-.44-1.44-2.43-1.63-.91Z"/><path class="cls-13" d="M75.14,155.52a3.55,3.55,0,0,1,.88.91,8.54,8.54,0,0,1,.63,1.51c1.21,1.08,1-1.37.4-1.92-.26-.94-2.72-2.37-1.91-.5Z"/><path class="cls-13" d="M83.48,154.3c-1.68,0-5.92,8.26-3.64,7.55.94-2.47,1.81-5.19,4.11-6.74.43-.3,0-1.08-.47-.81Z"/><path class="cls-13" d="M93.12,155.19a4.7,4.7,0,0,1,.57.51l-.07-.08c.18.2.34.42.53.61l-.08-.08.12.13-.08-.09c.34.46,1,.17.8-.4s-2.33-2.11-1.79-.6Z"/><path class="cls-13" d="M77.12,182c.64,1,4.77,1.64,3.06,0a5.54,5.54,0,0,0-.9-.19l.06,0a4.27,4.27,0,0,1-1-.39c-.42-.56-2-.62-1.17.55Z"/><path class="cls-13" d="M90,180.79c.51.73,3.7,2.19,2.74.49A8.5,8.5,0,0,1,90.56,180a.5.5,0,0,0-.61.79Z"/><path class="cls-13" d="M101.16,182.13c1.36,1.3,4.43.21,1.57-.47a4.33,4.33,0,0,1-1-.38c-.24-.34-1.26.32-.59.85Z"/><path class="cls-13" d="M111.12,181.46c.58,1.22,4.35,1.66,2.49.06a5,5,0,0,0-.55-.11l.15,0a2.45,2.45,0,0,1-1.24-.65c-.11-.42-1.41-.1-.85.67Z"/><path class="cls-13" d="M102.55,154.57c-3.92-.18-5.71,8-3.62,6.6,0-5.67,5.68-5.85,3.62-6.6Z"/><path class="cls-13" d="M114.06,156.36l.16-.09a3.57,3.57,0,0,1,.68-.27s.9-.12.8-.54c-.38-1.26-3.55,1-1.64.9Z"/><path class="cls-13" d="M121,155.94c1.57-1.4,3.72-1,5.62-1.08,1.48-1.42-2.66-1.19-3.47-.94-.76-.07-4.15,1.93-2.15,2Z"/><path class="cls-13" d="M134.1,155.34a5.48,5.48,0,0,1,3.91-1,.5.5,0,0,0,.42-.43c-.22-2.27-7.32,1.15-4.33,1.44Z"/><path class="cls-13" d="M142.89,155.45c1-1.12,8.55-.07,7-1.57C148.89,153.21,140.21,154,142.89,155.45Z"/><path class="cls-13" d="M162.81,157.18c.65-1.93,7-2.13,5.14-3.18-1.41-1.05-7.61,3.17-5.14,3.18Z"/><path class="cls-13" d="M122.49,179.57c.37.72,3.31,4,3.27,1.88a16.47,16.47,0,0,0-1.38-1.27c-.46-.59-2.17-2.56-1.89-.61Z"/><path class="cls-13" d="M139.46,180.36c1.09,3.21,7.69,3.14,2.7,1.14a4.74,4.74,0,0,1-1.11-.78c-.31-.48-1.63-2-1.59-.36Z"/><path class="cls-13" d="M152,181.88c.71,1.09,4.79,1.47,3-.13-.48-.1-.92-.09-1.24-.19s-2.57-1.27-1.73.32Z"/><path class="cls-13" d="M160.56,182.3c1.17.54,4.25,1.43,4.64-.23-1-.86-3,.22-4.24-.79A.55.55,0,0,0,160.56,182.3Z"/><path class="cls-13" d="M182.66,173.26c1.12,3.2.82,7.81-3.19,8.59-.34.09-.25.57.05.64,6.91,1.08,4.55-12.5,3.14-9.23Z"/><path class="cls-14" d="M64.37,158.29c-2.67-.18-5.35,5.66-2.83,4.09a6.63,6.63,0,0,1,1.94-2.45c.4-.2,2.63-1.23.89-1.64Z"/><path class="cls-14" d="M60.82,174.84a1.62,1.62,0,0,1,.62-.32l-.14,0a2.33,2.33,0,0,1,.46-.08H61.6a1.56,1.56,0,0,1,.43,0l-.15,0c.77.42,1.42-.76.58-1.1-1.07-.72-3.73,1.56-1.64,1.45Z"/><path class="cls-14" d="M72.85,167.16c.86.12,1.32.77,2,1.4,1.14.25.09-1.37-.44-1.57C73.94,166.4,71.74,166.13,72.85,167.16Z"/><path class="cls-14" d="M87.43,158.21c-3.51-.48-3,7.08-.87,1.78-.1.18.17-.3.24-.37-.19.23.26-.3,0,0a1.56,1.56,0,0,1,.72-.44.47.47,0,0,0-.13-.93Z"/><path class="cls-14" d="M81.34,177.12c.16-1,1.49-2.46.76-3.39-1.23-.69-2.41,4.79-.76,3.39Z"/><path class="cls-14" d="M87.4,171.59c.48,0,1.5-.27,1-.91C87.71,170.05,86,171.31,87.4,171.59Z"/><path class="cls-14" d="M96.91,177.17c.52-1.13-1.38-3.42-1.28-1.28l0-.13c.24.51.61,2.59,1.32,1.41Z"/><path class="cls-14" d="M105,158.92c-3.9-1.4-1.68,7.65-.91,1.76,0,.35.06-.26.1-.32s.13-.27,0-.06a2.53,2.53,0,0,1,.13-.22s-.1.11,0,0c.25-.19.11-.14.4-.19.37.18,1-.73.29-1Z"/><path class="cls-14" d="M104,176.58c.26-.59-.22-2.38-.81-1.2l0-.1c-.16.39,0,.84,0,1.25v-.11a.41.41,0,0,0,.81.16Z"/><path class="cls-14" d="M113.53,161.57c.23-.21.75-.64.86-.72l.17-.08c.34-.12,1.87-.08,1.9-.89-.33-.81-1.61-.3-2.27-.17s-2.14,2.18-.66,1.86Z"/><path class="cls-14" d="M115.63,175.43c.36.59,1.68,1.34,1.6.12-.2-.8-2.12-1.46-1.6-.12Z"/><path class="cls-14" d="M125.34,158.79c-3.8-1-2.13,5.33-2,7.52,2.11,2.4.5-5.61,1.16-6.65a.3.3,0,0,0,0,.1l-.29.14c.61-.05,2.35-.43,1.16-1.11Z"/><path class="cls-14" d="M136.94,158.82c-3.55-.27.21,8.33-.25.85v0c-.49.45-.11.2.08.15.65.1,1.11-1,.17-1Z"/><path class="cls-14" d="M126.22,176.19c1.28,3.06,5.66.88,2.15.53a2.32,2.32,0,0,1-.57-.22c.11.07-.32-.21-.4-.3a1.28,1.28,0,0,1-.19-.17c-.23-.6-1.18-.59-1,.16Z"/><path class="cls-14" d="M145.78,159.08c-3.88-.94-2.27,5.74-2.22,8,1.59,1.67.76-3.37,1-4.19-.32-3.88,2-2.6,1.23-3.78Z"/><path class="cls-14" d="M143.87,176c0,.54-.2,1.56.56,1.61,1-.21.17-3-.56-1.61Z"/><path class="cls-14" d="M153.36,176.09a4.37,4.37,0,0,1,.27.68l0-.14c-.09,1,1.33,1.52,1.3.3,0-.89-1.51-2.59-1.53-.84Z"/><path class="cls-14" d="M150.32,168.94c.64-.11,3.16-1.26,1.89-1.8C151.77,167.44,148.67,168.65,150.32,168.94Z"/><path class="cls-14" d="M155.49,161l0,0a4.58,4.58,0,0,1,.28.38,4.33,4.33,0,0,1,.27.71l0-.11c.06.7,1,.81.91,0,.2-.83-1.85-2.59-1.45-1Z"/><path class="cls-14" d="M169,158.68a3.39,3.39,0,0,0-1.17.15c-3.31,1.15-2.32,8.13-.07,1.46-.06.12,0,0,0,0,.08-.18.28-.24.46-.45s1.77-.66.76-1.14Z"/><path class="cls-14" d="M162.58,176.92c.4-.66,1.84-4,.06-2.85-.12.53-1.36,3.67-.06,2.85Z"/><path class="cls-14" d="M168.7,171.64c.66.2,1.75-.44.82-1C168.76,170.28,167.59,171.21,168.7,171.64Z"/><path class="cls-14" d="M176.94,177.57c1.58.72,1.7-1.82.82-2.57l.11.1c-.41-.6-1.2-.29-1,.43v-.15a1,1,0,0,0,.07.44l-.05-.15a5.67,5.67,0,0,1,.23,1.07v-.16a.83.83,0,0,1,0,.22l0-.16a.56.56,0,0,1,0,.12l.07-.14,0,.06.1-.12-.07.07.12-.09-.06,0,.14-.05h0l.16,0C176.92,176.23,176.34,177.19,176.94,177.57Z"/></svg>