<svg id="Layer_1" data-name="Layer 1" xmlns="http://www.w3.org/2000/svg" viewBox="0 0 128 85.04"><defs><style>.cls-1{fill:#fcbf60;}.cls-2{fill:#f68c2e;}.cls-3{fill:#faa931;}.cls-4{fill:#c75e28;}.cls-5{fill:#ffe745;}</style></defs><path class="cls-1" d="M122.73,23.24C113.25,8.1,93.65-1.34,75.49,3.65,66.89-1.47,53.25-2.44,49,9c-3.78,2.33-9.06,8.62-9.4,13.82,0,0-7,4.48-6,12.61,0,0-17.72-12.67-21.91-14.55s-5.33.85-3.76,6.43c-3.62,4.41-2.55,18.92,2.37,22.5,0,0-6,4.91-5.28,12.24-.36.06-7.87,10.31-3.85,11.71,7.6,5,21.13,5.65,32.17.33,0,0-1.58,10.43,10.16,8.25a15.8,15.8,0,0,0,13.24,1.6A10.58,10.58,0,0,0,70,80.75c12.3-.85,60.31-14.62,55.18-44.11,2.31-.31,4.32-5.32,1.4-7.25C129.24,26.83,125.93,22.21,122.73,23.24Z"/><path class="cls-2" d="M55.2,76.86Z"/><path class="cls-2" d="M55.2,76.86h0Z"/><path class="cls-2" d="M111.17,60.84c-2.87,1.14-5.62,2.57-8.68,3.2a.43.43,0,0,0-.41.46c-.32,2.11-2.39,3.47-4,4.44-1.39.9-3.28,1.43-4.78.49a.42.42,0,0,0-.56-.4c-.24-.14-.48.22-.3.43a5.76,5.76,0,0,1-2.12,3.31c-1.83.45-4.11.84-5.52-.81a.23.23,0,0,0-.4.2c-.8,0-.62.84-1,1.29a5.44,5.44,0,0,1-2.56,1.62c-1.17-.07-2.43.18-3.53-.47-.14-.09-.36-.26-.52-.13-1.65-1.63,1.54,2.8-4.4,3.79-.6-.56-1.7,0-2.38-.66-.51-.3-2.88-2.51-2-.64-3.19,2.28-9.62,2.58-11.78-1.16a.26.26,0,0,0-.48.17c-2.87.74-5.94,1.5-8.89.64-1.18-.71-2.93-.92-3.53-2.42a.24.24,0,1,0-.43.23c-2,.41-3.57-1.47-5.24-1.71C35.64,71,34,74,35.19,74.13c7.28,3.42,15.7,4,23.58,4.67,2.53,1.11,5.2.4,7.83.39,3.23,0,6.54.1,9.49-1.41,3.8-1.09,7.53-2.86,11.44-3.79a4.74,4.74,0,0,0,3-.73,3,3,0,0,0,.8-.45c1.78-.42,3.62-1.65,5.41-2.28S114.21,62.46,111.17,60.84Z"/><path class="cls-3" d="M71.79,19.13c-.76-.4-1.4,1-1.85-.13-3.26-3-1.13,6.53.62,7.05.27.38,1.22.58,1.26-.09C72.4,24.42,73.31,20.19,71.79,19.13Z"/><path class="cls-3" d="M67.57,22.54a2,2,0,0,0-.39-.43.43.43,0,0,0,0-.52c.66-5.9-.72-1.9-2.53-2.05a1.76,1.76,0,0,1-1.48-1.69c-.49-1-.9.48-.54,1-.87.47.3,1.52.62,2a1.68,1.68,0,0,0,1.12,1.38C64.89,23.26,67.9,24.47,67.57,22.54ZM66,22.38h0Z"/><path class="cls-3" d="M71.53,30.89c-.23-.81-1-.48-1.36.08-2.84,2.43-5.35-3.85-4.85-1.13-.73.41,0,1.46.32,1.93.54,1.62,2.19,2.28,3.46,3.22C72.09,36.73,71.59,32.7,71.53,30.89Z"/><path class="cls-3" d="M64.63,24.62C63,23.53,62.75,26.84,61,26.5a4.33,4.33,0,0,1-4-2.32c-.33-.44-.66.14-.38.47-.53,3,5.65,6.33,8,4.84C65.06,28.06,65.59,25.94,64.63,24.62Zm-.62.7s0-.05,0,0Z"/><path class="cls-3" d="M55.09,22.61a.36.36,0,0,0-.35.18c-2.86.86-2.22,6.54-4.53,6.08-4.4.13-.14,5.34,2.28,4.45.83-1.82.61-4.24,2.14-5.89C56,26.25,57.89,23.24,55.09,22.61Z"/><path class="cls-3" d="M61.39,30.68c-3.33-1.11-4,1.31-4.24,4-.6.24-1.48-.16-1.94.5-1.16,2,3.16,3.77,4.7,3.54,1-1,.31-2.78,1-4C61.18,33.37,63.25,31.63,61.39,30.68Z"/><path class="cls-3" d="M69.68,37.19A1.58,1.58,0,0,0,68.23,36a.38.38,0,0,0-.69,0,.26.26,0,0,0-.27.3c-1,.75-.17,3.44-1.39,3.46-.83-.34-1.61-1-2.58-.77-4.12,2,3.49,6.67,5.47,4.57C69.43,41.5,69.27,39.24,69.68,37.19Z"/><path class="cls-3" d="M74.28,44.44c-.48-.51-1.14-5.23-1.91-3.27-.72.17-.87,1-1,1.61C66.58,43.53,75.36,49.39,74.28,44.44Z"/><path class="cls-3" d="M74.9,49.94a2.45,2.45,0,0,0-1.82-2.34c-1.28-1.21-2.86.22-3.7,1.19.23,1.66,2.92,1.26,4.12,1.93C74.23,51.32,75.22,51,74.9,49.94Z"/><path class="cls-3" d="M65.09,44.44c0-1-1.52-.64-1.9,0s-.84,1.16-1.6,1.08c-1.2-.18-3.39-1.2-3.55.79.54,2.75,4.46,1.13,6.34,2C66.65,48.89,66.45,45.37,65.09,44.44Z"/><path class="cls-3" d="M58.06,41c0-2.29-3.94-4-4.68-1.3a22.35,22.35,0,0,1-.18,2.73c-.66-.21-1.59-.82-2,.12-.33,2.4,3.48,3.9,5.48,4a8.33,8.33,0,0,0,1.16-5.24A.27.27,0,0,0,58.06,41Z"/><path class="cls-3" d="M50.27,34.78c-2-4.53-6-1.94-4.77,2.4-3.89-3.47-3.65,5.49,3,5.44,1.76-.11.87-2.84.81-3.87C49.08,37.3,50.28,36.13,50.27,34.78Z"/><path class="cls-3" d="M42.05,37.19a2.09,2.09,0,0,0-3.61.42c-.47.73-.2,1.71-.68,2.42C35,41.48,36,44.13,38,45.8c2.25,1.42,1.5-1.78,1.84-3,.19-1.88,2-3.28,2-5.16A.3.3,0,0,0,42.05,37.19Z"/><path class="cls-3" d="M47.37,47c.6-1.23.86-2.87-.41-3.77-2.53-2.83-5,1.15-3.48,3.94-2.58,1.51,1.65,3.48,3.11,3.14C47.57,49.59,46.7,48,47.37,47Z"/><path class="cls-3" d="M54,45.78c-1.78-1.08-4.33.55-4.68,2.52-.14,1.19-1.83,3.91.38,4.08,1.1-1.12,1.09-3.2,2.7-4.05C53.3,47.81,55.38,46.94,54,45.78Z"/><path class="cls-3" d="M46.64,58.85c-.1-1.33-1.06-2.49-1-3.86.7-1.62-.2-3-1.14-4.31a.29.29,0,0,0,0-.48C43,48.85,41,49.91,41,52c-.41,1.46,1.07,2.79.35,4.13a1.79,1.79,0,0,0-.3,1.19C41.27,58.9,46.69,61.51,46.64,58.85Z"/><path class="cls-3" d="M38.5,48.17c-.82-1.51-3-1.37-3.13.51-.26,1.5-.59,2.28-2.11,2.65-1.28,1.68,3,4.87,4.37,3.53.2-1.16-.21-2.42.16-3.6C37.75,50.23,39.1,49,38.5,48.17Z"/><path class="cls-3" d="M54.76,59.93c-1.48-3.19-8-5.8-5.09.09C47.25,62.07,57.88,64.53,54.76,59.93Z"/><path class="cls-3" d="M36.71,56c-2.13-1.09-3.49,0-3.43,2.32-.35.82-.94,1.65-.23,2.49.88,1.22,3.27,3.2,3.5.53C36.48,60.54,38.49,54.63,36.71,56Z"/><path class="cls-3" d="M44,70.14c-.08-.41-.49-.87-.93-.68a2.43,2.43,0,0,0-3.65.38C32.84,70.23,43.9,81.16,44,70.14Z"/><path class="cls-3" d="M45.49,62c-2.42-4-5.42-1.73-4.54,2.21-1.39.81-.84,2.71.43,3.37,2.84,1.69,5.38,2.27,4.49-2.06C45.41,64.66,46.82,61.45,45.49,62Z"/><path class="cls-3" d="M56.56,69.11c-.81-1.5-.18-3.66-1.76-4.66-.2-.9-1.72-.82-2.41-.47-1.67.78-1.47,2.77-1.77,4.26-.51.42-1.58.19-1.71,1.14C48.57,73.06,57,73,56.56,69.11Z"/><path class="cls-3" d="M55,74.87c-.92-3.25-4.35-3.85-6.58-1.47-1.35.4-2.7,1-1.71,2.61,1.28,2.15,8,2.17,8-.9C54.92,75.13,55.08,75,55,74.87Z"/><path class="cls-3" d="M67.62,77c-.15-4.08-2.94-4-5.84-2.26-.65.17-1.42.08-1.63.88C59.19,79.26,67.82,80.61,67.62,77Z"/><path class="cls-3" d="M64.86,70.87c-.6-1.2-2.59-2-3.82-2.12-2.85-2-4.08.84-2,2.9C60.43,72.81,64.84,73.52,64.86,70.87Z"/><path class="cls-3" d="M76.25,74.72A4.11,4.11,0,0,0,75.33,73c-.09-4.09-3.53-.84-5.69-.77-1.07.84.23,1.82.94,2.33.55.54.82,1.26,1.32,1.83C73.32,78.28,76.82,77.26,76.25,74.72Z"/><path class="cls-3" d="M84.61,69.23c-1.18-1.25-3.31.06-4.7,0-1,.13-1.55-.86-2.45-.81a4.25,4.25,0,0,0-2.41,2c-1.15,0-.08,1.81.65,1.9,1.82.59,3.59-1.08,5.42-.52C83.24,73.32,86.21,71.76,84.61,69.23Z"/><path class="cls-3" d="M83.82,63.75c-.91-1.91-1.6-.75-2.12.61-.61,1.7-2.68,2.44-3.16,4.22a1.66,1.66,0,0,0,2.8.4c.83-1.63,2.57-2.79,2.38-4.84A.26.26,0,0,0,83.82,63.75Z"/><path class="cls-3" d="M89.1,62.5c-1.92-1.82-6.4-4.25-5.66.48.23,1.19.29,2.83,1.48,3.49,1.8.9,2.17-2,3.72-1.88C89.79,64.6,89.88,63.08,89.1,62.5Z"/><path class="cls-3" d="M86.1,67.18c-.25-.13-.65-.26-.83,0-.61.87-1.89,3.4-.09,3.64,1.3.22,2.7.84,3.89-.07.61-.36,1.31-1.51.49-2"/><path class="cls-3" d="M100.09,65.18c-1.5-1.91-4.14-.66-6.13-1.24a.37.37,0,0,0-.44.49c-1.81,3.43-.75,4.75,3,3.84C98,68.89,100.91,66.73,100.09,65.18Z"/><path class="cls-2" d="M77.15,51.91c0-1.2-1.24-1.84-1.44-3a2.41,2.41,0,0,0-.95-2.23c-3.14-5.21-2.42-11.7-2.89-17.5a9.9,9.9,0,0,0,.41-4c0-.43.43-1.1,0-1.41.4-4.35,3-8.68,2.3-13-.16-.4-.87-.14-.72.28C74.05,16.35,70.93,21.52,71,27a25.87,25.87,0,0,1-2.68-3.06.58.58,0,0,0-.21-.26c.58-1.16-.55-2.54-.06-3.84,0-1,.8-2.28.33-3.14.09-.58,2.11-2.67.58-2.33-1.71,1.7-4.58,8.42-1.37,9.51-.33,2.08,1.93,3.78,3.33,5A36.58,36.58,0,0,0,71,35.79c-1.57-.54-3.58-.54-4.37-2.32-1.69-.3,1.56,3.56,2.25,3.78.15.1.15,0,.1.23-.69,1.47-1.45,3.3-.92,4.94,1.16,1.62,2.16-5,3-5.78a.48.48,0,0,0,.18.31c.5,3.37.9,7,2.55,10a9.39,9.39,0,0,1-4.5-2.52c-.43-.72-.83.1-.49.59.55,2,2.7,2.51,4.12,3.71.65.7,1.66,3.39,2.08,1,.29.79,1.11,1.37,1.2,2.24C76.25,52.55,77.19,52.52,77.15,51.91Z"/><path class="cls-2" d="M102.84,65c-7.09-.25-12.63-.69-18.65-4.52a.38.38,0,1,0-.62.42c1.9,2.62,5.25,3.66,8.23,4.43.57,1.22-.41,2.5,0,3.76a10.51,10.51,0,0,1-4.47-1c-2,.58,3.52,2.14,4.22,1.85,0,.48.26,1.1-.14,1.47-.29.79,1,.65,1.06,0a3.31,3.31,0,0,0,0-1.71c.59-.09.27-.77.21-1.15-.1-1.06.57-2.13.16-3.19.4,0,.89.16,1.24,0C95.19,65.08,104.9,67.38,102.84,65Z"/><path class="cls-2" d="M62.16,21.56a4.38,4.38,0,0,0,1.73,2.38c-.08,1,1.41.95.83,2.46-.52.68-1.33,6,.3,4A9,9,0,0,1,66.45,25a.52.52,0,0,0-.08-1c-7.18-2.4-2.43-7.54-4-11a.33.33,0,0,0-.55.35c.43,2.67-1.25,5.55.36,8.15A.17.17,0,0,0,62.16,21.56Z"/><path class="cls-2" d="M66.74,43.54a21.22,21.22,0,0,0-3-.53c-.67-.18-2.19-3.2-2.39-1.64.7,1.87,2.53,2.75,3.91,4a.36.36,0,0,0,0,.27c-1,.71-.33,4.13.91,2.75C66.3,46.44,70.66,43.9,66.74,43.54Z"/><path class="cls-2" d="M57,37.78a11.51,11.51,0,0,1-4-3.5.44.44,0,0,0-.76.45,10.23,10.23,0,0,0,5.3,5.12l.09,0c-1.75,3.72-.33,8.69,1,1.26C60.92,39.51,58.7,38.47,57,37.78Z"/><path class="cls-2" d="M60.36,38.27A11.76,11.76,0,0,1,63,31.41c.94-.28.95-1.45-.13-.92-2.2-.87-4.46-1.62-6-3.57-2.78-.22,3.15,5.21,4.88,4.68-1.83,1.86-4.18,4.93-1.61,7.21C60.43,39.06,60.64,38.52,60.36,38.27Z"/><path class="cls-2" d="M56,25.7c.25.2.62-.17.4-.42a2.32,2.32,0,0,1-.28-1.91c.09-1.41,1.33-2.66.84-4.1-.08-.58-1.34-1.9-1.53-.78C57.67,20.45,53.6,23.6,56,25.7Z"/><path class="cls-2" d="M47,29.13a6.59,6.59,0,0,0,1.51,3.53c1.66,2.46-1.51,5.2.26,7.58C49.76,41.3,50,35.5,50.9,34.6c.51.3,1.28-.48.64-.85a6.08,6.08,0,0,1-3.29-3.21c-.48-.46-.53-6.15-1.46-4.14A7.81,7.81,0,0,1,47,29.13Z"/><path class="cls-2" d="M57.37,46.69a4.83,4.83,0,0,1-4.22-1.61c-1.79-.17,1.34,2.17,2,2.24C55.44,48,59.07,47.52,57.37,46.69Z"/><path class="cls-2" d="M45.2,42.92A6.4,6.4,0,0,0,47.37,44a5.8,5.8,0,0,0-.26,1.93c.6.85.7-.45.94-.83,1.18-2,2-3.33-1.06-2.19-1.32.07-3.83-3.86-3.83-2.74A5.81,5.81,0,0,0,45.2,42.92Z"/><path class="cls-2" d="M43.41,50.71c1.84.71.62,3.08,1.8,4,1.62.69,1.51-2.31,1.64-3.3-.22-1-2.15-1.79-3-1.38C42.32,48.32,42,49.49,43.41,50.71Z"/><path class="cls-2" d="M39.61,43.14c.72-1.34.51-3.14,1.7-4.29.53.7,1.34-.56.56-.78-1.49-1.74.52-5-1.82-6.15-.4-.16-.61.46-.22.64,1.38,1.11.07,3.31.71,4.8a8.77,8.77,0,0,1-1.36,2.76C38.87,40.84,38.22,43.61,39.61,43.14Z"/><path class="cls-2" d="M36.77,46.09c.37.66.12,1.42.23,2.13.15,1.6,1.89,1.23,2-.16,1.15-1.49-.56-2.18-1.73-2.77C35.34,42.13,35.22,43.9,36.77,46.09Z"/><path class="cls-2" d="M38.13,56c.71-.69-2.07-1.62-2.41-1.27-.29-.46-1.09-.19-.72.33.36.36.79.68,1.12,1.06-.25.91-.68,2.36.59,2.78,1.1,0,.95-1.83,1.16-2.65Zm-1.23,2h0Zm0,0Z"/><path class="cls-2" d="M45.9,60.36a9.52,9.52,0,0,1-1.2-.28c-1.07-1.33-1.88-.65-.6.58.39.87,0,2.05.71,2.77C46.33,64.8,48.28,60,45.9,60.36Z"/><path class="cls-2" d="M44.67,68.7c-.84.25-2-.33-2.67.11-1.36-.48-2.29-1.61-3.46-2.44-1.75.27,3.25,3.88,4.24,3.51h.1c-.52.66-.74,3.94.62,2.56C43.42,71.47,45.84,68.93,44.67,68.7Z"/><path class="cls-2" d="M56.22,71.27a10.69,10.69,0,0,0-3.46.67,7.26,7.26,0,0,1-2-.71c-1.07.14.58,1.08,1,1.21,1.08.43,2.88.43,2.36,2.06a1,1,0,0,0,.19.5c-.86,2.08,1.32,2.92,1.29.42C56.06,75,57,71.42,56.22,71.27Zm-1.16.89Z"/><path class="cls-2" d="M56.36,62.92a1.25,1.25,0,0,0-.42-.08c-2.08-2.39-4.7-4.81-5.74-8.08.83-.31-1.23-2.88-1.69-2.13-3-4-.73,1.85,1.2,2.14a14.73,14.73,0,0,0,5.15,8.12c-1,.2-2.19-.34-3.06,0-6.07-4.51-2.4.1.73,1.37.95.6,2.78.13,2.24,1.72C55.53,69.36,57.71,63.39,56.36,62.92Z"/><path class="cls-2" d="M67.76,75.83a.34.34,0,0,0-.35,0,3.19,3.19,0,0,1-.89-1.59c.45-.73.78-1.91.09-2.52s-2-1.26-2.7-.64c-4-3.14-2.44-.49.06,1-1.38.39.41,1.09.79,1.54s.5,1,1,1c.23.84.71,1.92,1.63,2.19A.51.51,0,0,0,67.76,75.83Z"/><path class="cls-2" d="M84.59,69.57c.13-.83-1.19-1-1.39-.22a4.9,4.9,0,0,1-2.37-.24c-1.53.52,1.74,1.39,2.31,1.15a1.41,1.41,0,0,0,.24.51c.28.68-.85,3.78.6,2.87C84.52,72.36,84.08,70.88,84.59,69.57Z"/><path class="cls-2" d="M81.17,64.72a2.56,2.56,0,0,0,.75-1.15c.88-.61,1.76-3-.2-2-.43-.47-1.89-.19-1.74.54l-.08,0c-2.82-.79-2.77-3.83-2.64-6.2,0-.22-.38-.29-.45-.07-1.09,2.76,0,7.14,3.47,7.21a3.48,3.48,0,0,0,.69.43,2.22,2.22,0,0,1-.43.55C80.12,64.48,80.75,65.1,81.17,64.72Z"/><path class="cls-2" d="M79.67,56.73c.24.82,3.83,4.86,3.6,2.42C82,58.94,77.5,51.92,79.67,56.73Z"/><path class="cls-2" d="M77.16,5.92c-1.19-.7-3.15-1.1-4.27-.1C57.65,11.35,46,24,35.75,36c-3.67.24-1.07,7.08-.73,3.95a10.91,10.91,0,0,1,3.28-5.89c.58,0,.8-.88,1.42-1,.52-.36,1.27,0,1.69-.44a.33.33,0,0,0,.54-.2c.45-2.59,2.69-6.07,5.64-5.65a.44.44,0,0,0,.54-.68c1.34-3.17,4.46-9,8.62-6.64.47.37,1.11-.31.66-.68,1.47-1.1,3.45-5,5.25-4.64a.26.26,0,0,0,.06.36c.33.71,1.08-.14.78-.64,1.41-2.33,6.86-4.08,5.85.31a.38.38,0,0,0,.63.29,6.43,6.43,0,0,1,4-3.33c.64-.28,1.79,1.24,1.74-.2C76.69,9.57,79,7.48,77.16,5.92Z"/><path class="cls-3" d="M39,26.48c-2.67-.2-5,8.19-2.09,6.36.34-2.08.77-4.25,2.52-5.63C39.83,26.91,39.41,26.41,39,26.48Z"/><path class="cls-2" d="M105,29.23c-2.14,4.05-6.55,2.2-9.59,1.71-.24-.18-.94-.63-.79,0A6,6,0,0,0,99,33.07c2.48,0,5.82-.94,6.73-3.51A.42.42,0,0,0,105,29.23Z"/><path class="cls-3" d="M47.35,20.42c-1.08.43-1.92,1.35-3.09,1.55.12-.85.83-1.49,1-2.26a.42.42,0,0,0-.14-.5c.49-.15,1.19-.93.29-1-2.54.33-5,5.36-1.35,5.78,1.42.76,3.28-1.54,3.62-2.82A.41.41,0,0,0,47.35,20.42Z"/><path class="cls-3" d="M55,15.07c-.29-1-1.42-.92-2.24-1.06-.73-.68-1.54.12-1.9.84-1.29.73.51,2.32,1.42,2.51S55.21,16.28,55,15.07Zm-.84.32h0Zm-.05.08a.41.41,0,0,0,.05-.09s0,0,0,0Z"/><path class="cls-3" d="M70.24,4.59C66.05.5,58.48,2.88,54.64,6.46c-1.18,1.13-2.7,2.16-3.26,3.75-.6,1.06.58,2.19,1.38,1.06C55,7.84,59.23,4.38,63.53,4.87a.93.93,0,0,0,.32,1.52c.63.3.43,1.19,1.12,1.43C66.2,8,71.73,6.44,70.24,4.59Zm-5.17-.24L65,4.28l.09,0S65.07,4.33,65.07,4.35Z"/><path class="cls-3" d="M38.21,75.48l-.11,0a.76.76,0,0,0-1.35-.08c-1.91-1.45-.51,5,.68,3a.41.41,0,0,0,.25-.11c-.1.55.7.79.78.18C38.29,77.58,39.07,76,38.21,75.48Z"/><path class="cls-3" d="M44.05,78.66c-.08-.63,0-2.21-1-1.71a.81.81,0,0,0-1.27-.15c-1.2-.74-2.39,3-.65,2.68.83.12.55-1.1.85-1.56a1.25,1.25,0,0,1,.33-.45c-.05.69-.11,2.79,1,2C43.84,80.42,44.82,79.05,44.05,78.66ZM42.3,77.32h0S42.29,77.31,42.3,77.32Z"/><path class="cls-3" d="M49.69,79.22a.42.42,0,0,0-.71,0,.4.4,0,0,0-.67-.3.42.42,0,0,0-.64-.07c-1.24-.49-1.41,2.57,0,2a.66.66,0,0,0,.68.15.42.42,0,0,0,.49.06C49.85,81.92,50.08,79.81,49.69,79.22Z"/><path class="cls-3" d="M55.51,79.8a.38.38,0,0,0-.53-.27.35.35,0,0,0-.28-.17,1.32,1.32,0,0,0-1.39-.19c-1.36.38-.89,4.16.65,3.09a.76.76,0,0,0,.67-.41.43.43,0,0,0,.58-.43C56.09,81.52,55.63,80.28,55.51,79.8Z"/><path class="cls-3" d="M61.38,79.86a.43.43,0,0,0-.49-.43.42.42,0,0,0-.59.16.44.44,0,0,0-.67.16c-1.47-.52-.9,3.53.46,2A.92.92,0,0,0,61,81.6C61.77,81.54,61.38,80.4,61.38,79.86Z"/><path class="cls-3" d="M65.39,81c0-.77-1.2-.65-1.62-.32-.44.92.74.81,1.31.72h0A.4.4,0,0,0,65.39,81Z"/><path class="cls-3" d="M15.21,26.58c-.86-.61-5-3.59-3.53-.62-.51.53.1,1.43,0,2.08.61.4.82-1.11.63-1.54a1.18,1.18,0,0,0,.34-.86C13.22,25.74,15.33,27.58,15.21,26.58Zm-3.32-1.23h0S11.87,25.35,11.89,25.35Zm.33,1.24s-.05,0,0,0Z"/><path class="cls-3" d="M33.85,44.2c0-5-18.61-17.77-12.38-12.32,2.61,3.21,8.57,6.8,8,11.22-2,.51-.89,2.66-.07,3.74,1.72,2.77-11.37-1-12.71-1.18-3.38-.79-4.8-4.5-5.37-7.58-1-2.69,2.94-7.47.75-8.75C7.3,29.25,8,37.5,8.59,40.78c-.58,2.65,2.5,6.57,4.68,8.33a17.47,17.47,0,0,0,11,2.39c.74.35,6.36,1.89,4.05,0a2.68,2.68,0,0,1,2-1.37c.69-.28.72-1.29,1.68-.93C32.62,49.51,33.94,44.81,33.85,44.2Z"/><path class="cls-3" d="M35.32,67.43c-.21-.87,1.86-3.62,1-3.9-1.58-.54-4.68-4.34-4.78-5.38-.21-2.28.9-.78-.57-2.44-1.68-2.05-4.75-1.59-7.17-1.62-5.37,4.28-.59,1.1,3.89,3.57C30.41,59,27,59.93,26.14,61c.37,1.21,3,.77,4.16.8.51-.07.55.65.13.84-5.84,3.9-13.37,3.08-20,2.22.42-3.2-2.51-1.4.32-7.59-.07-1.18,4.88-5.66,3-5.3-7.94,5.13-2.71,9.52-7,14-4.16,3.63-.37,9.47-.33,3.93a15.46,15.46,0,0,1,3-3.34c.43.72,2.7,1.08,2,2.06-1.71,1.14-2.9,1.46-.3,2.69,1.29.82-1.49.39-1.93.31s-1.56.12-1.33.94c1.61,2.4,5.34,2.37,8,2.69A46.38,46.38,0,0,0,29.3,73.71C32.76,73.06,37.47,72.14,35.32,67.43Z"/><path class="cls-4" d="M99.84,31c-7.37.11-7.37-11.45,0-11.35C107.2,19.58,107.2,31.14,99.84,31Zm0-10.48c-6.25-.09-6.25,9.71,0,9.62C106.08,30.26,106.08,20.46,99.84,20.55Z"/><path class="cls-3" d="M68.83,51.05c-6-3.15-20.92-4.9-14.19,6.16,1.83,3.41,7.36,3.06,4.73-1.27a.74.74,0,0,1,0-.81c.79-1.38-.45-1.39-.34-2.19C60.24,51.58,69.76,53.2,68.83,51.05Z"/><path class="cls-3" d="M74.81,59.17c-.86-1.3-2.81,0-4,.31-2.7,1.26-9.9,2.17-11.72,2.58.09,1.52,1.74,1,1.68,3.57.34,2.76,5.48,2.87,7.34,1.75,1.25-.69,1.13-2.3,2-3.22.41-.94-1.6-.39-2.14-.56C69.71,61.31,74.18,62.1,74.81,59.17Z"/><path class="cls-2" d="M37,72.14a8.52,8.52,0,0,1-.52-8.31.4.4,0,0,0-.14-.54,8.41,8.41,0,0,1-4.69-4,10.29,10.29,0,0,1,.85-7.18c-.28-2.51-.4-5.25.75-7.64.38-1.16,1.84-1.86,1.43-3.2-.17-.49.09-1.72-.65-1.62l0-.07c2.39-.24-2.38-1.82-2.76-2.5-2.11-.21,2.66,3,1.8,5.07-2.28,3.26-1.69,7.21-2.07,10.89a2.48,2.48,0,0,1-2.7,1,.39.39,0,0,0-.23.74,3.41,3.41,0,0,1,2.48,2.31,4.38,4.38,0,0,0,.55,2.56,6.4,6.4,0,0,0,2,3c.87,2.85-4.94,1.38-3,2.81,2.4,0,5.1,1.11,3.93,4-.23.27-.64.27-.87.49a.41.41,0,0,0-.31.69c.54.72-.22,1.55-.79,1.93-.79,1.21,1.29.63,2,.2.24.94,1.33,2.29,1.71.74C36.27,73.43,37.2,72.79,37,72.14Zm-3.54.08s0,0,0,0h0Zm1.51.71,0-.08.07.05Z"/><path class="cls-3" d="M79.43,62.61c-3,2.44-7.43,3.4-9.14,7.22C68.08,73.92,85.27,62.51,79.43,62.61Z"/><path class="cls-3" d="M83.28,59.21c-.06-1.67-5.1-2.21-3.36-.05C77.25,61.14,84.69,61.39,83.28,59.21Zm-3.23.6s0,0,0,0Z"/><path class="cls-3" d="M120,45.58c-.76-1.82-2.65-.07-3,1.15-1.28,1-3.16,2.67-4.76,2.47-.24-2.26-2.74-2.86-4.67-2.52-1.8.57-3,2.3-4.94,2.62-2.74.61-6.46-.67-8,2.55-1.16-.39-4.1-.35-2.82,1.52.43.92.9,1.78,1.33,2.68C78.7,51.1,73.26,28.21,77.45,14.81c.41.56.64,5.66,1.45,4.12.21-5.33-1-9.67,6-8.3,2.31-.32,3-1.49,5.65-1,4.23-2.76,9,.34,13.33,1.32.37.11.73-.4.41-.68a33.45,33.45,0,0,0-25-3.81C73.32,8.53,73.25,24,73.44,29.59,74.17,43.87,82,54,91.79,63.19,103.49,66.76,122,60,120,45.58Z"/><path class="cls-3" d="M103.64,23.07c-.68-.5-1.8-1.26-1.63,1-1.12,1-2.16,4.34-4.74,2.52C96.78,31.74,106.86,28.23,103.64,23.07Z"/><path class="cls-3" d="M124.59,27.05c-2.67.49-5.78,1-6.88,3.89-.31.61-.89,1.77.13,2.06,1.08-.4,1.88-1.7,3.07-2.12,1.73-1.07,4.51-.68,5.58-2.64C126.93,27,125.36,26.91,124.59,27.05Z"/><path class="cls-3" d="M125.91,34.26c-3.66-2.67-7.59,2.38-11.44,2-2.36-.84-2,1.28.25,1.41C116.74,38,125.73,36.52,125.91,34.26Z"/><path class="cls-4" d="M94.39,20.71c-3,2.95-2.51,9.25,1.67,10.88a.33.33,0,0,0,.3-.58c-4.29-2.89-3.25-6.71-2-10.3Z"/><path class="cls-4" d="M96.12,19.54a6.84,6.84,0,0,1,8.67,1.31c2.95-.18-4.94-3.91-6.45-2.65C97.85,18.31,95.65,19.14,96.12,19.54Z"/><path class="cls-4" d="M106.6,25.2c.58,1.17-2.12,5.1-1.14,4.58.82-.34,2.35-5.18,1.14-4.58Z"/><path class="cls-4" d="M115.3,28.39c.51-.87,9.44-5,4.85-4.22-3.51,1.34-8.59,6.59-9.18,9.2a.16.16,0,0,0,.28.14A20.59,20.59,0,0,1,115.3,28.39Z"/><path class="cls-4" d="M125.51,29.33c-.84-.4-7.78,2-5.73,2.66.87-1,6.31-1.91,5.73-2.66Z"/><path class="cls-4" d="M124.23,37.35c.4-.11.29-.74-.12-.64a27.27,27.27,0,0,1-9.69.69C113.14,38.23,119.61,38.57,124.23,37.35Z"/><path class="cls-4" d="M103.7,63.81c-10.12,1.34-19.84-4-25.18-12.59C69.75,39.42,72.74,24.33,75.76,11c.1-.47-.59-.71-.74-.23-4.15,14.05-5.54,31,3.52,43.47a23.77,23.77,0,0,0,25.18,10.46C104.3,64.64,104.3,63.75,103.7,63.81Z"/><path class="cls-4" d="M83.7,59.89C81.87,64.6,72.18,75.12,67.17,70.12c-2.65-.34-6.74-1.4-7.88-5.4C41.54,47.27,56.36,44.9,73,51.22c6.28,2.82,6.64,1.26.37-1C68,48.72,47.39,42.12,49.41,52.92c.62,4.41,5.75,9.75,8.83,12,.54,4.07,6,8,8.87,6C70.31,79.3,87.27,60.9,83.7,59.89Z"/><path class="cls-4" d="M71.69,5.8C59.66,9.9,50.09,19,41.6,28.11c-.76,1-7.93,8.33-5.64,8.1,7.71-9.38,16.1-18.49,26.46-25,.86-1.22,11.31-5,9.27-5.43Z"/><path class="cls-4" d="M73.6,5.28C66.76-2.12,51.47,1.66,49,11.61c-4.32,2.58-8.37,6.89-8.64,12.16A12,12,0,0,0,34.88,36.1c0,.39.65.33.67-.05-.31-4.74,1.34-9.08,5.32-11.85.69-5.46,4.4-9.49,9-12.27a14.26,14.26,0,0,1,6.51-7.62C60.78,2,68.64,1,71.62,6,71.82,6.27,73.79,5.6,73.6,5.28Z"/><path class="cls-4" d="M13.57,24C20.69,28.46,28,32.83,33.86,38.92c.22.22.61-.17.39-.4C28.61,33,20,26.32,13.57,24Z"/><path class="cls-4" d="M10.29,46.66c0,.15.25.16.2,0s-.26-.17-.2,0Z"/><path class="cls-4" d="M10.51,47.1c0,.13.19.33.28.13s-.33-.46-.28-.13Z"/><path class="cls-4" d="M33.83,72.58c-6.29,3.07-18.56,4.67-24.71,1.77-2.7-1-6.61-2.22-4.95-5.7a9.35,9.35,0,0,1,3-4.33c.62-6.65-.12-8.26,5.35-12.72C15.2,50.38,5.75,41,8.15,33.84,10,29,12,29.91,10,24.6c-1.26-2-.61-2.14,1.4-1.58,1.22-.61-2-1.32-2.43-1.09-1.75.84.77,4.29.43,6C3.89,34.51,8.63,43.7,12,50.48A13.53,13.53,0,0,0,6,63.6C.41,71.73.76,74.45,12.21,76.43,19,77.45,29.19,76.38,33.83,72.58Z"/><path class="cls-4" d="M71.47,6.49c.75-.51,3.69-.33,3.45-1.34C74.42,4.66,70.13,5.85,71.47,6.49Z"/><path class="cls-4" d="M78.41,4.82c3.25-.49,6.53-.65,9.8-.93-2-1.06-6.94.33-9.84.5C78.1,4.43,78.14,4.86,78.41,4.82Z"/><path class="cls-4" d="M123,42.09a27.57,27.57,0,0,1-9,18c5.19-2.15,9.19-11.67,9.64-17.91a.32.32,0,0,0-.64-.06Z"/><path class="cls-4" d="M112.34,61.1c-.73,1-8.41,5.27-7.12,5.6,1-.55,8.49-5.12,7.12-5.6Z"/><path class="cls-4" d="M100.66,68.67c-8.28,4-17.25,6.22-25.85,9.38-.31.13-.17.66.17.58,6.92-2.09,13.82-4.36,20.58-6.95.71-.4,6.52-2.46,5.1-3Z"/><path class="cls-4" d="M77.48,54.51c-1.36,2.91-.68,8,3.42,7.66,1.07-.17,3-.73,3-2-.69-1.3-3.17,2.72-5.5,0-1.77-1.09.27-6.66-1-5.67Z"/><path class="cls-4" d="M66.32,55.75c2.68.1,7.4.57,9.12-.65C74.14,55.62,65.61,54.74,66.32,55.75Z"/><path class="cls-4" d="M61.35,62.54c1.74.17,15-3.46,13.44-4.91A59.43,59.43,0,0,1,61.31,62.1C61,62.16,61.05,62.57,61.35,62.54Z"/><path class="cls-4" d="M69.81,68.4c.93-.37,8.76-6.55,6.7-6.7a71.46,71.46,0,0,1-6.9,6.46c-.14.12,0,.33.2.24Z"/><path class="cls-4" d="M71.53,63.58c.7-.4,4.15-1.68,3.55-2.36C74.62,61.59,70.46,63.26,71.53,63.58Z"/><path class="cls-4" d="M60.78,7.53c1-.18,3.83,2.1,3.94,1.35C64.51,8.16,60.37,6.47,60.78,7.53Z"/><path class="cls-4" d="M51.62,12.44c1.47.77,3.23,1.3,4.25,2.68.13.16.46.08.41-.15C56.35,14,51.27,11.17,51.62,12.44Z"/><path class="cls-4" d="M47.13,18.1c.79-.07,4.35,2.69,3.86,1.06C50.62,18.66,46.68,16.87,47.13,18.1Z"/><path class="cls-4" d="M41.93,24.91c.67.41,1.34.83,2,1.28.1.19.59.43.73,0,.4-.63-3.34-2.53-2.72-1.31Z"/><path class="cls-4" d="M38,30.63l0,0a7.69,7.69,0,0,1,.73.5c.28.54,1.23.27.74-.29l.13.36C39.92,30.5,37.09,29.43,38,30.63Z"/><path class="cls-4" d="M39.61,75.94c-.36.47-1.33,2.79,0,2.11.13-.3,0-.11-.05,0,.27-.5.26-1.15.58-1.65.32-.27-.11-1-.51-.51Z"/><path class="cls-4" d="M45.5,77.49a2.29,2.29,0,0,0-.32,1.62c.57.64.88-.28.77-.79.14-.41.18-1.47-.45-.83Z"/><path class="cls-4" d="M50.82,78.42c-.06.51-.72,2.44.36,1.84.32-.45.61-3.14-.36-1.84Z"/><path class="cls-4" d="M57.49,79.14c0,.54-.35,1.26.07,1.69,1,.44.77-3.17-.07-1.69Z"/><path class="cls-4" d="M62.63,79.52c-.11.48-.53,2,.42,1.6.33-.26.42-2.51-.42-1.6Z"/><path class="cls-4" d="M14,30.3c4.58,3.44,9.7,6.31,13.42,10.73.47.39,1.73,2.92,2,1.55C26,37.33,19,32.39,14,30.3Z"/><path class="cls-4" d="M16.64,40c4.11,2.63,8.57,4.87,12.24,8.1,3.39.17-13.08-9.69-12.24-8.1Z"/><path class="cls-4" d="M16.11,52c4.12,1.1,8.29,2.06,12.42,3.11a.27.27,0,0,0,.14-.51C24.77,53.76,19.52,51.77,16.11,52Z"/><path class="cls-4" d="M14.65,59c2.11.49,12.55,1.54,12.89-.26a68.54,68.54,0,0,1-12.81-.17A.22.22,0,0,0,14.65,59Z"/><path class="cls-4" d="M11.08,64.15c1.73,1.21,20.82.09,18.77-1.88C24.08,64.33,16.14,63.94,11.08,64.15Z"/><path class="cls-4" d="M14.48,71.72c3.24.48,17.38.34,18.28-2.08a73.07,73.07,0,0,1-18.25,1.74C14.31,71.37,14.29,71.7,14.48,71.72Z"/><path class="cls-4" d="M68,23.34c-4.94.19-5.84-4.92-4.53-8.72-1.23-2.13-1.76,5.41-1.19,6.2-.07,2.94,7.85,4.59,5.72,2.52Z"/><path class="cls-4" d="M67.75,23.24c-5.44,4.67-3.47,12.8,4.08,12.89.48-.07.37-.89-.12-.85-6.57-.21-8-7.32-3.36-11.31.41-.34-.18-1.07-.6-.73Z"/><path class="cls-4" d="M71.41,35.35C67.16,40.2,68,46.55,75,47.63a.48.48,0,0,0,.22-.94c-11.63-2.49-1-11.81-3.83-11.34Z"/><path class="cls-4" d="M74.71,46.92c-.64.6-1.11,5.74.45,3.92.16-1.17-.19-2.42.39-3.51.28-.53-.56-.89-.84-.41Z"/><path class="cls-4" d="M57.78,18.11c-3.4,4.16-2,11.32,3.91,12.06.72.22,4,1.29,3.12-.28-6.94-.93-10-4.8-6.43-11.38a.36.36,0,0,0-.6-.4Z"/><path class="cls-4" d="M64.22,29.94c-6.57,6.25-4.47,14.56,5,14.55a.45.45,0,0,0,0-.86c-9-.52-10-7.14-4.42-13.19.28-.35-.3-.82-.61-.5Z"/><path class="cls-4" d="M69,43.63c-1.23.1-5,6.65-2.31,5a8.6,8.6,0,0,1,2.78-4.38c.34-.29-.09-.9-.47-.64Z"/><path class="cls-4" d="M61.05,39.27C53.55,36.16,50.9,33,56.82,26.1c.18-.4-.26-.92-.67-.63C49.58,31.94,52.54,37.68,60.73,40c.41.17.71-.5.32-.72Z"/><path class="cls-4" d="M59.86,38.68c-4.51,4.62-2,11.65-1.29,8.44-2.32-2.59,3.76-9.39,1.29-8.44Z"/><path class="cls-4" d="M52.85,32.55C46,37.86,49.19,46.91,57.74,47a.47.47,0,0,0,0-.93c-7.9-.38-10.22-7.86-4.35-13a.39.39,0,0,0-.52-.57Z"/><path class="cls-4" d="M52.53,33.37c-3.44-.37-4.19-4.07-4.36-7-2.51-1.85.27,9.79,4.36,7Z"/><path class="cls-4" d="M49.83,42.17c-5.37.81-8.53-4.54-7.76-9.34-2.2-2.29-.54,7.08.84,7.62.78,2.4,8.87,3.67,6.92,1.72Z"/><path class="cls-4" d="M49.35,42.16c-3,3.69-4.43,9.76,1,11.92.59.31,1-.59.46-.91-7.94-3.29,1.24-11.53-1.48-11Z"/><path class="cls-4" d="M46.7,50.23C43,57.68,48.59,64.61,56.54,63.09c.4-.16.41-.81-.1-.81-7.5.82-12.1-4.7-9.09-11.82a.35.35,0,0,0-.65-.23Z"/><path class="cls-4" d="M46.83,50.17c-7.13-1.61-8.21-5.39-4.47-11.39-1-3.24-4.12,6.64-3,7.78-.49,2,9,6.13,7.42,3.61Z"/><path class="cls-4" d="M39.48,46.34A8.81,8.81,0,0,0,47.9,60.66c.56-.14.35-.9-.15-.93-7.51.83-12.23-6.84-7.56-13,.32-.44-.39-.84-.71-.42Z"/><path class="cls-4" d="M56.58,62.77c-4.2,8.2,5.67,13.79,11.12,8.12.14-.36-.32-.63-.61-.47-3,2.8-9.51,2.08-10.44-2.38-.68-.84,1.47-6.56-.07-5.27Z"/><path class="cls-4" d="M47.31,60.07c-5.57,6.18,1,14.85,8.55,11.57.68-.06,2.3-1.19,1-1.56a.42.42,0,0,0-.07.83l-.31-.41c-6.58,3.23-13.76-3.09-8.59-10,.27-.32-.26-.77-.56-.48Z"/><path class="cls-4" d="M37.94,55.26c-4,6.47-.81,14.81,7.52,13.94.54,0,.55-.88,0-.87-8.18.51-10-6.46-6.88-12.84a.34.34,0,0,0-.64-.23Z"/><path class="cls-4" d="M46,68.2a7.43,7.43,0,0,0-2.69,3.37c-.43.57-1,4.56.35,3C43.16,71,47.71,68,46,68.2Z"/><path class="cls-4" d="M56.77,70.72c-1,1-2.61,5.43-.43,5.49.32-.78-.37-1.91.09-2.82-.11-.68,2-3.3.34-2.67Z"/><path class="cls-4" d="M67.25,70.71c-1.35,2.1-.8,5.79,1.72,6.72.27.07.38-.3.26-.48-3.62-3-.22-7.2-2-6.24Z"/><path class="cls-4" d="M72.29,27.09c-5.14-2.38-4.22-8.78-1.87-12.88-1.15-2.2-3.65,6.8-2.76,7.92a6.74,6.74,0,0,0,4.41,5.53.31.31,0,0,0,.22-.57Z"/><path class="cls-4" d="M83.09,62c-1.11,7.47,11.55,8.56,9.14,6.45-4.13.29-8.49-1.88-8.54-6.47,0-.33-.6-.33-.6,0Z"/><path class="cls-4" d="M85.23,67.15c-1.57,1.57-4.7,2.53-6.6,1.06-.45-.42-1,.24-.65.68a4.32,4.32,0,0,0,4.06.93c.94.34,5.47-2.93,3.19-2.67Z"/><path class="cls-4" d="M85,67.31c-.59,1.6-2,4.58-.38,5.82.26.05.57-.19.44-.47l0,0c-1.13-1,1.58-6.4-.1-5.4Z"/><path class="cls-4" d="M74.32,70.24c-.2,2.18,1.86,5.93,4.34,5a.32.32,0,0,0-.08-.44c-3.76-.5-3.38-6.08-4.26-4.59Z"/><path class="cls-4" d="M93.47,63.58c-.73.6-2.07,7.61-.42,6.32a21,21,0,0,1,.12-3.07c-.14-.64,1.57-3.79.3-3.25Z"/><path class="cls-5" d="M97.47,19.94c2-1,4.14-.1,5.92.9,1.29-.79-2.14-1.83-2.81-1.91C100,18.63,96.5,19.27,97.47,19.94Z"/><path class="cls-5" d="M93.64,25.05c-1.52,6.29,8.54,9.73,11.39,4,0-1.17-2.55,1.89-3.49,1.75-3.63,1.42-7.79-1.91-7.46-5.74,0-.27-.37-.23-.44,0Z"/><path class="cls-5" d="M97.65,29.14c3.27,2.47,8.46-1.75,6.39-4.78a4.47,4.47,0,0,1-6.22,4.43.19.19,0,0,0-.17.35Z"/><path class="cls-5" d="M98.29,21.82c.58-.31,1.24-.05,1.81-.22C100.71,20.52,96.84,21.39,98.29,21.82Z"/><path class="cls-5" d="M125.26,24.81a2.71,2.71,0,0,1,.75.88c.2.79.8.44.36-.19-.07-.32-1.23-1.37-1.11-.69Z"/><path class="cls-5" d="M126.15,27.33l-.19.12a1.84,1.84,0,0,1-.36.14.85.85,0,0,1-.22,0c-.22-.15-.87.26-.32.59s2.07-.85,1.09-.89Z"/><path class="cls-5" d="M126.69,33.06c-.59,3.15-4.8,2.46-7.17,3.22-.86,1.26,4.63-.16,5.37-.32,1.09.19,3.28-3.78,1.8-2.9Z"/><path class="cls-5" d="M121,23.1C116.22,16.1,108.4,8,100.7,5.92a48.52,48.52,0,0,1,15.64,11.81c.38,2.67-1.44,2.39,1.4,3.66A3.42,3.42,0,0,0,119.55,23C119.3,24,121.25,23.92,121,23.1Z"/><path class="cls-5" d="M122.62,39.1h0a.39.39,0,0,0-.61-.23.56.56,0,0,0-.52,0,.36.36,0,0,0-.21,0c-.44-.09-1.29,2.61.08,2.26a.68.68,0,0,0,.29.65.78.78,0,0,0,0,.52c-.64,6.69-3.31,13.16-8.72,17.36-.33.41-2.43,1.69-1.78,1.91C118.83,56.73,122.7,47.9,122.62,39.1Z"/><path class="cls-5" d="M91.7,72c5.08-1.65,12.36-4.32,15.42-7.83-5,2.89-10,5.72-15.55,7.47C91.34,71.75,91.47,72.1,91.7,72Z"/><path class="cls-5" d="M96.25,62.26C76.12,55.11,70.13,32.41,75.74,14.6c-.85-1-2.15,6.24-2.53,9.64-2.48,15.17,4.94,34.17,18.15,37.29a5,5,0,0,0,2.56.34C94.35,62,96.75,63.27,96.25,62.26Z"/><path class="cls-5" d="M63.45,49.46c-2.63-.29-5.53-1.08-8.15-.66-4.48,1.73-2.63,7-.06,9.62,1.34.62-.14-1.67-.44-2.1-2-2.2-1.78-6,1.43-6.78,1-.48,8,1.38,7.22-.08Z"/><path class="cls-5" d="M71.11,54.25c1.53.24,3.08,0,4.6.25.12,0,.12-.18,0-.19C75,54.3,70.62,53.21,71.11,54.25Z"/><path class="cls-5" d="M63.91,60.12c.77.59,9.52-1.86,8.25-2.51C71.17,58.15,62.79,59.29,63.91,60.12Z"/><path class="cls-5" d="M76.11,61.12c-.48,1.35-7.44,5.22-5.89,5.52.9-.13,7.71-5.4,5.89-5.52Z"/><path class="cls-5" d="M63.86,68.07c1.15,1.48,3.35.75,4.36,2.22,5,2.6,10.28-3,12.79-6.86.16-.26-.18-.56-.38-.31C78,66.43,73,71.9,68.46,69.37c-.45-.68-1.19-.63-1.91-.61-.61.25-2.91-1.47-2.69-.69Z"/><path class="cls-5" d="M59.92,3.94C63,2.88,66.66,2.87,69.24,5c1.73-.49-3.31-2.65-4.06-2.36C64.37,2.44,58.92,3,59.92,3.94Z"/><path class="cls-5" d="M57.62,4.32c-1.21-.31-7.32,4.86-5.49,5,1.62-1.82,3.17-3.94,5.62-4.67.23-.07.11-.41-.13-.35Z"/><path class="cls-5" d="M49.34,13.47c-3.19,1.48-6.46,4.2-7.48,7.68-.08.35.48.46.6.14a15,15,0,0,1,7.06-7.37.24.24,0,0,0-.18-.45Z"/><path class="cls-5" d="M40.11,25.32c-.51.16-2.44,2.1-1.33,2.12.11-.46,2.53-2.3,1.33-2.12Z"/><path class="cls-5" d="M42.86,24.16h0c.42-.06,1.73,1.3,1.77.33C44.61,23.87,41.88,23.17,42.86,24.16Z"/><path class="cls-5" d="M47.94,17.63c.69-.1,3.2,2.14,3,1C50.76,18.1,47.45,16.68,47.94,17.63Z"/><path class="cls-5" d="M52.92,12.28c.92-.19,3.59,3,3.62,1.6C56.42,13.14,52.15,10.76,52.92,12.28Z"/><path class="cls-5" d="M61.72,7c1.18.17,2.25,1.36,3.33,1.37C65.49,7.7,60.81,5.89,61.72,7Z"/><path class="cls-5" d="M12.42,24.86C19.91,29.11,27,34.29,32.2,41.28c2-.19-5-7-5.93-7.79a60.8,60.8,0,0,0-13.67-9c-.25-.13-.42.26-.18.4Z"/><path class="cls-5" d="M10.88,24.72c-.17,1,.59,2,.63,3a3.75,3.75,0,0,0-.81,1.72c.5,1.52,1.94-1.53,1.59-2.14-.25-.41-1-3.37-1.41-2.59Z"/><path class="cls-5" d="M9.57,31.71c-3.38,7,2.41,13.16,4.35,19.43,0,.29.49.25.46,0-1.7-6.27-7.48-12.28-4.33-19.18a.26.26,0,0,0-.48-.2Z"/><path class="cls-5" d="M13,51.71c-3.61,2.73-6.21,7.31-5,11.91.09.33.65.37.65,0a12.4,12.4,0,0,1,4.78-11.36c.32-.31-.12-.82-.46-.52Z"/><path class="cls-5" d="M5.66,68.28c-.93,1.58-.87,3.93,1,4.81.35.2,2.07,1,1.83.21-3.52-1.23-3-2.34-2.8-5Z"/><path class="cls-5" d="M9.67,73.92c6.47,2.87,14.07,1.76,20.58-.41A.27.27,0,0,0,30.1,73c-6.62,1.67-13.62,2.86-20.22.48A.25.25,0,0,0,9.67,73.92Z"/><path class="cls-5" d="M15.59,71c1.75.68,15.75.21,14.81-1.56-4.87.66-9.8,1.56-14.74,1.12A.22.22,0,0,0,15.59,71Z"/><path class="cls-5" d="M13.77,63.71c1.06.51,14.53-.35,12.74-1.66-4.21.33-8.44,1.44-12.67,1.25A.21.21,0,0,0,13.77,63.71Z"/><path class="cls-5" d="M16.07,58.38a42.92,42.92,0,0,0,10.32-.09c1.17-1.31-4.4-.23-5.15-.42C20.49,58.14,15.15,57.39,16.07,58.38Z"/><path class="cls-5" d="M15.68,51A90.85,90.85,0,0,1,29,53.23C30.21,52,14.76,49.63,15.68,51Z"/><path class="cls-5" d="M19.78,39.79c3.43,1.82,6.93,3.79,9.42,6.84a.24.24,0,0,0,.41-.23C29.85,44.66,19.5,37.87,19.78,39.79Z"/><path class="cls-5" d="M18.2,32.15c3,2.6,6.6,4.58,9.32,7.54,2.47.06-9.36-8.54-9.32-7.54Z"/><path class="cls-5" d="M36.55,78.76c.25,1.15,6.06,2.71,5.24,1.21-1.69-.25-3.59-.24-4.92-1.51-.18-.17-.48.1-.32.3Z"/><path class="cls-5" d="M46.82,81.6a15.89,15.89,0,0,0,4.37,1.58c.64.19,5.58,0,4.19-.94a13.23,13.23,0,0,1-8.38-1A.22.22,0,0,0,46.82,81.6Z"/><path class="cls-5" d="M58.55,83a6.77,6.77,0,0,0,6.51-.77.34.34,0,0,0-.37-.56C62.65,83.38,57.58,82.1,58.55,83Z"/><path class="cls-5" d="M63.41,80c-.21.47-.37,2,.48,1.25.42-.5.35-2.22-.48-1.25Z"/><path class="cls-5" d="M51.66,79c-.21.56-1.22,3.06.05,2.53.16-.45,1.17-3.49-.05-2.53Z"/><path class="cls-5" d="M46.22,78.24c0,.55-.7,2.27.29,2.13.36-.26.56-3-.29-2.13Z"/><path class="cls-5" d="M42.12,77.47c-.17.39-.62,2.19.25,1.62.14-.39.71-2.47-.25-1.62Z"/><path class="cls-5" d="M69.69,25c.34.81,1.94,1.1,1.28,0-1.46-1.31-1.49-3.5-1.53-5.4C68,18.37,68.73,24.49,69.69,25Z"/><path class="cls-5" d="M63.49,21.12a.53.53,0,0,0,.32.3c.28.25.64.73,1.06.68,0,0,.24-.13.27-.2h0a.58.58,0,0,0-.25-.79,1.07,1.07,0,0,0-.75-1C63.58,16.11,62.48,19.12,63.49,21.12Zm.11-.46Z"/><path class="cls-5" d="M68.1,33.9c.43.46,1.81.54,1.28-.36-.11-.65-.9-1-1.36-1.36h0a.45.45,0,0,0-.59,0,3.92,3.92,0,0,1-1-2.8c-1.61-1.86-.83,3.85,1.5,4.4A.64.64,0,0,0,68.1,33.9Z"/><path class="cls-5" d="M60.31,28.27a.41.41,0,0,0,.27,0c.51.39,1.22-.22.71-.71a2,2,0,0,0-2.25-1,3.59,3.59,0,0,1-1.29-2.51C56.27,23.12,58.05,28.28,60.31,28.27Z"/><path class="cls-5" d="M56.94,36.33c.12-.25-.08-.47-.29-.58a.38.38,0,0,0-.19-.59.59.59,0,0,0-.6-.19.47.47,0,0,0-.17,0,2.78,2.78,0,0,1-.41-.43c-.17-.31-.94-1.78-1.17-.49.29.82.86,1.84,1.75,2.06C56.13,36.34,56.66,36.82,56.94,36.33Z"/><path class="cls-5" d="M65.69,41.24c-.6-.27-1.82-1.38-2.39-1.05C62.89,40,62,37.9,61.78,39c0,1,3.88,5.06,3.82,2.84C65.71,41.66,65.84,41.48,65.69,41.24Z"/><path class="cls-5" d="M70.93,44c-.36-.31-.3-1-.69-1.19-.6.25,0,1.39.34,1.69S71.22,44.2,70.93,44Z"/><path class="cls-5" d="M68,46.72c-.48-.15-.75.93-.43,1.18S68.39,46.91,68,46.72Z"/><path class="cls-5" d="M59.23,45c0-.41.29-.94-.07-1.25.32-1.82-1.13.21-1,1C57.86,46.33,59.35,47.21,59.23,45Z"/><path class="cls-5" d="M53.29,43.1l-.83-.69a.67.67,0,0,0-.91-.59,5.64,5.64,0,0,1-.84-1.89c-1-.69-.25,2,.15,2.39C51.26,44.35,56.12,45.74,53.29,43.1Z"/><path class="cls-5" d="M50.46,32.16a.4.4,0,0,0,.36-.59,5.65,5.65,0,0,1-1.39-3.3C47.69,26.22,49,32.52,50.46,32.16Z"/><path class="cls-5" d="M46.74,40.25c-1.44-1.13-2.73-2.86-3.92-3.92-.68.91.66,2.34,1.09,3.23S47.35,42.19,46.74,40.25Z"/><path class="cls-5" d="M43.19,46.89A6.83,6.83,0,0,1,41.32,45c-1.47-1.19-.23,1.75.28,2.16C42.23,48.58,45.17,48.51,43.19,46.89Z"/><path class="cls-5" d="M36.37,43.23a.24.24,0,0,1,.06.08h0c1.31.54.24-1.2.23-1.77-.19-.47.2-1.31-.41-1.48C35.13,40.41,35.88,42.49,36.37,43.23Z"/><path class="cls-5" d="M35.17,51.59c-.48-.42-1.59-3.52-2.05-1.86C32.92,52.71,36.64,54.55,35.17,51.59Z"/><path class="cls-5" d="M40.41,54.8a9.87,9.87,0,0,0-1.12-1.29c-1.69-1.11.42,3.84,1.59,3.36C42,56.54,40.77,55.31,40.41,54.8Z"/><path class="cls-5" d="M34.22,59.67c-.53-.61-.95-2.23-1.86-2.09C31.64,58.15,34.35,61.59,34.22,59.67Z"/><path class="cls-5" d="M39.84,64.77a4.13,4.13,0,0,1-1.63-3.16c-.24-.94-1.16-.11-.92.57C36.67,65.57,42.68,68,39.84,64.77Z"/><path class="cls-5" d="M37.62,69.86a4.83,4.83,0,0,1-.42-1.38c-.38-1.07-1.14.08-.78.76-.22.93.84,1.85,1.49,2.43h0C39.54,72.13,37.87,70.38,37.62,69.86Z"/><path class="cls-5" d="M48.92,75.88a8.43,8.43,0,0,1-3.33-1.45.23.23,0,0,0-.42.13c-.25.9,2.78,2.53,3.47,2C49.14,76.7,49.49,76.05,48.92,75.88Z"/><path class="cls-5" d="M63,77a26.39,26.39,0,0,0-3.61-.39,3.46,3.46,0,0,1-1.9-1.91.27.27,0,0,0-.52.14c.42,2.38,3.4,3.44,5.51,3.3C63.1,78.17,63.79,77.29,63,77Z"/><path class="cls-5" d="M51.31,69.48a8.68,8.68,0,0,0-3.16-1.64,4.71,4.71,0,0,1-.94-1.72c-1.24-.76-.08,2.08.42,2.36.62.88,3.87,3.16,4.32,1.55A.8.8,0,0,0,51.31,69.48Z"/><path class="cls-5" d="M48,59.18c.36.64,2.84,2.24,2.38.6-.81-.56-1.42-1.85-2.4-2C46.77,55,46.89,58.35,48,59.18Z"/><path class="cls-5" d="M48.17,50.93a.38.38,0,0,0,.67-.35c-.39-.5-.15-1.2-.48-1.66,0-.16.08-.32,0-.46h0C47.09,47.5,47.69,50.44,48.17,50.93Z"/><path class="cls-5" d="M59.26,71c2.11,0-1.77-2.57-1.83-3.52-.53-.66-1.06.43-.48.79A4,4,0,0,0,59.26,71Zm-.2-.33s0,0,0,0Z"/><path class="cls-5" d="M73.62,76.37c-.78,1.3-6.71-2.82-4.15,0A3.19,3.19,0,0,0,73,77.51a1.49,1.49,0,0,0,1.3-.63C74.56,76.49,73.94,76,73.62,76.37Z"/><path class="cls-5" d="M80.84,73.55c-1.38.12-2.59-.75-3.83-1a.37.37,0,1,0-.6.43,4.5,4.5,0,0,0,4.45,1.43h0A.45.45,0,0,0,80.84,73.55Z"/><path class="cls-5" d="M82.19,67.35a3,3,0,0,1-1.25.45c-.9.73.84.72,1.26.38C82.74,68.07,82.88,67.16,82.19,67.35Z"/><path class="cls-5" d="M87.94,67.43c1.68-.43-.66-1.33-1.21-1.71s-.88-.87-1.41-1.11C83.57,65.12,87.05,67.4,87.94,67.43Z"/><path class="cls-5" d="M78.33,59.79c.73,1.37,2.88.83,1-.2a1.94,1.94,0,0,1-.63-1c0-.52-.65-.85-.78-.24A2.11,2.11,0,0,0,78.33,59.79Zm.43-.9h0Z"/><path class="cls-5" d="M88.54,72.21c-1.13.18-1.94-.77-2.52-1.58-.3-.49-1.09,0-.77.47h0c.34,1.14,1.4,2.35,2.71,2C88.72,73.47,89.58,72.44,88.54,72.21Z"/><path class="cls-5" d="M95.33,68.88a2.92,2.92,0,0,1-1.08-.59s0-.08,0,0h0a.38.38,0,0,0-.47-.48c-1.25-.44-.34,1.21.08,1.58C94.42,70.14,96.62,69.84,95.33,68.88Z"/><path class="cls-4" d="M44.05,76.74a2,2,0,0,1-.19-.17,2.36,2.36,0,0,1-.23-.31c-.21-.2-.15-1.33-.67-.83s1.22,2.47,1.09,1.31Z"/><path class="cls-4" d="M58.86,78.46c-.47,0-2.31-1.26-2.31-.68,0,.9,3.5,2.22,2.31.68Z"/><path class="cls-4" d="M72.43,78.45c-.78,0-1.53-.43-2.29-.38-1.32,1,4,1.64,2.29.38Z"/><path class="cls-4" d="M38.5,54.75c-6.5-.11-7.1-8.34-3.23-12.14A.33.33,0,0,0,35,42c-1.38-1.12-3,3.14-3.2,4.3-.26,1.39-.89,5.91.86,6.06,1.12,1.85,3.54,3.47,5.76,3C38.74,55.31,38.86,54.84,38.5,54.75Z"/><path class="cls-4" d="M36.56,62.88c-4.4-1.24-6.16-6.82-3.67-10.54A.31.31,0,0,0,32.4,52c-3.92,3.43-1.28,10.44,3.43,12.18a.46.46,0,0,0,.66-.37A.46.46,0,0,0,36.56,62.88Z"/><path class="cls-4" d="M38.44,72.46c-5.51-2.62-.1-9.93-2.09-8.93a.3.3,0,0,0-.49,0C34.16,66,34,70,36.32,72.22c-2.52,1.1,1.58,1.67,2.1.93C38.64,73,38.73,72.6,38.44,72.46Z"/><path class="cls-4" d="M72.45,78.72c-11.12.81-29.19,0-38.38-5.88-1.08-.27.37,4.71.93,5.31,1.37,3,5.78,4.26,8.61,2.62A14,14,0,0,0,56.9,83.32c4.27,1.92,10.51,1,12.64-3.66C70.07,79.55,73.6,79.5,72.45,78.72ZM66.6,81.54c-2.36,2.58-7.31,2.12-9.91,1.13-4.69,1.65-9.55-.44-12.83-2.42-3.81.83-9.11-.3-9-5.16,10.67,2.76,21.77,4.82,32.94,4.65A5.63,5.63,0,0,1,66.6,81.54Z"/><path class="cls-4" d="M39.68,46c-2.57-.72-4-3.24-4.59-5.64-.24-.67.32-3.78-1-2.55a8.81,8.81,0,0,0,2.15,6.93C36.51,45.49,40.83,47.77,39.68,46Z"/></svg>