<svg id="Layer_1" data-name="Layer 1" xmlns="http://www.w3.org/2000/svg" viewBox="0 0 174.36 68.87"><defs><style>.cls-1{fill:#fff;}.cls-2{fill:#76564b;}.cls-3{fill:#492d27;}.cls-4{fill:#f7abad;}.cls-5{fill:#e06460;}.cls-6{fill:#f6bbaf;}.cls-7{fill:#fceaec;}</style></defs><path class="cls-1" d="M136.26,30.09c1.42-.6,2.68,1.59,3.56,2.31,5.7,6.62,9.21-4.25,12-.33.46,2.67,10.09,2.61,12.56,3,1.94,0,4-.56,4.22-4.71.07-1.37.47-2.75-.69-4.29-.63-.62-1.64-1.06-1.5-2.12L167,15c.93-2.79,3.9-.84,3.88-6.22a4.25,4.25,0,0,0-5.06-5l-9,.37c-4.67-.35-3.58,4.48-6.84,2.36-1.73-1.5-3.46-1-5.27-1.22-3.94-.39-4.25,2.57-6.92,2.87-2.48-1.44-1.35-3.65-5.91-3.58C128,4,124.43,5,124.94,9.72l.44,14.11a1.69,1.69,0,0,1-3.27.6L116.24,7.56c-.95-2.7-2.12-4.26-5.33-4.26-3.65,0-7.33.88-8.21,2.64a1.66,1.66,0,0,1-1.36.73c-4-2.44-8.29-5.68-11.18,0-.78,1.54-2.45,5-4.32,2.45-1.61-3.38-4-7.29-8.54-5.14-1.44.27-4.22,2.23-5.51.86-2.4-2.32-10.11-.41-13.05-.74C55.34,4.26,54.1,5.6,54.19,9c-.11,2.5,1,4.11,1.94,4.35a1.67,1.67,0,0,1,1,1.59l-.32,8a1.7,1.7,0,0,1-1.11,1.51c-1.17.31-1.59,1.82-2.93,1.53C51.2,27,46,8.13,45.41,7.56c-.95-2.7-2.12-4.26-5.33-4.26-9.68.14-6.57,3.1-10.39,4.79-2.72-.71-1.05-3.34-6-3.46L8.86,3.75c-2.74-.13-5.21.07-5.36,5C2.59,20.49,9.39,13.39,10.39,18l-.34,12.64c-.5,3.79,2.47,5.7,6,4.77,3.71-.47,5-2,4.84-5.74l-.47-12.59c-.06-1.69,1.8-1.85,3.07-1.85,2-.14,5.39-1.94,5.05,1.39l-3.4,12.49c-1,2.49.27,5.79,3.63,5.38,4.42,0,7.25-1,7.54-4.82.15-1.86,4.77-2.06,5.06-.17.5,3.27,2,5.81,6.36,5.19,1.52-.17,3.24.16,4.77-1.24a1.69,1.69,0,0,1,2.2-.19c1.49,1.38,8.31,1.31,10.32,1.71,2.75.21,5.08.22,5.49-4.63.75-5.07-1.55-3.53-2.19-6.41L69,15c0-1.3,1.46-1.47,2.3-2a1.68,1.68,0,0,1,2.31.34l6,7.82C81,24.87,77.7,36.58,84.43,35.57c11.26.62,6.54-7.23,8-14.24,1.1-1,3.86-7.91,6-6.6,3.39,1.54-5,15.61-2.16,18.47,1.43,1.65,3.36,1.24,5.14,1.16,4.48-.31,5.16-1.6,5.75-4.72.23-1.89,4.71-2.05,5.06-.17.49,3.27,2,5.81,6.36,5.19,1.75-.13,4,0,5.06-1.59a1.69,1.69,0,0,1,2.76,0c2,2.14,7.89,4.32,8.71-1.61A1.71,1.71,0,0,1,136.26,30.09Zm7.33-11.73L149.31,11a1.73,1.73,0,0,1,3.21.22c.23,2,2.65,1.89,2.66,3.74l-.32,8c0,1.67-2.23,1.52-2.76,2.93a1.7,1.7,0,0,1-2.77.27C148.49,24.62,141.73,20.36,143.59,18.36Z"/><path class="cls-2" d="M84.41,39c-9,.47-7.86-9.88-7.87-16.19l-4.36-5.69-.43,6.15c2.6,2.27,2.31,5.47,2.13,7.34-.32,5.05-3,7.84-7.58,7.84-3.17-.33-9.54-.44-12.42-1.75-5.52,2.87-13.74,1.71-15-3.65-1.06,4.91-12.55,6.84-16,2.41-2.43,3.66-10.86,5-14.2,1.5C5,33.13,7.39,24.24,7,19.68,1,19.55-.48,13.23.13,8.79.11,2.92,3.73,0,9.05.47c4,.71,17.66-.3,20.56,3C32.09.48,36.27.15,40.07,0,49.65-.59,50.42,14.65,53.5,20.7l.2-4.76C48.35,11.8,50.36.22,58.59.83c4.38.29,10.48-1.73,14.77,1C79.34-.93,84.82-.26,87.3,5c1.92-4.81,8.79-6.33,13.93-2.32,2.09-2,6.08-2.54,9.67-2.61,8.57.18,8.4,7.65,10.77,13-.81-6.2,1-12.13,7.9-11.87,3.11.15,6.36-.19,8.91,2.7,3.51-2.44,8-2.52,12.37-.83C153.31-.1,162,.89,165.71.47c1.67,0,3.95-.3,6.54,2.1,3.59,4.08,2.37,11.82-1.94,13.81l-.48,6.9c2.6,2.27,2.3,5.47,2.12,7.34-.32,5.05-3,7.84-7.58,7.84-4-.53-11.55-.08-14.38-3.13-3.27,3.34-9.47,3.51-12.41-.32-2,4.87-9.1,4.22-12.58,1.51-2.55,1.72-4.3,1.38-6.22,1.57-4.83.69-8.44-2.21-9.07-5-1,4.81-12.09,6.74-15.73,2.71C92.35,38.43,87.81,39.05,84.41,39ZM72.23,12.74c1.19-.57,6.58,7.92,7.32,8.48C81,25,77.68,36.65,84.41,35.65c11.29.61,6.54-7.24,8-14.24l3.94-6c7.86-4.75-3.24,15.91-.06,17.86,1.43,1.66,3.36,1.24,5.14,1.17,4.47-.31,5.16-1.61,5.75-4.72.22-1.58,2.2-1.39,3.36-1.43s1.73.94,1.86,1.93c.47,3.83,3.17,5.1,7.37,4.44,1.46,0,3-.28,3.88-1.51a1.68,1.68,0,0,1,2.76,0c.67,1.23,3.51,2.16,5.24,2.14,5,.6,1.93-9.83,8.17-2.81,2.24,3,5.83,2.47,8.26.1.88-.59,1.39-1.57,2.54-1.36,2.26.83.66,2.57,5.27,3.07.62,0,8,.86,8.5.81,1.94,0,4-.56,4.23-4.71.05-1.37.48-2.75-.7-4.29-.63-.62-1.63-1.06-1.49-2.13l.62-8.88a1.67,1.67,0,0,1,1.17-1.49c2.42.07,3.88-6.48,1.64-8.68h0c-2.09-2.2-10.33-.47-13-.73-4.24.09-3.1,2.08-5.35,2.91A1.66,1.66,0,0,1,150,6.56c-2.82-2.18-8.9-1.49-10.61,1.1a1.7,1.7,0,0,1-2.86-.55c-.86-2.62-4.06-2.46-6.37-2.55a4.4,4.4,0,0,0-5.2,5.24l.44,14.1a1.69,1.69,0,0,1-3.27.61L116.22,7.63c-.94-2.69-2.12-4.25-5.32-4.25-3.68,0-7.32.88-8.21,2.64C101,8.33,98.81,4.29,97.2,4.27,92.75,2,90.4,5.79,88.76,9.21c-3.54,3.84-4.06-6.41-8.7-5.72-2.15-.38-6.58,3.06-8.29,1.44a4.51,4.51,0,0,0-3.4-1.12l-.6,0-9,.36c-3.41.15-4.64,1.49-4.56,4.93-.12,2.5,1,4.11,1.95,4.35,1.94.47.38,8.31.65,9.59,0,1.47-1.76,1.49-2.43,2.45a1.7,1.7,0,0,1-2.9-.5l-6-17.38c-.9-3.14-3-4.64-6.48-4.2-8.33.27-5.71,3.36-9.23,4.74-2.71-.7-1.07-3.34-6-3.46L8.85,3.83c-2.74-.13-5.22.06-5.36,5-.92,11.73,5.9,4.65,6.89,9.21L10,30.69c-.52,3.78,2.47,5.7,6,4.76,3.7-.46,5-2,4.84-5.73l-.47-12.59A1.68,1.68,0,0,1,22,15.39c2.23.36,6.84-2.6,6.56,1.28L25.15,29.16c-1,2.47.31,5.79,3.64,5.38,4.3.07,7.34-1,7.53-4.82.23-1.59,2.2-1.39,3.37-1.43,3.85.74.08,7.29,8.06,6.45,1.53-.17,3.23.16,4.76-1.24,1.79-1.49,3,1,5.29.79,1,0,7.73.91,8.5.81,1.94,0,4-.56,4.23-4.71,0-1.37.49-2.75-.7-4.29C69.19,25.48,68.2,25,68.34,24L69,15.09C69.11,13.62,71.08,13.12,72.23,12.74Zm78.38,14.13c-1,0-1.4-.81-2.07-1.44-.78-1.3-6.75-5.07-5-7,1.2-1,5.74-8.91,7.61-8.34,1.7.33,1.38,2.93,3,3.35a1.67,1.67,0,0,1,1,1.59l-.32,8a1.71,1.71,0,0,1-1.11,1.52C152.3,24.88,152.15,26.89,150.61,26.87ZM153.17,23Zm-6-3.67,3.35,3.32a6.25,6.25,0,0,1,1-.74l.24-6a6.09,6.09,0,0,1-1.15-1.06Z"/><path class="cls-3" d="M84.41,36c-6.44.89-4.51-9.51-4.86-13.76.47-.22-6.12-8.31-6.25-8.61-.86-1.24-3.86.29-4,1.5L68.67,24c-.11,1,.88,1.28,1.41,1.87,1.3,1.67.82,3.1.78,4.54-.28,4.45-2.58,5-4.56,5-2.77-.39-9.47-.28-11.79-1.85a1.36,1.36,0,0,0-1.76.15c-1.64,1.51-3.39,1.16-5,1.34-4.56.64-6.24-2.11-6.71-5.43-.27-1.4-2.16-.94-3.13-.95-3.26,1.44.36,5.78-7.33,6.09-1.91.08-3.88.49-5.43-1.3-2.22-3,2.77-13.68,3.06-16.9.19-3-2.87-.91-4.7-1-1,.05-2.9,0-2.75,1.49l.46,12.6c.15,3.94-1.24,5.59-5.13,6.08-1.78.26-4.1.39-5.26-.94-3.16-2,1.42-18.29-2.24-18.19-5,.66-5.91-3.45-5.46-7.83.16-5.28,2.93-5.46,5.72-5.34l14.82.88C27.1,4.59,28,5.88,28.45,7a1.35,1.35,0,0,0,2.49,0c.84-2.9,4.52-3.92,9.13-4,3.39,0,4.67,1.72,5.64,4.48l6,17.37a1.35,1.35,0,0,0,2.31.41c.58-1,2.34-.91,2.37-2.25l.32-8c-.59-2.3-3-1.21-2.92-5.5-1-8.1,9-5.22,13.92-6.06,3.38-.65,4.12,2.42,6.37,1.31,1.53-.46,4.53-1.75,5.93-1.64,5-.56,5.32,9.12,8.41,5.89C92,1.64,95,2,101.33,6.41a1.31,1.31,0,0,0,1.08-.58c2-3.29,13.35-4.71,14.13,1.69l5.88,16.88a1.35,1.35,0,0,0,2.61-.48l-.44-14.11c-.58-4.87,3.33-6.14,7.29-5.51,2,0,4.26.6,4.94,2.7a1.36,1.36,0,0,0,2.29.44A6.54,6.54,0,0,1,144.69,5c1.92.2,3.67-.3,5.53,1.34,2.83,1.75,1.7-2.75,6.57-2.48,2.72.29,11-1.58,13.29.82,2.45,2.4.79,9.32-1.78,9.24-1.69,0-1.17,9.14-1.56,10.08-.15,1,.91,1.27,1.41,1.87,1.28,1.67.84,3.1.78,4.54-.47,5.18-3,5.15-5.86,4.95-2.39-.31-11.41-.5-11.55-3.07a1.4,1.4,0,0,0-1-.74c-4.23,1.56-6,6.27-11,1.16-6.18-7.15-2,5.08-9.73,2.69a5.74,5.74,0,0,1-3.71-2.06c-1.62-2-3.09,2.21-6.36,1.66-9.91,1.14-5.53-5.25-9.23-6.38-5.93-.56-.45,6-9.1,6.16-1.89.08-3.89.49-5.43-1.3-3.34-1.82,7.32-22,.61-17.88l-3.94,6C91.5,28.88,95.76,36.57,84.41,36ZM72.23,12.41c1.56-.49,6.63,7.82,7.58,8.6.8.49.35,8.86.51,9.7.13,5.5,3.46,4.6,6.71,4.46,6.93.43,4.34-8.63,4.75-12.82-.22-.8,3.9-6.38,4.27-7.12a2,2,0,0,1,3.63,1.64L96.31,29.24c-1.21,2.89.72,5.54,4,4.94,8.86,0,4.12-5,8.38-6.16,1.33-.12,3.47-.27,3.81,1.45.58,4.16,2.63,5.53,7.19,4.86,1.43-.06,2.85-.26,3.63-1.37A2,2,0,0,1,125,32.1a2,2,0,0,1,1.66.86c.62,1.13,3.33,2,5,2,4.12.59,2-7.5,6.6-4.58,2.32,2.81,5.59,5.67,8.92,2.44,1.19-.66,2-2.19,3.5-1.92,2.5.8.7,2.58,5.25,3.07,4-.23,12.28,3.69,12.36-3.6.79-5-1.72-3.34-2.19-6.41l.62-8.88c.81-3,4-1.07,3.88-6.21a3.93,3.93,0,0,0-4.71-4.7l-9,.37c-4.2.07-2.87,2.16-5.32,2.9a2,2,0,0,1-1.78-.64c-1.61-1.38-3.32-.93-5-1.12-3.83-.44-4.16,2.75-7,2.87-3.58-2.21-.51-3.63-7.6-3.65a4.07,4.07,0,0,0-4.84,4.9l.43,14.1a2,2,0,0,1-3.92.73L115.9,7.74c-.69-6-11.22-4.31-12.93-1.53a2,2,0,0,1-3.3,0C90.37-.93,91,10.19,87.3,10.4,85.65,10.55,84.89,8,84.18,7c-1.9-4.56-6.12-3-9.84-1.52-2.46,1.27-3.83-2-6.56-1.28l-9,.37c-3.41.06-4.41,1.71-4.23,5,1.13,7.78,3.84-1.9,2.6,13.54.07,1.57-1.73,1.7-2.51,2.64a2,2,0,0,1-3.48-.6l-6-17.38c-.87-6.3-12.63-4.36-13.51-.46a2,2,0,0,1-3.74-.06c-.35-.91-1.15-2-4.17-2.18L8.83,4.16,8,4.13c-2.11,0-4.07.57-4.12,4.71C4,10.79,3.3,13.5,4.82,15c2,2.1,5.65-.48,5.89,3L10.37,30.7C9.89,34.33,12.67,36,16,35.12c3.53-.44,4.68-1.8,4.54-5.39L20.1,17.14A2,2,0,0,1,22,15.05c2.43.22,7.33-2.6,6.9,1.7-.25,2.83-5,13.66-3.18,16.32,1.33,1.51,3.19,1.1,4.85,1,4.26-.3,4.88-1.46,5.44-4.45.26-2.24,5.31-2.45,5.72-.19.5,3.2,1.91,5.53,6,4.93,1.46-.17,3.14.15,4.54-1.13A2,2,0,0,1,54.91,33c1.41,1.3,8.25,1.25,10.16,1.65,2.63.2,4.75.22,5.12-4.32C71,25.42,68.38,26.92,68,24l.62-8.88C68.76,13.4,70.89,12.78,72.23,12.41Zm78.38,14.8c-1.09,0-1.58-.83-2.31-1.54-.92-1.54-7.07-5.14-5-7.43,1.34-1.1,5.81-9.16,7.94-8.47,1.84.23,1.51,2.89,3.1,3.38a2,2,0,0,1,1.16,1.9c-.44,1.55.67,9.38-1.65,9.84C152.44,25.27,152.25,27.3,150.61,27.21Zm.28-16.8c-1.2-.25-6.21,7.55-7,8.24-1.54,1.54,4.36,5.48,4.93,6.54.67.59,1,1.44,2,1.34,1.3-.25,1.48-2,2.89-2.27a1.34,1.34,0,0,0,.88-1.21l.32-8c-.17-1.69-2.46-1.66-2.64-3.64A1.37,1.37,0,0,0,150.89,10.41Zm2.28,12.92v-.67h0Zm-2.68-.22-3.79-3.75,3.91-5a6.73,6.73,0,0,0,1.5,1.42l-.25,6.37A6.42,6.42,0,0,0,150.49,23.11ZM147.6,19.3l2.92,2.89a6.87,6.87,0,0,1,.68-.48l.23-5.64a6.51,6.51,0,0,1-.79-.69Z"/><path class="cls-4" d="M19.31,29.78c.28,3.27-1.16,3.94-4.17,4.17-2.85.36-3.58-.33-3.51-3.22l.44-16.24c-5.82.44-7.54,1.16-7-5.63,0-2.93.73-3.62,3.65-3.44l14.85.88c2.78.18,3.44.88,3.33,3.73s-.73,3.47-3.51,3.66L18.73,14Z"/><path class="cls-4" d="M51.31,29.48c1.46,3.36-.87,3.62-3.66,3.66-5,.83-4.21-3.32-5.37-6.54l-7.06.25c-.76,3.28,0,6.09-4.76,6-2.78.31-4.9.07-3.76-3.29L32.29,9C33.06,6.15,33.9,5.39,39,5c3-.22,3.88.33,4.87,3.15ZM41,21.77l-2.71-8.63-2.08,8.63Z"/><path class="cls-4" d="M68.93,30.25c-.18,2.86-.91,3.48-3.73,3.18L58,32.7c-2.78-.19-3.32-1.29-3-4,.18-2.45.8-3,3.29-2.85l.54-13.57c-2.52.08-3.06-.84-3-3.21-.07-2.56.51-3.22,3-3.33l9-.37c2.78-.11,3.47.55,3.4,3.4s-.77,3.51-3.7,3.51l-1,14.19C69.21,26.45,69.18,28.11,68.93,30.25Z"/><path class="cls-4" d="M90.58,29.92c.4,3.82-2.2,4-5.3,4.1-2.93.18-3.66-.4-3.69-3.33l-.11-9.58-8-10.42c-1.71-2.23-1.42-3.15,1.25-4.06,3.08-1,6.67-3.16,8.33,1l4.21,7.5,4.24-7.54c1.39-2.48,2.34-2.85,5.08-1.79S99.5,7.65,98,10L90.51,21.37Z"/><path class="cls-4" d="M122.14,29.48c1.46,3.36-.87,3.62-3.66,3.66-5,.83-4.21-3.32-5.37-6.54l-7.06.25c-.76,3.28,0,6.09-4.75,6-2.79.31-4.91.07-3.77-3.29L103.12,9c.77-2.89,1.61-3.65,6.73-4,3-.22,3.88.33,4.87,3.15Zm-10.31-7.71-2.71-8.63L107,21.77Z"/><path class="cls-4" d="M147.41,26.56c2.51,2.2,1.43,3.63-1,5.23-2.38,1.79-3.4,1.68-5.49-.44l-6.69-6.91-.69,6.73c-.26,2.37-1,2.85-3.33,2.34s-3-1.21-3.07-3.66l-.62-20.11c-.46-3.87,2.26-3.75,5.26-3.51s3.59.8,3.33,3.73l-.69,7.2,5.33-7.42c1.78-2.78,3.72-3,6.84-2.71,2.67.15,3,1,1.43,3.07l-7.5,9.66Z"/><path class="cls-4" d="M167,30.25c-.19,2.86-.92,3.48-3.73,3.18L156,32.7c-2.79-.19-3.33-1.29-3-4,.18-2.45.8-3,3.29-2.85l.55-13.57c-2.53.08-3.06-.84-3-3.21-.07-2.56.51-3.22,3-3.33l9-.37c2.78-.11,3.47.55,3.4,3.4s-.77,3.51-3.69,3.51l-1,14.19C167.29,26.45,167.25,28.11,167,30.25Z"/><path class="cls-5" d="M11.54,13.62c-1.53-.06-3.3.5-4.79.16-.77-.24-.62.71-.18.83,1.08.34,4.24-.09,5.5-.12C12.12,14,12.13,13.58,11.54,13.62Z"/><path class="cls-5" d="M26.2,7.88c0,1.51.3,3.92-1.43,4.6-.93.53-7.59-.65-6.86,1.93-.5,3.44,1.87,15.57-.47,18.25a11.2,11.2,0,0,1-4.3.92c-1,1,4.25.15,4.66-.16h0a2.21,2.21,0,0,0,1.31-1.38h0c.56-1-.45-16.58-.38-18,3.12-.55,8.68.86,8.19-4C27,9.27,26.94,7.12,26.2,7.88Z"/><path class="cls-5" d="M38.42,13.56a.19.19,0,0,0,0-.08Z"/><path class="cls-5" d="M36.21,21.77l2.08-8.63c-.94-.3-1.3,3.65-1.66,4.22C36.54,18.6,35.15,20.9,36.21,21.77Z"/><path class="cls-5" d="M41.87,26.11c-8.12.3-6.5-1.41-8,4.51a1.43,1.43,0,0,1-1,1c-.7.65-6.33.29-5.4,1.19,6.33.37,7,0,7.73-5.94l7.06-.25A.43.43,0,0,0,41.87,26.11Z"/><path class="cls-5" d="M51.49,32.22a2,2,0,0,0,.15-1.59h0a9.63,9.63,0,0,0-.33-1.15L43.89,8.17c-3.75-7.22,4.59,15.76,4.81,17,.38,2.11,2.08,4.68,1.44,6.71a14.07,14.07,0,0,1-3.9.54c-4,.83,3.9.88,4.52.3h0A1.68,1.68,0,0,0,51.49,32.22Z"/><path class="cls-5" d="M69,29.27c-.23-3.75-.87,2.13-1.27,2.73-1.32,1.48-8.27-.32-11.11-.25-.65-.06-.36.62-.22.67A7.88,7.88,0,0,0,58,32.7l7.24.73C68.53,34,68.92,32.16,69,29.27Z"/><path class="cls-5" d="M71.24,8.82c0-3.92-1.13-1.12-.89.85.14,2.25-2.57,1.15-3.52,2.11.24-.38-2.35,15.76,0,14.76l-.25,0,1-14.19C70.47,12.33,71.16,11.64,71.24,8.82Z"/><path class="cls-5" d="M58.21,11.52c-.54.07-1.46-.34-1.74.29a3.53,3.53,0,0,0,2.31.52A.61.61,0,0,0,58.21,11.52Z"/><path class="cls-5" d="M97.87,9.13c-2.93,3.77-6.72,8.26-8.2,12.73.09,2.77.27,6.7.1,9.16.34,3.31-9,1.5-6.19,3,3.15,0,7.63.46,7-4.08l-.07-8.55L98,10C98.32,9.63,98.7,8.64,97.87,9.13Z"/><path class="cls-5" d="M83.08,7.58c-.12-.45-1.16-1.74-1-.73.22.39,2.08,3.53,2.48,4.24.78.79,1.67,4.51,2.78,4Z"/><path class="cls-5" d="M122.14,29.48,114.72,8.17c-.13-.37-.26-.69-.39-1s-.64-.26-.45.45c2.18,7.5,5.3,14.73,7.55,22.2,1.37,3-2.26,2.43-4.29,2.52-1.47,0-1.5.65-.8.75a18.06,18.06,0,0,0,3.35,0C122.51,33,123.09,32.15,122.14,29.48Z"/><path class="cls-5" d="M112.69,26c-1-.14-5.46.12-6.61.17-1.31.46-.67,2.5-1.22,3.57-.39,1.43-.43,1.63-1.29,2-1.09.53-4.68.27-4.83.86.2.73,1.9.17,2.56.25,4.73.08,4-2.71,4.75-6l7.06-.25S113,26,112.69,26Z"/><path class="cls-5" d="M107,21.77l2.07-8.6c-1.2-.47-2,6.54-2.36,6.92C106.63,20.56,106.35,21.75,107,21.77Z"/><path class="cls-5" d="M135.12,10c.26-.79-.22-3.38-.63-1.36.24,1.94-1.34,8.13-.06,8.56Z"/><path class="cls-5" d="M147.41,26.56l-6.88-6.8c-.24.09,10.24-12.41,7.52-10.63-1.87,2.83-9,9.87-8,11.22.4.65,7,7,7.4,7.56,1.16,2-1.93,3-3.07,4-.54.43,0,1.15.83.68a21.9,21.9,0,0,0,1.84-1.27C149.38,29.59,149.46,28.57,147.41,26.56Z"/><path class="cls-5" d="M133.73,24.93c0,.26-.88,6.91-.94,7.12-.11,1.59-2.53.73-3.76.59-.61.52.75.76,1.19.87,2.38.51,3.07,0,3.33-2.34l.69-6.73A.75.75,0,0,0,133.73,24.93Z"/><path class="cls-5" d="M166.48,28.57c-.43,2.59.32,4.68-3.15,4.1-1.08-.05-13-1.49-7.29,0l7.24.73c3.32.58,3.71-1.27,3.8-4.16C167.26,28.79,166.86,27.56,166.48,28.57Z"/><path class="cls-5" d="M155.4,11.55c-1.56.37.59.93,1.48.78C157.08,11.52,156.35,11.74,155.4,11.55Z"/><path class="cls-5" d="M169.31,8.82c0-3.37-1.11-1.55-.81.52.19,2.83-2.3,1.36-3.57,2.6.12.33-2.17,15-.3,14.58l1-14.19C168.54,12.33,169.24,11.64,169.31,8.82Z"/><path class="cls-6" d="M7.45,1.64C2.56.38-.42,9.74,2,8.39c.47-6.82,7-5.48,5.45-6.75Z"/><path class="cls-6" d="M30.55,5.62l.19-.4c.1-.66,1.74-1.27,1.49-2.13C31.05,1.74,28.35,7,30.55,5.62Z"/><path class="cls-6" d="M8.11,27.65c-.31,2.71-.65,5.91,1.12,8.21.26.3.85,0,.66-.37-1.64-1.31-.51-9.82-1.78-7.84Z"/><path class="cls-6" d="M23.58,34.11c.22.92,4.58,3.35,3.71,1.36a6,6,0,0,1-3-1.91.45.45,0,0,0-.7.55Z"/><path class="cls-6" d="M41.19,2.53c3.58.08,4,4.3,5.16,3.85C47.79,3.68,39.51.18,41.19,2.53Z"/><path class="cls-6" d="M55.85,2.42c-1.43-.06-5.13,5.72-2.68,4.71a7.69,7.69,0,0,1,3.07-4c.38-.23,0-.88-.39-.69Z"/><path class="cls-6" d="M41.86,35.21c1.5,2.27,6,.68,1.88.24-.49,0-2.13-1.68-1.88-.24Z"/><path class="cls-6" d="M54.43,35.45c2,1.22,4-.13.76-.48C54.74,34.63,53.81,34.88,54.43,35.45Z"/><path class="cls-6" d="M69.58,36.36c2-1.39,3.6-4,3-6.47-.13-.39-.69-.26-.76.09a7.35,7.35,0,0,1-2.68,5.8.36.36,0,0,0,.41.58Z"/><path class="cls-6" d="M74.64,3.56c2.66-1,6-1.74,8.43.2.39.31,1-.27.62-.63C81.94,0,72.22,2.53,74.64,3.56Z"/><path class="cls-6" d="M89.83,4.2c3-3.66,6.9-.43,6.36-2.16-1.94-3.12-9.6,2.53-6.36,2.16Z"/><path class="cls-6" d="M104.21,3.75c1-.89,3-.46,3.67-1.41C107.81.94,101.88,3.36,104.21,3.75Z"/><path class="cls-6" d="M78.61,34.84C79.31,37.52,85,38,81,36c-.64,0-2.25-2.92-2.39-1.2Z"/><path class="cls-6" d="M94,34.14a4.08,4.08,0,0,0,2.18,1.68c.71,0,.52-.85,0-1,.11.06,0,0,0,0a5.32,5.32,0,0,1-.83-.6c-.36-.68-1.66-1.32-1.29,0Z"/><path class="cls-6" d="M111.27,34.15l0,.08c.15.93,3.7,3.29,2.44,1.16-.11-.1-.72-.53-1-.77-.32-.09-.77-1.48-1.42-1.14a.46.46,0,0,0-.12.67Z"/><path class="cls-6" d="M128.12,2.39c-4.5-.14-7,7.2-4.49,5.22,0-3.78,6.49-4.51,4.49-5.22Z"/><path class="cls-6" d="M140,5.6A4.17,4.17,0,0,1,142,4.36c.76,0,1.71-.82.54-1.06-.95-.34-4.58,2.51-2.48,2.3Z"/><path class="cls-6" d="M152.53,4.76a4.19,4.19,0,0,1,.54-.4,6.43,6.43,0,0,1,1.11-.5c.44-.18,1.34-.11,1.35-.74-.54-1.59-5.51,1.68-3,1.64Z"/><path class="cls-6" d="M168.7,3.33a3.83,3.83,0,0,1,1.53.91c.66.31,1.28,3.27,1.9,1.58C172.44,4.32,167.57.89,168.7,3.33Z"/><path class="cls-6" d="M125,35.09c1.6,2.6,7.23,2,2.19.27a5.92,5.92,0,0,1-1.11-.72c-.4-.75-1.61-.37-1.08.45Z"/><path class="cls-6" d="M137.3,33.26c.38.74,3.9,3.24,3.35,1.2-.7-.22-3.88-3.38-3.35-1.2Z"/><path class="cls-6" d="M150.45,34c.78.72,3.43,3,4,1.34-.91-.87-2.41-1-3.29-2-.43-.35-1,.3-.67.71Z"/><path class="cls-6" d="M170.48,29.66c-.58,7.05-6.55,6-5,7.19,4.28,1.28,6.94-8.75,5-7.19Z"/><path class="cls-7" d="M11.44,6.65c-8.39-3-5.29,8-4.32,4.59.3-.39,0-2.54.36-3.15A1.87,1.87,0,0,1,7.7,7.7c.24-.9,4.84.34,3.74-1Z"/><path class="cls-7" d="M15.67,32.23c2.8-.5,2.11-3.66.77-1.73l.07-.14a2,2,0,0,1-.2.3l.09-.11a2.19,2.19,0,0,1-.42.38l.12-.08a2.26,2.26,0,0,1-.49.25l.14-.05C14.88,31,14.71,32.3,15.67,32.23Z"/><path class="cls-7" d="M24.35,10.69l0,.08.06-.12c0,.08-.1.15-.14.24l.07-.11-.08.13.06-.11c-.44.64.55,1.09.91.47.6-.61-.51-1.38-.84-.58Z"/><path class="cls-7" d="M37.58,6.26C31.34,4.82,31.28,19.55,35,8.59a2.88,2.88,0,0,1,1.27-.93C37,7.47,39,7,37.58,6.26Z"/><path class="cls-7" d="M32.32,29a2.75,2.75,0,0,1-.24.41l.11-.14a2.42,2.42,0,0,1-.32.32l.14-.11c-.6.25-.76,1.17,0,1.39,1.19.57,2.59-3.24.36-1.87Z"/><path class="cls-7" d="M48.41,30a.22.22,0,0,1,0,.08V29.9a1,1,0,0,1,0,.17l0-.16a.64.64,0,0,1-.06.18l.07-.15a.86.86,0,0,1-.1.16l.11-.14c-.6.42-.29,1.46.48,1.27,1.63-.38,0-3.43-.52-1.25Z"/><path class="cls-7" d="M36.55,23.16c.43-.13,1.8-.06,1.32-.81C37.41,22.05,35.39,22.73,36.55,23.16Z"/><path class="cls-7" d="M59.27,6.46c-3.76-.69-2.55,5.3-1.06,2.26l0,.2c0-.16,0-.32,0-.49v.21a1.88,1.88,0,0,1,.1-.47l-.07.19A1.92,1.92,0,0,1,58.41,8l-.11.16a1.2,1.2,0,0,1,.24-.26L58.4,8a1.77,1.77,0,0,1,.32-.21l-.17.08.29-.13-.17.08a1.42,1.42,0,0,1,.4-.12l-.17,0c.81.14,1.19-1,.37-1.29Z"/><path class="cls-7" d="M65.08,31.46c3.21.88,2.9-3.6,1.12-1.47l.07-.17a1.35,1.35,0,0,1-.15.26l.11-.15-.12.17.11-.15a1.67,1.67,0,0,1-.23.23l.14-.11a1.25,1.25,0,0,1-.35.21l.16-.07-.18.08.16-.07a1.78,1.78,0,0,1-.33.09l.17,0a1.93,1.93,0,0,1-.34,0l.17,0A.63.63,0,1,0,65.08,31.46Z"/><path class="cls-7" d="M68.56,9a.79.79,0,0,0-.22.19l.09-.11a.31.31,0,0,1-.11.09l.13-.09-.13.07.15-.06a1,1,0,0,0-.42.23l.13-.11a.36.36,0,0,1-.12.08l.16-.07c-1.07.34-.24,1.8.65,1.18.69-.29.61-1.75-.31-1.4Z"/><path class="cls-7" d="M56.87,27.76c.7.37,2.22-.12,1.35-1l.11.09c-.23-.28-.57-.21-.88-.15h.16a1.78,1.78,0,0,1-.46,0l.15,0A.57.57,0,1,0,56.87,27.76Z"/><path class="cls-7" d="M76.65,6.92c-3.5.47-3.66,3.4-1,5.13,1.92-.1-.09-2.05-.32-2.61,0,0-.13-.44-.11-.27,0,0,0-.2,0-.11s0-.14,0,.06c.08-.45,3.5-1.67,1.41-2.2Z"/><path class="cls-7" d="M95.89,6.29c-3.64-3-5.86,6.71-1.6,1,.08-.06,0,0-.06,0s.2-.07.08,0a2,2,0,0,1,1.09.08.57.57,0,0,0,.49-1Z"/><path class="cls-7" d="M82.42,26.77c0,1-.7,5.72,1.09,4.57.29-1.46-.17-3,.1-4.52a.6.6,0,0,0-1.19-.05Z"/><path class="cls-7" d="M107.91,6.08c-3.2-.83-5.8,8-3.37,6.47.58-1.17.83-2.47,1.34-3.67,0-1.42,3.63-2.31,2-2.8Z"/><path class="cls-7" d="M99.24,30.84c.09-.69,2-4.61.28-3.6-.27.59-1.87,4.61-.28,3.6Z"/><path class="cls-7" d="M114.45,28.69c.25.74.25,1.88,1,2.27s.59-.87.47-.94c-.12-.36-.31-.81-.41-1.11,0-.79-1.1-1.19-1.1-.22Z"/><path class="cls-7" d="M107.15,23.31c.64.1,2.08-.19,1.34-1S105.57,22.72,107.15,23.31Z"/><path class="cls-7" d="M129.92,6.82c-4.38-1-2,9.08-1.17,2.37.08-.48.09-.9.34-1.07-.11.1,0,0,.08-.06.29-.13,2-.7.75-1.24Z"/><path class="cls-7" d="M129,31.16c-.15-.87.54-2.58-.48-3-.94-.09-.44,4.65.48,3Z"/><path class="cls-7" d="M145.5,7.87C143.8,6.55,138.37,11,141,11c1.3-.78,2.53-2.28,4.3-2.19a.47.47,0,0,0,.22-.9Z"/><path class="cls-7" d="M155.78,8.68a.51.51,0,0,1,0-.13l0,.12a1.89,1.89,0,0,1,.13-.33l-.06.12.11-.22-.07.13a2,2,0,0,1,.2-.3l-.1.12c.07-.08.14-.15.2-.23l-.1.12a1.48,1.48,0,0,1,.26-.24l-.13.09a2,2,0,0,1,.32-.18l-.15.06a1.72,1.72,0,0,1,.39-.1l-.17,0c1.62-.11.57-1.88-.63-1.1-1.35.12-1.47,3.54-.19,2.05Z"/><path class="cls-7" d="M154.81,27.81c.95.64,2.36-.47,1-1l.47.27C155.76,26.14,153.46,26.93,154.81,27.81Z"/><path class="cls-7" d="M163.29,32c2,.3,2.47-2.93.69-1.43l.09-.12-.22.27.1-.11a1.73,1.73,0,0,1-.28.26l.11-.08a1.35,1.35,0,0,1-.34.17l.13-.05C162.86,30.82,162.47,31.8,163.29,32Z"/><path class="cls-1" d="M138,64.64c2.82.23,5-1.52,3.69-4.3l-5-14.43a3.9,3.9,0,0,0-4.69-3c-4.35.22-5.34,1.53-6,4.68a1.68,1.68,0,0,1-3.18.17c-1.15-4.3-10.64-5.93-15.3-3.73-1.41,1-2.76-1.15-4.14-.84-3.89-.23-2.9,2.11-5.29,2.64-.94,0-1.41-.74-1.82-1.44-1.58-1.57-5.86-1.89-7-.3C87.9,45.8,83.73,42.64,81,45.17c-2.29,1.48-2.71-1.93-5.49-1.49-2.84-.46-5.4.6-5,3.8-.15,1.41,1,5.51-1.25,5.79-4.12,0-2.29-11-7.95-10.44-3.67.06-6.07.89-6.59,3.76-.59,1.58-1.16,8.25-4.22,5.54-2.85-2.26-2.63-1.85-1.86-5.51.91-6.92-16.84-4.76-15.89,3.19-.38,2.65,2.11,3.39,2.63,5.45-.5,2-3.6,3.27-3,5.58,1.16,3.28,5.79,4,9.24,4.17,3.53.33,5.68-1.65,8.4-2.28,1.67.46.85,1.74,3.66,1.78.21,0,1-.06,1.22-.07,3.12-.21,3.6-1.19,4-2.65a1.69,1.69,0,0,1,3.25,0c.27,1.88,1.82,3.22,4.39,2.86,1-.11,2.09.09,3.25-.77,2.06-1.49,6,3.77,7.92-.47,1.66-3.11,3.81,1.47,5.83,1.18,3.28.24,5.12-6,7.42-3a7.46,7.46,0,0,0,12.7.78,1.7,1.7,0,0,1,1.69-.67c1.91.61,1.41,3.77,4,3.4a8.06,8.06,0,0,0,1.74-.24c2.35-.09,3.24-3,5.17-1.13a2.53,2.53,0,0,0,2.08,1.06,6.43,6.43,0,0,0,2.83-1c1.52-.75,2.25,1,4,.78.37,0,.85-.06,1.23-.07,3.11-.21,3.6-1.19,4-2.65a1.69,1.69,0,0,1,3.25,0C133.88,63.66,135.43,65,138,64.64Z"/><path class="cls-2" d="M97.55,68.87a10.68,10.68,0,0,1-8.1-3.72c-2.29,2.4-7,4-9.85,1.44-2.09,2.42-6.21,2.09-8.81.6-3.54,1.46-8.42,1.18-10.38-1.34-2.06,2.25-8.64,2.82-11,.68C42,71.57,22.36,66,31.23,55.21,21.64,41.1,48.76,33,51.81,44.61c2.4-7,14.24-6.51,16.06-1,2.37-4.47,8.87-4,12.25-1.89,2.17-1.14,4.73-1.09,7.3-.62,2.25-1.94,7.25-2,10.57.31,3.41-2.14,5.38-2.09,8.66-.79,5.09-2.17,15.09-.29,17.21,2.79,2-3.51,5.62-3.81,8.92-3.94a7.07,7.07,0,0,1,7.05,5.33l5,14.43c3.48,8.31-8.49,11.48-13,6.62-2,2-7.22,2.68-10,1.3-1.88,1.12-5.13,1.4-7-.18-3.26,1.77-7.87,2.31-10.26-.71A10.34,10.34,0,0,1,97.55,68.87Zm-8-8.11a1.66,1.66,0,0,1,1.42.78,7.46,7.46,0,0,0,12.7.78,1.7,1.7,0,0,1,3,.58c1.16,4.24,6.18,1.15,8.36.15,2.24.86,2.71,2.75,5.56,1,2.21-1.49,3,1.1,5.83.38,4.93,0,2.67-3.28,5.6-3.9,3,.59.8,4.77,6,4.1,1.27-.09,2.82,0,3.66-1.22,1.64-2-4.75-15.31-5-17.51a3.9,3.9,0,0,0-4.69-3c-4.35.22-5.34,1.53-6,4.68a1.68,1.68,0,0,1-3.18.17c-1.18-3-4.72-4.63-10-4.63-2.88-.61-5.8,1.9-7.41.75a3.46,3.46,0,0,0-2.8-.65c-.78,0-2.59.38-3,1.61-.78,1.62-2.82,1-3.35-.45-1.32-1.37-3-1.12-4.54-1.32-2.6-.17-2.31,2.28-4.45,1.53-5.53-1.92-6.8,2.81-8.81.14-.69-1-3-1.06-4.47-1.08-6.56-.16-.93,8.35-4.69,9.65-2.44.7-3.25-6.12-4.07-7.36-1-5-10.27-3.43-10.47.68-1.13,3.54-1.1,8.91-5.82,4.25-2.79-2.55,4-8.27-6.12-8.2-6.95-.25-14,4.57-7.4,12.62-.5,2-3.6,3.27-3,5.58,1.16,3.28,5.79,4,9.24,4.17,3.53.33,5.68-1.65,8.4-2.28,1.67.46.85,1.74,3.66,1.78s5.09-.84,5.21-2.72a1.69,1.69,0,0,1,3.25,0c.19,2.27,2.59,3.3,5.17,2.81,1.34.4,3.28-2,4.66-.69s5,1.94,5.73-.5a1.68,1.68,0,0,1,1.24-1c1.84-.24,2.76,2.51,4.59,2.22a6.7,6.7,0,0,0,4.53-3A1.69,1.69,0,0,1,89.51,60.76Z"/><path class="cls-3" d="M97.55,65.85c-4.45.2-5-2.93-8-4.76v-.33l0,.33c-1.13,0-1.91,2.08-2.67,2.3-1.89,1.78-4.57,2.17-6.41-.12A1.44,1.44,0,0,0,79,62.69c-1.93,1.24-1.59,3.38-5,2.5-1.76-.09-2.53-2.09-4-1.06-1.27.94-2.36.73-3.44.85-5.42.6-3.4-3.43-6-4.11-2.64.75-.38,3.8-5.58,3.91-1.42.37-4-.45-4-1.07-1.47-2-5.3,2.39-9.27,1.64-4.28.08-12.4-2.33-8.6-7.51,4.82-4.15-1-3.33-.61-8,.52-8,8.46-7.62,12.87-7.37,6.73.89,1.7,6.33,3.79,8.11,1.23.72,3,3.18,4,.83l1.33-4.88c.24-4.45,10.11-6,11.1-.7.73,1,1.67,7.73,3.7,7.14,2.72-1.06-.5-6.54,1.9-8.69,1.32-1.27,2.9-.93,4.43-.91,2.39-.13,2.68,1.19,4.23,1.88,1.58-.22,2.41-1.65,4.42-1.4.39,0,1,.06,1.43.07.81-.14,2.62,1.1,3.37,0,.88-1.61,6.6-1.7,7.84.84,2,2.65,2.62-2.25,5.76-1.83,4.45-.15,1.53,2.14,7.11.08,5.06-.83,12.31.69,13.39,4.67a1.32,1.32,0,0,0,1.32.85c1,0,1.32-1.14,1.49-2,.27-4.45,10.1-6,11.11-.7l5,14.43c1.51,3.56-1.45,5.05-4.82,4.77-2.82,0-3.45-1.48-3.89-3.13a1.35,1.35,0,0,0-2.6,0c-.41,1.55-1,2.67-4.29,2.9-1.2.13-2.81.1-3.6-.61-.64-.57-1.47-.2-2.09.19-2.72,1.63-3.53.2-5.72-1-1.46.28-1.82,1.58-3.83,1.75a9.67,9.67,0,0,1-1.81.25,2.9,2.9,0,0,1-3-2.41C104.79,59.45,101.86,66.73,97.55,65.85Zm-8-5.43c3.09,1,3.55,5.1,8,4.75,4,.52,4.92-3.71,7.83-3.85,2.72,1.07,1.09,4.46,5.65,3.16,2.38-.21,3.47-3.14,5.49-1a2.18,2.18,0,0,0,1.82.93c1.72.07,3.25-2.11,4.88-.76,2,1.28,7,.3,6.82-1.94a2,2,0,0,1,3.9,0c.17,2.23,2.47,3,4.82,2.56a2.53,2.53,0,0,0,2.61-3.79l-5-14.45c-.63-1.81-1.42-2.85-3.56-2.85-3.55.06-5.75.8-6.26,3.5-.06,2.28-3,3.54-4.09,1.18-1-3.67-8-5-12.68-4.25-1.8,0-3,1.87-4.58.48a4.23,4.23,0,0,0-5,.39c-.47.83-1.05,1.69-2.12,1.65a2.37,2.37,0,0,1-2.09-1.56c-1.39-1.36-5.45-1.74-6.45-.31-1.56,2-5.59-1.29-8.29,1.18a2,2,0,0,1-1.55.46c-1.73-.44-1.77-2.06-4.17-1.87-2.64-.4-5,.4-4.65,3.45L71,51.55a2,2,0,0,1-3.92.73c-1.32-2.52-1.67-9.46-5.74-9.11-3.5.06-5.79.8-6.26,3.5-1.09,3.82-1.45,9.27-6.32,4.47-3.27-2.78,4-8.27-6-8.16-2.91,0-9.7.66-9.7,6.83a4.37,4.37,0,0,0,1.82,3.8,2,2,0,0,1-.06,3.28c-5.95,4.77,2,8,6.78,7.79,4,.83,7.59-4,9.76-1.44l-.23.27.27-.2c.1.57,2.25,1.08,3.46.8,3-.21,3.33-1,3.68-2.4a2,2,0,0,1,3.9,0c.42,1.54.89,2.63,3.25,2.63,1.3-.13,2.54.18,3.85-.71,1.94-1.54,3.56,1.39,5.78,1.06,2,.24,1.81-2.36,3.53-2.65,1.91-.42,2.87,2.44,4.66,2.21a6.42,6.42,0,0,0,4.24-2.78A2,2,0,0,1,89.51,60.42Z"/><path class="cls-4" d="M34.87,61.91c-1.45-.87-1.48-1.77-.5-3,1.17-1.53,1.56-1.65,3.39-.89,2.15,1.05,6.45,1.21,6.56-1.46,0-3.12-10.22-.72-10.22-6.7-1.09-6.22,14.09-8,13.14-3.22C47.19,48,47,48.47,46,48.47s-6.12-1.09-6,1.14c0,2.52,10.59-1.07,10.59,7.25C50.59,64.23,39.79,65,34.87,61.91Z"/><path class="cls-4" d="M68.9,60.79c1,2.27-.59,2.45-2.48,2.48-3.41.56-2.85-2.25-3.64-4.43L58,59c-.52,2.22,0,4.12-3.22,4.06-1.88.21-3.32,0-2.55-2.23L56,47c.52-2,1.09-2.48,4.55-2.72,2-.15,2.62.22,3.29,2.13Zm-7-5.22-1.84-5.84-1.41,5.84Z"/><path class="cls-4" d="M86,58.81c1.69,1.49,1,2.46-.67,3.54s-2.3,1.14-3.72-.29l-4.52-4.68-.47,4.55c.09,3.05-4.84,1.65-4.34-.89l-.42-13.61c0-2,.42-2.5,2.4-2.43s3.9,0,3.42,2.58l-.47,4.87,3.61-5c1.2-1.88,2.52-2,4.63-1.83,1.81.1,2.06.67,1,2.08l-5.08,6.53Z"/><path class="cls-4" d="M100.7,46.93c-.18-1.78.17-2.22,2-2.37C106,44,105,48,105.22,50.1c0,6.78-1.8,14-7.67,14-5.42,0-8-6.6-8-14.3.12-2.65-.36-6.47,3.62-5.27,3.33-.1,1.86,3,2,5.15C95.68,63.75,102.63,56.2,100.7,46.93Z"/><path class="cls-4" d="M121.46,59.28c1.67,1.9.21,2.72-1.56,3.57-3.27,2.34-4-4-5.17-5.77a13,13,0,0,1-2,.87c.21,2.62,1.38,5.41-2.38,5.62-1.91.37-2.45-.15-2.5-2.11l-.37-14.08c0-1.93.49-2.52,2.4-2.75,7.93-1.79,17.21,4.29,8.49,10.55Zm-9.85-10.17.54,4.51C119,52.64,117.37,46.86,111.61,49.11Z"/><path class="cls-4" d="M140.39,60.79c1,2.27-.59,2.45-2.48,2.48-3.4.56-2.85-2.25-3.63-4.43L129.5,59c-.51,2.22,0,4.12-3.22,4.06-1.88.21-3.32,0-2.55-2.23L127.52,47c.52-2,1.09-2.48,4.55-2.72,2-.15,2.63.22,3.29,2.13Zm-7-5.22-1.83-5.84-1.41,5.84Z"/><path class="cls-5" d="M139.54,62.18s0-.06,0,0Z"/><path class="cls-5" d="M131.6,49.79l.12.39A.49.49,0,0,0,131.6,49.79Z"/><path class="cls-5" d="M114.45,56.74c-.38.35-2.06.31-2.21,1.13.22,3,1.32,5.07-3,5.31-.95.68,1.23.46,1.61.29,3.28-.16,2-3.37,1.88-5.52a13,13,0,0,0,2-.87S114.65,56.65,114.45,56.74Z"/><path class="cls-5" d="M111.61,49.11c1.34-.38,4.33-1.14,5,.74-.38-2.15-4.47-2-5.44-.69.24.75,0,4.83,1,4.46Z"/><path class="cls-5" d="M121.46,59.28l-3.12-4.1c2.7-1.82,4.13-4.24,3.12-7-.18-.42-.53-.47-.41-.1.78,3.85-.37,4.5-2.69,6.45-.43.24-.68.5-.49.85,1.22,2.75,6.73,5.39.89,7.33-1.14,1.22,1.62,0,2-.34C122.47,61.51,122.62,60.84,121.46,59.28Z"/><path class="cls-5" d="M95.47,63.77C104.29,66.58,106,53.35,105,46c-.07-.43-.55-.45-.51-.06.53,6.36.41,19.39-9,17.35C94.7,63.07,95.05,63.62,95.47,63.77Z"/><path class="cls-5" d="M98.61,57.26C95,58.49,95,49.92,95.41,46.19,93.91,44,93.47,60,98.61,57.26Z"/><path class="cls-5" d="M86,58.81l-4.66-4.6c0-.28,7.2-8.5,5-7.27-.8.87-4.41,5.47-5.31,6.47-.14.16-.53.62-.28.91,1.67,2,4.95,5,5.29,5.4,1.22,1.36-1.3,2.13-2,2.77-.63.4-.14.68.25.5a10,10,0,0,0,1.44-1C87.33,60.87,87.38,60.17,86,58.81Z"/><path class="cls-5" d="M76.58,57.31c-.73,2.35.52,7.26-3.25,5.28-.37-.15-.34.41-.2.5,4.61,2.41,3.36-3.09,4-5.71C77.09,57.38,76.66,56.79,76.58,57.31Z"/><path class="cls-5" d="M77.21,52.45l.48-5c0-.63-.56-.59-.62.23C77.25,48.44,76,52.41,77.21,52.45Z"/><path class="cls-5" d="M62.59,58.38c-1.51.25-4.41-.63-5.11.59-.34,3.23-.89,3.75-4.37,3.62-.63,0-.3.46-.08.5a8.69,8.69,0,0,0,1.76,0C58,63.13,57.49,61.24,58,59l4.77-.17S62.71,58.38,62.59,58.38Z"/><path class="cls-5" d="M63.87,46.37C61.3,42,69.26,63,68.54,61.75c.48,1.8-5.2.34-3.37,1.52,1.79,0,5.09.36,3.73-2.48Z"/><path class="cls-5" d="M58.67,55.57l1.42-5.84c-1.28-.28-1.65,5.11-1.87,5.26A.5.5,0,0,0,58.67,55.57Z"/><path class="cls-5" d="M134.08,58.38c-1.51.25-4.41-.63-5.1.59-.34,3.23-.9,3.75-4.38,3.62-.63,0-.29.46-.08.5a8.68,8.68,0,0,0,1.76,0c3.21.06,2.71-1.83,3.22-4.06l4.78-.17S134.2,58.38,134.08,58.38Z"/><path class="cls-5" d="M135.36,46.37C132.79,42,140.76,63,140,61.75c.49,1.8-5.19.34-3.36,1.52,1.78,0,5.08.36,3.72-2.48Z"/><path class="cls-5" d="M130.17,55.57l1.41-5.84c-1.28-.28-1.65,5.11-1.87,5.26A.5.5,0,0,0,130.17,55.57Z"/><path class="cls-5" d="M50.61,56.86c.21-.75-.74-4-.89-2.17a6.52,6.52,0,0,1,0,4.24c-1,4.13-11.88,5.24-14.4,2.49-.46-.34-1,.12-.42.49C39.79,65,50.59,64.23,50.61,56.86Z"/><path class="cls-5" d="M40,49.6c.72-3.67,7.72,1.24,7.22-3,.15-.55-.3-2-.51-.6.19,2.16-.64,2.12-2.45,1.74a10.53,10.53,0,0,0-3.59.1c-1.39.46-2.37,2.34.2,2.65C40.15,50.29,40,49.9,40,49.6Z"/><path class="cls-5" d="M36,53.13c2.44,1.45,7.36,1.25,8.19,2.8-.47-1.61-2.92-1.72-4.44-2.1C39.05,54,35.77,52.31,36,53.13Z"/><path class="cls-6" d="M38,40.79c-6.4.08-8.86,11.32-6.26,9.15-.41-7.24,8.45-8.37,6.26-9.15Z"/><path class="cls-6" d="M30.19,61.71c0,.94,3.41,4.25,3.18,2.21a8.11,8.11,0,0,1-1.74-1.42c-.36-.38-1.28-2.13-1.44-.79Z"/><path class="cls-6" d="M48.21,42.64a3.23,3.23,0,0,1,.78.8c.34.4.58,2.41,1.33,1.23s-2.74-4.41-2.11-2Z"/><path class="cls-6" d="M55.55,41.56c-1.48,0-5.21,7.27-3.21,6.64.83-2.16,1.59-4.56,3.62-5.92.38-.27,0-1-.41-.72Z"/><path class="cls-6" d="M64,42.35a5.35,5.35,0,0,1,.5.45l-.07-.07c.17.17.3.37.47.54l-.07-.08.11.11-.07-.07c.29.4.89.15.7-.35s-2-1.86-1.57-.53Z"/><path class="cls-6" d="M50,65.94c.55.85,4.19,1.44,2.69,0a4.38,4.38,0,0,0-.8-.17h.06a3.84,3.84,0,0,1-.93-.34c-.36-.49-1.73-.54-1,.49Z"/><path class="cls-6" d="M61.24,64.86c.45.65,3.25,1.93,2.4.43a7.37,7.37,0,0,1-1.87-1.12c-.44-.35-1,.35-.53.69Z"/><path class="cls-6" d="M71.09,66c1.24,1.14,3.91.19,1.39-.41a3.76,3.76,0,0,1-.86-.34c-.21-.3-1.11.29-.53.75Z"/><path class="cls-6" d="M79.86,65.46c.5.59,2.3,1.71,2.62.51A.49.49,0,0,0,82,65.5l-.47-.09.13,0a2.21,2.21,0,0,1-1.09-.57c-.1-.37-1.24-.09-.75.59Z"/><path class="cls-6" d="M72.32,41.81c-3.49-.14-5,7.07-3.18,5.8,0-5,5-5.13,3.18-5.8Z"/><path class="cls-6" d="M82.45,43.38l.14-.09a2.87,2.87,0,0,1,.6-.23s.79-.11.69-.47c-.32-1.12-3.12.84-1.43.79Z"/><path class="cls-6" d="M88.58,43c1.38-1.22,3.27-.86,4.94-.94,1.3-1.25-2.33-1.05-3-.83-.67-.06-3.66,1.7-1.9,1.77Z"/><path class="cls-6" d="M100.07,42.48a4.82,4.82,0,0,1,3.44-.89c1.33-1-1.42-1.22-2.08-.83-.75,0-3.13,1.79-1.36,1.72Z"/><path class="cls-6" d="M107.8,42.58c.85-1,7.52-.06,6.13-1.39C113.14,40.58,105.33,41.37,107.8,42.58Z"/><path class="cls-6" d="M125.32,44.1c.6-1.72,6.17-1.88,4.52-2.8-1.27-.92-6.69,2.81-4.52,2.8Z"/><path class="cls-6" d="M89.86,63.8c.32.62,2.91,3.49,2.87,1.64a12.8,12.8,0,0,0-1.21-1.11c-.4-.53-1.91-2.25-1.66-.53Z"/><path class="cls-6" d="M104.78,64.49c1,2.86,6.75,2.73,2.38,1a4.59,4.59,0,0,1-1-.68c-.28-.43-1.42-1.75-1.4-.32Z"/><path class="cls-6" d="M115.82,65.82c.63,1,4.22,1.3,2.61-.11-.42-.09-.81-.08-1.09-.17s-2.25-1.12-1.52.28Z"/><path class="cls-6" d="M123.34,66.19c1,.48,3.74,1.26,4.08-.2-.91-.76-2.6.19-3.73-.69A.48.48,0,0,0,123.34,66.19Z"/><path class="cls-6" d="M142.78,58.24c1,2.82.72,6.87-2.8,7.55-.3.08-.22.5,0,.57,1.72.43,3.27-1.11,3.85-2.59.85-.72,0-7.82-1.09-5.53Z"/><path class="cls-7" d="M38.74,45.08c-2.4-.14-4.68,5-2.49,3.6A5.75,5.75,0,0,1,38,46.52c.35-.18,2.31-1.08.78-1.44Z"/><path class="cls-7" d="M35.61,59.63a1.76,1.76,0,0,1,.55-.28l-.12,0a1.34,1.34,0,0,1,.4-.07H36.3a2.34,2.34,0,0,1,.38,0l-.14,0c.69.38,1.26-.67.51-1-.94-.63-3.27,1.38-1.44,1.28Z"/><path class="cls-7" d="M46.2,52.87a2.34,2.34,0,0,1,1.2.67c.1.17.82,1.09,1,.35C48.64,52.83,45,51.38,46.2,52.87Z"/><path class="cls-7" d="M59,45c-3.09-.42-2.65,6.23-.77,1.57-.08.16.16-.26.22-.33-.17.21.22-.26,0,0a1.38,1.38,0,0,1,.63-.38A.42.42,0,0,0,59,45Z"/><path class="cls-7" d="M53.67,61.64c.14-.92,1.31-2.17.66-3-1.08-.61-2.12,4.21-.66,3Z"/><path class="cls-7" d="M59,56.77c.5,0,1.47-.43.72-.89S57.85,56.55,59,56.77Z"/><path class="cls-7" d="M67.36,61.68c.45-1-1.21-3-1.13-1.13l0-.11c.21.45.54,2.28,1.16,1.24Z"/><path class="cls-7" d="M74.49,45.63c-3.43-1.24-1.47,6.72-.79,1.55,0,.3,0-.24.08-.29s.11-.23,0,0a1.37,1.37,0,0,1,.13-.2s-.1.09,0,0,.09-.12.35-.17c.32.16.88-.64.25-.88Z"/><path class="cls-7" d="M73.59,61.16c.22-.52-.2-2.09-.71-1.06l0-.09c-.14.35,0,.74,0,1.11V61a.37.37,0,0,0,.72.14Z"/><path class="cls-7" d="M82,48l.75-.64.15-.06c.3,0,2.52-.42,1.35-1.12a2.55,2.55,0,0,0-2.82,1.36A.38.38,0,0,0,82,48Z"/><path class="cls-7" d="M83.82,60.15c.32.52,1.48,1.18,1.41.1-.18-.69-1.86-1.28-1.41-.1Z"/><path class="cls-7" d="M92.37,45.51c-3.32-1-1.88,4.78-1.76,6.61,1.86,2.12.44-4.93,1-5.84l0,.08-.26.13c.54,0,2.07-.38,1-1Z"/><path class="cls-7" d="M102.57,45.54c-3.14-.22.21,7.31-.22.75v0c-.48.43,0,.13.09.12.66.06.87-.89.13-.89Z"/><path class="cls-7" d="M93.14,60.82c1.16,2.71,5,.76,1.89.47a2.37,2.37,0,0,1-.5-.2,5,5,0,0,1-.47-.36s-.07-.07,0,0,0,0,0,0c-.21-.53-1-.52-.87.14Z"/><path class="cls-7" d="M110.34,45.77c-3.41-.83-2,5-2,7,1.4,1.46.67-3,.87-3.68-.28-3.43,1.74-2.29,1.08-3.33Z"/><path class="cls-7" d="M108.67,60.62c0,.47-.19,1.37.49,1.41.9-.19.15-2.65-.49-1.41Z"/><path class="cls-7" d="M117,60.73q.13.3.24.6l0-.12c-.07.87,1.17,1.33,1.15.26,0-.78-1.33-2.28-1.35-.74Z"/><path class="cls-7" d="M114.33,54.44c.57-.09,2.78-1.1,1.66-1.58C115.61,53.12,112.88,54.19,114.33,54.44Z"/><path class="cls-7" d="M118.88,47.49s.08.08,0,0,.31.44.24.33a2.55,2.55,0,0,1,.24.63l0-.1c.14.9,1.09.44.74-.3,0-.66-1.61-1.82-1.22-.57Z"/><path class="cls-7" d="M130.78,45.41a3.72,3.72,0,0,0-1,.13c-2.92,1-2,7.16-.07,1.29-.07.14.06-.09.08-.11s0,0,0,0,.36-.27.35-.31c.44-.12,1.48-.6.65-1Z"/><path class="cls-7" d="M125.11,61.46c.36-.58,1.63-3.5.06-2.5-.1.46-1.19,3.22-.06,2.5Z"/><path class="cls-7" d="M130.5,56.81c.58.18,1.54-.38.72-.84C130.56,55.62,129.52,56.44,130.5,56.81Z"/><path class="cls-7" d="M137.74,62c1.4.64,1.51-1.6.73-2.26l.09.09c-.36-.53-1.05-.26-.88.38v-.13a.82.82,0,0,0,.06.38l0-.13a6,6,0,0,1,.2.94v-.14a.59.59,0,0,1,0,.19l0-.14a.49.49,0,0,1,0,.11l.07-.13a.21.21,0,0,0,0,.06l.09-.1a.18.18,0,0,1-.07.05l.11-.07-.05,0,.12,0-.06,0h.1l.14,0C137.73,60.86,137.22,61.69,137.74,62Z"/></svg>