<svg id="Layer_1" data-name="Layer 1" xmlns="http://www.w3.org/2000/svg" viewBox="0 0 161.55 58.16"><defs><style>.cls-1{fill:#231f20;}</style></defs><path class="cls-1" d="M14.08,24.38c.28,3.22-1.14,3.88-4.1,4.1-2.8.36-3.52-.32-3.45-3.16L7,9.35C1.24,9.78-.45,10.5.1,3.82.13.94.82.26,3.69.44l14.6.86c2.73.18,3.38.86,3.27,3.67s-.72,3.41-3.45,3.59l-4.6.33Z"/><path class="cls-1" d="M45.54,24.09c1.43,3.3-.86,3.55-3.6,3.6-4.95.81-4.13-3.27-5.28-6.44l-6.94.26c-.75,3.22,0,6-4.67,5.89-2.74.3-4.83.07-3.71-3.24L26.85,4c.75-2.84,1.58-3.6,6.61-4,2.95-.21,3.81.33,4.78,3.09ZM35.4,16.51,32.74,8l-2.05,8.49Z"/><path class="cls-1" d="M62.87,24.85c-.18,2.8-.9,3.41-3.67,3.13l-7.12-.72c-2.74-.19-3.27-1.28-2.95-3.89.18-2.4.79-2.94,3.24-2.8l.54-13.34c-2.48.08-3-.83-3-3.16-.07-2.52.51-3.16,3-3.27L61.79.44C64.52.33,65.2,1,65.13,3.78s-.75,3.45-3.63,3.45l-1,14C63.14,21.11,63.1,22.75,62.87,24.85Z"/><path class="cls-1" d="M84.15,24.52c.39,3.75-2.17,4-5.22,4-2.87.18-3.59-.39-3.63-3.27l-.1-9.42L67.36,5.61c-1.69-2.19-1.4-3.09,1.22-4,3-1,6.56-3.11,8.2.94l4.13,7.37,4.17-7.41c1.37-2.44,2.3-2.8,5-1.76,2.55,1,2.84,1.87,1.37,4.14L84.08,16.11Z"/><path class="cls-1" d="M115.17,24.09c1.44,3.3-.85,3.55-3.59,3.6-5,.81-4.14-3.27-5.29-6.44l-6.94.26c-.74,3.22,0,6-4.67,5.89-2.73.3-4.82.07-3.7-3.24L96.48,4c.75-2.84,1.58-3.6,6.61-4,3-.21,3.81.33,4.78,3.09ZM105,16.51,102.37,8l-2.05,8.49Z"/><path class="cls-1" d="M140,21.22c2.47,2.16,1.41,3.56-1,5.14-2.33,1.76-3.34,1.65-5.39-.43l-6.58-6.8-.68,6.62c-.25,2.33-.94,2.8-3.27,2.3s-3-1.19-3-3.6l-.61-19.77C119,.88,121.72,1,124.66,1.23s3.53.79,3.27,3.67L127.25,12l5.25-7.3c1.74-2.73,3.65-3,6.72-2.66,2.63.14,3,1,1.4,3l-7.37,9.49Z"/><path class="cls-1" d="M159.28,24.85c-.18,2.8-.9,3.41-3.67,3.13l-7.11-.72c-2.74-.19-3.27-1.28-2.95-3.89.18-2.4.79-2.94,3.23-2.8l.54-13.34c-2.48.08-3-.83-3-3.16-.07-2.52.5-3.16,3-3.27L158.2.44c2.73-.11,3.42.54,3.35,3.34s-.76,3.45-3.63,3.45l-1,14C159.56,21.11,159.52,22.75,159.28,24.85Z"/><path class="cls-1" d="M29.38,56c-1.43-.85-1.45-1.74-.49-3,1.14-1.51,1.53-1.63,3.33-.88,2.11,1,6.34,1.18,6.45-1.44,0-3.06-10-.7-10-6.59C27.55,38,42.48,36.19,41.54,40.91c0,1.41-.27,1.85-1.19,1.85s-6-1.07-5.91,1.12c0,2.48,10.41-1.05,10.41,7.12C44.83,58.25,34.22,59,29.38,56Z"/><path class="cls-1" d="M62.83,54.87c1,2.23-.58,2.41-2.43,2.44-3.35.54-2.81-2.22-3.58-4.36l-4.7.17c-.5,2.18,0,4.05-3.16,4-1.85.21-3.26,0-2.51-2.19l3.73-13.65c.51-1.92,1.07-2.43,4.47-2.67,2-.15,2.58.22,3.24,2.09ZM56,49.73,54.17,44l-1.39,5.75Z"/><path class="cls-1" d="M79.64,52.93c1.67,1.46,1,2.41-.66,3.48s-2.26,1.11-3.65-.3l-4.45-4.59L70.42,56c.09,3-4.76,1.62-4.26-.87l-.41-13.39c0-1.94.41-2.45,2.36-2.38s3.82,0,3.35,2.53L71,46.67l3.55-4.94c1.18-1.84,2.47-2,4.55-1.8,1.78.1,2,.66,1,2l-5,6.42Z"/><path class="cls-1" d="M94.09,41.25c-.17-1.75.17-2.19,2-2.34,3.2-.58,2.24,3.41,2.48,5.45,0,6.67-1.77,13.8-7.54,13.8-5.33,0-7.83-6.5-7.83-14.06.11-2.61-.36-6.36,3.55-5.19,3.27-.09,1.83,3,2,5.06C89.16,57.78,96,50.36,94.09,41.25Z"/><path class="cls-1" d="M114.5,53.39c1.64,1.86.21,2.67-1.53,3.5-3.22,2.3-3.92-3.94-5.09-5.67a12.21,12.21,0,0,1-2,.86c.21,2.57,1.36,5.32-2.34,5.52-1.87.36-2.41-.15-2.45-2.07l-.37-13.84c0-1.9.49-2.49,2.36-2.7,7.79-1.77,16.92,4.21,8.35,10.36Zm-9.68-10,.53,4.43C112.07,46.86,110.48,41.17,104.82,43.39Z"/><path class="cls-1" d="M133.11,54.87c1,2.23-.58,2.41-2.43,2.44-3.35.54-2.8-2.22-3.58-4.36l-4.69.17c-.51,2.18,0,4.05-3.17,4-1.85.21-3.26,0-2.5-2.19l3.72-13.65c.51-1.92,1.07-2.43,4.48-2.67,2-.15,2.58.22,3.23,2.09Zm-6.86-5.13L124.45,44l-1.39,5.74Z"/></svg>