<svg id="Layer_1" data-name="Layer 1" xmlns="http://www.w3.org/2000/svg" viewBox="0 0 203.42 89.15"><defs><style>.cls-1{fill:#f1949b;}.cls-2{fill:#fff;}.cls-3{fill:#76564b;}.cls-4{fill:#492d27;}.cls-5{fill:#f7abad;}.cls-6{fill:#e06460;}.cls-7{fill:#f6bbaf;}.cls-8{fill:#fceaec;}</style></defs><path class="cls-1" d="M191.79,2.06l-4.56,3.31L186.08,0c-2.43.67-4.78,3-6.16,6.57-2,5.25,2.1,12.75,2.1,12.75s8.08-2.83,10.09-8.08C193.53,7.54,193.26,4.18,191.79,2.06Z"/><path class="cls-1" d="M165.16,5.63,166.9,11l-5.46-.57c-.11,2.52,1.35,5.47,4.34,7.9,4.37,3.53,12.78,1.93,12.78,1.93s-.2-8.56-4.56-12.09C170.91,5.67,167.63,4.89,165.16,5.63Z"/><path class="cls-1" d="M160.33,32.06H166l-2.23,5c2.37.88,5.63.41,8.86-1.69,4.7-3.06,5.79-11.56,5.79-11.56s-8.2-2.45-12.91.61C162.14,26.6,160.39,29.49,160.33,32.06Z"/><path class="cls-1" d="M184,44.82l1.74-5.36,4.09,3.67c1.57-2,2.12-5.22,1.12-8.94-1.45-5.42-9.2-9.07-9.2-9.07s-4.86,7-3.41,12.46C179.34,41.41,181.54,44,184,44.82Z"/><path class="cls-1" d="M203.42,26.28,198.85,23l4.76-2.75c-1.39-2.11-4.31-3.64-8.16-3.83-5.6-.29-11.47,5.94-11.47,5.94s5.19,6.81,10.8,7.1C198.74,29.63,201.86,28.33,203.42,26.28Z"/><path class="cls-1" d="M11.82,46.39l4.56,3.31,1.15-5.37c2.43.67,4.78,3,6.16,6.57,2,5.25-2.1,12.75-2.1,12.75s-8.08-2.83-10.09-8.08C10.08,51.87,10.35,48.5,11.82,46.39Z"/><path class="cls-1" d="M38.45,50l-1.74,5.36,5.46-.57c.11,2.52-1.35,5.47-4.34,7.89-4.37,3.54-12.78,1.94-12.78,1.94s.2-8.56,4.56-12.09C32.7,50,36,49.22,38.45,50Z"/><path class="cls-1" d="M43.28,76.39H37.65l2.23,5c-2.37.88-5.63.41-8.86-1.69-4.7-3.07-5.79-11.56-5.79-11.56s8.21-2.45,12.91.61C41.47,70.93,43.22,73.81,43.28,76.39Z"/><path class="cls-1" d="M19.64,89.15,17.9,83.79l-4.09,3.67c-1.57-2-2.12-5.22-1.12-8.94,1.45-5.42,9.2-9.08,9.2-9.08s4.87,7,3.41,12.47C24.27,85.74,22.07,88.3,19.64,89.15Z"/><path class="cls-1" d="M.19,70.61,4.76,67.3,0,64.55c1.39-2.11,4.31-3.64,8.16-3.84,5.6-.29,11.47,5.95,11.47,5.95s-5.19,6.8-10.8,7.09C4.87,74,1.76,72.66.19,70.61Z"/><path class="cls-2" d="M144.36,48.32c1.41-.6,2.67,1.58,3.55,2.31,5.7,6.62,9.21-4.25,12-.33.46,2.66,10.09,2.61,12.56,2.94,1.94,0,4-.55,4.22-4.71.07-1.36.47-2.75-.69-4.29-.63-.62-1.64-1.05-1.5-2.12l.62-8.88c.93-2.79,3.9-.85,3.88-6.23A4.26,4.26,0,0,0,174,22l-9,.37c-4.67-.34-3.58,4.48-6.84,2.37-1.73-1.51-3.46-1-5.27-1.22-3.94-.4-4.25,2.57-6.92,2.86-2.48-1.43-1.35-3.64-5.91-3.57-3.84-.55-7.45.44-6.93,5.16l.43,14.11a1.69,1.69,0,0,1-3.27.61l-5.87-16.88c-1-2.69-2.12-4.25-5.33-4.25-3.65,0-7.33.88-8.2,2.64a1.7,1.7,0,0,1-1.37.73c-4-2.44-8.29-5.69-11.18,0-.78,1.54-2.45,5-4.32,2.46-1.61-3.39-4-7.29-8.54-5.15-1.44.27-4.22,2.23-5.51.86-2.4-2.32-10.11-.41-13-.73-3.41.15-4.65,1.48-4.56,4.93-.11,2.5,1,4.1,1.94,4.34a1.69,1.69,0,0,1,1,1.6l-.32,8a1.69,1.69,0,0,1-1.11,1.51c-1.17.31-1.59,1.82-2.92,1.54-1.56,1-6.75-17.91-7.35-18.48-1-2.69-2.12-4.25-5.33-4.25-9.68.13-6.57,3.1-10.39,4.78-2.72-.7-1.05-3.33-6-3.46L17,22c-2.74-.13-5.21.06-5.36,5-.91,11.73,5.89,4.64,6.89,9.21l-.34,12.65c-.5,3.79,2.47,5.7,6,4.76,3.71-.46,5-2,4.84-5.73l-.46-12.6c-.07-1.69,1.79-1.84,3.06-1.84,2-.15,5.39-1.95,5,1.38L33.26,47.3c-1,2.49.28,5.79,3.63,5.38,4.42.06,7.25-1,7.54-4.81.15-1.87,4.77-2.07,5.06-.17.5,3.26,2,5.81,6.36,5.18,1.53-.17,3.24.17,4.77-1.23a1.67,1.67,0,0,1,2.2-.19c1.49,1.38,8.31,1.3,10.32,1.71,2.75.21,5.08.22,5.49-4.63.75-5.07-1.55-3.53-2.19-6.42l.62-8.88c0-1.31,1.46-1.47,2.3-2a1.67,1.67,0,0,1,2.31.34l6,7.81c1.42,3.73-1.86,15.45,4.87,14.43,11.26.62,6.54-7.23,8-14.23,1.1-1,3.86-7.91,6-6.61,3.39,1.55-5,15.61-2.16,18.47,1.43,1.65,3.36,1.24,5.14,1.17,4.48-.31,5.16-1.61,5.75-4.72.23-1.9,4.71-2,5.06-.17.49,3.26,2,5.81,6.37,5.18,1.74-.12,4,0,5.05-1.58a1.69,1.69,0,0,1,2.76,0c2,2.14,7.89,4.33,8.72-1.61A1.66,1.66,0,0,1,144.36,48.32Zm7.32-11.73,5.72-7.37a1.74,1.74,0,0,1,3.21.22c.23,2,2.65,1.89,2.66,3.75l-.32,8c0,1.67-2.23,1.52-2.76,2.93a1.69,1.69,0,0,1-2.77.27C156.58,42.84,149.83,38.58,151.68,36.59Z"/><path class="cls-3" d="M92.5,57.23c-9,.48-7.86-9.88-7.87-16.19l-4.36-5.69-.42,6.16c2.59,2.27,2.3,5.47,2.12,7.34-.32,5-3,7.83-7.58,7.83-3.17-.33-9.54-.44-12.42-1.75-5.52,2.87-13.74,1.71-15-3.64-1.06,4.91-12.55,6.84-16,2.41-2.43,3.66-10.86,5-14.2,1.49-3.71-3.83-1.3-12.72-1.72-17.29-6-.12-7.45-6.44-6.84-10.89,0-5.86,3.6-8.81,8.92-8.31,4,.7,17.66-.3,20.56,2.95,2.48-2.94,6.66-3.27,10.46-3.41,9.58-.61,10.35,14.63,13.43,20.69l.2-4.76C56.44,30,58.45,18.45,66.68,19.06c4.39.29,10.48-1.73,14.77,1,6-2.8,11.46-2.12,13.94,3.09,1.92-4.81,8.79-6.33,13.93-2.33,2.1-2,6.08-2.54,9.67-2.61,8.57.18,8.41,7.65,10.77,13-.81-6.2,1-12.12,7.9-11.86,3.11.15,6.36-.2,8.91,2.7,3.51-2.45,8-2.52,12.37-.84,2.46-3.14,11.19-2.16,14.86-2.58,1.67,0,3.95-.29,6.54,2.1,3.59,4.08,2.37,11.82-1.94,13.81l-.48,6.91c2.6,2.26,2.3,5.47,2.12,7.33-.32,5-3,7.84-7.57,7.84-4-.53-11.56-.08-14.39-3.13-3.27,3.35-9.47,3.52-12.41-.31-2,4.87-9.1,4.22-12.58,1.5-2.55,1.72-4.3,1.38-6.22,1.58-4.83.68-8.44-2.22-9.07-5-1,4.81-12.09,6.73-15.73,2.71C100.44,56.65,95.9,57.28,92.5,57.23ZM80.32,31c1.2-.58,6.59,7.91,7.32,8.47,1.43,3.74-1.87,15.44,4.86,14.43,11.29.62,6.54-7.24,8-14.23l3.94-6c7.86-4.76-3.23,15.91-.06,17.86,1.43,1.65,3.36,1.24,5.14,1.17,4.47-.31,5.16-1.61,5.75-4.72.22-1.59,2.2-1.4,3.37-1.44s1.72.94,1.86,1.93c.46,3.84,3.16,5.1,7.36,4.45,1.46-.06,3-.28,3.88-1.51a1.68,1.68,0,0,1,2.76,0c.67,1.22,3.51,2.15,5.24,2.14,5,.6,1.93-9.84,8.18-2.82,2.23,3,5.82,2.47,8.25.1.88-.59,1.4-1.57,2.54-1.35,2.26.83.66,2.56,5.27,3.07.62,0,8,.86,8.51.8,1.93,0,3.95-.56,4.22-4.71.05-1.37.48-2.74-.7-4.29-.63-.62-1.63-1-1.49-2.12l.62-8.88a1.69,1.69,0,0,1,1.17-1.49c2.42.07,3.88-6.48,1.64-8.69h0c-2.08-2.2-10.33-.47-13-.72-4.24.08-3.1,2.07-5.34,2.91a1.72,1.72,0,0,1-1.49-.54c-2.82-2.18-8.9-1.49-10.61,1.09a1.69,1.69,0,0,1-2.85-.55c-.87-2.62-4.07-2.46-6.38-2.55A4.41,4.41,0,0,0,133,28l.44,14.11a1.69,1.69,0,0,1-3.27.6l-5.88-16.87c-.94-2.69-2.11-4.25-5.32-4.25-3.67,0-7.32.88-8.21,2.63-1.73,2.32-3.88-1.72-5.49-1.75-4.45-2.32-6.8,1.53-8.44,5-3.53,3.83-4.06-6.42-8.7-5.72-2.15-.38-6.58,3.05-8.29,1.43A4.54,4.54,0,0,0,76.46,22h-.6l-9,.37c-3.41.15-4.64,1.48-4.56,4.92-.12,2.5,1,4.11,1.95,4.35,1.94.47.38,8.31.65,9.6,0,1.47-1.76,1.49-2.43,2.44a1.7,1.7,0,0,1-2.9-.5L53.48,25.86c-.9-3.15-3-4.65-6.48-4.21-8.33.27-5.71,3.36-9.23,4.74-2.71-.7-1.07-3.34-6-3.46l-14.82-.88c-2.74-.12-5.22.07-5.36,5-.92,11.72,5.9,4.64,6.89,9.21l-.34,12.65c-.52,3.78,2.47,5.7,6,4.76,3.7-.46,5-2,4.84-5.74l-.47-12.59a1.69,1.69,0,0,1,1.56-1.74c2.23.37,6.84-2.59,6.56,1.28L33.24,47.38c-1,2.48.31,5.8,3.64,5.38,4.31.07,7.34-1,7.54-4.82.22-1.58,2.19-1.39,3.36-1.43,3.85.75.08,7.29,8.06,6.45,1.53-.17,3.23.16,4.76-1.23,1.8-1.5,3,1,5.29.79,1,0,7.73.91,8.5.8,1.94,0,4-.56,4.23-4.71,0-1.36.49-2.75-.7-4.29-.64-.62-1.63-1.06-1.49-2.12L77,33.32C77.2,31.85,79.17,31.34,80.32,31ZM158.7,45.1c-1,0-1.39-.81-2.07-1.45-.78-1.3-6.75-5.07-5-7,1.2-1,5.74-8.91,7.61-8.35,1.7.34,1.38,2.93,3,3.36a1.66,1.66,0,0,1,1,1.58l-.32,8a1.69,1.69,0,0,1-1.11,1.51C160.39,43.1,160.24,45.11,158.7,45.1Zm2.56-3.88Zm-6-3.67,3.35,3.32a6.9,6.9,0,0,1,1-.74l.24-6a6,6,0,0,1-1.15-1.05Z"/><path class="cls-4" d="M92.5,54.21c-6.44.89-4.51-9.52-4.85-13.76.46-.23-6.13-8.31-6.26-8.62-.86-1.23-3.86.29-4,1.51l-.62,8.88c-.11,1,.88,1.28,1.41,1.88,1.3,1.66.82,3.09.78,4.54-.28,4.45-2.58,5-4.56,5-2.77-.4-9.47-.29-11.78-1.85a1.34,1.34,0,0,0-1.76.15c-1.65,1.51-3.4,1.16-5,1.34-4.56.63-6.24-2.11-6.71-5.44-.27-1.39-2.16-.94-3.13-1-3.26,1.45.37,5.78-7.33,6.09-1.9.08-3.88.49-5.43-1.29C31,48.69,36,38,36.32,34.8c.19-3-2.87-.91-4.7-1-.95,0-2.9,0-2.75,1.5l.47,12.59c.14,4-1.25,5.6-5.14,6.08-1.78.27-4.1.39-5.26-.93-3.16-2,1.42-18.29-2.24-18.2-5,.66-5.91-3.44-5.45-7.83.15-5.27,2.92-5.45,5.71-5.33l14.82.87c3.41.23,4.33,1.51,4.76,2.61a1.36,1.36,0,0,0,2.49,0c.84-2.9,4.52-3.93,9.13-4,3.39,0,4.67,1.71,5.64,4.48l6.05,17.37a1.36,1.36,0,0,0,2.32.4c.57-1,2.33-.91,2.36-2.25l.32-8c-.59-2.29-3-1.21-2.92-5.49-1-8.1,9-5.23,13.92-6.06,3.38-.66,4.12,2.41,6.37,1.3,1.53-.46,4.53-1.75,5.93-1.64,5-.56,5.32,9.12,8.41,5.89,3.48-7.4,6.52-7.07,12.86-2.63a1.34,1.34,0,0,0,1.08-.59c2-3.28,13.36-4.71,14.13,1.7l5.88,16.87a1.35,1.35,0,0,0,2.61-.48L132.68,28c-.58-4.86,3.34-6.13,7.29-5.51,2,0,4.26.61,4.94,2.7a1.35,1.35,0,0,0,2.29.44,6.54,6.54,0,0,1,5.58-2.43c1.92.19,3.67-.3,5.53,1.33,2.83,1.76,1.71-2.74,6.57-2.48,2.72.3,11-1.57,13.29.83,2.45,2.39.79,9.31-1.78,9.24-1.69,0-1.17,9.14-1.56,10.07-.15,1,.91,1.28,1.42,1.88,1.27,1.66.83,3.09.78,4.54-.48,5.18-3,5.14-5.87,4.94-2.39-.3-11.41-.5-11.55-3.06a1.35,1.35,0,0,0-1-.74c-4.23,1.56-6,6.27-11,1.16-6.19-7.16-2,5.08-9.74,2.69a5.78,5.78,0,0,1-3.71-2.06c-1.62-2-3.09,2.21-6.36,1.66-9.91,1.13-5.53-5.25-9.23-6.38-5.93-.56-.45,5.95-9.1,6.15-1.89.08-3.89.49-5.43-1.29-3.34-1.82,7.32-22,.61-17.89l-3.94,6C99.59,47.1,103.85,54.8,92.5,54.21ZM80.32,30.63c1.56-.49,6.63,7.82,7.58,8.61.8.48.36,8.85.52,9.69.12,5.5,3.45,4.61,6.7,4.46,6.93.43,4.34-8.62,4.75-12.81-.22-.81,3.9-6.39,4.27-7.13a2,2,0,0,1,3.63,1.64L104.4,47.47c-1.2,2.88.72,5.54,4,4.93,8.85.05,4.11-5,8.37-6.16,1.33-.12,3.47-.26,3.81,1.46.58,4.15,2.63,5.53,7.19,4.85,1.43,0,2.86-.26,3.63-1.37a2,2,0,0,1,3.31,0c.62,1.13,3.33,2,5,2,4.12.58,2-7.51,6.6-4.59,2.32,2.82,5.59,5.68,8.92,2.45,1.19-.67,2-2.2,3.51-1.92,2.49.8.69,2.57,5.24,3.06,4-.23,12.28,3.7,12.36-3.59.79-5-1.72-3.35-2.19-6.41l.62-8.89c.81-3,4-1.06,3.88-6.21A3.93,3.93,0,0,0,174,22.39l-9,.36c-4.2.07-2.87,2.17-5.32,2.91a2,2,0,0,1-1.78-.65c-1.61-1.37-3.32-.93-5-1.11-3.83-.44-4.16,2.75-7,2.86-3.58-2.2-.51-3.62-7.6-3.64A4.06,4.06,0,0,0,133.36,28l.43,14.11a2,2,0,0,1-3.92.73L124,26c-.7-6-11.23-4.32-12.94-1.54a2,2,0,0,1-3.3.05c-9.3-7.19-8.63,3.93-12.37,4.15-1.65.15-2.41-2.4-3.12-3.45-1.9-4.56-6.12-3-9.84-1.52-2.46,1.27-3.83-2-6.56-1.27l-9,.36c-3.42.07-4.42,1.72-4.24,5,1.13,7.77,3.84-1.91,2.6,13.53.07,1.58-1.73,1.71-2.51,2.65a2,2,0,0,1-3.48-.61L53.16,26c-.87-6.3-12.63-4.37-13.51-.47a2,2,0,0,1-3.74-.06c-.35-.91-1.15-2-4.17-2.17l-14.82-.88-.88,0c-2.11,0-4.07.57-4.12,4.7.13,2-.53,4.67,1,6.19,2,2.1,5.65-.47,5.89,3l-.34,12.64c-.48,3.64,2.3,5.29,5.66,4.42,3.53-.44,4.68-1.8,4.54-5.38l-.46-12.6a2,2,0,0,1,1.87-2.08c2.43.22,7.33-2.6,6.9,1.7-.25,2.83-5,13.65-3.17,16.32,1.32,1.51,3.18,1.09,4.84,1,4.26-.29,4.88-1.45,5.45-4.45.25-2.24,5.3-2.44,5.71-.19.5,3.2,1.91,5.53,6,4.94,1.46-.17,3.15.15,4.54-1.14A2,2,0,0,1,63,51.27c1.41,1.3,8.25,1.25,10.16,1.64,2.63.2,4.75.23,5.12-4.32.82-4.94-1.81-3.44-2.19-6.41l.62-8.89C76.85,31.62,79,31,80.32,30.63Zm78.38,14.8c-1.09,0-1.58-.82-2.31-1.54-.92-1.53-7.07-5.14-5-7.43,1.35-1.1,5.81-9.16,7.94-8.47,1.84.24,1.51,2.89,3.1,3.38a2,2,0,0,1,1.16,1.91c-.43,1.55.67,9.37-1.65,9.84C160.53,43.49,160.34,45.53,158.7,45.43Zm.28-16.8c-1.2-.25-6.21,7.56-7,8.24-1.54,1.54,4.36,5.49,4.93,6.54.67.59,1,1.45,2,1.34,1.31-.24,1.48-2,2.89-2.27a1.33,1.33,0,0,0,.88-1.21l.32-8c-.17-1.69-2.45-1.65-2.64-3.64A1.38,1.38,0,0,0,159,28.63Zm2.28,12.93v-.68h0Zm-2.68-.23-3.79-3.75,3.91-5A6.78,6.78,0,0,0,160.2,34L160,40.33A6.78,6.78,0,0,0,158.58,41.33Zm-2.89-3.81,2.92,2.9a5.23,5.23,0,0,1,.68-.48l.23-5.64a5.82,5.82,0,0,1-.79-.7Z"/><path class="cls-5" d="M27.4,48c.28,3.27-1.16,4-4.17,4.17-2.85.37-3.58-.33-3.51-3.22l.44-16.23c-5.82.43-7.54,1.16-7-5.64,0-2.92.73-3.61,3.65-3.43l14.85.88c2.78.18,3.44.87,3.33,3.73s-.73,3.47-3.51,3.65l-4.68.33Z"/><path class="cls-5" d="M59.4,47.71c1.46,3.35-.87,3.61-3.66,3.66-5,.82-4.21-3.33-5.37-6.55l-7.06.26c-.76,3.28,0,6.08-4.75,6-2.79.31-4.91.08-3.77-3.29l5.59-20.51c.77-2.89,1.61-3.66,6.73-4,3-.22,3.88.32,4.87,3.14ZM49.09,40l-2.71-8.63L44.3,40Z"/><path class="cls-5" d="M77,48.48c-.18,2.85-.91,3.47-3.72,3.18l-7.25-.73c-2.78-.19-3.32-1.3-3-4,.18-2.45.8-3,3.29-2.85l.55-13.57c-2.53.08-3.07-.84-3-3.22-.07-2.56.51-3.22,3-3.33l9-.36c2.78-.11,3.47.55,3.4,3.4s-.77,3.51-3.69,3.51l-1,14.19C77.3,44.67,77.27,46.34,77,48.48Z"/><path class="cls-5" d="M98.67,48.15c.4,3.81-2.2,4-5.3,4.09-2.93.19-3.66-.4-3.69-3.32l-.11-9.58-8-10.43c-1.71-2.23-1.42-3.14,1.25-4.06,3.08-1,6.67-3.16,8.34,1l4.2,7.49,4.24-7.53C101,23.28,102,22.92,104.71,24c2.59,1,2.88,1.9,1.39,4.2L98.6,39.59Z"/><path class="cls-5" d="M130.23,47.71c1.46,3.35-.87,3.61-3.66,3.66-5,.82-4.21-3.33-5.37-6.55l-7.06.26c-.76,3.28,0,6.08-4.75,6-2.79.31-4.91.08-3.77-3.29l5.59-20.51c.77-2.89,1.61-3.66,6.73-4,3-.22,3.88.32,4.87,3.14ZM119.92,40l-2.71-8.63L115.13,40Z"/><path class="cls-5" d="M155.5,44.78c2.51,2.2,1.43,3.63-1,5.23-2.38,1.8-3.4,1.69-5.48-.44l-6.7-6.91-.69,6.73c-.26,2.38-.95,2.85-3.33,2.34s-3-1.2-3.07-3.65L134.62,28c-.46-3.86,2.27-3.75,5.26-3.51s3.59.81,3.33,3.73l-.69,7.21L147.86,28c1.77-2.77,3.71-3,6.83-2.7,2.67.14,3,1,1.43,3.07L148.62,38Z"/><path class="cls-5" d="M175.1,48.48c-.19,2.85-.92,3.47-3.73,3.18l-7.24-.73c-2.79-.19-3.33-1.3-3-4,.18-2.45.8-3,3.29-2.85L165,30.56c-2.53.08-3.06-.84-3-3.22-.07-2.56.51-3.22,3-3.33l9-.36c2.78-.11,3.47.55,3.4,3.4s-.77,3.51-3.69,3.51l-1,14.19C175.38,44.67,175.34,46.34,175.1,48.48Z"/><path class="cls-6" d="M19.63,31.84c-1.52-.06-3.3.5-4.79.17-.77-.24-.62.7-.18.83,1.08.33,4.24-.09,5.5-.12C20.21,32.24,20.22,31.81,19.63,31.84Z"/><path class="cls-6" d="M34.29,26.1c0,1.52.31,3.93-1.43,4.6-.93.54-7.59-.64-6.86,1.93-.5,3.45,1.87,15.58-.47,18.25a10.84,10.84,0,0,1-4.3.92c-1,1,4.25.16,4.66-.15h0a2.2,2.2,0,0,0,1.31-1.37h0c.56-1-.45-16.58-.38-18,3.12-.55,8.68.87,8.19-4C35.06,27.49,35,25.35,34.29,26.1Z"/><path class="cls-6" d="M46.51,31.78a.24.24,0,0,0,0-.08Z"/><path class="cls-6" d="M44.3,40l2.08-8.63c-.94-.29-1.3,3.66-1.66,4.22C44.63,36.82,43.24,39.12,44.3,40Z"/><path class="cls-6" d="M50,44.34c-8.13.3-6.51-1.41-8,4.5a1.44,1.44,0,0,1-1,1c-.7.64-6.33.28-5.4,1.18,6.33.38,7,0,7.73-5.94l7.06-.25A.42.42,0,0,0,50,44.34Z"/><path class="cls-6" d="M59.58,50.45a2,2,0,0,0,.15-1.59h0a9.13,9.13,0,0,0-.33-1.15L52,26.39c-3.75-7.21,4.59,15.77,4.81,17,.38,2.1,2.08,4.67,1.44,6.7a13.71,13.71,0,0,1-3.9.54c-4,.83,3.9.89,4.52.3h0A1.68,1.68,0,0,0,59.58,50.45Z"/><path class="cls-6" d="M77.1,47.49c-.23-3.74-.87,2.13-1.26,2.74-1.33,1.48-8.28-.32-11.12-.26-.65,0-.36.63-.22.67a7.15,7.15,0,0,0,1.55.29l7.25.73C76.62,52.24,77,50.39,77.1,47.49Z"/><path class="cls-6" d="M79.33,27.05c0-3.92-1.13-1.12-.89.85.14,2.24-2.57,1.14-3.52,2.1.25-.38-2.35,15.76,0,14.77l-.26,0,1-14.19C78.56,30.56,79.26,29.86,79.33,27.05Z"/><path class="cls-6" d="M66.3,29.75c-.54.07-1.46-.34-1.74.28a3.47,3.47,0,0,0,2.31.53A.61.61,0,0,0,66.3,29.75Z"/><path class="cls-6" d="M106,27.35c-2.93,3.78-6.72,8.26-8.2,12.73.09,2.77.27,6.7.1,9.16.34,3.31-9,1.5-6.19,3,3.16,0,7.63.46,7-4.08l-.07-8.56,7.5-11.41C106.41,27.85,106.8,26.87,106,27.35Z"/><path class="cls-6" d="M91.18,25.81c-.13-.45-1.16-1.75-1.06-.74.22.39,2.08,3.53,2.48,4.24.79.8,1.67,4.52,2.78,4Z"/><path class="cls-6" d="M130.23,47.71l-7.42-21.32c-.13-.36-.26-.68-.38-1s-.65-.26-.45.44c2.17,7.51,5.29,14.73,7.54,22.21,1.37,3-2.26,2.43-4.29,2.51-1.47,0-1.5.65-.8.76a19,19,0,0,0,3.35-.05C130.6,51.18,131.18,50.38,130.23,47.71Z"/><path class="cls-6" d="M120.78,44.18c-1-.15-5.46.12-6.61.17-1.31.46-.67,2.5-1.22,3.57-.39,1.42-.43,1.63-1.29,2-1.09.52-4.68.26-4.83.85.2.73,1.9.17,2.56.25,4.73.09,4-2.71,4.75-6l7.06-.26S121.13,44.23,120.78,44.18Z"/><path class="cls-6" d="M115.13,40l2.07-8.6c-1.2-.47-2,6.55-2.35,6.93C114.72,38.78,114.44,40,115.13,40Z"/><path class="cls-6" d="M143.21,28.18c.27-.78-.22-3.37-.63-1.35.24,1.94-1.34,8.12-.06,8.56Z"/><path class="cls-6" d="M155.5,44.78,148.62,38c-.24.1,10.24-12.41,7.52-10.62-1.87,2.83-9,9.86-8,11.22.39.64,7,7,7.39,7.56,1.16,2-1.93,3-3.07,4-.54.43,0,1.14.83.67a20.2,20.2,0,0,0,1.84-1.26C157.47,47.82,157.55,46.8,155.5,44.78Z"/><path class="cls-6" d="M141.82,43.16c0,.26-.88,6.91-.94,7.12-.11,1.58-2.53.73-3.76.59-.6.52.75.76,1.19.86,2.38.51,3.07,0,3.33-2.34l.69-6.73A.79.79,0,0,0,141.82,43.16Z"/><path class="cls-6" d="M174.57,46.79c-.43,2.59.32,4.69-3.15,4.1-1.08,0-13-1.48-7.29,0l7.24.73c3.32.58,3.71-1.27,3.8-4.17C175.35,47,175,45.79,174.57,46.79Z"/><path class="cls-6" d="M163.49,29.78c-1.56.37.59.92,1.48.78C165.17,29.75,164.44,30,163.49,29.78Z"/><path class="cls-6" d="M177.4,27.05c0-3.37-1.11-1.56-.81.51.19,2.84-2.3,1.37-3.57,2.6.12.33-2.17,15-.3,14.59l1-14.19C176.63,30.56,177.33,29.86,177.4,27.05Z"/><path class="cls-7" d="M15.54,19.86c-4.89-1.25-7.87,8.11-5.45,6.75.47-6.81,7-5.48,5.45-6.75Z"/><path class="cls-7" d="M38.64,23.85c.06-.14.13-.27.19-.4.1-.66,1.74-1.28,1.49-2.13-1.18-1.36-3.88,3.89-1.68,2.53Z"/><path class="cls-7" d="M16.2,45.87c-.31,2.72-.65,5.91,1.12,8.21.27.31.85.05.66-.36-1.64-1.32-.51-9.82-1.78-7.85Z"/><path class="cls-7" d="M31.67,52.34c.22.92,4.58,3.34,3.71,1.35a6,6,0,0,1-3-1.9.45.45,0,0,0-.7.55Z"/><path class="cls-7" d="M49.29,20.76c3.57.07,4,4.3,5.15,3.84C55.89,21.9,47.6,18.4,49.29,20.76Z"/><path class="cls-7" d="M63.94,20.65c-1.43-.06-5.13,5.71-2.68,4.71a7.71,7.71,0,0,1,3.07-4c.39-.24,0-.89-.39-.69Z"/><path class="cls-7" d="M50,53.44c1.5,2.27,6,.67,1.88.24-.49,0-2.13-1.69-1.88-.24Z"/><path class="cls-7" d="M62.52,53.67c2,1.22,4-.12.76-.47C62.83,52.86,61.9,53.1,62.52,53.67Z"/><path class="cls-7" d="M77.67,54.58c2-1.38,3.6-4,3-6.46-.13-.4-.69-.27-.76.09A7.3,7.3,0,0,1,77.26,54a.36.36,0,0,0,.41.58Z"/><path class="cls-7" d="M82.73,21.78c2.66-1,6-1.74,8.43.21.39.31,1-.27.62-.63C90,18.24,80.31,20.75,82.73,21.78Z"/><path class="cls-7" d="M97.92,22.43c3-3.66,6.9-.43,6.36-2.16-1.94-3.13-9.6,2.52-6.36,2.16Z"/><path class="cls-7" d="M112.3,22c1-.89,3-.46,3.67-1.41C115.9,19.17,110,21.59,112.3,22Z"/><path class="cls-7" d="M86.7,53.06c.7,2.68,6.43,3.18,2.39,1.2-.63,0-2.25-2.91-2.39-1.2Z"/><path class="cls-7" d="M102.12,52.36a4.1,4.1,0,0,0,2.18,1.69c.71,0,.53-.86,0-1l0,0a4.68,4.68,0,0,1-.83-.61c-.36-.68-1.66-1.32-1.29,0Z"/><path class="cls-7" d="M119.36,52.37c-.09-.14.09.15,0,.09.15.93,3.7,3.29,2.44,1.16-.11-.1-.72-.54-.95-.77s-.77-1.49-1.42-1.14a.44.44,0,0,0-.12.66Z"/><path class="cls-7" d="M136.22,20.62c-4.51-.15-7,7.19-4.5,5.21,0-3.78,6.49-4.51,4.5-5.21Z"/><path class="cls-7" d="M148.12,23.83a4,4,0,0,1,1.94-1.24c.76,0,1.71-.83.54-1.06-.95-.35-4.57,2.5-2.48,2.3Z"/><path class="cls-7" d="M160.62,23a5.39,5.39,0,0,1,.54-.4,6,6,0,0,1,1.11-.49c.44-.18,1.34-.12,1.36-.74-.55-1.59-5.52,1.67-3,1.63Z"/><path class="cls-7" d="M176.79,21.55a3.85,3.85,0,0,1,1.53.92c.66.31,1.28,3.27,1.9,1.58C180.53,22.55,175.66,19.11,176.79,21.55Z"/><path class="cls-7" d="M133.07,53.32c1.61,2.6,7.23,2,2.19.26a5.46,5.46,0,0,1-1.11-.72c-.4-.74-1.6-.37-1.08.46Z"/><path class="cls-7" d="M145.39,51.49c.38.74,3.9,3.23,3.35,1.2-.7-.22-3.87-3.38-3.35-1.2Z"/><path class="cls-7" d="M158.55,52.18c.77.72,3.42,3,3.95,1.34-.91-.87-2.41-1-3.29-2.05-.43-.34-1,.31-.66.71Z"/><path class="cls-7" d="M178.57,47.89c-.58,7-6.55,6-5,7.18,4.28,1.29,6.94-8.75,5-7.18Z"/><path class="cls-8" d="M19.53,24.87c-8.39-3-5.29,8-4.32,4.6.3-.39,0-2.54.36-3.15a2.56,2.56,0,0,1,.22-.4c.24-.89,4.84.35,3.74-1.05Z"/><path class="cls-8" d="M23.76,50.45c2.8-.5,2.11-3.65.77-1.73l.07-.14a1.21,1.21,0,0,1-.2.3l.09-.11a2,2,0,0,1-.42.39l.12-.09a1.89,1.89,0,0,1-.49.25l.14,0C23,49.26,22.8,50.53,23.76,50.45Z"/><path class="cls-8" d="M32.44,28.91a.2.2,0,0,1,0,.08l.07-.11a1.42,1.42,0,0,0-.14.23l.06-.11-.08.13.06-.11c-.44.65.55,1.1.91.48.6-.61-.51-1.38-.84-.59Z"/><path class="cls-8" d="M45.67,24.49c-6.24-1.44-6.3,13.29-2.55,2.33a2.81,2.81,0,0,1,1.27-.93c.68-.19,2.7-.63,1.28-1.4Z"/><path class="cls-8" d="M40.41,47.27a1.63,1.63,0,0,1-.24.4l.11-.14a1.94,1.94,0,0,1-.32.32l.14-.11c-.6.26-.76,1.18-.05,1.39,1.19.57,2.6-3.24.36-1.86Z"/><path class="cls-8" d="M56.5,48.2a.25.25,0,0,1,0,.08v-.16a1.09,1.09,0,0,1,0,.18l0-.17a.6.6,0,0,1-.06.19l.07-.16a.86.86,0,0,1-.1.16l.11-.13c-.6.41-.29,1.45.48,1.27,1.63-.38,0-3.43-.52-1.26Z"/><path class="cls-8" d="M44.64,41.39c.43-.13,1.8-.07,1.32-.81C45.5,40.28,43.48,41,44.64,41.39Z"/><path class="cls-8" d="M67.36,24.69C63.6,24,64.81,30,66.3,27l0,.2c0-.17,0-.33,0-.49v.2a1.8,1.8,0,0,1,.1-.46l-.07.18a1.83,1.83,0,0,1,.18-.34l-.11.15a1.52,1.52,0,0,1,.25-.26l-.15.12a1.55,1.55,0,0,1,.32-.2l-.17.08.29-.14-.17.08a1.42,1.42,0,0,1,.4-.12L67,26c.81.14,1.19-1,.37-1.29Z"/><path class="cls-8" d="M73.17,49.68c3.21.89,2.9-3.6,1.12-1.47l.07-.17a1.35,1.35,0,0,1-.15.26l.11-.14-.12.16.11-.14a2.5,2.5,0,0,1-.23.23l.14-.11a2,2,0,0,1-.35.21l.16-.07-.18.07.16-.06a1.59,1.59,0,0,1-.33.09l.17,0a.92.92,0,0,1-.33,0l.16,0A.63.63,0,1,0,73.17,49.68Z"/><path class="cls-8" d="M76.65,27.24a1,1,0,0,0-.22.19l.09-.1-.11.09.13-.09-.13.07.16-.07a.88.88,0,0,0-.43.24l.14-.11-.13.07.16-.06c-1.07.33-.24,1.79.65,1.18.69-.29.61-1.76-.31-1.41Z"/><path class="cls-8" d="M65,46c.7.36,2.22-.13,1.35-1l.11.09c-.23-.27-.57-.2-.88-.15h.16a1.78,1.78,0,0,1-.46,0l.15,0A.57.57,0,1,0,65,46Z"/><path class="cls-8" d="M84.74,25.14c-3.5.47-3.66,3.41-.95,5.13,1.92-.09-.09-2.05-.31-2.6,0-.05-.14-.45-.11-.28,0,0,0-.19,0-.1s0-.15,0,.06c.07-.45,3.49-1.67,1.4-2.21Z"/><path class="cls-8" d="M104,24.51c-3.64-3-5.86,6.72-1.6,1,.08-.06,0,0-.06,0s.2-.06.08,0a2,2,0,0,1,1.09.07.57.57,0,0,0,.49-1Z"/><path class="cls-8" d="M90.51,45c0,1-.7,5.71,1.09,4.57.29-1.46-.17-3,.1-4.52a.6.6,0,0,0-1.19,0Z"/><path class="cls-8" d="M116,24.31c-3.2-.84-5.8,8-3.37,6.46.58-1.17.83-2.47,1.34-3.67,0-1.42,3.63-2.3,2-2.79Z"/><path class="cls-8" d="M107.33,49.06c.09-.68,2-4.61.28-3.6-.27.6-1.87,4.61-.28,3.6Z"/><path class="cls-8" d="M122.54,46.91c.25.75.25,1.89,1,2.27s.59-.87.48-.94c-.13-.35-.32-.81-.42-1.1,0-.79-1.09-1.2-1.1-.23Z"/><path class="cls-8" d="M115.25,41.54c.63.09,2.07-.2,1.33-1.06C115.79,39.77,113.67,41,115.25,41.54Z"/><path class="cls-8" d="M138,25c-4.39-1-2,9.09-1.18,2.37.08-.47.09-.89.34-1.06-.11.1,0,0,.08-.06.29-.13,2-.7.76-1.25Z"/><path class="cls-8" d="M137.12,49.39c-.15-.87.54-2.58-.47-3-1-.09-.45,4.64.47,3Z"/><path class="cls-8" d="M153.59,26.1c-1.7-1.32-7.12,3.08-4.52,3.09,1.3-.79,2.54-2.29,4.3-2.19a.47.47,0,0,0,.22-.9Z"/><path class="cls-8" d="M163.87,26.9s0-.08,0-.12l0,.12a2,2,0,0,1,.13-.34l-.06.13.11-.22-.07.13a1.57,1.57,0,0,1,.2-.3l-.1.12.2-.24-.1.12a1.48,1.48,0,0,1,.26-.24l-.13.1a1.14,1.14,0,0,1,.32-.18l-.15.06a1.86,1.86,0,0,1,.39-.1l-.17,0c1.62-.12.57-1.88-.63-1.1-1.35.12-1.47,3.54-.19,2Z"/><path class="cls-8" d="M162.9,46c.95.65,2.36-.46,1-1l.47.27C163.85,44.36,161.55,45.16,162.9,46Z"/><path class="cls-8" d="M171.38,50.19c2,.3,2.47-2.94.69-1.44l.1-.11c-.08.08-.15.18-.23.27l.1-.11a1.67,1.67,0,0,1-.28.25l.11-.08a1.2,1.2,0,0,1-.34.17l.14,0C171,49,170.56,50,171.38,50.19Z"/><path class="cls-2" d="M146.09,82.87c2.82.23,5-1.52,3.69-4.3l-5-14.44a3.91,3.91,0,0,0-4.68-3c-4.36.22-5.35,1.53-6,4.69a1.68,1.68,0,0,1-3.18.17c-1.15-4.3-10.64-5.93-15.3-3.73-1.41,1-2.76-1.15-4.14-.85-3.89-.23-2.9,2.11-5.29,2.64-.94,0-1.41-.74-1.82-1.44-1.58-1.57-5.86-1.88-7-.3C96,64,91.83,60.86,89.08,63.4c-2.3,1.48-2.72-1.94-5.49-1.49-2.85-.47-5.41.6-5,3.8-.15,1.4,1,5.5-1.25,5.78-4.12,0-2.28-11-8-10.43-3.67,0-6.07.88-6.59,3.75-.58,1.59-1.16,8.25-4.22,5.55-2.84-2.27-2.63-1.85-1.86-5.52.91-6.92-16.84-4.76-15.89,3.19-.38,2.65,2.11,3.4,2.64,5.46-.51,2-3.6,3.27-3,5.57,1.16,3.29,5.79,4,9.24,4.18,3.53.32,5.68-1.65,8.4-2.28,1.67.46.85,1.73,3.66,1.77.21,0,1-.06,1.22-.06,3.12-.22,3.6-1.19,4-2.65a1.69,1.69,0,0,1,3.25,0c.27,1.88,1.82,3.22,4.39,2.86,1-.12,2.09.09,3.25-.77,2.06-1.5,6,3.76,7.92-.47,1.66-3.11,3.81,1.47,5.83,1.17,3.28.25,5.12-6,7.42-3a7.46,7.46,0,0,0,12.7.78,1.7,1.7,0,0,1,1.69-.67c1.91.61,1.41,3.76,4,3.4a9.42,9.42,0,0,0,1.74-.24c2.35-.09,3.24-3,5.17-1.13A2.53,2.53,0,0,0,126.43,83a6.32,6.32,0,0,0,2.83-1c1.53-.74,2.25,1,4,.78.37,0,.85-.06,1.23-.06,3.11-.22,3.6-1.19,4-2.65a1.69,1.69,0,0,1,3.25,0C142,81.89,143.52,83.23,146.09,82.87Z"/><path class="cls-3" d="M105.64,87.1a10.65,10.65,0,0,1-8.1-3.73c-2.29,2.41-7,4-9.85,1.44-2.09,2.43-6.21,2.1-8.81.6-3.54,1.47-8.42,1.18-10.38-1.34-2.06,2.25-8.64,2.83-11,.69-7.44,5-27.06-.56-18.19-11.32C29.73,59.32,56.85,51.18,59.9,62.84c2.4-7,14.24-6.51,16.06-1,2.37-4.46,8.87-4,12.25-1.89,2.17-1.14,4.73-1.08,7.3-.62,2.25-1.94,7.25-2,10.57.31,3.41-2.14,5.38-2.08,8.66-.79,5.09-2.17,15.09-.28,17.21,2.8,2-3.51,5.62-3.81,8.92-3.94A7.09,7.09,0,0,1,147.93,63l5,14.44c3.48,8.31-8.49,11.47-13,6.61-2,2-7.22,2.69-10,1.31-1.88,1.12-5.13,1.4-7-.19-3.26,1.78-7.87,2.31-10.26-.7A10.39,10.39,0,0,1,105.64,87.1ZM97.6,79a1.67,1.67,0,0,1,1.42.79,7.46,7.46,0,0,0,12.7.78,1.7,1.7,0,0,1,3,.58c1.16,4.23,6.18,1.15,8.37.15,2.23.85,2.7,2.74,5.55,1,2.21-1.48,3,1.1,5.83.39,4.93,0,2.67-3.29,5.6-3.91,3,.6.81,4.78,6,4.11,1.27-.09,2.82,0,3.66-1.23,1.65-2-4.75-15.3-5-17.51a3.91,3.91,0,0,0-4.68-3c-4.36.22-5.35,1.53-6,4.69a1.68,1.68,0,0,1-3.18.17c-1.18-3-4.71-4.64-10-4.64-2.88-.6-5.8,1.91-7.4.75a3.56,3.56,0,0,0-2.81-.65c-.77,0-2.59.38-3,1.61-.78,1.62-2.82,1-3.35-.45-1.32-1.37-3-1.12-4.54-1.32-2.6-.16-2.31,2.28-4.45,1.54-5.53-1.93-6.8,2.81-8.81.13-.69-1-3-1.06-4.47-1.07-6.56-.17-.93,8.35-4.69,9.64-2.44.7-3.25-6.12-4.07-7.36-1-5-10.27-3.43-10.47.68-1.13,3.55-1.1,8.91-5.82,4.26-2.79-2.55,4-8.27-6.12-8.2-7-.26-14,4.57-7.39,12.62-.51,2-3.6,3.27-3,5.57,1.16,3.29,5.79,4,9.24,4.18,3.53.32,5.68-1.65,8.4-2.28,1.67.46.85,1.73,3.66,1.77S66.84,81.89,67,80a1.69,1.69,0,0,1,3.25,0c.19,2.26,2.59,3.3,5.17,2.81,1.34.39,3.29-2,4.66-.7s5,1.94,5.73-.49a1.69,1.69,0,0,1,1.24-1c1.84-.24,2.76,2.51,4.59,2.22a6.66,6.66,0,0,0,4.53-3A1.68,1.68,0,0,1,97.6,79Z"/><path class="cls-4" d="M105.64,84.07c-4.45.2-5-2.92-8-4.75V79l0,.34c-1.13,0-1.91,2.07-2.66,2.29-1.9,1.78-4.58,2.17-6.41-.12a1.46,1.46,0,0,0-1.43-.58c-1.93,1.25-1.58,3.39-5,2.51-1.76-.1-2.53-2.09-4-1.07-1.27,1-2.36.73-3.44.85-5.42.6-3.4-3.42-6-4.1-2.65.75-.39,3.8-5.59,3.9-1.42.38-4-.45-4-1.07-1.47-2-5.3,2.4-9.27,1.64-4.28.09-12.4-2.32-8.6-7.5,4.82-4.15-1-3.34-.61-8,.52-7.94,8.46-7.62,12.87-7.37,6.73.89,1.7,6.33,3.79,8.12,1.23.72,3,3.17,4,.83l1.33-4.89c.24-4.45,10.11-6,11.11-.7.72,1,1.66,7.74,3.69,7.14,2.72-1.06-.49-6.54,1.9-8.68,1.32-1.28,2.9-.93,4.43-.91,2.4-.13,2.68,1.19,4.23,1.88,1.58-.23,2.41-1.65,4.42-1.4.39,0,1,.06,1.43.07.81-.15,2.62,1.09,3.37,0,.88-1.61,6.6-1.7,7.84.84,2,2.64,2.62-2.26,5.76-1.83,4.46-.15,1.53,2.13,7.11.08,5.06-.84,12.31.68,13.39,4.67a1.32,1.32,0,0,0,1.32.85c1,0,1.32-1.15,1.49-2,.27-4.45,10.1-6,11.11-.7l5,14.44c1.5,3.56-1.46,5.05-4.82,4.77-2.83,0-3.46-1.48-3.9-3.13a1.35,1.35,0,0,0-2.6,0c-.41,1.55-1,2.67-4.29,2.9-1.2.14-2.81.11-3.6-.61-.64-.56-1.47-.2-2.09.19-2.72,1.64-3.53.2-5.72-1-1.46.28-1.82,1.58-3.83,1.76a9.6,9.6,0,0,1-1.81.24,2.9,2.9,0,0,1-3-2.4C112.88,77.68,110,85,105.64,84.07Zm-8-5.42c3.09,1,3.55,5.09,8,4.75,4,.51,4.92-3.72,7.83-3.85,2.72,1.07,1.09,4.45,5.65,3.16,2.39-.21,3.47-3.14,5.49-1a2.2,2.2,0,0,0,1.82.93c1.72.06,3.25-2.11,4.88-.76,2,1.27,7,.29,6.82-1.94a2,2,0,0,1,3.9,0c.17,2.24,2.47,3,4.82,2.56a2.54,2.54,0,0,0,2.62-3.79l-5-14.45c-.63-1.8-1.41-2.85-3.56-2.85-3.55.06-5.75.8-6.26,3.51-.06,2.28-3,3.53-4.09,1.17-1-3.66-8-5-12.68-4.25-1.8.06-3,1.87-4.58.49a4.24,4.24,0,0,0-5,.38c-.47.83-1,1.69-2.12,1.66A2.37,2.37,0,0,1,104,62.79c-1.39-1.37-5.45-1.74-6.45-.31C96,64.53,92,61.19,89.29,63.66a2,2,0,0,1-1.54.46C86,63.67,86,62.06,83.57,62.24c-2.64-.4-5,.4-4.65,3.46L79,69.78a2,2,0,0,1-3.92.72c-1.32-2.51-1.67-9.45-5.74-9.11-3.5.06-5.79.8-6.26,3.51-1.09,3.82-1.45,9.26-6.31,4.46-3.28-2.78,4-8.26-6-8.16-2.91,0-9.7.67-9.7,6.83A4.34,4.34,0,0,0,43,71.83a2,2,0,0,1-.07,3.29c-5.95,4.77,2,8,6.78,7.78,4,.84,7.59-4,9.76-1.43l-.23.26.27-.2c.1.58,2.25,1.09,3.46.8,3-.2,3.33-1,3.68-2.4a2,2,0,0,1,3.9,0c.42,1.54.89,2.64,3.25,2.64,1.3-.14,2.54.18,3.85-.72,1.94-1.54,3.56,1.39,5.78,1.07,2,.23,1.81-2.36,3.53-2.66,1.91-.41,2.87,2.45,4.66,2.22a6.43,6.43,0,0,0,4.24-2.79A2,2,0,0,1,97.6,78.65Z"/><path class="cls-5" d="M43,80.13c-1.45-.86-1.48-1.76-.5-3,1.17-1.54,1.56-1.66,3.39-.89,2.15,1,6.45,1.2,6.56-1.46,0-3.12-10.22-.72-10.22-6.71-1.09-6.21,14.1-8,13.14-3.22,0,1.44-.27,1.88-1.21,1.88-.79-.09-6.12-1.08-6,1.14,0,2.53,10.59-1.06,10.59,7.25C58.68,82.46,47.88,83.26,43,80.13Z"/><path class="cls-5" d="M77,79c1,2.27-.59,2.44-2.48,2.47-3.41.56-2.85-2.25-3.64-4.43l-4.77.18c-.52,2.22,0,4.12-3.22,4.06-1.88.2-3.32,0-2.55-2.23l3.79-13.89c.52-2,1.09-2.47,4.55-2.72,2-.15,2.62.23,3.29,2.13Zm-7-5.23L68.17,68l-1.4,5.85Z"/><path class="cls-5" d="M94.09,77c1.7,1.49,1,2.45-.67,3.54s-2.3,1.14-3.71-.3L85.18,75.6l-.47,4.56c.09,3-4.84,1.65-4.33-.89L80,65.65c0-2,.42-2.49,2.4-2.42s3.89,0,3.41,2.57l-.47,4.88,3.61-5c1.2-1.87,2.52-2,4.63-1.83,1.81.1,2.06.67,1,2.08l-5.08,6.54Z"/><path class="cls-5" d="M108.79,65.16c-.18-1.78.17-2.23,2-2.38,3.26-.59,2.28,3.47,2.52,5.55,0,6.78-1.8,14-7.67,14-5.42,0-8-6.61-8-14.3.12-2.65-.36-6.47,3.62-5.28,3.33-.09,1.87,3,2,5.15C103.77,82,110.72,74.43,108.79,65.16Z"/><path class="cls-5" d="M129.55,77.51c1.67,1.9.21,2.72-1.56,3.56-3.27,2.34-4-4-5.17-5.76a12,12,0,0,1-2,.86c.21,2.62,1.38,5.42-2.38,5.62-1.9.37-2.45-.15-2.5-2.1l-.37-14.08c-.05-1.93.5-2.53,2.4-2.75,7.93-1.8,17.21,4.28,8.49,10.54ZM119.7,67.34l.54,4.5C127.08,70.87,125.46,65.08,119.7,67.34Z"/><path class="cls-5" d="M148.48,79c1,2.27-.59,2.44-2.48,2.47-3.4.56-2.84-2.25-3.63-4.43l-4.78.18c-.51,2.22,0,4.12-3.22,4.06-1.88.2-3.32,0-2.55-2.23l3.79-13.89c.52-2,1.09-2.47,4.55-2.72,2-.15,2.63.23,3.3,2.13Zm-7-5.22L139.67,68l-1.41,5.84Z"/><path class="cls-6" d="M147.63,80.4s0-.06,0,0Z"/><path class="cls-6" d="M139.69,68l.12.39A.49.49,0,0,0,139.69,68Z"/><path class="cls-6" d="M122.54,75c-.38.36-2.06.32-2.21,1.14.22,3,1.32,5.06-3,5.3-1,.68,1.23.46,1.61.29,3.28-.16,2-3.37,1.88-5.52a12,12,0,0,0,2-.86S122.74,74.88,122.54,75Z"/><path class="cls-6" d="M119.7,67.34c1.34-.38,4.33-1.15,5,.73-.38-2.14-4.47-1.94-5.44-.68.24.74,0,4.83,1,4.45Z"/><path class="cls-6" d="M129.55,77.51l-3.12-4.11c2.7-1.82,4.13-4.23,3.12-7-.18-.41-.53-.47-.41-.09.78,3.85-.37,4.5-2.69,6.44-.43.25-.68.51-.49.85,1.22,2.76,6.73,5.4.89,7.34-1.13,1.21,1.63,0,2-.34C130.56,79.74,130.71,79.07,129.55,77.51Z"/><path class="cls-6" d="M103.56,82c8.82,2.81,10.53-10.42,9.53-17.75-.07-.43-.55-.46-.51-.07.54,6.36.41,19.39-9,17.36C102.79,81.3,103.14,81.84,103.56,82Z"/><path class="cls-6" d="M106.7,75.48c-3.61,1.24-3.58-7.34-3.2-11.07C102,62.23,101.56,78.23,106.7,75.48Z"/><path class="cls-6" d="M94.09,77l-4.66-4.6c0-.28,7.2-8.5,5-7.28-.8.87-4.41,5.47-5.31,6.48-.14.16-.53.62-.28.9,1.67,2,5,5,5.29,5.41,1.22,1.35-1.3,2.12-2,2.77-.63.39-.14.67.25.49a9.89,9.89,0,0,0,1.44-.95C95.42,79.09,95.47,78.4,94.09,77Z"/><path class="cls-6" d="M84.67,75.53c-.73,2.36.52,7.26-3.25,5.28-.37-.15-.34.42-.2.5,4.61,2.41,3.36-3.08,4-5.71C85.18,75.6,84.76,75,84.67,75.53Z"/><path class="cls-6" d="M85.3,70.68l.48-5c0-.64-.56-.59-.62.22C85.34,66.66,84.05,70.63,85.3,70.68Z"/><path class="cls-6" d="M70.68,76.6c-1.51.26-4.41-.63-5.11.6-.33,3.23-.89,3.75-4.37,3.61-.63,0-.29.47-.08.5a8.65,8.65,0,0,0,1.76,0c3.21,0,2.7-1.84,3.22-4.06l4.77-.18S70.8,76.61,70.68,76.6Z"/><path class="cls-6" d="M72,64.59C69.39,60.17,77.35,81.21,76.63,80c.48,1.8-5.2.35-3.37,1.53,1.79,0,5.09.36,3.73-2.48Z"/><path class="cls-6" d="M66.77,73.8,68.18,68c-1.28-.28-1.65,5.11-1.87,5.25A.51.51,0,0,0,66.77,73.8Z"/><path class="cls-6" d="M142.17,76.6c-1.51.26-4.41-.63-5.1.6-.34,3.23-.9,3.75-4.38,3.61-.63,0-.29.47-.08.5a8.65,8.65,0,0,0,1.76,0c3.21,0,2.71-1.84,3.22-4.06l4.78-.18S142.29,76.61,142.17,76.6Z"/><path class="cls-6" d="M143.46,64.59c-2.57-4.42,5.39,16.62,4.66,15.38.49,1.8-5.19.35-3.36,1.53,1.78,0,5.08.36,3.72-2.48Z"/><path class="cls-6" d="M138.26,73.8,139.67,68c-1.28-.28-1.65,5.11-1.87,5.25A.51.51,0,0,0,138.26,73.8Z"/><path class="cls-6" d="M58.7,75.08c.21-.75-.73-4-.89-2.17a6.52,6.52,0,0,1,0,4.24c-1,4.14-11.88,5.25-14.4,2.49-.46-.34-1,.13-.42.49C47.88,83.26,58.68,82.46,58.7,75.08Z"/><path class="cls-6" d="M48.11,67.83c.72-3.67,7.73,1.24,7.22-3,.16-.56-.29-2-.51-.61.19,2.17-.64,2.13-2.45,1.74a10.53,10.53,0,0,0-3.59.1c-1.39.47-2.37,2.35.2,2.66C48.25,68.51,48.11,68.13,48.11,67.83Z"/><path class="cls-6" d="M44.08,71.35c2.44,1.46,7.36,1.25,8.19,2.81-.47-1.62-2.92-1.73-4.44-2.11C47.14,72.2,43.86,70.54,44.08,71.35Z"/><path class="cls-7" d="M46,59c-6.4.09-8.86,11.32-6.26,9.15C39.37,60.93,48.23,59.8,46,59Z"/><path class="cls-7" d="M38.28,79.93c0,.95,3.41,4.25,3.18,2.22a9.05,9.05,0,0,1-1.74-1.42c-.36-.38-1.28-2.13-1.44-.8Z"/><path class="cls-7" d="M56.3,60.86a3.06,3.06,0,0,1,.78.8c.34.4.58,2.42,1.33,1.23s-2.74-4.4-2.11-2Z"/><path class="cls-7" d="M63.64,59.79c-1.48,0-5.21,7.26-3.21,6.64.83-2.17,1.59-4.57,3.62-5.93.38-.26,0-1-.41-.71Z"/><path class="cls-7" d="M72.12,60.58a3.5,3.5,0,0,1,.5.44L72.55,61c.17.17.3.37.47.54L73,61.42l.11.11L73,61.46a.39.39,0,0,0,.7-.36c-.16-.61-2-1.86-1.57-.52Z"/><path class="cls-7" d="M58.05,84.17c.55.85,4.19,1.44,2.69,0a4.36,4.36,0,0,0-.8-.16H60a3.84,3.84,0,0,1-.93-.34c-.36-.5-1.73-.54-1,.49Z"/><path class="cls-7" d="M69.33,83.09c.45.65,3.25,1.93,2.41.43a7.29,7.29,0,0,1-1.88-1.13c-.44-.34-1,.35-.53.7Z"/><path class="cls-7" d="M79.18,84.26c1.24,1.15,3.91.19,1.39-.4a3.76,3.76,0,0,1-.86-.34c-.21-.3-1.11.28-.53.74Z"/><path class="cls-7" d="M88,83.68c.5.59,2.3,1.71,2.62.51a.49.49,0,0,0-.44-.46l-.47-.1.13,0a2.17,2.17,0,0,1-1.09-.57c-.1-.37-1.24-.09-.75.59Z"/><path class="cls-7" d="M80.41,60c-3.49-.13-5,7.07-3.18,5.8,0-5,5-5.13,3.18-5.8Z"/><path class="cls-7" d="M90.54,61.6l.14-.08a3.1,3.1,0,0,1,.6-.23s.79-.11.69-.48c-.32-1.11-3.11.84-1.43.79Z"/><path class="cls-7" d="M96.67,61.23c1.38-1.23,3.28-.86,4.94-.95,1.31-1.24-2.33-1-3-.82-.67-.07-3.66,1.7-1.9,1.77Z"/><path class="cls-7" d="M108.16,60.71a4.77,4.77,0,0,1,3.44-.89c1.33-1-1.42-1.23-2.07-.83-.75,0-3.14,1.79-1.37,1.72Z"/><path class="cls-7" d="M115.89,60.8c.86-1,7.52-.06,6.13-1.38C121.23,58.81,113.42,59.6,115.89,60.8Z"/><path class="cls-7" d="M133.41,62.32c.6-1.71,6.17-1.87,4.52-2.79-1.27-.93-6.69,2.81-4.52,2.79Z"/><path class="cls-7" d="M98,82c.32.63,2.91,3.5,2.87,1.65a11.58,11.58,0,0,0-1.21-1.11C99.21,82,97.7,80.3,98,82Z"/><path class="cls-7" d="M112.87,82.71c1,2.86,6.76,2.74,2.38,1a4,4,0,0,1-1-.68c-.28-.42-1.41-1.75-1.4-.32Z"/><path class="cls-7" d="M123.92,84.05c.62,1,4.21,1.3,2.6-.11-.42-.1-.81-.09-1.09-.17s-2.25-1.12-1.51.28Z"/><path class="cls-7" d="M131.44,84.42c1,.47,3.73,1.25,4.07-.2-.91-.77-2.6.19-3.73-.7A.48.48,0,0,0,131.44,84.42Z"/><path class="cls-7" d="M150.87,76.47c1,2.81.72,6.86-2.8,7.55-.3.08-.22.5,0,.57,1.72.43,3.27-1.11,3.85-2.59.86-.73,0-7.82-1.09-5.53Z"/><path class="cls-8" d="M46.83,63.3c-2.4-.13-4.68,5-2.49,3.6a5.91,5.91,0,0,1,1.71-2.16c.35-.18,2.31-1.08.78-1.44Z"/><path class="cls-8" d="M43.71,77.85a1.8,1.8,0,0,1,.54-.28l-.12,0a1.76,1.76,0,0,1,.4-.07h-.14a1.2,1.2,0,0,1,.38,0l-.13,0c.68.37,1.25-.67.51-1-.94-.64-3.28,1.37-1.44,1.27Z"/><path class="cls-8" d="M54.29,71.1a2.27,2.27,0,0,1,1.2.67c.1.16.82,1.08,1,.35C56.74,71.06,53.11,69.61,54.29,71.1Z"/><path class="cls-8" d="M67.11,63.23c-3.09-.42-2.64,6.23-.76,1.56-.09.17.15-.26.21-.32-.17.2.23-.27,0,0a1.47,1.47,0,0,1,.63-.38.41.41,0,0,0-.11-.82Z"/><path class="cls-8" d="M61.76,79.86c.14-.91,1.31-2.17.66-3-1.08-.61-2.11,4.21-.66,3Z"/><path class="cls-8" d="M67.09,75c.5,0,1.47-.44.72-.9C67.14,73.8,65.94,74.78,67.09,75Z"/><path class="cls-8" d="M75.45,79.91c.45-1-1.21-3-1.13-1.13l0-.12c.21.45.54,2.28,1.16,1.25Z"/><path class="cls-8" d="M82.58,63.85c-3.43-1.23-1.47,6.73-.79,1.55-.05.31,0-.23.08-.28s.11-.24,0-.05a.76.76,0,0,1,.12-.19s-.1.09,0,0,.09-.13.35-.17c.32.16.88-.64.25-.89Z"/><path class="cls-8" d="M81.68,79.39c.22-.52-.2-2.09-.71-1.06l0-.09c-.14.35,0,.74,0,1.11v-.1a.37.37,0,0,0,.72.14Z"/><path class="cls-8" d="M90.07,66.19c.2-.19.65-.56.75-.64l.15-.07c.3,0,2.52-.42,1.35-1.12a2.56,2.56,0,0,0-2.82,1.37c-.18.32.28.7.57.46Z"/><path class="cls-8" d="M91.91,78.37c.32.53,1.48,1.18,1.41.11-.18-.7-1.86-1.29-1.41-.11Z"/><path class="cls-8" d="M100.46,63.74c-3.32-1-1.88,4.78-1.76,6.61,1.86,2.12.44-4.93,1-5.85l0,.09-.26.13c.54,0,2.07-.38,1-1Z"/><path class="cls-8" d="M110.66,63.76c-3.14-.21.21,7.32-.22.75v0c-.48.43,0,.13.09.12.66.06.87-.88.13-.89Z"/><path class="cls-8" d="M101.23,79.05c1.16,2.71,5,.75,1.89.46a3,3,0,0,1-.5-.19c.07,0-.38-.26-.47-.36l0,0s0,0,0,0c-.2-.52-1-.51-.87.15Z"/><path class="cls-8" d="M118.44,64c-3.42-.83-2,5.05-2,7,1.4,1.47.67-3,.87-3.68-.28-3.42,1.74-2.28,1.09-3.33Z"/><path class="cls-8" d="M116.76,78.85c0,.46-.19,1.36.49,1.41.9-.19.15-2.66-.49-1.41Z"/><path class="cls-8" d="M125.1,79a5.36,5.36,0,0,1,.24.6l0-.13c-.07.88,1.18,1.34,1.15.27,0-.79-1.33-2.28-1.35-.74Z"/><path class="cls-8" d="M122.42,72.67c.57-.1,2.78-1.11,1.67-1.58C123.7,71.35,121,72.41,122.42,72.67Z"/><path class="cls-8" d="M127,65.71l0,0a2.47,2.47,0,0,1,.24.33,2.85,2.85,0,0,1,.25.63l0-.1c.14.9,1.09.44.74-.31,0-.66-1.61-1.82-1.22-.57Z"/><path class="cls-8" d="M138.87,63.64a3.08,3.08,0,0,0-1,.13c-2.92,1-2,7.16-.07,1.29-.07.13.06-.09.08-.12s0,0,0,0,.36-.28.35-.31c.44-.13,1.48-.61.65-1Z"/><path class="cls-8" d="M133.21,79.69c.35-.59,1.62-3.5,0-2.51-.1.47-1.19,3.22,0,2.51Z"/><path class="cls-8" d="M138.59,75c.58.18,1.54-.38.73-.85S137.61,74.66,138.59,75Z"/><path class="cls-8" d="M145.84,80.26c1.39.63,1.5-1.6.72-2.27l.1.09c-.37-.52-1.06-.25-.89.38v-.13a.82.82,0,0,0,.06.38l0-.12a6,6,0,0,1,.2.94v-.14a.62.62,0,0,1,0,.19l0-.14a.42.42,0,0,1,0,.1l.07-.12,0,0,.09-.1-.07.06.11-.07-.05,0,.12,0h0l.14,0A.52.52,0,0,0,145.84,80.26Z"/></svg>